<?xml version="1.0" encoding="utf-8" standalone="no"?>
<!DOCTYPE svg PUBLIC "-//W3C//DTD SVG 1.1//EN"
  "http://www.w3.org/Graphics/SVG/1.1/DTD/svg11.dtd">
<!-- Created with matplotlib (http://matplotlib.org/) -->
<svg height="345pt" version="1.1" viewBox="0 0 460 345" width="460pt" xmlns="http://www.w3.org/2000/svg" xmlns:xlink="http://www.w3.org/1999/xlink">
 <defs>
  <style type="text/css">
*{stroke-linecap:butt;stroke-linejoin:round;}
  </style>
 </defs>
 <g id="figure_1">
  <g id="patch_1">
   <path d="M 0 345.6 
L 460.8 345.6 
L 460.8 0 
L 0 0 
z
" style="fill:#ffffff;"/>
  </g>
  <g id="axes_1">
   <g id="patch_2">
    <path d="M 57.6 155.195077 
L 414.72 155.195077 
L 414.72 41.472 
L 57.6 41.472 
z
" style="fill:#ffffff;"/>
   </g>
   <g id="matplotlib.axis_1">
    <g id="xtick_1">
     <g id="line2d_1">
      <defs>
       <path d="M 0 0 
L 0 3.5 
" id="m1a43add518" style="stroke:#000000;stroke-width:0.8;"/>
      </defs>
      <g>
       <use style="stroke:#000000;stroke-width:0.8;" x="57.6" xlink:href="#m1a43add518" y="155.195077"/>
      </g>
     </g>
     <g id="text_1">
      <!-- 1.150 -->
      <defs>
       <path d="M 35.59375 0 
L 26.515625 0 
L 26.515625 60.203125 
L 8.296875 53.515625 
L 8.296875 61.71875 
L 34.1875 71.4375 
L 35.59375 71.4375 
z
" id="Roboto-Regular-31"/>
       <path d="M 7.03125 4.734375 
Q 7.03125 7.078125 8.421875 8.640625 
Q 9.8125 10.203125 12.59375 10.203125 
Q 15.375 10.203125 16.8125 8.640625 
Q 18.265625 7.078125 18.265625 4.734375 
Q 18.265625 2.484375 16.8125 0.96875 
Q 15.375 -0.53125 12.59375 -0.53125 
Q 9.8125 -0.53125 8.421875 0.96875 
Q 7.03125 2.484375 7.03125 4.734375 
z
" id="Roboto-Regular-2e"/>
       <path d="M 10.0625 35.640625 
L 13.671875 71.09375 
L 50.09375 71.09375 
L 50.09375 62.75 
L 21.34375 62.75 
L 19.1875 43.359375 
Q 24.421875 46.4375 31.0625 46.4375 
Q 40.765625 46.4375 46.484375 40.015625 
Q 52.203125 33.59375 52.203125 22.65625 
Q 52.203125 11.671875 46.265625 5.34375 
Q 40.328125 -0.984375 29.6875 -0.984375 
Q 20.265625 -0.984375 14.296875 4.234375 
Q 8.34375 9.46875 7.515625 18.703125 
L 16.0625 18.703125 
Q 16.890625 12.59375 20.40625 9.484375 
Q 23.921875 6.390625 29.6875 6.390625 
Q 35.984375 6.390625 39.578125 10.6875 
Q 43.171875 14.984375 43.171875 22.5625 
Q 43.171875 29.6875 39.28125 34 
Q 35.40625 38.328125 28.953125 38.328125 
Q 23.046875 38.328125 19.671875 35.75 
L 17.28125 33.796875 
z
" id="Roboto-Regular-35"/>
       <path d="M 50.484375 30.328125 
Q 50.484375 14.453125 45.0625 6.734375 
Q 39.65625 -0.984375 28.125 -0.984375 
Q 16.75 -0.984375 11.28125 6.5625 
Q 5.8125 14.109375 5.609375 29.109375 
L 5.609375 41.15625 
Q 5.609375 56.84375 11.03125 64.453125 
Q 16.453125 72.078125 28.03125 72.078125 
Q 39.5 72.078125 44.921875 64.71875 
Q 50.34375 57.375 50.484375 42.046875 
z
M 41.453125 42.671875 
Q 41.453125 54.15625 38.234375 59.40625 
Q 35.015625 64.65625 28.03125 64.65625 
Q 21.09375 64.65625 17.921875 59.421875 
Q 14.75 54.203125 14.65625 43.359375 
L 14.65625 28.90625 
Q 14.65625 17.390625 18 11.890625 
Q 21.34375 6.390625 28.125 6.390625 
Q 34.8125 6.390625 38.0625 11.5625 
Q 41.3125 16.75 41.453125 27.875 
z
" id="Roboto-Regular-30"/>
      </defs>
      <g transform="translate(45.053125 169.695077)scale(0.1 -0.1)">
       <use xlink:href="#Roboto-Regular-31"/>
       <use x="56.152344" xlink:href="#Roboto-Regular-2e"/>
       <use x="82.470703" xlink:href="#Roboto-Regular-31"/>
       <use x="138.623047" xlink:href="#Roboto-Regular-35"/>
       <use x="194.775391" xlink:href="#Roboto-Regular-30"/>
      </g>
     </g>
    </g>
    <g id="xtick_2">
     <g id="line2d_2">
      <g>
       <use style="stroke:#000000;stroke-width:0.8;" x="117.12" xlink:href="#m1a43add518" y="155.195077"/>
      </g>
     </g>
     <g id="text_2">
      <!-- 1.155 -->
      <g transform="translate(104.573125 169.695077)scale(0.1 -0.1)">
       <use xlink:href="#Roboto-Regular-31"/>
       <use x="56.152344" xlink:href="#Roboto-Regular-2e"/>
       <use x="82.470703" xlink:href="#Roboto-Regular-31"/>
       <use x="138.623047" xlink:href="#Roboto-Regular-35"/>
       <use x="194.775391" xlink:href="#Roboto-Regular-35"/>
      </g>
     </g>
    </g>
    <g id="xtick_3">
     <g id="line2d_3">
      <g>
       <use style="stroke:#000000;stroke-width:0.8;" x="176.64" xlink:href="#m1a43add518" y="155.195077"/>
      </g>
     </g>
     <g id="text_3">
      <!-- 1.160 -->
      <defs>
       <path d="M 41.359375 71.140625 
L 41.359375 63.484375 
L 39.703125 63.484375 
Q 29.15625 63.28125 22.90625 57.21875 
Q 16.65625 51.171875 15.671875 40.1875 
Q 21.296875 46.625 31 46.625 
Q 40.28125 46.625 45.828125 40.078125 
Q 51.375 33.546875 51.375 23.1875 
Q 51.375 12.203125 45.390625 5.609375 
Q 39.40625 -0.984375 29.34375 -0.984375 
Q 19.140625 -0.984375 12.796875 6.859375 
Q 6.453125 14.703125 6.453125 27.046875 
L 6.453125 30.515625 
Q 6.453125 50.140625 14.8125 60.515625 
Q 23.1875 70.90625 39.75 71.140625 
z
M 29.5 39.109375 
Q 24.859375 39.109375 20.953125 36.328125 
Q 17.046875 33.546875 15.53125 29.34375 
L 15.53125 26.03125 
Q 15.53125 17.234375 19.484375 11.859375 
Q 23.4375 6.5 29.34375 6.5 
Q 35.453125 6.5 38.9375 10.984375 
Q 42.4375 15.484375 42.4375 22.75 
Q 42.4375 30.078125 38.890625 34.59375 
Q 35.359375 39.109375 29.5 39.109375 
z
" id="Roboto-Regular-36"/>
      </defs>
      <g transform="translate(164.093125 169.695077)scale(0.1 -0.1)">
       <use xlink:href="#Roboto-Regular-31"/>
       <use x="56.152344" xlink:href="#Roboto-Regular-2e"/>
       <use x="82.470703" xlink:href="#Roboto-Regular-31"/>
       <use x="138.623047" xlink:href="#Roboto-Regular-36"/>
       <use x="194.775391" xlink:href="#Roboto-Regular-30"/>
      </g>
     </g>
    </g>
    <g id="xtick_4">
     <g id="line2d_4">
      <g>
       <use style="stroke:#000000;stroke-width:0.8;" x="236.16" xlink:href="#m1a43add518" y="155.195077"/>
      </g>
     </g>
     <g id="text_4">
      <!-- 1.165 -->
      <g transform="translate(223.613125 169.695077)scale(0.1 -0.1)">
       <use xlink:href="#Roboto-Regular-31"/>
       <use x="56.152344" xlink:href="#Roboto-Regular-2e"/>
       <use x="82.470703" xlink:href="#Roboto-Regular-31"/>
       <use x="138.623047" xlink:href="#Roboto-Regular-36"/>
       <use x="194.775391" xlink:href="#Roboto-Regular-35"/>
      </g>
     </g>
    </g>
    <g id="xtick_5">
     <g id="line2d_5">
      <g>
       <use style="stroke:#000000;stroke-width:0.8;" x="295.68" xlink:href="#m1a43add518" y="155.195077"/>
      </g>
     </g>
     <g id="text_5">
      <!-- 1.170 -->
      <defs>
       <path d="M 51.8125 66.015625 
L 22.359375 0 
L 12.890625 0 
L 42.234375 63.671875 
L 3.765625 63.671875 
L 3.765625 71.09375 
L 51.8125 71.09375 
z
" id="Roboto-Regular-37"/>
      </defs>
      <g transform="translate(283.133125 169.695077)scale(0.1 -0.1)">
       <use xlink:href="#Roboto-Regular-31"/>
       <use x="56.152344" xlink:href="#Roboto-Regular-2e"/>
       <use x="82.470703" xlink:href="#Roboto-Regular-31"/>
       <use x="138.623047" xlink:href="#Roboto-Regular-37"/>
       <use x="194.775391" xlink:href="#Roboto-Regular-30"/>
      </g>
     </g>
    </g>
    <g id="xtick_6">
     <g id="line2d_6">
      <g>
       <use style="stroke:#000000;stroke-width:0.8;" x="355.2" xlink:href="#m1a43add518" y="155.195077"/>
      </g>
     </g>
     <g id="text_6">
      <!-- 1.175 -->
      <g transform="translate(342.653125 169.695077)scale(0.1 -0.1)">
       <use xlink:href="#Roboto-Regular-31"/>
       <use x="56.152344" xlink:href="#Roboto-Regular-2e"/>
       <use x="82.470703" xlink:href="#Roboto-Regular-31"/>
       <use x="138.623047" xlink:href="#Roboto-Regular-37"/>
       <use x="194.775391" xlink:href="#Roboto-Regular-35"/>
      </g>
     </g>
    </g>
    <g id="xtick_7">
     <g id="line2d_7">
      <g>
       <use style="stroke:#000000;stroke-width:0.8;" x="414.72" xlink:href="#m1a43add518" y="155.195077"/>
      </g>
     </g>
     <g id="text_7">
      <!-- 1.180 -->
      <defs>
       <path d="M 49.03125 52.546875 
Q 49.03125 47.21875 46.21875 43.0625 
Q 43.40625 38.921875 38.625 36.578125 
Q 44.1875 34.1875 47.4375 29.59375 
Q 50.6875 25 50.6875 19.1875 
Q 50.6875 9.96875 44.453125 4.484375 
Q 38.234375 -0.984375 28.078125 -0.984375 
Q 17.828125 -0.984375 11.640625 4.515625 
Q 5.46875 10.015625 5.46875 19.1875 
Q 5.46875 24.953125 8.609375 29.59375 
Q 11.765625 34.234375 17.328125 36.625 
Q 12.59375 38.96875 9.859375 43.109375 
Q 7.125 47.265625 7.125 52.546875 
Q 7.125 61.53125 12.890625 66.796875 
Q 18.65625 72.078125 28.078125 72.078125 
Q 37.453125 72.078125 43.234375 66.796875 
Q 49.03125 61.53125 49.03125 52.546875 
z
M 41.65625 19.390625 
Q 41.65625 25.34375 37.859375 29.09375 
Q 34.078125 32.859375 27.96875 32.859375 
Q 21.875 32.859375 18.1875 29.140625 
Q 14.5 25.4375 14.5 19.375 
Q 14.5 13.328125 18.09375 9.859375 
Q 21.6875 6.390625 28.078125 6.390625 
Q 34.421875 6.390625 38.03125 9.875 
Q 41.65625 13.375 41.65625 19.390625 
z
M 28.078125 64.65625 
Q 22.75 64.65625 19.453125 61.359375 
Q 16.15625 58.0625 16.15625 52.390625 
Q 16.15625 46.96875 19.40625 43.625 
Q 22.65625 40.28125 28.078125 40.28125 
Q 33.5 40.28125 36.734375 43.625 
Q 39.984375 46.96875 39.984375 52.390625 
Q 39.984375 57.8125 36.609375 61.234375 
Q 33.25 64.65625 28.078125 64.65625 
z
" id="Roboto-Regular-38"/>
      </defs>
      <g transform="translate(402.173125 169.695077)scale(0.1 -0.1)">
       <use xlink:href="#Roboto-Regular-31"/>
       <use x="56.152344" xlink:href="#Roboto-Regular-2e"/>
       <use x="82.470703" xlink:href="#Roboto-Regular-31"/>
       <use x="138.623047" xlink:href="#Roboto-Regular-38"/>
       <use x="194.775391" xlink:href="#Roboto-Regular-30"/>
      </g>
     </g>
    </g>
    <g id="text_8">
     <!-- Energy (keV) -->
     <defs>
      <path d="M 48.4375 32.859375 
L 17.625 32.859375 
L 17.625 7.671875 
L 53.421875 7.671875 
L 53.421875 0 
L 8.25 0 
L 8.25 71.09375 
L 52.9375 71.09375 
L 52.9375 63.375 
L 17.625 63.375 
L 17.625 40.53125 
L 48.4375 40.53125 
z
" id="Roboto-Regular-45"/>
      <path d="M 15.375 52.828125 
L 15.671875 46.1875 
Q 21.734375 53.8125 31.5 53.8125 
Q 48.25 53.8125 48.390625 34.90625 
L 48.390625 0 
L 39.359375 0 
L 39.359375 34.96875 
Q 39.3125 40.671875 36.75 43.40625 
Q 34.1875 46.140625 28.765625 46.140625 
Q 24.359375 46.140625 21.03125 43.796875 
Q 17.71875 41.453125 15.875 37.640625 
L 15.875 0 
L 6.84375 0 
L 6.84375 52.828125 
z
" id="Roboto-Regular-6e"/>
      <path d="M 28.765625 -0.984375 
Q 18.015625 -0.984375 11.28125 6.078125 
Q 4.546875 13.140625 4.546875 24.953125 
L 4.546875 26.609375 
Q 4.546875 34.46875 7.546875 40.640625 
Q 10.546875 46.828125 15.9375 50.3125 
Q 21.34375 53.8125 27.640625 53.8125 
Q 37.9375 53.8125 43.640625 47.015625 
Q 49.359375 40.234375 49.359375 27.59375 
L 49.359375 23.828125 
L 13.578125 23.828125 
Q 13.765625 16.015625 18.140625 11.203125 
Q 22.515625 6.390625 29.25 6.390625 
Q 34.03125 6.390625 37.34375 8.34375 
Q 40.671875 10.296875 43.171875 13.53125 
L 48.6875 9.234375 
Q 42.046875 -0.984375 28.765625 -0.984375 
z
M 27.640625 46.390625 
Q 22.171875 46.390625 18.453125 42.40625 
Q 14.75 38.421875 13.875 31.25 
L 40.328125 31.25 
L 40.328125 31.9375 
Q 39.9375 38.8125 36.609375 42.59375 
Q 33.296875 46.390625 27.640625 46.390625 
z
" id="Roboto-Regular-65"/>
      <path d="M 32.375 44.734375 
Q 30.328125 45.0625 27.9375 45.0625 
Q 19.046875 45.0625 15.875 37.5 
L 15.875 0 
L 6.84375 0 
L 6.84375 52.828125 
L 15.625 52.828125 
L 15.765625 46.734375 
Q 20.21875 53.8125 28.375 53.8125 
Q 31 53.8125 32.375 53.125 
z
" id="Roboto-Regular-72"/>
      <path d="M 4.6875 26.859375 
Q 4.6875 39.203125 10.390625 46.5 
Q 16.109375 53.8125 25.53125 53.8125 
Q 35.203125 53.8125 40.625 46.96875 
L 41.0625 52.828125 
L 49.3125 52.828125 
L 49.3125 1.265625 
Q 49.3125 -8.984375 43.234375 -14.890625 
Q 37.15625 -20.796875 26.90625 -20.796875 
Q 21.1875 -20.796875 15.71875 -18.359375 
Q 10.25 -15.921875 7.375 -11.671875 
L 12.0625 -6.25 
Q 17.875 -13.421875 26.265625 -13.421875 
Q 32.859375 -13.421875 36.546875 -9.703125 
Q 40.234375 -6 40.234375 0.734375 
L 40.234375 5.28125 
Q 34.8125 -0.984375 25.4375 -0.984375 
Q 16.15625 -0.984375 10.421875 6.484375 
Q 4.6875 13.96875 4.6875 26.859375 
z
M 13.765625 25.828125 
Q 13.765625 16.890625 17.421875 11.78125 
Q 21.09375 6.6875 27.6875 6.6875 
Q 36.234375 6.6875 40.234375 14.453125 
L 40.234375 38.578125 
Q 36.078125 46.140625 27.78125 46.140625 
Q 21.1875 46.140625 17.46875 41.015625 
Q 13.765625 35.890625 13.765625 25.828125 
z
" id="Roboto-Regular-67"/>
      <path d="M 24.125 13.234375 
L 36.421875 52.828125 
L 46.09375 52.828125 
L 24.859375 -8.15625 
Q 19.921875 -21.34375 9.1875 -21.34375 
L 7.46875 -21.1875 
L 4.109375 -20.5625 
L 4.109375 -13.234375 
L 6.546875 -13.421875 
Q 11.140625 -13.421875 13.703125 -11.5625 
Q 16.265625 -9.71875 17.921875 -4.78125 
L 19.921875 0.59375 
L 1.078125 52.828125 
L 10.9375 52.828125 
z
" id="Roboto-Regular-79"/>
      <path id="Roboto-Regular-20"/>
      <path d="M 6.5 28.859375 
Q 6.5 39.890625 9.453125 50.046875 
Q 12.40625 60.203125 18.265625 68.5 
Q 24.125 76.8125 30.421875 80.21875 
L 32.28125 74.265625 
Q 25.140625 68.796875 20.578125 57.5625 
Q 16.015625 46.34375 15.578125 32.421875 
L 15.53125 28.265625 
Q 15.53125 9.421875 22.40625 -4.4375 
Q 26.5625 -12.75 32.28125 -17.4375 
L 30.421875 -22.953125 
Q 23.921875 -19.34375 18.015625 -10.84375 
Q 6.5 5.765625 6.5 28.859375 
z
" id="Roboto-Regular-28"/>
      <path d="M 21.578125 24.46875 
L 15.921875 18.5625 
L 15.921875 0 
L 6.890625 0 
L 6.890625 75 
L 15.921875 75 
L 15.921875 29.640625 
L 20.75 35.453125 
L 37.203125 52.828125 
L 48.1875 52.828125 
L 27.640625 30.765625 
L 50.59375 0 
L 39.984375 0 
z
" id="Roboto-Regular-6b"/>
      <path d="M 31.78125 12.453125 
L 52.09375 71.09375 
L 62.359375 71.09375 
L 35.984375 0 
L 27.6875 0 
L 1.375 71.09375 
L 11.578125 71.09375 
z
" id="Roboto-Regular-56"/>
      <path d="M 27.6875 28.375 
Q 27.6875 17.484375 24.828125 7.5 
Q 21.96875 -2.484375 16.078125 -10.9375 
Q 10.203125 -19.390625 3.765625 -22.953125 
L 1.859375 -17.4375 
Q 9.375 -11.671875 13.9375 0.453125 
Q 18.5 12.59375 18.609375 27.390625 
L 18.609375 28.953125 
Q 18.609375 39.203125 16.453125 48.015625 
Q 14.3125 56.84375 10.46875 63.8125 
Q 6.640625 70.796875 1.859375 74.703125 
L 3.765625 80.21875 
Q 10.203125 76.65625 16.03125 68.3125 
Q 21.875 59.96875 24.78125 49.90625 
Q 27.6875 39.84375 27.6875 28.375 
z
" id="Roboto-Regular-29"/>
     </defs>
     <g transform="translate(207.996719 183.748202)scale(0.1 -0.1)">
      <use xlink:href="#Roboto-Regular-45"/>
      <use x="56.835938" xlink:href="#Roboto-Regular-6e"/>
      <use x="112.011719" xlink:href="#Roboto-Regular-65"/>
      <use x="164.990234" xlink:href="#Roboto-Regular-72"/>
      <use x="198.828125" xlink:href="#Roboto-Regular-67"/>
      <use x="254.931641" xlink:href="#Roboto-Regular-79"/>
      <use x="302.246094" xlink:href="#Roboto-Regular-20"/>
      <use x="327.001953" xlink:href="#Roboto-Regular-28"/>
      <use x="361.181641" xlink:href="#Roboto-Regular-6b"/>
      <use x="411.865234" xlink:href="#Roboto-Regular-65"/>
      <use x="464.84375" xlink:href="#Roboto-Regular-56"/>
      <use x="528.466797" xlink:href="#Roboto-Regular-29"/>
     </g>
    </g>
   </g>
   <g id="matplotlib.axis_2">
    <g id="ytick_1">
     <g id="line2d_8">
      <defs>
       <path d="M 0 0 
L -3.5 0 
" id="maae9681ade" style="stroke:#000000;stroke-width:0.8;"/>
      </defs>
      <g>
       <use style="stroke:#000000;stroke-width:0.8;" x="57.6" xlink:href="#maae9681ade" y="150.025846"/>
      </g>
     </g>
     <g id="text_9">
      <!-- 0 -->
      <g transform="translate(44.984375 153.775846)scale(0.1 -0.1)">
       <use xlink:href="#Roboto-Regular-30"/>
      </g>
     </g>
    </g>
    <g id="ytick_2">
     <g id="line2d_9">
      <g>
       <use style="stroke:#000000;stroke-width:0.8;" x="57.6" xlink:href="#maae9681ade" y="122.401596"/>
      </g>
     </g>
     <g id="text_10">
      <!-- 2 -->
      <defs>
       <path d="M 52.484375 0 
L 5.90625 0 
L 5.90625 6.5 
L 30.515625 33.84375 
Q 35.984375 40.046875 38.0625 43.921875 
Q 40.140625 47.796875 40.140625 51.953125 
Q 40.140625 57.515625 36.765625 61.078125 
Q 33.40625 64.65625 27.78125 64.65625 
Q 21.046875 64.65625 17.3125 60.8125 
Q 13.578125 56.984375 13.578125 50.140625 
L 4.546875 50.140625 
Q 4.546875 59.96875 10.859375 66.015625 
Q 17.1875 72.078125 27.78125 72.078125 
Q 37.703125 72.078125 43.453125 66.875 
Q 49.21875 61.671875 49.21875 53.03125 
Q 49.21875 42.53125 35.84375 28.03125 
L 16.796875 7.375 
L 52.484375 7.375 
z
" id="Roboto-Regular-32"/>
      </defs>
      <g transform="translate(44.984375 126.151596)scale(0.1 -0.1)">
       <use xlink:href="#Roboto-Regular-32"/>
      </g>
     </g>
    </g>
    <g id="ytick_3">
     <g id="line2d_10">
      <g>
       <use style="stroke:#000000;stroke-width:0.8;" x="57.6" xlink:href="#maae9681ade" y="94.777345"/>
      </g>
     </g>
     <g id="text_11">
      <!-- 4 -->
      <defs>
       <path d="M 44.046875 23.875 
L 53.90625 23.875 
L 53.90625 16.5 
L 44.046875 16.5 
L 44.046875 0 
L 34.96875 0 
L 34.96875 16.5 
L 2.59375 16.5 
L 2.59375 21.828125 
L 34.421875 71.09375 
L 44.046875 71.09375 
z
M 12.84375 23.875 
L 34.96875 23.875 
L 34.96875 58.734375 
L 33.890625 56.78125 
z
" id="Roboto-Regular-34"/>
      </defs>
      <g transform="translate(44.984375 98.527345)scale(0.1 -0.1)">
       <use xlink:href="#Roboto-Regular-34"/>
      </g>
     </g>
    </g>
    <g id="ytick_4">
     <g id="line2d_11">
      <g>
       <use style="stroke:#000000;stroke-width:0.8;" x="57.6" xlink:href="#maae9681ade" y="67.153094"/>
      </g>
     </g>
     <g id="text_12">
      <!-- 6 -->
      <g transform="translate(44.984375 70.903094)scale(0.1 -0.1)">
       <use xlink:href="#Roboto-Regular-36"/>
      </g>
     </g>
    </g>
    <g id="text_13">
     <!-- Intensity (ph cm$^5$ s$^{-1}$ bin$^{-1}$) -->
     <defs>
      <path d="M 18.3125 0 
L 8.9375 0 
L 8.9375 71.09375 
L 18.3125 71.09375 
z
" id="Roboto-Regular-49"/>
      <path d="M 19.09375 65.625 
L 19.09375 52.828125 
L 28.953125 52.828125 
L 28.953125 45.84375 
L 19.09375 45.84375 
L 19.09375 13.09375 
Q 19.09375 9.90625 20.40625 8.3125 
Q 21.734375 6.734375 24.90625 6.734375 
Q 26.46875 6.734375 29.203125 7.328125 
L 29.203125 0 
Q 25.640625 -0.984375 22.265625 -0.984375 
Q 16.21875 -0.984375 13.140625 2.671875 
Q 10.0625 6.34375 10.0625 13.09375 
L 10.0625 45.84375 
L 0.4375 45.84375 
L 0.4375 52.828125 
L 10.0625 52.828125 
L 10.0625 65.625 
z
" id="Roboto-Regular-74"/>
      <path d="M 37.59375 14.015625 
Q 37.59375 17.671875 34.828125 19.703125 
Q 32.078125 21.734375 25.21875 23.1875 
Q 18.359375 24.65625 14.328125 26.703125 
Q 10.296875 28.765625 8.375 31.59375 
Q 6.453125 34.421875 6.453125 38.328125 
Q 6.453125 44.828125 11.9375 49.3125 
Q 17.4375 53.8125 25.984375 53.8125 
Q 34.96875 53.8125 40.546875 49.171875 
Q 46.140625 44.53125 46.140625 37.3125 
L 37.0625 37.3125 
Q 37.0625 41.015625 33.90625 43.703125 
Q 30.765625 46.390625 25.984375 46.390625 
Q 21.046875 46.390625 18.265625 44.234375 
Q 15.484375 42.09375 15.484375 38.625 
Q 15.484375 35.359375 18.0625 33.6875 
Q 20.65625 32.03125 27.421875 30.515625 
Q 34.1875 29 38.375 26.90625 
Q 42.578125 24.8125 44.59375 21.84375 
Q 46.625 18.890625 46.625 14.65625 
Q 46.625 7.5625 40.953125 3.28125 
Q 35.296875 -0.984375 26.265625 -0.984375 
Q 19.921875 -0.984375 15.03125 1.265625 
Q 10.15625 3.515625 7.390625 7.546875 
Q 4.640625 11.578125 4.640625 16.265625 
L 13.671875 16.265625 
Q 13.921875 11.71875 17.3125 9.046875 
Q 20.703125 6.390625 26.265625 6.390625 
Q 31.390625 6.390625 34.484375 8.46875 
Q 37.59375 10.546875 37.59375 14.015625 
z
" id="Roboto-Regular-73"/>
      <path d="M 16.65625 0 
L 7.625 0 
L 7.625 52.828125 
L 16.65625 52.828125 
z
M 6.890625 66.84375 
Q 6.890625 69.046875 8.234375 70.5625 
Q 9.578125 72.078125 12.203125 72.078125 
Q 14.84375 72.078125 16.203125 70.5625 
Q 17.578125 69.046875 17.578125 66.84375 
Q 17.578125 64.65625 16.203125 63.1875 
Q 14.84375 61.71875 12.203125 61.71875 
Q 9.578125 61.71875 8.234375 63.1875 
Q 6.890625 64.65625 6.890625 66.84375 
z
" id="Roboto-Regular-69"/>
      <path d="M 51.46875 25.828125 
Q 51.46875 13.765625 45.953125 6.390625 
Q 40.4375 -0.984375 31 -0.984375 
Q 21.390625 -0.984375 15.875 5.125 
L 15.875 -20.3125 
L 6.84375 -20.3125 
L 6.84375 52.828125 
L 15.09375 52.828125 
L 15.53125 46.96875 
Q 21.046875 53.8125 30.859375 53.8125 
Q 40.375 53.8125 45.921875 46.625 
Q 51.46875 39.453125 51.46875 26.65625 
z
M 42.4375 26.859375 
Q 42.4375 35.796875 38.625 40.96875 
Q 34.8125 46.140625 28.171875 46.140625 
Q 19.96875 46.140625 15.875 38.875 
L 15.875 13.625 
Q 19.921875 6.390625 28.265625 6.390625 
Q 34.765625 6.390625 38.59375 11.546875 
Q 42.4375 16.703125 42.4375 26.859375 
z
" id="Roboto-Regular-70"/>
      <path d="M 15.875 46.4375 
Q 21.875 53.8125 31.5 53.8125 
Q 48.25 53.8125 48.390625 34.90625 
L 48.390625 0 
L 39.359375 0 
L 39.359375 34.96875 
Q 39.3125 40.671875 36.75 43.40625 
Q 34.1875 46.140625 28.765625 46.140625 
Q 24.359375 46.140625 21.03125 43.796875 
Q 17.71875 41.453125 15.875 37.640625 
L 15.875 0 
L 6.84375 0 
L 6.84375 75 
L 15.875 75 
z
" id="Roboto-Regular-68"/>
      <path d="M 28.03125 6.390625 
Q 32.859375 6.390625 36.46875 9.3125 
Q 40.09375 12.25 40.484375 16.65625 
L 49.03125 16.65625 
Q 48.78125 12.109375 45.890625 8 
Q 43.015625 3.90625 38.203125 1.453125 
Q 33.40625 -0.984375 28.03125 -0.984375 
Q 17.234375 -0.984375 10.859375 6.21875 
Q 4.5 13.421875 4.5 25.921875 
L 4.5 27.4375 
Q 4.5 35.15625 7.328125 41.15625 
Q 10.15625 47.171875 15.453125 50.484375 
Q 20.75 53.8125 27.984375 53.8125 
Q 36.859375 53.8125 42.75 48.484375 
Q 48.640625 43.171875 49.03125 34.671875 
L 40.484375 34.671875 
Q 40.09375 39.796875 36.59375 43.09375 
Q 33.109375 46.390625 27.984375 46.390625 
Q 21.09375 46.390625 17.3125 41.421875 
Q 13.53125 36.46875 13.53125 27.09375 
L 13.53125 25.390625 
Q 13.53125 16.265625 17.28125 11.328125 
Q 21.046875 6.390625 28.03125 6.390625 
z
" id="Roboto-Regular-63"/>
      <path d="M 15.328125 52.828125 
L 15.578125 46.96875 
Q 21.390625 53.8125 31.25 53.8125 
Q 42.328125 53.8125 46.34375 45.3125 
Q 48.96875 49.125 53.1875 51.46875 
Q 57.421875 53.8125 63.1875 53.8125 
Q 80.5625 53.8125 80.859375 35.40625 
L 80.859375 0 
L 71.828125 0 
L 71.828125 34.859375 
Q 71.828125 40.53125 69.234375 43.328125 
Q 66.65625 46.140625 60.546875 46.140625 
Q 55.515625 46.140625 52.1875 43.140625 
Q 48.875 40.140625 48.34375 35.0625 
L 48.34375 0 
L 39.265625 0 
L 39.265625 34.625 
Q 39.265625 46.140625 27.984375 46.140625 
Q 19.09375 46.140625 15.828125 38.578125 
L 15.828125 0 
L 6.78125 0 
L 6.78125 52.828125 
z
" id="Roboto-Regular-6d"/>
      <path d="M 48.96875 31.78125 
L 8.203125 31.78125 
L 8.203125 39.15625 
L 48.96875 39.15625 
z
" id="Roboto-Regular-2212"/>
      <path d="M 51.5625 25.828125 
Q 51.5625 13.71875 46 6.359375 
Q 40.4375 -0.984375 31.0625 -0.984375 
Q 21.046875 -0.984375 15.578125 6.109375 
L 15.140625 0 
L 6.84375 0 
L 6.84375 75 
L 15.875 75 
L 15.875 47.015625 
Q 21.34375 53.8125 30.953125 53.8125 
Q 40.578125 53.8125 46.0625 46.53125 
Q 51.5625 39.265625 51.5625 26.609375 
z
M 42.53125 26.859375 
Q 42.53125 36.078125 38.96875 41.109375 
Q 35.40625 46.140625 28.71875 46.140625 
Q 19.78125 46.140625 15.875 37.84375 
L 15.875 14.984375 
Q 20.015625 6.6875 28.8125 6.6875 
Q 35.296875 6.6875 38.90625 11.71875 
Q 42.53125 16.75 42.53125 26.859375 
z
" id="Roboto-Regular-62"/>
     </defs>
     <g transform="translate(38.684375 158.033538)rotate(-90)scale(0.1 -0.1)">
      <use transform="translate(0 0.014063)" xlink:href="#Roboto-Regular-49"/>
      <use transform="translate(27.197266 0.014063)" xlink:href="#Roboto-Regular-6e"/>
      <use transform="translate(82.373047 0.014063)" xlink:href="#Roboto-Regular-74"/>
      <use transform="translate(115.039062 0.014063)" xlink:href="#Roboto-Regular-65"/>
      <use transform="translate(168.017578 0.014063)" xlink:href="#Roboto-Regular-6e"/>
      <use transform="translate(223.193359 0.014063)" xlink:href="#Roboto-Regular-73"/>
      <use transform="translate(274.755859 0.014063)" xlink:href="#Roboto-Regular-69"/>
      <use transform="translate(299.023438 0.014063)" xlink:href="#Roboto-Regular-74"/>
      <use transform="translate(331.689453 0.014063)" xlink:href="#Roboto-Regular-79"/>
      <use transform="translate(379.003906 0.014063)" xlink:href="#Roboto-Regular-20"/>
      <use transform="translate(403.759766 0.014063)" xlink:href="#Roboto-Regular-28"/>
      <use transform="translate(437.939453 0.014063)" xlink:href="#Roboto-Regular-70"/>
      <use transform="translate(494.042969 0.014063)" xlink:href="#Roboto-Regular-68"/>
      <use transform="translate(549.121094 0.014063)" xlink:href="#Roboto-Regular-20"/>
      <use transform="translate(573.876953 0.014063)" xlink:href="#Roboto-Regular-63"/>
      <use transform="translate(626.220703 0.014063)" xlink:href="#Roboto-Regular-6d"/>
      <use transform="translate(714.79168 36.99375)scale(0.7)" xlink:href="#Roboto-Regular-35"/>
      <use transform="translate(756.739727 0.014063)" xlink:href="#Roboto-Regular-20"/>
      <use transform="translate(781.495586 0.014063)" xlink:href="#Roboto-Regular-73"/>
      <use transform="translate(833.982578 36.99375)scale(0.7)" xlink:href="#Roboto-Regular-2212"/>
      <use transform="translate(873.972813 36.99375)scale(0.7)" xlink:href="#Roboto-Regular-31"/>
      <use transform="translate(915.920859 0.014063)" xlink:href="#Roboto-Regular-20"/>
      <use transform="translate(940.676719 0.014063)" xlink:href="#Roboto-Regular-62"/>
      <use transform="translate(996.780234 0.014063)" xlink:href="#Roboto-Regular-69"/>
      <use transform="translate(1021.047812 0.014063)" xlink:href="#Roboto-Regular-6e"/>
      <use transform="translate(1077.148086 36.99375)scale(0.7)" xlink:href="#Roboto-Regular-2212"/>
      <use transform="translate(1117.13832 36.99375)scale(0.7)" xlink:href="#Roboto-Regular-31"/>
      <use transform="translate(1159.086367 0.014063)" xlink:href="#Roboto-Regular-29"/>
     </g>
    </g>
    <g id="text_14">
     <!-- 1e−17 -->
     <g transform="translate(57.6 38.472)scale(0.1 -0.1)">
      <use xlink:href="#Roboto-Regular-31"/>
      <use x="56.152344" xlink:href="#Roboto-Regular-65"/>
      <use x="109.130859" xlink:href="#Roboto-Regular-2212"/>
      <use x="166.259766" xlink:href="#Roboto-Regular-31"/>
      <use x="222.412109" xlink:href="#Roboto-Regular-37"/>
     </g>
    </g>
   </g>
   <g id="line2d_12">
    <path clip-path="url(#pd026f77ce6)" d="M -1 148.779163 
L 9.984 148.782138 
L 9.984 148.666243 
L 14.7456 148.666243 
L 14.7456 148.782029 
L 19.5072 148.782029 
L 19.5072 148.012109 
L 24.2688 148.012109 
L 24.2688 148.785314 
L 133.7856 148.802394 
L 133.7856 148.540452 
L 138.5472 148.540452 
L 138.5472 148.800436 
L 205.2096 148.788218 
L 205.2096 99.575627 
L 209.9712 99.575627 
L 209.9712 148.776843 
L 262.3488 148.796013 
L 262.3488 53.31002 
L 267.1104 53.31002 
L 267.1104 148.820967 
L 309.9648 148.828692 
L 309.9648 147.653087 
L 314.7264 147.653087 
L 314.7264 148.832557 
L 424.2432 148.846652 
L 424.2432 148.074838 
L 429.0048 148.074838 
L 429.0048 148.662745 
L 433.7664 148.662745 
L 433.7664 148.850642 
L 438.528 148.850642 
L 438.528 148.366764 
L 443.2896 148.366764 
L 443.2896 148.834909 
L 461.8 148.854352 
L 461.8 148.854352 
" style="fill:none;stroke:#1f77b4;stroke-linecap:square;stroke-width:1.5;"/>
   </g>
   <g id="line2d_13">
    <path clip-path="url(#pd026f77ce6)" d="M -1 148.779163 
L 9.984 148.78214 
L 9.984 148.666216 
L 14.7456 148.666216 
L 14.7456 148.78203 
L 19.5072 148.78203 
L 19.5072 148.012018 
L 24.2688 148.012018 
L 24.2688 148.785315 
L 133.7856 148.802394 
L 133.7856 148.540444 
L 138.5472 148.540444 
L 138.5472 148.800437 
L 195.6864 148.803179 
L 195.6864 148.337062 
L 200.448 148.337062 
L 200.448 142.514682 
L 205.2096 142.514682 
L 205.2096 128.004202 
L 209.9712 128.004202 
L 209.9712 131.15416 
L 214.7328 131.15416 
L 214.7328 144.977206 
L 219.4944 144.977206 
L 219.4944 148.608343 
L 224.256 148.608343 
L 224.256 148.812266 
L 252.8256 148.807066 
L 252.8256 148.004929 
L 257.5872 148.004929 
L 257.5872 137.531941 
L 262.3488 137.531941 
L 262.3488 109.620606 
L 267.1104 109.620606 
L 267.1104 113.393655 
L 271.872 113.393655 
L 271.872 140.528459 
L 276.6336 140.528459 
L 276.6336 148.33595 
L 281.3952 148.33595 
L 281.3952 148.801037 
L 309.9648 148.828692 
L 309.9648 147.653194 
L 314.7264 147.653194 
L 314.7264 148.832557 
L 424.2432 148.846653 
L 424.2432 148.074701 
L 429.0048 148.074701 
L 429.0048 148.662818 
L 433.7664 148.662818 
L 433.7664 148.85064 
L 438.528 148.85064 
L 438.528 148.366701 
L 443.2896 148.366701 
L 443.2896 148.834908 
L 461.8 148.854351 
L 461.8 148.854351 
" style="fill:none;stroke:#ff7f0e;stroke-linecap:square;stroke-width:1.5;"/>
   </g>
   <g id="line2d_14">
    <path clip-path="url(#pd026f77ce6)" d="M -1 148.779163 
L 9.984 148.78214 
L 9.984 148.666216 
L 14.7456 148.666216 
L 14.7456 148.78203 
L 19.5072 148.78203 
L 19.5072 148.012018 
L 24.2688 148.012018 
L 24.2688 148.785315 
L 133.7856 148.801393 
L 133.7856 148.537705 
L 138.5472 148.537705 
L 138.5472 148.793404 
L 157.5936 148.724951 
L 157.5936 148.63207 
L 162.3552 148.63207 
L 162.3552 148.504587 
L 167.1168 148.504587 
L 167.1168 148.275271 
L 171.8784 148.275271 
L 171.8784 147.930967 
L 176.64 147.930967 
L 176.64 147.451833 
L 181.4016 147.451833 
L 181.4016 146.838186 
L 186.1632 146.838186 
L 186.1632 146.121738 
L 190.9248 146.121738 
L 190.9248 145.368932 
L 195.6864 145.368932 
L 195.6864 144.672354 
L 200.448 144.672354 
L 200.448 144.106964 
L 205.2096 144.106964 
L 205.2096 143.743156 
L 214.7328 143.741579 
L 214.7328 143.958913 
L 219.4944 143.958913 
L 219.4944 144.25791 
L 224.256 144.25791 
L 224.256 144.529331 
L 233.7792 144.564769 
L 233.7792 144.373944 
L 238.5408 144.373944 
L 238.5408 143.797308 
L 243.3024 143.797308 
L 243.3024 142.871915 
L 248.064 142.871915 
L 248.064 141.744976 
L 252.8256 141.744976 
L 252.8256 140.617519 
L 257.5872 140.617519 
L 257.5872 139.694429 
L 262.3488 139.694429 
L 262.3488 139.252295 
L 271.872 139.334427 
L 271.872 139.971149 
L 276.6336 139.971149 
L 276.6336 141.061634 
L 281.3952 141.061634 
L 281.3952 142.413354 
L 286.1568 142.413354 
L 286.1568 143.861099 
L 290.9184 143.861099 
L 290.9184 145.229152 
L 295.68 145.229152 
L 295.68 146.369399 
L 300.4416 146.369399 
L 300.4416 147.251958 
L 305.2032 147.251958 
L 305.2032 147.881803 
L 309.9648 147.881803 
L 309.9648 147.117994 
L 314.7264 147.117994 
L 314.7264 148.548494 
L 319.488 148.548494 
L 319.488 148.69141 
L 333.7728 148.801594 
L 333.7728 148.817737 
L 424.2432 148.846653 
L 424.2432 148.074701 
L 429.0048 148.074701 
L 429.0048 148.662818 
L 433.7664 148.662818 
L 433.7664 148.85064 
L 438.528 148.85064 
L 438.528 148.366701 
L 443.2896 148.366701 
L 443.2896 148.834908 
L 461.8 148.854351 
L 461.8 148.854351 
" style="fill:none;stroke:#2ca02c;stroke-linecap:square;stroke-width:1.5;"/>
   </g>
   <g id="patch_3">
    <path d="M 57.6 155.195077 
L 57.6 41.472 
" style="fill:none;stroke:#000000;stroke-linecap:square;stroke-linejoin:miter;stroke-width:0.8;"/>
   </g>
   <g id="patch_4">
    <path d="M 414.72 155.195077 
L 414.72 41.472 
" style="fill:none;stroke:#000000;stroke-linecap:square;stroke-linejoin:miter;stroke-width:0.8;"/>
   </g>
   <g id="patch_5">
    <path d="M 57.6 155.195077 
L 414.72 155.195077 
" style="fill:none;stroke:#000000;stroke-linecap:square;stroke-linejoin:miter;stroke-width:0.8;"/>
   </g>
   <g id="patch_6">
    <path d="M 57.6 41.472 
L 414.72 41.472 
" style="fill:none;stroke:#000000;stroke-linecap:square;stroke-linejoin:miter;stroke-width:0.8;"/>
   </g>
   <g id="legend_1">
    <g id="patch_7">
     <path d="M 298.709063 93.168875 
L 407.72 93.168875 
Q 409.72 93.168875 409.72 91.168875 
L 409.72 48.472 
Q 409.72 46.472 407.72 46.472 
L 298.709063 46.472 
Q 296.709063 46.472 296.709063 48.472 
L 296.709063 91.168875 
Q 296.709063 93.168875 298.709063 93.168875 
z
" style="fill:#ffffff;opacity:0.8;stroke:#cccccc;stroke-linejoin:miter;"/>
    </g>
    <g id="line2d_15">
     <path d="M 300.709063 54.472 
L 320.709063 54.472 
" style="fill:none;stroke:#1f77b4;stroke-linecap:square;stroke-width:1.5;"/>
    </g>
    <g id="line2d_16"/>
    <g id="text_15">
     <!-- dummy response -->
     <defs>
      <path d="M 4.640625 26.859375 
Q 4.640625 39.015625 10.390625 46.40625 
Q 16.15625 53.8125 25.484375 53.8125 
Q 34.765625 53.8125 40.1875 47.46875 
L 40.1875 75 
L 49.21875 75 
L 49.21875 0 
L 40.921875 0 
L 40.484375 5.671875 
Q 35.0625 -0.984375 25.390625 -0.984375 
Q 16.21875 -0.984375 10.421875 6.53125 
Q 4.640625 14.0625 4.640625 26.171875 
z
M 13.671875 25.828125 
Q 13.671875 16.84375 17.375 11.765625 
Q 21.09375 6.6875 27.640625 6.6875 
Q 36.234375 6.6875 40.1875 14.40625 
L 40.1875 38.671875 
Q 36.140625 46.140625 27.734375 46.140625 
Q 21.09375 46.140625 17.375 41.015625 
Q 13.671875 35.890625 13.671875 25.828125 
z
" id="Roboto-Regular-64"/>
      <path d="M 39.453125 5.21875 
Q 34.1875 -0.984375 23.96875 -0.984375 
Q 15.53125 -0.984375 11.109375 3.921875 
Q 6.6875 8.84375 6.640625 18.453125 
L 6.640625 52.828125 
L 15.671875 52.828125 
L 15.671875 18.703125 
Q 15.671875 6.6875 25.4375 6.6875 
Q 35.796875 6.6875 39.203125 14.40625 
L 39.203125 52.828125 
L 48.25 52.828125 
L 48.25 0 
L 39.65625 0 
z
" id="Roboto-Regular-75"/>
      <path d="M 4.4375 26.90625 
Q 4.4375 34.671875 7.484375 40.875 
Q 10.546875 47.078125 15.984375 50.4375 
Q 21.4375 53.8125 28.421875 53.8125 
Q 39.203125 53.8125 45.875 46.34375 
Q 52.546875 38.875 52.546875 26.46875 
L 52.546875 25.828125 
Q 52.546875 18.109375 49.578125 11.984375 
Q 46.625 5.859375 41.125 2.4375 
Q 35.640625 -0.984375 28.515625 -0.984375 
Q 17.78125 -0.984375 11.109375 6.484375 
Q 4.4375 13.96875 4.4375 26.265625 
z
M 13.53125 25.828125 
Q 13.53125 17.046875 17.609375 11.71875 
Q 21.6875 6.390625 28.515625 6.390625 
Q 35.40625 6.390625 39.453125 11.78125 
Q 43.5 17.1875 43.5 26.90625 
Q 43.5 35.59375 39.375 40.984375 
Q 35.25 46.390625 28.421875 46.390625 
Q 21.734375 46.390625 17.625 41.0625 
Q 13.53125 35.75 13.53125 25.828125 
z
" id="Roboto-Regular-6f"/>
     </defs>
     <g transform="translate(328.709063 57.972)scale(0.1 -0.1)">
      <use xlink:href="#Roboto-Regular-64"/>
      <use x="56.396484" xlink:href="#Roboto-Regular-75"/>
      <use x="111.523438" xlink:href="#Roboto-Regular-6d"/>
      <use x="199.169922" xlink:href="#Roboto-Regular-6d"/>
      <use x="286.816406" xlink:href="#Roboto-Regular-79"/>
      <use x="334.130859" xlink:href="#Roboto-Regular-20"/>
      <use x="358.886719" xlink:href="#Roboto-Regular-72"/>
      <use x="392.724609" xlink:href="#Roboto-Regular-65"/>
      <use x="445.703125" xlink:href="#Roboto-Regular-73"/>
      <use x="497.265625" xlink:href="#Roboto-Regular-70"/>
      <use x="553.369141" xlink:href="#Roboto-Regular-6f"/>
      <use x="610.400391" xlink:href="#Roboto-Regular-6e"/>
      <use x="665.576172" xlink:href="#Roboto-Regular-73"/>
      <use x="717.138672" xlink:href="#Roboto-Regular-65"/>
     </g>
    </g>
    <g id="line2d_17">
     <path d="M 300.709063 69.106375 
L 320.709063 69.106375 
" style="fill:none;stroke:#ff7f0e;stroke-linecap:square;stroke-width:1.5;"/>
    </g>
    <g id="line2d_18"/>
    <g id="text_16">
     <!-- thermal -->
     <defs>
      <path d="M 39.453125 0 
Q 38.671875 1.5625 38.1875 5.5625 
Q 31.890625 -0.984375 23.140625 -0.984375 
Q 15.328125 -0.984375 10.328125 3.4375 
Q 5.328125 7.859375 5.328125 14.65625 
Q 5.328125 22.90625 11.59375 27.46875 
Q 17.875 32.03125 29.25 32.03125 
L 38.03125 32.03125 
L 38.03125 36.1875 
Q 38.03125 40.921875 35.203125 43.71875 
Q 32.375 46.53125 26.859375 46.53125 
Q 22.015625 46.53125 18.75 44.09375 
Q 15.484375 41.65625 15.484375 38.1875 
L 6.390625 38.1875 
Q 6.390625 42.140625 9.203125 45.828125 
Q 12.015625 49.515625 16.8125 51.65625 
Q 21.625 53.8125 27.390625 53.8125 
Q 36.53125 53.8125 41.703125 49.234375 
Q 46.875 44.671875 47.078125 36.671875 
L 47.078125 12.359375 
Q 47.078125 5.078125 48.921875 0.78125 
L 48.921875 0 
z
M 24.46875 6.890625 
Q 28.71875 6.890625 32.515625 9.078125 
Q 36.328125 11.28125 38.03125 14.796875 
L 38.03125 25.640625 
L 30.953125 25.640625 
Q 14.359375 25.640625 14.359375 15.921875 
Q 14.359375 11.671875 17.1875 9.28125 
Q 20.015625 6.890625 24.46875 6.890625 
z
" id="Roboto-Regular-61"/>
      <path d="M 16.65625 0 
L 7.625 0 
L 7.625 75 
L 16.65625 75 
z
" id="Roboto-Regular-6c"/>
     </defs>
     <g transform="translate(328.709063 72.606375)scale(0.1 -0.1)">
      <use xlink:href="#Roboto-Regular-74"/>
      <use x="32.666016" xlink:href="#Roboto-Regular-68"/>
      <use x="87.744141" xlink:href="#Roboto-Regular-65"/>
      <use x="140.722656" xlink:href="#Roboto-Regular-72"/>
      <use x="174.560547" xlink:href="#Roboto-Regular-6d"/>
      <use x="262.207031" xlink:href="#Roboto-Regular-61"/>
      <use x="316.601562" xlink:href="#Roboto-Regular-6c"/>
     </g>
    </g>
    <g id="line2d_19">
     <path d="M 300.709063 83.637625 
L 320.709063 83.637625 
" style="fill:none;stroke:#2ca02c;stroke-linecap:square;stroke-width:1.5;"/>
    </g>
    <g id="line2d_20"/>
    <g id="text_17">
     <!-- 400 km/s -->
     <defs>
      <path d="M 8.640625 -6.109375 
L 0.875 -6.109375 
L 30.5625 71.09375 
L 38.28125 71.09375 
z
" id="Roboto-Regular-2f"/>
     </defs>
     <g transform="translate(328.709063 87.137625)scale(0.1 -0.1)">
      <use xlink:href="#Roboto-Regular-34"/>
      <use x="56.152344" xlink:href="#Roboto-Regular-30"/>
      <use x="112.304688" xlink:href="#Roboto-Regular-30"/>
      <use x="168.457031" xlink:href="#Roboto-Regular-20"/>
      <use x="193.212891" xlink:href="#Roboto-Regular-6b"/>
      <use x="243.896484" xlink:href="#Roboto-Regular-6d"/>
      <use x="331.542969" xlink:href="#Roboto-Regular-2f"/>
      <use x="372.753906" xlink:href="#Roboto-Regular-73"/>
     </g>
    </g>
   </g>
  </g>
  <g id="axes_2">
   <g id="patch_8">
    <path d="M 57.6 307.584 
L 414.72 307.584 
L 414.72 193.860923 
L 57.6 193.860923 
z
" style="fill:#ffffff;"/>
   </g>
   <g id="matplotlib.axis_3">
    <g id="xtick_8">
     <g id="line2d_21">
      <g>
       <use style="stroke:#000000;stroke-width:0.8;" x="57.6" xlink:href="#m1a43add518" y="307.584"/>
      </g>
     </g>
     <g id="text_18">
      <!-- 1.150 -->
      <g transform="translate(45.053125 322.084)scale(0.1 -0.1)">
       <use xlink:href="#Roboto-Regular-31"/>
       <use x="56.152344" xlink:href="#Roboto-Regular-2e"/>
       <use x="82.470703" xlink:href="#Roboto-Regular-31"/>
       <use x="138.623047" xlink:href="#Roboto-Regular-35"/>
       <use x="194.775391" xlink:href="#Roboto-Regular-30"/>
      </g>
     </g>
    </g>
    <g id="xtick_9">
     <g id="line2d_22">
      <g>
       <use style="stroke:#000000;stroke-width:0.8;" x="117.12" xlink:href="#m1a43add518" y="307.584"/>
      </g>
     </g>
     <g id="text_19">
      <!-- 1.155 -->
      <g transform="translate(104.573125 322.084)scale(0.1 -0.1)">
       <use xlink:href="#Roboto-Regular-31"/>
       <use x="56.152344" xlink:href="#Roboto-Regular-2e"/>
       <use x="82.470703" xlink:href="#Roboto-Regular-31"/>
       <use x="138.623047" xlink:href="#Roboto-Regular-35"/>
       <use x="194.775391" xlink:href="#Roboto-Regular-35"/>
      </g>
     </g>
    </g>
    <g id="xtick_10">
     <g id="line2d_23">
      <g>
       <use style="stroke:#000000;stroke-width:0.8;" x="176.64" xlink:href="#m1a43add518" y="307.584"/>
      </g>
     </g>
     <g id="text_20">
      <!-- 1.160 -->
      <g transform="translate(164.093125 322.084)scale(0.1 -0.1)">
       <use xlink:href="#Roboto-Regular-31"/>
       <use x="56.152344" xlink:href="#Roboto-Regular-2e"/>
       <use x="82.470703" xlink:href="#Roboto-Regular-31"/>
       <use x="138.623047" xlink:href="#Roboto-Regular-36"/>
       <use x="194.775391" xlink:href="#Roboto-Regular-30"/>
      </g>
     </g>
    </g>
    <g id="xtick_11">
     <g id="line2d_24">
      <g>
       <use style="stroke:#000000;stroke-width:0.8;" x="236.16" xlink:href="#m1a43add518" y="307.584"/>
      </g>
     </g>
     <g id="text_21">
      <!-- 1.165 -->
      <g transform="translate(223.613125 322.084)scale(0.1 -0.1)">
       <use xlink:href="#Roboto-Regular-31"/>
       <use x="56.152344" xlink:href="#Roboto-Regular-2e"/>
       <use x="82.470703" xlink:href="#Roboto-Regular-31"/>
       <use x="138.623047" xlink:href="#Roboto-Regular-36"/>
       <use x="194.775391" xlink:href="#Roboto-Regular-35"/>
      </g>
     </g>
    </g>
    <g id="xtick_12">
     <g id="line2d_25">
      <g>
       <use style="stroke:#000000;stroke-width:0.8;" x="295.68" xlink:href="#m1a43add518" y="307.584"/>
      </g>
     </g>
     <g id="text_22">
      <!-- 1.170 -->
      <g transform="translate(283.133125 322.084)scale(0.1 -0.1)">
       <use xlink:href="#Roboto-Regular-31"/>
       <use x="56.152344" xlink:href="#Roboto-Regular-2e"/>
       <use x="82.470703" xlink:href="#Roboto-Regular-31"/>
       <use x="138.623047" xlink:href="#Roboto-Regular-37"/>
       <use x="194.775391" xlink:href="#Roboto-Regular-30"/>
      </g>
     </g>
    </g>
    <g id="xtick_13">
     <g id="line2d_26">
      <g>
       <use style="stroke:#000000;stroke-width:0.8;" x="355.2" xlink:href="#m1a43add518" y="307.584"/>
      </g>
     </g>
     <g id="text_23">
      <!-- 1.175 -->
      <g transform="translate(342.653125 322.084)scale(0.1 -0.1)">
       <use xlink:href="#Roboto-Regular-31"/>
       <use x="56.152344" xlink:href="#Roboto-Regular-2e"/>
       <use x="82.470703" xlink:href="#Roboto-Regular-31"/>
       <use x="138.623047" xlink:href="#Roboto-Regular-37"/>
       <use x="194.775391" xlink:href="#Roboto-Regular-35"/>
      </g>
     </g>
    </g>
    <g id="xtick_14">
     <g id="line2d_27">
      <g>
       <use style="stroke:#000000;stroke-width:0.8;" x="414.72" xlink:href="#m1a43add518" y="307.584"/>
      </g>
     </g>
     <g id="text_24">
      <!-- 1.180 -->
      <g transform="translate(402.173125 322.084)scale(0.1 -0.1)">
       <use xlink:href="#Roboto-Regular-31"/>
       <use x="56.152344" xlink:href="#Roboto-Regular-2e"/>
       <use x="82.470703" xlink:href="#Roboto-Regular-31"/>
       <use x="138.623047" xlink:href="#Roboto-Regular-38"/>
       <use x="194.775391" xlink:href="#Roboto-Regular-30"/>
      </g>
     </g>
    </g>
    <g id="text_25">
     <!-- Energy (keV) -->
     <g transform="translate(207.996719 336.137125)scale(0.1 -0.1)">
      <use xlink:href="#Roboto-Regular-45"/>
      <use x="56.835938" xlink:href="#Roboto-Regular-6e"/>
      <use x="112.011719" xlink:href="#Roboto-Regular-65"/>
      <use x="164.990234" xlink:href="#Roboto-Regular-72"/>
      <use x="198.828125" xlink:href="#Roboto-Regular-67"/>
      <use x="254.931641" xlink:href="#Roboto-Regular-79"/>
      <use x="302.246094" xlink:href="#Roboto-Regular-20"/>
      <use x="327.001953" xlink:href="#Roboto-Regular-28"/>
      <use x="361.181641" xlink:href="#Roboto-Regular-6b"/>
      <use x="411.865234" xlink:href="#Roboto-Regular-65"/>
      <use x="464.84375" xlink:href="#Roboto-Regular-56"/>
      <use x="528.466797" xlink:href="#Roboto-Regular-29"/>
     </g>
    </g>
   </g>
   <g id="matplotlib.axis_4">
    <g id="ytick_5">
     <g id="line2d_28">
      <g>
       <use style="stroke:#000000;stroke-width:0.8;" x="57.6" xlink:href="#maae9681ade" y="302.414769"/>
      </g>
     </g>
     <g id="text_26">
      <!-- 0 -->
      <g transform="translate(44.984375 306.164769)scale(0.1 -0.1)">
       <use xlink:href="#Roboto-Regular-30"/>
      </g>
     </g>
    </g>
    <g id="ytick_6">
     <g id="line2d_29">
      <g>
       <use style="stroke:#000000;stroke-width:0.8;" x="57.6" xlink:href="#maae9681ade" y="260.125645"/>
      </g>
     </g>
     <g id="text_27">
      <!-- 2 -->
      <g transform="translate(44.984375 263.875645)scale(0.1 -0.1)">
       <use xlink:href="#Roboto-Regular-32"/>
      </g>
     </g>
    </g>
    <g id="ytick_7">
     <g id="line2d_30">
      <g>
       <use style="stroke:#000000;stroke-width:0.8;" x="57.6" xlink:href="#maae9681ade" y="217.836521"/>
      </g>
     </g>
     <g id="text_28">
      <!-- 4 -->
      <g transform="translate(44.984375 221.586521)scale(0.1 -0.1)">
       <use xlink:href="#Roboto-Regular-34"/>
      </g>
     </g>
    </g>
    <g id="text_29">
     <!-- Intensity (ph cm$^5$ s$^{-1}$ bin$^{-1}$) -->
     <g transform="translate(38.684375 310.422462)rotate(-90)scale(0.1 -0.1)">
      <use transform="translate(0 0.014063)" xlink:href="#Roboto-Regular-49"/>
      <use transform="translate(27.197266 0.014063)" xlink:href="#Roboto-Regular-6e"/>
      <use transform="translate(82.373047 0.014063)" xlink:href="#Roboto-Regular-74"/>
      <use transform="translate(115.039062 0.014063)" xlink:href="#Roboto-Regular-65"/>
      <use transform="translate(168.017578 0.014063)" xlink:href="#Roboto-Regular-6e"/>
      <use transform="translate(223.193359 0.014063)" xlink:href="#Roboto-Regular-73"/>
      <use transform="translate(274.755859 0.014063)" xlink:href="#Roboto-Regular-69"/>
      <use transform="translate(299.023438 0.014063)" xlink:href="#Roboto-Regular-74"/>
      <use transform="translate(331.689453 0.014063)" xlink:href="#Roboto-Regular-79"/>
      <use transform="translate(379.003906 0.014063)" xlink:href="#Roboto-Regular-20"/>
      <use transform="translate(403.759766 0.014063)" xlink:href="#Roboto-Regular-28"/>
      <use transform="translate(437.939453 0.014063)" xlink:href="#Roboto-Regular-70"/>
      <use transform="translate(494.042969 0.014063)" xlink:href="#Roboto-Regular-68"/>
      <use transform="translate(549.121094 0.014063)" xlink:href="#Roboto-Regular-20"/>
      <use transform="translate(573.876953 0.014063)" xlink:href="#Roboto-Regular-63"/>
      <use transform="translate(626.220703 0.014063)" xlink:href="#Roboto-Regular-6d"/>
      <use transform="translate(714.79168 36.99375)scale(0.7)" xlink:href="#Roboto-Regular-35"/>
      <use transform="translate(756.739727 0.014063)" xlink:href="#Roboto-Regular-20"/>
      <use transform="translate(781.495586 0.014063)" xlink:href="#Roboto-Regular-73"/>
      <use transform="translate(833.982578 36.99375)scale(0.7)" xlink:href="#Roboto-Regular-2212"/>
      <use transform="translate(873.972813 36.99375)scale(0.7)" xlink:href="#Roboto-Regular-31"/>
      <use transform="translate(915.920859 0.014063)" xlink:href="#Roboto-Regular-20"/>
      <use transform="translate(940.676719 0.014063)" xlink:href="#Roboto-Regular-62"/>
      <use transform="translate(996.780234 0.014063)" xlink:href="#Roboto-Regular-69"/>
      <use transform="translate(1021.047812 0.014063)" xlink:href="#Roboto-Regular-6e"/>
      <use transform="translate(1077.148086 36.99375)scale(0.7)" xlink:href="#Roboto-Regular-2212"/>
      <use transform="translate(1117.13832 36.99375)scale(0.7)" xlink:href="#Roboto-Regular-31"/>
      <use transform="translate(1159.086367 0.014063)" xlink:href="#Roboto-Regular-29"/>
     </g>
    </g>
    <g id="text_30">
     <!-- 1e−16 -->
     <g transform="translate(57.6 190.860923)scale(0.1 -0.1)">
      <use xlink:href="#Roboto-Regular-31"/>
      <use x="56.152344" xlink:href="#Roboto-Regular-65"/>
      <use x="109.130859" xlink:href="#Roboto-Regular-2212"/>
      <use x="166.259766" xlink:href="#Roboto-Regular-31"/>
      <use x="222.412109" xlink:href="#Roboto-Regular-36"/>
     </g>
    </g>
   </g>
   <g id="line2d_31">
    <path clip-path="url(#p397ee901db)" d="M 52.818878 299.311838 
L 52.818878 299.323881 
L 59.166367 299.323881 
L 59.166367 299.315714 
L 65.519531 299.315714 
L 65.519531 299.296414 
L 71.878372 299.296414 
L 71.878372 299.274904 
L 78.244308 299.274904 
L 78.244308 299.265635 
L 84.614502 299.265635 
L 84.614502 299.267817 
L 90.991791 299.267817 
L 90.991791 299.267955 
L 97.374756 299.267955 
L 97.374756 299.261641 
L 103.763397 299.261641 
L 103.763397 299.252108 
L 110.157715 299.252108 
L 110.157715 299.237068 
L 116.559128 299.237068 
L 116.559128 299.204037 
L 122.964798 299.204037 
L 122.964798 299.140147 
L 129.377563 299.140147 
L 129.377563 299.069421 
L 135.796005 299.069421 
L 135.796005 299.044792 
L 142.220123 299.044792 
L 142.220123 299.06448 
L 148.651337 299.06448 
L 148.651337 299.074597 
L 155.088226 299.074597 
L 155.088226 299.054315 
L 161.530792 299.054315 
L 161.530792 299.011359 
L 167.979034 299.011359 
L 167.979034 298.934009 
L 174.432953 298.934009 
L 174.432953 298.765008 
L 180.893967 298.765008 
L 180.893967 298.321737 
L 187.360657 298.321737 
L 187.360657 297.20283 
L 193.833023 297.20283 
L 193.833023 292.583129 
L 200.312485 292.583129 
L 200.312485 281.459199 
L 206.797623 281.459199 
L 206.797623 272.036175 
L 213.288437 272.036175 
L 213.288437 276.311804 
L 219.784927 276.311804 
L 219.784927 288.066736 
L 226.288513 288.066736 
L 226.288513 294.659127 
L 232.797775 294.659127 
L 232.797775 296.487376 
L 239.312714 296.487376 
L 239.312714 296.749052 
L 245.834747 296.749052 
L 245.834747 294.981517 
L 252.362457 294.981517 
L 252.362457 286.05726 
L 258.895844 286.05726 
L 258.895844 264.151433 
L 265.436325 264.151433 
L 265.436325 245.587095 
L 271.982483 245.587095 
L 271.982483 254.222009 
L 278.534317 254.222009 
L 278.534317 277.714892 
L 285.093246 277.714892 
L 285.093246 291.034362 
L 291.657852 291.034362 
L 291.657852 295.150181 
L 298.229553 295.150181 
L 298.229553 297.040263 
L 304.805511 297.040263 
L 304.805511 297.596687 
L 311.388565 297.596687 
L 311.388565 298.047554 
L 317.978714 298.047554 
L 317.978714 298.551813 
L 324.574539 298.551813 
L 324.574539 298.877378 
L 331.176041 298.877378 
L 331.176041 299.061336 
L 337.784637 299.061336 
L 337.784637 299.191404 
L 344.398911 299.191404 
L 344.398911 299.275938 
L 351.020279 299.275938 
L 351.020279 299.332008 
L 357.647324 299.332008 
L 357.647324 299.354941 
L 364.280045 299.354941 
L 364.280045 299.340846 
L 370.919861 299.340846 
L 370.919861 299.306955 
L 377.565353 299.306955 
L 377.565353 299.267593 
L 384.217941 299.267593 
L 384.217941 299.22784 
L 390.876205 299.22784 
L 390.876205 299.196291 
L 397.541565 299.196291 
L 397.541565 299.173433 
L 404.212601 299.173433 
L 404.212601 299.14358 
L 410.890732 299.14358 
L 410.890732 299.067161 
L 417.574539 299.067161 
" style="fill:none;stroke:#1f77b4;stroke-linecap:square;stroke-width:1.5;"/>
   </g>
   <g id="line2d_32">
    <path clip-path="url(#p397ee901db)" d="M 52.818878 299.311627 
L 52.818878 299.323633 
L 59.166367 299.323633 
L 59.166367 299.315404 
L 65.519531 299.315404 
L 65.519531 299.296005 
L 71.878372 299.296005 
L 71.878372 299.274389 
L 78.244308 299.274389 
L 78.244308 299.265048 
L 84.614502 299.265048 
L 84.614502 299.267165 
L 90.991791 299.267165 
L 90.991791 299.267189 
L 97.374756 299.267189 
L 97.374756 299.260711 
L 103.763397 299.260711 
L 103.763397 299.250969 
L 110.157715 299.250969 
L 110.157715 299.23567 
L 116.559128 299.23567 
L 116.559128 299.20232 
L 122.964798 299.20232 
L 122.964798 299.138032 
L 129.377563 299.138032 
L 129.377563 299.066802 
L 135.796005 299.066802 
L 135.796005 299.041506 
L 142.220123 299.041506 
L 142.220123 299.060246 
L 148.651337 299.060246 
L 148.651337 299.068852 
L 155.088226 299.068852 
L 155.088226 299.045737 
L 161.530792 299.045737 
L 161.530792 298.996174 
L 167.979034 298.996174 
L 167.979034 298.89909 
L 174.432953 298.89909 
L 174.432953 298.670033 
L 180.893967 298.670033 
L 180.893967 298.070961 
L 187.360657 298.070961 
L 187.360657 296.133246 
L 193.833023 296.133246 
L 193.833023 290.464494 
L 200.312485 290.464494 
L 200.312485 280.907227 
L 206.797623 280.907227 
L 206.797623 274.701124 
L 213.288437 274.701124 
L 213.288437 278.643673 
L 219.784927 278.643673 
L 219.784927 287.854099 
L 226.288513 287.854099 
L 226.288513 293.994335 
L 232.797775 293.994335 
L 232.797775 296.083201 
L 239.312714 296.083201 
L 239.312714 295.766894 
L 245.834747 295.766894 
L 245.834747 291.378924 
L 252.362457 291.378924 
L 252.362457 278.445148 
L 258.895844 278.445148 
L 258.895844 259.493161 
L 265.436325 259.493161 
L 265.436325 250.914761 
L 271.982483 250.914761 
L 271.982483 262.382075 
L 278.534317 262.382075 
L 278.534317 280.625701 
L 285.093246 280.625701 
L 285.093246 291.432146 
L 291.657852 291.432146 
L 291.657852 295.570513 
L 298.229553 295.570513 
L 298.229553 297.133955 
L 304.805511 297.133955 
L 304.805511 297.640039 
L 311.388565 297.640039 
L 311.388565 298.076972 
L 317.978714 298.076972 
L 317.978714 298.571905 
L 324.574539 298.571905 
L 324.574539 298.891755 
L 331.176041 298.891755 
L 331.176041 299.072131 
L 337.784637 299.072131 
L 337.784637 299.199795 
L 344.398911 299.199795 
L 344.398911 299.282571 
L 351.020279 299.282571 
L 351.020279 299.337289 
L 357.647324 299.337289 
L 357.647324 299.359158 
L 364.280045 299.359158 
L 364.280045 299.344217 
L 370.919861 299.344217 
L 370.919861 299.309612 
L 377.565353 299.309612 
L 377.565353 299.26971 
L 384.217941 299.26971 
L 384.217941 299.229516 
L 390.876205 299.229516 
L 390.876205 299.197622 
L 397.541565 299.197622 
L 397.541565 299.174507 
L 404.212601 299.174507 
L 404.212601 299.144483 
L 410.890732 299.144483 
L 410.890732 299.067932 
L 417.574539 299.067932 
" style="fill:none;stroke:#ff7f0e;stroke-linecap:square;stroke-width:1.5;"/>
   </g>
   <g id="line2d_33">
    <path clip-path="url(#p397ee901db)" d="M 52.818878 299.31084 
L 52.818878 299.322631 
L 59.166367 299.322631 
L 59.166367 299.31413 
L 65.519531 299.31413 
L 65.519531 299.294392 
L 71.878372 299.294392 
L 71.878372 299.272358 
L 78.244308 299.272358 
L 78.244308 299.262513 
L 84.614502 299.262513 
L 84.614502 299.264025 
L 90.991791 299.264025 
L 90.991791 299.263327 
L 97.374756 299.263327 
L 97.374756 299.255973 
L 103.763397 299.255973 
L 103.763397 299.245123 
L 110.157715 299.245123 
L 110.157715 299.22828 
L 116.559128 299.22828 
L 116.559128 299.192414 
L 122.964798 299.192414 
L 122.964798 299.123228 
L 129.377563 299.123228 
L 129.377563 299.041131 
L 135.796005 299.041131 
L 135.796005 298.990447 
L 142.220123 298.990447 
L 142.220123 298.95059 
L 148.651337 298.95059 
L 148.651337 298.83084 
L 155.088226 298.83084 
L 155.088226 298.547334 
L 161.530792 298.547334 
L 161.530792 298.017429 
L 167.979034 298.017429 
L 167.979034 297.13222 
L 174.432953 297.13222 
L 174.432953 295.799757 
L 180.893967 295.799757 
L 180.893967 294.015971 
L 187.360657 294.015971 
L 187.360657 291.921834 
L 193.833023 291.921834 
L 193.833023 289.809871 
L 200.312485 289.809871 
L 200.312485 288.057644 
L 206.797623 288.057644 
L 206.797623 286.989683 
L 213.288437 286.989683 
L 213.288437 286.67301 
L 219.784927 286.67301 
L 219.784927 286.789079 
L 226.288513 286.789079 
L 226.288513 286.762935 
L 232.797775 286.762935 
L 232.797775 286.031111 
L 239.312714 286.031111 
L 239.312714 284.279364 
L 245.834747 284.279364 
L 245.834747 281.647082 
L 252.362457 281.647082 
L 252.362457 278.777347 
L 258.895844 278.777347 
L 258.895844 276.600451 
L 265.436325 276.600451 
L 265.436325 275.946917 
L 271.982483 275.946917 
L 271.982483 277.185961 
L 278.534317 277.185961 
L 278.534317 280.091922 
L 285.093246 280.091922 
L 285.093246 283.985628 
L 291.657852 283.985628 
L 291.657852 287.975778 
L 298.229553 287.975778 
L 298.229553 291.317942 
L 304.805511 291.317942 
L 304.805511 293.875529 
L 311.388565 293.875529 
L 311.388565 295.917655 
L 317.978714 295.917655 
L 317.978714 297.438845 
L 324.574539 297.438845 
L 324.574539 298.334479 
L 331.176041 298.334479 
L 331.176041 298.807548 
L 337.784637 298.807548 
L 337.784637 299.073551 
L 344.398911 299.073551 
L 344.398911 299.218869 
L 351.020279 299.218869 
L 351.020279 299.301643 
L 357.647324 299.301643 
L 357.647324 299.336638 
L 364.280045 299.336638 
L 364.280045 299.328465 
L 370.919861 299.328465 
L 370.919861 299.297824 
L 377.565353 299.297824 
L 377.565353 299.260582 
L 384.217941 299.260582 
L 384.217941 299.222349 
L 390.876205 299.222349 
L 390.876205 299.19197 
L 397.541565 299.19197 
L 397.541565 299.170056 
L 404.212601 299.170056 
L 404.212601 299.140992 
L 410.890732 299.140992 
L 410.890732 299.065205 
L 417.574539 299.065205 
" style="fill:none;stroke:#2ca02c;stroke-linecap:square;stroke-width:1.5;"/>
   </g>
   <g id="patch_9">
    <path d="M 57.6 307.584 
L 57.6 193.860923 
" style="fill:none;stroke:#000000;stroke-linecap:square;stroke-linejoin:miter;stroke-width:0.8;"/>
   </g>
   <g id="patch_10">
    <path d="M 414.72 307.584 
L 414.72 193.860923 
" style="fill:none;stroke:#000000;stroke-linecap:square;stroke-linejoin:miter;stroke-width:0.8;"/>
   </g>
   <g id="patch_11">
    <path d="M 57.6 307.584 
L 414.72 307.584 
" style="fill:none;stroke:#000000;stroke-linecap:square;stroke-linejoin:miter;stroke-width:0.8;"/>
   </g>
   <g id="patch_12">
    <path d="M 57.6 193.860923 
L 414.72 193.860923 
" style="fill:none;stroke:#000000;stroke-linecap:square;stroke-linejoin:miter;stroke-width:0.8;"/>
   </g>
   <g id="legend_2">
    <g id="patch_13">
     <path d="M 314.5825 216.392173 
L 407.72 216.392173 
Q 409.72 216.392173 409.72 214.392173 
L 409.72 200.860923 
Q 409.72 198.860923 407.72 198.860923 
L 314.5825 198.860923 
Q 312.5825 198.860923 312.5825 200.860923 
L 312.5825 214.392173 
Q 312.5825 216.392173 314.5825 216.392173 
z
" style="fill:#ffffff;opacity:0.8;stroke:#cccccc;stroke-linejoin:miter;"/>
    </g>
    <g id="line2d_34">
     <path d="M 316.5825 206.860923 
L 336.5825 206.860923 
" style="fill:none;stroke:#1f77b4;stroke-linecap:square;stroke-width:1.5;"/>
    </g>
    <g id="line2d_35"/>
    <g id="text_31">
     <!-- Chandra MEG -->
     <defs>
      <path d="M 60.546875 22.5625 
Q 59.234375 11.28125 52.21875 5.140625 
Q 45.21875 -0.984375 33.59375 -0.984375 
Q 21 -0.984375 13.40625 8.046875 
Q 5.8125 17.09375 5.8125 32.234375 
L 5.8125 39.0625 
Q 5.8125 48.96875 9.34375 56.484375 
Q 12.890625 64.015625 19.375 68.046875 
Q 25.875 72.078125 34.421875 72.078125 
Q 45.75 72.078125 52.578125 65.75 
Q 59.421875 59.421875 60.546875 48.25 
L 51.125 48.25 
Q 49.90625 56.734375 45.828125 60.546875 
Q 41.75 64.359375 34.421875 64.359375 
Q 25.4375 64.359375 20.328125 57.71875 
Q 15.234375 51.078125 15.234375 38.8125 
L 15.234375 31.9375 
Q 15.234375 20.359375 20.0625 13.515625 
Q 24.90625 6.6875 33.59375 6.6875 
Q 41.40625 6.6875 45.578125 10.21875 
Q 49.75 13.765625 51.125 22.5625 
z
" id="Roboto-Regular-43"/>
      <path d="M 20.359375 71.09375 
L 43.609375 13.09375 
L 66.84375 71.09375 
L 79 71.09375 
L 79 0 
L 69.625 0 
L 69.625 27.6875 
L 70.515625 57.5625 
L 47.171875 0 
L 39.984375 0 
L 16.703125 57.421875 
L 17.625 27.6875 
L 17.625 0 
L 8.25 0 
L 8.25 71.09375 
z
" id="Roboto-Regular-4d"/>
      <path d="M 60.75 9.328125 
Q 57.125 4.15625 50.65625 1.578125 
Q 44.1875 -0.984375 35.59375 -0.984375 
Q 26.90625 -0.984375 20.15625 3.09375 
Q 13.421875 7.171875 9.734375 14.6875 
Q 6.0625 22.21875 5.953125 32.125 
L 5.953125 38.328125 
Q 5.953125 54.390625 13.453125 63.234375 
Q 20.953125 72.078125 34.515625 72.078125 
Q 45.65625 72.078125 52.4375 66.375 
Q 59.234375 60.6875 60.75 50.25 
L 51.375 50.25 
Q 48.734375 64.359375 34.578125 64.359375 
Q 25.140625 64.359375 20.28125 57.734375 
Q 15.4375 51.125 15.375 38.578125 
L 15.375 32.765625 
Q 15.375 20.796875 20.84375 13.734375 
Q 26.3125 6.6875 35.640625 6.6875 
Q 40.921875 6.6875 44.875 7.859375 
Q 48.828125 9.03125 51.421875 11.8125 
L 51.421875 27.78125 
L 34.96875 27.78125 
L 34.96875 35.40625 
L 60.75 35.40625 
z
" id="Roboto-Regular-47"/>
     </defs>
     <g transform="translate(344.5825 210.360923)scale(0.1 -0.1)">
      <use xlink:href="#Roboto-Regular-43"/>
      <use x="65.087891" xlink:href="#Roboto-Regular-68"/>
      <use x="120.166016" xlink:href="#Roboto-Regular-61"/>
      <use x="174.560547" xlink:href="#Roboto-Regular-6e"/>
      <use x="229.736328" xlink:href="#Roboto-Regular-64"/>
      <use x="286.132812" xlink:href="#Roboto-Regular-72"/>
      <use x="319.970703" xlink:href="#Roboto-Regular-61"/>
      <use x="374.365234" xlink:href="#Roboto-Regular-20"/>
      <use x="399.121094" xlink:href="#Roboto-Regular-4d"/>
      <use x="486.425781" xlink:href="#Roboto-Regular-45"/>
      <use x="543.261719" xlink:href="#Roboto-Regular-47"/>
     </g>
    </g>
   </g>
  </g>
 </g>
 <defs>
  <clipPath id="pd026f77ce6">
   <rect height="113.723077" width="357.12" x="57.6" y="41.472"/>
  </clipPath>
  <clipPath id="p397ee901db">
   <rect height="113.723077" width="357.12" x="57.6" y="193.860923"/>
  </clipPath>
 </defs>
</svg>
