<?xml version="1.0" encoding="utf-8" standalone="no"?>
<!DOCTYPE svg PUBLIC "-//W3C//DTD SVG 1.1//EN"
  "http://www.w3.org/Graphics/SVG/1.1/DTD/svg11.dtd">
<svg xmlns:xlink="http://www.w3.org/1999/xlink" width="460.8pt" height="345.6pt" viewBox="0 0 460.8 345.6" xmlns="http://www.w3.org/2000/svg" version="1.1">
 <metadata>
  <rdf:RDF xmlns:dc="http://purl.org/dc/elements/1.1/" xmlns:cc="http://creativecommons.org/ns#" xmlns:rdf="http://www.w3.org/1999/02/22-rdf-syntax-ns#">
   <cc:Work>
    <dc:type rdf:resource="http://purl.org/dc/dcmitype/StillImage"/>
    <dc:date>2026-03-12T15:49:04.500694</dc:date>
    <dc:format>image/svg+xml</dc:format>
    <dc:creator>
     <cc:Agent>
      <dc:title>Matplotlib v3.10.6, https://matplotlib.org/</dc:title>
     </cc:Agent>
    </dc:creator>
   </cc:Work>
  </rdf:RDF>
 </metadata>
 <defs>
  <style type="text/css">*{stroke-linejoin: round; stroke-linecap: butt}</style>
 </defs>
 <g id="figure_1">
  <g id="patch_1">
   <path d="M 0 345.6 
L 460.8 345.6 
L 460.8 0 
L 0 0 
z
" style="fill: #ffffff"/>
  </g>
  <g id="axes_1">
   <g id="patch_2">
    <path d="M 57.6 155.195077 
L 414.72 155.195077 
L 414.72 41.472 
L 57.6 41.472 
z
" style="fill: #ffffff"/>
   </g>
   <g id="matplotlib.axis_1">
    <g id="xtick_1">
     <g id="line2d_1">
      <defs>
       <path id="m5593aafa97" d="M 0 0 
L 0 3.5 
" style="stroke: #000000; stroke-width: 0.8"/>
      </defs>
      <g>
       <use xlink:href="#m5593aafa97" x="57.6" y="155.195077" style="stroke: #000000; stroke-width: 0.8"/>
      </g>
     </g>
     <g id="text_1">
      <!-- 1.150 -->
      <g transform="translate(43.285938 169.793514) scale(0.1 -0.1)">
       <defs>
        <path id="DejaVuSans-31" d="M 794 531 
L 1825 531 
L 1825 4091 
L 703 3866 
L 703 4441 
L 1819 4666 
L 2450 4666 
L 2450 531 
L 3481 531 
L 3481 0 
L 794 0 
L 794 531 
z
" transform="scale(0.015625)"/>
        <path id="DejaVuSans-2e" d="M 684 794 
L 1344 794 
L 1344 0 
L 684 0 
L 684 794 
z
" transform="scale(0.015625)"/>
        <path id="DejaVuSans-35" d="M 691 4666 
L 3169 4666 
L 3169 4134 
L 1269 4134 
L 1269 2991 
Q 1406 3038 1543 3061 
Q 1681 3084 1819 3084 
Q 2600 3084 3056 2656 
Q 3513 2228 3513 1497 
Q 3513 744 3044 326 
Q 2575 -91 1722 -91 
Q 1428 -91 1123 -41 
Q 819 9 494 109 
L 494 744 
Q 775 591 1075 516 
Q 1375 441 1709 441 
Q 2250 441 2565 725 
Q 2881 1009 2881 1497 
Q 2881 1984 2565 2268 
Q 2250 2553 1709 2553 
Q 1456 2553 1204 2497 
Q 953 2441 691 2322 
L 691 4666 
z
" transform="scale(0.015625)"/>
        <path id="DejaVuSans-30" d="M 2034 4250 
Q 1547 4250 1301 3770 
Q 1056 3291 1056 2328 
Q 1056 1369 1301 889 
Q 1547 409 2034 409 
Q 2525 409 2770 889 
Q 3016 1369 3016 2328 
Q 3016 3291 2770 3770 
Q 2525 4250 2034 4250 
z
M 2034 4750 
Q 2819 4750 3233 4129 
Q 3647 3509 3647 2328 
Q 3647 1150 3233 529 
Q 2819 -91 2034 -91 
Q 1250 -91 836 529 
Q 422 1150 422 2328 
Q 422 3509 836 4129 
Q 1250 4750 2034 4750 
z
" transform="scale(0.015625)"/>
       </defs>
       <use xlink:href="#DejaVuSans-31"/>
       <use xlink:href="#DejaVuSans-2e" transform="translate(63.623047 0)"/>
       <use xlink:href="#DejaVuSans-31" transform="translate(95.410156 0)"/>
       <use xlink:href="#DejaVuSans-35" transform="translate(159.033203 0)"/>
       <use xlink:href="#DejaVuSans-30" transform="translate(222.65625 0)"/>
      </g>
     </g>
    </g>
    <g id="xtick_2">
     <g id="line2d_2">
      <g>
       <use xlink:href="#m5593aafa97" x="117.12" y="155.195077" style="stroke: #000000; stroke-width: 0.8"/>
      </g>
     </g>
     <g id="text_2">
      <!-- 1.155 -->
      <g transform="translate(102.805938 169.793514) scale(0.1 -0.1)">
       <use xlink:href="#DejaVuSans-31"/>
       <use xlink:href="#DejaVuSans-2e" transform="translate(63.623047 0)"/>
       <use xlink:href="#DejaVuSans-31" transform="translate(95.410156 0)"/>
       <use xlink:href="#DejaVuSans-35" transform="translate(159.033203 0)"/>
       <use xlink:href="#DejaVuSans-35" transform="translate(222.65625 0)"/>
      </g>
     </g>
    </g>
    <g id="xtick_3">
     <g id="line2d_3">
      <g>
       <use xlink:href="#m5593aafa97" x="176.64" y="155.195077" style="stroke: #000000; stroke-width: 0.8"/>
      </g>
     </g>
     <g id="text_3">
      <!-- 1.160 -->
      <g transform="translate(162.325938 169.793514) scale(0.1 -0.1)">
       <defs>
        <path id="DejaVuSans-36" d="M 2113 2584 
Q 1688 2584 1439 2293 
Q 1191 2003 1191 1497 
Q 1191 994 1439 701 
Q 1688 409 2113 409 
Q 2538 409 2786 701 
Q 3034 994 3034 1497 
Q 3034 2003 2786 2293 
Q 2538 2584 2113 2584 
z
M 3366 4563 
L 3366 3988 
Q 3128 4100 2886 4159 
Q 2644 4219 2406 4219 
Q 1781 4219 1451 3797 
Q 1122 3375 1075 2522 
Q 1259 2794 1537 2939 
Q 1816 3084 2150 3084 
Q 2853 3084 3261 2657 
Q 3669 2231 3669 1497 
Q 3669 778 3244 343 
Q 2819 -91 2113 -91 
Q 1303 -91 875 529 
Q 447 1150 447 2328 
Q 447 3434 972 4092 
Q 1497 4750 2381 4750 
Q 2619 4750 2861 4703 
Q 3103 4656 3366 4563 
z
" transform="scale(0.015625)"/>
       </defs>
       <use xlink:href="#DejaVuSans-31"/>
       <use xlink:href="#DejaVuSans-2e" transform="translate(63.623047 0)"/>
       <use xlink:href="#DejaVuSans-31" transform="translate(95.410156 0)"/>
       <use xlink:href="#DejaVuSans-36" transform="translate(159.033203 0)"/>
       <use xlink:href="#DejaVuSans-30" transform="translate(222.65625 0)"/>
      </g>
     </g>
    </g>
    <g id="xtick_4">
     <g id="line2d_4">
      <g>
       <use xlink:href="#m5593aafa97" x="236.16" y="155.195077" style="stroke: #000000; stroke-width: 0.8"/>
      </g>
     </g>
     <g id="text_4">
      <!-- 1.165 -->
      <g transform="translate(221.845938 169.793514) scale(0.1 -0.1)">
       <use xlink:href="#DejaVuSans-31"/>
       <use xlink:href="#DejaVuSans-2e" transform="translate(63.623047 0)"/>
       <use xlink:href="#DejaVuSans-31" transform="translate(95.410156 0)"/>
       <use xlink:href="#DejaVuSans-36" transform="translate(159.033203 0)"/>
       <use xlink:href="#DejaVuSans-35" transform="translate(222.65625 0)"/>
      </g>
     </g>
    </g>
    <g id="xtick_5">
     <g id="line2d_5">
      <g>
       <use xlink:href="#m5593aafa97" x="295.68" y="155.195077" style="stroke: #000000; stroke-width: 0.8"/>
      </g>
     </g>
     <g id="text_5">
      <!-- 1.170 -->
      <g transform="translate(281.365938 169.793514) scale(0.1 -0.1)">
       <defs>
        <path id="DejaVuSans-37" d="M 525 4666 
L 3525 4666 
L 3525 4397 
L 1831 0 
L 1172 0 
L 2766 4134 
L 525 4134 
L 525 4666 
z
" transform="scale(0.015625)"/>
       </defs>
       <use xlink:href="#DejaVuSans-31"/>
       <use xlink:href="#DejaVuSans-2e" transform="translate(63.623047 0)"/>
       <use xlink:href="#DejaVuSans-31" transform="translate(95.410156 0)"/>
       <use xlink:href="#DejaVuSans-37" transform="translate(159.033203 0)"/>
       <use xlink:href="#DejaVuSans-30" transform="translate(222.65625 0)"/>
      </g>
     </g>
    </g>
    <g id="xtick_6">
     <g id="line2d_6">
      <g>
       <use xlink:href="#m5593aafa97" x="355.2" y="155.195077" style="stroke: #000000; stroke-width: 0.8"/>
      </g>
     </g>
     <g id="text_6">
      <!-- 1.175 -->
      <g transform="translate(340.885938 169.793514) scale(0.1 -0.1)">
       <use xlink:href="#DejaVuSans-31"/>
       <use xlink:href="#DejaVuSans-2e" transform="translate(63.623047 0)"/>
       <use xlink:href="#DejaVuSans-31" transform="translate(95.410156 0)"/>
       <use xlink:href="#DejaVuSans-37" transform="translate(159.033203 0)"/>
       <use xlink:href="#DejaVuSans-35" transform="translate(222.65625 0)"/>
      </g>
     </g>
    </g>
    <g id="xtick_7">
     <g id="line2d_7">
      <g>
       <use xlink:href="#m5593aafa97" x="414.72" y="155.195077" style="stroke: #000000; stroke-width: 0.8"/>
      </g>
     </g>
     <g id="text_7">
      <!-- 1.180 -->
      <g transform="translate(400.405938 169.793514) scale(0.1 -0.1)">
       <defs>
        <path id="DejaVuSans-38" d="M 2034 2216 
Q 1584 2216 1326 1975 
Q 1069 1734 1069 1313 
Q 1069 891 1326 650 
Q 1584 409 2034 409 
Q 2484 409 2743 651 
Q 3003 894 3003 1313 
Q 3003 1734 2745 1975 
Q 2488 2216 2034 2216 
z
M 1403 2484 
Q 997 2584 770 2862 
Q 544 3141 544 3541 
Q 544 4100 942 4425 
Q 1341 4750 2034 4750 
Q 2731 4750 3128 4425 
Q 3525 4100 3525 3541 
Q 3525 3141 3298 2862 
Q 3072 2584 2669 2484 
Q 3125 2378 3379 2068 
Q 3634 1759 3634 1313 
Q 3634 634 3220 271 
Q 2806 -91 2034 -91 
Q 1263 -91 848 271 
Q 434 634 434 1313 
Q 434 1759 690 2068 
Q 947 2378 1403 2484 
z
M 1172 3481 
Q 1172 3119 1398 2916 
Q 1625 2713 2034 2713 
Q 2441 2713 2670 2916 
Q 2900 3119 2900 3481 
Q 2900 3844 2670 4047 
Q 2441 4250 2034 4250 
Q 1625 4250 1398 4047 
Q 1172 3844 1172 3481 
z
" transform="scale(0.015625)"/>
       </defs>
       <use xlink:href="#DejaVuSans-31"/>
       <use xlink:href="#DejaVuSans-2e" transform="translate(63.623047 0)"/>
       <use xlink:href="#DejaVuSans-31" transform="translate(95.410156 0)"/>
       <use xlink:href="#DejaVuSans-38" transform="translate(159.033203 0)"/>
       <use xlink:href="#DejaVuSans-30" transform="translate(222.65625 0)"/>
      </g>
     </g>
    </g>
    <g id="text_8">
     <!-- Energy (keV) -->
     <g transform="translate(203.952187 183.471639) scale(0.1 -0.1)">
      <defs>
       <path id="DejaVuSans-45" d="M 628 4666 
L 3578 4666 
L 3578 4134 
L 1259 4134 
L 1259 2753 
L 3481 2753 
L 3481 2222 
L 1259 2222 
L 1259 531 
L 3634 531 
L 3634 0 
L 628 0 
L 628 4666 
z
" transform="scale(0.015625)"/>
       <path id="DejaVuSans-6e" d="M 3513 2113 
L 3513 0 
L 2938 0 
L 2938 2094 
Q 2938 2591 2744 2837 
Q 2550 3084 2163 3084 
Q 1697 3084 1428 2787 
Q 1159 2491 1159 1978 
L 1159 0 
L 581 0 
L 581 3500 
L 1159 3500 
L 1159 2956 
Q 1366 3272 1645 3428 
Q 1925 3584 2291 3584 
Q 2894 3584 3203 3211 
Q 3513 2838 3513 2113 
z
" transform="scale(0.015625)"/>
       <path id="DejaVuSans-65" d="M 3597 1894 
L 3597 1613 
L 953 1613 
Q 991 1019 1311 708 
Q 1631 397 2203 397 
Q 2534 397 2845 478 
Q 3156 559 3463 722 
L 3463 178 
Q 3153 47 2828 -22 
Q 2503 -91 2169 -91 
Q 1331 -91 842 396 
Q 353 884 353 1716 
Q 353 2575 817 3079 
Q 1281 3584 2069 3584 
Q 2775 3584 3186 3129 
Q 3597 2675 3597 1894 
z
M 3022 2063 
Q 3016 2534 2758 2815 
Q 2500 3097 2075 3097 
Q 1594 3097 1305 2825 
Q 1016 2553 972 2059 
L 3022 2063 
z
" transform="scale(0.015625)"/>
       <path id="DejaVuSans-72" d="M 2631 2963 
Q 2534 3019 2420 3045 
Q 2306 3072 2169 3072 
Q 1681 3072 1420 2755 
Q 1159 2438 1159 1844 
L 1159 0 
L 581 0 
L 581 3500 
L 1159 3500 
L 1159 2956 
Q 1341 3275 1631 3429 
Q 1922 3584 2338 3584 
Q 2397 3584 2469 3576 
Q 2541 3569 2628 3553 
L 2631 2963 
z
" transform="scale(0.015625)"/>
       <path id="DejaVuSans-67" d="M 2906 1791 
Q 2906 2416 2648 2759 
Q 2391 3103 1925 3103 
Q 1463 3103 1205 2759 
Q 947 2416 947 1791 
Q 947 1169 1205 825 
Q 1463 481 1925 481 
Q 2391 481 2648 825 
Q 2906 1169 2906 1791 
z
M 3481 434 
Q 3481 -459 3084 -895 
Q 2688 -1331 1869 -1331 
Q 1566 -1331 1297 -1286 
Q 1028 -1241 775 -1147 
L 775 -588 
Q 1028 -725 1275 -790 
Q 1522 -856 1778 -856 
Q 2344 -856 2625 -561 
Q 2906 -266 2906 331 
L 2906 616 
Q 2728 306 2450 153 
Q 2172 0 1784 0 
Q 1141 0 747 490 
Q 353 981 353 1791 
Q 353 2603 747 3093 
Q 1141 3584 1784 3584 
Q 2172 3584 2450 3431 
Q 2728 3278 2906 2969 
L 2906 3500 
L 3481 3500 
L 3481 434 
z
" transform="scale(0.015625)"/>
       <path id="DejaVuSans-79" d="M 2059 -325 
Q 1816 -950 1584 -1140 
Q 1353 -1331 966 -1331 
L 506 -1331 
L 506 -850 
L 844 -850 
Q 1081 -850 1212 -737 
Q 1344 -625 1503 -206 
L 1606 56 
L 191 3500 
L 800 3500 
L 1894 763 
L 2988 3500 
L 3597 3500 
L 2059 -325 
z
" transform="scale(0.015625)"/>
       <path id="DejaVuSans-20" transform="scale(0.015625)"/>
       <path id="DejaVuSans-28" d="M 1984 4856 
Q 1566 4138 1362 3434 
Q 1159 2731 1159 2009 
Q 1159 1288 1364 580 
Q 1569 -128 1984 -844 
L 1484 -844 
Q 1016 -109 783 600 
Q 550 1309 550 2009 
Q 550 2706 781 3412 
Q 1013 4119 1484 4856 
L 1984 4856 
z
" transform="scale(0.015625)"/>
       <path id="DejaVuSans-6b" d="M 581 4863 
L 1159 4863 
L 1159 1991 
L 2875 3500 
L 3609 3500 
L 1753 1863 
L 3688 0 
L 2938 0 
L 1159 1709 
L 1159 0 
L 581 0 
L 581 4863 
z
" transform="scale(0.015625)"/>
       <path id="DejaVuSans-56" d="M 1831 0 
L 50 4666 
L 709 4666 
L 2188 738 
L 3669 4666 
L 4325 4666 
L 2547 0 
L 1831 0 
z
" transform="scale(0.015625)"/>
       <path id="DejaVuSans-29" d="M 513 4856 
L 1013 4856 
Q 1481 4119 1714 3412 
Q 1947 2706 1947 2009 
Q 1947 1309 1714 600 
Q 1481 -109 1013 -844 
L 513 -844 
Q 928 -128 1133 580 
Q 1338 1288 1338 2009 
Q 1338 2731 1133 3434 
Q 928 4138 513 4856 
z
" transform="scale(0.015625)"/>
      </defs>
      <use xlink:href="#DejaVuSans-45"/>
      <use xlink:href="#DejaVuSans-6e" transform="translate(63.183594 0)"/>
      <use xlink:href="#DejaVuSans-65" transform="translate(126.5625 0)"/>
      <use xlink:href="#DejaVuSans-72" transform="translate(188.085938 0)"/>
      <use xlink:href="#DejaVuSans-67" transform="translate(227.449219 0)"/>
      <use xlink:href="#DejaVuSans-79" transform="translate(290.925781 0)"/>
      <use xlink:href="#DejaVuSans-20" transform="translate(350.105469 0)"/>
      <use xlink:href="#DejaVuSans-28" transform="translate(381.892578 0)"/>
      <use xlink:href="#DejaVuSans-6b" transform="translate(420.90625 0)"/>
      <use xlink:href="#DejaVuSans-65" transform="translate(475.191406 0)"/>
      <use xlink:href="#DejaVuSans-56" transform="translate(536.714844 0)"/>
      <use xlink:href="#DejaVuSans-29" transform="translate(605.123047 0)"/>
     </g>
    </g>
   </g>
   <g id="matplotlib.axis_2">
    <g id="ytick_1">
     <g id="line2d_8">
      <defs>
       <path id="md197547ea8" d="M 0 0 
L -3.5 0 
" style="stroke: #000000; stroke-width: 0.8"/>
      </defs>
      <g>
       <use xlink:href="#md197547ea8" x="57.6" y="150.025846" style="stroke: #000000; stroke-width: 0.8"/>
      </g>
     </g>
     <g id="text_9">
      <!-- 0 -->
      <g transform="translate(44.2375 153.825065) scale(0.1 -0.1)">
       <use xlink:href="#DejaVuSans-30"/>
      </g>
     </g>
    </g>
    <g id="ytick_2">
     <g id="line2d_9">
      <g>
       <use xlink:href="#md197547ea8" x="57.6" y="111.655072" style="stroke: #000000; stroke-width: 0.8"/>
      </g>
     </g>
     <g id="text_10">
      <!-- 2 -->
      <g transform="translate(44.2375 115.45429) scale(0.1 -0.1)">
       <defs>
        <path id="DejaVuSans-32" d="M 1228 531 
L 3431 531 
L 3431 0 
L 469 0 
L 469 531 
Q 828 903 1448 1529 
Q 2069 2156 2228 2338 
Q 2531 2678 2651 2914 
Q 2772 3150 2772 3378 
Q 2772 3750 2511 3984 
Q 2250 4219 1831 4219 
Q 1534 4219 1204 4116 
Q 875 4013 500 3803 
L 500 4441 
Q 881 4594 1212 4672 
Q 1544 4750 1819 4750 
Q 2544 4750 2975 4387 
Q 3406 4025 3406 3419 
Q 3406 3131 3298 2873 
Q 3191 2616 2906 2266 
Q 2828 2175 2409 1742 
Q 1991 1309 1228 531 
z
" transform="scale(0.015625)"/>
       </defs>
       <use xlink:href="#DejaVuSans-32"/>
      </g>
     </g>
    </g>
    <g id="ytick_3">
     <g id="line2d_10">
      <g>
       <use xlink:href="#md197547ea8" x="57.6" y="73.284297" style="stroke: #000000; stroke-width: 0.8"/>
      </g>
     </g>
     <g id="text_11">
      <!-- 4 -->
      <g transform="translate(44.2375 77.083516) scale(0.1 -0.1)">
       <defs>
        <path id="DejaVuSans-34" d="M 2419 4116 
L 825 1625 
L 2419 1625 
L 2419 4116 
z
M 2253 4666 
L 3047 4666 
L 3047 1625 
L 3713 1625 
L 3713 1100 
L 3047 1100 
L 3047 0 
L 2419 0 
L 2419 1100 
L 313 1100 
L 313 1709 
L 2253 4666 
z
" transform="scale(0.015625)"/>
       </defs>
       <use xlink:href="#DejaVuSans-34"/>
      </g>
     </g>
    </g>
    <g id="text_12">
     <!-- Intensity (ph cm$^5$ s$^{-1}$ bin$^{-1}$) -->
     <g transform="translate(38.1375 167.783538) rotate(-90) scale(0.1 -0.1)">
      <defs>
       <path id="DejaVuSans-49" d="M 628 4666 
L 1259 4666 
L 1259 0 
L 628 0 
L 628 4666 
z
" transform="scale(0.015625)"/>
       <path id="DejaVuSans-74" d="M 1172 4494 
L 1172 3500 
L 2356 3500 
L 2356 3053 
L 1172 3053 
L 1172 1153 
Q 1172 725 1289 603 
Q 1406 481 1766 481 
L 2356 481 
L 2356 0 
L 1766 0 
Q 1100 0 847 248 
Q 594 497 594 1153 
L 594 3053 
L 172 3053 
L 172 3500 
L 594 3500 
L 594 4494 
L 1172 4494 
z
" transform="scale(0.015625)"/>
       <path id="DejaVuSans-73" d="M 2834 3397 
L 2834 2853 
Q 2591 2978 2328 3040 
Q 2066 3103 1784 3103 
Q 1356 3103 1142 2972 
Q 928 2841 928 2578 
Q 928 2378 1081 2264 
Q 1234 2150 1697 2047 
L 1894 2003 
Q 2506 1872 2764 1633 
Q 3022 1394 3022 966 
Q 3022 478 2636 193 
Q 2250 -91 1575 -91 
Q 1294 -91 989 -36 
Q 684 19 347 128 
L 347 722 
Q 666 556 975 473 
Q 1284 391 1588 391 
Q 1994 391 2212 530 
Q 2431 669 2431 922 
Q 2431 1156 2273 1281 
Q 2116 1406 1581 1522 
L 1381 1569 
Q 847 1681 609 1914 
Q 372 2147 372 2553 
Q 372 3047 722 3315 
Q 1072 3584 1716 3584 
Q 2034 3584 2315 3537 
Q 2597 3491 2834 3397 
z
" transform="scale(0.015625)"/>
       <path id="DejaVuSans-69" d="M 603 3500 
L 1178 3500 
L 1178 0 
L 603 0 
L 603 3500 
z
M 603 4863 
L 1178 4863 
L 1178 4134 
L 603 4134 
L 603 4863 
z
" transform="scale(0.015625)"/>
       <path id="DejaVuSans-70" d="M 1159 525 
L 1159 -1331 
L 581 -1331 
L 581 3500 
L 1159 3500 
L 1159 2969 
Q 1341 3281 1617 3432 
Q 1894 3584 2278 3584 
Q 2916 3584 3314 3078 
Q 3713 2572 3713 1747 
Q 3713 922 3314 415 
Q 2916 -91 2278 -91 
Q 1894 -91 1617 61 
Q 1341 213 1159 525 
z
M 3116 1747 
Q 3116 2381 2855 2742 
Q 2594 3103 2138 3103 
Q 1681 3103 1420 2742 
Q 1159 2381 1159 1747 
Q 1159 1113 1420 752 
Q 1681 391 2138 391 
Q 2594 391 2855 752 
Q 3116 1113 3116 1747 
z
" transform="scale(0.015625)"/>
       <path id="DejaVuSans-68" d="M 3513 2113 
L 3513 0 
L 2938 0 
L 2938 2094 
Q 2938 2591 2744 2837 
Q 2550 3084 2163 3084 
Q 1697 3084 1428 2787 
Q 1159 2491 1159 1978 
L 1159 0 
L 581 0 
L 581 4863 
L 1159 4863 
L 1159 2956 
Q 1366 3272 1645 3428 
Q 1925 3584 2291 3584 
Q 2894 3584 3203 3211 
Q 3513 2838 3513 2113 
z
" transform="scale(0.015625)"/>
       <path id="DejaVuSans-63" d="M 3122 3366 
L 3122 2828 
Q 2878 2963 2633 3030 
Q 2388 3097 2138 3097 
Q 1578 3097 1268 2742 
Q 959 2388 959 1747 
Q 959 1106 1268 751 
Q 1578 397 2138 397 
Q 2388 397 2633 464 
Q 2878 531 3122 666 
L 3122 134 
Q 2881 22 2623 -34 
Q 2366 -91 2075 -91 
Q 1284 -91 818 406 
Q 353 903 353 1747 
Q 353 2603 823 3093 
Q 1294 3584 2113 3584 
Q 2378 3584 2631 3529 
Q 2884 3475 3122 3366 
z
" transform="scale(0.015625)"/>
       <path id="DejaVuSans-6d" d="M 3328 2828 
Q 3544 3216 3844 3400 
Q 4144 3584 4550 3584 
Q 5097 3584 5394 3201 
Q 5691 2819 5691 2113 
L 5691 0 
L 5113 0 
L 5113 2094 
Q 5113 2597 4934 2840 
Q 4756 3084 4391 3084 
Q 3944 3084 3684 2787 
Q 3425 2491 3425 1978 
L 3425 0 
L 2847 0 
L 2847 2094 
Q 2847 2600 2669 2842 
Q 2491 3084 2119 3084 
Q 1678 3084 1418 2786 
Q 1159 2488 1159 1978 
L 1159 0 
L 581 0 
L 581 3500 
L 1159 3500 
L 1159 2956 
Q 1356 3278 1631 3431 
Q 1906 3584 2284 3584 
Q 2666 3584 2933 3390 
Q 3200 3197 3328 2828 
z
" transform="scale(0.015625)"/>
       <path id="DejaVuSans-2212" d="M 678 2272 
L 4684 2272 
L 4684 1741 
L 678 1741 
L 678 2272 
z
" transform="scale(0.015625)"/>
       <path id="DejaVuSans-62" d="M 3116 1747 
Q 3116 2381 2855 2742 
Q 2594 3103 2138 3103 
Q 1681 3103 1420 2742 
Q 1159 2381 1159 1747 
Q 1159 1113 1420 752 
Q 1681 391 2138 391 
Q 2594 391 2855 752 
Q 3116 1113 3116 1747 
z
M 1159 2969 
Q 1341 3281 1617 3432 
Q 1894 3584 2278 3584 
Q 2916 3584 3314 3078 
Q 3713 2572 3713 1747 
Q 3713 922 3314 415 
Q 2916 -91 2278 -91 
Q 1894 -91 1617 61 
Q 1341 213 1159 525 
L 1159 0 
L 581 0 
L 581 4863 
L 1159 4863 
L 1159 2969 
z
" transform="scale(0.015625)"/>
      </defs>
      <use xlink:href="#DejaVuSans-49" transform="translate(0 0.684375)"/>
      <use xlink:href="#DejaVuSans-6e" transform="translate(29.492188 0.684375)"/>
      <use xlink:href="#DejaVuSans-74" transform="translate(92.871094 0.684375)"/>
      <use xlink:href="#DejaVuSans-65" transform="translate(132.080078 0.684375)"/>
      <use xlink:href="#DejaVuSans-6e" transform="translate(193.603516 0.684375)"/>
      <use xlink:href="#DejaVuSans-73" transform="translate(256.982422 0.684375)"/>
      <use xlink:href="#DejaVuSans-69" transform="translate(309.082031 0.684375)"/>
      <use xlink:href="#DejaVuSans-74" transform="translate(336.865234 0.684375)"/>
      <use xlink:href="#DejaVuSans-79" transform="translate(376.074219 0.684375)"/>
      <use xlink:href="#DejaVuSans-20" transform="translate(435.253906 0.684375)"/>
      <use xlink:href="#DejaVuSans-28" transform="translate(467.041016 0.684375)"/>
      <use xlink:href="#DejaVuSans-70" transform="translate(506.054688 0.684375)"/>
      <use xlink:href="#DejaVuSans-68" transform="translate(569.53125 0.684375)"/>
      <use xlink:href="#DejaVuSans-20" transform="translate(632.910156 0.684375)"/>
      <use xlink:href="#DejaVuSans-63" transform="translate(664.697266 0.684375)"/>
      <use xlink:href="#DejaVuSans-6d" transform="translate(719.677734 0.684375)"/>
      <use xlink:href="#DejaVuSans-35" transform="translate(818.046875 38.965625) scale(0.7)"/>
      <use xlink:href="#DejaVuSans-20" transform="translate(865.317383 0.684375)"/>
      <use xlink:href="#DejaVuSans-73" transform="translate(897.104492 0.684375)"/>
      <use xlink:href="#DejaVuSans-2212" transform="translate(950.161133 38.965625) scale(0.7)"/>
      <use xlink:href="#DejaVuSans-31" transform="translate(1008.813477 38.965625) scale(0.7)"/>
      <use xlink:href="#DejaVuSans-20" transform="translate(1056.083984 0.684375)"/>
      <use xlink:href="#DejaVuSans-62" transform="translate(1087.871094 0.684375)"/>
      <use xlink:href="#DejaVuSans-69" transform="translate(1151.347656 0.684375)"/>
      <use xlink:href="#DejaVuSans-6e" transform="translate(1179.130859 0.684375)"/>
      <use xlink:href="#DejaVuSans-2212" transform="translate(1243.466797 38.965625) scale(0.7)"/>
      <use xlink:href="#DejaVuSans-31" transform="translate(1302.119141 38.965625) scale(0.7)"/>
      <use xlink:href="#DejaVuSans-29" transform="translate(1349.389648 0.684375)"/>
     </g>
    </g>
    <g id="text_13">
     <!-- 1e−17 -->
     <g transform="translate(57.6 38.472) scale(0.1 -0.1)">
      <use xlink:href="#DejaVuSans-31"/>
      <use xlink:href="#DejaVuSans-65" transform="translate(63.623047 0)"/>
      <use xlink:href="#DejaVuSans-2212" transform="translate(125.146484 0)"/>
      <use xlink:href="#DejaVuSans-31" transform="translate(208.935547 0)"/>
      <use xlink:href="#DejaVuSans-37" transform="translate(272.558594 0)"/>
     </g>
    </g>
   </g>
   <g id="line2d_11">
    <path d="M -1 148.271536 
L 19.5072 148.240621 
L 19.5072 147.653928 
L 24.2688 147.653928 
L 24.2688 148.280292 
L 205.2096 148.246508 
L 205.2096 97.306747 
L 209.9712 97.306747 
L 209.9712 148.205964 
L 262.3488 148.226345 
L 262.3488 49.045703 
L 267.1104 49.045703 
L 267.1104 148.237745 
L 309.9648 148.327883 
L 309.9648 146.193218 
L 314.7264 146.193218 
L 314.7264 148.332294 
L 424.2432 148.347595 
L 424.2432 146.954815 
L 429.0048 146.954815 
L 429.0048 148.21829 
L 433.7664 148.21829 
L 433.7664 148.355055 
L 438.528 148.355055 
L 438.528 147.461712 
L 443.2896 147.461712 
L 443.2896 148.353713 
L 461.8 148.357985 
L 461.8 148.357985 
" clip-path="url(#pfabd8b485c)" style="fill: none; stroke: #1f77b4; stroke-width: 1.5; stroke-linecap: square"/>
   </g>
   <g id="line2d_12">
    <path d="M -1 148.271293 
L 19.5072 148.184905 
L 19.5072 148.016071 
L 29.0304 148.031209 
L 29.0304 148.210127 
L 195.6864 148.274938 
L 195.6864 147.77139 
L 200.448 147.77139 
L 200.448 141.719797 
L 205.2096 141.719797 
L 205.2096 126.72517 
L 209.9712 126.72517 
L 209.9712 130.010065 
L 214.7328 130.010065 
L 214.7328 144.331701 
L 219.4944 144.331701 
L 219.4944 148.092415 
L 224.256 148.092415 
L 224.256 148.286615 
L 252.8256 148.238702 
L 252.8256 147.389679 
L 257.5872 147.389679 
L 257.5872 136.502534 
L 262.3488 136.502534 
L 262.3488 107.482626 
L 267.1104 107.482626 
L 267.1104 111.488781 
L 271.872 111.488781 
L 271.872 139.692914 
L 276.6336 139.692914 
L 276.6336 147.809826 
L 281.3952 147.809826 
L 281.3952 148.311546 
L 300.4416 148.311267 
L 300.4416 148.122626 
L 305.2032 148.122626 
L 305.2032 147.513408 
L 314.7264 147.474886 
L 314.7264 148.096822 
L 319.488 148.096822 
L 319.488 148.312706 
L 419.4816 148.237758 
L 419.4816 147.943304 
L 424.2432 147.943304 
L 424.2432 147.660711 
L 429.0048 147.660711 
L 429.0048 147.941749 
L 443.2896 147.971544 
L 443.2896 148.227451 
L 448.0512 148.227451 
L 448.0512 148.344909 
L 461.8 148.357671 
L 461.8 148.357671 
" clip-path="url(#pfabd8b485c)" style="fill: none; stroke: #ff7f0e; stroke-width: 1.5; stroke-linecap: square"/>
   </g>
   <g id="line2d_13">
    <path d="M -1 148.235389 
L 162.3552 148.132559 
L 162.3552 147.986101 
L 167.1168 147.986101 
L 167.1168 147.747684 
L 171.8784 147.747684 
L 171.8784 147.387735 
L 176.64 147.387735 
L 176.64 146.88701 
L 181.4016 146.88701 
L 181.4016 146.246534 
L 186.1632 146.246534 
L 186.1632 145.497639 
L 190.9248 145.497639 
L 190.9248 144.710088 
L 195.6864 144.710088 
L 195.6864 143.970054 
L 200.448 143.970054 
L 200.448 143.387271 
L 205.2096 143.387271 
L 205.2096 143.062847 
L 214.7328 143.046474 
L 214.7328 143.262506 
L 219.4944 143.262506 
L 219.4944 143.57539 
L 224.256 143.57539 
L 224.256 143.849031 
L 233.7792 143.932112 
L 233.7792 143.696326 
L 238.5408 143.696326 
L 238.5408 143.076852 
L 243.3024 143.076852 
L 243.3024 142.099889 
L 248.064 142.099889 
L 248.064 140.908908 
L 252.8256 140.908908 
L 252.8256 139.717982 
L 257.5872 139.717982 
L 257.5872 138.764849 
L 262.3488 138.764849 
L 262.3488 138.2599 
L 271.872 138.364256 
L 271.872 139.055414 
L 276.6336 139.055414 
L 276.6336 140.199075 
L 281.3952 140.199075 
L 281.3952 141.598157 
L 286.1568 141.598157 
L 286.1568 143.073247 
L 290.9184 143.073247 
L 290.9184 144.4457 
L 295.68 144.4457 
L 295.68 145.600717 
L 300.4416 145.600717 
L 300.4416 146.492267 
L 305.2032 146.492267 
L 305.2032 147.131016 
L 309.9648 147.131016 
L 309.9648 147.559618 
L 314.7264 147.559618 
L 314.7264 147.833078 
L 319.488 147.833078 
L 319.488 148.003831 
L 329.0112 148.111229 
L 329.0112 148.180547 
L 348.0576 148.280744 
L 348.0576 148.295658 
L 414.72 148.18678 
L 414.72 148.154522 
L 457.5744 148.23933 
L 457.5744 148.268012 
L 461.8 148.268012 
L 461.8 148.268012 
" clip-path="url(#pfabd8b485c)" style="fill: none; stroke: #2ca02c; stroke-width: 1.5; stroke-linecap: square"/>
   </g>
   <g id="patch_3">
    <path d="M 57.6 155.195077 
L 57.6 41.472 
" style="fill: none; stroke: #000000; stroke-width: 0.8; stroke-linejoin: miter; stroke-linecap: square"/>
   </g>
   <g id="patch_4">
    <path d="M 414.72 155.195077 
L 414.72 41.472 
" style="fill: none; stroke: #000000; stroke-width: 0.8; stroke-linejoin: miter; stroke-linecap: square"/>
   </g>
   <g id="patch_5">
    <path d="M 57.6 155.195077 
L 414.72 155.195077 
" style="fill: none; stroke: #000000; stroke-width: 0.8; stroke-linejoin: miter; stroke-linecap: square"/>
   </g>
   <g id="patch_6">
    <path d="M 57.6 41.472 
L 414.72 41.472 
" style="fill: none; stroke: #000000; stroke-width: 0.8; stroke-linejoin: miter; stroke-linecap: square"/>
   </g>
   <g id="legend_1">
    <g id="patch_7">
     <path d="M 289.040313 93.506375 
L 407.72 93.506375 
Q 409.72 93.506375 409.72 91.506375 
L 409.72 48.472 
Q 409.72 46.472 407.72 46.472 
L 289.040313 46.472 
Q 287.040313 46.472 287.040313 48.472 
L 287.040313 91.506375 
Q 287.040313 93.506375 289.040313 93.506375 
z
" style="fill: #ffffff; opacity: 0.8; stroke: #cccccc; stroke-linejoin: miter"/>
    </g>
    <g id="line2d_14">
     <path d="M 291.040313 54.570437 
L 291.040313 54.570437 
L 301.040313 54.570437 
L 301.040313 54.570437 
L 311.040313 54.570437 
" style="fill: none; stroke: #1f77b4; stroke-width: 1.5; stroke-linecap: square"/>
    </g>
    <g id="text_14">
     <!-- dummy response -->
     <g transform="translate(319.040313 58.070437) scale(0.1 -0.1)">
      <defs>
       <path id="DejaVuSans-64" d="M 2906 2969 
L 2906 4863 
L 3481 4863 
L 3481 0 
L 2906 0 
L 2906 525 
Q 2725 213 2448 61 
Q 2172 -91 1784 -91 
Q 1150 -91 751 415 
Q 353 922 353 1747 
Q 353 2572 751 3078 
Q 1150 3584 1784 3584 
Q 2172 3584 2448 3432 
Q 2725 3281 2906 2969 
z
M 947 1747 
Q 947 1113 1208 752 
Q 1469 391 1925 391 
Q 2381 391 2643 752 
Q 2906 1113 2906 1747 
Q 2906 2381 2643 2742 
Q 2381 3103 1925 3103 
Q 1469 3103 1208 2742 
Q 947 2381 947 1747 
z
" transform="scale(0.015625)"/>
       <path id="DejaVuSans-75" d="M 544 1381 
L 544 3500 
L 1119 3500 
L 1119 1403 
Q 1119 906 1312 657 
Q 1506 409 1894 409 
Q 2359 409 2629 706 
Q 2900 1003 2900 1516 
L 2900 3500 
L 3475 3500 
L 3475 0 
L 2900 0 
L 2900 538 
Q 2691 219 2414 64 
Q 2138 -91 1772 -91 
Q 1169 -91 856 284 
Q 544 659 544 1381 
z
M 1991 3584 
L 1991 3584 
z
" transform="scale(0.015625)"/>
       <path id="DejaVuSans-6f" d="M 1959 3097 
Q 1497 3097 1228 2736 
Q 959 2375 959 1747 
Q 959 1119 1226 758 
Q 1494 397 1959 397 
Q 2419 397 2687 759 
Q 2956 1122 2956 1747 
Q 2956 2369 2687 2733 
Q 2419 3097 1959 3097 
z
M 1959 3584 
Q 2709 3584 3137 3096 
Q 3566 2609 3566 1747 
Q 3566 888 3137 398 
Q 2709 -91 1959 -91 
Q 1206 -91 779 398 
Q 353 888 353 1747 
Q 353 2609 779 3096 
Q 1206 3584 1959 3584 
z
" transform="scale(0.015625)"/>
      </defs>
      <use xlink:href="#DejaVuSans-64"/>
      <use xlink:href="#DejaVuSans-75" transform="translate(63.476562 0)"/>
      <use xlink:href="#DejaVuSans-6d" transform="translate(126.855469 0)"/>
      <use xlink:href="#DejaVuSans-6d" transform="translate(224.267578 0)"/>
      <use xlink:href="#DejaVuSans-79" transform="translate(321.679688 0)"/>
      <use xlink:href="#DejaVuSans-20" transform="translate(380.859375 0)"/>
      <use xlink:href="#DejaVuSans-72" transform="translate(412.646484 0)"/>
      <use xlink:href="#DejaVuSans-65" transform="translate(451.509766 0)"/>
      <use xlink:href="#DejaVuSans-73" transform="translate(513.033203 0)"/>
      <use xlink:href="#DejaVuSans-70" transform="translate(565.132812 0)"/>
      <use xlink:href="#DejaVuSans-6f" transform="translate(628.609375 0)"/>
      <use xlink:href="#DejaVuSans-6e" transform="translate(689.791016 0)"/>
      <use xlink:href="#DejaVuSans-73" transform="translate(753.169922 0)"/>
      <use xlink:href="#DejaVuSans-65" transform="translate(805.269531 0)"/>
     </g>
    </g>
    <g id="line2d_15">
     <path d="M 291.040313 69.248562 
L 291.040313 69.248562 
L 301.040313 69.248562 
L 301.040313 69.248562 
L 311.040313 69.248562 
" style="fill: none; stroke: #ff7f0e; stroke-width: 1.5; stroke-linecap: square"/>
    </g>
    <g id="text_15">
     <!-- thermal -->
     <g transform="translate(319.040313 72.748562) scale(0.1 -0.1)">
      <defs>
       <path id="DejaVuSans-61" d="M 2194 1759 
Q 1497 1759 1228 1600 
Q 959 1441 959 1056 
Q 959 750 1161 570 
Q 1363 391 1709 391 
Q 2188 391 2477 730 
Q 2766 1069 2766 1631 
L 2766 1759 
L 2194 1759 
z
M 3341 1997 
L 3341 0 
L 2766 0 
L 2766 531 
Q 2569 213 2275 61 
Q 1981 -91 1556 -91 
Q 1019 -91 701 211 
Q 384 513 384 1019 
Q 384 1609 779 1909 
Q 1175 2209 1959 2209 
L 2766 2209 
L 2766 2266 
Q 2766 2663 2505 2880 
Q 2244 3097 1772 3097 
Q 1472 3097 1187 3025 
Q 903 2953 641 2809 
L 641 3341 
Q 956 3463 1253 3523 
Q 1550 3584 1831 3584 
Q 2591 3584 2966 3190 
Q 3341 2797 3341 1997 
z
" transform="scale(0.015625)"/>
       <path id="DejaVuSans-6c" d="M 603 4863 
L 1178 4863 
L 1178 0 
L 603 0 
L 603 4863 
z
" transform="scale(0.015625)"/>
      </defs>
      <use xlink:href="#DejaVuSans-74"/>
      <use xlink:href="#DejaVuSans-68" transform="translate(39.208984 0)"/>
      <use xlink:href="#DejaVuSans-65" transform="translate(102.587891 0)"/>
      <use xlink:href="#DejaVuSans-72" transform="translate(164.111328 0)"/>
      <use xlink:href="#DejaVuSans-6d" transform="translate(203.474609 0)"/>
      <use xlink:href="#DejaVuSans-61" transform="translate(300.886719 0)"/>
      <use xlink:href="#DejaVuSans-6c" transform="translate(362.166016 0)"/>
     </g>
    </g>
    <g id="line2d_16">
     <path d="M 291.040313 83.926687 
L 291.040313 83.926687 
L 301.040313 83.926687 
L 301.040313 83.926687 
L 311.040313 83.926687 
" style="fill: none; stroke: #2ca02c; stroke-width: 1.5; stroke-linecap: square"/>
    </g>
    <g id="text_16">
     <!-- 400 km/s -->
     <g transform="translate(319.040313 87.426687) scale(0.1 -0.1)">
      <defs>
       <path id="DejaVuSans-2f" d="M 1625 4666 
L 2156 4666 
L 531 -594 
L 0 -594 
L 1625 4666 
z
" transform="scale(0.015625)"/>
      </defs>
      <use xlink:href="#DejaVuSans-34"/>
      <use xlink:href="#DejaVuSans-30" transform="translate(63.623047 0)"/>
      <use xlink:href="#DejaVuSans-30" transform="translate(127.246094 0)"/>
      <use xlink:href="#DejaVuSans-20" transform="translate(190.869141 0)"/>
      <use xlink:href="#DejaVuSans-6b" transform="translate(222.65625 0)"/>
      <use xlink:href="#DejaVuSans-6d" transform="translate(280.566406 0)"/>
      <use xlink:href="#DejaVuSans-2f" transform="translate(377.978516 0)"/>
      <use xlink:href="#DejaVuSans-73" transform="translate(411.669922 0)"/>
     </g>
    </g>
   </g>
  </g>
  <g id="axes_2">
   <g id="patch_8">
    <path d="M 57.6 307.584 
L 414.72 307.584 
L 414.72 193.860923 
L 57.6 193.860923 
z
" style="fill: #ffffff"/>
   </g>
   <g id="matplotlib.axis_3">
    <g id="xtick_8">
     <g id="line2d_17">
      <g>
       <use xlink:href="#m5593aafa97" x="57.6" y="307.584" style="stroke: #000000; stroke-width: 0.8"/>
      </g>
     </g>
     <g id="text_17">
      <!-- 1.150 -->
      <g transform="translate(43.285938 322.182437) scale(0.1 -0.1)">
       <use xlink:href="#DejaVuSans-31"/>
       <use xlink:href="#DejaVuSans-2e" transform="translate(63.623047 0)"/>
       <use xlink:href="#DejaVuSans-31" transform="translate(95.410156 0)"/>
       <use xlink:href="#DejaVuSans-35" transform="translate(159.033203 0)"/>
       <use xlink:href="#DejaVuSans-30" transform="translate(222.65625 0)"/>
      </g>
     </g>
    </g>
    <g id="xtick_9">
     <g id="line2d_18">
      <g>
       <use xlink:href="#m5593aafa97" x="117.12" y="307.584" style="stroke: #000000; stroke-width: 0.8"/>
      </g>
     </g>
     <g id="text_18">
      <!-- 1.155 -->
      <g transform="translate(102.805938 322.182437) scale(0.1 -0.1)">
       <use xlink:href="#DejaVuSans-31"/>
       <use xlink:href="#DejaVuSans-2e" transform="translate(63.623047 0)"/>
       <use xlink:href="#DejaVuSans-31" transform="translate(95.410156 0)"/>
       <use xlink:href="#DejaVuSans-35" transform="translate(159.033203 0)"/>
       <use xlink:href="#DejaVuSans-35" transform="translate(222.65625 0)"/>
      </g>
     </g>
    </g>
    <g id="xtick_10">
     <g id="line2d_19">
      <g>
       <use xlink:href="#m5593aafa97" x="176.64" y="307.584" style="stroke: #000000; stroke-width: 0.8"/>
      </g>
     </g>
     <g id="text_19">
      <!-- 1.160 -->
      <g transform="translate(162.325938 322.182437) scale(0.1 -0.1)">
       <use xlink:href="#DejaVuSans-31"/>
       <use xlink:href="#DejaVuSans-2e" transform="translate(63.623047 0)"/>
       <use xlink:href="#DejaVuSans-31" transform="translate(95.410156 0)"/>
       <use xlink:href="#DejaVuSans-36" transform="translate(159.033203 0)"/>
       <use xlink:href="#DejaVuSans-30" transform="translate(222.65625 0)"/>
      </g>
     </g>
    </g>
    <g id="xtick_11">
     <g id="line2d_20">
      <g>
       <use xlink:href="#m5593aafa97" x="236.16" y="307.584" style="stroke: #000000; stroke-width: 0.8"/>
      </g>
     </g>
     <g id="text_20">
      <!-- 1.165 -->
      <g transform="translate(221.845938 322.182437) scale(0.1 -0.1)">
       <use xlink:href="#DejaVuSans-31"/>
       <use xlink:href="#DejaVuSans-2e" transform="translate(63.623047 0)"/>
       <use xlink:href="#DejaVuSans-31" transform="translate(95.410156 0)"/>
       <use xlink:href="#DejaVuSans-36" transform="translate(159.033203 0)"/>
       <use xlink:href="#DejaVuSans-35" transform="translate(222.65625 0)"/>
      </g>
     </g>
    </g>
    <g id="xtick_12">
     <g id="line2d_21">
      <g>
       <use xlink:href="#m5593aafa97" x="295.68" y="307.584" style="stroke: #000000; stroke-width: 0.8"/>
      </g>
     </g>
     <g id="text_21">
      <!-- 1.170 -->
      <g transform="translate(281.365938 322.182437) scale(0.1 -0.1)">
       <use xlink:href="#DejaVuSans-31"/>
       <use xlink:href="#DejaVuSans-2e" transform="translate(63.623047 0)"/>
       <use xlink:href="#DejaVuSans-31" transform="translate(95.410156 0)"/>
       <use xlink:href="#DejaVuSans-37" transform="translate(159.033203 0)"/>
       <use xlink:href="#DejaVuSans-30" transform="translate(222.65625 0)"/>
      </g>
     </g>
    </g>
    <g id="xtick_13">
     <g id="line2d_22">
      <g>
       <use xlink:href="#m5593aafa97" x="355.2" y="307.584" style="stroke: #000000; stroke-width: 0.8"/>
      </g>
     </g>
     <g id="text_22">
      <!-- 1.175 -->
      <g transform="translate(340.885938 322.182437) scale(0.1 -0.1)">
       <use xlink:href="#DejaVuSans-31"/>
       <use xlink:href="#DejaVuSans-2e" transform="translate(63.623047 0)"/>
       <use xlink:href="#DejaVuSans-31" transform="translate(95.410156 0)"/>
       <use xlink:href="#DejaVuSans-37" transform="translate(159.033203 0)"/>
       <use xlink:href="#DejaVuSans-35" transform="translate(222.65625 0)"/>
      </g>
     </g>
    </g>
    <g id="xtick_14">
     <g id="line2d_23">
      <g>
       <use xlink:href="#m5593aafa97" x="414.72" y="307.584" style="stroke: #000000; stroke-width: 0.8"/>
      </g>
     </g>
     <g id="text_23">
      <!-- 1.180 -->
      <g transform="translate(400.405938 322.182437) scale(0.1 -0.1)">
       <use xlink:href="#DejaVuSans-31"/>
       <use xlink:href="#DejaVuSans-2e" transform="translate(63.623047 0)"/>
       <use xlink:href="#DejaVuSans-31" transform="translate(95.410156 0)"/>
       <use xlink:href="#DejaVuSans-38" transform="translate(159.033203 0)"/>
       <use xlink:href="#DejaVuSans-30" transform="translate(222.65625 0)"/>
      </g>
     </g>
    </g>
    <g id="text_24">
     <!-- Energy (keV) -->
     <g transform="translate(203.952187 335.860563) scale(0.1 -0.1)">
      <use xlink:href="#DejaVuSans-45"/>
      <use xlink:href="#DejaVuSans-6e" transform="translate(63.183594 0)"/>
      <use xlink:href="#DejaVuSans-65" transform="translate(126.5625 0)"/>
      <use xlink:href="#DejaVuSans-72" transform="translate(188.085938 0)"/>
      <use xlink:href="#DejaVuSans-67" transform="translate(227.449219 0)"/>
      <use xlink:href="#DejaVuSans-79" transform="translate(290.925781 0)"/>
      <use xlink:href="#DejaVuSans-20" transform="translate(350.105469 0)"/>
      <use xlink:href="#DejaVuSans-28" transform="translate(381.892578 0)"/>
      <use xlink:href="#DejaVuSans-6b" transform="translate(420.90625 0)"/>
      <use xlink:href="#DejaVuSans-65" transform="translate(475.191406 0)"/>
      <use xlink:href="#DejaVuSans-56" transform="translate(536.714844 0)"/>
      <use xlink:href="#DejaVuSans-29" transform="translate(605.123047 0)"/>
     </g>
    </g>
   </g>
   <g id="matplotlib.axis_4">
    <g id="ytick_4">
     <g id="line2d_24">
      <g>
       <use xlink:href="#md197547ea8" x="57.6" y="302.414769" style="stroke: #000000; stroke-width: 0.8"/>
      </g>
     </g>
     <g id="text_25">
      <!-- 0 -->
      <g transform="translate(44.2375 306.213988) scale(0.1 -0.1)">
       <use xlink:href="#DejaVuSans-30"/>
      </g>
     </g>
    </g>
    <g id="ytick_5">
     <g id="line2d_25">
      <g>
       <use xlink:href="#md197547ea8" x="57.6" y="277.328126" style="stroke: #000000; stroke-width: 0.8"/>
      </g>
     </g>
     <g id="text_26">
      <!-- 1 -->
      <g transform="translate(44.2375 281.127344) scale(0.1 -0.1)">
       <use xlink:href="#DejaVuSans-31"/>
      </g>
     </g>
    </g>
    <g id="ytick_6">
     <g id="line2d_26">
      <g>
       <use xlink:href="#md197547ea8" x="57.6" y="252.241482" style="stroke: #000000; stroke-width: 0.8"/>
      </g>
     </g>
     <g id="text_27">
      <!-- 2 -->
      <g transform="translate(44.2375 256.040701) scale(0.1 -0.1)">
       <use xlink:href="#DejaVuSans-32"/>
      </g>
     </g>
    </g>
    <g id="ytick_7">
     <g id="line2d_27">
      <g>
       <use xlink:href="#md197547ea8" x="57.6" y="227.154838" style="stroke: #000000; stroke-width: 0.8"/>
      </g>
     </g>
     <g id="text_28">
      <!-- 3 -->
      <g transform="translate(44.2375 230.954057) scale(0.1 -0.1)">
       <defs>
        <path id="DejaVuSans-33" d="M 2597 2516 
Q 3050 2419 3304 2112 
Q 3559 1806 3559 1356 
Q 3559 666 3084 287 
Q 2609 -91 1734 -91 
Q 1441 -91 1130 -33 
Q 819 25 488 141 
L 488 750 
Q 750 597 1062 519 
Q 1375 441 1716 441 
Q 2309 441 2620 675 
Q 2931 909 2931 1356 
Q 2931 1769 2642 2001 
Q 2353 2234 1838 2234 
L 1294 2234 
L 1294 2753 
L 1863 2753 
Q 2328 2753 2575 2939 
Q 2822 3125 2822 3475 
Q 2822 3834 2567 4026 
Q 2313 4219 1838 4219 
Q 1578 4219 1281 4162 
Q 984 4106 628 3988 
L 628 4550 
Q 988 4650 1302 4700 
Q 1616 4750 1894 4750 
Q 2613 4750 3031 4423 
Q 3450 4097 3450 3541 
Q 3450 3153 3228 2886 
Q 3006 2619 2597 2516 
z
" transform="scale(0.015625)"/>
       </defs>
       <use xlink:href="#DejaVuSans-33"/>
      </g>
     </g>
    </g>
    <g id="ytick_8">
     <g id="line2d_28">
      <g>
       <use xlink:href="#md197547ea8" x="57.6" y="202.068195" style="stroke: #000000; stroke-width: 0.8"/>
      </g>
     </g>
     <g id="text_29">
      <!-- 4 -->
      <g transform="translate(44.2375 205.867413) scale(0.1 -0.1)">
       <use xlink:href="#DejaVuSans-34"/>
      </g>
     </g>
    </g>
    <g id="text_30">
     <!-- Intensity (ph cm$^5$ s$^{-1}$ bin$^{-1}$) -->
     <g transform="translate(38.1375 320.172462) rotate(-90) scale(0.1 -0.1)">
      <use xlink:href="#DejaVuSans-49" transform="translate(0 0.684375)"/>
      <use xlink:href="#DejaVuSans-6e" transform="translate(29.492188 0.684375)"/>
      <use xlink:href="#DejaVuSans-74" transform="translate(92.871094 0.684375)"/>
      <use xlink:href="#DejaVuSans-65" transform="translate(132.080078 0.684375)"/>
      <use xlink:href="#DejaVuSans-6e" transform="translate(193.603516 0.684375)"/>
      <use xlink:href="#DejaVuSans-73" transform="translate(256.982422 0.684375)"/>
      <use xlink:href="#DejaVuSans-69" transform="translate(309.082031 0.684375)"/>
      <use xlink:href="#DejaVuSans-74" transform="translate(336.865234 0.684375)"/>
      <use xlink:href="#DejaVuSans-79" transform="translate(376.074219 0.684375)"/>
      <use xlink:href="#DejaVuSans-20" transform="translate(435.253906 0.684375)"/>
      <use xlink:href="#DejaVuSans-28" transform="translate(467.041016 0.684375)"/>
      <use xlink:href="#DejaVuSans-70" transform="translate(506.054688 0.684375)"/>
      <use xlink:href="#DejaVuSans-68" transform="translate(569.53125 0.684375)"/>
      <use xlink:href="#DejaVuSans-20" transform="translate(632.910156 0.684375)"/>
      <use xlink:href="#DejaVuSans-63" transform="translate(664.697266 0.684375)"/>
      <use xlink:href="#DejaVuSans-6d" transform="translate(719.677734 0.684375)"/>
      <use xlink:href="#DejaVuSans-35" transform="translate(818.046875 38.965625) scale(0.7)"/>
      <use xlink:href="#DejaVuSans-20" transform="translate(865.317383 0.684375)"/>
      <use xlink:href="#DejaVuSans-73" transform="translate(897.104492 0.684375)"/>
      <use xlink:href="#DejaVuSans-2212" transform="translate(950.161133 38.965625) scale(0.7)"/>
      <use xlink:href="#DejaVuSans-31" transform="translate(1008.813477 38.965625) scale(0.7)"/>
      <use xlink:href="#DejaVuSans-20" transform="translate(1056.083984 0.684375)"/>
      <use xlink:href="#DejaVuSans-62" transform="translate(1087.871094 0.684375)"/>
      <use xlink:href="#DejaVuSans-69" transform="translate(1151.347656 0.684375)"/>
      <use xlink:href="#DejaVuSans-6e" transform="translate(1179.130859 0.684375)"/>
      <use xlink:href="#DejaVuSans-2212" transform="translate(1243.466797 38.965625) scale(0.7)"/>
      <use xlink:href="#DejaVuSans-31" transform="translate(1302.119141 38.965625) scale(0.7)"/>
      <use xlink:href="#DejaVuSans-29" transform="translate(1349.389648 0.684375)"/>
     </g>
    </g>
    <g id="text_31">
     <!-- 1e−16 -->
     <g transform="translate(57.6 190.860923) scale(0.1 -0.1)">
      <use xlink:href="#DejaVuSans-31"/>
      <use xlink:href="#DejaVuSans-65" transform="translate(63.623047 0)"/>
      <use xlink:href="#DejaVuSans-2212" transform="translate(125.146484 0)"/>
      <use xlink:href="#DejaVuSans-31" transform="translate(208.935547 0)"/>
      <use xlink:href="#DejaVuSans-36" transform="translate(272.558594 0)"/>
     </g>
    </g>
   </g>
   <g id="line2d_29">
    <path d="M 52.818878 298.717478 
L 52.818878 298.721188 
L 59.166367 298.721188 
L 59.166367 298.711947 
L 65.519531 298.711947 
L 65.519531 298.693441 
L 71.878372 298.693441 
L 71.878372 298.670661 
L 78.244308 298.670661 
L 78.244308 298.653795 
L 84.614502 298.653795 
L 84.614502 298.643775 
L 90.991791 298.643775 
L 90.991791 298.636866 
L 97.374756 298.636866 
L 97.374756 298.633448 
L 103.763397 298.633448 
L 103.763397 298.628021 
L 110.157715 298.628021 
L 110.157715 298.612505 
L 116.559128 298.612505 
L 116.559128 298.586438 
L 122.964798 298.586438 
L 122.964798 298.551138 
L 129.377563 298.551138 
L 129.377563 298.512739 
L 135.796005 298.512739 
L 135.796005 298.484766 
L 142.220123 298.484766 
L 142.220123 298.469811 
L 148.651337 298.469811 
L 148.651337 298.454542 
L 155.088226 298.454542 
L 155.088226 298.427041 
L 161.530792 298.427041 
L 161.530792 298.380286 
L 167.979034 298.380286 
L 167.979034 298.299787 
L 174.432953 298.299787 
L 174.432953 298.136444 
L 180.893967 298.136444 
L 180.893967 297.727926 
L 187.360657 297.727926 
L 187.360657 296.717789 
L 193.833023 296.717789 
L 193.833023 292.610071 
L 200.312485 292.610071 
L 200.312485 282.757866 
L 206.797623 282.757866 
L 206.797623 274.427004 
L 213.288437 274.427004 
L 213.288437 278.224538 
L 219.784927 278.224538 
L 219.784927 288.635507 
L 226.288513 288.635507 
L 226.288513 294.468557 
L 232.797775 294.468557 
L 232.797775 296.070085 
L 239.312714 296.070085 
L 239.312714 296.263314 
L 245.834747 296.263314 
L 245.834747 294.646632 
L 252.362457 294.646632 
L 252.362457 286.693027 
L 258.895844 286.693027 
L 258.895844 267.250299 
L 265.436325 267.250299 
L 265.436325 250.800353 
L 271.982483 250.800353 
L 271.982483 258.49913 
L 278.534317 258.49913 
L 278.534317 279.37611 
L 285.093246 279.37611 
L 285.093246 291.199428 
L 291.657852 291.199428 
L 291.657852 294.782018 
L 298.229553 294.782018 
L 298.229553 296.276808 
L 304.805511 296.276808 
L 304.805511 296.620178 
L 311.388565 296.620178 
L 311.388565 297.104214 
L 317.978714 297.104214 
L 317.978714 297.768378 
L 324.574539 297.768378 
L 324.574539 298.19449 
L 331.176041 298.19449 
L 331.176041 298.418066 
L 337.784637 298.418066 
L 337.784637 298.572631 
L 344.398911 298.572631 
L 344.398911 298.666012 
L 351.020279 298.666012 
L 351.020279 298.713657 
L 357.647324 298.713657 
L 357.647324 298.721712 
L 364.280045 298.721712 
L 364.280045 298.702207 
L 370.919861 298.702207 
L 370.919861 298.667788 
L 377.565353 298.667788 
L 377.565353 298.624393 
L 384.217941 298.624393 
L 384.217941 298.580307 
L 390.876205 298.580307 
L 390.876205 298.54253 
L 397.541565 298.54253 
L 397.541565 298.505088 
L 404.212601 298.505088 
L 404.212601 298.45155 
L 410.890732 298.45155 
L 410.890732 298.334075 
L 417.574539 298.334075 
" clip-path="url(#p220dbe3b76)" style="fill: none; stroke: #1f77b4; stroke-width: 1.5; stroke-linecap: square"/>
   </g>
   <g id="line2d_30">
    <path d="M 52.818878 298.713511 
L 52.818878 298.717177 
L 59.166367 298.717177 
L 59.166367 298.707721 
L 65.519531 298.707721 
L 65.519531 298.689612 
L 71.878372 298.689612 
L 71.878372 298.670539 
L 78.244308 298.670539 
L 78.244308 298.656708 
L 84.614502 298.656708 
L 84.614502 298.646434 
L 90.991791 298.646434 
L 90.991791 298.638207 
L 97.374756 298.638207 
L 97.374756 298.633125 
L 103.763397 298.633125 
L 103.763397 298.626193 
L 110.157715 298.626193 
L 110.157715 298.610294 
L 116.559128 298.610294 
L 116.559128 298.584023 
L 122.964798 298.584023 
L 122.964798 298.549321 
L 129.377563 298.549321 
L 129.377563 298.512328 
L 135.796005 298.512328 
L 135.796005 298.483534 
L 142.220123 298.483534 
L 142.220123 298.465615 
L 148.651337 298.465615 
L 148.651337 298.448208 
L 155.088226 298.448208 
L 155.088226 298.418794 
L 161.530792 298.418794 
L 161.530792 298.366561 
L 167.979034 298.366561 
L 167.979034 298.268628 
L 174.432953 298.268628 
L 174.432953 298.051944 
L 180.893967 298.051944 
L 180.893967 297.5048 
L 187.360657 297.5048 
L 187.360657 295.766814 
L 193.833023 295.766814 
L 193.833023 290.725322 
L 200.312485 290.725322 
L 200.312485 282.261117 
L 206.797623 282.261117 
L 206.797623 276.788291 
L 213.288437 276.788291 
L 213.288437 280.297628 
L 219.784927 280.297628 
L 219.784927 288.454014 
L 226.288513 288.454014 
L 226.288513 293.88288 
L 232.797775 293.88288 
L 232.797775 295.710403 
L 239.312714 295.710403 
L 239.312714 295.388413 
L 245.834747 295.388413 
L 245.834747 291.446829 
L 252.362457 291.446829 
L 252.362457 279.931799 
L 258.895844 279.931799 
L 258.895844 263.10761 
L 265.436325 263.10761 
L 265.436325 255.527412 
L 271.982483 255.527412 
L 271.982483 265.750723 
L 278.534317 265.750723 
L 278.534317 281.971824 
L 285.093246 281.971824 
L 285.093246 291.558308 
L 291.657852 291.558308 
L 291.657852 295.187749 
L 298.229553 295.187749 
L 298.229553 296.495132 
L 304.805511 296.495132 
L 304.805511 296.821198 
L 311.388565 296.821198 
L 311.388565 297.120366 
L 317.978714 297.120366 
L 317.978714 297.64112 
L 324.574539 297.64112 
L 324.574539 298.112812 
L 331.176041 298.112812 
L 331.176041 298.396578 
L 337.784637 298.396578 
L 337.784637 298.564397 
L 344.398911 298.564397 
L 344.398911 298.667413 
L 351.020279 298.667413 
L 351.020279 298.717429 
L 357.647324 298.717429 
L 357.647324 298.724999 
L 364.280045 298.724999 
L 364.280045 298.703824 
L 370.919861 298.703824 
L 370.919861 298.667101 
L 377.565353 298.667101 
L 377.565353 298.623465 
L 384.217941 298.623465 
L 384.217941 298.580311 
L 390.876205 298.580311 
L 390.876205 298.541232 
L 397.541565 298.541232 
L 397.541565 298.498254 
L 404.212601 298.498254 
L 404.212601 298.42058 
L 410.890732 298.42058 
L 410.890732 298.262896 
L 417.574539 298.262896 
" clip-path="url(#p220dbe3b76)" style="fill: none; stroke: #ff7f0e; stroke-width: 1.5; stroke-linecap: square"/>
   </g>
   <g id="line2d_31">
    <path d="M 52.818878 298.665352 
L 52.818878 298.672143 
L 59.166367 298.672143 
L 59.166367 298.67553 
L 65.519531 298.67553 
L 65.519531 298.672883 
L 71.878372 298.672883 
L 71.878372 298.665223 
L 78.244308 298.665223 
L 78.244308 298.656087 
L 84.614502 298.656087 
L 84.614502 298.647374 
L 90.991791 298.647374 
L 90.991791 298.638627 
L 97.374756 298.638627 
L 97.374756 298.628174 
L 103.763397 298.628174 
L 103.763397 298.613533 
L 110.157715 298.613533 
L 110.157715 298.592742 
L 116.559128 298.592742 
L 116.559128 298.566506 
L 122.964798 298.566506 
L 122.964798 298.537177 
L 129.377563 298.537177 
L 129.377563 298.503076 
L 135.796005 298.503076 
L 135.796005 298.45498 
L 142.220123 298.45498 
L 142.220123 298.376159 
L 148.651337 298.376159 
L 148.651337 298.234894 
L 155.088226 298.234894 
L 155.088226 297.970795 
L 161.530792 297.970795 
L 161.530792 297.492924 
L 167.979034 297.492924 
L 167.979034 296.697593 
L 174.432953 296.697593 
L 174.432953 295.504152 
L 180.893967 295.504152 
L 180.893967 293.90811 
L 187.360657 293.90811 
L 187.360657 292.03369 
L 193.833023 292.03369 
L 193.833023 290.148064 
L 200.312485 290.148064 
L 200.312485 288.600812 
L 206.797623 288.600812 
L 206.797623 287.673859 
L 213.288437 287.673859 
L 213.288437 287.402504 
L 219.784927 287.402504 
L 219.784927 287.503212 
L 226.288513 287.503212 
L 226.288513 287.473794 
L 232.797775 287.473794 
L 232.797775 286.802447 
L 239.312714 286.802447 
L 239.312714 285.206415 
L 245.834747 285.206415 
L 245.834747 282.821343 
L 252.362457 282.821343 
L 252.362457 280.228082 
L 258.895844 280.228082 
L 258.895844 278.261855 
L 265.436325 278.261855 
L 265.436325 277.66881 
L 271.982483 277.66881 
L 271.982483 278.772468 
L 278.534317 278.772468 
L 278.534317 281.348909 
L 285.093246 281.348909 
L 285.093246 284.7799 
L 291.657852 284.7799 
L 291.657852 288.34571 
L 298.229553 288.34571 
L 298.229553 291.48363 
L 304.805511 291.48363 
L 304.805511 293.92035 
L 311.388565 293.92035 
L 311.388565 295.648752 
L 317.978714 295.648752 
L 317.978714 296.80446 
L 324.574539 296.80446 
L 324.574539 297.550826 
L 331.176041 297.550826 
L 331.176041 298.027184 
L 337.784637 298.027184 
L 337.784637 298.335415 
L 344.398911 298.335415 
L 344.398911 298.533638 
L 351.020279 298.533638 
L 351.020279 298.645184 
L 357.647324 298.645184 
L 357.647324 298.68439 
L 364.280045 298.68439 
L 364.280045 298.671415 
L 370.919861 298.671415 
L 370.919861 298.628193 
L 377.565353 298.628193 
L 377.565353 298.57127 
L 384.217941 298.57127 
L 384.217941 298.508077 
L 390.876205 298.508077 
L 390.876205 298.436976 
L 397.541565 298.436976 
L 397.541565 298.354916 
L 404.212601 298.354916 
L 404.212601 298.269665 
L 410.890732 298.269665 
L 410.890732 298.207296 
L 417.574539 298.207296 
" clip-path="url(#p220dbe3b76)" style="fill: none; stroke: #2ca02c; stroke-width: 1.5; stroke-linecap: square"/>
   </g>
   <g id="patch_9">
    <path d="M 57.6 307.584 
L 57.6 193.860923 
" style="fill: none; stroke: #000000; stroke-width: 0.8; stroke-linejoin: miter; stroke-linecap: square"/>
   </g>
   <g id="patch_10">
    <path d="M 414.72 307.584 
L 414.72 193.860923 
" style="fill: none; stroke: #000000; stroke-width: 0.8; stroke-linejoin: miter; stroke-linecap: square"/>
   </g>
   <g id="patch_11">
    <path d="M 57.6 307.584 
L 414.72 307.584 
" style="fill: none; stroke: #000000; stroke-width: 0.8; stroke-linejoin: miter; stroke-linecap: square"/>
   </g>
   <g id="patch_12">
    <path d="M 57.6 193.860923 
L 414.72 193.860923 
" style="fill: none; stroke: #000000; stroke-width: 0.8; stroke-linejoin: miter; stroke-linecap: square"/>
   </g>
   <g id="legend_2">
    <g id="patch_13">
     <path d="M 307.473125 216.539048 
L 407.72 216.539048 
Q 409.72 216.539048 409.72 214.539048 
L 409.72 200.860923 
Q 409.72 198.860923 407.72 198.860923 
L 307.473125 198.860923 
Q 305.473125 198.860923 305.473125 200.860923 
L 305.473125 214.539048 
Q 305.473125 216.539048 307.473125 216.539048 
z
" style="fill: #ffffff; opacity: 0.8; stroke: #cccccc; stroke-linejoin: miter"/>
    </g>
    <g id="line2d_32">
     <path d="M 309.473125 206.959361 
L 309.473125 206.959361 
L 319.473125 206.959361 
L 319.473125 206.959361 
L 329.473125 206.959361 
" style="fill: none; stroke: #1f77b4; stroke-width: 1.5; stroke-linecap: square"/>
    </g>
    <g id="text_32">
     <!-- Chandra MEG -->
     <g transform="translate(337.473125 210.459361) scale(0.1 -0.1)">
      <defs>
       <path id="DejaVuSans-43" d="M 4122 4306 
L 4122 3641 
Q 3803 3938 3442 4084 
Q 3081 4231 2675 4231 
Q 1875 4231 1450 3742 
Q 1025 3253 1025 2328 
Q 1025 1406 1450 917 
Q 1875 428 2675 428 
Q 3081 428 3442 575 
Q 3803 722 4122 1019 
L 4122 359 
Q 3791 134 3420 21 
Q 3050 -91 2638 -91 
Q 1578 -91 968 557 
Q 359 1206 359 2328 
Q 359 3453 968 4101 
Q 1578 4750 2638 4750 
Q 3056 4750 3426 4639 
Q 3797 4528 4122 4306 
z
" transform="scale(0.015625)"/>
       <path id="DejaVuSans-4d" d="M 628 4666 
L 1569 4666 
L 2759 1491 
L 3956 4666 
L 4897 4666 
L 4897 0 
L 4281 0 
L 4281 4097 
L 3078 897 
L 2444 897 
L 1241 4097 
L 1241 0 
L 628 0 
L 628 4666 
z
" transform="scale(0.015625)"/>
       <path id="DejaVuSans-47" d="M 3809 666 
L 3809 1919 
L 2778 1919 
L 2778 2438 
L 4434 2438 
L 4434 434 
Q 4069 175 3628 42 
Q 3188 -91 2688 -91 
Q 1594 -91 976 548 
Q 359 1188 359 2328 
Q 359 3472 976 4111 
Q 1594 4750 2688 4750 
Q 3144 4750 3555 4637 
Q 3966 4525 4313 4306 
L 4313 3634 
Q 3963 3931 3569 4081 
Q 3175 4231 2741 4231 
Q 1884 4231 1454 3753 
Q 1025 3275 1025 2328 
Q 1025 1384 1454 906 
Q 1884 428 2741 428 
Q 3075 428 3337 486 
Q 3600 544 3809 666 
z
" transform="scale(0.015625)"/>
      </defs>
      <use xlink:href="#DejaVuSans-43"/>
      <use xlink:href="#DejaVuSans-68" transform="translate(69.824219 0)"/>
      <use xlink:href="#DejaVuSans-61" transform="translate(133.203125 0)"/>
      <use xlink:href="#DejaVuSans-6e" transform="translate(194.482422 0)"/>
      <use xlink:href="#DejaVuSans-64" transform="translate(257.861328 0)"/>
      <use xlink:href="#DejaVuSans-72" transform="translate(321.337891 0)"/>
      <use xlink:href="#DejaVuSans-61" transform="translate(362.451172 0)"/>
      <use xlink:href="#DejaVuSans-20" transform="translate(423.730469 0)"/>
      <use xlink:href="#DejaVuSans-4d" transform="translate(455.517578 0)"/>
      <use xlink:href="#DejaVuSans-45" transform="translate(541.796875 0)"/>
      <use xlink:href="#DejaVuSans-47" transform="translate(604.980469 0)"/>
     </g>
    </g>
   </g>
  </g>
 </g>
 <defs>
  <clipPath id="pfabd8b485c">
   <rect x="57.6" y="41.472" width="357.12" height="113.723077"/>
  </clipPath>
  <clipPath id="p220dbe3b76">
   <rect x="57.6" y="193.860923" width="357.12" height="113.723077"/>
  </clipPath>
 </defs>
</svg>
