<?xml version="1.0" encoding="utf-8" standalone="no"?>
<!DOCTYPE svg PUBLIC "-//W3C//DTD SVG 1.1//EN"
  "http://www.w3.org/Graphics/SVG/1.1/DTD/svg11.dtd">
<svg xmlns:xlink="http://www.w3.org/1999/xlink" width="460.8pt" height="345.6pt" viewBox="0 0 460.8 345.6" xmlns="http://www.w3.org/2000/svg" version="1.1">
 <metadata>
  <rdf:RDF xmlns:dc="http://purl.org/dc/elements/1.1/" xmlns:cc="http://creativecommons.org/ns#" xmlns:rdf="http://www.w3.org/1999/02/22-rdf-syntax-ns#">
   <cc:Work>
    <dc:type rdf:resource="http://purl.org/dc/dcmitype/StillImage"/>
    <dc:date>2025-04-08T17:06:34.017659</dc:date>
    <dc:format>image/svg+xml</dc:format>
    <dc:creator>
     <cc:Agent>
      <dc:title>Matplotlib v3.10.1, https://matplotlib.org/</dc:title>
     </cc:Agent>
    </dc:creator>
   </cc:Work>
  </rdf:RDF>
 </metadata>
 <defs>
  <style type="text/css">*{stroke-linejoin: round; stroke-linecap: butt}</style>
 </defs>
 <g id="figure_1">
  <g id="patch_1">
   <path d="M 0 345.6 
L 460.8 345.6 
L 460.8 0 
L 0 0 
z
" style="fill: #ffffff"/>
  </g>
  <g id="axes_1">
   <g id="patch_2">
    <path d="M 57.6 307.584 
L 414.72 307.584 
L 414.72 41.472 
L 57.6 41.472 
z
" style="fill: #ffffff"/>
   </g>
   <g id="matplotlib.axis_1">
    <g id="xtick_1">
     <g id="line2d_1">
      <defs>
       <path id="m32fc418bb4" d="M 0 0 
L 0 3.5 
" style="stroke: #000000; stroke-width: 0.8"/>
      </defs>
      <g>
       <use xlink:href="#m32fc418bb4" x="57.6" y="307.584" style="stroke: #000000; stroke-width: 0.8"/>
      </g>
     </g>
     <g id="text_1">
      <!-- 0.6 -->
      <g transform="translate(49.648438 322.182437) scale(0.1 -0.1)">
       <defs>
        <path id="DejaVuSans-30" d="M 2034 4250 
Q 1547 4250 1301 3770 
Q 1056 3291 1056 2328 
Q 1056 1369 1301 889 
Q 1547 409 2034 409 
Q 2525 409 2770 889 
Q 3016 1369 3016 2328 
Q 3016 3291 2770 3770 
Q 2525 4250 2034 4250 
z
M 2034 4750 
Q 2819 4750 3233 4129 
Q 3647 3509 3647 2328 
Q 3647 1150 3233 529 
Q 2819 -91 2034 -91 
Q 1250 -91 836 529 
Q 422 1150 422 2328 
Q 422 3509 836 4129 
Q 1250 4750 2034 4750 
z
" transform="scale(0.015625)"/>
        <path id="DejaVuSans-2e" d="M 684 794 
L 1344 794 
L 1344 0 
L 684 0 
L 684 794 
z
" transform="scale(0.015625)"/>
        <path id="DejaVuSans-36" d="M 2113 2584 
Q 1688 2584 1439 2293 
Q 1191 2003 1191 1497 
Q 1191 994 1439 701 
Q 1688 409 2113 409 
Q 2538 409 2786 701 
Q 3034 994 3034 1497 
Q 3034 2003 2786 2293 
Q 2538 2584 2113 2584 
z
M 3366 4563 
L 3366 3988 
Q 3128 4100 2886 4159 
Q 2644 4219 2406 4219 
Q 1781 4219 1451 3797 
Q 1122 3375 1075 2522 
Q 1259 2794 1537 2939 
Q 1816 3084 2150 3084 
Q 2853 3084 3261 2657 
Q 3669 2231 3669 1497 
Q 3669 778 3244 343 
Q 2819 -91 2113 -91 
Q 1303 -91 875 529 
Q 447 1150 447 2328 
Q 447 3434 972 4092 
Q 1497 4750 2381 4750 
Q 2619 4750 2861 4703 
Q 3103 4656 3366 4563 
z
" transform="scale(0.015625)"/>
       </defs>
       <use xlink:href="#DejaVuSans-30"/>
       <use xlink:href="#DejaVuSans-2e" transform="translate(63.623047 0)"/>
       <use xlink:href="#DejaVuSans-36" transform="translate(95.410156 0)"/>
      </g>
     </g>
    </g>
    <g id="xtick_2">
     <g id="line2d_2">
      <g>
       <use xlink:href="#m32fc418bb4" x="117.12" y="307.584" style="stroke: #000000; stroke-width: 0.8"/>
      </g>
     </g>
     <g id="text_2">
      <!-- 0.7 -->
      <g transform="translate(109.168438 322.182437) scale(0.1 -0.1)">
       <defs>
        <path id="DejaVuSans-37" d="M 525 4666 
L 3525 4666 
L 3525 4397 
L 1831 0 
L 1172 0 
L 2766 4134 
L 525 4134 
L 525 4666 
z
" transform="scale(0.015625)"/>
       </defs>
       <use xlink:href="#DejaVuSans-30"/>
       <use xlink:href="#DejaVuSans-2e" transform="translate(63.623047 0)"/>
       <use xlink:href="#DejaVuSans-37" transform="translate(95.410156 0)"/>
      </g>
     </g>
    </g>
    <g id="xtick_3">
     <g id="line2d_3">
      <g>
       <use xlink:href="#m32fc418bb4" x="176.64" y="307.584" style="stroke: #000000; stroke-width: 0.8"/>
      </g>
     </g>
     <g id="text_3">
      <!-- 0.8 -->
      <g transform="translate(168.688438 322.182437) scale(0.1 -0.1)">
       <defs>
        <path id="DejaVuSans-38" d="M 2034 2216 
Q 1584 2216 1326 1975 
Q 1069 1734 1069 1313 
Q 1069 891 1326 650 
Q 1584 409 2034 409 
Q 2484 409 2743 651 
Q 3003 894 3003 1313 
Q 3003 1734 2745 1975 
Q 2488 2216 2034 2216 
z
M 1403 2484 
Q 997 2584 770 2862 
Q 544 3141 544 3541 
Q 544 4100 942 4425 
Q 1341 4750 2034 4750 
Q 2731 4750 3128 4425 
Q 3525 4100 3525 3541 
Q 3525 3141 3298 2862 
Q 3072 2584 2669 2484 
Q 3125 2378 3379 2068 
Q 3634 1759 3634 1313 
Q 3634 634 3220 271 
Q 2806 -91 2034 -91 
Q 1263 -91 848 271 
Q 434 634 434 1313 
Q 434 1759 690 2068 
Q 947 2378 1403 2484 
z
M 1172 3481 
Q 1172 3119 1398 2916 
Q 1625 2713 2034 2713 
Q 2441 2713 2670 2916 
Q 2900 3119 2900 3481 
Q 2900 3844 2670 4047 
Q 2441 4250 2034 4250 
Q 1625 4250 1398 4047 
Q 1172 3844 1172 3481 
z
" transform="scale(0.015625)"/>
       </defs>
       <use xlink:href="#DejaVuSans-30"/>
       <use xlink:href="#DejaVuSans-2e" transform="translate(63.623047 0)"/>
       <use xlink:href="#DejaVuSans-38" transform="translate(95.410156 0)"/>
      </g>
     </g>
    </g>
    <g id="xtick_4">
     <g id="line2d_4">
      <g>
       <use xlink:href="#m32fc418bb4" x="236.16" y="307.584" style="stroke: #000000; stroke-width: 0.8"/>
      </g>
     </g>
     <g id="text_4">
      <!-- 0.9 -->
      <g transform="translate(228.208438 322.182437) scale(0.1 -0.1)">
       <defs>
        <path id="DejaVuSans-39" d="M 703 97 
L 703 672 
Q 941 559 1184 500 
Q 1428 441 1663 441 
Q 2288 441 2617 861 
Q 2947 1281 2994 2138 
Q 2813 1869 2534 1725 
Q 2256 1581 1919 1581 
Q 1219 1581 811 2004 
Q 403 2428 403 3163 
Q 403 3881 828 4315 
Q 1253 4750 1959 4750 
Q 2769 4750 3195 4129 
Q 3622 3509 3622 2328 
Q 3622 1225 3098 567 
Q 2575 -91 1691 -91 
Q 1453 -91 1209 -44 
Q 966 3 703 97 
z
M 1959 2075 
Q 2384 2075 2632 2365 
Q 2881 2656 2881 3163 
Q 2881 3666 2632 3958 
Q 2384 4250 1959 4250 
Q 1534 4250 1286 3958 
Q 1038 3666 1038 3163 
Q 1038 2656 1286 2365 
Q 1534 2075 1959 2075 
z
" transform="scale(0.015625)"/>
       </defs>
       <use xlink:href="#DejaVuSans-30"/>
       <use xlink:href="#DejaVuSans-2e" transform="translate(63.623047 0)"/>
       <use xlink:href="#DejaVuSans-39" transform="translate(95.410156 0)"/>
      </g>
     </g>
    </g>
    <g id="xtick_5">
     <g id="line2d_5">
      <g>
       <use xlink:href="#m32fc418bb4" x="295.68" y="307.584" style="stroke: #000000; stroke-width: 0.8"/>
      </g>
     </g>
     <g id="text_5">
      <!-- 1.0 -->
      <g transform="translate(287.728438 322.182437) scale(0.1 -0.1)">
       <defs>
        <path id="DejaVuSans-31" d="M 794 531 
L 1825 531 
L 1825 4091 
L 703 3866 
L 703 4441 
L 1819 4666 
L 2450 4666 
L 2450 531 
L 3481 531 
L 3481 0 
L 794 0 
L 794 531 
z
" transform="scale(0.015625)"/>
       </defs>
       <use xlink:href="#DejaVuSans-31"/>
       <use xlink:href="#DejaVuSans-2e" transform="translate(63.623047 0)"/>
       <use xlink:href="#DejaVuSans-30" transform="translate(95.410156 0)"/>
      </g>
     </g>
    </g>
    <g id="xtick_6">
     <g id="line2d_6">
      <g>
       <use xlink:href="#m32fc418bb4" x="355.2" y="307.584" style="stroke: #000000; stroke-width: 0.8"/>
      </g>
     </g>
     <g id="text_6">
      <!-- 1.1 -->
      <g transform="translate(347.248438 322.182437) scale(0.1 -0.1)">
       <use xlink:href="#DejaVuSans-31"/>
       <use xlink:href="#DejaVuSans-2e" transform="translate(63.623047 0)"/>
       <use xlink:href="#DejaVuSans-31" transform="translate(95.410156 0)"/>
      </g>
     </g>
    </g>
    <g id="xtick_7">
     <g id="line2d_7">
      <g>
       <use xlink:href="#m32fc418bb4" x="414.72" y="307.584" style="stroke: #000000; stroke-width: 0.8"/>
      </g>
     </g>
     <g id="text_7">
      <!-- 1.2 -->
      <g transform="translate(406.768438 322.182437) scale(0.1 -0.1)">
       <defs>
        <path id="DejaVuSans-32" d="M 1228 531 
L 3431 531 
L 3431 0 
L 469 0 
L 469 531 
Q 828 903 1448 1529 
Q 2069 2156 2228 2338 
Q 2531 2678 2651 2914 
Q 2772 3150 2772 3378 
Q 2772 3750 2511 3984 
Q 2250 4219 1831 4219 
Q 1534 4219 1204 4116 
Q 875 4013 500 3803 
L 500 4441 
Q 881 4594 1212 4672 
Q 1544 4750 1819 4750 
Q 2544 4750 2975 4387 
Q 3406 4025 3406 3419 
Q 3406 3131 3298 2873 
Q 3191 2616 2906 2266 
Q 2828 2175 2409 1742 
Q 1991 1309 1228 531 
z
" transform="scale(0.015625)"/>
       </defs>
       <use xlink:href="#DejaVuSans-31"/>
       <use xlink:href="#DejaVuSans-2e" transform="translate(63.623047 0)"/>
       <use xlink:href="#DejaVuSans-32" transform="translate(95.410156 0)"/>
      </g>
     </g>
    </g>
    <g id="text_8">
     <!-- Energy (keV) -->
     <g transform="translate(203.952187 335.860562) scale(0.1 -0.1)">
      <defs>
       <path id="DejaVuSans-45" d="M 628 4666 
L 3578 4666 
L 3578 4134 
L 1259 4134 
L 1259 2753 
L 3481 2753 
L 3481 2222 
L 1259 2222 
L 1259 531 
L 3634 531 
L 3634 0 
L 628 0 
L 628 4666 
z
" transform="scale(0.015625)"/>
       <path id="DejaVuSans-6e" d="M 3513 2113 
L 3513 0 
L 2938 0 
L 2938 2094 
Q 2938 2591 2744 2837 
Q 2550 3084 2163 3084 
Q 1697 3084 1428 2787 
Q 1159 2491 1159 1978 
L 1159 0 
L 581 0 
L 581 3500 
L 1159 3500 
L 1159 2956 
Q 1366 3272 1645 3428 
Q 1925 3584 2291 3584 
Q 2894 3584 3203 3211 
Q 3513 2838 3513 2113 
z
" transform="scale(0.015625)"/>
       <path id="DejaVuSans-65" d="M 3597 1894 
L 3597 1613 
L 953 1613 
Q 991 1019 1311 708 
Q 1631 397 2203 397 
Q 2534 397 2845 478 
Q 3156 559 3463 722 
L 3463 178 
Q 3153 47 2828 -22 
Q 2503 -91 2169 -91 
Q 1331 -91 842 396 
Q 353 884 353 1716 
Q 353 2575 817 3079 
Q 1281 3584 2069 3584 
Q 2775 3584 3186 3129 
Q 3597 2675 3597 1894 
z
M 3022 2063 
Q 3016 2534 2758 2815 
Q 2500 3097 2075 3097 
Q 1594 3097 1305 2825 
Q 1016 2553 972 2059 
L 3022 2063 
z
" transform="scale(0.015625)"/>
       <path id="DejaVuSans-72" d="M 2631 2963 
Q 2534 3019 2420 3045 
Q 2306 3072 2169 3072 
Q 1681 3072 1420 2755 
Q 1159 2438 1159 1844 
L 1159 0 
L 581 0 
L 581 3500 
L 1159 3500 
L 1159 2956 
Q 1341 3275 1631 3429 
Q 1922 3584 2338 3584 
Q 2397 3584 2469 3576 
Q 2541 3569 2628 3553 
L 2631 2963 
z
" transform="scale(0.015625)"/>
       <path id="DejaVuSans-67" d="M 2906 1791 
Q 2906 2416 2648 2759 
Q 2391 3103 1925 3103 
Q 1463 3103 1205 2759 
Q 947 2416 947 1791 
Q 947 1169 1205 825 
Q 1463 481 1925 481 
Q 2391 481 2648 825 
Q 2906 1169 2906 1791 
z
M 3481 434 
Q 3481 -459 3084 -895 
Q 2688 -1331 1869 -1331 
Q 1566 -1331 1297 -1286 
Q 1028 -1241 775 -1147 
L 775 -588 
Q 1028 -725 1275 -790 
Q 1522 -856 1778 -856 
Q 2344 -856 2625 -561 
Q 2906 -266 2906 331 
L 2906 616 
Q 2728 306 2450 153 
Q 2172 0 1784 0 
Q 1141 0 747 490 
Q 353 981 353 1791 
Q 353 2603 747 3093 
Q 1141 3584 1784 3584 
Q 2172 3584 2450 3431 
Q 2728 3278 2906 2969 
L 2906 3500 
L 3481 3500 
L 3481 434 
z
" transform="scale(0.015625)"/>
       <path id="DejaVuSans-79" d="M 2059 -325 
Q 1816 -950 1584 -1140 
Q 1353 -1331 966 -1331 
L 506 -1331 
L 506 -850 
L 844 -850 
Q 1081 -850 1212 -737 
Q 1344 -625 1503 -206 
L 1606 56 
L 191 3500 
L 800 3500 
L 1894 763 
L 2988 3500 
L 3597 3500 
L 2059 -325 
z
" transform="scale(0.015625)"/>
       <path id="DejaVuSans-20" transform="scale(0.015625)"/>
       <path id="DejaVuSans-28" d="M 1984 4856 
Q 1566 4138 1362 3434 
Q 1159 2731 1159 2009 
Q 1159 1288 1364 580 
Q 1569 -128 1984 -844 
L 1484 -844 
Q 1016 -109 783 600 
Q 550 1309 550 2009 
Q 550 2706 781 3412 
Q 1013 4119 1484 4856 
L 1984 4856 
z
" transform="scale(0.015625)"/>
       <path id="DejaVuSans-6b" d="M 581 4863 
L 1159 4863 
L 1159 1991 
L 2875 3500 
L 3609 3500 
L 1753 1863 
L 3688 0 
L 2938 0 
L 1159 1709 
L 1159 0 
L 581 0 
L 581 4863 
z
" transform="scale(0.015625)"/>
       <path id="DejaVuSans-56" d="M 1831 0 
L 50 4666 
L 709 4666 
L 2188 738 
L 3669 4666 
L 4325 4666 
L 2547 0 
L 1831 0 
z
" transform="scale(0.015625)"/>
       <path id="DejaVuSans-29" d="M 513 4856 
L 1013 4856 
Q 1481 4119 1714 3412 
Q 1947 2706 1947 2009 
Q 1947 1309 1714 600 
Q 1481 -109 1013 -844 
L 513 -844 
Q 928 -128 1133 580 
Q 1338 1288 1338 2009 
Q 1338 2731 1133 3434 
Q 928 4138 513 4856 
z
" transform="scale(0.015625)"/>
      </defs>
      <use xlink:href="#DejaVuSans-45"/>
      <use xlink:href="#DejaVuSans-6e" transform="translate(63.183594 0)"/>
      <use xlink:href="#DejaVuSans-65" transform="translate(126.5625 0)"/>
      <use xlink:href="#DejaVuSans-72" transform="translate(188.085938 0)"/>
      <use xlink:href="#DejaVuSans-67" transform="translate(227.449219 0)"/>
      <use xlink:href="#DejaVuSans-79" transform="translate(290.925781 0)"/>
      <use xlink:href="#DejaVuSans-20" transform="translate(350.105469 0)"/>
      <use xlink:href="#DejaVuSans-28" transform="translate(381.892578 0)"/>
      <use xlink:href="#DejaVuSans-6b" transform="translate(420.90625 0)"/>
      <use xlink:href="#DejaVuSans-65" transform="translate(475.191406 0)"/>
      <use xlink:href="#DejaVuSans-56" transform="translate(536.714844 0)"/>
      <use xlink:href="#DejaVuSans-29" transform="translate(605.123047 0)"/>
     </g>
    </g>
   </g>
   <g id="matplotlib.axis_2">
    <g id="ytick_1">
     <g id="line2d_8">
      <defs>
       <path id="mff71c0ebe8" d="M 0 0 
L -3.5 0 
" style="stroke: #000000; stroke-width: 0.8"/>
      </defs>
      <g>
       <use xlink:href="#mff71c0ebe8" x="57.6" y="295.488" style="stroke: #000000; stroke-width: 0.8"/>
      </g>
     </g>
     <g id="text_9">
      <!-- 0 -->
      <g transform="translate(44.2375 299.287219) scale(0.1 -0.1)">
       <use xlink:href="#DejaVuSans-30"/>
      </g>
     </g>
    </g>
    <g id="ytick_2">
     <g id="line2d_9">
      <g>
       <use xlink:href="#mff71c0ebe8" x="57.6" y="240.941577" style="stroke: #000000; stroke-width: 0.8"/>
      </g>
     </g>
     <g id="text_10">
      <!-- 2 -->
      <g transform="translate(44.2375 244.740795) scale(0.1 -0.1)">
       <use xlink:href="#DejaVuSans-32"/>
      </g>
     </g>
    </g>
    <g id="ytick_3">
     <g id="line2d_10">
      <g>
       <use xlink:href="#mff71c0ebe8" x="57.6" y="186.395153" style="stroke: #000000; stroke-width: 0.8"/>
      </g>
     </g>
     <g id="text_11">
      <!-- 4 -->
      <g transform="translate(44.2375 190.194372) scale(0.1 -0.1)">
       <defs>
        <path id="DejaVuSans-34" d="M 2419 4116 
L 825 1625 
L 2419 1625 
L 2419 4116 
z
M 2253 4666 
L 3047 4666 
L 3047 1625 
L 3713 1625 
L 3713 1100 
L 3047 1100 
L 3047 0 
L 2419 0 
L 2419 1100 
L 313 1100 
L 313 1709 
L 2253 4666 
z
" transform="scale(0.015625)"/>
       </defs>
       <use xlink:href="#DejaVuSans-34"/>
      </g>
     </g>
    </g>
    <g id="ytick_4">
     <g id="line2d_11">
      <g>
       <use xlink:href="#mff71c0ebe8" x="57.6" y="131.84873" style="stroke: #000000; stroke-width: 0.8"/>
      </g>
     </g>
     <g id="text_12">
      <!-- 6 -->
      <g transform="translate(44.2375 135.647949) scale(0.1 -0.1)">
       <use xlink:href="#DejaVuSans-36"/>
      </g>
     </g>
    </g>
    <g id="ytick_5">
     <g id="line2d_12">
      <g>
       <use xlink:href="#mff71c0ebe8" x="57.6" y="77.302307" style="stroke: #000000; stroke-width: 0.8"/>
      </g>
     </g>
     <g id="text_13">
      <!-- 8 -->
      <g transform="translate(44.2375 81.101525) scale(0.1 -0.1)">
       <use xlink:href="#DejaVuSans-38"/>
      </g>
     </g>
    </g>
    <g id="text_14">
     <!-- Intensity (ph cm$^5$ s$^{-1}$ bin$^{-1}$) -->
     <g transform="translate(38.1375 243.978) rotate(-90) scale(0.1 -0.1)">
      <defs>
       <path id="DejaVuSans-49" d="M 628 4666 
L 1259 4666 
L 1259 0 
L 628 0 
L 628 4666 
z
" transform="scale(0.015625)"/>
       <path id="DejaVuSans-74" d="M 1172 4494 
L 1172 3500 
L 2356 3500 
L 2356 3053 
L 1172 3053 
L 1172 1153 
Q 1172 725 1289 603 
Q 1406 481 1766 481 
L 2356 481 
L 2356 0 
L 1766 0 
Q 1100 0 847 248 
Q 594 497 594 1153 
L 594 3053 
L 172 3053 
L 172 3500 
L 594 3500 
L 594 4494 
L 1172 4494 
z
" transform="scale(0.015625)"/>
       <path id="DejaVuSans-73" d="M 2834 3397 
L 2834 2853 
Q 2591 2978 2328 3040 
Q 2066 3103 1784 3103 
Q 1356 3103 1142 2972 
Q 928 2841 928 2578 
Q 928 2378 1081 2264 
Q 1234 2150 1697 2047 
L 1894 2003 
Q 2506 1872 2764 1633 
Q 3022 1394 3022 966 
Q 3022 478 2636 193 
Q 2250 -91 1575 -91 
Q 1294 -91 989 -36 
Q 684 19 347 128 
L 347 722 
Q 666 556 975 473 
Q 1284 391 1588 391 
Q 1994 391 2212 530 
Q 2431 669 2431 922 
Q 2431 1156 2273 1281 
Q 2116 1406 1581 1522 
L 1381 1569 
Q 847 1681 609 1914 
Q 372 2147 372 2553 
Q 372 3047 722 3315 
Q 1072 3584 1716 3584 
Q 2034 3584 2315 3537 
Q 2597 3491 2834 3397 
z
" transform="scale(0.015625)"/>
       <path id="DejaVuSans-69" d="M 603 3500 
L 1178 3500 
L 1178 0 
L 603 0 
L 603 3500 
z
M 603 4863 
L 1178 4863 
L 1178 4134 
L 603 4134 
L 603 4863 
z
" transform="scale(0.015625)"/>
       <path id="DejaVuSans-70" d="M 1159 525 
L 1159 -1331 
L 581 -1331 
L 581 3500 
L 1159 3500 
L 1159 2969 
Q 1341 3281 1617 3432 
Q 1894 3584 2278 3584 
Q 2916 3584 3314 3078 
Q 3713 2572 3713 1747 
Q 3713 922 3314 415 
Q 2916 -91 2278 -91 
Q 1894 -91 1617 61 
Q 1341 213 1159 525 
z
M 3116 1747 
Q 3116 2381 2855 2742 
Q 2594 3103 2138 3103 
Q 1681 3103 1420 2742 
Q 1159 2381 1159 1747 
Q 1159 1113 1420 752 
Q 1681 391 2138 391 
Q 2594 391 2855 752 
Q 3116 1113 3116 1747 
z
" transform="scale(0.015625)"/>
       <path id="DejaVuSans-68" d="M 3513 2113 
L 3513 0 
L 2938 0 
L 2938 2094 
Q 2938 2591 2744 2837 
Q 2550 3084 2163 3084 
Q 1697 3084 1428 2787 
Q 1159 2491 1159 1978 
L 1159 0 
L 581 0 
L 581 4863 
L 1159 4863 
L 1159 2956 
Q 1366 3272 1645 3428 
Q 1925 3584 2291 3584 
Q 2894 3584 3203 3211 
Q 3513 2838 3513 2113 
z
" transform="scale(0.015625)"/>
       <path id="DejaVuSans-63" d="M 3122 3366 
L 3122 2828 
Q 2878 2963 2633 3030 
Q 2388 3097 2138 3097 
Q 1578 3097 1268 2742 
Q 959 2388 959 1747 
Q 959 1106 1268 751 
Q 1578 397 2138 397 
Q 2388 397 2633 464 
Q 2878 531 3122 666 
L 3122 134 
Q 2881 22 2623 -34 
Q 2366 -91 2075 -91 
Q 1284 -91 818 406 
Q 353 903 353 1747 
Q 353 2603 823 3093 
Q 1294 3584 2113 3584 
Q 2378 3584 2631 3529 
Q 2884 3475 3122 3366 
z
" transform="scale(0.015625)"/>
       <path id="DejaVuSans-6d" d="M 3328 2828 
Q 3544 3216 3844 3400 
Q 4144 3584 4550 3584 
Q 5097 3584 5394 3201 
Q 5691 2819 5691 2113 
L 5691 0 
L 5113 0 
L 5113 2094 
Q 5113 2597 4934 2840 
Q 4756 3084 4391 3084 
Q 3944 3084 3684 2787 
Q 3425 2491 3425 1978 
L 3425 0 
L 2847 0 
L 2847 2094 
Q 2847 2600 2669 2842 
Q 2491 3084 2119 3084 
Q 1678 3084 1418 2786 
Q 1159 2488 1159 1978 
L 1159 0 
L 581 0 
L 581 3500 
L 1159 3500 
L 1159 2956 
Q 1356 3278 1631 3431 
Q 1906 3584 2284 3584 
Q 2666 3584 2933 3390 
Q 3200 3197 3328 2828 
z
" transform="scale(0.015625)"/>
       <path id="DejaVuSans-35" d="M 691 4666 
L 3169 4666 
L 3169 4134 
L 1269 4134 
L 1269 2991 
Q 1406 3038 1543 3061 
Q 1681 3084 1819 3084 
Q 2600 3084 3056 2656 
Q 3513 2228 3513 1497 
Q 3513 744 3044 326 
Q 2575 -91 1722 -91 
Q 1428 -91 1123 -41 
Q 819 9 494 109 
L 494 744 
Q 775 591 1075 516 
Q 1375 441 1709 441 
Q 2250 441 2565 725 
Q 2881 1009 2881 1497 
Q 2881 1984 2565 2268 
Q 2250 2553 1709 2553 
Q 1456 2553 1204 2497 
Q 953 2441 691 2322 
L 691 4666 
z
" transform="scale(0.015625)"/>
       <path id="DejaVuSans-2212" d="M 678 2272 
L 4684 2272 
L 4684 1741 
L 678 1741 
L 678 2272 
z
" transform="scale(0.015625)"/>
       <path id="DejaVuSans-62" d="M 3116 1747 
Q 3116 2381 2855 2742 
Q 2594 3103 2138 3103 
Q 1681 3103 1420 2742 
Q 1159 2381 1159 1747 
Q 1159 1113 1420 752 
Q 1681 391 2138 391 
Q 2594 391 2855 752 
Q 3116 1113 3116 1747 
z
M 1159 2969 
Q 1341 3281 1617 3432 
Q 1894 3584 2278 3584 
Q 2916 3584 3314 3078 
Q 3713 2572 3713 1747 
Q 3713 922 3314 415 
Q 2916 -91 2278 -91 
Q 1894 -91 1617 61 
Q 1341 213 1159 525 
L 1159 0 
L 581 0 
L 581 4863 
L 1159 4863 
L 1159 2969 
z
" transform="scale(0.015625)"/>
      </defs>
      <use xlink:href="#DejaVuSans-49" transform="translate(0 0.684375)"/>
      <use xlink:href="#DejaVuSans-6e" transform="translate(29.492188 0.684375)"/>
      <use xlink:href="#DejaVuSans-74" transform="translate(92.871094 0.684375)"/>
      <use xlink:href="#DejaVuSans-65" transform="translate(132.080078 0.684375)"/>
      <use xlink:href="#DejaVuSans-6e" transform="translate(193.603516 0.684375)"/>
      <use xlink:href="#DejaVuSans-73" transform="translate(256.982422 0.684375)"/>
      <use xlink:href="#DejaVuSans-69" transform="translate(309.082031 0.684375)"/>
      <use xlink:href="#DejaVuSans-74" transform="translate(336.865234 0.684375)"/>
      <use xlink:href="#DejaVuSans-79" transform="translate(376.074219 0.684375)"/>
      <use xlink:href="#DejaVuSans-20" transform="translate(435.253906 0.684375)"/>
      <use xlink:href="#DejaVuSans-28" transform="translate(467.041016 0.684375)"/>
      <use xlink:href="#DejaVuSans-70" transform="translate(506.054688 0.684375)"/>
      <use xlink:href="#DejaVuSans-68" transform="translate(569.53125 0.684375)"/>
      <use xlink:href="#DejaVuSans-20" transform="translate(632.910156 0.684375)"/>
      <use xlink:href="#DejaVuSans-63" transform="translate(664.697266 0.684375)"/>
      <use xlink:href="#DejaVuSans-6d" transform="translate(719.677734 0.684375)"/>
      <use xlink:href="#DejaVuSans-35" transform="translate(818.046875 38.965625) scale(0.7)"/>
      <use xlink:href="#DejaVuSans-20" transform="translate(865.317383 0.684375)"/>
      <use xlink:href="#DejaVuSans-73" transform="translate(897.104492 0.684375)"/>
      <use xlink:href="#DejaVuSans-2212" transform="translate(950.161133 38.965625) scale(0.7)"/>
      <use xlink:href="#DejaVuSans-31" transform="translate(1008.813477 38.965625) scale(0.7)"/>
      <use xlink:href="#DejaVuSans-20" transform="translate(1056.083984 0.684375)"/>
      <use xlink:href="#DejaVuSans-62" transform="translate(1087.871094 0.684375)"/>
      <use xlink:href="#DejaVuSans-69" transform="translate(1151.347656 0.684375)"/>
      <use xlink:href="#DejaVuSans-6e" transform="translate(1179.130859 0.684375)"/>
      <use xlink:href="#DejaVuSans-2212" transform="translate(1243.466797 38.965625) scale(0.7)"/>
      <use xlink:href="#DejaVuSans-31" transform="translate(1302.119141 38.965625) scale(0.7)"/>
      <use xlink:href="#DejaVuSans-29" transform="translate(1349.389648 0.684375)"/>
     </g>
    </g>
    <g id="text_15">
     <!-- 1e−16 -->
     <g transform="translate(57.6 38.472) scale(0.1 -0.1)">
      <use xlink:href="#DejaVuSans-31"/>
      <use xlink:href="#DejaVuSans-65" transform="translate(63.623047 0)"/>
      <use xlink:href="#DejaVuSans-2212" transform="translate(125.146484 0)"/>
      <use xlink:href="#DejaVuSans-31" transform="translate(208.935547 0)"/>
      <use xlink:href="#DejaVuSans-36" transform="translate(272.558594 0)"/>
     </g>
    </g>
   </g>
   <g id="line2d_13">
    <path d="M 57.583269 295.48785 
L 57.66969 295.487839 
L 89.081315 295.417537 
L 89.183629 294.998918 
L 89.28605 294.998918 
L 89.388507 293.517976 
L 89.490999 293.517976 
L 89.490999 293.205361 
L 89.593562 293.684063 
L 89.696161 293.684063 
L 89.79883 295.07326 
L 89.901571 295.07326 
L 90.004347 295.405247 
L 160.981627 295.38658 
L 160.981627 295.21774 
L 161.125379 295.21774 
L 161.125379 294.628156 
L 161.269166 294.628156 
L 161.269166 293.567676 
L 161.413095 293.567676 
L 161.413095 292.800898 
L 161.557095 292.800898 
L 161.557095 293.160713 
L 161.701165 293.160713 
L 161.701165 294.221349 
L 161.845343 294.221349 
L 161.845343 294.992832 
L 161.989626 294.992832 
L 161.989626 295.268347 
L 162.133981 295.268347 
L 162.133981 295.389376 
L 186.29559 295.373548 
L 186.29559 295.119661 
L 186.455554 295.119661 
L 186.455554 294.638239 
L 186.615625 294.638239 
L 186.615625 294.281095 
L 186.775802 294.281095 
L 186.775802 294.450192 
L 186.936086 294.450192 
L 186.936086 294.937635 
L 187.096476 294.937635 
L 187.096476 295.275687 
L 187.256973 295.275687 
L 187.256973 295.390301 
L 197.921087 295.40529 
L 197.921087 295.227476 
L 198.08882 295.227476 
L 198.08882 294.884837 
L 198.256661 294.884837 
L 198.256661 294.62824 
L 198.424572 294.62824 
L 198.424572 294.749023 
L 198.592625 294.749023 
L 198.592625 295.096294 
L 198.76082 295.096294 
L 198.76082 295.333533 
L 199.097493 295.413247 
L 199.097493 295.449796 
L 204.374757 295.40199 
L 204.374757 295.233454 
L 204.546854 295.233454 
L 204.546854 294.905232 
L 204.719058 294.905232 
L 204.719058 294.65817 
L 204.891404 294.65817 
L 204.891404 294.774698 
L 205.063856 294.774698 
L 205.063856 295.108551 
L 205.236414 295.108551 
L 205.236414 295.334894 
L 205.581886 295.410979 
L 205.581886 295.446202 
L 208.188216 295.431513 
L 208.188216 295.333598 
L 208.362904 295.333598 
L 208.362904 295.141901 
L 208.537733 295.141901 
L 208.537733 294.997135 
L 208.887781 295.065316 
L 208.887781 295.260389 
L 209.062965 295.260389 
L 209.062965 295.391768 
L 210.821544 295.356394 
L 210.821544 295.200441 
L 210.998076 295.200441 
L 210.998076 295.082341 
L 211.351495 295.137746 
L 211.351495 295.296382 
L 211.70541 295.402696 
L 211.70541 295.437161 
L 212.592328 295.337716 
L 212.592328 295.281381 
L 213.125968 295.383338 
L 213.125968 295.432229 
L 223.295359 295.321724 
L 223.295359 295.319895 
L 238.543345 295.216301 
L 238.543345 295.141542 
L 238.739566 295.141542 
L 238.739566 294.847684 
L 238.93593 294.847684 
L 238.93593 294.238627 
L 239.132471 294.238627 
L 239.132471 293.763427 
L 239.329118 293.763427 
L 239.329118 293.984555 
L 239.525943 293.984555 
L 239.525943 294.614484 
L 239.722874 294.614484 
L 239.722874 295.022843 
L 239.919982 295.022843 
L 239.919982 295.158471 
L 244.69376 295.129949 
L 244.69376 294.947619 
L 244.894523 294.947619 
L 244.894523 294.805073 
L 245.296438 294.869972 
L 245.296438 295.055547 
L 245.497627 295.055547 
L 245.497627 295.174438 
L 248.533366 295.12543 
L 248.533366 295.041742 
L 248.736967 295.041742 
L 248.736967 294.719294 
L 248.94071 294.719294 
L 248.94071 294.033046 
L 249.144594 294.033046 
L 249.144594 293.491057 
L 249.348621 293.491057 
L 249.348621 293.752987 
L 249.552824 293.752987 
L 249.552824 294.485834 
L 249.75717 294.485834 
L 249.75717 294.955344 
L 249.961658 294.955344 
L 249.961658 295.11115 
L 250.576078 295.212993 
L 250.576078 295.222773 
L 287.322048 295.112175 
L 287.322048 295.110698 
L 297.288655 295.051937 
L 297.288655 294.992848 
L 297.530038 294.992848 
L 297.530038 294.86355 
L 298.4977 294.938639 
L 298.4977 295.023684 
L 300.442532 294.92228 
L 300.442532 294.891802 
L 300.930691 294.946467 
L 300.930691 295.019518 
L 305.856416 294.942949 
L 305.856416 294.865556 
L 306.104824 294.865556 
L 306.104824 294.736845 
L 306.353444 294.736845 
L 306.353444 294.621268 
L 307.100512 294.563732 
L 307.100512 294.42187 
L 307.349984 294.42187 
L 307.349984 293.968696 
L 307.599598 293.968696 
L 307.599598 292.815986 
L 307.849425 292.815986 
L 307.849425 289.095432 
L 308.099465 289.095432 
L 308.099465 278.758745 
L 308.349717 278.758745 
L 308.349717 263.415747 
L 308.600183 263.415747 
L 308.600183 256.428395 
L 308.850861 256.428395 
L 308.850861 266.072096 
L 309.101752 266.072096 
L 309.101752 281.100899 
L 309.352856 281.100899 
L 309.352856 289.484619 
L 309.604102 289.484619 
L 309.604102 292.523394 
L 309.855632 292.523394 
L 309.855632 293.89439 
L 310.107303 293.89439 
L 310.107303 294.366405 
L 310.359259 294.366405 
L 310.359259 294.588822 
L 310.611356 294.588822 
L 310.611356 294.737495 
L 311.116189 294.821758 
L 311.116189 294.870236 
L 312.382068 294.977652 
L 312.382068 294.988875 
L 338.572376 294.884209 
L 338.572376 294.86798 
L 339.124606 294.830613 
L 339.124606 294.675938 
L 339.401111 294.675938 
L 339.401111 294.316888 
L 339.677829 294.316888 
L 339.677829 294.016918 
L 339.95476 294.016918 
L 339.95476 294.150351 
L 340.231975 294.150351 
L 340.231975 294.530152 
L 340.509403 294.530152 
L 340.509403 294.756091 
L 341.343105 294.863207 
L 341.343105 294.875108 
L 370.433561 294.819169 
L 370.433561 294.759128 
L 370.737809 294.759128 
L 370.737809 294.599926 
L 371.042341 294.599926 
L 371.042341 294.458671 
L 371.652256 294.509881 
L 371.652256 294.667634 
L 385.673919 294.59685 
L 385.673919 294.473112 
L 386.948738 294.543224 
L 386.948738 294.616329 
L 393.394426 294.579062 
L 393.394426 294.48666 
L 395.024792 294.591973 
L 395.024792 294.607165 
L 405.307 294.717208 
L 405.307 294.738197 
L 413.478912 294.627359 
L 413.478912 294.621106 
L 414.859381 294.580311 
L 414.859381 294.580311 
" clip-path="url(#p1fec3e4026)" style="fill: none; stroke: #1f77b4; stroke-width: 1.5; stroke-linecap: square"/>
   </g>
   <g id="line2d_14">
    <path d="M 57.583269 256.42785 
L 57.66969 256.427809 
L 88.672481 256.339023 
L 88.774583 256.238987 
L 88.979 256.130074 
L 89.081315 255.178792 
L 89.183629 255.178792 
L 89.28605 247.978642 
L 89.388507 247.978642 
L 89.490999 239.930968 
L 89.593562 239.930968 
L 89.696161 249.276075 
L 89.79883 249.276075 
L 89.901571 255.105464 
L 90.004347 255.105464 
L 90.107194 256.141456 
L 90.210076 256.141456 
L 90.312994 256.316864 
L 95.847747 256.230919 
L 95.95368 256.030212 
L 96.059685 256.030212 
L 96.165725 255.06339 
L 96.271835 255.06339 
L 96.378017 244.176505 
L 96.484234 244.176505 
L 96.590522 221.948856 
L 96.696846 221.948856 
L 96.803241 239.012607 
L 96.909706 239.012607 
L 97.016207 253.412843 
L 97.122779 253.412843 
L 97.229387 255.843233 
L 97.336065 255.843233 
L 97.442814 256.216696 
L 97.763382 256.312602 
L 97.870344 256.354961 
L 115.177325 256.298724 
L 115.177325 256.175519 
L 115.293866 256.175519 
L 115.293866 255.904414 
L 115.410478 255.904414 
L 115.410478 254.882964 
L 115.527161 254.882964 
L 115.527161 251.632109 
L 115.643914 251.632109 
L 115.643914 246.17528 
L 115.760739 246.17528 
L 115.760739 242.369148 
L 115.877635 242.369148 
L 115.877635 244.149404 
L 115.994566 244.149404 
L 115.994566 249.519663 
L 116.111568 249.519663 
L 116.111568 253.667278 
L 116.228677 253.667278 
L 116.228677 255.248823 
L 116.345821 255.248823 
L 116.345821 255.902926 
L 116.463 255.902926 
L 116.463 256.197194 
L 116.697643 256.299121 
L 116.697643 256.342587 
L 124.104501 256.262414 
L 124.104501 256.08558 
L 124.226115 256.08558 
L 124.226115 255.428349 
L 124.347835 255.428349 
L 124.347835 253.289489 
L 124.469591 253.289489 
L 124.469591 249.642856 
L 124.591418 249.642856 
L 124.591418 247.078906 
L 124.713316 247.078906 
L 124.713316 248.280668 
L 124.83532 248.280668 
L 124.83532 251.882632 
L 124.95736 251.882632 
L 124.95736 254.624693 
L 125.079471 254.624693 
L 125.079471 255.651171 
L 125.201653 255.651171 
L 125.201653 256.081687 
L 125.323905 256.081687 
L 125.323905 256.272816 
L 125.813661 256.382189 
L 125.813661 256.391107 
L 128.900239 256.314957 
L 128.900239 256.199243 
L 129.024656 256.199243 
L 129.024656 255.77244 
L 129.149108 255.77244 
L 129.149108 254.365878 
L 129.273666 254.365878 
L 129.273666 251.947396 
L 129.398261 251.947396 
L 129.398261 250.239465 
L 129.522961 250.239465 
L 129.522961 251.039879 
L 129.647697 251.039879 
L 129.647697 253.432682 
L 129.77254 253.432682 
L 129.77254 255.240983 
L 129.897453 255.240983 
L 129.897453 255.911736 
L 130.022402 255.911736 
L 130.022402 256.194749 
L 130.147457 256.194749 
L 130.147457 256.318926 
L 131.905824 256.260311 
L 131.905824 255.977577 
L 132.031979 255.977577 
L 132.031979 255.04281 
L 132.158205 255.04281 
L 132.158205 253.419521 
L 132.284502 253.419521 
L 132.284502 252.23471 
L 132.41087 252.23471 
L 132.41087 252.578906 
L 132.537309 252.578906 
L 132.537309 253.545407 
L 132.663818 253.545407 
L 132.663818 253.66831 
L 132.790399 253.66831 
L 132.790399 253.349894 
L 132.917086 253.349894 
L 132.917086 253.890842 
L 133.043809 253.890842 
L 133.043809 255.031685 
L 133.170638 255.031685 
L 133.170638 255.855092 
L 133.297538 255.855092 
L 133.297538 256.155377 
L 133.424474 256.155377 
L 133.424474 256.270556 
L 133.805813 256.182278 
L 133.805813 255.752836 
L 133.933068 255.752836 
L 133.933068 254.996986 
L 134.060429 254.996986 
L 134.060429 254.459794 
L 134.187826 254.459794 
L 134.187826 254.712951 
L 134.315329 254.712951 
L 134.315329 255.464596 
L 134.442868 255.464596 
L 134.442868 256.02097 
L 134.570513 256.02097 
L 134.570513 256.204696 
L 134.826016 256.198999 
L 134.826016 255.91989 
L 134.953874 255.91989 
L 134.953874 255.381003 
L 135.081803 255.381003 
L 135.081803 254.994793 
L 135.209838 254.994793 
L 135.209838 255.182134 
L 135.337909 255.182134 
L 135.337909 255.732543 
L 135.466086 255.732543 
L 135.466086 256.145028 
L 135.594299 256.145028 
L 135.594299 256.297081 
L 137.268337 256.313418 
L 137.268337 256.100059 
L 137.397614 256.100059 
L 137.397614 255.726323 
L 137.526998 255.726323 
L 137.526998 255.450501 
L 137.786013 255.521537 
L 137.786013 255.716195 
L 138.045312 255.690032 
L 138.045312 255.543234 
L 138.825054 255.59193 
L 138.825054 255.725519 
L 139.215936 255.653206 
L 139.215936 255.59439 
L 140.524068 255.64795 
L 140.524068 255.775658 
L 140.655296 255.775658 
L 140.655296 255.973197 
L 140.786596 255.973197 
L 140.786596 256.170733 
L 140.918001 256.170733 
L 140.918001 256.303701 
L 147.318563 256.414742 
L 147.318563 256.415061 
L 160.550976 256.310854 
L 160.550976 256.255962 
L 160.694444 256.255962 
L 160.694444 256.129696 
L 160.837982 256.129696 
L 160.837982 255.843178 
L 160.981627 255.843178 
L 160.981627 254.855489 
L 161.125379 254.855489 
L 161.125379 251.407503 
L 161.269166 251.407503 
L 161.269166 245.207227 
L 161.413095 245.207227 
L 161.413095 240.72523 
L 161.557095 240.72523 
L 161.557095 242.830518 
L 161.701165 242.830518 
L 161.701165 249.033741 
L 161.845343 249.033741 
L 161.845343 253.547074 
L 161.989626 253.547074 
L 161.989626 255.159988 
L 162.133981 255.159988 
L 162.133981 255.867986 
L 162.278407 255.867986 
L 162.278407 256.161215 
L 162.567577 256.2654 
L 162.567577 256.314091 
L 185.97598 256.281161 
L 185.97598 256.141966 
L 186.135732 256.141966 
L 186.135732 255.688671 
L 186.29559 255.688671 
L 186.29559 253.98539 
L 186.455554 253.98539 
L 186.455554 250.755705 
L 186.615625 250.755705 
L 186.615625 248.359395 
L 186.775802 248.359395 
L 186.775802 249.492816 
L 186.936086 249.492816 
L 186.936086 252.761766 
L 187.096476 252.761766 
L 187.096476 255.028945 
L 187.256973 255.028945 
L 187.256973 255.797444 
L 187.417576 255.797444 
L 187.417576 256.149514 
L 187.578249 256.149514 
L 187.578249 256.292502 
L 190.814787 256.4035 
L 190.814787 256.403972 
L 197.586009 256.320098 
L 197.586009 256.222093 
L 197.753495 256.222093 
L 197.753495 255.913021 
L 197.921087 255.913021 
L 197.921087 254.735273 
L 198.08882 254.735273 
L 198.08882 252.464449 
L 198.256661 252.464449 
L 198.256661 250.764148 
L 198.424572 250.764148 
L 198.424572 251.566426 
L 198.592625 251.566426 
L 198.592625 253.87063 
L 198.76082 253.87063 
L 198.76082 255.445163 
L 198.929086 255.445163 
L 198.929086 255.97519 
L 199.097493 255.97519 
L 199.097493 256.21907 
L 199.434628 256.315524 
L 199.434628 256.34989 
L 204.030917 256.305123 
L 204.030917 256.212783 
L 204.202766 256.212783 
L 204.202766 255.924077 
L 204.374757 255.924077 
L 204.374757 254.812072 
L 204.546854 254.812072 
L 204.546854 252.646145 
L 204.719058 252.646145 
L 204.719058 251.015824 
L 204.891404 251.015824 
L 204.891404 251.785105 
L 205.063856 251.785105 
L 205.063856 253.988537 
L 205.236414 253.988537 
L 205.236414 255.482208 
L 205.409079 255.482208 
L 205.409079 255.984123 
L 205.581886 255.984123 
L 205.581886 256.21641 
L 205.927855 256.307486 
L 205.927855 256.33988 
L 208.0136 256.28463 
L 208.0136 256.117876 
L 208.188216 256.117876 
L 208.188216 255.472881 
L 208.362904 255.472881 
L 208.362904 254.209271 
L 208.537733 254.209271 
L 208.537733 253.254852 
L 208.712704 253.254852 
L 208.712704 253.704257 
L 208.887781 253.704257 
L 208.887781 254.990511 
L 209.062965 254.990511 
L 209.062965 255.857463 
L 209.238255 255.857463 
L 209.238255 256.146993 
L 209.413723 256.146993 
L 209.413723 256.27999 
L 210.468871 256.288908 
L 210.468871 256.155883 
L 210.645154 256.155883 
L 210.645154 255.633858 
L 210.821544 255.633858 
L 210.821544 254.605576 
L 210.998076 254.605576 
L 210.998076 253.826649 
L 211.174715 253.826649 
L 211.174715 254.191876 
L 211.351495 254.191876 
L 211.351495 255.23768 
L 211.528382 255.23768 
L 211.528382 255.937538 
L 211.70541 255.937538 
L 211.70541 256.160852 
L 212.237206 256.18505 
L 212.237206 255.823351 
L 212.414696 255.823351 
L 212.414696 255.086945 
L 212.592328 255.086945 
L 212.592328 254.526138 
L 212.770101 254.526138 
L 212.770101 254.789198 
L 212.947981 254.789198 
L 212.947981 255.538 
L 213.125968 255.538 
L 213.125968 256.023745 
L 213.660708 255.9261 
L 213.660708 255.40944 
L 213.839227 255.40944 
L 213.839227 255.004047 
L 214.017852 255.004047 
L 214.017852 255.200596 
L 214.196583 255.200596 
L 214.196583 255.752206 
L 214.375457 255.752206 
L 214.375457 256.09978 
L 214.733558 256.117873 
L 214.733558 255.961361 
L 214.912822 255.961361 
L 214.912822 255.804266 
L 215.810914 255.896835 
L 215.810914 255.95244 
L 218.888055 256.003842 
L 218.888055 256.094852 
L 219.070228 256.094852 
L 219.070228 256.211246 
L 219.434893 256.301997 
L 219.434893 256.3464 
L 232.147041 256.265252 
L 232.147041 256.192596 
L 232.914259 256.206689 
L 232.914259 255.981259 
L 233.106401 255.981259 
L 233.106401 255.467244 
L 233.298685 255.467244 
L 233.298685 255.063573 
L 233.49111 255.063573 
L 233.49111 255.245935 
L 233.683678 255.245935 
L 233.683678 255.766548 
L 233.876352 255.766548 
L 233.876352 256.095168 
L 234.262196 256.203524 
L 234.262196 256.272262 
L 236.978646 256.175359 
L 236.978646 256.1441 
L 237.36896 256.095464 
L 237.36896 256.015613 
L 237.56433 256.015613 
L 237.56433 255.887395 
L 237.759842 255.887395 
L 237.759842 255.656609 
L 237.955496 255.656609 
L 237.955496 255.059601 
L 238.151328 255.059601 
L 238.151328 253.617642 
L 238.347265 253.617642 
L 238.347265 251.089873 
L 238.543345 251.089873 
L 238.543345 246.161232 
L 238.739566 246.161232 
L 238.739566 227.43824 
L 238.93593 227.43824 
L 238.93593 188.118724 
L 239.132471 188.118724 
L 239.132471 157.279863 
L 239.329118 157.279863 
L 239.329118 171.83978 
L 239.525943 171.83978 
L 239.525943 213.096902 
L 239.722874 213.096902 
L 239.722874 239.803598 
L 239.919982 239.803598 
L 239.919982 248.584037 
L 240.117197 248.584037 
L 240.117197 252.58711 
L 240.314589 252.58711 
L 240.314589 253.498921 
L 240.512124 253.498921 
L 240.512124 251.562445 
L 240.709764 251.562445 
L 240.709764 246.876957 
L 240.907582 246.876957 
L 240.907582 243.379778 
L 241.105542 243.379778 
L 241.105542 245.495043 
L 241.303644 245.495043 
L 241.303644 250.741679 
L 241.501888 250.741679 
L 241.501888 254.094637 
L 241.700309 254.094637 
L 241.700309 255.205138 
L 241.898836 255.205138 
L 241.898836 255.682332 
L 242.097506 255.682332 
L 242.097506 255.836097 
L 242.495341 255.946847 
L 242.495341 256.058226 
L 243.492413 256.033512 
L 243.492413 255.791645 
L 243.692289 255.791645 
L 243.692289 255.40726 
L 243.892271 255.40726 
L 243.892271 255.026804 
L 244.092431 255.026804 
L 244.092431 254.575909 
L 244.292732 254.575909 
L 244.292732 253.260303 
L 244.493175 253.260303 
L 244.493175 247.516385 
L 244.69376 247.516385 
L 244.69376 235.541002 
L 244.894523 235.541002 
L 244.894523 226.223636 
L 245.095392 226.223636 
L 245.095392 230.540904 
L 245.296438 230.540904 
L 245.296438 242.682851 
L 245.497627 242.682851 
L 245.497627 250.380897 
L 245.698957 250.380897 
L 245.698957 253.025343 
L 245.900464 253.025343 
L 245.900464 254.565381 
L 246.102078 254.565381 
L 246.102078 255.299945 
L 246.30387 255.299945 
L 246.30387 255.561125 
L 246.707878 255.534076 
L 246.707878 254.982776 
L 246.910131 254.982776 
L 246.910131 253.719804 
L 247.11249 253.719804 
L 247.11249 252.433615 
L 247.315026 252.433615 
L 247.315026 252.032547 
L 247.517704 252.032547 
L 247.517704 251.819463 
L 247.72056 251.819463 
L 247.72056 250.426793 
L 247.923522 250.426793 
L 247.923522 247.769338 
L 248.126662 247.769338 
L 248.126662 244.08216 
L 248.329943 244.08216 
L 248.329943 238.709355 
L 248.533366 238.709355 
L 248.533366 229.104807 
L 248.736967 229.104807 
L 248.736967 192.958836 
L 248.94071 192.958836 
L 248.94071 115.185041 
L 249.144594 115.185041 
L 249.144594 53.568 
L 249.348621 53.568 
L 249.348621 84.213299 
L 249.552824 84.213299 
L 249.552824 168.991155 
L 249.75717 168.991155 
L 249.75717 223.311764 
L 249.961658 223.311764 
L 249.961658 241.407373 
L 250.166323 241.407373 
L 250.166323 250.102383 
L 250.37113 250.102383 
L 250.37113 253.347884 
L 250.576078 253.347884 
L 250.576078 254.558574 
L 250.781169 254.558574 
L 250.781169 255.130138 
L 250.986437 255.130138 
L 250.986437 255.455942 
L 251.191847 255.455942 
L 251.191847 255.663622 
L 251.397399 255.663622 
L 251.397399 255.804491 
L 251.809 255.911612 
L 251.809 256.000996 
L 252.221203 256.077075 
L 252.221203 256.140574 
L 252.840697 256.225705 
L 252.840697 256.254294 
L 256.796525 256.365389 
L 256.796525 256.369957 
L 307.349984 256.299493 
L 307.349984 256.244369 
L 307.599598 256.244369 
L 307.599598 256.108979 
L 307.849425 256.108979 
L 307.849425 255.700378 
L 308.099465 255.700378 
L 308.099465 254.588592 
L 308.349717 254.588592 
L 308.349717 252.939127 
L 308.600183 252.939127 
L 308.600183 252.1806 
L 308.850861 252.1806 
L 308.850861 253.211428 
L 309.101752 253.211428 
L 309.101752 254.835133 
L 309.352856 254.835133 
L 309.352856 255.754529 
L 309.604102 255.754529 
L 309.604102 256.095421 
L 309.855632 256.095421 
L 309.855632 256.247032 
L 311.368996 256.357588 
L 311.368996 256.362199 
L 312.635869 256.284301 
L 312.635869 256.237823 
L 313.653127 256.344129 
L 313.653127 256.355666 
L 317.240458 256.322216 
L 317.240458 256.240902 
L 317.498303 256.240902 
L 317.498303 255.94168 
L 317.75636 255.94168 
L 317.75636 255.322612 
L 318.014631 255.322612 
L 318.014631 254.804925 
L 318.53181 254.902812 
L 318.53181 255.32082 
L 319.049911 255.265428 
L 319.049911 254.429642 
L 319.309246 254.429642 
L 319.309246 253.620183 
L 319.568793 253.620183 
L 319.568793 253.975718 
L 319.828624 253.975718 
L 319.828624 255.116737 
L 320.088598 255.116737 
L 320.088598 255.875045 
L 320.348855 255.875045 
L 320.348855 256.142745 
L 321.914866 256.238401 
L 321.914866 256.274375 
L 324.542482 256.230191 
L 324.542482 255.882219 
L 324.806429 255.882219 
L 324.806429 255.086614 
L 325.070659 255.086614 
L 325.070659 254.427691 
L 325.335103 254.427691 
L 325.335103 254.721945 
L 325.599759 254.721945 
L 325.599759 255.561425 
L 325.864628 255.561425 
L 325.864628 256.067044 
L 326.129709 256.067044 
L 326.129709 256.227444 
L 327.725096 256.325736 
L 327.725096 256.348417 
L 335.825558 256.26561 
L 335.825558 256.235239 
L 336.647127 256.13998 
L 336.647127 256.100853 
L 337.470825 256.01136 
L 337.470825 255.924896 
L 337.74584 255.924896 
L 337.74584 255.759129 
L 338.021139 255.759129 
L 338.021139 255.40502 
L 338.296651 255.40502 
L 338.296651 254.665454 
L 338.572376 254.665454 
L 338.572376 253.121456 
L 338.848385 253.121456 
L 338.848385 249.659479 
L 339.124606 249.659479 
L 339.124606 235.432731 
L 339.401111 235.432731 
L 339.401111 202.235477 
L 339.677829 202.235477 
L 339.677829 174.491056 
L 339.95476 174.491056 
L 339.95476 187.069067 
L 340.231975 187.069067 
L 340.231975 222.580153 
L 340.509403 222.580153 
L 340.509403 243.752988 
L 340.787043 243.752988 
L 340.787043 250.567467 
L 341.064968 250.567467 
L 341.064968 253.955005 
L 341.343105 253.955005 
L 341.343105 255.162654 
L 341.621526 255.162654 
L 341.621526 255.623604 
L 341.90016 255.623604 
L 341.90016 255.848006 
L 342.179007 255.848006 
L 342.179007 255.976702 
L 342.737481 256.056373 
L 342.737481 256.101452 
L 343.577072 256.010357 
L 343.577072 255.712608 
L 343.857409 255.712608 
L 343.857409 255.379674 
L 344.418792 255.362216 
L 344.418792 255.633449 
L 344.699909 255.633449 
L 344.699909 255.885803 
L 344.981168 255.885803 
L 344.981168 256.06031 
L 345.262782 256.06031 
L 345.262782 256.203604 
L 346.674257 256.138374 
L 346.674257 255.798828 
L 346.957361 255.798828 
L 346.957361 255.425209 
L 347.524137 255.399259 
L 347.524137 255.708404 
L 347.80795 255.708404 
L 347.80795 255.998722 
L 348.091977 255.998722 
L 348.091977 256.160809 
L 348.66081 256.265284 
L 348.66081 256.320385 
L 353.825647 256.248583 
L 353.825647 256.20547 
L 354.6944 256.294169 
L 354.6944 256.322826 
L 355.274941 256.305409 
L 355.274941 256.207849 
L 355.565566 256.207849 
L 355.565566 255.997141 
L 355.856475 255.997141 
L 355.856475 255.822096 
L 356.439002 255.864163 
L 356.439002 256.039754 
L 356.730691 256.039754 
L 356.730691 256.184122 
L 357.314779 256.27708 
L 357.314779 256.327823 
L 359.073359 256.235851 
L 359.073359 256.028514 
L 359.367389 256.028514 
L 359.367389 255.849467 
L 359.956231 255.912417 
L 359.956231 256.118066 
L 360.251043 256.118066 
L 360.251043 256.250645 
L 362.025374 256.21554 
L 362.025374 256.074243 
L 362.916122 256.043493 
L 362.916122 256.197965 
L 363.51135 256.293534 
L 363.51135 256.327724 
L 365.602913 256.226085 
L 365.602913 256.034842 
L 365.902762 256.034842 
L 365.902762 255.813254 
L 366.503383 255.766098 
L 366.503383 255.938275 
L 366.804012 255.938275 
L 366.804012 256.137768 
L 367.406264 256.235699 
L 367.406264 256.262852 
L 368.311558 256.212999 
L 368.311558 256.120903 
L 368.916507 256.031795 
L 368.916507 256.007149 
L 369.522519 255.963839 
L 369.522519 255.731374 
L 369.825916 255.731374 
L 369.825916 255.164737 
L 370.129596 255.164737 
L 370.129596 253.915251 
L 370.433561 253.915251 
L 370.433561 248.732578 
L 370.737809 248.732578 
L 370.737809 236.331524 
L 371.042341 236.331524 
L 371.042341 225.897572 
L 371.347156 225.897572 
L 371.347156 230.71664 
L 371.652256 230.71664 
L 371.652256 243.99075 
L 371.957568 243.99075 
L 371.957568 251.625253 
L 372.263235 251.625253 
L 372.263235 253.989114 
L 372.569115 253.989114 
L 372.569115 255.224223 
L 372.87535 255.224223 
L 372.87535 255.747336 
L 373.181797 255.747336 
L 373.181797 255.988678 
L 374.410497 256.084764 
L 374.410497 256.125686 
L 377.501935 256.228671 
L 377.501935 256.240656 
L 384.403853 256.167477 
L 384.403853 256.056158 
L 384.720944 256.056158 
L 384.720944 255.750801 
L 385.038318 255.750801 
L 385.038318 254.959864 
L 385.355977 254.959864 
L 385.355977 251.634562 
L 385.673919 251.634562 
L 385.673919 243.637954 
L 385.992215 243.637954 
L 385.992215 236.885953 
L 386.310725 236.885953 
L 386.310725 240.000941 
L 386.62959 240.000941 
L 386.62959 248.545275 
L 386.948738 248.545275 
L 386.948738 253.436188 
L 387.26817 253.436188 
L 387.26817 254.984969 
L 387.587886 254.984969 
L 387.587886 255.770271 
L 387.907956 255.770271 
L 387.907956 256.048589 
L 388.548878 256.155912 
L 388.548878 256.207805 
L 392.419881 256.167389 
L 392.419881 255.993525 
L 392.744422 255.993525 
L 392.744422 255.54049 
L 393.069246 255.54049 
L 393.069246 253.629777 
L 393.394426 253.629777 
L 393.394426 249.003029 
L 393.719889 249.003029 
L 393.719889 245.086039 
L 394.045636 245.086039 
L 394.045636 246.897201 
L 394.371737 246.897201 
L 394.371737 251.843127 
L 394.698123 251.843127 
L 394.698123 254.653766 
L 395.024792 254.653766 
L 395.024792 255.540263 
L 395.351816 255.540263 
L 395.351816 255.988998 
L 395.679124 255.988998 
L 395.679124 256.144107 
L 397.649428 256.101767 
L 397.649428 255.85303 
L 397.978936 255.85303 
L 397.978936 254.791125 
L 398.308727 254.791125 
L 398.308727 252.210454 
L 398.638802 252.210454 
L 398.638802 250.01275 
L 398.969232 250.01275 
L 398.969232 250.968504 
L 399.299946 250.968504 
L 399.299946 253.564019 
L 399.631014 253.564019 
L 399.631014 254.449018 
L 399.962366 254.449018 
L 399.962366 253.300286 
L 400.294002 253.300286 
L 400.294002 252.155514 
L 400.625993 252.155514 
L 400.625993 252.876346 
L 400.958268 252.876346 
L 400.958268 254.641994 
L 401.290897 254.641994 
L 401.290897 255.603749 
L 401.62381 255.603749 
L 401.62381 255.80917 
L 401.957078 255.80917 
L 401.957078 255.473106 
L 402.29063 255.473106 
L 402.29063 254.308407 
L 402.624537 254.308407 
L 402.624537 253.27625 
L 402.958727 253.27625 
L 402.958727 253.698413 
L 403.293201 253.698413 
L 403.293201 254.696856 
L 403.963214 254.671982 
L 403.963214 254.256997 
L 404.298681 254.256997 
L 404.298681 254.676758 
L 404.634433 254.676758 
L 404.634433 255.536749 
L 404.970539 255.536749 
L 404.970539 256.016399 
L 405.307 256.016399 
L 405.307 256.168718 
L 406.318227 256.208734 
L 406.318227 256.013852 
L 406.655965 256.013852 
L 406.655965 255.514707 
L 406.993987 255.514707 
L 406.993987 255.061148 
L 407.671095 255.084373 
L 407.671095 255.18525 
L 408.01011 255.18525 
L 408.01011 255.003673 
L 408.349409 255.003673 
L 408.349409 254.834021 
L 409.369435 254.8107 
L 409.369435 255.009525 
L 410.051013 255.028775 
L 410.051013 254.836571 
L 410.39237 254.836571 
L 410.39237 254.717336 
L 411.075934 254.758815 
L 411.075934 254.860183 
L 411.760847 254.912022 
L 411.760847 254.995593 
L 412.103765 254.995593 
L 412.103765 255.275176 
L 412.447108 255.275176 
L 412.447108 255.702863 
L 412.790664 255.702863 
L 412.790664 256.051614 
L 413.134646 256.051614 
L 413.134646 256.215969 
L 414.859381 256.317593 
L 414.859381 256.317593 
" clip-path="url(#p1fec3e4026)" style="fill: none; stroke: #ff7f0e; stroke-width: 1.5; stroke-linecap: square"/>
   </g>
   <g id="line2d_15">
    <path d="M 57.583269 217.368666 
L 57.66969 217.368657 
L 89.183629 217.272579 
L 89.28605 216.697864 
L 89.388507 216.697864 
L 89.490999 216.055203 
L 89.593562 216.055203 
L 89.696161 216.80312 
L 89.79883 216.80312 
L 89.901571 217.266188 
L 161.125379 217.190595 
L 161.125379 216.803664 
L 161.269166 216.803664 
L 161.269166 216.107603 
L 161.413095 216.107603 
L 161.413095 215.604252 
L 161.557095 215.604252 
L 161.557095 215.840329 
L 161.701165 215.840329 
L 161.701165 216.536372 
L 161.845343 216.536372 
L 161.845343 217.042584 
L 161.989626 217.042584 
L 161.989626 217.223299 
L 162.278407 217.302714 
L 162.278407 217.335628 
L 186.29559 217.297593 
L 186.29559 217.143973 
L 186.455554 217.143973 
L 186.455554 216.852667 
L 186.615625 216.852667 
L 186.615625 216.636582 
L 186.936086 216.738969 
L 186.936086 217.033995 
L 187.096476 217.033995 
L 187.096476 217.238596 
L 187.578249 217.339801 
L 187.578249 217.352766 
L 197.921087 217.316158 
L 197.921087 217.207689 
L 198.08882 217.207689 
L 198.08882 216.998763 
L 198.256661 216.998763 
L 198.256661 216.842283 
L 198.592625 216.915814 
L 198.592625 217.127387 
L 198.76082 217.127387 
L 198.76082 217.271898 
L 204.546854 217.209045 
L 204.546854 217.008407 
L 204.719058 217.008407 
L 204.719058 216.857379 
L 205.063856 216.9286 
L 205.063856 217.132669 
L 205.236414 217.132669 
L 205.236414 217.271034 
L 208.362904 217.27035 
L 208.362904 217.153099 
L 209.062965 217.225595 
L 209.062965 217.3059 
L 210.821544 217.283675 
L 210.821544 217.188316 
L 211.528382 217.247022 
L 211.528382 217.312103 
L 223.66602 217.201176 
L 223.66602 217.200409 
L 238.93593 217.107529 
L 238.93593 217.034816 
L 240.117197 217.140353 
L 240.117197 217.147439 
L 249.144594 217.037915 
L 249.144594 216.996648 
L 249.961658 217.10232 
L 249.961658 217.113187 
L 284.997935 217.002418 
L 284.997935 217.00158 
L 305.608221 216.900882 
L 305.608221 216.888906 
L 306.851324 216.784582 
L 306.851324 216.755229 
L 307.349984 216.677291 
L 307.349984 216.465223 
L 307.599598 216.465223 
L 307.599598 215.901457 
L 307.849425 215.901457 
L 307.849425 213.945759 
L 308.099465 213.945759 
L 308.099465 208.391648 
L 308.349717 208.391648 
L 308.349717 200.126133 
L 308.600183 200.126133 
L 308.600183 196.377852 
L 308.850861 196.377852 
L 308.850861 201.586769 
L 309.101752 201.586769 
L 309.101752 209.646699 
L 309.352856 209.646699 
L 309.352856 214.079851 
L 309.604102 214.079851 
L 309.604102 215.64816 
L 309.855632 215.64816 
L 309.855632 216.36632 
L 310.107303 216.36632 
L 310.107303 216.620156 
L 310.611356 216.725865 
L 310.611356 216.785002 
L 312.889882 216.894672 
L 312.889882 216.897674 
L 336.647127 216.786682 
L 336.647127 216.785413 
L 372.263235 216.67879 
L 372.263235 216.660049 
L 384.403853 216.550195 
L 384.403853 216.548202 
L 414.859381 216.506556 
L 414.859381 216.506556 
" clip-path="url(#p1fec3e4026)" style="fill: none; stroke: #2ca02c; stroke-width: 1.5; stroke-linecap: square"/>
   </g>
   <g id="line2d_16">
    <path d="M 57.583269 178.309061 
L 57.66969 178.309051 
L 89.183629 178.212973 
L 89.28605 177.638258 
L 89.388507 177.638258 
L 89.490999 176.995597 
L 89.593562 176.995597 
L 89.696161 177.743515 
L 89.79883 177.743515 
L 89.901571 178.206582 
L 161.125379 178.130989 
L 161.125379 177.744059 
L 161.269166 177.744059 
L 161.269166 177.047998 
L 161.413095 177.047998 
L 161.413095 176.544646 
L 161.557095 176.544646 
L 161.557095 176.780724 
L 161.701165 176.780724 
L 161.701165 177.476766 
L 161.845343 177.476766 
L 161.845343 177.982978 
L 161.989626 177.982978 
L 161.989626 178.163693 
L 162.278407 178.243108 
L 162.278407 178.276023 
L 186.29559 178.237987 
L 186.29559 178.084368 
L 186.455554 178.084368 
L 186.455554 177.793061 
L 186.615625 177.793061 
L 186.615625 177.576977 
L 186.936086 177.679364 
L 186.936086 177.97439 
L 187.096476 177.97439 
L 187.096476 178.17899 
L 187.578249 178.280196 
L 187.578249 178.293161 
L 197.921087 178.256553 
L 197.921087 178.148084 
L 198.08882 178.148084 
L 198.08882 177.939158 
L 198.256661 177.939158 
L 198.256661 177.782678 
L 198.592625 177.856208 
L 198.592625 178.067782 
L 198.76082 178.067782 
L 198.76082 178.212292 
L 204.546854 178.14944 
L 204.546854 177.948801 
L 204.719058 177.948801 
L 204.719058 177.797774 
L 205.063856 177.868994 
L 205.063856 178.073064 
L 205.236414 178.073064 
L 205.236414 178.211429 
L 208.362904 178.210745 
L 208.362904 178.093494 
L 209.062965 178.165989 
L 209.062965 178.246295 
L 210.821544 178.22407 
L 210.821544 178.128711 
L 211.528382 178.187417 
L 211.528382 178.252498 
L 223.66602 178.14157 
L 223.66602 178.140804 
L 238.93593 178.047924 
L 238.93593 177.97521 
L 240.117197 178.080748 
L 240.117197 178.087833 
L 249.144594 177.97831 
L 249.144594 177.937043 
L 249.961658 178.042715 
L 249.961658 178.053582 
L 284.997935 177.942813 
L 284.997935 177.941974 
L 305.608221 177.841277 
L 305.608221 177.829301 
L 306.851324 177.724977 
L 306.851324 177.695624 
L 307.349984 177.617686 
L 307.349984 177.405617 
L 307.599598 177.405617 
L 307.599598 176.841852 
L 307.849425 176.841852 
L 307.849425 174.886154 
L 308.099465 174.886154 
L 308.099465 169.332043 
L 308.349717 169.332043 
L 308.349717 161.066527 
L 308.600183 161.066527 
L 308.600183 157.318246 
L 308.850861 157.318246 
L 308.850861 162.527163 
L 309.101752 162.527163 
L 309.101752 170.587094 
L 309.352856 170.587094 
L 309.352856 175.020246 
L 309.604102 175.020246 
L 309.604102 176.588554 
L 309.855632 176.588554 
L 309.855632 177.306715 
L 310.107303 177.306715 
L 310.107303 177.560551 
L 310.611356 177.666259 
L 310.611356 177.725396 
L 312.889882 177.835067 
L 312.889882 177.838068 
L 336.647127 177.727077 
L 336.647127 177.725808 
L 372.263235 177.619185 
L 372.263235 177.600443 
L 384.403853 177.49059 
L 384.403853 177.488596 
L 414.859381 177.446951 
L 414.859381 177.446951 
" clip-path="url(#p1fec3e4026)" style="fill: none; stroke: #d62728; stroke-width: 1.5; stroke-linecap: square"/>
   </g>
   <g id="patch_3">
    <path d="M 57.6 307.584 
L 57.6 41.472 
" style="fill: none; stroke: #000000; stroke-width: 0.8; stroke-linejoin: miter; stroke-linecap: square"/>
   </g>
   <g id="patch_4">
    <path d="M 414.72 307.584 
L 414.72 41.472 
" style="fill: none; stroke: #000000; stroke-width: 0.8; stroke-linejoin: miter; stroke-linecap: square"/>
   </g>
   <g id="patch_5">
    <path d="M 57.6 307.584 
L 414.72 307.584 
" style="fill: none; stroke: #000000; stroke-width: 0.8; stroke-linejoin: miter; stroke-linecap: square"/>
   </g>
   <g id="patch_6">
    <path d="M 57.6 41.472 
L 414.72 41.472 
" style="fill: none; stroke: #000000; stroke-width: 0.8; stroke-linejoin: miter; stroke-linecap: square"/>
   </g>
   <g id="legend_1">
    <g id="patch_7">
     <path d="M 288.571563 108.1845 
L 407.72 108.1845 
Q 409.72 108.1845 409.72 106.1845 
L 409.72 48.472 
Q 409.72 46.472 407.72 46.472 
L 288.571563 46.472 
Q 286.571563 46.472 286.571563 48.472 
L 286.571563 106.1845 
Q 286.571563 108.1845 288.571563 108.1845 
z
" style="fill: #ffffff; opacity: 0.8; stroke: #cccccc; stroke-linejoin: miter"/>
    </g>
    <g id="line2d_17">
     <path d="M 290.571563 54.570438 
L 290.571563 54.570438 
L 300.571563 54.570438 
L 300.571563 54.570438 
L 310.571563 54.570438 
" style="fill: none; stroke: #1f77b4; stroke-width: 1.5; stroke-linecap: square"/>
    </g>
    <g id="text_16">
     <!-- mild recombining -->
     <g transform="translate(318.571563 58.070438) scale(0.1 -0.1)">
      <defs>
       <path id="DejaVuSans-6c" d="M 603 4863 
L 1178 4863 
L 1178 0 
L 603 0 
L 603 4863 
z
" transform="scale(0.015625)"/>
       <path id="DejaVuSans-64" d="M 2906 2969 
L 2906 4863 
L 3481 4863 
L 3481 0 
L 2906 0 
L 2906 525 
Q 2725 213 2448 61 
Q 2172 -91 1784 -91 
Q 1150 -91 751 415 
Q 353 922 353 1747 
Q 353 2572 751 3078 
Q 1150 3584 1784 3584 
Q 2172 3584 2448 3432 
Q 2725 3281 2906 2969 
z
M 947 1747 
Q 947 1113 1208 752 
Q 1469 391 1925 391 
Q 2381 391 2643 752 
Q 2906 1113 2906 1747 
Q 2906 2381 2643 2742 
Q 2381 3103 1925 3103 
Q 1469 3103 1208 2742 
Q 947 2381 947 1747 
z
" transform="scale(0.015625)"/>
       <path id="DejaVuSans-6f" d="M 1959 3097 
Q 1497 3097 1228 2736 
Q 959 2375 959 1747 
Q 959 1119 1226 758 
Q 1494 397 1959 397 
Q 2419 397 2687 759 
Q 2956 1122 2956 1747 
Q 2956 2369 2687 2733 
Q 2419 3097 1959 3097 
z
M 1959 3584 
Q 2709 3584 3137 3096 
Q 3566 2609 3566 1747 
Q 3566 888 3137 398 
Q 2709 -91 1959 -91 
Q 1206 -91 779 398 
Q 353 888 353 1747 
Q 353 2609 779 3096 
Q 1206 3584 1959 3584 
z
" transform="scale(0.015625)"/>
      </defs>
      <use xlink:href="#DejaVuSans-6d"/>
      <use xlink:href="#DejaVuSans-69" transform="translate(97.412109 0)"/>
      <use xlink:href="#DejaVuSans-6c" transform="translate(125.195312 0)"/>
      <use xlink:href="#DejaVuSans-64" transform="translate(152.978516 0)"/>
      <use xlink:href="#DejaVuSans-20" transform="translate(216.455078 0)"/>
      <use xlink:href="#DejaVuSans-72" transform="translate(248.242188 0)"/>
      <use xlink:href="#DejaVuSans-65" transform="translate(287.105469 0)"/>
      <use xlink:href="#DejaVuSans-63" transform="translate(348.628906 0)"/>
      <use xlink:href="#DejaVuSans-6f" transform="translate(403.609375 0)"/>
      <use xlink:href="#DejaVuSans-6d" transform="translate(464.791016 0)"/>
      <use xlink:href="#DejaVuSans-62" transform="translate(562.203125 0)"/>
      <use xlink:href="#DejaVuSans-69" transform="translate(625.679688 0)"/>
      <use xlink:href="#DejaVuSans-6e" transform="translate(653.462891 0)"/>
      <use xlink:href="#DejaVuSans-69" transform="translate(716.841797 0)"/>
      <use xlink:href="#DejaVuSans-6e" transform="translate(744.625 0)"/>
      <use xlink:href="#DejaVuSans-67" transform="translate(808.003906 0)"/>
     </g>
    </g>
    <g id="line2d_18">
     <path d="M 290.571563 69.248563 
L 290.571563 69.248563 
L 300.571563 69.248563 
L 300.571563 69.248563 
L 310.571563 69.248563 
" style="fill: none; stroke: #ff7f0e; stroke-width: 1.5; stroke-linecap: square"/>
    </g>
    <g id="text_17">
     <!-- ionizing -->
     <g transform="translate(318.571563 72.748563) scale(0.1 -0.1)">
      <defs>
       <path id="DejaVuSans-7a" d="M 353 3500 
L 3084 3500 
L 3084 2975 
L 922 459 
L 3084 459 
L 3084 0 
L 275 0 
L 275 525 
L 2438 3041 
L 353 3041 
L 353 3500 
z
" transform="scale(0.015625)"/>
      </defs>
      <use xlink:href="#DejaVuSans-69"/>
      <use xlink:href="#DejaVuSans-6f" transform="translate(27.783203 0)"/>
      <use xlink:href="#DejaVuSans-6e" transform="translate(88.964844 0)"/>
      <use xlink:href="#DejaVuSans-69" transform="translate(152.34375 0)"/>
      <use xlink:href="#DejaVuSans-7a" transform="translate(180.126953 0)"/>
      <use xlink:href="#DejaVuSans-69" transform="translate(232.617188 0)"/>
      <use xlink:href="#DejaVuSans-6e" transform="translate(260.400391 0)"/>
      <use xlink:href="#DejaVuSans-67" transform="translate(323.779297 0)"/>
     </g>
    </g>
    <g id="line2d_19">
     <path d="M 290.571563 83.926688 
L 290.571563 83.926688 
L 300.571563 83.926688 
L 300.571563 83.926688 
L 310.571563 83.926688 
" style="fill: none; stroke: #2ca02c; stroke-width: 1.5; stroke-linecap: square"/>
    </g>
    <g id="text_18">
     <!-- recombining -->
     <g transform="translate(318.571563 87.426688) scale(0.1 -0.1)">
      <use xlink:href="#DejaVuSans-72"/>
      <use xlink:href="#DejaVuSans-65" transform="translate(38.863281 0)"/>
      <use xlink:href="#DejaVuSans-63" transform="translate(100.386719 0)"/>
      <use xlink:href="#DejaVuSans-6f" transform="translate(155.367188 0)"/>
      <use xlink:href="#DejaVuSans-6d" transform="translate(216.548828 0)"/>
      <use xlink:href="#DejaVuSans-62" transform="translate(313.960938 0)"/>
      <use xlink:href="#DejaVuSans-69" transform="translate(377.4375 0)"/>
      <use xlink:href="#DejaVuSans-6e" transform="translate(405.220703 0)"/>
      <use xlink:href="#DejaVuSans-69" transform="translate(468.599609 0)"/>
      <use xlink:href="#DejaVuSans-6e" transform="translate(496.382812 0)"/>
      <use xlink:href="#DejaVuSans-67" transform="translate(559.761719 0)"/>
     </g>
    </g>
    <g id="line2d_20">
     <path d="M 290.571563 98.604813 
L 290.571563 98.604813 
L 300.571563 98.604813 
L 300.571563 98.604813 
L 310.571563 98.604813 
" style="fill: none; stroke: #d62728; stroke-width: 1.5; stroke-linecap: square"/>
    </g>
    <g id="text_19">
     <!-- all H-like -->
     <g transform="translate(318.571563 102.104813) scale(0.1 -0.1)">
      <defs>
       <path id="DejaVuSans-61" d="M 2194 1759 
Q 1497 1759 1228 1600 
Q 959 1441 959 1056 
Q 959 750 1161 570 
Q 1363 391 1709 391 
Q 2188 391 2477 730 
Q 2766 1069 2766 1631 
L 2766 1759 
L 2194 1759 
z
M 3341 1997 
L 3341 0 
L 2766 0 
L 2766 531 
Q 2569 213 2275 61 
Q 1981 -91 1556 -91 
Q 1019 -91 701 211 
Q 384 513 384 1019 
Q 384 1609 779 1909 
Q 1175 2209 1959 2209 
L 2766 2209 
L 2766 2266 
Q 2766 2663 2505 2880 
Q 2244 3097 1772 3097 
Q 1472 3097 1187 3025 
Q 903 2953 641 2809 
L 641 3341 
Q 956 3463 1253 3523 
Q 1550 3584 1831 3584 
Q 2591 3584 2966 3190 
Q 3341 2797 3341 1997 
z
" transform="scale(0.015625)"/>
       <path id="DejaVuSans-48" d="M 628 4666 
L 1259 4666 
L 1259 2753 
L 3553 2753 
L 3553 4666 
L 4184 4666 
L 4184 0 
L 3553 0 
L 3553 2222 
L 1259 2222 
L 1259 0 
L 628 0 
L 628 4666 
z
" transform="scale(0.015625)"/>
       <path id="DejaVuSans-2d" d="M 313 2009 
L 1997 2009 
L 1997 1497 
L 313 1497 
L 313 2009 
z
" transform="scale(0.015625)"/>
      </defs>
      <use xlink:href="#DejaVuSans-61"/>
      <use xlink:href="#DejaVuSans-6c" transform="translate(61.279297 0)"/>
      <use xlink:href="#DejaVuSans-6c" transform="translate(89.0625 0)"/>
      <use xlink:href="#DejaVuSans-20" transform="translate(116.845703 0)"/>
      <use xlink:href="#DejaVuSans-48" transform="translate(148.632812 0)"/>
      <use xlink:href="#DejaVuSans-2d" transform="translate(223.828125 0)"/>
      <use xlink:href="#DejaVuSans-6c" transform="translate(259.912109 0)"/>
      <use xlink:href="#DejaVuSans-69" transform="translate(287.695312 0)"/>
      <use xlink:href="#DejaVuSans-6b" transform="translate(315.478516 0)"/>
      <use xlink:href="#DejaVuSans-65" transform="translate(369.763672 0)"/>
     </g>
    </g>
   </g>
  </g>
 </g>
 <defs>
  <clipPath id="p1fec3e4026">
   <rect x="57.6" y="41.472" width="357.12" height="266.112"/>
  </clipPath>
 </defs>
</svg>
