<?xml version="1.0" encoding="utf-8" standalone="no"?>
<!DOCTYPE svg PUBLIC "-//W3C//DTD SVG 1.1//EN"
  "http://www.w3.org/Graphics/SVG/1.1/DTD/svg11.dtd">
<svg xmlns:xlink="http://www.w3.org/1999/xlink" width="460.8pt" height="345.6pt" viewBox="0 0 460.8 345.6" xmlns="http://www.w3.org/2000/svg" version="1.1">
 <metadata>
  <rdf:RDF xmlns:dc="http://purl.org/dc/elements/1.1/" xmlns:cc="http://creativecommons.org/ns#" xmlns:rdf="http://www.w3.org/1999/02/22-rdf-syntax-ns#">
   <cc:Work>
    <dc:type rdf:resource="http://purl.org/dc/dcmitype/StillImage"/>
    <dc:date>2025-09-25T15:32:54.642571</dc:date>
    <dc:format>image/svg+xml</dc:format>
    <dc:creator>
     <cc:Agent>
      <dc:title>Matplotlib v3.5.0, https://matplotlib.org/</dc:title>
     </cc:Agent>
    </dc:creator>
   </cc:Work>
  </rdf:RDF>
 </metadata>
 <defs>
  <style type="text/css">*{stroke-linejoin: round; stroke-linecap: butt}</style>
 </defs>
 <g id="figure_1">
  <g id="patch_1">
   <path d="M 0 345.6 
L 460.8 345.6 
L 460.8 0 
L 0 0 
z
" style="fill: #ffffff"/>
  </g>
  <g id="axes_1">
   <g id="patch_2">
    <path d="M 57.6 307.584 
L 414.72 307.584 
L 414.72 41.472 
L 57.6 41.472 
z
" style="fill: #ffffff"/>
   </g>
   <g id="matplotlib.axis_1">
    <g id="xtick_1">
     <g id="line2d_1">
      <defs>
       <path id="m99f3ce6203" d="M 0 0 
L 0 3.5 
" style="stroke: #000000; stroke-width: 0.8"/>
      </defs>
      <g>
       <use xlink:href="#m99f3ce6203" x="73.832727" y="307.584" style="stroke: #000000; stroke-width: 0.8"/>
      </g>
     </g>
     <g id="text_1">
      <!-- $\mathdefault{10^{-1}}$ -->
      <g transform="translate(64.032727 322.084)scale(0.1 -0.1)">
       <defs>
        <path id="Roboto-Regular-31" d="M 2278 4575 
L 2278 0 
L 1700 0 
L 1700 3853 
L 534 3428 
L 534 3950 
L 2188 4575 
L 2278 4575 
z
" transform="scale(0.015625)"/>
        <path id="Roboto-Regular-30" d="M 3234 1944 
Q 3234 825 2848 381 
Q 2463 -63 1800 -63 
Q 1156 -63 764 368 
Q 372 800 359 1872 
L 359 2638 
Q 359 3753 750 4183 
Q 1141 4613 1794 4613 
Q 2447 4613 2834 4195 
Q 3222 3778 3234 2709 
L 3234 1944 
z
M 2653 2734 
Q 2653 3503 2434 3822 
Q 2216 4141 1794 4141 
Q 1388 4141 1167 3831 
Q 947 3522 941 2778 
L 941 1850 
Q 941 1088 1164 750 
Q 1388 413 1800 413 
Q 2222 413 2436 745 
Q 2650 1078 2653 1825 
L 2653 2734 
z
" transform="scale(0.015625)"/>
        <path id="Roboto-Regular-2212" d="M 3134 2509 
L 3134 2034 
L 525 2034 
L 525 2509 
L 3134 2509 
z
" transform="scale(0.015625)"/>
       </defs>
       <use xlink:href="#Roboto-Regular-31" transform="translate(0 0.98125)"/>
       <use xlink:href="#Roboto-Regular-30" transform="translate(56.201172 0.98125)"/>
       <use xlink:href="#Roboto-Regular-2212" transform="translate(113.326836 37.960938)scale(0.7)"/>
       <use xlink:href="#Roboto-Regular-31" transform="translate(153.35125 37.960938)scale(0.7)"/>
      </g>
     </g>
    </g>
    <g id="xtick_2">
     <g id="line2d_2">
      <g>
       <use xlink:href="#m99f3ce6203" x="264.921766" y="307.584" style="stroke: #000000; stroke-width: 0.8"/>
      </g>
     </g>
     <g id="text_2">
      <!-- $\mathdefault{10^{0}}$ -->
      <g transform="translate(257.121766 322.084)scale(0.1 -0.1)">
       <use xlink:href="#Roboto-Regular-31" transform="translate(0 0.565625)"/>
       <use xlink:href="#Roboto-Regular-30" transform="translate(56.201172 0.565625)"/>
       <use xlink:href="#Roboto-Regular-30" transform="translate(113.326836 37.545313)scale(0.7)"/>
      </g>
     </g>
    </g>
    <g id="xtick_3">
     <g id="line2d_3">
      <defs>
       <path id="me74d69fa99" d="M 0 0 
L 0 2 
" style="stroke: #000000; stroke-width: 0.6"/>
      </defs>
      <g>
       <use xlink:href="#me74d69fa99" x="65.088972" y="307.584" style="stroke: #000000; stroke-width: 0.6"/>
      </g>
     </g>
    </g>
    <g id="xtick_4">
     <g id="line2d_4">
      <g>
       <use xlink:href="#me74d69fa99" x="131.35626" y="307.584" style="stroke: #000000; stroke-width: 0.6"/>
      </g>
     </g>
    </g>
    <g id="xtick_5">
     <g id="line2d_5">
      <g>
       <use xlink:href="#me74d69fa99" x="165.005369" y="307.584" style="stroke: #000000; stroke-width: 0.6"/>
      </g>
     </g>
    </g>
    <g id="xtick_6">
     <g id="line2d_6">
      <g>
       <use xlink:href="#me74d69fa99" x="188.879792" y="307.584" style="stroke: #000000; stroke-width: 0.6"/>
      </g>
     </g>
    </g>
    <g id="xtick_7">
     <g id="line2d_7">
      <g>
       <use xlink:href="#me74d69fa99" x="207.398234" y="307.584" style="stroke: #000000; stroke-width: 0.6"/>
      </g>
     </g>
    </g>
    <g id="xtick_8">
     <g id="line2d_8">
      <g>
       <use xlink:href="#me74d69fa99" x="222.528902" y="307.584" style="stroke: #000000; stroke-width: 0.6"/>
      </g>
     </g>
    </g>
    <g id="xtick_9">
     <g id="line2d_9">
      <g>
       <use xlink:href="#me74d69fa99" x="235.3217" y="307.584" style="stroke: #000000; stroke-width: 0.6"/>
      </g>
     </g>
    </g>
    <g id="xtick_10">
     <g id="line2d_10">
      <g>
       <use xlink:href="#me74d69fa99" x="246.403325" y="307.584" style="stroke: #000000; stroke-width: 0.6"/>
      </g>
     </g>
    </g>
    <g id="xtick_11">
     <g id="line2d_11">
      <g>
       <use xlink:href="#me74d69fa99" x="256.178011" y="307.584" style="stroke: #000000; stroke-width: 0.6"/>
      </g>
     </g>
    </g>
    <g id="xtick_12">
     <g id="line2d_12">
      <g>
       <use xlink:href="#me74d69fa99" x="322.445299" y="307.584" style="stroke: #000000; stroke-width: 0.6"/>
      </g>
     </g>
    </g>
    <g id="xtick_13">
     <g id="line2d_13">
      <g>
       <use xlink:href="#me74d69fa99" x="356.094408" y="307.584" style="stroke: #000000; stroke-width: 0.6"/>
      </g>
     </g>
    </g>
    <g id="xtick_14">
     <g id="line2d_14">
      <g>
       <use xlink:href="#me74d69fa99" x="379.968831" y="307.584" style="stroke: #000000; stroke-width: 0.6"/>
      </g>
     </g>
    </g>
    <g id="xtick_15">
     <g id="line2d_15">
      <g>
       <use xlink:href="#me74d69fa99" x="398.487273" y="307.584" style="stroke: #000000; stroke-width: 0.6"/>
      </g>
     </g>
    </g>
    <g id="xtick_16">
     <g id="line2d_16">
      <g>
       <use xlink:href="#me74d69fa99" x="413.617941" y="307.584" style="stroke: #000000; stroke-width: 0.6"/>
      </g>
     </g>
    </g>
    <g id="text_3">
     <!-- Energy (keV) -->
     <g transform="translate(207.974844 336.137125)scale(0.1 -0.1)">
      <defs>
       <path id="Roboto-Regular-45" d="M 528 0 
L 528 4550 
L 3388 4550 
L 3388 4056 
L 1131 4056 
L 1131 2594 
L 3100 2594 
L 3100 2103 
L 1131 2103 
L 1131 491 
L 3419 491 
L 3419 0 
L 528 0 
z
" transform="scale(0.015625)"/>
       <path id="Roboto-Regular-6e" d="M 1844 2956 
Q 1566 2956 1353 2806 
Q 1141 2656 1019 2416 
L 1019 0 
L 441 0 
L 441 3381 
L 988 3381 
L 1006 2959 
Q 1391 3444 2016 3444 
Q 2513 3444 2805 3166 
Q 3097 2888 3100 2231 
L 3100 0 
L 2519 0 
L 2519 2222 
Q 2519 2619 2345 2787 
Q 2172 2956 1844 2956 
z
" transform="scale(0.015625)"/>
       <path id="Roboto-Regular-65" d="M 3116 591 
Q 2950 341 2647 139 
Q 2344 -63 1844 -63 
Q 1138 -63 714 396 
Q 291 856 291 1572 
L 291 1703 
Q 291 2256 502 2645 
Q 713 3034 1050 3239 
Q 1388 3444 1769 3444 
Q 2494 3444 2826 2970 
Q 3159 2497 3159 1788 
L 3159 1528 
L 872 1528 
Q 884 1063 1148 736 
Q 1413 409 1875 409 
Q 2181 409 2393 534 
Q 2606 659 2766 869 
L 3116 591 
z
M 1769 2969 
Q 1425 2969 1187 2719 
Q 950 2469 891 2000 
L 2581 2000 
L 2581 2044 
Q 2559 2381 2386 2675 
Q 2213 2969 1769 2969 
z
" transform="scale(0.015625)"/>
       <path id="Roboto-Regular-72" d="M 1791 2888 
Q 1225 2888 1019 2400 
L 1019 0 
L 441 0 
L 441 3381 
L 1003 3381 
L 1016 2994 
Q 1294 3444 1819 3444 
Q 1981 3444 2075 3400 
L 2072 2863 
Q 1944 2888 1791 2888 
z
" transform="scale(0.015625)"/>
       <path id="Roboto-Regular-67" d="M 1725 -1334 
Q 1463 -1334 1081 -1206 
Q 700 -1078 472 -747 
L 775 -403 
Q 1150 -859 1681 -859 
Q 2091 -859 2334 -629 
Q 2578 -400 2578 44 
L 2578 341 
Q 2234 -63 1631 -63 
Q 1022 -63 662 425 
Q 303 913 303 1653 
L 303 1719 
Q 303 2494 661 2969 
Q 1019 3444 1638 3444 
Q 2259 3444 2603 3006 
L 2631 3381 
L 3156 3381 
L 3156 72 
Q 3156 -600 2756 -967 
Q 2356 -1334 1725 -1334 
z
M 881 1653 
Q 881 1150 1092 789 
Q 1303 428 1772 428 
Q 2322 428 2578 928 
L 2578 2469 
Q 2469 2678 2275 2817 
Q 2081 2956 1778 2956 
Q 1306 2956 1093 2589 
Q 881 2222 881 1719 
L 881 1653 
z
" transform="scale(0.015625)"/>
       <path id="Roboto-Regular-79" d="M 1594 -522 
Q 1294 -1316 688 -1363 
L 591 -1366 
Q 406 -1366 266 -1316 
L 263 -847 
L 419 -859 
Q 713 -859 878 -739 
Q 1044 -619 1150 -306 
L 1275 38 
L 69 3381 
L 700 3381 
L 1547 850 
L 2331 3381 
L 2950 3381 
L 1594 -522 
z
" transform="scale(0.015625)"/>
       <path id="Roboto-Regular-20" transform="scale(0.015625)"/>
       <path id="Roboto-Regular-28" d="M 419 1850 
Q 419 2756 678 3434 
Q 938 4113 1294 4541 
Q 1650 4969 1947 5134 
L 2069 4753 
Q 1700 4475 1348 3761 
Q 997 3047 997 1813 
Q 997 625 1348 -97 
Q 1700 -819 2069 -1119 
L 1947 -1469 
Q 1650 -1306 1294 -878 
Q 938 -450 678 226 
Q 419 903 419 1850 
z
" transform="scale(0.015625)"/>
       <path id="Roboto-Regular-6b" d="M 2559 0 
L 1388 1569 
L 1022 1191 
L 1022 0 
L 441 0 
L 441 4800 
L 1022 4800 
L 1022 1900 
L 1331 2269 
L 2381 3381 
L 3088 3381 
L 1769 1972 
L 3241 0 
L 2559 0 
z
" transform="scale(0.015625)"/>
       <path id="Roboto-Regular-56" d="M 3991 4550 
L 2306 0 
L 1772 0 
L 91 4550 
L 744 4550 
L 2034 800 
L 3338 4550 
L 3991 4550 
z
" transform="scale(0.015625)"/>
       <path id="Roboto-Regular-29" d="M 1772 1819 
Q 1772 906 1512 228 
Q 1253 -450 895 -878 
Q 538 -1306 244 -1469 
L 122 -1119 
Q 488 -841 841 -109 
Q 1194 622 1194 1856 
Q 1194 2647 1019 3236 
Q 844 3825 594 4212 
Q 344 4600 122 4781 
L 244 5134 
Q 538 4969 895 4541 
Q 1253 4113 1512 3436 
Q 1772 2759 1772 1819 
z
" transform="scale(0.015625)"/>
      </defs>
      <use xlink:href="#Roboto-Regular-45"/>
      <use xlink:href="#Roboto-Regular-6e" x="56.835938"/>
      <use xlink:href="#Roboto-Regular-65" x="112.060547"/>
      <use xlink:href="#Roboto-Regular-72" x="165.087891"/>
      <use xlink:href="#Roboto-Regular-67" x="198.974609"/>
      <use xlink:href="#Roboto-Regular-79" x="255.126953"/>
      <use xlink:href="#Roboto-Regular-20" x="302.441406"/>
      <use xlink:href="#Roboto-Regular-28" x="327.246094"/>
      <use xlink:href="#Roboto-Regular-6b" x="361.474609"/>
      <use xlink:href="#Roboto-Regular-65" x="412.158203"/>
      <use xlink:href="#Roboto-Regular-56" x="465.185547"/>
      <use xlink:href="#Roboto-Regular-29" x="528.857422"/>
     </g>
    </g>
   </g>
   <g id="matplotlib.axis_2">
    <g id="ytick_1">
     <g id="line2d_17">
      <defs>
       <path id="m80e85e56fb" d="M 0 0 
L -3.5 0 
" style="stroke: #000000; stroke-width: 0.8"/>
      </defs>
      <g>
       <use xlink:href="#m80e85e56fb" x="57.6" y="307.584" style="stroke: #000000; stroke-width: 0.8"/>
      </g>
     </g>
     <g id="text_4">
      <!-- $\mathdefault{10^{-22}}$ -->
      <g transform="translate(27.1 311.334)scale(0.1 -0.1)">
       <defs>
        <path id="Roboto-Regular-32" d="M 3359 475 
L 3359 0 
L 381 0 
L 381 416 
L 1925 2134 
Q 2306 2566 2439 2819 
Q 2572 3072 2572 3328 
Q 2572 3663 2364 3900 
Q 2156 4138 1778 4138 
Q 1322 4138 1097 3878 
Q 872 3619 872 3213 
L 294 3213 
Q 294 3788 672 4200 
Q 1050 4613 1778 4613 
Q 2422 4613 2786 4278 
Q 3150 3944 3150 3397 
Q 3150 2997 2903 2592 
Q 2656 2188 2297 1797 
L 1078 475 
L 3359 475 
z
" transform="scale(0.015625)"/>
       </defs>
       <use xlink:href="#Roboto-Regular-31" transform="translate(0 0.565625)"/>
       <use xlink:href="#Roboto-Regular-30" transform="translate(56.201172 0.565625)"/>
       <use xlink:href="#Roboto-Regular-2212" transform="translate(113.326836 37.545313)scale(0.7)"/>
       <use xlink:href="#Roboto-Regular-32" transform="translate(153.35125 37.545313)scale(0.7)"/>
       <use xlink:href="#Roboto-Regular-32" transform="translate(192.69207 37.545313)scale(0.7)"/>
      </g>
     </g>
    </g>
    <g id="ytick_2">
     <g id="line2d_18">
      <g>
       <use xlink:href="#m80e85e56fb" x="57.6" y="251.927026" style="stroke: #000000; stroke-width: 0.8"/>
      </g>
     </g>
     <g id="text_5">
      <!-- $\mathdefault{10^{-20}}$ -->
      <g transform="translate(27.1 255.677026)scale(0.1 -0.1)">
       <use xlink:href="#Roboto-Regular-31" transform="translate(0 0.565625)"/>
       <use xlink:href="#Roboto-Regular-30" transform="translate(56.201172 0.565625)"/>
       <use xlink:href="#Roboto-Regular-2212" transform="translate(113.326836 37.545313)scale(0.7)"/>
       <use xlink:href="#Roboto-Regular-32" transform="translate(153.35125 37.545313)scale(0.7)"/>
       <use xlink:href="#Roboto-Regular-30" transform="translate(192.69207 37.545313)scale(0.7)"/>
      </g>
     </g>
    </g>
    <g id="ytick_3">
     <g id="line2d_19">
      <g>
       <use xlink:href="#m80e85e56fb" x="57.6" y="196.270052" style="stroke: #000000; stroke-width: 0.8"/>
      </g>
     </g>
     <g id="text_6">
      <!-- $\mathdefault{10^{-18}}$ -->
      <g transform="translate(27.1 200.020052)scale(0.1 -0.1)">
       <defs>
        <path id="Roboto-Regular-38" d="M 3244 1231 
Q 3244 606 2826 271 
Q 2409 -63 1796 -63 
Q 1184 -63 767 271 
Q 350 606 350 1231 
Q 350 1613 554 1905 
Q 759 2197 1109 2347 
Q 806 2494 629 2762 
Q 453 3031 453 3366 
Q 453 3963 833 4288 
Q 1213 4613 1794 4613 
Q 2378 4613 2758 4288 
Q 3138 3963 3138 3366 
Q 3138 3028 2956 2761 
Q 2775 2494 2472 2347 
Q 2825 2197 3034 1903 
Q 3244 1609 3244 1231 
z
M 2559 3356 
Q 2559 3697 2346 3917 
Q 2134 4138 1793 4138 
Q 1453 4138 1243 3927 
Q 1034 3716 1034 3356 
Q 1034 3003 1243 2790 
Q 1453 2578 1797 2578 
Q 2138 2578 2348 2790 
Q 2559 3003 2559 3356 
z
M 2663 1244 
Q 2663 1625 2420 1865 
Q 2178 2106 1791 2106 
Q 1394 2106 1161 1865 
Q 928 1625 928 1244 
Q 928 850 1161 631 
Q 1394 413 1797 413 
Q 2200 413 2431 631 
Q 2663 850 2663 1244 
z
" transform="scale(0.015625)"/>
       </defs>
       <use xlink:href="#Roboto-Regular-31" transform="translate(0 0.565625)"/>
       <use xlink:href="#Roboto-Regular-30" transform="translate(56.201172 0.565625)"/>
       <use xlink:href="#Roboto-Regular-2212" transform="translate(113.326836 37.545313)scale(0.7)"/>
       <use xlink:href="#Roboto-Regular-31" transform="translate(153.35125 37.545313)scale(0.7)"/>
       <use xlink:href="#Roboto-Regular-38" transform="translate(192.69207 37.545313)scale(0.7)"/>
      </g>
     </g>
    </g>
    <g id="ytick_4">
     <g id="line2d_20">
      <g>
       <use xlink:href="#m80e85e56fb" x="57.6" y="140.613078" style="stroke: #000000; stroke-width: 0.8"/>
      </g>
     </g>
     <g id="text_7">
      <!-- $\mathdefault{10^{-16}}$ -->
      <g transform="translate(27.1 144.363078)scale(0.1 -0.1)">
       <defs>
        <path id="Roboto-Regular-36" d="M 3291 1484 
Q 3291 838 2930 387 
Q 2569 -63 1878 -63 
Q 1388 -63 1063 198 
Q 738 459 577 861 
Q 416 1263 416 1684 
L 416 1956 
Q 416 2597 595 3194 
Q 775 3791 1247 4173 
Q 1719 4556 2597 4556 
L 2647 4556 
L 2647 4066 
Q 2041 4066 1705 3853 
Q 1369 3641 1205 3302 
Q 1041 2963 1006 2575 
Q 1369 2984 1984 2984 
Q 2438 2984 2727 2765 
Q 3016 2547 3153 2201 
Q 3291 1856 3291 1484 
z
M 997 1666 
Q 997 1059 1267 737 
Q 1538 416 1878 416 
Q 2278 416 2498 708 
Q 2719 1000 2719 1456 
Q 2719 1863 2516 2184 
Q 2313 2506 1891 2506 
Q 1588 2506 1341 2325 
Q 1094 2144 997 1884 
L 997 1666 
z
" transform="scale(0.015625)"/>
       </defs>
       <use xlink:href="#Roboto-Regular-31" transform="translate(0 0.98125)"/>
       <use xlink:href="#Roboto-Regular-30" transform="translate(56.201172 0.98125)"/>
       <use xlink:href="#Roboto-Regular-2212" transform="translate(113.326836 37.960938)scale(0.7)"/>
       <use xlink:href="#Roboto-Regular-31" transform="translate(153.35125 37.960938)scale(0.7)"/>
       <use xlink:href="#Roboto-Regular-36" transform="translate(192.69207 37.960938)scale(0.7)"/>
      </g>
     </g>
    </g>
    <g id="ytick_5">
     <g id="line2d_21">
      <g>
       <use xlink:href="#m80e85e56fb" x="57.6" y="84.956104" style="stroke: #000000; stroke-width: 0.8"/>
      </g>
     </g>
     <g id="text_8">
      <!-- $\mathdefault{10^{-14}}$ -->
      <g transform="translate(27.1 88.706104)scale(0.1 -0.1)">
       <defs>
        <path id="Roboto-Regular-34" d="M 166 1397 
L 2203 4550 
L 2819 4550 
L 2819 1531 
L 3453 1531 
L 3453 1056 
L 2819 1056 
L 2819 0 
L 2241 0 
L 2241 1056 
L 166 1056 
L 166 1397 
z
M 822 1531 
L 2241 1531 
L 2241 3766 
L 2169 3638 
L 822 1531 
z
" transform="scale(0.015625)"/>
       </defs>
       <use xlink:href="#Roboto-Regular-31" transform="translate(0 0.98125)"/>
       <use xlink:href="#Roboto-Regular-30" transform="translate(56.201172 0.98125)"/>
       <use xlink:href="#Roboto-Regular-2212" transform="translate(113.326836 37.960938)scale(0.7)"/>
       <use xlink:href="#Roboto-Regular-31" transform="translate(153.35125 37.960938)scale(0.7)"/>
       <use xlink:href="#Roboto-Regular-34" transform="translate(192.69207 37.960938)scale(0.7)"/>
      </g>
     </g>
    </g>
    <g id="text_9">
     <!-- Intensity (ph cm$^5$ s$^{-1}$ bin$^{-1}$) -->
     <g transform="translate(20.8 234.278)rotate(-90)scale(0.1 -0.1)">
      <defs>
       <path id="Roboto-Regular-49" d="M 1175 4550 
L 1175 0 
L 572 0 
L 572 4550 
L 1175 4550 
z
" transform="scale(0.015625)"/>
       <path id="Roboto-Regular-74" d="M 1872 0 
Q 1675 -63 1425 -63 
Q 1103 -63 875 134 
Q 647 331 647 841 
L 647 2938 
L 28 2938 
L 28 3381 
L 647 3381 
L 647 4203 
L 1225 4203 
L 1225 3381 
L 1856 3381 
L 1856 2938 
L 1225 2938 
L 1225 838 
Q 1225 578 1337 506 
Q 1450 434 1597 434 
Q 1706 434 1869 472 
L 1872 0 
z
" transform="scale(0.015625)"/>
       <path id="Roboto-Regular-73" d="M 2409 897 
Q 2409 1081 2273 1229 
Q 2138 1378 1647 1478 
Q 1081 1594 747 1814 
Q 413 2034 413 2456 
Q 413 2856 755 3150 
Q 1097 3444 1666 3444 
Q 2272 3444 2612 3134 
Q 2953 2825 2953 2388 
L 2375 2388 
Q 2375 2597 2190 2783 
Q 2006 2969 1666 2969 
Q 1306 2969 1150 2812 
Q 994 2656 994 2472 
Q 994 2288 1139 2173 
Q 1284 2059 1756 1953 
Q 2378 1813 2683 1584 
Q 2988 1356 2988 941 
Q 2988 494 2630 215 
Q 2272 -63 1681 -63 
Q 1009 -63 653 281 
Q 297 625 297 1044 
L 878 1044 
Q 897 684 1155 548 
Q 1413 413 1681 413 
Q 2034 413 2221 550 
Q 2409 688 2409 897 
z
" transform="scale(0.015625)"/>
       <path id="Roboto-Regular-69" d="M 444 4278 
Q 444 4419 530 4516 
Q 616 4613 784 4613 
Q 950 4613 1039 4516 
Q 1128 4419 1128 4278 
Q 1128 4144 1039 4048 
Q 950 3953 784 3953 
Q 616 3953 530 4048 
Q 444 4144 444 4278 
z
M 1069 3381 
L 1069 0 
L 488 0 
L 488 3381 
L 1069 3381 
z
" transform="scale(0.015625)"/>
       <path id="Roboto-Regular-70" d="M 1984 -63 
Q 1375 -63 1019 328 
L 1019 -1300 
L 438 -1300 
L 438 3381 
L 969 3381 
L 997 3009 
Q 1353 3444 1975 3444 
Q 2616 3444 2956 2969 
Q 3297 2494 3297 1719 
L 3297 1653 
Q 3297 913 2955 425 
Q 2613 -63 1984 -63 
z
M 1806 2956 
Q 1281 2956 1019 2491 
L 1019 872 
Q 1284 413 1813 413 
Q 2281 413 2498 781 
Q 2716 1150 2716 1653 
L 2716 1719 
Q 2716 2222 2498 2589 
Q 2281 2956 1806 2956 
z
" transform="scale(0.015625)"/>
       <path id="Roboto-Regular-68" d="M 1844 2956 
Q 1566 2956 1353 2806 
Q 1141 2656 1019 2416 
L 1019 0 
L 441 0 
L 441 4800 
L 1019 4800 
L 1019 2978 
Q 1403 3444 2016 3444 
Q 2513 3444 2805 3166 
Q 3097 2888 3100 2231 
L 3100 0 
L 2519 0 
L 2519 2222 
Q 2519 2619 2345 2787 
Q 2172 2956 1844 2956 
z
" transform="scale(0.015625)"/>
       <path id="Roboto-Regular-63" d="M 1794 413 
Q 2103 413 2336 597 
Q 2569 781 2591 1069 
L 3141 1069 
Q 3119 616 2725 276 
Q 2331 -63 1794 -63 
Q 1031 -63 661 440 
Q 291 944 291 1625 
L 291 1756 
Q 291 2438 661 2941 
Q 1031 3444 1794 3444 
Q 2388 3444 2753 3092 
Q 3119 2741 3141 2219 
L 2591 2219 
Q 2569 2531 2355 2750 
Q 2141 2969 1794 2969 
Q 1438 2969 1236 2787 
Q 1034 2606 951 2328 
Q 869 2050 869 1756 
L 869 1625 
Q 869 1328 950 1050 
Q 1031 772 1232 592 
Q 1434 413 1794 413 
z
" transform="scale(0.015625)"/>
       <path id="Roboto-Regular-6d" d="M 1794 2956 
Q 1225 2956 1016 2478 
L 1016 0 
L 434 0 
L 434 3381 
L 984 3381 
L 1000 3013 
Q 1366 3444 2000 3444 
Q 2325 3444 2579 3314 
Q 2834 3184 2969 2900 
Q 3138 3144 3408 3294 
Q 3678 3444 4044 3444 
Q 4588 3444 4883 3153 
Q 5178 2863 5178 2222 
L 5178 0 
L 4597 0 
L 4597 2228 
Q 4597 2653 4401 2804 
Q 4206 2956 3875 2956 
Q 3525 2956 3325 2748 
Q 3125 2541 3094 2244 
L 3094 0 
L 2516 0 
L 2516 2225 
Q 2516 2622 2319 2789 
Q 2122 2956 1794 2956 
z
" transform="scale(0.015625)"/>
       <path id="Roboto-Regular-35" d="M 1109 2166 
L 647 2284 
L 875 4550 
L 3209 4550 
L 3209 4016 
L 1366 4016 
L 1228 2778 
Q 1572 2975 1988 2975 
Q 2616 2975 2980 2561 
Q 3344 2147 3344 1450 
Q 3344 797 2987 367 
Q 2631 -63 1903 -63 
Q 1350 -63 947 248 
Q 544 559 481 1197 
L 1031 1197 
Q 1141 413 1903 413 
Q 2313 413 2538 691 
Q 2763 969 2763 1444 
Q 2763 1872 2527 2164 
Q 2291 2456 1853 2456 
Q 1563 2456 1413 2378 
Q 1263 2300 1109 2166 
z
" transform="scale(0.015625)"/>
       <path id="Roboto-Regular-62" d="M 3303 1653 
Q 3303 913 2959 425 
Q 2616 -63 1988 -63 
Q 1347 -63 1000 391 
L 969 0 
L 438 0 
L 438 4800 
L 1019 4800 
L 1019 3016 
Q 1363 3444 1981 3444 
Q 2619 3444 2961 2969 
Q 3303 2494 3303 1719 
L 3303 1653 
z
M 1838 2956 
Q 1522 2956 1325 2804 
Q 1128 2653 1019 2431 
L 1019 959 
Q 1131 734 1331 581 
Q 1531 428 1844 428 
Q 2313 428 2517 789 
Q 2722 1150 2722 1653 
L 2722 1719 
Q 2722 2222 2526 2589 
Q 2331 2956 1838 2956 
z
" transform="scale(0.015625)"/>
      </defs>
      <use xlink:href="#Roboto-Regular-49" transform="translate(0 0.98125)"/>
      <use xlink:href="#Roboto-Regular-6e" transform="translate(27.197266 0.98125)"/>
      <use xlink:href="#Roboto-Regular-74" transform="translate(82.421875 0.98125)"/>
      <use xlink:href="#Roboto-Regular-65" transform="translate(115.136719 0.98125)"/>
      <use xlink:href="#Roboto-Regular-6e" transform="translate(168.164062 0.98125)"/>
      <use xlink:href="#Roboto-Regular-73" transform="translate(223.388672 0.98125)"/>
      <use xlink:href="#Roboto-Regular-69" transform="translate(275 0.98125)"/>
      <use xlink:href="#Roboto-Regular-74" transform="translate(299.316406 0.98125)"/>
      <use xlink:href="#Roboto-Regular-79" transform="translate(332.03125 0.98125)"/>
      <use xlink:href="#Roboto-Regular-20" transform="translate(379.345703 0.98125)"/>
      <use xlink:href="#Roboto-Regular-28" transform="translate(404.150391 0.98125)"/>
      <use xlink:href="#Roboto-Regular-70" transform="translate(438.378906 0.98125)"/>
      <use xlink:href="#Roboto-Regular-68" transform="translate(494.53125 0.98125)"/>
      <use xlink:href="#Roboto-Regular-20" transform="translate(549.609375 0.98125)"/>
      <use xlink:href="#Roboto-Regular-63" transform="translate(574.414062 0.98125)"/>
      <use xlink:href="#Roboto-Regular-6d" transform="translate(626.757812 0.98125)"/>
      <use xlink:href="#Roboto-Regular-35" transform="translate(715.377617 37.960938)scale(0.7)"/>
      <use xlink:href="#Roboto-Regular-20" transform="translate(757.359844 0.98125)"/>
      <use xlink:href="#Roboto-Regular-73" transform="translate(782.164531 0.98125)"/>
      <use xlink:href="#Roboto-Regular-2212" transform="translate(834.700352 37.960938)scale(0.7)"/>
      <use xlink:href="#Roboto-Regular-31" transform="translate(874.724766 37.960938)scale(0.7)"/>
      <use xlink:href="#Roboto-Regular-20" transform="translate(916.706992 0.98125)"/>
      <use xlink:href="#Roboto-Regular-62" transform="translate(941.51168 0.98125)"/>
      <use xlink:href="#Roboto-Regular-69" transform="translate(997.664023 0.98125)"/>
      <use xlink:href="#Roboto-Regular-6e" transform="translate(1021.98043 0.98125)"/>
      <use xlink:href="#Roboto-Regular-2212" transform="translate(1078.129531 37.960938)scale(0.7)"/>
      <use xlink:href="#Roboto-Regular-31" transform="translate(1118.153945 37.960938)scale(0.7)"/>
      <use xlink:href="#Roboto-Regular-29" transform="translate(1160.136172 0.98125)"/>
     </g>
    </g>
   </g>
   <g id="line2d_22">
    <path d="M 73.832727 104.151033 
L 77.802695 104.151033 
L 77.802695 91.768434 
L 81.591389 91.768434 
L 81.591389 102.598864 
L 85.214644 102.598864 
L 85.214644 91.520477 
L 88.686304 91.520477 
L 88.686304 87.934221 
L 92.018547 87.934221 
L 92.018547 93.99075 
L 95.222141 93.99075 
L 95.222141 98.2023 
L 98.306649 98.2023 
L 98.306649 103.728265 
L 101.280611 103.728265 
L 101.280611 99.187152 
L 104.151675 99.187152 
L 104.151675 94.862062 
L 106.926725 94.862062 
L 106.926725 100.385855 
L 109.611975 100.385855 
L 109.611975 101.789543 
L 112.213056 101.789543 
L 112.213056 101.017712 
L 114.735084 101.017712 
L 114.735084 99.054525 
L 117.182722 99.054525 
L 117.182722 101.206016 
L 119.560235 101.206016 
L 119.560235 98.71221 
L 121.871528 98.71221 
L 121.871528 105.307815 
L 124.12019 105.307815 
L 124.12019 110.607116 
L 128.442587 110.57963 
L 128.442587 102.521241 
L 130.522193 102.521241 
L 130.522193 110.782736 
L 132.550958 110.782736 
L 132.550958 96.167295 
L 134.531309 96.167295 
L 134.531309 115.566675 
L 136.465502 115.566675 
L 136.465502 115.775959 
L 138.35564 115.775959 
L 138.35564 119.197503 
L 140.203686 119.197503 
L 140.203686 109.472918 
L 142.011473 109.472918 
L 142.011473 117.257597 
L 143.780719 117.257597 
L 143.780719 113.785357 
L 145.513032 113.785357 
L 145.513032 126.160595 
L 147.209923 126.160595 
L 147.209923 123.492632 
L 148.872811 123.492632 
L 148.872811 118.585316 
L 150.503032 118.585316 
L 150.503032 121.455559 
L 152.101846 121.455559 
L 152.101846 121.593222 
L 153.670439 121.593222 
L 153.670439 123.18412 
L 155.209933 123.18412 
L 155.209933 130.959082 
L 156.721388 130.959082 
L 156.721388 133.924157 
L 158.205807 133.924157 
L 158.205807 127.182063 
L 159.66414 127.182063 
L 159.66414 131.999235 
L 161.097288 131.999235 
L 161.097288 139.869758 
L 162.506106 139.869758 
L 162.506106 131.048293 
L 163.891407 131.048293 
L 163.891407 117.691576 
L 165.253963 117.691576 
L 165.253963 145.028722 
L 166.594509 145.028722 
L 166.594509 118.365145 
L 167.913744 118.365145 
L 167.913744 147.179179 
L 169.212336 147.179179 
L 169.212336 138.129426 
L 170.49092 138.129426 
L 170.49092 142.433632 
L 171.750104 142.433632 
L 171.750104 148.821551 
L 172.990468 148.821551 
L 172.990468 144.232827 
L 174.212566 144.232827 
L 174.212566 151.867884 
L 175.416928 151.867884 
L 175.416928 155.657129 
L 176.604061 155.657129 
L 176.604061 144.399713 
L 177.774453 144.399713 
L 177.774453 134.583217 
L 178.928567 134.583217 
L 178.928567 153.935511 
L 180.066851 153.935511 
L 180.066851 150.428075 
L 181.189734 150.428075 
L 181.189734 107.875566 
L 182.297626 107.875566 
L 182.297626 149.594784 
L 183.390922 149.594784 
L 183.390922 153.566165 
L 184.470002 153.566165 
L 184.470002 154.553409 
L 185.535232 154.553409 
L 185.535232 155.624824 
L 186.586961 155.624824 
L 186.586961 154.77195 
L 187.625528 154.77195 
L 187.625528 159.315156 
L 188.651259 159.315156 
L 188.651259 156.102434 
L 189.664466 156.102434 
L 189.664466 146.424872 
L 190.665452 146.424872 
L 190.665452 162.494242 
L 191.654508 162.494242 
L 191.654508 163.659282 
L 192.631916 163.659282 
L 192.631916 131.34663 
L 193.597946 131.34663 
L 193.597946 150.443709 
L 194.55286 150.443709 
L 194.55286 128.779266 
L 195.496911 128.779266 
L 195.496911 133.211539 
L 196.430344 133.211539 
L 196.430344 165.489747 
L 197.353394 165.489747 
L 197.353394 163.712921 
L 198.266291 163.712921 
L 198.266291 166.809908 
L 199.169254 166.809908 
L 199.169254 167.819833 
L 200.062499 167.819833 
L 200.062499 140.803833 
L 200.946232 140.803833 
L 200.946232 168.803462 
L 201.820652 168.803462 
L 201.820652 149.029198 
L 202.685956 149.029198 
L 202.685956 154.434438 
L 203.54233 154.434438 
L 203.54233 158.829183 
L 204.389958 158.829183 
L 204.389958 154.710286 
L 205.229015 154.710286 
L 205.229015 158.229242 
L 206.059674 158.229242 
L 206.059674 161.134205 
L 206.882101 161.134205 
L 206.882101 130.860219 
L 207.696457 130.860219 
L 207.696457 163.135048 
L 208.5029 163.135048 
L 208.5029 164.560754 
L 209.301582 164.560754 
L 209.301582 165.519144 
L 210.092651 165.519144 
L 210.092651 166.523804 
L 210.87625 166.523804 
L 210.87625 158.772362 
L 211.652519 158.772362 
L 211.652519 168.455705 
L 212.421594 168.455705 
L 212.421594 161.108534 
L 213.183608 161.108534 
L 213.183608 167.56375 
L 213.938688 167.56375 
L 213.938688 167.771627 
L 214.68696 167.771627 
L 214.68696 170.885109 
L 215.428546 170.885109 
L 215.428546 169.591873 
L 216.163563 169.591873 
L 216.163563 158.685773 
L 216.892127 158.685773 
L 216.892127 114.359143 
L 217.614352 114.359143 
L 217.614352 131.428617 
L 218.330344 131.428617 
L 218.330344 110.705716 
L 219.040213 110.705716 
L 219.040213 177.009216 
L 219.744061 177.009216 
L 219.744061 178.44992 
L 220.441989 178.44992 
L 220.441989 179.157609 
L 221.134097 179.157609 
L 221.134097 159.018784 
L 221.820481 159.018784 
L 221.820481 180.946854 
L 222.501234 180.946854 
L 222.501234 181.649361 
L 223.176449 181.649361 
L 223.176449 182.688168 
L 223.846214 182.688168 
L 223.846214 183.544241 
L 224.510617 183.544241 
L 224.510617 184.398329 
L 225.169743 184.398329 
L 225.169743 185.255768 
L 225.823675 185.255768 
L 225.823675 167.197469 
L 226.472495 167.197469 
L 226.472495 185.411013 
L 227.116281 185.411013 
L 227.116281 174.926696 
L 227.755112 174.926696 
L 227.755112 167.251084 
L 228.389063 167.251084 
L 228.389063 176.114929 
L 229.018207 176.114929 
L 229.018207 134.030956 
L 229.642618 134.030956 
L 229.642618 168.342128 
L 230.262366 168.342128 
L 230.262366 179.261643 
L 230.87752 179.261643 
L 230.87752 136.337807 
L 231.488148 136.337807 
L 231.488148 187.114678 
L 232.094316 187.114678 
L 232.094316 183.024526 
L 232.696088 183.024526 
L 232.696088 186.608547 
L 233.293527 186.608547 
L 233.293527 185.780774 
L 233.886697 185.780774 
L 233.886697 189.488253 
L 234.475657 189.488253 
L 234.475657 149.7403 
L 235.060467 149.7403 
L 235.060467 192.251189 
L 235.641184 192.251189 
L 235.641184 193.204946 
L 236.217866 193.204946 
L 236.217866 193.964591 
L 236.790568 193.964591 
L 236.790568 158.367987 
L 237.359346 158.367987 
L 237.359346 165.604454 
L 238.485337 165.539211 
L 238.485337 174.967746 
L 239.042655 174.967746 
L 239.042655 177.190376 
L 239.596256 177.190376 
L 239.596256 171.078692 
L 240.146188 171.078692 
L 240.146188 169.734716 
L 240.6925 169.734716 
L 240.6925 170.899455 
L 241.235239 170.899455 
L 241.235239 171.73678 
L 241.774451 171.73678 
L 241.774451 173.785603 
L 242.310183 173.785603 
L 242.310183 174.545976 
L 242.842478 174.545976 
L 242.842478 176.141949 
L 243.371381 176.141949 
L 243.371381 159.134711 
L 243.896935 159.134711 
L 243.896935 178.43328 
L 244.419181 178.43328 
L 244.419181 179.39914 
L 244.938161 179.39914 
L 244.938161 180.569319 
L 245.453916 180.569319 
L 245.453916 181.66377 
L 245.966486 181.66377 
L 245.966486 182.635817 
L 246.475909 182.635817 
L 246.475909 183.648385 
L 246.982224 183.648385 
L 246.982224 184.831587 
L 247.485468 184.831587 
L 247.485468 185.660948 
L 247.98568 185.660948 
L 247.98568 168.040328 
L 248.482894 168.040328 
L 248.482894 187.390638 
L 248.977148 187.390638 
L 248.977148 188.447292 
L 249.468475 188.447292 
L 249.468475 189.429812 
L 249.95691 189.429812 
L 249.95691 176.136885 
L 250.442488 176.136885 
L 250.442488 191.267585 
L 250.92524 191.267585 
L 250.92524 181.510236 
L 251.405201 181.510236 
L 251.405201 185.113395 
L 251.882402 185.113395 
L 251.882402 187.825681 
L 252.356875 187.825681 
L 252.356875 187.14908 
L 252.82865 187.14908 
L 252.82865 191.457122 
L 253.297759 191.457122 
L 253.297759 190.63506 
L 253.764231 190.63506 
L 253.764231 190.224787 
L 254.228095 190.224787 
L 254.228095 191.415929 
L 254.689381 191.415929 
L 254.689381 192.473081 
L 255.148117 192.473081 
L 255.148117 193.085966 
L 256.058052 193.124219 
L 256.058052 195.251103 
L 256.509305 195.251103 
L 256.509305 160.549139 
L 256.958118 160.549139 
L 256.958118 194.328079 
L 257.404516 194.328079 
L 257.404516 174.471217 
L 257.848526 174.471217 
L 257.848526 157.046826 
L 258.290173 157.046826 
L 258.290173 199.643617 
L 258.729483 199.643617 
L 258.729483 200.650909 
L 259.166479 200.650909 
L 259.166479 201.423161 
L 259.601185 201.423161 
L 259.601185 202.325372 
L 260.033627 202.325372 
L 260.033627 203.040033 
L 260.463827 203.040033 
L 260.463827 203.764662 
L 260.891809 203.764662 
L 260.891809 204.479903 
L 261.317594 204.479903 
L 261.317594 205.234439 
L 261.741207 205.234439 
L 261.741207 206.01789 
L 262.162668 206.01789 
L 262.162668 206.773733 
L 262.581999 206.773733 
L 262.581999 207.431227 
L 262.999222 207.431227 
L 262.999222 208.066654 
L 263.414358 208.066654 
L 263.414358 208.731413 
L 263.827428 208.731413 
L 263.827428 209.401571 
L 264.238452 209.401571 
L 264.238452 210.063794 
L 264.64745 210.063794 
L 264.64745 210.749287 
L 265.054442 210.749287 
L 265.054442 211.061821 
L 265.459449 211.061821 
L 265.459449 211.568346 
L 265.862488 211.568346 
L 265.862488 212.566921 
L 266.662741 212.477309 
L 266.662741 206.998091 
L 267.059993 206.998091 
L 267.059993 213.476256 
L 267.455352 213.476256 
L 267.455352 215.02211 
L 267.848836 215.02211 
L 267.848836 204.576935 
L 268.240464 204.576935 
L 268.240464 215.126364 
L 268.630252 215.126364 
L 268.630252 214.01617 
L 269.018218 214.01617 
L 269.018218 216.742131 
L 269.404378 216.742131 
L 269.404378 217.789315 
L 269.78875 217.789315 
L 269.78875 217.930003 
L 270.17135 217.930003 
L 270.17135 218.553275 
L 270.552195 218.553275 
L 270.552195 185.964614 
L 270.931299 185.964614 
L 270.931299 219.959869 
L 271.30868 219.959869 
L 271.30868 214.474482 
L 271.684352 214.474482 
L 271.684352 217.329238 
L 272.058331 217.329238 
L 272.058331 221.593095 
L 272.430633 221.593095 
L 272.430633 220.740589 
L 272.801271 220.740589 
L 272.801271 218.645666 
L 273.170262 218.645666 
L 273.170262 220.938738 
L 273.903358 220.855195 
L 273.903358 220.686202 
L 274.267492 220.686202 
L 274.267492 223.145658 
L 274.630035 223.145658 
L 274.630035 199.502554 
L 274.991001 199.502554 
L 274.991001 223.928461 
L 275.350404 223.928461 
L 275.350404 224.844424 
L 275.708257 224.844424 
L 275.708257 226.155769 
L 276.064573 226.155769 
L 276.064573 226.770854 
L 276.419367 226.770854 
L 276.419367 207.976689 
L 276.77265 207.976689 
L 276.77265 227.832672 
L 277.124435 227.832672 
L 277.124435 228.288288 
L 277.474735 228.288288 
L 277.474735 214.471903 
L 277.823564 214.471903 
L 277.823564 228.901117 
L 278.170931 228.901117 
L 278.170931 214.904012 
L 278.516851 214.904012 
L 278.516851 221.427105 
L 278.861336 221.427105 
L 278.861336 227.610663 
L 279.204396 227.610663 
L 279.204396 224.614859 
L 279.546043 224.614859 
L 279.546043 220.343503 
L 279.88629 220.343503 
L 279.88629 218.382914 
L 280.225148 218.382914 
L 280.225148 219.364971 
L 280.562628 219.364971 
L 280.562628 219.171464 
L 280.898741 219.171464 
L 280.898741 221.079286 
L 281.233498 221.079286 
L 281.233498 222.235377 
L 281.56691 222.235377 
L 281.56691 223.142208 
L 281.898988 223.142208 
L 281.898988 224.089003 
L 282.229743 224.089003 
L 282.229743 224.883499 
L 282.559185 224.883499 
L 282.559185 225.640338 
L 282.887324 225.640338 
L 282.887324 226.393774 
L 283.21417 226.393774 
L 283.21417 227.237444 
L 283.539735 227.237444 
L 283.539735 227.971885 
L 283.864027 227.971885 
L 283.864027 228.693316 
L 284.187057 228.693316 
L 284.187057 229.460173 
L 284.508834 229.460173 
L 284.508834 229.765568 
L 284.829369 229.765568 
L 284.829369 230.710436 
L 285.14867 230.710436 
L 285.14867 230.069109 
L 285.466747 230.069109 
L 285.466747 232.067068 
L 285.78361 232.067068 
L 285.78361 231.595679 
L 286.099268 231.595679 
L 286.099268 232.69277 
L 286.41373 232.69277 
L 286.41373 233.956602 
L 286.727005 233.956602 
L 286.727005 229.919869 
L 287.039101 229.919869 
L 287.039101 231.865076 
L 287.350028 231.865076 
L 287.350028 235.182656 
L 287.659795 235.182656 
L 287.659795 228.456271 
L 287.96841 228.456271 
L 287.96841 229.532046 
L 288.275881 229.532046 
L 288.275881 236.326824 
L 288.582217 236.326824 
L 288.582217 211.260067 
L 288.887427 211.260067 
L 288.887427 220.751661 
L 289.191518 220.751661 
L 289.191518 222.725484 
L 289.4945 222.725484 
L 289.4945 228.966979 
L 289.796379 228.966979 
L 289.796379 209.595132 
L 290.097163 209.595132 
L 290.097163 240.028872 
L 290.396862 240.028872 
L 290.396862 240.535701 
L 290.695482 240.535701 
L 290.695482 240.227745 
L 290.993032 240.227745 
L 290.993032 241.321038 
L 291.289518 241.321038 
L 291.289518 241.771124 
L 291.58495 241.771124 
L 291.58495 242.227004 
L 291.879333 242.227004 
L 291.879333 242.669814 
L 292.172675 242.669814 
L 292.172675 243.110991 
L 292.464985 243.110991 
L 292.464985 243.560478 
L 292.756268 243.560478 
L 292.756268 243.994976 
L 293.046532 243.994976 
L 293.046532 244.378859 
L 293.335785 244.378859 
L 293.335785 244.771483 
L 293.624033 244.771483 
L 293.624033 245.214801 
L 293.911284 245.214801 
L 293.911284 245.631857 
L 294.197543 245.631857 
L 294.197543 246.048107 
L 294.482819 246.048107 
L 294.482819 246.453696 
L 294.767117 246.453696 
L 294.767117 246.839362 
L 295.050445 246.839362 
L 295.050445 247.209286 
L 295.332809 247.209286 
L 295.332809 247.598033 
L 295.614215 247.598033 
L 295.614215 247.939841 
L 295.89467 247.939841 
L 295.89467 248.308105 
L 296.174181 248.308105 
L 296.174181 248.687917 
L 296.452753 248.687917 
L 296.452753 249.061229 
L 296.730394 249.061229 
L 296.730394 249.294525 
L 297.282903 249.367051 
L 297.282903 250.070634 
L 297.557785 250.070634 
L 297.557785 250.493981 
L 297.831759 250.493981 
L 297.831759 250.84149 
L 298.104832 250.84149 
L 298.104832 251.161062 
L 298.377009 251.161062 
L 298.377009 250.686467 
L 298.648296 250.686467 
L 298.648296 251.78145 
L 299.188224 251.676338 
L 299.188224 252.251684 
L 299.456877 252.251684 
L 299.456877 252.888424 
L 299.724663 252.888424 
L 299.724663 252.469464 
L 300.257656 252.463113 
L 300.257656 248.207732 
L 300.522874 248.207732 
L 300.522874 246.464813 
L 300.787248 246.464813 
L 300.787248 252.466856 
L 301.050782 252.466856 
L 301.050782 250.497421 
L 301.313481 250.497421 
L 301.313481 254.484879 
L 301.575352 254.484879 
L 301.575352 254.715731 
L 301.836399 254.715731 
L 301.836399 254.591784 
L 302.096628 254.591784 
L 302.096628 255.704656 
L 302.356043 255.704656 
L 302.356043 255.89336 
L 302.614649 255.89336 
L 302.614649 238.843505 
L 302.872453 238.843505 
L 302.872453 256.19671 
L 303.129457 256.19671 
L 303.129457 256.999338 
L 303.385669 256.999338 
L 303.385669 257.405671 
L 303.641092 257.405671 
L 303.641092 256.468463 
L 303.895731 256.468463 
L 303.895731 254.148434 
L 304.149591 254.148434 
L 304.149591 257.569424 
L 304.402677 257.569424 
L 304.402677 255.106313 
L 304.654994 255.106313 
L 304.654994 259.054659 
L 304.906546 259.054659 
L 304.906546 258.324454 
L 305.157337 258.324454 
L 305.157337 259.657783 
L 305.656658 259.760712 
L 305.656658 257.545549 
L 305.905196 257.545549 
L 305.905196 258.559311 
L 306.152993 258.559311 
L 306.152993 260.928031 
L 306.400051 260.928031 
L 306.400051 259.43 
L 306.646376 259.43 
L 306.646376 260.808891 
L 306.891973 260.808891 
L 306.891973 250.164382 
L 307.136844 250.164382 
L 307.136844 261.3754 
L 307.380995 261.3754 
L 307.380995 260.612674 
L 307.62443 260.612674 
L 307.62443 261.499337 
L 307.867153 261.499337 
L 307.867153 262.339926 
L 308.35048 262.333835 
L 308.35048 262.89466 
L 308.591092 262.89466 
L 308.591092 257.022628 
L 308.831008 257.022628 
L 308.831008 263.917637 
L 309.070232 263.917637 
L 309.070232 264.095143 
L 309.308769 264.095143 
L 309.308769 264.551401 
L 309.546623 264.551401 
L 309.546623 260.768009 
L 309.783796 260.768009 
L 309.783796 265.130459 
L 310.020294 265.130459 
L 310.020294 262.727764 
L 310.25612 262.727764 
L 310.25612 265.634264 
L 310.491277 265.634264 
L 310.491277 264.009729 
L 310.72577 264.009729 
L 310.72577 264.929141 
L 310.959602 264.929141 
L 310.959602 265.560673 
L 311.192778 265.560673 
L 311.192778 266.092386 
L 311.425299 266.092386 
L 311.425299 264.144311 
L 311.657172 264.144311 
L 311.657172 265.625788 
L 311.888398 265.625788 
L 311.888398 263.229148 
L 312.118982 263.229148 
L 312.118982 260.065555 
L 312.348926 260.065555 
L 312.348926 260.516436 
L 312.578236 260.516436 
L 312.578236 264.724616 
L 312.806914 264.724616 
L 312.806914 265.11062 
L 313.034963 265.11062 
L 313.034963 256.950976 
L 313.262387 256.950976 
L 313.262387 263.129629 
L 313.48919 263.129629 
L 313.48919 266.656754 
L 313.940944 266.554687 
L 313.940944 260.483448 
L 314.165902 260.483448 
L 314.165902 267.747096 
L 314.390253 267.747096 
L 314.390253 268.301081 
L 314.837142 268.241167 
L 314.837142 267.16774 
L 315.059687 267.16774 
L 315.059687 269.056626 
L 315.281637 269.056626 
L 315.281637 269.366804 
L 315.502995 269.366804 
L 315.502995 269.899824 
L 315.723764 269.899824 
L 315.723764 269.729133 
L 315.943948 269.729133 
L 315.943948 270.656262 
L 316.163549 270.656262 
L 316.163549 271.030683 
L 316.38257 271.030683 
L 316.38257 271.274035 
L 316.818886 271.223027 
L 316.818886 272.055659 
L 317.036187 272.055659 
L 317.036187 272.365137 
L 317.25292 272.365137 
L 317.25292 272.655586 
L 317.469089 272.655586 
L 317.469089 272.917205 
L 317.684696 272.917205 
L 317.684696 273.212928 
L 317.899745 273.212928 
L 317.899745 273.501184 
L 318.114238 273.501184 
L 318.114238 273.720409 
L 318.328177 273.720409 
L 318.328177 274.027579 
L 318.541567 274.027579 
L 318.541567 274.221227 
L 318.754409 274.221227 
L 318.754409 274.567381 
L 318.966707 274.567381 
L 318.966707 274.823277 
L 319.178463 274.823277 
L 319.178463 274.963013 
L 319.38968 274.963013 
L 319.38968 275.357699 
L 319.600361 275.357699 
L 319.600361 275.626878 
L 319.810509 275.626878 
L 319.810509 275.872875 
L 320.020126 275.872875 
L 320.020126 276.183913 
L 320.229214 276.183913 
L 320.229214 276.422887 
L 320.437777 276.422887 
L 320.437777 276.724314 
L 320.645817 276.724314 
L 320.645817 276.958806 
L 320.853338 276.958806 
L 320.853338 276.845129 
L 321.06034 276.845129 
L 321.06034 277.431936 
L 321.472802 277.508698 
L 321.472802 277.94403 
L 321.678267 277.94403 
L 321.678267 278.194235 
L 321.883225 278.194235 
L 321.883225 278.433265 
L 322.087677 278.433265 
L 322.087677 278.685722 
L 322.291627 278.685722 
L 322.291627 278.935281 
L 322.495077 278.935281 
L 322.495077 279.143406 
L 322.900487 279.159123 
L 322.900487 279.613317 
L 323.102452 279.613317 
L 323.102452 279.768936 
L 323.303926 279.768936 
L 323.303926 280.11088 
L 323.504913 280.11088 
L 323.504913 280.317281 
L 323.705414 280.317281 
L 323.705414 280.562674 
L 323.905431 280.562674 
L 323.905431 280.807003 
L 324.104968 280.807003 
L 324.104968 281.01272 
L 324.304026 281.01272 
L 324.304026 281.260163 
L 324.502608 281.260163 
L 324.502608 281.416121 
L 324.898352 281.418767 
L 324.898352 281.915065 
L 325.095518 281.915065 
L 325.095518 282.163169 
L 325.292217 282.163169 
L 325.292217 282.376376 
L 325.488451 282.376376 
L 325.488451 282.639711 
L 325.684222 282.639711 
L 325.684222 282.868881 
L 325.879533 282.868881 
L 325.879533 283.047285 
L 326.074384 283.047285 
L 326.074384 283.280947 
L 326.26878 283.280947 
L 326.26878 283.548227 
L 326.462721 283.548227 
L 326.462721 283.719416 
L 326.65621 283.719416 
L 326.65621 284.022106 
L 326.849248 284.022106 
L 326.849248 284.246126 
L 327.041839 284.246126 
L 327.041839 284.464446 
L 327.233984 284.464446 
L 327.233984 284.690185 
L 327.425685 284.690185 
L 327.425685 284.918642 
L 327.616945 284.918642 
L 327.616945 285.066558 
L 327.807764 285.066558 
L 327.807764 285.242015 
L 327.998146 285.242015 
L 327.998146 285.562623 
L 328.188092 285.562623 
L 328.188092 285.744215 
L 328.377604 285.744215 
L 328.377604 285.905782 
L 328.566684 285.905782 
L 328.566684 286.187954 
L 328.755335 286.187954 
L 328.755335 286.398352 
L 328.943558 286.398352 
L 328.943558 286.611235 
L 329.131355 286.611235 
L 329.131355 286.792367 
L 329.318727 286.792367 
L 329.318727 287.002743 
L 329.505678 287.002743 
L 329.505678 287.251903 
L 329.692209 287.251903 
L 329.692209 287.395388 
L 329.878321 287.395388 
L 329.878321 287.666906 
L 330.064017 287.666906 
L 330.064017 287.895118 
L 330.249298 287.895118 
L 330.249298 288.10927 
L 330.434166 288.10927 
L 330.434166 288.3248 
L 330.618624 288.3248 
L 330.618624 288.541075 
L 330.802672 288.541075 
L 330.802672 288.764632 
L 330.986313 288.764632 
L 330.986313 288.99303 
L 331.169549 288.99303 
L 331.169549 289.208609 
L 331.352381 289.208609 
L 331.352381 289.388873 
L 331.534811 289.388873 
L 331.534811 289.57736 
L 331.716841 289.57736 
L 331.716841 289.822473 
L 331.898473 289.822473 
L 331.898473 290.055909 
L 332.079708 290.055909 
L 332.079708 290.276421 
L 332.260548 290.276421 
L 332.260548 290.489187 
L 332.440994 290.489187 
L 332.440994 290.706582 
L 332.62105 290.706582 
L 332.62105 290.919488 
L 332.800715 290.919488 
L 332.800715 291.119756 
L 332.979993 291.119756 
L 332.979993 291.284997 
L 333.158883 291.284997 
L 333.158883 291.502342 
L 333.33739 291.502342 
L 333.33739 291.669778 
L 333.515513 291.669778 
L 333.515513 291.888817 
L 333.693254 291.888817 
L 333.693254 292.054773 
L 333.870616 292.054773 
L 333.870616 292.270191 
L 334.047599 292.270191 
L 334.047599 292.475933 
L 334.224206 292.475933 
L 334.224206 292.640455 
L 334.400437 292.640455 
L 334.400437 290.610663 
L 334.576296 290.610663 
L 334.576296 292.854267 
L 334.751782 292.854267 
L 334.751782 293.171789 
L 334.926898 293.171789 
L 334.926898 292.574732 
L 335.101646 292.574732 
L 335.101646 287.526899 
L 335.276026 287.526899 
L 335.276026 293.780098 
L 335.45004 293.780098 
L 335.45004 293.902021 
L 335.623691 293.902021 
L 335.623691 291.444983 
L 335.796978 291.444983 
L 335.796978 291.068406 
L 335.969905 291.068406 
L 335.969905 294.26476 
L 336.142472 294.26476 
L 336.142472 294.906657 
L 336.486534 294.842164 
L 336.486534 293.639709 
L 336.658031 293.639709 
L 336.658031 295.375748 
L 336.829175 295.375748 
L 336.829175 295.730395 
L 336.999966 295.730395 
L 336.999966 295.933523 
L 337.170407 295.933523 
L 337.170407 296.055138 
L 337.340498 296.055138 
L 337.340498 296.222368 
L 337.510242 296.222368 
L 337.510242 296.552274 
L 337.679638 296.552274 
L 337.679638 296.752325 
L 337.84869 296.752325 
L 337.84869 296.929369 
L 338.017399 296.929369 
L 338.017399 297.110889 
L 338.185764 297.110889 
L 338.185764 297.284803 
L 338.35379 297.284803 
L 338.35379 297.472038 
L 338.521475 297.472038 
L 338.521475 297.652533 
L 338.688822 297.652533 
L 338.688822 297.834195 
L 338.855833 297.834195 
L 338.855833 298.00998 
L 339.022508 298.00998 
L 339.022508 298.198185 
L 339.188849 298.198185 
L 339.188849 298.389386 
L 339.354858 298.389386 
L 339.354858 298.583313 
L 339.520535 298.583313 
L 339.520535 298.775778 
L 339.685882 298.775778 
L 339.685882 298.967041 
L 339.8509 298.967041 
L 339.8509 299.161098 
L 340.01559 299.161098 
L 340.01559 299.357085 
L 340.179955 299.357085 
L 340.179955 299.554918 
L 340.343994 299.554918 
L 340.343994 299.753717 
L 340.50771 299.753717 
L 340.50771 299.953898 
L 340.671104 299.953898 
L 340.671104 300.157022 
L 340.834176 300.157022 
L 340.834176 300.344192 
L 340.996929 300.344192 
L 340.996929 300.549161 
L 341.159363 300.549161 
L 341.159363 300.738206 
L 341.32148 300.738206 
L 341.32148 300.929826 
L 341.483281 300.929826 
L 341.483281 301.124164 
L 341.644767 301.124164 
L 341.644767 301.321506 
L 341.805939 301.321506 
L 341.805939 301.521629 
L 341.966799 301.521629 
L 341.966799 301.72425 
L 342.127348 301.72425 
L 342.127348 301.858261 
L 342.287586 301.858261 
L 342.287586 302.108282 
L 342.447516 302.108282 
L 342.447516 302.279184 
L 342.607139 302.279184 
L 342.607139 302.464217 
L 342.766455 302.464217 
L 342.766455 302.636924 
L 342.925465 302.636924 
L 342.925465 302.809658 
L 343.084172 302.809658 
L 343.084172 302.983897 
L 343.242575 302.983897 
L 343.242575 303.159856 
L 343.400677 303.159856 
L 343.400677 303.335209 
L 343.71598 303.343534 
L 343.71598 303.666538 
L 343.873183 303.666538 
L 343.873183 303.815225 
L 344.03009 303.815225 
L 344.03009 304.036113 
L 344.1867 304.036113 
L 344.1867 304.23434 
L 344.343015 304.23434 
L 344.343015 304.421484 
L 344.499036 304.421484 
L 344.499036 304.612266 
L 344.654764 304.612266 
L 344.654764 304.804615 
L 344.810201 304.804615 
L 344.810201 304.994582 
L 345.120204 305.085059 
L 345.120204 305.376914 
L 345.274772 305.376914 
L 345.274772 305.567613 
L 345.429053 305.567613 
L 345.429053 305.705728 
L 345.583047 305.705728 
L 345.583047 305.940753 
L 345.736757 305.940753 
L 345.736757 306.118434 
L 345.890182 306.118434 
L 345.890182 306.315474 
L 346.043324 306.315474 
L 346.043324 306.504184 
L 346.196184 306.504184 
L 346.196184 306.691423 
L 346.348763 306.691423 
L 346.348763 306.886104 
L 346.501062 306.886104 
L 346.501062 307.077967 
L 346.653082 307.077967 
L 346.653082 307.262953 
L 346.804824 307.262953 
L 346.804824 307.440103 
L 346.956289 307.440103 
L 346.956289 307.611775 
L 347.107478 307.611775 
L 347.107478 307.786505 
L 347.258392 307.786505 
L 347.258392 307.958499 
L 347.409033 307.958499 
L 347.409033 308.124579 
L 347.5594 308.124579 
L 347.5594 308.275772 
L 347.709495 308.275772 
L 347.709495 308.460738 
L 347.85932 308.460738 
L 347.85932 308.630172 
L 348.008874 308.630172 
L 348.008874 308.796457 
L 348.158159 308.796457 
L 348.158159 308.972135 
L 348.307176 308.972135 
L 348.307176 309.147333 
L 348.455927 309.147333 
L 348.455927 309.32124 
L 348.604411 309.32124 
L 348.604411 309.500903 
L 348.75263 309.500903 
L 348.75263 309.679404 
L 348.900584 309.679404 
L 348.900584 309.860472 
L 349.048275 309.860472 
L 349.048275 310.043919 
L 349.195704 310.043919 
L 349.195704 310.229971 
L 349.342872 310.229971 
L 349.342872 310.41742 
L 349.489779 310.41742 
L 349.489779 310.605077 
L 349.636426 310.605077 
L 349.636426 310.799205 
L 349.782815 310.799205 
L 349.782815 310.981925 
L 349.928946 310.981925 
L 349.928946 311.157696 
L 350.07482 311.157696 
L 350.07482 311.336957 
L 350.220438 311.336957 
L 350.220438 311.516607 
L 350.365801 311.516607 
L 350.365801 311.69606 
L 350.51091 311.69606 
L 350.51091 311.882953 
L 350.655765 311.882953 
L 350.655765 312.06896 
L 350.800368 312.06896 
L 350.800368 312.257473 
L 350.94472 312.257473 
L 350.94472 312.435845 
L 351.088821 312.435845 
L 351.088821 312.59944 
L 351.232672 312.59944 
L 351.232672 312.763216 
L 351.376275 312.763216 
L 351.376275 312.92706 
L 351.519629 312.92706 
L 351.519629 313.092527 
L 351.662736 313.092527 
L 351.662736 313.259667 
L 351.805597 313.259667 
L 351.805597 313.426617 
L 351.948212 313.426617 
L 351.948212 313.591799 
L 352.090582 313.591799 
L 352.090582 313.758391 
L 352.232709 313.758391 
L 352.232709 313.924497 
L 352.374593 313.924497 
L 352.374593 314.091618 
L 352.516234 314.091618 
L 352.516234 314.25979 
L 352.657634 314.25979 
L 352.657634 314.429716 
L 352.798794 314.429716 
L 352.798794 314.602459 
L 352.939714 314.602459 
L 352.939714 314.775942 
L 353.080395 314.775942 
L 353.080395 314.952384 
L 353.220838 314.952384 
L 353.220838 315.130449 
L 353.361044 315.130449 
L 353.361044 315.310322 
L 353.501013 315.310322 
L 353.501013 315.492004 
L 353.640747 315.492004 
L 353.640747 315.67551 
L 353.780246 315.67551 
L 353.780246 315.860278 
L 353.91951 315.860278 
L 353.91951 316.040211 
L 354.058542 316.040211 
L 354.058542 316.213015 
L 354.19734 316.213015 
L 354.19734 316.387951 
L 354.335907 316.387951 
L 354.335907 316.565227 
L 354.474243 316.565227 
L 354.474243 316.743605 
L 354.612349 316.743605 
L 354.612349 316.922512 
L 354.750226 316.922512 
L 354.750226 317.102296 
L 354.887873 317.102296 
L 354.887873 317.263438 
L 355.025293 317.263438 
L 355.025293 316.864627 
L 355.162486 316.864627 
L 355.162486 315.772468 
L 355.299452 315.772468 
L 355.299452 317.687422 
L 355.436193 317.687422 
L 355.436193 317.913221 
L 355.708999 318.018589 
L 355.708999 317.114623 
L 355.845067 317.114623 
L 355.845067 318.023411 
L 355.980913 318.023411 
L 355.980913 318.576436 
L 356.116536 318.576436 
L 356.116536 318.734988 
L 356.387119 318.803688 
L 356.387119 318.935211 
L 356.522081 318.935211 
L 356.522081 319.189265 
L 356.656823 319.189265 
L 356.656823 319.411692 
L 356.791347 319.411692 
L 356.791347 319.579465 
L 356.925653 319.579465 
L 356.925653 319.742193 
L 357.059742 319.742193 
L 357.059742 319.908302 
L 357.193615 319.908302 
L 357.193615 320.091824 
L 357.327273 320.091824 
L 357.327273 320.267209 
L 357.460715 320.267209 
L 357.460715 320.445163 
L 357.593943 320.445163 
L 357.593943 320.624993 
L 357.726958 320.624993 
L 357.726958 320.806544 
L 357.85976 320.806544 
L 357.85976 320.98637 
L 357.992349 320.98637 
L 357.992349 321.154844 
L 358.124728 321.154844 
L 358.124728 321.323463 
L 358.256895 321.323463 
L 358.256895 321.494212 
L 358.388852 321.494212 
L 358.388852 321.667325 
L 358.5206 321.667325 
L 358.5206 321.842856 
L 358.652139 321.842856 
L 358.652139 322.02086 
L 358.783469 322.02086 
L 358.783469 322.201322 
L 358.914592 322.201322 
L 358.914592 322.375029 
L 359.045509 322.375029 
L 359.045509 322.529873 
L 359.176219 322.529873 
L 359.176219 322.685856 
L 359.306723 322.685856 
L 359.306723 322.843768 
L 359.437023 322.843768 
L 359.437023 323.002528 
L 359.567119 323.002528 
L 359.567119 323.159613 
L 359.69701 323.159613 
L 359.69701 323.320016 
L 359.826699 323.320016 
L 359.826699 323.480729 
L 359.956186 323.480729 
L 359.956186 323.642543 
L 360.08547 323.642543 
L 360.08547 323.805399 
L 360.214554 323.805399 
L 360.214554 323.96677 
L 360.343437 323.96677 
L 360.343437 324.127126 
L 360.472121 324.127126 
L 360.472121 324.28799 
L 360.600605 324.28799 
L 360.600605 324.453912 
L 360.72889 324.453912 
L 360.72889 324.619998 
L 360.856978 324.619998 
L 360.856978 324.788288 
L 360.984868 324.788288 
L 360.984868 324.958638 
L 361.112561 324.958638 
L 361.112561 325.129484 
L 361.240058 325.129484 
L 361.240058 325.302128 
L 361.36736 325.302128 
L 361.36736 325.477324 
L 361.494466 325.477324 
L 361.494466 325.654488 
L 361.621379 325.654488 
L 361.621379 325.833643 
L 361.748097 325.833643 
L 361.748097 326.007046 
L 361.874622 326.007046 
L 361.874622 326.17109 
L 362.000955 326.17109 
L 362.000955 326.337336 
L 362.127095 326.337336 
L 362.127095 326.503157 
L 362.253045 326.503157 
L 362.253045 326.674582 
L 362.378803 326.674582 
L 362.378803 326.793411 
L 362.504371 326.793411 
L 362.504371 327.022041 
L 362.629749 327.022041 
L 362.629749 327.197347 
L 362.754938 327.197347 
L 362.754938 327.354612 
L 362.879939 327.354612 
L 362.879939 327.507673 
L 363.004752 327.507673 
L 363.004752 327.662563 
L 363.129377 327.662563 
L 363.129377 327.818565 
L 363.253815 327.818565 
L 363.253815 327.975317 
L 363.378067 327.975317 
L 363.378067 328.132812 
L 363.502133 328.132812 
L 363.502133 328.287092 
L 363.626015 328.287092 
L 363.626015 328.411985 
L 363.749711 328.411985 
L 363.749711 328.602919 
L 363.873223 328.602919 
L 363.873223 328.763043 
L 363.996552 328.763043 
L 363.996552 328.93061 
L 364.119698 328.93061 
L 364.119698 329.092446 
L 364.242661 329.092446 
L 364.242661 329.246744 
L 364.365442 329.246744 
L 364.365442 329.413553 
L 364.488042 329.413553 
L 364.488042 329.57707 
L 364.610462 329.57707 
L 364.610462 329.742078 
L 364.7327 329.742078 
L 364.7327 329.909246 
L 364.854759 329.909246 
L 364.854759 330.064873 
L 364.976639 330.064873 
L 364.976639 330.247827 
L 365.09834 330.247827 
L 365.09834 330.422003 
L 365.219863 330.422003 
L 365.219863 330.597528 
L 365.341208 330.597528 
L 365.341208 330.77697 
L 365.462376 330.77697 
L 365.462376 330.946376 
L 365.583367 330.946376 
L 365.583367 331.109176 
L 365.704183 331.109176 
L 365.704183 331.269733 
L 365.824822 331.269733 
L 365.824822 331.437362 
L 365.945287 331.437362 
L 365.945287 331.604982 
L 366.065576 331.604982 
L 366.065576 331.775551 
L 366.185692 331.775551 
L 366.185692 331.94568 
L 366.305634 331.94568 
L 366.305634 332.11433 
L 366.425403 332.11433 
L 366.425403 332.263431 
L 366.545 332.263431 
L 366.545 332.412885 
L 366.664424 332.412885 
L 366.664424 332.564463 
L 366.783677 332.564463 
L 366.783677 332.7184 
L 366.902758 332.7184 
L 366.902758 332.873761 
L 367.021669 332.873761 
L 367.021669 333.030815 
L 367.14041 333.030815 
L 367.14041 333.188072 
L 367.258981 333.188072 
L 367.258981 333.343095 
L 367.377383 333.343095 
L 367.377383 333.501628 
L 367.495617 333.501628 
L 367.495617 333.660746 
L 367.613682 333.660746 
L 367.613682 333.820923 
L 367.731579 333.820923 
L 367.731579 333.98237 
L 367.849309 333.98237 
L 367.849309 334.145481 
L 367.966873 334.145481 
L 367.966873 334.305377 
L 368.08427 334.305377 
L 368.08427 334.466365 
L 368.201501 334.466365 
L 368.201501 334.629256 
L 368.318567 334.629256 
L 368.318567 334.793712 
L 368.435468 334.793712 
L 368.435468 334.960333 
L 368.552204 334.960333 
L 368.552204 335.129222 
L 368.668777 335.129222 
L 368.668777 335.300382 
L 368.785186 335.300382 
L 368.785186 335.473861 
L 368.901432 335.473861 
L 368.901432 335.649113 
L 369.017515 335.649113 
L 369.017515 335.816182 
L 369.133436 335.816182 
L 369.133436 335.978486 
L 369.249196 335.978486 
L 369.249196 336.141307 
L 369.364794 336.141307 
L 369.364794 336.304514 
L 369.480231 336.304514 
L 369.480231 336.469569 
L 369.595508 336.469569 
L 369.595508 336.636688 
L 369.710626 336.636688 
L 369.710626 336.80606 
L 369.825583 336.80606 
L 369.825583 336.965309 
L 369.940382 336.965309 
L 369.940382 337.110852 
L 370.055022 337.110852 
L 370.055022 337.257924 
L 370.169504 337.257924 
L 370.169504 337.406574 
L 370.283828 337.406574 
L 370.283828 337.557206 
L 370.397995 337.557206 
L 370.397995 337.709746 
L 370.512006 337.709746 
L 370.512006 337.863938 
L 370.625859 337.863938 
L 370.625859 338.019859 
L 370.739557 338.019859 
L 370.739557 338.17679 
L 370.853099 338.17679 
L 370.853099 338.332878 
L 370.966486 338.332878 
L 370.966486 338.49101 
L 371.079719 338.49101 
L 371.079719 338.649895 
L 371.192797 338.649895 
L 371.192797 338.810149 
L 371.305721 338.810149 
L 371.305721 338.971311 
L 371.418492 338.971311 
L 371.418492 339.134433 
L 371.53111 339.134433 
L 371.53111 339.296117 
L 371.643575 339.296117 
L 371.643575 339.456682 
L 371.755888 339.456682 
L 371.755888 339.619398 
L 371.868049 339.619398 
L 371.868049 339.783673 
L 371.980058 339.783673 
L 371.980058 339.949345 
L 372.091917 339.949345 
L 372.091917 340.117976 
L 372.203625 340.117976 
L 372.203625 340.289067 
L 372.315183 340.289067 
L 372.315183 340.462013 
L 372.426592 340.462013 
L 372.426592 340.629909 
L 372.537851 340.629909 
L 372.648961 340.951799 
L 372.759922 340.951799 
L 372.870735 341.27885 
L 372.981401 341.27885 
L 373.091919 341.610195 
L 373.20229 341.610195 
L 373.312514 341.881243 
L 373.532525 341.954662 
L 373.642312 341.107383 
L 373.751954 341.107383 
L 373.861451 342.648246 
L 373.970805 342.648246 
L 374.080014 342.843744 
L 374.189079 342.843744 
L 374.298002 343.268747 
L 374.406781 343.268747 
L 374.515419 343.589889 
L 374.623914 343.589889 
L 374.732268 343.907095 
L 374.84048 343.907095 
L 374.948551 344.239418 
L 375.056482 344.239418 
L 375.164273 344.56293 
L 375.271924 344.56293 
L 375.379435 344.892954 
L 375.486808 344.892954 
L 375.594041 345.231273 
L 375.701136 345.231273 
L 375.808093 345.560633 
L 375.914913 345.560633 
L 376.021595 345.881202 
L 376.12814 345.881202 
L 376.234549 346.207938 
L 376.340821 346.207938 
L 376.446958 346.535079 
L 376.552958 346.535079 
L 376.552958 346.6 
" clip-path="url(#p0b4ba24c5e)" style="fill: none; stroke: #1f77b4; stroke-width: 1.5; stroke-linecap: square"/>
   </g>
   <g id="line2d_23">
    <path d="M 73.832727 103.840507 
L 77.802695 103.840507 
L 77.802695 90.07205 
L 81.591389 90.07205 
L 81.591389 99.755807 
L 85.214644 99.755807 
L 85.214644 89.681744 
L 88.686304 89.681744 
L 88.686304 85.281535 
L 92.018547 85.281535 
L 92.018547 92.24412 
L 95.222141 92.24412 
L 95.222141 95.466578 
L 98.306649 95.466578 
L 98.306649 101.834642 
L 101.280611 101.834642 
L 101.280611 96.116752 
L 104.151675 96.116752 
L 104.151675 91.717209 
L 106.926725 91.717209 
L 106.926725 97.273053 
L 109.611975 97.273053 
L 109.611975 98.677831 
L 112.213056 98.677831 
L 112.213056 98.967598 
L 114.735084 98.967598 
L 114.735084 95.371059 
L 117.182722 95.371059 
L 117.182722 96.451527 
L 119.560235 96.451527 
L 119.560235 96.037486 
L 121.871528 96.037486 
L 121.871528 103.774594 
L 124.12019 103.774594 
L 124.12019 108.798079 
L 126.309526 108.798079 
L 126.309526 110.899138 
L 128.442587 110.899138 
L 128.442587 99.485128 
L 130.522193 99.485128 
L 130.522193 108.741624 
L 132.550958 108.741624 
L 132.550958 94.826595 
L 134.531309 94.826595 
L 134.531309 114.552722 
L 136.465502 114.552722 
L 136.465502 117.021217 
L 138.35564 117.021217 
L 138.35564 121.354881 
L 140.203686 121.354881 
L 140.203686 112.806273 
L 142.011473 112.806273 
L 142.011473 117.734644 
L 143.780719 117.734644 
L 143.780719 113.373926 
L 145.513032 113.373926 
L 145.513032 125.678865 
L 147.209923 125.678865 
L 147.209923 130.955155 
L 148.872811 130.955155 
L 148.872811 119.040291 
L 150.503032 119.040291 
L 150.503032 122.899153 
L 152.101846 122.899153 
L 152.101846 126.928306 
L 153.670439 126.928306 
L 153.670439 127.667491 
L 155.209933 127.667491 
L 155.209933 135.496181 
L 156.721388 135.496181 
L 156.721388 134.928053 
L 158.205807 134.928053 
L 158.205807 131.571056 
L 159.66414 131.571056 
L 159.66414 137.712038 
L 161.097288 137.712038 
L 161.097288 144.861141 
L 162.506106 144.861141 
L 162.506106 140.278035 
L 163.891407 140.278035 
L 163.891407 107.946749 
L 165.253963 107.946749 
L 165.253963 139.992244 
L 166.594509 139.992244 
L 166.594509 109.596817 
L 167.913744 109.596817 
L 167.913744 153.74611 
L 169.212336 153.74611 
L 169.212336 146.467863 
L 170.49092 146.467863 
L 170.49092 150.662172 
L 171.750104 150.662172 
L 171.750104 156.557762 
L 172.990468 156.557762 
L 172.990468 153.298558 
L 174.212566 153.298558 
L 174.212566 158.410419 
L 175.416928 158.410419 
L 175.416928 161.77262 
L 176.604061 161.77262 
L 176.604061 150.412182 
L 177.774453 150.412182 
L 177.774453 131.592924 
L 178.928567 131.592924 
L 178.928567 156.824264 
L 180.066851 156.824264 
L 180.066851 161.615825 
L 181.189734 161.615825 
L 181.189734 111.944096 
L 182.297626 111.944096 
L 182.297626 146.567542 
L 183.390922 146.567542 
L 183.390922 153.26469 
L 184.470002 153.26469 
L 184.470002 158.956377 
L 185.535232 158.956377 
L 185.535232 156.710053 
L 186.586961 156.710053 
L 186.586961 160.917538 
L 187.625528 160.917538 
L 187.625528 167.0572 
L 188.651259 167.0572 
L 188.651259 165.128321 
L 189.664466 165.128321 
L 189.664466 154.434466 
L 190.665452 154.434466 
L 190.665452 170.250783 
L 191.654508 170.250783 
L 191.654508 171.042957 
L 192.631916 171.042957 
L 192.631916 132.182926 
L 193.597946 132.182926 
L 193.597946 152.108551 
L 194.55286 152.108551 
L 194.55286 132.145693 
L 195.496911 132.145693 
L 195.496911 141.216846 
L 196.430344 141.216846 
L 196.430344 174.907684 
L 197.353394 174.907684 
L 197.353394 175.585437 
L 198.266291 175.585437 
L 198.266291 176.542359 
L 199.169254 176.542359 
L 199.169254 177.504608 
L 200.062499 177.504608 
L 200.062499 149.925261 
L 200.946232 149.925261 
L 200.946232 178.742704 
L 201.820652 178.742704 
L 201.820652 158.7492 
L 202.685956 158.7492 
L 202.685956 163.938885 
L 203.54233 163.938885 
L 203.54233 169.136073 
L 204.389958 169.136073 
L 204.389958 165.256709 
L 205.229015 165.256709 
L 205.229015 169.952691 
L 206.059674 169.952691 
L 206.059674 174.713141 
L 206.882101 174.713141 
L 206.882101 150.861828 
L 207.696457 150.861828 
L 207.696457 176.32273 
L 208.5029 176.32273 
L 208.5029 177.697272 
L 209.301582 177.697272 
L 209.301582 178.618813 
L 210.092651 178.618813 
L 210.092651 179.517566 
L 210.87625 179.517566 
L 210.87625 169.801706 
L 211.652519 169.801706 
L 211.652519 181.252312 
L 212.421594 181.252312 
L 212.421594 172.88274 
L 213.183608 172.88274 
L 213.183608 179.153485 
L 213.938688 179.153485 
L 213.938688 180.290482 
L 214.68696 180.290482 
L 214.68696 183.125748 
L 215.428546 183.125748 
L 215.428546 182.63353 
L 216.163563 182.63353 
L 216.163563 162.149518 
L 216.892127 162.149518 
L 216.892127 128.985203 
L 217.614352 128.985203 
L 217.614352 145.106258 
L 218.330344 145.106258 
L 218.330344 127.199605 
L 219.040213 127.199605 
L 219.040213 188.573615 
L 219.744061 188.573615 
L 219.744061 190.283009 
L 220.441989 190.283009 
L 220.441989 190.967148 
L 221.134097 190.967148 
L 221.134097 184.153107 
L 221.820481 184.153107 
L 221.820481 192.706185 
L 222.501234 192.706185 
L 222.501234 193.288618 
L 223.176449 193.288618 
L 223.176449 194.338073 
L 223.846214 194.338073 
L 223.846214 195.215742 
L 224.510617 195.215742 
L 224.510617 196.062317 
L 225.169743 196.062317 
L 225.169743 196.840382 
L 225.823675 196.840382 
L 225.823675 191.897529 
L 226.472495 191.897529 
L 226.472495 195.464862 
L 227.116281 195.464862 
L 227.116281 180.718684 
L 227.755112 180.718684 
L 227.755112 188.188767 
L 228.389063 188.188767 
L 228.389063 193.782187 
L 229.018207 193.782187 
L 229.018207 182.728784 
L 229.642618 182.728784 
L 229.642618 196.303263 
L 230.262366 196.303263 
L 230.262366 190.994705 
L 230.87752 190.994705 
L 230.87752 160.811508 
L 231.488148 160.811508 
L 231.488148 203.841365 
L 232.094316 203.841365 
L 232.094316 194.407392 
L 232.696088 194.407392 
L 232.696088 200.279283 
L 233.293527 200.279283 
L 233.293527 198.264358 
L 233.886697 198.264358 
L 233.886697 204.146718 
L 234.475657 204.146718 
L 234.475657 176.413265 
L 235.060467 176.413265 
L 235.060467 208.110855 
L 235.641184 208.110855 
L 235.641184 209.274799 
L 236.217866 209.274799 
L 236.217866 210.306322 
L 236.790568 210.306322 
L 236.790568 185.653773 
L 237.359346 185.653773 
L 237.359346 193.982698 
L 237.924251 193.982698 
L 237.924251 194.482754 
L 238.485337 194.482754 
L 238.485337 202.127471 
L 239.042655 202.127471 
L 239.042655 204.223333 
L 239.596256 204.223333 
L 239.596256 200.879934 
L 240.146188 200.879934 
L 240.146188 200.451168 
L 240.6925 200.451168 
L 240.6925 201.258682 
L 241.235239 201.258682 
L 241.235239 202.054665 
L 241.774451 202.054665 
L 241.774451 203.048953 
L 242.310183 203.048953 
L 242.310183 203.78784 
L 242.842478 203.78784 
L 242.842478 204.72851 
L 243.371381 204.72851 
L 243.371381 203.261807 
L 243.896935 203.261807 
L 243.896935 206.358486 
L 244.419181 206.358486 
L 244.419181 207.103201 
L 244.938161 207.103201 
L 244.938161 207.871056 
L 245.453916 207.871056 
L 245.453916 208.667054 
L 245.966486 208.667054 
L 245.966486 209.495237 
L 246.475909 209.495237 
L 246.475909 210.361391 
L 246.982224 210.361391 
L 246.982224 211.178841 
L 247.485468 211.178841 
L 247.485468 211.88492 
L 247.98568 211.88492 
L 247.98568 211.03877 
L 248.482894 211.03877 
L 248.482894 213.390205 
L 248.977148 213.390205 
L 248.977148 214.207537 
L 249.468475 214.207537 
L 249.468475 215.030176 
L 250.442488 215.030229 
L 250.442488 216.625397 
L 250.92524 216.625397 
L 250.92524 216.885236 
L 251.405201 216.885236 
L 251.405201 217.774528 
L 251.882402 217.774528 
L 251.882402 218.635829 
L 252.356875 218.635829 
L 252.356875 219.387326 
L 252.82865 219.387326 
L 252.82865 220.384326 
L 253.297759 220.384326 
L 253.297759 220.955043 
L 253.764231 220.955043 
L 253.764231 221.12674 
L 254.228095 221.12674 
L 254.228095 222.589075 
L 254.689381 222.589075 
L 254.689381 223.350061 
L 255.148117 223.350061 
L 255.148117 223.827196 
L 255.604332 223.827196 
L 255.604332 224.633751 
L 256.058052 224.633751 
L 256.058052 225.485839 
L 256.509305 225.485839 
L 256.509305 196.217944 
L 256.958118 196.217944 
L 256.958118 223.186147 
L 257.404516 223.186147 
L 257.404516 210.93358 
L 257.848526 210.93358 
L 257.848526 197.004357 
L 258.290173 197.004357 
L 258.290173 229.328474 
L 258.729483 229.328474 
L 258.729483 230.267684 
L 259.166479 230.267684 
L 259.166479 230.99569 
L 259.601185 230.99569 
L 259.601185 231.81407 
L 260.033627 231.81407 
L 260.033627 232.509966 
L 260.463827 232.509966 
L 260.463827 233.219587 
L 260.891809 233.219587 
L 260.891809 233.883433 
L 261.317594 233.883433 
L 261.317594 234.689451 
L 261.741207 234.689451 
L 261.741207 235.522187 
L 262.162668 235.522187 
L 262.162668 236.327656 
L 262.581999 236.327656 
L 262.581999 237.005015 
L 262.999222 237.005015 
L 262.999222 237.695635 
L 263.414358 237.695635 
L 263.414358 238.42004 
L 263.827428 238.42004 
L 263.827428 239.169916 
L 264.238452 239.169916 
L 264.238452 239.895151 
L 264.64745 239.895151 
L 264.64745 240.707197 
L 265.054442 240.707197 
L 265.054442 241.476625 
L 265.459449 241.476625 
L 265.459449 241.983997 
L 265.862488 241.983997 
L 265.862488 242.848234 
L 266.263579 242.848234 
L 266.263579 243.393862 
L 266.662741 243.393862 
L 266.662741 244.093024 
L 267.059993 244.093024 
L 267.059993 243.516933 
L 267.455352 243.516933 
L 267.455352 245.710087 
L 267.848836 245.710087 
L 267.848836 232.773734 
L 268.240464 232.773734 
L 268.240464 244.91475 
L 268.630252 244.91475 
L 268.630252 245.671891 
L 269.018218 245.671891 
L 269.018218 247.770746 
L 269.404378 247.770746 
L 269.404378 249.386631 
L 269.78875 249.386631 
L 269.78875 249.878475 
L 270.17135 249.878475 
L 270.17135 250.747687 
L 270.552195 250.747687 
L 270.552195 239.763171 
L 270.931299 239.763171 
L 270.931299 252.292777 
L 271.30868 252.292777 
L 271.30868 245.1285 
L 271.684352 245.1285 
L 271.684352 249.126245 
L 272.058331 249.126245 
L 272.058331 254.507367 
L 272.430633 254.507367 
L 272.430633 253.259982 
L 272.801271 253.259982 
L 272.801271 250.902461 
L 273.170262 250.902461 
L 273.170262 254.011414 
L 274.267492 254.115942 
L 274.267492 256.774927 
L 274.630035 256.774927 
L 274.630035 252.184462 
L 274.991001 252.184462 
L 274.991001 258.48008 
L 275.350404 258.48008 
L 275.350404 259.620268 
L 275.708257 259.620268 
L 275.708257 261.339942 
L 276.064573 261.339942 
L 276.064573 262.22866 
L 276.419367 262.22866 
L 276.419367 259.499813 
L 276.77265 259.499813 
L 276.77265 263.882898 
L 277.124435 263.882898 
L 277.124435 264.641562 
L 277.474735 264.641562 
L 277.474735 263.462116 
L 277.823564 263.462116 
L 277.823564 265.864547 
L 278.170931 265.864547 
L 278.170931 264.948651 
L 278.516851 264.948651 
L 278.516851 266.638842 
L 278.861336 266.638842 
L 278.861336 267.936558 
L 279.204396 267.936558 
L 279.204396 268.291869 
L 280.225148 268.265366 
L 280.225148 268.922127 
L 280.562628 268.922127 
L 280.562628 269.597061 
L 280.898741 269.597061 
L 280.898741 269.298225 
L 281.233498 269.298225 
L 281.233498 271.059833 
L 281.56691 271.059833 
L 281.56691 271.823702 
L 281.898988 271.823702 
L 281.898988 272.614426 
L 282.229743 272.614426 
L 282.229743 273.332096 
L 282.559185 273.332096 
L 282.559185 273.987198 
L 282.887324 273.987198 
L 282.887324 274.654694 
L 283.21417 274.654694 
L 283.21417 275.369821 
L 283.539735 275.369821 
L 283.539735 276.113451 
L 283.864027 276.113451 
L 283.864027 276.876098 
L 284.187057 276.876098 
L 284.187057 277.656073 
L 284.508834 277.656073 
L 284.508834 278.287779 
L 284.829369 278.287779 
L 284.829369 278.995297 
L 285.14867 278.995297 
L 285.14867 279.686903 
L 285.466747 279.686903 
L 285.466747 280.406986 
L 285.78361 280.406986 
L 285.78361 280.99853 
L 286.099268 280.99853 
L 286.099268 281.412247 
L 286.41373 281.412247 
L 286.41373 282.664173 
L 287.039101 282.603806 
L 287.039101 283.752905 
L 287.350028 283.752905 
L 287.350028 283.947666 
L 287.659795 283.947666 
L 287.659795 278.625954 
L 287.96841 278.625954 
L 287.96841 284.96892 
L 288.275881 284.96892 
L 288.275881 280.21782 
L 288.582217 280.21782 
L 288.582217 276.057009 
L 288.887427 276.057009 
L 288.887427 281.521241 
L 289.191518 281.521241 
L 289.191518 283.941561 
L 289.4945 283.941561 
L 289.4945 284.545035 
L 289.796379 284.545035 
L 289.796379 282.518186 
L 290.097163 282.518186 
L 290.097163 291.104438 
L 290.396862 291.104438 
L 290.396862 291.859211 
L 290.695482 291.859211 
L 290.695482 291.017617 
L 290.993032 291.017617 
L 290.993032 293.202133 
L 291.289518 293.202133 
L 291.289518 293.868952 
L 291.58495 293.868952 
L 291.58495 294.574847 
L 291.879333 294.574847 
L 291.879333 295.299202 
L 292.172675 295.299202 
L 292.172675 296.047862 
L 292.464985 296.047862 
L 292.464985 296.809492 
L 292.756268 296.809492 
L 292.756268 297.474952 
L 293.046532 297.474952 
L 293.046532 298.111875 
L 293.335785 298.111875 
L 293.335785 298.776254 
L 293.624033 298.776254 
L 293.624033 299.483468 
L 293.911284 299.483468 
L 293.911284 300.197986 
L 294.197543 300.197986 
L 294.197543 300.94512 
L 294.482819 300.94512 
L 294.482819 301.700441 
L 294.767117 301.700441 
L 294.767117 302.365637 
L 295.050445 302.365637 
L 295.050445 303.004147 
L 295.332809 303.004147 
L 295.332809 303.680131 
L 295.614215 303.680131 
L 295.614215 304.37639 
L 295.89467 304.37639 
L 295.89467 305.090408 
L 296.174181 305.090408 
L 296.174181 305.840107 
L 296.452753 305.840107 
L 296.452753 306.560961 
L 296.730394 306.560961 
L 296.730394 307.215566 
L 297.007108 307.215566 
L 297.007108 307.863324 
L 297.282903 307.863324 
L 297.282903 308.562276 
L 297.557785 308.562276 
L 297.557785 309.256608 
L 297.831759 309.256608 
L 297.831759 309.930757 
L 298.104832 309.930757 
L 298.104832 310.63458 
L 298.377009 310.63458 
L 298.377009 310.069027 
L 298.648296 310.069027 
L 298.648296 311.826127 
L 298.918699 311.826127 
L 298.918699 312.5 
L 299.188224 312.5 
L 299.188224 313.248435 
L 299.456877 313.248435 
L 299.456877 314.10189 
L 299.991587 314.153202 
L 299.991587 315.461803 
L 300.257656 315.461803 
L 300.257656 311.705808 
L 300.522874 311.705808 
L 300.522874 312.609198 
L 300.787248 312.609198 
L 300.787248 316.609348 
L 301.050782 316.609348 
L 301.050782 317.860555 
L 301.313481 317.860555 
L 301.313481 318.039307 
L 301.575352 318.039307 
L 301.575352 318.676769 
L 301.836399 318.676769 
L 301.836399 320.247914 
L 302.096628 320.247914 
L 302.096628 321.016261 
L 302.356043 321.016261 
L 302.356043 321.48694 
L 302.872453 321.428782 
L 302.872453 322.590128 
L 303.129457 322.590128 
L 303.129457 323.679116 
L 303.385669 323.679116 
L 303.385669 324.384892 
L 303.641092 324.384892 
L 303.641092 324.842333 
L 303.895731 324.842333 
L 303.895731 321.973488 
L 304.149591 321.973488 
L 304.149591 325.275606 
L 304.654994 325.35272 
L 304.654994 327.660325 
L 304.906546 327.660325 
L 304.906546 327.417223 
L 305.157337 327.417223 
L 305.157337 329.116482 
L 305.407373 329.116482 
L 305.407373 329.693651 
L 305.656658 329.693651 
L 305.656658 327.979473 
L 305.905196 327.979473 
L 305.905196 330.060845 
L 306.152993 330.060845 
L 306.152993 331.933121 
L 306.400051 331.933121 
L 306.400051 330.911348 
L 306.646376 330.911348 
L 306.646376 332.651312 
L 306.891973 332.651312 
L 306.891973 331.992395 
L 307.136844 331.992395 
L 307.136844 334.048462 
L 307.62443 334.094274 
L 307.62443 335.183575 
L 307.867153 335.183575 
L 307.867153 336.38919 
L 308.109168 336.38919 
L 308.109168 336.837895 
L 308.35048 336.837895 
L 308.35048 337.726669 
L 308.591092 337.726669 
L 308.591092 338.4463 
L 308.831008 338.4463 
L 308.831008 339.358425 
L 309.070232 339.358425 
L 309.070232 340.038885 
L 309.308769 340.038885 
L 309.308769 340.742651 
L 309.546623 340.742651 
L 309.546623 341.29259 
L 309.783796 341.29259 
L 309.783796 342.126493 
L 310.020294 342.126493 
L 310.020294 342.768418 
L 310.25612 342.768418 
L 310.25612 343.538031 
L 310.491277 343.538031 
L 310.491277 344.110114 
L 310.72577 344.110114 
L 310.72577 344.766971 
L 310.959602 344.766971 
L 310.959602 345.430623 
L 311.192778 345.430623 
L 311.192778 346.099519 
L 311.425299 346.099519 
L 311.425299 346.6 
L 311.425299 346.6 
" clip-path="url(#p0b4ba24c5e)" style="fill: none; stroke: #ff7f0e; stroke-width: 1.5; stroke-linecap: square"/>
   </g>
   <g id="line2d_24">
    <path d="M 73.832727 103.029695 
L 77.802695 103.029695 
L 77.802695 91.084005 
L 81.591389 91.084005 
L 81.591389 102.725832 
L 85.214644 102.725832 
L 85.214644 92.990356 
L 88.686304 92.990356 
L 88.686304 86.271164 
L 92.018547 86.271164 
L 92.018547 89.451698 
L 95.222141 89.451698 
L 95.222141 98.243065 
L 98.306649 98.243065 
L 98.306649 100.819146 
L 101.280611 100.819146 
L 101.280611 97.45286 
L 104.151675 97.45286 
L 104.151675 94.056826 
L 106.926725 94.056826 
L 106.926725 99.935181 
L 109.611975 99.935181 
L 109.611975 102.002617 
L 112.213056 102.002617 
L 112.213056 97.341192 
L 114.735084 97.341192 
L 114.735084 97.193192 
L 117.182722 97.193192 
L 117.182722 99.096396 
L 119.560235 99.096396 
L 119.560235 100.883173 
L 121.871528 100.883173 
L 121.871528 105.453684 
L 124.12019 105.453684 
L 124.12019 106.148625 
L 126.309526 106.148625 
L 126.309526 107.24613 
L 128.442587 107.24613 
L 128.442587 99.694674 
L 130.522193 99.694674 
L 130.522193 107.292277 
L 132.550958 107.292277 
L 132.550958 97.203443 
L 134.531309 97.203443 
L 134.531309 115.325212 
L 136.465502 115.325212 
L 136.465502 113.904121 
L 138.35564 113.904121 
L 138.35564 116.7426 
L 140.203686 116.7426 
L 140.203686 102.882649 
L 142.011473 102.882649 
L 142.011473 115.565878 
L 143.780719 115.565878 
L 143.780719 112.067469 
L 145.513032 112.067469 
L 145.513032 124.988424 
L 147.209923 124.988424 
L 147.209923 120.786503 
L 148.872811 120.786503 
L 148.872811 118.933756 
L 150.503032 118.933756 
L 150.503032 119.495843 
L 152.101846 119.495843 
L 152.101846 122.246599 
L 153.670439 122.246599 
L 153.670439 123.341168 
L 155.209933 123.341168 
L 155.209933 131.216737 
L 156.721388 131.216737 
L 156.721388 133.677912 
L 158.205807 133.677912 
L 158.205807 128.548266 
L 159.66414 128.548266 
L 159.66414 128.821602 
L 161.097288 128.821602 
L 161.097288 141.564318 
L 162.506106 141.564318 
L 162.506106 131.877388 
L 163.891407 131.877388 
L 163.891407 104.891632 
L 165.253963 104.891632 
L 165.253963 136.756232 
L 166.594509 136.756232 
L 166.594509 106.218992 
L 167.913744 106.218992 
L 167.913744 149.723421 
L 169.212336 149.723421 
L 169.212336 140.581384 
L 170.49092 140.581384 
L 170.49092 147.102929 
L 171.750104 147.102929 
L 171.750104 153.532896 
L 172.990468 153.532896 
L 172.990468 149.335813 
L 174.212566 149.335813 
L 174.212566 156.011552 
L 175.416928 156.011552 
L 175.416928 159.592832 
L 176.604061 159.592832 
L 176.604061 145.882898 
L 177.774453 145.882898 
L 177.774453 128.416454 
L 178.928567 128.416454 
L 178.928567 156.453378 
L 181.189734 156.425269 
L 181.189734 110.744388 
L 182.297626 110.744388 
L 182.297626 143.506315 
L 183.390922 143.506315 
L 183.390922 150.214332 
L 184.470002 150.214332 
L 184.470002 156.028971 
L 185.535232 156.028971 
L 185.535232 153.856675 
L 186.586961 153.856675 
L 186.586961 158.232028 
L 187.625528 158.232028 
L 187.625528 165.434641 
L 188.651259 165.434641 
L 188.651259 162.667972 
L 189.664466 162.667972 
L 189.664466 150.926885 
L 190.665452 150.926885 
L 190.665452 169.127578 
L 191.654508 169.127578 
L 191.654508 169.427442 
L 192.631916 169.427442 
L 192.631916 130.33897 
L 193.597946 130.33897 
L 193.597946 150.317978 
L 194.55286 150.317978 
L 194.55286 130.18997 
L 195.496911 130.18997 
L 195.496911 140.277253 
L 196.430344 140.277253 
L 196.430344 173.735564 
L 197.353394 173.735564 
L 197.353394 174.174755 
L 198.266291 174.174755 
L 198.266291 175.308164 
L 199.169254 175.308164 
L 199.169254 175.782932 
L 200.062499 175.782932 
L 200.062499 148.89678 
L 200.946232 148.89678 
L 200.946232 177.465386 
L 201.820652 177.465386 
L 201.820652 157.834729 
L 202.685956 157.834729 
L 202.685956 163.006008 
L 203.54233 163.006008 
L 203.54233 168.091559 
L 204.389958 168.091559 
L 204.389958 163.905408 
L 205.229015 163.905408 
L 205.229015 168.538581 
L 206.059674 168.538581 
L 206.059674 175.559738 
L 206.882101 175.559738 
L 206.882101 151.164784 
L 207.696457 151.164784 
L 207.696457 177.096052 
L 208.5029 177.096052 
L 208.5029 178.45596 
L 209.301582 178.45596 
L 209.301582 179.300846 
L 210.092651 179.300846 
L 210.092651 180.140548 
L 210.87625 180.140548 
L 210.87625 169.112586 
L 211.652519 169.112586 
L 211.652519 181.233504 
L 212.421594 181.233504 
L 212.421594 172.284384 
L 213.183608 172.284384 
L 213.183608 179.098045 
L 213.938688 179.098045 
L 213.938688 180.241185 
L 214.68696 180.241185 
L 214.68696 183.284763 
L 215.428546 183.284763 
L 215.428546 183.172331 
L 216.163563 183.172331 
L 216.163563 160.87474 
L 216.892127 160.87474 
L 216.892127 128.084002 
L 217.614352 128.084002 
L 217.614352 144.171195 
L 218.330344 144.171195 
L 218.330344 126.132587 
L 219.040213 126.132587 
L 219.040213 189.563382 
L 219.744061 189.563382 
L 219.744061 191.464524 
L 220.441989 191.464524 
L 220.441989 192.138808 
L 221.134097 192.138808 
L 221.134097 185.746474 
L 221.820481 185.746474 
L 221.820481 193.708922 
L 222.501234 193.708922 
L 222.501234 194.250794 
L 223.176449 194.250794 
L 223.176449 195.31934 
L 223.846214 195.31934 
L 223.846214 196.149509 
L 224.510617 196.149509 
L 224.510617 196.974087 
L 225.169743 196.974087 
L 225.169743 197.678674 
L 225.823675 197.678674 
L 225.823675 193.297105 
L 226.472495 193.297105 
L 226.472495 195.7719 
L 227.116281 195.7719 
L 227.116281 179.567672 
L 227.755112 179.567672 
L 227.755112 188.8669 
L 228.389063 188.8669 
L 228.389063 193.955042 
L 229.018207 193.955042 
L 229.018207 187.493446 
L 229.642618 187.493446 
L 229.642618 198.371817 
L 230.262366 198.371817 
L 230.262366 190.345833 
L 230.87752 190.345833 
L 230.87752 160.399715 
L 231.488148 160.399715 
L 231.488148 204.517306 
L 232.094316 204.517306 
L 232.094316 194.114316 
L 232.696088 194.114316 
L 232.696088 200.118864 
L 233.293527 200.118864 
L 233.293527 198.141824 
L 233.886697 198.141824 
L 233.886697 204.468972 
L 234.475657 204.468972 
L 234.475657 176.320613 
L 235.060467 176.320613 
L 235.060467 208.635143 
L 235.641184 208.635143 
L 235.641184 209.891564 
L 236.217866 209.891564 
L 236.217866 210.95467 
L 236.790568 210.95467 
L 236.790568 185.716728 
L 237.359346 185.716728 
L 237.359346 194.312531 
L 237.924251 194.312531 
L 237.924251 194.813363 
L 238.485337 194.813363 
L 238.485337 202.234451 
L 239.042655 202.234451 
L 239.042655 204.262216 
L 239.596256 204.262216 
L 239.596256 203.84137 
L 240.146188 203.84137 
L 240.146188 206.352167 
L 240.6925 206.352167 
L 240.6925 207.342285 
L 241.235239 207.342285 
L 241.235239 208.110769 
L 241.774451 208.110769 
L 241.774451 208.781515 
L 242.310183 208.781515 
L 242.310183 209.361074 
L 242.842478 209.361074 
L 242.842478 210.375819 
L 243.371381 210.375819 
L 243.371381 209.617482 
L 243.896935 209.617482 
L 243.896935 211.961886 
L 244.419181 211.961886 
L 244.419181 212.638878 
L 244.938161 212.638878 
L 244.938161 213.371352 
L 245.453916 213.371352 
L 245.453916 214.12846 
L 245.966486 214.12846 
L 245.966486 214.907738 
L 246.475909 214.907738 
L 246.475909 215.700062 
L 246.982224 215.700062 
L 246.982224 216.477579 
L 247.485468 216.477579 
L 247.485468 217.114176 
L 247.98568 217.114176 
L 247.98568 216.578071 
L 248.482894 216.578071 
L 248.482894 218.480528 
L 248.977148 218.480528 
L 248.977148 219.265677 
L 249.468475 219.265677 
L 249.468475 220.069031 
L 249.95691 220.069031 
L 249.95691 220.244888 
L 250.442488 220.244888 
L 250.442488 221.551795 
L 250.92524 221.551795 
L 250.92524 221.887011 
L 251.405201 221.887011 
L 251.405201 222.698533 
L 251.882402 222.698533 
L 251.882402 223.485028 
L 252.356875 223.485028 
L 252.356875 224.254121 
L 252.82865 224.254121 
L 252.82865 225.141731 
L 253.297759 225.141731 
L 253.297759 225.577957 
L 254.228095 225.524763 
L 254.228095 227.323528 
L 254.689381 227.323528 
L 254.689381 228.062001 
L 255.148117 228.062001 
L 255.148117 226.996773 
L 255.604332 226.996773 
L 255.604332 228.128235 
L 256.058052 228.128235 
L 256.058052 230.017119 
L 256.509305 230.017119 
L 256.509305 196.442742 
L 256.958118 196.442742 
L 256.958118 225.621128 
L 257.404516 225.621128 
L 257.404516 212.535488 
L 257.848526 212.535488 
L 257.848526 197.458393 
L 258.290173 197.458393 
L 258.290173 233.793433 
L 258.729483 233.793433 
L 258.729483 234.768181 
L 259.166479 234.768181 
L 259.166479 235.44919 
L 259.601185 235.44919 
L 259.601185 236.30136 
L 260.033627 236.30136 
L 260.033627 236.959571 
L 260.463827 236.959571 
L 260.463827 237.643058 
L 260.891809 237.643058 
L 260.891809 238.267503 
L 261.317594 238.267503 
L 261.317594 239.089281 
L 261.741207 239.089281 
L 261.741207 239.925161 
L 262.162668 239.925161 
L 262.162668 240.711663 
L 262.581999 240.711663 
L 262.581999 241.36781 
L 262.999222 241.36781 
L 262.999222 242.04789 
L 263.414358 242.04789 
L 263.414358 242.765638 
L 263.827428 242.765638 
L 263.827428 243.507538 
L 264.238452 243.507538 
L 264.238452 244.208045 
L 264.64745 244.208045 
L 264.64745 245.021703 
L 265.054442 245.021703 
L 265.054442 245.800913 
L 265.459449 245.800913 
L 265.459449 246.187788 
L 265.862488 246.187788 
L 265.862488 247.141594 
L 266.263579 247.141594 
L 266.263579 247.627073 
L 266.662741 247.627073 
L 266.662741 248.29157 
L 267.059993 248.29157 
L 267.059993 247.12429 
L 267.455352 247.12429 
L 267.455352 249.928045 
L 267.848836 249.928045 
L 267.848836 233.703852 
L 268.240464 233.703852 
L 268.240464 248.157124 
L 268.630252 248.157124 
L 268.630252 248.966007 
L 269.018218 248.966007 
L 269.018218 251.64315 
L 269.404378 251.64315 
L 269.404378 253.640395 
L 269.78875 253.640395 
L 269.78875 254.034921 
L 270.17135 254.034921 
L 270.17135 254.92464 
L 270.552195 254.92464 
L 270.552195 242.294743 
L 270.931299 242.294743 
L 270.931299 256.539619 
L 271.30868 256.539619 
L 271.30868 247.109545 
L 271.684352 247.109545 
L 271.684352 251.836933 
L 272.058331 251.836933 
L 272.058331 258.698691 
L 272.430633 258.698691 
L 272.430633 256.483413 
L 272.801271 256.483413 
L 272.801271 253.45487 
L 273.170262 253.45487 
L 273.170262 254.618359 
L 273.53762 254.618359 
L 273.53762 256.115643 
L 273.903358 256.115643 
L 273.903358 256.518275 
L 274.267492 256.518275 
L 274.267492 259.221868 
L 274.630035 259.221868 
L 274.630035 254.440888 
L 274.991001 254.440888 
L 274.991001 262.102249 
L 275.350404 262.102249 
L 275.350404 263.412024 
L 275.708257 263.412024 
L 275.708257 265.523605 
L 276.064573 265.523605 
L 276.064573 266.501001 
L 276.419367 266.501001 
L 276.419367 263.826431 
L 276.77265 263.826431 
L 276.77265 268.278836 
L 277.124435 268.278836 
L 277.124435 269.047494 
L 277.474735 269.047494 
L 277.474735 267.902188 
L 277.823564 267.902188 
L 277.823564 270.300987 
L 278.170931 270.300987 
L 278.170931 269.45454 
L 278.516851 269.45454 
L 278.516851 271.042068 
L 278.861336 271.042068 
L 278.861336 272.383733 
L 279.204396 272.383733 
L 279.204396 272.737001 
L 279.546043 272.737001 
L 279.546043 273.506488 
L 279.88629 273.506488 
L 279.88629 274.523699 
L 280.225148 274.523699 
L 280.225148 275.188552 
L 280.562628 275.188552 
L 280.562628 275.861567 
L 280.898741 275.861567 
L 280.898741 275.566362 
L 281.233498 275.566362 
L 281.233498 277.327779 
L 281.56691 277.327779 
L 281.56691 278.09379 
L 281.898988 278.09379 
L 281.898988 278.846665 
L 282.229743 278.846665 
L 282.229743 279.583441 
L 282.559185 279.583441 
L 282.559185 280.205075 
L 282.887324 280.205075 
L 282.887324 280.893275 
L 283.21417 280.893275 
L 283.21417 281.642364 
L 283.539735 281.642364 
L 283.539735 282.398005 
L 283.864027 282.398005 
L 283.864027 283.148357 
L 284.187057 283.148357 
L 284.187057 283.801669 
L 284.508834 283.801669 
L 284.508834 284.504755 
L 284.829369 284.504755 
L 284.829369 284.21421 
L 285.14867 284.21421 
L 285.14867 285.548475 
L 285.466747 285.548475 
L 285.466747 286.701167 
L 285.78361 286.701167 
L 285.78361 287.228917 
L 286.41373 287.315109 
L 286.41373 288.984311 
L 287.039101 289.061663 
L 287.039101 290.124303 
L 287.350028 290.124303 
L 287.350028 289.344491 
L 287.659795 289.344491 
L 287.659795 280.922958 
L 287.96841 280.922958 
L 287.96841 290.73671 
L 288.275881 290.73671 
L 288.275881 280.534776 
L 288.582217 280.534776 
L 288.582217 279.230444 
L 288.887427 279.230444 
L 288.887427 284.365856 
L 289.191518 284.365856 
L 289.191518 287.783567 
L 289.4945 287.783567 
L 289.4945 288.46074 
L 289.796379 288.46074 
L 289.796379 286.826103 
L 290.097163 286.826103 
L 290.097163 297.34636 
L 290.396862 297.34636 
L 290.396862 298.167894 
L 290.695482 298.167894 
L 290.695482 297.371906 
L 290.993032 297.371906 
L 290.993032 299.667311 
L 291.289518 299.667311 
L 291.289518 300.177014 
L 291.58495 300.177014 
L 291.58495 300.939187 
L 291.879333 300.939187 
L 291.879333 301.764549 
L 292.172675 301.764549 
L 292.172675 302.595329 
L 292.464985 302.595329 
L 292.464985 303.346033 
L 292.756268 303.346033 
L 292.756268 304.068686 
L 293.046532 304.068686 
L 293.046532 304.761898 
L 293.335785 304.761898 
L 293.335785 305.412365 
L 293.624033 305.412365 
L 293.624033 306.22594 
L 293.911284 306.22594 
L 293.911284 306.966766 
L 294.197543 306.966766 
L 294.197543 307.681898 
L 294.482819 307.681898 
L 294.482819 308.460062 
L 294.767117 308.460062 
L 294.767117 309.133147 
L 295.050445 309.133147 
L 295.050445 309.808092 
L 295.332809 309.808092 
L 295.332809 310.525702 
L 295.614215 310.525702 
L 295.614215 311.273026 
L 295.89467 311.273026 
L 295.89467 312.002559 
L 296.174181 312.002559 
L 296.174181 312.746214 
L 296.452753 312.746214 
L 296.452753 313.494485 
L 296.730394 313.494485 
L 296.730394 314.161055 
L 297.007108 314.161055 
L 297.007108 314.835221 
L 297.282903 314.835221 
L 297.282903 315.570303 
L 297.557785 315.570303 
L 297.557785 316.321197 
L 297.831759 316.321197 
L 297.831759 316.987698 
L 298.104832 316.987698 
L 298.104832 317.639111 
L 298.377009 317.639111 
L 298.377009 316.071803 
L 298.648296 316.071803 
L 298.648296 318.751934 
L 298.918699 318.751934 
L 298.918699 319.483448 
L 299.188224 319.483448 
L 299.188224 320.344992 
L 299.456877 320.344992 
L 299.456877 321.314282 
L 299.724663 321.314282 
L 299.724663 320.90118 
L 299.991587 320.90118 
L 299.991587 322.70061 
L 300.257656 322.70061 
L 300.257656 316.476583 
L 300.522874 316.476583 
L 300.522874 317.612552 
L 300.787248 317.612552 
L 300.787248 323.35696 
L 301.050782 323.35696 
L 301.050782 325.074623 
L 301.313481 325.074623 
L 301.313481 324.884102 
L 301.575352 324.884102 
L 301.575352 325.130689 
L 301.836399 325.130689 
L 301.836399 327.529257 
L 302.096628 327.529257 
L 302.096628 328.477864 
L 302.356043 328.477864 
L 302.356043 328.761836 
L 302.614649 328.761836 
L 302.614649 328.973537 
L 302.872453 328.973537 
L 302.872453 330.0365 
L 303.129457 330.0365 
L 303.129457 331.262549 
L 303.385669 331.262549 
L 303.385669 331.956276 
L 303.641092 331.956276 
L 303.641092 332.231275 
L 303.895731 332.231275 
L 303.895731 327.564934 
L 304.149591 327.564934 
L 304.149591 332.237669 
L 304.402677 332.237669 
L 304.402677 332.05173 
L 304.654994 332.05173 
L 304.654994 335.405676 
L 304.906546 335.405676 
L 304.906546 334.551301 
L 305.157337 334.551301 
L 305.157337 336.916949 
L 305.407373 336.916949 
L 305.407373 337.479589 
L 305.656658 337.479589 
L 305.656658 334.429426 
L 305.905196 334.429426 
L 305.905196 337.306245 
L 306.152993 337.306245 
L 306.152993 340.006581 
L 306.400051 340.006581 
L 306.400051 338.004961 
L 306.646376 338.004961 
L 306.646376 340.357888 
L 306.891973 340.357888 
L 306.891973 339.285754 
L 307.136844 339.285754 
L 307.136844 341.8694 
L 307.380995 341.8694 
L 307.380995 341.579969 
L 307.62443 341.579969 
L 307.62443 342.958806 
L 307.867153 342.958806 
L 307.867153 344.526721 
L 308.109168 344.526721 
L 308.109168 344.853013 
L 308.35048 344.853013 
L 308.35048 345.89849 
L 308.591092 345.89849 
L 308.591092 346.6 
L 308.591092 346.6 
" clip-path="url(#p0b4ba24c5e)" style="fill: none; stroke: #2ca02c; stroke-width: 1.5; stroke-linecap: square"/>
   </g>
   <g id="patch_3">
    <path d="M 57.6 307.584 
L 57.6 41.472 
" style="fill: none; stroke: #000000; stroke-width: 0.8; stroke-linejoin: miter; stroke-linecap: square"/>
   </g>
   <g id="patch_4">
    <path d="M 414.72 307.584 
L 414.72 41.472 
" style="fill: none; stroke: #000000; stroke-width: 0.8; stroke-linejoin: miter; stroke-linecap: square"/>
   </g>
   <g id="patch_5">
    <path d="M 57.6 307.584 
L 414.72 307.584 
" style="fill: none; stroke: #000000; stroke-width: 0.8; stroke-linejoin: miter; stroke-linecap: square"/>
   </g>
   <g id="patch_6">
    <path d="M 57.6 41.472 
L 414.72 41.472 
" style="fill: none; stroke: #000000; stroke-width: 0.8; stroke-linejoin: miter; stroke-linecap: square"/>
   </g>
   <g id="text_10">
    <!-- T=1.0e+06 K -->
    <g transform="translate(202.375313 35.472)scale(0.12 -0.12)">
     <defs>
      <path id="Roboto-Regular-54" d="M 156 4056 
L 156 4550 
L 3672 4550 
L 3672 4056 
L 2209 4056 
L 2209 0 
L 1616 0 
L 1616 4056 
L 156 4056 
z
" transform="scale(0.015625)"/>
      <path id="Roboto-Regular-3d" d="M 3081 3047 
L 3081 2544 
L 475 2544 
L 475 3047 
L 3081 3047 
z
M 3081 1750 
L 3081 1247 
L 475 1247 
L 475 1750 
L 3081 1750 
z
" transform="scale(0.015625)"/>
      <path id="Roboto-Regular-2e" d="M 450 306 
Q 450 453 542 554 
Q 634 656 809 656 
Q 984 656 1076 554 
Q 1169 453 1169 306 
Q 1169 163 1076 62 
Q 984 -38 809 -38 
Q 634 -38 542 62 
Q 450 163 450 306 
z
" transform="scale(0.015625)"/>
      <path id="Roboto-Regular-2b" d="M 3363 1897 
L 2094 1897 
L 2094 456 
L 1516 456 
L 1516 1897 
L 244 1897 
L 244 2441 
L 1516 2441 
L 1516 3769 
L 2094 3769 
L 2094 2441 
L 3363 2441 
L 3363 1897 
z
" transform="scale(0.015625)"/>
      <path id="Roboto-Regular-4b" d="M 3297 0 
L 1688 2119 
L 1131 1541 
L 1131 0 
L 528 0 
L 528 4550 
L 1131 4550 
L 1131 2306 
L 3153 4550 
L 3878 4550 
L 2091 2541 
L 4016 0 
L 3297 0 
z
" transform="scale(0.015625)"/>
     </defs>
     <use xlink:href="#Roboto-Regular-54"/>
     <use xlink:href="#Roboto-Regular-3d" x="59.667969"/>
     <use xlink:href="#Roboto-Regular-31" x="114.550781"/>
     <use xlink:href="#Roboto-Regular-2e" x="170.751953"/>
     <use xlink:href="#Roboto-Regular-30" x="197.119141"/>
     <use xlink:href="#Roboto-Regular-65" x="253.320312"/>
     <use xlink:href="#Roboto-Regular-2b" x="306.347656"/>
     <use xlink:href="#Roboto-Regular-30" x="363.085938"/>
     <use xlink:href="#Roboto-Regular-36" x="419.287109"/>
     <use xlink:href="#Roboto-Regular-20" x="475.488281"/>
     <use xlink:href="#Roboto-Regular-4b" x="500.292969"/>
    </g>
   </g>
   <g id="legend_1">
    <g id="patch_7">
     <path d="M 341.62 93.06575 
L 407.72 93.06575 
Q 409.72 93.06575 409.72 91.06575 
L 409.72 48.472 
Q 409.72 46.472 407.72 46.472 
L 341.62 46.472 
Q 339.62 46.472 339.62 48.472 
L 339.62 91.06575 
Q 339.62 93.06575 341.62 93.06575 
z
" style="fill: #ffffff; opacity: 0.8; stroke: #cccccc; stroke-linejoin: miter"/>
    </g>
    <g id="line2d_25">
     <path d="M 343.62 54.472 
L 343.62 54.472 
L 353.62 54.472 
L 353.62 54.472 
L 363.62 54.472 
" style="fill: none; stroke: #1f77b4; stroke-width: 1.5; stroke-linecap: square"/>
    </g>
    <g id="text_11">
     <!-- $\kappa =5.0$ -->
     <g transform="translate(371.62 57.972)scale(0.1 -0.1)">
      <defs>
       <path id="Roboto-Regular-3ba" d="M 2669 0 
L 1400 1444 
L 1063 1444 
L 1063 0 
L 484 0 
L 484 3381 
L 1063 3381 
L 1063 1950 
L 1350 1950 
L 2588 3381 
L 3288 3381 
L 1875 1744 
L 3400 0 
L 2669 0 
z
" transform="scale(0.015625)"/>
      </defs>
      <use xlink:href="#Roboto-Regular-3ba" transform="translate(0 0.921875)"/>
      <use xlink:href="#Roboto-Regular-3d" transform="translate(73.203125 0.921875)"/>
      <use xlink:href="#Roboto-Regular-35" transform="translate(145.625 0.921875)"/>
      <use xlink:href="#Roboto-Regular-2e" transform="translate(201.826172 0.921875)"/>
      <use xlink:href="#Roboto-Regular-30" transform="translate(228.193359 0.921875)"/>
     </g>
    </g>
    <g id="line2d_26">
     <path d="M 343.62 69.00325 
L 343.62 69.00325 
L 353.62 69.00325 
L 353.62 69.00325 
L 363.62 69.00325 
" style="fill: none; stroke: #ff7f0e; stroke-width: 1.5; stroke-linecap: square"/>
    </g>
    <g id="text_12">
     <!-- $\kappa = 50.0$ -->
     <g transform="translate(371.62 72.50325)scale(0.1 -0.1)">
      <use xlink:href="#Roboto-Regular-3ba" transform="translate(0 0.921875)"/>
      <use xlink:href="#Roboto-Regular-3d" transform="translate(73.203125 0.921875)"/>
      <use xlink:href="#Roboto-Regular-35" transform="translate(145.625 0.921875)"/>
      <use xlink:href="#Roboto-Regular-30" transform="translate(201.826172 0.921875)"/>
      <use xlink:href="#Roboto-Regular-2e" transform="translate(258.027344 0.921875)"/>
      <use xlink:href="#Roboto-Regular-30" transform="translate(284.394531 0.921875)"/>
     </g>
    </g>
    <g id="line2d_27">
     <path d="M 343.62 83.5345 
L 343.62 83.5345 
L 353.62 83.5345 
L 353.62 83.5345 
L 363.62 83.5345 
" style="fill: none; stroke: #2ca02c; stroke-width: 1.5; stroke-linecap: square"/>
    </g>
    <g id="text_13">
     <!-- Maxw -->
     <g transform="translate(371.62 87.0345)scale(0.1 -0.1)">
      <defs>
       <path id="Roboto-Regular-4d" d="M 2794 841 
L 4281 4550 
L 5056 4550 
L 5056 0 
L 4456 0 
L 4456 1775 
L 4516 3678 
L 3019 0 
L 2563 0 
L 1069 3684 
L 1128 1775 
L 1128 0 
L 528 0 
L 528 4550 
L 1303 4550 
L 2794 841 
z
" transform="scale(0.015625)"/>
       <path id="Roboto-Regular-61" d="M 2528 0 
Q 2472 122 2447 356 
Q 2284 184 2040 60 
Q 1797 -63 1484 -63 
Q 966 -63 653 228 
Q 341 519 341 941 
Q 341 1484 753 1767 
Q 1166 2050 1863 2050 
L 2434 2050 
L 2434 2319 
Q 2434 2619 2254 2798 
Q 2075 2978 1722 2978 
Q 1394 2978 1192 2817 
Q 991 2656 991 2444 
L 413 2444 
Q 413 2806 778 3125 
Q 1144 3444 1756 3444 
Q 2306 3444 2659 3162 
Q 3013 2881 3013 2313 
L 3013 794 
Q 3013 325 3131 50 
L 3131 0 
L 2528 0 
z
M 1569 444 
Q 1881 444 2111 600 
Q 2341 756 2434 947 
L 2434 1644 
L 1897 1644 
Q 922 1625 922 1019 
Q 922 778 1084 611 
Q 1247 444 1569 444 
z
" transform="scale(0.015625)"/>
       <path id="Roboto-Regular-78" d="M 831 3381 
L 1572 2150 
L 2322 3381 
L 3000 3381 
L 1894 1713 
L 3034 0 
L 2366 0 
L 1584 1269 
L 803 0 
L 131 0 
L 1269 1713 
L 166 3381 
L 831 3381 
z
" transform="scale(0.015625)"/>
       <path id="Roboto-Regular-77" d="M 4659 3381 
L 3678 0 
L 3209 0 
L 2388 2559 
L 1588 0 
L 1116 0 
L 134 3381 
L 713 3381 
L 1378 856 
L 2166 3381 
L 2631 3381 
L 3431 803 
L 4084 3381 
L 4659 3381 
z
" transform="scale(0.015625)"/>
      </defs>
      <use xlink:href="#Roboto-Regular-4d"/>
      <use xlink:href="#Roboto-Regular-61" x="87.304688"/>
      <use xlink:href="#Roboto-Regular-78" x="141.699219"/>
      <use xlink:href="#Roboto-Regular-77" x="191.308594"/>
     </g>
    </g>
   </g>
  </g>
 </g>
 <defs>
  <clipPath id="p0b4ba24c5e">
   <rect x="57.6" y="41.472" width="357.12" height="266.112"/>
  </clipPath>
 </defs>
</svg>
