<?xml version="1.0" encoding="utf-8" standalone="no"?>
<!DOCTYPE svg PUBLIC "-//W3C//DTD SVG 1.1//EN"
  "http://www.w3.org/Graphics/SVG/1.1/DTD/svg11.dtd">
<svg xmlns:xlink="http://www.w3.org/1999/xlink" width="460.8pt" height="345.6pt" viewBox="0 0 460.8 345.6" xmlns="http://www.w3.org/2000/svg" version="1.1">
 <metadata>
  <rdf:RDF xmlns:dc="http://purl.org/dc/elements/1.1/" xmlns:cc="http://creativecommons.org/ns#" xmlns:rdf="http://www.w3.org/1999/02/22-rdf-syntax-ns#">
   <cc:Work>
    <dc:type rdf:resource="http://purl.org/dc/dcmitype/StillImage"/>
    <dc:date>2026-03-12T15:43:07.043352</dc:date>
    <dc:format>image/svg+xml</dc:format>
    <dc:creator>
     <cc:Agent>
      <dc:title>Matplotlib v3.10.6, https://matplotlib.org/</dc:title>
     </cc:Agent>
    </dc:creator>
   </cc:Work>
  </rdf:RDF>
 </metadata>
 <defs>
  <style type="text/css">*{stroke-linejoin: round; stroke-linecap: butt}</style>
 </defs>
 <g id="figure_1">
  <g id="patch_1">
   <path d="M 0 345.6 
L 460.8 345.6 
L 460.8 0 
L 0 0 
z
" style="fill: #ffffff"/>
  </g>
  <g id="axes_1">
   <g id="patch_2">
    <path d="M 57.6 307.584 
L 414.72 307.584 
L 414.72 41.472 
L 57.6 41.472 
z
" style="fill: #ffffff"/>
   </g>
   <g id="matplotlib.axis_1">
    <g id="xtick_1">
     <g id="line2d_1">
      <defs>
       <path id="md97ce12db7" d="M 0 0 
L 0 3.5 
" style="stroke: #000000; stroke-width: 0.8"/>
      </defs>
      <g>
       <use xlink:href="#md97ce12db7" x="73.832727" y="307.584" style="stroke: #000000; stroke-width: 0.8"/>
      </g>
     </g>
     <g id="text_1">
      <!-- $\mathdefault{10^{-2}}$ -->
      <g transform="translate(62.082727 322.182437) scale(0.1 -0.1)">
       <defs>
        <path id="DejaVuSans-31" d="M 794 531 
L 1825 531 
L 1825 4091 
L 703 3866 
L 703 4441 
L 1819 4666 
L 2450 4666 
L 2450 531 
L 3481 531 
L 3481 0 
L 794 0 
L 794 531 
z
" transform="scale(0.015625)"/>
        <path id="DejaVuSans-30" d="M 2034 4250 
Q 1547 4250 1301 3770 
Q 1056 3291 1056 2328 
Q 1056 1369 1301 889 
Q 1547 409 2034 409 
Q 2525 409 2770 889 
Q 3016 1369 3016 2328 
Q 3016 3291 2770 3770 
Q 2525 4250 2034 4250 
z
M 2034 4750 
Q 2819 4750 3233 4129 
Q 3647 3509 3647 2328 
Q 3647 1150 3233 529 
Q 2819 -91 2034 -91 
Q 1250 -91 836 529 
Q 422 1150 422 2328 
Q 422 3509 836 4129 
Q 1250 4750 2034 4750 
z
" transform="scale(0.015625)"/>
        <path id="DejaVuSans-2212" d="M 678 2272 
L 4684 2272 
L 4684 1741 
L 678 1741 
L 678 2272 
z
" transform="scale(0.015625)"/>
        <path id="DejaVuSans-32" d="M 1228 531 
L 3431 531 
L 3431 0 
L 469 0 
L 469 531 
Q 828 903 1448 1529 
Q 2069 2156 2228 2338 
Q 2531 2678 2651 2914 
Q 2772 3150 2772 3378 
Q 2772 3750 2511 3984 
Q 2250 4219 1831 4219 
Q 1534 4219 1204 4116 
Q 875 4013 500 3803 
L 500 4441 
Q 881 4594 1212 4672 
Q 1544 4750 1819 4750 
Q 2544 4750 2975 4387 
Q 3406 4025 3406 3419 
Q 3406 3131 3298 2873 
Q 3191 2616 2906 2266 
Q 2828 2175 2409 1742 
Q 1991 1309 1228 531 
z
" transform="scale(0.015625)"/>
       </defs>
       <use xlink:href="#DejaVuSans-31" transform="translate(0 0.765625)"/>
       <use xlink:href="#DejaVuSans-30" transform="translate(63.623047 0.765625)"/>
       <use xlink:href="#DejaVuSans-2212" transform="translate(128.203125 39.046875) scale(0.7)"/>
       <use xlink:href="#DejaVuSans-32" transform="translate(186.855469 39.046875) scale(0.7)"/>
      </g>
     </g>
    </g>
    <g id="xtick_2">
     <g id="line2d_2">
      <g>
       <use xlink:href="#md97ce12db7" x="194.121039" y="307.584" style="stroke: #000000; stroke-width: 0.8"/>
      </g>
     </g>
     <g id="text_2">
      <!-- $\mathdefault{10^{-1}}$ -->
      <g transform="translate(182.371039 322.182437) scale(0.1 -0.1)">
       <use xlink:href="#DejaVuSans-31" transform="translate(0 0.684375)"/>
       <use xlink:href="#DejaVuSans-30" transform="translate(63.623047 0.684375)"/>
       <use xlink:href="#DejaVuSans-2212" transform="translate(128.203125 38.965625) scale(0.7)"/>
       <use xlink:href="#DejaVuSans-31" transform="translate(186.855469 38.965625) scale(0.7)"/>
      </g>
     </g>
    </g>
    <g id="xtick_3">
     <g id="line2d_3">
      <g>
       <use xlink:href="#md97ce12db7" x="314.409351" y="307.584" style="stroke: #000000; stroke-width: 0.8"/>
      </g>
     </g>
     <g id="text_3">
      <!-- $\mathdefault{10^{0}}$ -->
      <g transform="translate(305.609351 322.182437) scale(0.1 -0.1)">
       <use xlink:href="#DejaVuSans-31" transform="translate(0 0.765625)"/>
       <use xlink:href="#DejaVuSans-30" transform="translate(63.623047 0.765625)"/>
       <use xlink:href="#DejaVuSans-30" transform="translate(128.203125 39.046875) scale(0.7)"/>
      </g>
     </g>
    </g>
    <g id="xtick_4">
     <g id="line2d_4">
      <defs>
       <path id="m983360aaef" d="M 0 0 
L 0 2 
" style="stroke: #000000; stroke-width: 0.6"/>
      </defs>
      <g>
       <use xlink:href="#m983360aaef" x="62.175585" y="307.584" style="stroke: #000000; stroke-width: 0.6"/>
      </g>
     </g>
    </g>
    <g id="xtick_5">
     <g id="line2d_5">
      <g>
       <use xlink:href="#m983360aaef" x="68.328636" y="307.584" style="stroke: #000000; stroke-width: 0.6"/>
      </g>
     </g>
    </g>
    <g id="xtick_6">
     <g id="line2d_6">
      <g>
       <use xlink:href="#m983360aaef" x="110.043117" y="307.584" style="stroke: #000000; stroke-width: 0.6"/>
      </g>
     </g>
    </g>
    <g id="xtick_7">
     <g id="line2d_7">
      <g>
       <use xlink:href="#m983360aaef" x="131.224838" y="307.584" style="stroke: #000000; stroke-width: 0.6"/>
      </g>
     </g>
    </g>
    <g id="xtick_8">
     <g id="line2d_8">
      <g>
       <use xlink:href="#m983360aaef" x="146.253507" y="307.584" style="stroke: #000000; stroke-width: 0.6"/>
      </g>
     </g>
    </g>
    <g id="xtick_9">
     <g id="line2d_9">
      <g>
       <use xlink:href="#m983360aaef" x="157.910649" y="307.584" style="stroke: #000000; stroke-width: 0.6"/>
      </g>
     </g>
    </g>
    <g id="xtick_10">
     <g id="line2d_10">
      <g>
       <use xlink:href="#m983360aaef" x="167.435228" y="307.584" style="stroke: #000000; stroke-width: 0.6"/>
      </g>
     </g>
    </g>
    <g id="xtick_11">
     <g id="line2d_11">
      <g>
       <use xlink:href="#m983360aaef" x="175.488144" y="307.584" style="stroke: #000000; stroke-width: 0.6"/>
      </g>
     </g>
    </g>
    <g id="xtick_12">
     <g id="line2d_12">
      <g>
       <use xlink:href="#m983360aaef" x="182.463897" y="307.584" style="stroke: #000000; stroke-width: 0.6"/>
      </g>
     </g>
    </g>
    <g id="xtick_13">
     <g id="line2d_13">
      <g>
       <use xlink:href="#m983360aaef" x="188.616948" y="307.584" style="stroke: #000000; stroke-width: 0.6"/>
      </g>
     </g>
    </g>
    <g id="xtick_14">
     <g id="line2d_14">
      <g>
       <use xlink:href="#m983360aaef" x="230.331429" y="307.584" style="stroke: #000000; stroke-width: 0.6"/>
      </g>
     </g>
    </g>
    <g id="xtick_15">
     <g id="line2d_15">
      <g>
       <use xlink:href="#m983360aaef" x="251.513149" y="307.584" style="stroke: #000000; stroke-width: 0.6"/>
      </g>
     </g>
    </g>
    <g id="xtick_16">
     <g id="line2d_16">
      <g>
       <use xlink:href="#m983360aaef" x="266.541819" y="307.584" style="stroke: #000000; stroke-width: 0.6"/>
      </g>
     </g>
    </g>
    <g id="xtick_17">
     <g id="line2d_17">
      <g>
       <use xlink:href="#m983360aaef" x="278.198961" y="307.584" style="stroke: #000000; stroke-width: 0.6"/>
      </g>
     </g>
    </g>
    <g id="xtick_18">
     <g id="line2d_18">
      <g>
       <use xlink:href="#m983360aaef" x="287.723539" y="307.584" style="stroke: #000000; stroke-width: 0.6"/>
      </g>
     </g>
    </g>
    <g id="xtick_19">
     <g id="line2d_19">
      <g>
       <use xlink:href="#m983360aaef" x="295.776456" y="307.584" style="stroke: #000000; stroke-width: 0.6"/>
      </g>
     </g>
    </g>
    <g id="xtick_20">
     <g id="line2d_20">
      <g>
       <use xlink:href="#m983360aaef" x="302.752209" y="307.584" style="stroke: #000000; stroke-width: 0.6"/>
      </g>
     </g>
    </g>
    <g id="xtick_21">
     <g id="line2d_21">
      <g>
       <use xlink:href="#m983360aaef" x="308.90526" y="307.584" style="stroke: #000000; stroke-width: 0.6"/>
      </g>
     </g>
    </g>
    <g id="xtick_22">
     <g id="line2d_22">
      <g>
       <use xlink:href="#m983360aaef" x="350.619741" y="307.584" style="stroke: #000000; stroke-width: 0.6"/>
      </g>
     </g>
    </g>
    <g id="xtick_23">
     <g id="line2d_23">
      <g>
       <use xlink:href="#m983360aaef" x="371.801461" y="307.584" style="stroke: #000000; stroke-width: 0.6"/>
      </g>
     </g>
    </g>
    <g id="xtick_24">
     <g id="line2d_24">
      <g>
       <use xlink:href="#m983360aaef" x="386.830131" y="307.584" style="stroke: #000000; stroke-width: 0.6"/>
      </g>
     </g>
    </g>
    <g id="xtick_25">
     <g id="line2d_25">
      <g>
       <use xlink:href="#m983360aaef" x="398.487273" y="307.584" style="stroke: #000000; stroke-width: 0.6"/>
      </g>
     </g>
    </g>
    <g id="xtick_26">
     <g id="line2d_26">
      <g>
       <use xlink:href="#m983360aaef" x="408.011851" y="307.584" style="stroke: #000000; stroke-width: 0.6"/>
      </g>
     </g>
    </g>
    <g id="text_4">
     <!-- Energy (keV) -->
     <g transform="translate(203.952187 335.860562) scale(0.1 -0.1)">
      <defs>
       <path id="DejaVuSans-45" d="M 628 4666 
L 3578 4666 
L 3578 4134 
L 1259 4134 
L 1259 2753 
L 3481 2753 
L 3481 2222 
L 1259 2222 
L 1259 531 
L 3634 531 
L 3634 0 
L 628 0 
L 628 4666 
z
" transform="scale(0.015625)"/>
       <path id="DejaVuSans-6e" d="M 3513 2113 
L 3513 0 
L 2938 0 
L 2938 2094 
Q 2938 2591 2744 2837 
Q 2550 3084 2163 3084 
Q 1697 3084 1428 2787 
Q 1159 2491 1159 1978 
L 1159 0 
L 581 0 
L 581 3500 
L 1159 3500 
L 1159 2956 
Q 1366 3272 1645 3428 
Q 1925 3584 2291 3584 
Q 2894 3584 3203 3211 
Q 3513 2838 3513 2113 
z
" transform="scale(0.015625)"/>
       <path id="DejaVuSans-65" d="M 3597 1894 
L 3597 1613 
L 953 1613 
Q 991 1019 1311 708 
Q 1631 397 2203 397 
Q 2534 397 2845 478 
Q 3156 559 3463 722 
L 3463 178 
Q 3153 47 2828 -22 
Q 2503 -91 2169 -91 
Q 1331 -91 842 396 
Q 353 884 353 1716 
Q 353 2575 817 3079 
Q 1281 3584 2069 3584 
Q 2775 3584 3186 3129 
Q 3597 2675 3597 1894 
z
M 3022 2063 
Q 3016 2534 2758 2815 
Q 2500 3097 2075 3097 
Q 1594 3097 1305 2825 
Q 1016 2553 972 2059 
L 3022 2063 
z
" transform="scale(0.015625)"/>
       <path id="DejaVuSans-72" d="M 2631 2963 
Q 2534 3019 2420 3045 
Q 2306 3072 2169 3072 
Q 1681 3072 1420 2755 
Q 1159 2438 1159 1844 
L 1159 0 
L 581 0 
L 581 3500 
L 1159 3500 
L 1159 2956 
Q 1341 3275 1631 3429 
Q 1922 3584 2338 3584 
Q 2397 3584 2469 3576 
Q 2541 3569 2628 3553 
L 2631 2963 
z
" transform="scale(0.015625)"/>
       <path id="DejaVuSans-67" d="M 2906 1791 
Q 2906 2416 2648 2759 
Q 2391 3103 1925 3103 
Q 1463 3103 1205 2759 
Q 947 2416 947 1791 
Q 947 1169 1205 825 
Q 1463 481 1925 481 
Q 2391 481 2648 825 
Q 2906 1169 2906 1791 
z
M 3481 434 
Q 3481 -459 3084 -895 
Q 2688 -1331 1869 -1331 
Q 1566 -1331 1297 -1286 
Q 1028 -1241 775 -1147 
L 775 -588 
Q 1028 -725 1275 -790 
Q 1522 -856 1778 -856 
Q 2344 -856 2625 -561 
Q 2906 -266 2906 331 
L 2906 616 
Q 2728 306 2450 153 
Q 2172 0 1784 0 
Q 1141 0 747 490 
Q 353 981 353 1791 
Q 353 2603 747 3093 
Q 1141 3584 1784 3584 
Q 2172 3584 2450 3431 
Q 2728 3278 2906 2969 
L 2906 3500 
L 3481 3500 
L 3481 434 
z
" transform="scale(0.015625)"/>
       <path id="DejaVuSans-79" d="M 2059 -325 
Q 1816 -950 1584 -1140 
Q 1353 -1331 966 -1331 
L 506 -1331 
L 506 -850 
L 844 -850 
Q 1081 -850 1212 -737 
Q 1344 -625 1503 -206 
L 1606 56 
L 191 3500 
L 800 3500 
L 1894 763 
L 2988 3500 
L 3597 3500 
L 2059 -325 
z
" transform="scale(0.015625)"/>
       <path id="DejaVuSans-20" transform="scale(0.015625)"/>
       <path id="DejaVuSans-28" d="M 1984 4856 
Q 1566 4138 1362 3434 
Q 1159 2731 1159 2009 
Q 1159 1288 1364 580 
Q 1569 -128 1984 -844 
L 1484 -844 
Q 1016 -109 783 600 
Q 550 1309 550 2009 
Q 550 2706 781 3412 
Q 1013 4119 1484 4856 
L 1984 4856 
z
" transform="scale(0.015625)"/>
       <path id="DejaVuSans-6b" d="M 581 4863 
L 1159 4863 
L 1159 1991 
L 2875 3500 
L 3609 3500 
L 1753 1863 
L 3688 0 
L 2938 0 
L 1159 1709 
L 1159 0 
L 581 0 
L 581 4863 
z
" transform="scale(0.015625)"/>
       <path id="DejaVuSans-56" d="M 1831 0 
L 50 4666 
L 709 4666 
L 2188 738 
L 3669 4666 
L 4325 4666 
L 2547 0 
L 1831 0 
z
" transform="scale(0.015625)"/>
       <path id="DejaVuSans-29" d="M 513 4856 
L 1013 4856 
Q 1481 4119 1714 3412 
Q 1947 2706 1947 2009 
Q 1947 1309 1714 600 
Q 1481 -109 1013 -844 
L 513 -844 
Q 928 -128 1133 580 
Q 1338 1288 1338 2009 
Q 1338 2731 1133 3434 
Q 928 4138 513 4856 
z
" transform="scale(0.015625)"/>
      </defs>
      <use xlink:href="#DejaVuSans-45"/>
      <use xlink:href="#DejaVuSans-6e" transform="translate(63.183594 0)"/>
      <use xlink:href="#DejaVuSans-65" transform="translate(126.5625 0)"/>
      <use xlink:href="#DejaVuSans-72" transform="translate(188.085938 0)"/>
      <use xlink:href="#DejaVuSans-67" transform="translate(227.449219 0)"/>
      <use xlink:href="#DejaVuSans-79" transform="translate(290.925781 0)"/>
      <use xlink:href="#DejaVuSans-20" transform="translate(350.105469 0)"/>
      <use xlink:href="#DejaVuSans-28" transform="translate(381.892578 0)"/>
      <use xlink:href="#DejaVuSans-6b" transform="translate(420.90625 0)"/>
      <use xlink:href="#DejaVuSans-65" transform="translate(475.191406 0)"/>
      <use xlink:href="#DejaVuSans-56" transform="translate(536.714844 0)"/>
      <use xlink:href="#DejaVuSans-29" transform="translate(605.123047 0)"/>
     </g>
    </g>
   </g>
   <g id="matplotlib.axis_2">
    <g id="ytick_1">
     <g id="line2d_27">
      <defs>
       <path id="m9fdb2b867a" d="M 0 0 
L -3.5 0 
" style="stroke: #000000; stroke-width: 0.8"/>
      </defs>
      <g>
       <use xlink:href="#m9fdb2b867a" x="57.6" y="277.194998" style="stroke: #000000; stroke-width: 0.8"/>
      </g>
     </g>
     <g id="text_5">
      <!-- $\mathdefault{10^{-51}}$ -->
      <g transform="translate(22.7 280.994217) scale(0.1 -0.1)">
       <defs>
        <path id="DejaVuSans-35" d="M 691 4666 
L 3169 4666 
L 3169 4134 
L 1269 4134 
L 1269 2991 
Q 1406 3038 1543 3061 
Q 1681 3084 1819 3084 
Q 2600 3084 3056 2656 
Q 3513 2228 3513 1497 
Q 3513 744 3044 326 
Q 2575 -91 1722 -91 
Q 1428 -91 1123 -41 
Q 819 9 494 109 
L 494 744 
Q 775 591 1075 516 
Q 1375 441 1709 441 
Q 2250 441 2565 725 
Q 2881 1009 2881 1497 
Q 2881 1984 2565 2268 
Q 2250 2553 1709 2553 
Q 1456 2553 1204 2497 
Q 953 2441 691 2322 
L 691 4666 
z
" transform="scale(0.015625)"/>
       </defs>
       <use xlink:href="#DejaVuSans-31" transform="translate(0 0.684375)"/>
       <use xlink:href="#DejaVuSans-30" transform="translate(63.623047 0.684375)"/>
       <use xlink:href="#DejaVuSans-2212" transform="translate(128.203125 38.965625) scale(0.7)"/>
       <use xlink:href="#DejaVuSans-35" transform="translate(186.855469 38.965625) scale(0.7)"/>
       <use xlink:href="#DejaVuSans-31" transform="translate(231.391602 38.965625) scale(0.7)"/>
      </g>
     </g>
    </g>
    <g id="ytick_2">
     <g id="line2d_28">
      <g>
       <use xlink:href="#m9fdb2b867a" x="57.6" y="243.565511" style="stroke: #000000; stroke-width: 0.8"/>
      </g>
     </g>
     <g id="text_6">
      <!-- $\mathdefault{10^{-45}}$ -->
      <g transform="translate(22.7 247.36473) scale(0.1 -0.1)">
       <defs>
        <path id="DejaVuSans-34" d="M 2419 4116 
L 825 1625 
L 2419 1625 
L 2419 4116 
z
M 2253 4666 
L 3047 4666 
L 3047 1625 
L 3713 1625 
L 3713 1100 
L 3047 1100 
L 3047 0 
L 2419 0 
L 2419 1100 
L 313 1100 
L 313 1709 
L 2253 4666 
z
" transform="scale(0.015625)"/>
       </defs>
       <use xlink:href="#DejaVuSans-31" transform="translate(0 0.684375)"/>
       <use xlink:href="#DejaVuSans-30" transform="translate(63.623047 0.684375)"/>
       <use xlink:href="#DejaVuSans-2212" transform="translate(128.203125 38.965625) scale(0.7)"/>
       <use xlink:href="#DejaVuSans-34" transform="translate(186.855469 38.965625) scale(0.7)"/>
       <use xlink:href="#DejaVuSans-35" transform="translate(231.391602 38.965625) scale(0.7)"/>
      </g>
     </g>
    </g>
    <g id="ytick_3">
     <g id="line2d_29">
      <g>
       <use xlink:href="#m9fdb2b867a" x="57.6" y="209.936024" style="stroke: #000000; stroke-width: 0.8"/>
      </g>
     </g>
     <g id="text_7">
      <!-- $\mathdefault{10^{-39}}$ -->
      <g transform="translate(22.7 213.735242) scale(0.1 -0.1)">
       <defs>
        <path id="DejaVuSans-33" d="M 2597 2516 
Q 3050 2419 3304 2112 
Q 3559 1806 3559 1356 
Q 3559 666 3084 287 
Q 2609 -91 1734 -91 
Q 1441 -91 1130 -33 
Q 819 25 488 141 
L 488 750 
Q 750 597 1062 519 
Q 1375 441 1716 441 
Q 2309 441 2620 675 
Q 2931 909 2931 1356 
Q 2931 1769 2642 2001 
Q 2353 2234 1838 2234 
L 1294 2234 
L 1294 2753 
L 1863 2753 
Q 2328 2753 2575 2939 
Q 2822 3125 2822 3475 
Q 2822 3834 2567 4026 
Q 2313 4219 1838 4219 
Q 1578 4219 1281 4162 
Q 984 4106 628 3988 
L 628 4550 
Q 988 4650 1302 4700 
Q 1616 4750 1894 4750 
Q 2613 4750 3031 4423 
Q 3450 4097 3450 3541 
Q 3450 3153 3228 2886 
Q 3006 2619 2597 2516 
z
" transform="scale(0.015625)"/>
        <path id="DejaVuSans-39" d="M 703 97 
L 703 672 
Q 941 559 1184 500 
Q 1428 441 1663 441 
Q 2288 441 2617 861 
Q 2947 1281 2994 2138 
Q 2813 1869 2534 1725 
Q 2256 1581 1919 1581 
Q 1219 1581 811 2004 
Q 403 2428 403 3163 
Q 403 3881 828 4315 
Q 1253 4750 1959 4750 
Q 2769 4750 3195 4129 
Q 3622 3509 3622 2328 
Q 3622 1225 3098 567 
Q 2575 -91 1691 -91 
Q 1453 -91 1209 -44 
Q 966 3 703 97 
z
M 1959 2075 
Q 2384 2075 2632 2365 
Q 2881 2656 2881 3163 
Q 2881 3666 2632 3958 
Q 2384 4250 1959 4250 
Q 1534 4250 1286 3958 
Q 1038 3666 1038 3163 
Q 1038 2656 1286 2365 
Q 1534 2075 1959 2075 
z
" transform="scale(0.015625)"/>
       </defs>
       <use xlink:href="#DejaVuSans-31" transform="translate(0 0.765625)"/>
       <use xlink:href="#DejaVuSans-30" transform="translate(63.623047 0.765625)"/>
       <use xlink:href="#DejaVuSans-2212" transform="translate(128.203125 39.046875) scale(0.7)"/>
       <use xlink:href="#DejaVuSans-33" transform="translate(186.855469 39.046875) scale(0.7)"/>
       <use xlink:href="#DejaVuSans-39" transform="translate(231.391602 39.046875) scale(0.7)"/>
      </g>
     </g>
    </g>
    <g id="ytick_4">
     <g id="line2d_30">
      <g>
       <use xlink:href="#m9fdb2b867a" x="57.6" y="176.306536" style="stroke: #000000; stroke-width: 0.8"/>
      </g>
     </g>
     <g id="text_8">
      <!-- $\mathdefault{10^{-33}}$ -->
      <g transform="translate(22.7 180.105755) scale(0.1 -0.1)">
       <use xlink:href="#DejaVuSans-31" transform="translate(0 0.765625)"/>
       <use xlink:href="#DejaVuSans-30" transform="translate(63.623047 0.765625)"/>
       <use xlink:href="#DejaVuSans-2212" transform="translate(128.203125 39.046875) scale(0.7)"/>
       <use xlink:href="#DejaVuSans-33" transform="translate(186.855469 39.046875) scale(0.7)"/>
       <use xlink:href="#DejaVuSans-33" transform="translate(231.391602 39.046875) scale(0.7)"/>
      </g>
     </g>
    </g>
    <g id="ytick_5">
     <g id="line2d_31">
      <g>
       <use xlink:href="#m9fdb2b867a" x="57.6" y="142.677049" style="stroke: #000000; stroke-width: 0.8"/>
      </g>
     </g>
     <g id="text_9">
      <!-- $\mathdefault{10^{-27}}$ -->
      <g transform="translate(22.7 146.476268) scale(0.1 -0.1)">
       <defs>
        <path id="DejaVuSans-37" d="M 525 4666 
L 3525 4666 
L 3525 4397 
L 1831 0 
L 1172 0 
L 2766 4134 
L 525 4134 
L 525 4666 
z
" transform="scale(0.015625)"/>
       </defs>
       <use xlink:href="#DejaVuSans-31" transform="translate(0 0.765625)"/>
       <use xlink:href="#DejaVuSans-30" transform="translate(63.623047 0.765625)"/>
       <use xlink:href="#DejaVuSans-2212" transform="translate(128.203125 39.046875) scale(0.7)"/>
       <use xlink:href="#DejaVuSans-32" transform="translate(186.855469 39.046875) scale(0.7)"/>
       <use xlink:href="#DejaVuSans-37" transform="translate(231.391602 39.046875) scale(0.7)"/>
      </g>
     </g>
    </g>
    <g id="ytick_6">
     <g id="line2d_32">
      <g>
       <use xlink:href="#m9fdb2b867a" x="57.6" y="109.047562" style="stroke: #000000; stroke-width: 0.8"/>
      </g>
     </g>
     <g id="text_10">
      <!-- $\mathdefault{10^{-21}}$ -->
      <g transform="translate(22.7 112.84678) scale(0.1 -0.1)">
       <use xlink:href="#DejaVuSans-31" transform="translate(0 0.765625)"/>
       <use xlink:href="#DejaVuSans-30" transform="translate(63.623047 0.765625)"/>
       <use xlink:href="#DejaVuSans-2212" transform="translate(128.203125 39.046875) scale(0.7)"/>
       <use xlink:href="#DejaVuSans-32" transform="translate(186.855469 39.046875) scale(0.7)"/>
       <use xlink:href="#DejaVuSans-31" transform="translate(231.391602 39.046875) scale(0.7)"/>
      </g>
     </g>
    </g>
    <g id="ytick_7">
     <g id="line2d_33">
      <g>
       <use xlink:href="#m9fdb2b867a" x="57.6" y="75.418074" style="stroke: #000000; stroke-width: 0.8"/>
      </g>
     </g>
     <g id="text_11">
      <!-- $\mathdefault{10^{-15}}$ -->
      <g transform="translate(22.7 79.217293) scale(0.1 -0.1)">
       <use xlink:href="#DejaVuSans-31" transform="translate(0 0.684375)"/>
       <use xlink:href="#DejaVuSans-30" transform="translate(63.623047 0.684375)"/>
       <use xlink:href="#DejaVuSans-2212" transform="translate(128.203125 38.965625) scale(0.7)"/>
       <use xlink:href="#DejaVuSans-31" transform="translate(186.855469 38.965625) scale(0.7)"/>
       <use xlink:href="#DejaVuSans-35" transform="translate(231.391602 38.965625) scale(0.7)"/>
      </g>
     </g>
    </g>
    <g id="ytick_8">
     <g id="line2d_34">
      <g>
       <use xlink:href="#m9fdb2b867a" x="57.6" y="41.788587" style="stroke: #000000; stroke-width: 0.8"/>
      </g>
     </g>
     <g id="text_12">
      <!-- $\mathdefault{10^{-9}}$ -->
      <g transform="translate(27.1 45.587806) scale(0.1 -0.1)">
       <use xlink:href="#DejaVuSans-31" transform="translate(0 0.765625)"/>
       <use xlink:href="#DejaVuSans-30" transform="translate(63.623047 0.765625)"/>
       <use xlink:href="#DejaVuSans-2212" transform="translate(128.203125 39.046875) scale(0.7)"/>
       <use xlink:href="#DejaVuSans-39" transform="translate(186.855469 39.046875) scale(0.7)"/>
      </g>
     </g>
    </g>
    <g id="text_13">
     <!-- Intensity (ph cm$^5$ s$^{-1}$ bin$^{-1}$) -->
     <g transform="translate(16.6 243.978) rotate(-90) scale(0.1 -0.1)">
      <defs>
       <path id="DejaVuSans-49" d="M 628 4666 
L 1259 4666 
L 1259 0 
L 628 0 
L 628 4666 
z
" transform="scale(0.015625)"/>
       <path id="DejaVuSans-74" d="M 1172 4494 
L 1172 3500 
L 2356 3500 
L 2356 3053 
L 1172 3053 
L 1172 1153 
Q 1172 725 1289 603 
Q 1406 481 1766 481 
L 2356 481 
L 2356 0 
L 1766 0 
Q 1100 0 847 248 
Q 594 497 594 1153 
L 594 3053 
L 172 3053 
L 172 3500 
L 594 3500 
L 594 4494 
L 1172 4494 
z
" transform="scale(0.015625)"/>
       <path id="DejaVuSans-73" d="M 2834 3397 
L 2834 2853 
Q 2591 2978 2328 3040 
Q 2066 3103 1784 3103 
Q 1356 3103 1142 2972 
Q 928 2841 928 2578 
Q 928 2378 1081 2264 
Q 1234 2150 1697 2047 
L 1894 2003 
Q 2506 1872 2764 1633 
Q 3022 1394 3022 966 
Q 3022 478 2636 193 
Q 2250 -91 1575 -91 
Q 1294 -91 989 -36 
Q 684 19 347 128 
L 347 722 
Q 666 556 975 473 
Q 1284 391 1588 391 
Q 1994 391 2212 530 
Q 2431 669 2431 922 
Q 2431 1156 2273 1281 
Q 2116 1406 1581 1522 
L 1381 1569 
Q 847 1681 609 1914 
Q 372 2147 372 2553 
Q 372 3047 722 3315 
Q 1072 3584 1716 3584 
Q 2034 3584 2315 3537 
Q 2597 3491 2834 3397 
z
" transform="scale(0.015625)"/>
       <path id="DejaVuSans-69" d="M 603 3500 
L 1178 3500 
L 1178 0 
L 603 0 
L 603 3500 
z
M 603 4863 
L 1178 4863 
L 1178 4134 
L 603 4134 
L 603 4863 
z
" transform="scale(0.015625)"/>
       <path id="DejaVuSans-70" d="M 1159 525 
L 1159 -1331 
L 581 -1331 
L 581 3500 
L 1159 3500 
L 1159 2969 
Q 1341 3281 1617 3432 
Q 1894 3584 2278 3584 
Q 2916 3584 3314 3078 
Q 3713 2572 3713 1747 
Q 3713 922 3314 415 
Q 2916 -91 2278 -91 
Q 1894 -91 1617 61 
Q 1341 213 1159 525 
z
M 3116 1747 
Q 3116 2381 2855 2742 
Q 2594 3103 2138 3103 
Q 1681 3103 1420 2742 
Q 1159 2381 1159 1747 
Q 1159 1113 1420 752 
Q 1681 391 2138 391 
Q 2594 391 2855 752 
Q 3116 1113 3116 1747 
z
" transform="scale(0.015625)"/>
       <path id="DejaVuSans-68" d="M 3513 2113 
L 3513 0 
L 2938 0 
L 2938 2094 
Q 2938 2591 2744 2837 
Q 2550 3084 2163 3084 
Q 1697 3084 1428 2787 
Q 1159 2491 1159 1978 
L 1159 0 
L 581 0 
L 581 4863 
L 1159 4863 
L 1159 2956 
Q 1366 3272 1645 3428 
Q 1925 3584 2291 3584 
Q 2894 3584 3203 3211 
Q 3513 2838 3513 2113 
z
" transform="scale(0.015625)"/>
       <path id="DejaVuSans-63" d="M 3122 3366 
L 3122 2828 
Q 2878 2963 2633 3030 
Q 2388 3097 2138 3097 
Q 1578 3097 1268 2742 
Q 959 2388 959 1747 
Q 959 1106 1268 751 
Q 1578 397 2138 397 
Q 2388 397 2633 464 
Q 2878 531 3122 666 
L 3122 134 
Q 2881 22 2623 -34 
Q 2366 -91 2075 -91 
Q 1284 -91 818 406 
Q 353 903 353 1747 
Q 353 2603 823 3093 
Q 1294 3584 2113 3584 
Q 2378 3584 2631 3529 
Q 2884 3475 3122 3366 
z
" transform="scale(0.015625)"/>
       <path id="DejaVuSans-6d" d="M 3328 2828 
Q 3544 3216 3844 3400 
Q 4144 3584 4550 3584 
Q 5097 3584 5394 3201 
Q 5691 2819 5691 2113 
L 5691 0 
L 5113 0 
L 5113 2094 
Q 5113 2597 4934 2840 
Q 4756 3084 4391 3084 
Q 3944 3084 3684 2787 
Q 3425 2491 3425 1978 
L 3425 0 
L 2847 0 
L 2847 2094 
Q 2847 2600 2669 2842 
Q 2491 3084 2119 3084 
Q 1678 3084 1418 2786 
Q 1159 2488 1159 1978 
L 1159 0 
L 581 0 
L 581 3500 
L 1159 3500 
L 1159 2956 
Q 1356 3278 1631 3431 
Q 1906 3584 2284 3584 
Q 2666 3584 2933 3390 
Q 3200 3197 3328 2828 
z
" transform="scale(0.015625)"/>
       <path id="DejaVuSans-62" d="M 3116 1747 
Q 3116 2381 2855 2742 
Q 2594 3103 2138 3103 
Q 1681 3103 1420 2742 
Q 1159 2381 1159 1747 
Q 1159 1113 1420 752 
Q 1681 391 2138 391 
Q 2594 391 2855 752 
Q 3116 1113 3116 1747 
z
M 1159 2969 
Q 1341 3281 1617 3432 
Q 1894 3584 2278 3584 
Q 2916 3584 3314 3078 
Q 3713 2572 3713 1747 
Q 3713 922 3314 415 
Q 2916 -91 2278 -91 
Q 1894 -91 1617 61 
Q 1341 213 1159 525 
L 1159 0 
L 581 0 
L 581 4863 
L 1159 4863 
L 1159 2969 
z
" transform="scale(0.015625)"/>
      </defs>
      <use xlink:href="#DejaVuSans-49" transform="translate(0 0.684375)"/>
      <use xlink:href="#DejaVuSans-6e" transform="translate(29.492188 0.684375)"/>
      <use xlink:href="#DejaVuSans-74" transform="translate(92.871094 0.684375)"/>
      <use xlink:href="#DejaVuSans-65" transform="translate(132.080078 0.684375)"/>
      <use xlink:href="#DejaVuSans-6e" transform="translate(193.603516 0.684375)"/>
      <use xlink:href="#DejaVuSans-73" transform="translate(256.982422 0.684375)"/>
      <use xlink:href="#DejaVuSans-69" transform="translate(309.082031 0.684375)"/>
      <use xlink:href="#DejaVuSans-74" transform="translate(336.865234 0.684375)"/>
      <use xlink:href="#DejaVuSans-79" transform="translate(376.074219 0.684375)"/>
      <use xlink:href="#DejaVuSans-20" transform="translate(435.253906 0.684375)"/>
      <use xlink:href="#DejaVuSans-28" transform="translate(467.041016 0.684375)"/>
      <use xlink:href="#DejaVuSans-70" transform="translate(506.054688 0.684375)"/>
      <use xlink:href="#DejaVuSans-68" transform="translate(569.53125 0.684375)"/>
      <use xlink:href="#DejaVuSans-20" transform="translate(632.910156 0.684375)"/>
      <use xlink:href="#DejaVuSans-63" transform="translate(664.697266 0.684375)"/>
      <use xlink:href="#DejaVuSans-6d" transform="translate(719.677734 0.684375)"/>
      <use xlink:href="#DejaVuSans-35" transform="translate(818.046875 38.965625) scale(0.7)"/>
      <use xlink:href="#DejaVuSans-20" transform="translate(865.317383 0.684375)"/>
      <use xlink:href="#DejaVuSans-73" transform="translate(897.104492 0.684375)"/>
      <use xlink:href="#DejaVuSans-2212" transform="translate(950.161133 38.965625) scale(0.7)"/>
      <use xlink:href="#DejaVuSans-31" transform="translate(1008.813477 38.965625) scale(0.7)"/>
      <use xlink:href="#DejaVuSans-20" transform="translate(1056.083984 0.684375)"/>
      <use xlink:href="#DejaVuSans-62" transform="translate(1087.871094 0.684375)"/>
      <use xlink:href="#DejaVuSans-69" transform="translate(1151.347656 0.684375)"/>
      <use xlink:href="#DejaVuSans-6e" transform="translate(1179.130859 0.684375)"/>
      <use xlink:href="#DejaVuSans-2212" transform="translate(1243.466797 38.965625) scale(0.7)"/>
      <use xlink:href="#DejaVuSans-31" transform="translate(1302.119141 38.965625) scale(0.7)"/>
      <use xlink:href="#DejaVuSans-29" transform="translate(1349.389648 0.684375)"/>
     </g>
    </g>
   </g>
   <g id="line2d_35">
    <path d="M 73.832727 54.454604 
L 94.979609 54.454604 
L 94.979609 53.568 
L 109.990851 53.568 
L 109.990851 57.015351 
L 121.637533 57.015351 
L 121.637533 62.304433 
L 131.155137 62.304433 
L 131.155137 62.892568 
L 139.203071 62.892568 
L 139.203071 65.398097 
L 146.175088 65.398097 
L 146.175088 62.782161 
L 152.325231 62.782161 
L 152.325231 64.629623 
L 157.826997 64.629623 
L 157.826997 63.800036 
L 162.804151 63.800036 
L 162.804151 65.035863 
L 167.348087 65.035863 
L 167.348087 66.609158 
L 171.528221 66.609158 
L 171.528221 66.99931 
L 175.398512 66.99931 
L 175.398512 65.258921 
L 179.001741 65.258921 
L 179.001741 70.09849 
L 182.372396 70.09849 
L 182.372396 69.372173 
L 185.53869 69.372173 
L 185.53869 70.789594 
L 188.523993 70.789594 
L 188.523993 71.948715 
L 191.347882 71.948715 
L 191.347882 74.812698 
L 194.026921 74.812698 
L 194.026921 73.548939 
L 196.575248 73.548939 
L 196.575248 73.038596 
L 199.005026 73.038596 
L 199.005026 76.441624 
L 201.326797 76.441624 
L 201.326797 76.582191 
L 203.549755 76.582191 
L 203.549755 76.42755 
L 205.68197 76.42755 
L 205.68197 76.306978 
L 207.730559 76.306978 
L 207.730559 78.970424 
L 209.701837 78.970424 
L 209.701837 80.550836 
L 211.601425 80.550836 
L 211.601425 80.259686 
L 213.434357 80.259686 
L 213.434357 80.069259 
L 215.205153 80.069259 
L 215.205153 80.233858 
L 216.917886 80.233858 
L 216.917886 83.305818 
L 218.576244 83.305818 
L 218.576244 83.561358 
L 220.183574 83.561358 
L 220.183574 84.573219 
L 221.742923 84.573219 
L 221.742923 79.734648 
L 223.257072 79.734648 
L 223.257072 83.318737 
L 224.728568 83.318737 
L 224.728568 86.417953 
L 226.159748 86.417953 
L 226.159748 87.00801 
L 227.552763 87.00801 
L 227.552763 87.273237 
L 228.909596 87.273237 
L 228.909596 88.023968 
L 230.232078 88.023968 
L 230.232078 87.271607 
L 231.521906 87.271607 
L 231.521906 83.224719 
L 232.780653 83.224719 
L 232.780653 88.686393 
L 234.009784 88.686393 
L 234.009784 89.548367 
L 235.210658 89.548367 
L 235.210658 90.126192 
L 236.384547 90.126192 
L 236.384547 89.767337 
L 237.532636 89.767337 
L 237.532636 90.714839 
L 238.656035 90.714839 
L 238.656035 87.300723 
L 239.755784 87.300723 
L 239.755784 91.511238 
L 240.832858 91.511238 
L 240.832858 91.636567 
L 241.888173 91.636567 
L 241.888173 92.194275 
L 242.922591 92.194275 
L 242.922591 92.509782 
L 243.936923 92.509782 
L 243.936923 92.734885 
L 244.931935 92.734885 
L 244.931935 92.944187 
L 246.866848 92.967065 
L 246.866848 93.445901 
L 247.808077 93.445901 
L 247.808077 93.005984 
L 248.732647 93.005984 
L 248.732647 93.492095 
L 249.641138 93.492095 
L 249.641138 93.999997 
L 250.534099 93.999997 
L 250.534099 83.323008 
L 251.412053 83.323008 
L 251.412053 89.683877 
L 252.275496 89.683877 
L 252.275496 83.785201 
L 253.124899 83.785201 
L 253.124899 96.376633 
L 253.960712 96.376633 
L 253.960712 96.705395 
L 254.783363 96.705395 
L 254.783363 97.09415 
L 255.59326 97.09415 
L 255.59326 97.280064 
L 256.390792 97.280064 
L 256.390792 96.715116 
L 257.176332 96.715116 
L 257.176332 96.910401 
L 257.950234 96.910401 
L 257.950234 97.804247 
L 258.712839 97.804247 
L 258.712839 97.524542 
L 260.205442 97.607322 
L 260.205442 89.273568 
L 260.93605 89.273568 
L 260.93605 98.904495 
L 261.656581 98.904495 
L 261.656581 96.584423 
L 262.367309 96.584423 
L 262.367309 92.031308 
L 263.068497 92.031308 
L 263.068497 93.638461 
L 263.760398 93.638461 
L 263.760398 95.289747 
L 264.443255 95.289747 
L 264.443255 94.572498 
L 265.117301 94.572498 
L 265.117301 94.096492 
L 265.782761 94.096492 
L 265.782761 93.407012 
L 266.439851 93.407012 
L 266.439851 94.56568 
L 267.088777 94.56568 
L 267.088777 95.600283 
L 267.729742 95.600283 
L 267.729742 96.351224 
L 268.988551 96.426719 
L 268.988551 91.542746 
L 269.60676 91.542746 
L 269.60676 94.984301 
L 270.217739 94.984301 
L 270.217739 91.948809 
L 270.821655 91.948809 
L 270.821655 99.578772 
L 271.418669 99.578772 
L 271.418669 100.537124 
L 272.008937 100.537124 
L 272.008937 101.038036 
L 272.59261 101.038036 
L 272.59261 101.463465 
L 273.169834 101.463465 
L 273.169834 101.87759 
L 273.74075 101.87759 
L 273.74075 101.753663 
L 274.305494 101.753663 
L 274.305494 102.531236 
L 274.864197 102.531236 
L 274.864197 101.999992 
L 275.416989 101.999992 
L 275.416989 102.184682 
L 275.963993 102.184682 
L 275.963993 103.055648 
L 276.505328 103.055648 
L 276.505328 103.672236 
L 277.041111 103.672236 
L 277.041111 103.265171 
L 277.571455 103.265171 
L 277.571455 97.780574 
L 278.096469 97.780574 
L 278.096469 103.631011 
L 278.616259 103.631011 
L 278.616259 104.41076 
L 279.130928 104.41076 
L 279.130928 104.570039 
L 279.640576 104.570039 
L 279.640576 105.048054 
L 280.1453 105.048054 
L 280.1453 100.59656 
L 280.645194 100.59656 
L 280.645194 105.305022 
L 281.14035 105.305022 
L 281.14035 102.186371 
L 281.630857 102.186371 
L 281.630857 103.379929 
L 282.598266 103.319841 
L 282.598266 103.732304 
L 283.075335 103.732304 
L 283.075335 99.476314 
L 283.548086 99.476314 
L 283.548086 98.181814 
L 284.016597 98.181814 
L 284.016597 94.937977 
L 284.480944 94.937977 
L 284.480944 98.672438 
L 284.9412 98.672438 
L 284.9412 98.483281 
L 285.397437 98.483281 
L 285.397437 96.094341 
L 285.849723 96.094341 
L 285.849723 105.708357 
L 286.298127 105.708357 
L 286.298127 106.345314 
L 286.742715 106.345314 
L 286.742715 106.750413 
L 287.183551 106.750413 
L 287.183551 107.309629 
L 287.620698 107.309629 
L 287.620698 107.680322 
L 288.054218 107.680322 
L 288.054218 108.118507 
L 288.48417 108.118507 
L 288.48417 108.439831 
L 288.910612 108.439831 
L 288.910612 108.66737 
L 289.753192 108.736907 
L 289.753192 109.2167 
L 290.16944 109.2167 
L 290.16944 108.939954 
L 290.582398 108.939954 
L 290.582398 106.311671 
L 290.992117 106.311671 
L 290.992117 104.845408 
L 291.398648 104.845408 
L 291.398648 107.074991 
L 291.802039 107.074991 
L 291.802039 109.817399 
L 292.20234 109.817399 
L 292.20234 110.261204 
L 292.599596 110.261204 
L 292.599596 108.360613 
L 292.993854 108.360613 
L 292.993854 102.295641 
L 293.385159 102.295641 
L 293.385159 110.228275 
L 293.773555 110.228275 
L 293.773555 109.542794 
L 294.159085 109.542794 
L 294.159085 110.002317 
L 294.54179 110.002317 
L 294.54179 110.30547 
L 294.921712 110.30547 
L 294.921712 110.879347 
L 295.29889 110.879347 
L 295.29889 105.458094 
L 295.673365 105.458094 
L 295.673365 112.236022 
L 296.045175 112.236022 
L 296.045175 112.566968 
L 296.414358 112.566968 
L 296.414358 107.327261 
L 296.780949 107.327261 
L 296.780949 112.933193 
L 297.144986 112.933193 
L 297.144986 109.033051 
L 297.865537 109.09031 
L 297.865537 110.883043 
L 298.222119 110.883043 
L 298.222119 110.55994 
L 298.576284 110.55994 
L 298.576284 105.639401 
L 298.928064 105.639401 
L 298.928064 106.238103 
L 299.277491 106.238103 
L 299.277491 107.370219 
L 299.624597 107.370219 
L 299.624597 108.403031 
L 299.969411 108.403031 
L 299.969411 109.307274 
L 300.311964 109.307274 
L 300.311964 110.118043 
L 300.652286 110.118043 
L 300.652286 110.847357 
L 300.990405 110.847357 
L 300.990405 111.511039 
L 301.326349 111.511039 
L 301.326349 112.105858 
L 301.660147 112.105858 
L 301.660147 112.650496 
L 301.991826 112.650496 
L 301.991826 113.140765 
L 302.321412 113.140765 
L 302.321412 113.580896 
L 302.648932 113.580896 
L 302.648932 113.986655 
L 302.974411 113.986655 
L 302.974411 114.37341 
L 303.297875 114.37341 
L 303.297875 114.701173 
L 303.619348 114.701173 
L 303.619348 114.94353 
L 303.938856 114.94353 
L 303.938856 115.122125 
L 304.256421 115.122125 
L 304.256421 115.638113 
L 304.572067 115.638113 
L 304.572067 115.854676 
L 304.885817 115.854676 
L 304.885817 116.143075 
L 305.197695 116.143075 
L 305.197695 116.396087 
L 305.507721 116.396087 
L 305.507721 116.648257 
L 305.815919 116.648257 
L 305.815919 116.840764 
L 306.122308 116.840764 
L 306.122308 117.07094 
L 306.426912 117.07094 
L 306.426912 116.467117 
L 306.729749 116.467117 
L 306.729749 117.459712 
L 307.030842 117.459712 
L 307.030842 115.612792 
L 307.330208 115.612792 
L 307.330208 117.570043 
L 307.627869 117.570043 
L 307.627869 117.206795 
L 307.923844 117.206795 
L 307.923844 117.037076 
L 308.218151 117.037076 
L 308.218151 118.426654 
L 308.801837 118.514879 
L 308.801837 118.75843 
L 309.091253 118.75843 
L 309.091253 118.936598 
L 309.379074 118.936598 
L 309.379074 119.148836 
L 309.665318 119.148836 
L 309.665318 119.320917 
L 309.950002 119.320917 
L 309.950002 119.482976 
L 310.233143 119.482976 
L 310.233143 119.648316 
L 310.514758 119.648316 
L 310.514758 119.802556 
L 310.794863 119.802556 
L 310.794863 119.976605 
L 311.073474 119.976605 
L 311.073474 120.164885 
L 311.350607 120.164885 
L 311.350607 120.333091 
L 311.626277 120.333091 
L 311.626277 120.494189 
L 311.900501 120.494189 
L 311.900501 120.619992 
L 312.173292 120.619992 
L 312.173292 120.78898 
L 312.444667 120.78898 
L 312.444667 120.97198 
L 312.714639 120.97198 
L 312.714639 121.148275 
L 312.983223 121.148275 
L 312.983223 121.316272 
L 313.250433 121.316272 
L 313.250433 121.472683 
L 313.516283 121.472683 
L 313.516283 121.607089 
L 313.780788 121.607089 
L 313.780788 121.732741 
L 314.043959 121.732741 
L 314.043959 121.936878 
L 314.305812 121.936878 
L 314.305812 122.113575 
L 314.566359 122.113575 
L 314.566359 122.28322 
L 314.825612 122.28322 
L 314.825612 122.438845 
L 315.083586 122.438845 
L 315.083586 122.578552 
L 315.340292 122.578552 
L 315.340292 122.735256 
L 315.595742 122.735256 
L 315.595742 122.898108 
L 315.84995 122.898108 
L 315.84995 123.060865 
L 316.102926 123.060865 
L 316.102926 123.236137 
L 316.354683 123.236137 
L 316.354683 123.391507 
L 316.605233 123.391507 
L 316.605233 123.540279 
L 316.854587 123.540279 
L 316.854587 123.686446 
L 317.102757 123.686446 
L 317.102757 123.84325 
L 317.349753 123.84325 
L 317.349753 124.008067 
L 317.595586 124.008067 
L 317.595586 124.179837 
L 317.840269 124.179837 
L 317.840269 124.337914 
L 318.08381 124.337914 
L 318.08381 124.48693 
L 318.326222 124.48693 
L 318.326222 124.630828 
L 318.567513 124.630828 
L 318.567513 124.782412 
L 318.807696 124.782412 
L 318.807696 124.944529 
L 319.046779 124.944529 
L 319.046779 125.114637 
L 319.284773 125.114637 
L 319.284773 125.276909 
L 319.521688 125.276909 
L 319.521688 125.427682 
L 319.757533 125.427682 
L 319.757533 125.569612 
L 319.992318 125.569612 
L 319.992318 125.718197 
L 320.226053 125.718197 
L 320.226053 125.875601 
L 320.458746 125.875601 
L 320.458746 126.042498 
L 320.690408 126.042498 
L 320.690408 126.210107 
L 320.921047 126.210107 
L 320.921047 126.362727 
L 321.150672 126.362727 
L 321.150672 126.504195 
L 321.379292 126.504195 
L 321.379292 126.649748 
L 321.606916 126.649748 
L 321.606916 126.803839 
L 321.833553 126.803839 
L 321.833553 126.967291 
L 322.05921 126.967291 
L 322.05921 127.136728 
L 322.283897 127.136728 
L 322.283897 127.291779 
L 322.507622 127.291779 
L 322.507622 127.435929 
L 322.730393 127.435929 
L 322.730393 127.578472 
L 322.952218 127.578472 
L 322.952218 127.729097 
L 323.173105 127.729097 
L 323.173105 127.889246 
L 323.393061 127.889246 
L 323.393061 128.058925 
L 323.612096 128.058925 
L 323.612096 128.218855 
L 323.830216 128.218855 
L 323.830216 128.364646 
L 324.047429 128.364646 
L 324.047429 128.505779 
L 324.263743 128.505779 
L 324.263743 128.653244 
L 324.479165 128.653244 
L 324.479165 128.804105 
L 324.693702 128.804105 
L 324.693702 128.975202 
L 324.907361 128.975202 
L 324.907361 129.14172 
L 325.12015 129.14172 
L 325.12015 129.291507 
L 325.332076 129.291507 
L 325.332076 129.431109 
L 325.543146 129.431109 
L 325.543146 129.57546 
L 325.753367 129.57546 
L 325.753367 129.728013 
L 326.171287 129.824946 
L 326.171287 130.025369 
L 326.58589 129.9277 
L 326.58589 129.859078 
L 326.791964 129.859078 
L 326.791964 130.475441 
L 326.997228 130.475441 
L 326.997228 130.165624 
L 327.201689 130.165624 
L 327.201689 130.77527 
L 327.405353 130.77527 
L 327.405353 130.959544 
L 327.810315 131.02248 
L 327.810315 131.276236 
L 328.011624 131.276236 
L 328.011624 131.416307 
L 328.212161 131.416307 
L 328.212161 131.560692 
L 328.411931 131.560692 
L 328.411931 131.717696 
L 328.610939 131.717696 
L 328.610939 131.880366 
L 328.809193 131.880366 
L 328.809193 132.046303 
L 329.006697 132.046303 
L 329.006697 132.197655 
L 329.203457 132.197655 
L 329.203457 132.336558 
L 329.399479 132.336558 
L 329.399479 132.480036 
L 329.594768 132.480036 
L 329.594768 132.629331 
L 329.78933 132.629331 
L 329.78933 132.790394 
L 329.98317 132.790394 
L 329.98317 132.955653 
L 330.176293 132.955653 
L 330.176293 133.114934 
L 330.368705 133.114934 
L 330.368705 133.254609 
L 330.560411 133.254609 
L 330.560411 133.379583 
L 330.751416 133.379583 
L 330.751416 133.539451 
L 330.941725 133.539451 
L 330.941725 133.694644 
L 331.131343 133.694644 
L 331.131343 133.865218 
L 331.320276 133.865218 
L 331.320276 134.028696 
L 331.508527 134.028696 
L 331.508527 134.171442 
L 331.696103 134.171442 
L 331.696103 134.309338 
L 331.883008 134.309338 
L 331.883008 134.450663 
L 332.069246 134.450663 
L 332.069246 134.602163 
L 332.254823 134.602163 
L 332.254823 134.768769 
L 332.439743 134.768769 
L 332.439743 134.937118 
L 332.62401 134.937118 
L 332.62401 135.087718 
L 332.80763 135.087718 
L 332.80763 135.225314 
L 332.990607 135.225314 
L 332.990607 135.367233 
L 333.172945 135.367233 
L 333.172945 135.516161 
L 333.354649 135.516161 
L 333.354649 135.672751 
L 333.535723 135.672751 
L 333.535723 135.84055 
L 333.716172 135.84055 
L 333.716172 135.999676 
L 333.895999 135.999676 
L 333.895999 136.139666 
L 334.07521 136.139666 
L 334.07521 136.279455 
L 334.253808 136.279455 
L 334.253808 136.425506 
L 334.431797 136.425506 
L 334.431797 136.578477 
L 334.609182 136.578477 
L 334.609182 136.740777 
L 334.785967 136.740777 
L 334.785967 136.907258 
L 334.962155 136.907258 
L 334.962155 137.024903 
L 335.137752 137.024903 
L 335.137752 137.186497 
L 335.31276 137.186497 
L 335.31276 137.331009 
L 335.661027 137.419651 
L 335.661027 137.640725 
L 335.834293 137.640725 
L 335.834293 137.805795 
L 336.006987 137.805795 
L 336.006987 137.952344 
L 336.179112 137.952344 
L 336.179112 138.102276 
L 336.350672 138.102276 
L 336.350672 138.242707 
L 336.52167 138.242707 
L 336.52167 138.389347 
L 336.69211 138.389347 
L 336.69211 138.543595 
L 336.861996 138.543595 
L 336.861996 138.706842 
L 337.031331 138.706842 
L 337.031331 138.871311 
L 337.200119 138.871311 
L 337.200119 139.013721 
L 337.368364 139.013721 
L 337.368364 139.151521 
L 337.536068 139.151521 
L 337.536068 139.295596 
L 337.703236 139.295596 
L 337.703236 139.446173 
L 337.86987 139.446173 
L 337.86987 139.604443 
L 338.035975 139.604443 
L 338.035975 139.771809 
L 338.201553 139.771809 
L 338.201553 139.92353 
L 338.366608 139.92353 
L 338.366608 140.060351 
L 338.531144 140.060351 
L 338.531144 140.201508 
L 338.695162 140.201508 
L 338.695162 140.349126 
L 338.858668 140.349126 
L 338.858668 140.502483 
L 339.021663 140.502483 
L 339.021663 140.666961 
L 339.184151 140.666961 
L 339.184151 140.829771 
L 339.346135 140.829771 
L 339.346135 140.969254 
L 339.507619 140.969254 
L 339.507619 141.107742 
L 339.668605 141.107742 
L 339.668605 141.252266 
L 339.829096 141.252266 
L 339.829096 141.403285 
L 339.989096 141.403285 
L 339.989096 141.561065 
L 340.148607 141.561065 
L 340.148607 141.728634 
L 340.307633 141.728634 
L 340.307633 141.8778 
L 340.466176 141.8778 
L 340.466176 142.013984 
L 340.62424 142.013984 
L 340.62424 142.155562 
L 340.781826 142.155562 
L 340.781826 142.303482 
L 340.938939 142.303482 
L 340.938939 142.458469 
L 341.09558 142.458469 
L 341.09558 142.62229 
L 341.251754 142.62229 
L 341.251754 142.783221 
L 341.407461 142.783221 
L 341.407461 142.920602 
L 341.562707 142.920602 
L 341.562707 143.059487 
L 341.717492 143.059487 
L 341.717492 143.204305 
L 341.871819 143.204305 
L 341.871819 143.355695 
L 342.025693 143.355695 
L 342.025693 143.514792 
L 342.179114 143.514792 
L 342.179114 143.681644 
L 342.332086 143.681644 
L 342.332086 143.828272 
L 342.484612 143.828272 
L 342.484612 143.963488 
L 342.636693 143.963488 
L 342.636693 144.105737 
L 342.788333 144.105737 
L 342.788333 144.253556 
L 342.939534 144.253556 
L 342.939534 144.408917 
L 343.090299 144.408917 
L 343.090299 144.572961 
L 343.24063 144.572961 
L 343.24063 144.368713 
L 343.390529 144.368713 
L 343.390529 144.572368 
L 343.54 144.572368 
L 343.54 144.993826 
L 343.837664 144.994148 
L 343.837664 145.194418 
L 343.985863 145.194418 
L 343.985863 145.460891 
L 344.133642 145.460891 
L 344.133642 145.619374 
L 344.281005 145.619374 
L 344.281005 145.761083 
L 344.427953 145.761083 
L 344.427953 145.908943 
L 344.574488 145.908943 
L 344.574488 146.050753 
L 344.720614 146.050753 
L 344.720614 146.199529 
L 344.866333 146.199529 
L 344.866333 146.354811 
L 345.011645 146.354811 
L 345.011645 146.518764 
L 345.156555 146.518764 
L 345.156555 146.677917 
L 345.301064 146.677917 
L 345.301064 146.812936 
L 345.445175 146.812936 
L 345.445175 146.951011 
L 345.588889 146.951011 
L 345.588889 147.096528 
L 345.732208 147.096528 
L 345.732208 147.24724 
L 345.875136 147.24724 
L 345.875136 147.406806 
L 346.017673 147.406806 
L 346.017673 147.573556 
L 346.159823 147.573556 
L 346.159823 147.716911 
L 346.301587 147.716911 
L 346.301587 147.851854 
L 346.442967 147.851854 
L 346.442967 147.993415 
L 346.583966 147.993415 
L 346.583966 148.139107 
L 346.724585 148.139107 
L 346.724585 148.291082 
L 346.864827 148.291082 
L 346.864827 148.460492 
L 347.004693 148.460492 
L 347.004693 148.620247 
L 347.144186 148.620247 
L 347.144186 148.754254 
L 347.283307 148.754254 
L 347.283307 148.891304 
L 347.422059 148.891304 
L 347.422059 149.035963 
L 347.560443 149.035963 
L 347.560443 149.175001 
L 347.698461 149.175001 
L 347.698461 149.343537 
L 347.836116 149.343537 
L 347.836116 149.512737 
L 347.973409 149.512737 
L 347.973409 149.657562 
L 348.110343 149.657562 
L 348.110343 149.790051 
L 348.246918 149.790051 
L 348.246918 149.933007 
L 348.383137 149.933007 
L 348.383137 150.07935 
L 348.519002 150.07935 
L 348.519002 150.230724 
L 348.654514 150.230724 
L 348.654514 150.395901 
L 348.789676 150.395901 
L 348.789676 150.558747 
L 348.924489 150.558747 
L 348.924489 150.692469 
L 349.058955 150.692469 
L 349.058955 150.82978 
L 349.193076 150.82978 
L 349.193076 150.974608 
L 349.326853 150.974608 
L 349.326853 151.125382 
L 349.460289 151.125382 
L 349.460289 151.281849 
L 349.593384 151.281849 
L 349.593384 151.449771 
L 349.726142 151.449771 
L 349.726142 151.592234 
L 349.858563 151.592234 
L 349.858563 151.725206 
L 349.990649 151.725206 
L 349.990649 151.867717 
L 350.122402 151.867717 
L 350.122402 152.017983 
L 350.253823 152.017983 
L 350.253823 152.165142 
L 350.384915 152.165142 
L 350.384915 152.330353 
L 350.515679 152.330353 
L 350.515679 152.495285 
L 350.646116 152.495285 
L 350.646116 152.626408 
L 350.776228 152.626408 
L 350.776228 152.764538 
L 350.906017 152.764538 
L 350.906017 152.90978 
L 351.035484 152.90978 
L 351.035484 153.058023 
L 351.164631 153.058023 
L 351.164631 153.217477 
L 351.29346 153.217477 
L 351.29346 153.371618 
L 351.421972 153.371618 
L 351.421972 153.518591 
L 351.550168 153.518591 
L 351.550168 153.651805 
L 351.678051 153.651805 
L 351.678051 153.791856 
L 351.805622 153.791856 
L 351.805622 153.939492 
L 351.932881 153.939492 
L 351.932881 154.093583 
L 352.059831 154.093583 
L 352.059831 154.256059 
L 352.186474 154.256059 
L 352.186474 154.421052 
L 352.31281 154.421052 
L 352.31281 154.555121 
L 352.438842 154.555121 
L 352.438842 154.697088 
L 352.56457 154.697088 
L 352.56457 154.828009 
L 352.689996 154.828009 
L 352.689996 154.984329 
L 352.815122 154.984329 
L 352.815122 155.148359 
L 352.939949 155.148359 
L 352.939949 155.300456 
L 353.064479 155.300456 
L 353.064479 155.449214 
L 353.188712 155.449214 
L 353.188712 155.581317 
L 353.31265 155.581317 
L 353.31265 155.720796 
L 353.436296 155.720796 
L 353.436296 155.881078 
L 353.559649 155.881078 
L 353.559649 156.03671 
L 353.682711 156.03671 
L 353.682711 156.167209 
L 353.805485 156.167209 
L 353.805485 156.338808 
L 353.92797 156.338808 
L 353.92797 156.465685 
L 354.050169 156.465685 
L 354.050169 156.637455 
L 354.172083 156.637455 
L 354.172083 156.761316 
L 354.293713 156.761316 
L 354.293713 156.911224 
L 354.415061 156.911224 
L 354.415061 157.067989 
L 354.536127 157.067989 
L 354.536127 157.207845 
L 354.656913 157.207845 
L 354.656913 157.382261 
L 354.777421 157.382261 
L 354.777421 157.512953 
L 354.897651 157.512953 
L 354.897651 157.650163 
L 355.017606 157.650163 
L 355.017606 157.795228 
L 355.137285 157.795228 
L 355.137285 157.981814 
L 355.375825 158.071188 
L 355.375825 158.276047 
L 355.494687 158.276047 
L 355.494687 158.414584 
L 355.731604 158.519942 
L 355.731604 158.719164 
L 355.967451 158.788372 
L 355.967451 159.005363 
L 356.202239 159.082181 
L 356.202239 159.325454 
L 356.435975 159.409116 
L 356.435975 159.6192 
L 356.668671 159.708598 
L 356.668671 159.805716 
L 356.784631 159.805716 
L 356.784631 160.051582 
L 357.015783 160.152788 
L 357.015783 160.262823 
L 357.130976 160.262823 
L 357.130976 160.558382 
L 357.245915 160.558382 
L 357.245915 160.679429 
L 357.475039 160.702792 
L 357.475039 160.836105 
L 357.589225 160.836105 
L 357.589225 161.211042 
L 357.703162 161.211042 
L 357.703162 161.36242 
L 358.04349 161.407032 
L 358.04349 161.565281 
L 358.269149 161.49115 
L 358.269149 162.064937 
L 358.493838 162.137586 
L 358.493838 162.350913 
L 358.82907 162.399293 
L 358.82907 162.637579 
L 359.162164 162.694154 
L 359.272725 163.567514 
L 359.603011 163.611666 
L 359.712644 164.031747 
L 360.257385 164.114975 
L 360.365654 164.615959 
L 360.903662 164.69225 
L 361.010602 164.757516 
L 361.117324 164.757516 
L 361.223828 167.548617 
L 361.647685 167.655979 
L 361.753114 167.725883 
L 362.172716 167.827365 
L 362.277092 167.885026 
L 362.692522 167.971682 
L 362.692522 172.569598 
L 362.795866 168.021096 
L 363.104676 168.099791 
L 363.207208 173.415678 
L 363.41167 173.457885 
L 363.513602 173.597222 
L 363.615336 173.597222 
L 363.716872 174.104093 
L 363.919353 174.186559 
L 364.0203 174.472886 
L 364.321977 174.528482 
L 364.42215 175.251918 
L 364.621921 175.361337 
L 364.721521 175.827897 
L 364.820931 175.827897 
L 364.920153 176.014961 
L 365.216692 176.102074 
L 365.315165 176.258929 
L 365.413454 176.258929 
L 365.511557 177.067684 
L 365.609477 177.067684 
L 365.609477 176.685458 
L 365.707213 177.262693 
L 365.90214 177.225537 
L 365.999331 179.145402 
L 366.096341 179.145402 
L 366.096341 177.583077 
L 366.193172 177.602561 
L 366.289823 177.602561 
L 366.386297 179.794781 
L 366.482592 179.794781 
L 366.57871 180.059968 
L 366.674651 180.059968 
L 366.770417 180.816317 
L 366.961423 180.76824 
L 367.056665 181.294667 
L 367.24663 181.390898 
L 367.341354 181.675794 
L 367.435906 181.675794 
L 367.530288 182.031962 
L 367.812413 182.111541 
L 367.812413 182.872047 
L 367.906118 182.476508 
L 367.999654 182.476508 
L 368.093024 183.245504 
L 368.464842 183.326832 
L 368.557384 183.575888 
L 368.741978 183.65054 
L 368.834032 184.628519 
L 369.017653 184.707668 
L 369.109222 184.866733 
L 369.29188 184.942165 
L 369.38297 185.098367 
L 369.564675 185.165636 
L 369.655292 185.28935 
L 369.836054 185.344453 
L 369.926201 185.477106 
L 370.195712 185.574476 
L 370.285241 188.28624 
L 370.374617 188.28624 
L 370.374617 185.721578 
L 370.46384 188.593807 
L 370.552911 188.593807 
L 370.641831 188.910626 
L 370.730599 188.910626 
L 370.819217 189.145121 
L 370.907685 189.145121 
L 370.996003 189.509956 
L 371.084172 189.509956 
L 371.172193 189.813946 
L 371.34779 189.891071 
L 371.435368 190.156764 
L 371.5228 190.156764 
L 371.610085 190.459786 
L 371.697224 190.459786 
L 371.784219 190.798853 
L 371.957775 190.883834 
L 372.044337 191.201302 
L 372.217032 191.29337 
L 372.303166 191.729241 
L 372.475009 191.786028 
L 372.560719 191.964769 
L 372.646288 191.964769 
L 372.731718 192.417411 
L 372.902159 192.493044 
L 372.987172 192.735065 
L 373.072046 192.735065 
L 373.156783 193.253694 
L 373.410172 193.361024 
L 373.494362 193.590956 
L 373.578417 193.590956 
L 373.578417 193.714649 
L 373.662337 193.714649 
L 373.746123 193.714649 
L 373.829774 194.537953 
L 373.996676 194.537953 
L 373.996676 194.283693 
L 374.079927 194.92263 
L 374.328888 194.959391 
L 374.328888 195.180753 
L 374.411612 195.180753 
L 374.494205 195.180753 
L 374.576668 195.694604 
L 374.659001 195.694604 
L 374.659001 195.424144 
L 374.741204 195.694752 
L 374.987041 195.694752 
L 374.987041 195.999082 
L 375.06873 195.999082 
L 375.313034 195.99925 
L 375.394216 198.231553 
L 375.717686 198.231553 
L 375.798241 199.218739 
L 376.199166 199.218739 
L 376.199166 200.905356 
L 376.278983 199.218739 
L 376.517705 199.218739 
L 376.517705 200.905356 
L 376.597037 200.905356 
L 376.755341 200.905356 
L 376.755341 199.218739 
L 376.834313 200.905356 
L 377.850236 200.906617 
L 377.850236 295.488 
L 377.927572 295.488 
L 398.487273 295.488 
L 398.487273 295.488 
" clip-path="url(#pc18b080690)" style="fill: none; stroke: #1f77b4; stroke-width: 1.5; stroke-linecap: square"/>
   </g>
   <g id="line2d_36">
    <path d="M 73.832727 67.570926 
L 94.979609 67.570926 
L 94.979609 67.422751 
L 109.990851 67.422751 
L 109.990851 68.442991 
L 121.637533 68.442991 
L 121.637533 69.201444 
L 131.155137 69.201444 
L 131.155137 69.904015 
L 139.203071 69.904015 
L 139.203071 71.156357 
L 146.175088 71.156357 
L 146.175088 74.673044 
L 152.325231 74.673044 
L 152.325231 75.98873 
L 157.826997 75.98873 
L 157.826997 74.895262 
L 162.804151 74.895262 
L 162.804151 71.18934 
L 167.348087 71.18934 
L 167.348087 72.469099 
L 171.528221 72.469099 
L 171.528221 73.673553 
L 175.398512 73.673553 
L 175.398512 74.796712 
L 179.001741 74.796712 
L 179.001741 75.784682 
L 182.372396 75.784682 
L 182.372396 76.690578 
L 185.53869 76.690578 
L 185.53869 77.596091 
L 188.523993 77.596091 
L 188.523993 78.422177 
L 191.347882 78.422177 
L 191.347882 78.979196 
L 194.026921 78.979196 
L 194.026921 79.501212 
L 196.575248 79.501212 
L 196.575248 80.274439 
L 199.005026 80.274439 
L 199.005026 80.788049 
L 201.326797 80.788049 
L 201.326797 81.448294 
L 203.549755 81.448294 
L 203.549755 82.142008 
L 205.68197 82.142008 
L 205.68197 82.505066 
L 207.730559 82.505066 
L 207.730559 83.126552 
L 209.701837 83.126552 
L 209.701837 83.51867 
L 211.601425 83.51867 
L 211.601425 83.362864 
L 213.434357 83.362864 
L 213.434357 84.052405 
L 215.205153 84.052405 
L 215.205153 84.708561 
L 216.917886 84.708561 
L 216.917886 85.263401 
L 218.576244 85.263401 
L 218.576244 85.864299 
L 220.183574 85.864299 
L 220.183574 85.979777 
L 221.742923 85.979777 
L 221.742923 86.38224 
L 223.257072 86.38224 
L 223.257072 86.988147 
L 224.728568 86.988147 
L 224.728568 87.543085 
L 226.159748 87.543085 
L 226.159748 87.950988 
L 227.552763 87.950988 
L 227.552763 88.365972 
L 228.909596 88.365972 
L 228.909596 88.81394 
L 230.232078 88.81394 
L 230.232078 89.240222 
L 231.521906 89.240222 
L 231.521906 88.852727 
L 232.780653 88.852727 
L 232.780653 89.288354 
L 234.009784 89.288354 
L 234.009784 89.82552 
L 235.210658 89.82552 
L 235.210658 90.296708 
L 236.384547 90.296708 
L 236.384547 90.688214 
L 237.532636 90.688214 
L 237.532636 91.05124 
L 238.656035 91.05124 
L 238.656035 91.391462 
L 239.755784 91.391462 
L 239.755784 91.699607 
L 240.832858 91.699607 
L 240.832858 91.967089 
L 241.888173 91.967089 
L 241.888173 92.243595 
L 242.922591 92.243595 
L 242.922591 92.529533 
L 243.936923 92.529533 
L 243.936923 92.810881 
L 244.931935 92.810881 
L 244.931935 93.086247 
L 245.90835 93.086247 
L 245.90835 93.358332 
L 246.866848 93.358332 
L 246.866848 93.663001 
L 247.808077 93.663001 
L 247.808077 93.137087 
L 248.732647 93.137087 
L 248.732647 93.543475 
L 249.641138 93.543475 
L 249.641138 94.140957 
L 250.534099 94.140957 
L 250.534099 94.698349 
L 251.412053 94.698349 
L 251.412053 95.337527 
L 252.275496 95.337527 
L 252.275496 95.550769 
L 253.124899 95.550769 
L 253.124899 96.416633 
L 253.960712 96.416633 
L 253.960712 96.784455 
L 254.783363 96.784455 
L 254.783363 97.124093 
L 255.59326 97.124093 
L 255.59326 97.399098 
L 256.390792 97.399098 
L 256.390792 97.580166 
L 257.176332 97.580166 
L 257.176332 97.81428 
L 257.950234 97.81428 
L 257.950234 98.122705 
L 258.712839 98.122705 
L 258.712839 98.292377 
L 260.205442 98.263981 
L 260.205442 98.645067 
L 260.93605 98.645067 
L 260.93605 99.04661 
L 261.656581 99.04661 
L 261.656581 99.297065 
L 262.367309 99.297065 
L 262.367309 99.650018 
L 263.068497 99.650018 
L 263.068497 99.839316 
L 263.760398 99.839316 
L 263.760398 100.100114 
L 265.117301 99.993923 
L 265.117301 94.99617 
L 265.782761 94.99617 
L 265.782761 93.407012 
L 266.439851 93.407012 
L 266.439851 94.568211 
L 267.088777 94.568211 
L 267.088777 95.600283 
L 267.729742 95.600283 
L 267.729742 96.525353 
L 268.362938 96.525353 
L 268.362938 97.352461 
L 268.988551 97.352461 
L 268.988551 98.085406 
L 269.60676 98.085406 
L 269.60676 98.583651 
L 270.217739 98.583651 
L 270.217739 98.971356 
L 270.821655 98.971356 
L 270.821655 100.03344 
L 271.418669 100.03344 
L 271.418669 100.54883 
L 272.008937 100.54883 
L 272.008937 101.038378 
L 272.59261 101.038378 
L 272.59261 101.464031 
L 273.169834 101.464031 
L 273.169834 101.877785 
L 273.74075 101.877785 
L 273.74075 102.253055 
L 274.305494 102.253055 
L 274.305494 102.57341 
L 274.864197 102.57341 
L 274.864197 102.785913 
L 275.416989 102.785913 
L 275.416989 102.969655 
L 275.963993 102.969655 
L 275.963993 103.432695 
L 276.505328 103.432695 
L 276.505328 103.765538 
L 277.041111 103.765538 
L 277.041111 103.538733 
L 278.096469 103.529345 
L 278.096469 104.06028 
L 278.616259 104.06028 
L 278.616259 104.475861 
L 279.130928 104.475861 
L 279.130928 104.637411 
L 279.640576 104.637411 
L 279.640576 105.048054 
L 280.1453 105.048054 
L 280.1453 105.181939 
L 280.645194 105.181939 
L 280.645194 105.305022 
L 281.14035 105.305022 
L 281.14035 105.511597 
L 282.598266 105.593204 
L 282.598266 105.374838 
L 283.075335 105.374838 
L 283.075335 103.052773 
L 283.548086 103.052773 
L 283.548086 101.297644 
L 284.016597 101.297644 
L 284.016597 102.183643 
L 284.480944 102.183643 
L 284.480944 103.253656 
L 284.9412 103.253656 
L 284.9412 103.524398 
L 285.397437 103.524398 
L 285.397437 104.959814 
L 285.849723 104.959814 
L 285.849723 105.74224 
L 286.298127 105.74224 
L 286.298127 106.352905 
L 286.742715 106.352905 
L 286.742715 106.821832 
L 287.183551 106.821832 
L 287.183551 107.309697 
L 287.620698 107.309697 
L 287.620698 107.680389 
L 288.054218 107.680389 
L 288.054218 108.118507 
L 288.48417 108.118507 
L 288.48417 108.439831 
L 288.910612 108.439831 
L 288.910612 108.66737 
L 289.753192 108.736907 
L 289.753192 109.320955 
L 291.398648 109.272122 
L 291.398648 109.9472 
L 291.802039 109.9472 
L 291.802039 110.150831 
L 292.20234 110.150831 
L 292.20234 110.566819 
L 292.599596 110.566819 
L 292.599596 110.285855 
L 292.993854 110.285855 
L 292.993854 109.177629 
L 293.385159 109.177629 
L 293.385159 111.16972 
L 294.159085 111.074324 
L 294.159085 111.32456 
L 295.29889 111.419731 
L 295.29889 111.454599 
L 295.673365 111.454599 
L 295.673365 112.236022 
L 296.045175 112.236022 
L 296.045175 112.566968 
L 296.780949 112.660447 
L 296.780949 112.933193 
L 297.865537 113.0131 
L 297.865537 113.159873 
L 298.222119 113.159873 
L 298.222119 112.714557 
L 298.576284 112.714557 
L 298.576284 105.639408 
L 298.928064 105.639408 
L 298.928064 106.23851 
L 299.277491 106.23851 
L 299.277491 107.370246 
L 299.624597 107.370246 
L 299.624597 108.403031 
L 299.969411 108.403031 
L 299.969411 109.307274 
L 300.311964 109.307274 
L 300.311964 110.118067 
L 300.652286 110.118067 
L 300.652286 110.847374 
L 300.990405 110.847374 
L 300.990405 111.512605 
L 301.326349 111.512605 
L 301.326349 112.1059 
L 301.660147 112.1059 
L 301.660147 112.650528 
L 301.991826 112.650528 
L 301.991826 113.140779 
L 302.321412 113.140779 
L 302.321412 113.580896 
L 302.648932 113.580896 
L 302.648932 113.986655 
L 302.974411 113.986655 
L 302.974411 114.373425 
L 303.297875 114.373425 
L 303.297875 114.701173 
L 303.619348 114.701173 
L 303.619348 114.945915 
L 303.938856 114.945915 
L 303.938856 115.122125 
L 304.256421 115.122125 
L 304.256421 115.638113 
L 304.572067 115.638113 
L 304.572067 115.854676 
L 304.885817 115.854676 
L 304.885817 116.144609 
L 305.197695 116.144609 
L 305.197695 116.396087 
L 305.507721 116.396087 
L 305.507721 116.649201 
L 305.815919 116.649201 
L 305.815919 116.840764 
L 306.122308 116.840764 
L 306.122308 117.071994 
L 306.426912 117.071994 
L 306.426912 116.467481 
L 306.729749 116.467481 
L 306.729749 117.459908 
L 307.030842 117.459908 
L 307.030842 115.612792 
L 307.330208 115.612792 
L 307.330208 117.570043 
L 307.627869 117.570043 
L 307.627869 117.206795 
L 307.923844 117.206795 
L 307.923844 117.037076 
L 308.218151 117.037076 
L 308.218151 118.426654 
L 308.801837 118.514879 
L 308.801837 118.75843 
L 309.091253 118.75843 
L 309.091253 118.956194 
L 309.379074 118.956194 
L 309.379074 119.148881 
L 309.665318 119.148881 
L 309.665318 119.321538 
L 309.950002 119.321538 
L 309.950002 119.485377 
L 310.233143 119.485377 
L 310.233143 119.648316 
L 310.514758 119.648316 
L 310.514758 119.802556 
L 310.794863 119.802556 
L 310.794863 119.976605 
L 311.073474 119.976605 
L 311.073474 120.164885 
L 311.350607 120.164885 
L 311.350607 120.333091 
L 311.626277 120.333091 
L 311.626277 120.494189 
L 311.900501 120.494189 
L 311.900501 120.619992 
L 312.173292 120.619992 
L 312.173292 120.78898 
L 312.444667 120.78898 
L 312.444667 120.97198 
L 312.714639 120.97198 
L 312.714639 121.148275 
L 312.983223 121.148275 
L 312.983223 121.316272 
L 313.250433 121.316272 
L 313.250433 121.472683 
L 313.516283 121.472683 
L 313.516283 121.607089 
L 313.780788 121.607089 
L 313.780788 121.732741 
L 314.043959 121.732741 
L 314.043959 121.936878 
L 314.305812 121.936878 
L 314.305812 122.113575 
L 314.566359 122.113575 
L 314.566359 122.28322 
L 314.825612 122.28322 
L 314.825612 122.438845 
L 315.083586 122.438845 
L 315.083586 122.578552 
L 315.340292 122.578552 
L 315.340292 122.735256 
L 315.595742 122.735256 
L 315.595742 122.898108 
L 315.84995 122.898108 
L 315.84995 123.060865 
L 316.102926 123.060865 
L 316.102926 123.236359 
L 316.354683 123.236359 
L 316.354683 123.391507 
L 316.605233 123.391507 
L 316.605233 123.540279 
L 316.854587 123.540279 
L 316.854587 123.686446 
L 317.102757 123.686446 
L 317.102757 123.84325 
L 317.349753 123.84325 
L 317.349753 124.008067 
L 317.595586 124.008067 
L 317.595586 124.179837 
L 317.840269 124.179837 
L 317.840269 124.337914 
L 318.08381 124.337914 
L 318.08381 124.487262 
L 318.326222 124.487262 
L 318.326222 124.630828 
L 318.567513 124.630828 
L 318.567513 124.782412 
L 318.807696 124.782412 
L 318.807696 124.944529 
L 319.046779 124.944529 
L 319.046779 125.114637 
L 319.284773 125.114637 
L 319.284773 125.276909 
L 319.521688 125.276909 
L 319.521688 125.427682 
L 319.757533 125.427682 
L 319.757533 125.569612 
L 319.992318 125.569612 
L 319.992318 125.718197 
L 320.226053 125.718197 
L 320.226053 125.875601 
L 320.458746 125.875601 
L 320.458746 126.042498 
L 320.690408 126.042498 
L 320.690408 126.210107 
L 320.921047 126.210107 
L 320.921047 126.362727 
L 321.150672 126.362727 
L 321.150672 126.504195 
L 321.379292 126.504195 
L 321.379292 126.649748 
L 321.606916 126.649748 
L 321.606916 126.803839 
L 321.833553 126.803839 
L 321.833553 126.967291 
L 322.05921 126.967291 
L 322.05921 127.136728 
L 322.283897 127.136728 
L 322.283897 127.291779 
L 322.507622 127.291779 
L 322.507622 127.435929 
L 322.730393 127.435929 
L 322.730393 127.578472 
L 322.952218 127.578472 
L 322.952218 127.729097 
L 323.173105 127.729097 
L 323.173105 127.889246 
L 323.393061 127.889246 
L 323.393061 128.058925 
L 323.612096 128.058925 
L 323.612096 128.218855 
L 323.830216 128.218855 
L 323.830216 128.364646 
L 324.047429 128.364646 
L 324.047429 128.505779 
L 324.263743 128.505779 
L 324.263743 128.653244 
L 324.479165 128.653244 
L 324.479165 128.808666 
L 324.693702 128.808666 
L 324.693702 128.975202 
L 324.907361 128.975202 
L 324.907361 129.14172 
L 325.12015 129.14172 
L 325.12015 129.291507 
L 325.332076 129.291507 
L 325.332076 129.431109 
L 325.543146 129.431109 
L 325.543146 129.57546 
L 325.753367 129.57546 
L 325.753367 129.728013 
L 326.171287 129.824946 
L 326.171287 130.025369 
L 326.58589 129.9277 
L 326.58589 129.859078 
L 326.791964 129.859078 
L 326.791964 130.475441 
L 326.997228 130.475441 
L 326.997228 130.165624 
L 327.201689 130.165624 
L 327.201689 130.77527 
L 327.405353 130.77527 
L 327.405353 130.959544 
L 327.810315 131.02248 
L 327.810315 131.276236 
L 328.011624 131.276236 
L 328.011624 131.416307 
L 328.212161 131.416307 
L 328.212161 131.560692 
L 328.411931 131.560692 
L 328.411931 131.717696 
L 328.610939 131.717696 
L 328.610939 131.880366 
L 328.809193 131.880366 
L 328.809193 132.046303 
L 329.006697 132.046303 
L 329.006697 132.197655 
L 329.203457 132.197655 
L 329.203457 132.336558 
L 329.399479 132.336558 
L 329.399479 132.480036 
L 329.594768 132.480036 
L 329.594768 132.629331 
L 329.78933 132.629331 
L 329.78933 132.790394 
L 329.98317 132.790394 
L 329.98317 132.955653 
L 330.176293 132.955653 
L 330.176293 133.114934 
L 330.368705 133.114934 
L 330.368705 133.254609 
L 330.560411 133.254609 
L 330.560411 133.379583 
L 330.751416 133.379583 
L 330.751416 133.539451 
L 330.941725 133.539451 
L 330.941725 133.694644 
L 331.131343 133.694644 
L 331.131343 133.865218 
L 331.320276 133.865218 
L 331.320276 134.028696 
L 331.508527 134.028696 
L 331.508527 134.171442 
L 331.696103 134.171442 
L 331.696103 134.309338 
L 331.883008 134.309338 
L 331.883008 134.450663 
L 332.069246 134.450663 
L 332.069246 134.602163 
L 332.254823 134.602163 
L 332.254823 134.768769 
L 332.439743 134.768769 
L 332.439743 134.937118 
L 332.62401 134.937118 
L 332.62401 135.087718 
L 332.80763 135.087718 
L 332.80763 135.225314 
L 332.990607 135.225314 
L 332.990607 135.367233 
L 333.172945 135.367233 
L 333.172945 135.516161 
L 333.354649 135.516161 
L 333.354649 135.672751 
L 333.535723 135.672751 
L 333.535723 135.84055 
L 333.716172 135.84055 
L 333.716172 135.999676 
L 333.895999 135.999676 
L 333.895999 136.139666 
L 334.07521 136.139666 
L 334.07521 136.279455 
L 334.253808 136.279455 
L 334.253808 136.425506 
L 334.431797 136.425506 
L 334.431797 136.578477 
L 334.609182 136.578477 
L 334.609182 136.740777 
L 334.785967 136.740777 
L 334.785967 136.907258 
L 334.962155 136.907258 
L 334.962155 137.024903 
L 335.137752 137.024903 
L 335.137752 137.186497 
L 335.31276 137.186497 
L 335.31276 137.331009 
L 335.661027 137.419651 
L 335.661027 137.640725 
L 335.834293 137.640725 
L 335.834293 137.805795 
L 336.006987 137.805795 
L 336.006987 137.952344 
L 336.179112 137.952344 
L 336.179112 138.102276 
L 336.350672 138.102276 
L 336.350672 138.242707 
L 336.52167 138.242707 
L 336.52167 138.389347 
L 336.69211 138.389347 
L 336.69211 138.543595 
L 336.861996 138.543595 
L 336.861996 138.706842 
L 337.031331 138.706842 
L 337.031331 138.871311 
L 337.200119 138.871311 
L 337.200119 139.013721 
L 337.368364 139.013721 
L 337.368364 139.151521 
L 337.536068 139.151521 
L 337.536068 139.295596 
L 337.703236 139.295596 
L 337.703236 139.446173 
L 337.86987 139.446173 
L 337.86987 139.604443 
L 338.035975 139.604443 
L 338.035975 139.771809 
L 338.201553 139.771809 
L 338.201553 139.92353 
L 338.366608 139.92353 
L 338.366608 140.060351 
L 338.531144 140.060351 
L 338.531144 140.201508 
L 338.695162 140.201508 
L 338.695162 140.349126 
L 338.858668 140.349126 
L 338.858668 140.502483 
L 339.021663 140.502483 
L 339.021663 140.666961 
L 339.184151 140.666961 
L 339.184151 140.829771 
L 339.346135 140.829771 
L 339.346135 140.969254 
L 339.507619 140.969254 
L 339.507619 141.107742 
L 339.668605 141.107742 
L 339.668605 141.252266 
L 339.829096 141.252266 
L 339.829096 141.403285 
L 339.989096 141.403285 
L 339.989096 141.561065 
L 340.148607 141.561065 
L 340.148607 141.728634 
L 340.307633 141.728634 
L 340.307633 141.8778 
L 340.466176 141.8778 
L 340.466176 142.013984 
L 340.62424 142.013984 
L 340.62424 142.155562 
L 340.781826 142.155562 
L 340.781826 142.303482 
L 340.938939 142.303482 
L 340.938939 142.458469 
L 341.09558 142.458469 
L 341.09558 142.62229 
L 341.251754 142.62229 
L 341.251754 142.783221 
L 341.407461 142.783221 
L 341.407461 142.920602 
L 341.562707 142.920602 
L 341.562707 143.059487 
L 341.717492 143.059487 
L 341.717492 143.204305 
L 341.871819 143.204305 
L 341.871819 143.355695 
L 342.025693 143.355695 
L 342.025693 143.514792 
L 342.179114 143.514792 
L 342.179114 143.681644 
L 342.332086 143.681644 
L 342.332086 143.828272 
L 342.484612 143.828272 
L 342.484612 143.963488 
L 342.636693 143.963488 
L 342.636693 144.105737 
L 342.788333 144.105737 
L 342.788333 144.253556 
L 342.939534 144.253556 
L 342.939534 144.408917 
L 343.090299 144.408917 
L 343.090299 144.572961 
L 343.24063 144.572961 
L 343.24063 144.368713 
L 343.390529 144.368713 
L 343.390529 144.572368 
L 343.54 144.572368 
L 343.54 144.993826 
L 343.837664 144.994148 
L 343.837664 145.194418 
L 343.985863 145.194418 
L 343.985863 145.460891 
L 344.133642 145.460891 
L 344.133642 145.619374 
L 344.281005 145.619374 
L 344.281005 145.761083 
L 344.427953 145.761083 
L 344.427953 145.908943 
L 344.574488 145.908943 
L 344.574488 146.050753 
L 344.720614 146.050753 
L 344.720614 146.199529 
L 344.866333 146.199529 
L 344.866333 146.354811 
L 345.011645 146.354811 
L 345.011645 146.518764 
L 345.156555 146.518764 
L 345.156555 146.677917 
L 345.301064 146.677917 
L 345.301064 146.812936 
L 345.445175 146.812936 
L 345.445175 146.951011 
L 345.588889 146.951011 
L 345.588889 147.096528 
L 345.732208 147.096528 
L 345.732208 147.24724 
L 345.875136 147.24724 
L 345.875136 147.406806 
L 346.017673 147.406806 
L 346.017673 147.573556 
L 346.159823 147.573556 
L 346.159823 147.716911 
L 346.301587 147.716911 
L 346.301587 147.851854 
L 346.442967 147.851854 
L 346.442967 147.993415 
L 346.583966 147.993415 
L 346.583966 148.139107 
L 346.724585 148.139107 
L 346.724585 148.291082 
L 346.864827 148.291082 
L 346.864827 148.460492 
L 347.004693 148.460492 
L 347.004693 148.620247 
L 347.144186 148.620247 
L 347.144186 148.754254 
L 347.283307 148.754254 
L 347.283307 148.891304 
L 347.422059 148.891304 
L 347.422059 149.035963 
L 347.560443 149.035963 
L 347.560443 149.175001 
L 347.698461 149.175001 
L 347.698461 149.343537 
L 347.836116 149.343537 
L 347.836116 149.512737 
L 347.973409 149.512737 
L 347.973409 149.657562 
L 348.110343 149.657562 
L 348.110343 149.790051 
L 348.246918 149.790051 
L 348.246918 149.933007 
L 348.383137 149.933007 
L 348.383137 150.07935 
L 348.519002 150.07935 
L 348.519002 150.230724 
L 348.654514 150.230724 
L 348.654514 150.395901 
L 348.789676 150.395901 
L 348.789676 150.558747 
L 348.924489 150.558747 
L 348.924489 150.692469 
L 349.058955 150.692469 
L 349.058955 150.82978 
L 349.193076 150.82978 
L 349.193076 150.974608 
L 349.326853 150.974608 
L 349.326853 151.125382 
L 349.460289 151.125382 
L 349.460289 151.281849 
L 349.593384 151.281849 
L 349.593384 151.449771 
L 349.726142 151.449771 
L 349.726142 151.592234 
L 349.858563 151.592234 
L 349.858563 151.725206 
L 349.990649 151.725206 
L 349.990649 151.867717 
L 350.122402 151.867717 
L 350.122402 152.017983 
L 350.253823 152.017983 
L 350.253823 152.165142 
L 350.384915 152.165142 
L 350.384915 152.330353 
L 350.515679 152.330353 
L 350.515679 152.495285 
L 350.646116 152.495285 
L 350.646116 152.626408 
L 350.776228 152.626408 
L 350.776228 152.764538 
L 350.906017 152.764538 
L 350.906017 152.90978 
L 351.035484 152.90978 
L 351.035484 153.058023 
L 351.164631 153.058023 
L 351.164631 153.217477 
L 351.29346 153.217477 
L 351.29346 153.371618 
L 351.421972 153.371618 
L 351.421972 153.518591 
L 351.550168 153.518591 
L 351.550168 153.651805 
L 351.678051 153.651805 
L 351.678051 153.791856 
L 351.805622 153.791856 
L 351.805622 153.939492 
L 351.932881 153.939492 
L 351.932881 154.093583 
L 352.059831 154.093583 
L 352.059831 154.256059 
L 352.186474 154.256059 
L 352.186474 154.421052 
L 352.31281 154.421052 
L 352.31281 154.555121 
L 352.438842 154.555121 
L 352.438842 154.697088 
L 352.56457 154.697088 
L 352.56457 154.828009 
L 352.689996 154.828009 
L 352.689996 154.984329 
L 352.815122 154.984329 
L 352.815122 155.148359 
L 352.939949 155.148359 
L 352.939949 155.300456 
L 353.064479 155.300456 
L 353.064479 155.449214 
L 353.188712 155.449214 
L 353.188712 155.581317 
L 353.31265 155.581317 
L 353.31265 155.720796 
L 353.436296 155.720796 
L 353.436296 155.881078 
L 353.559649 155.881078 
L 353.559649 156.03671 
L 353.682711 156.03671 
L 353.682711 156.167209 
L 353.805485 156.167209 
L 353.805485 156.338808 
L 353.92797 156.338808 
L 353.92797 156.465685 
L 354.050169 156.465685 
L 354.050169 156.637455 
L 354.172083 156.637455 
L 354.172083 156.761316 
L 354.293713 156.761316 
L 354.293713 156.911224 
L 354.415061 156.911224 
L 354.415061 157.067989 
L 354.536127 157.067989 
L 354.536127 157.207845 
L 354.656913 157.207845 
L 354.656913 157.382261 
L 354.777421 157.382261 
L 354.777421 157.512953 
L 354.897651 157.512953 
L 354.897651 157.650163 
L 355.017606 157.650163 
L 355.017606 157.795228 
L 355.137285 157.795228 
L 355.137285 157.981814 
L 355.375825 158.071188 
L 355.375825 158.276047 
L 355.494687 158.276047 
L 355.494687 158.414584 
L 355.731604 158.519942 
L 355.731604 158.719164 
L 355.967451 158.788372 
L 355.967451 159.005363 
L 356.202239 159.082181 
L 356.202239 159.325454 
L 356.435975 159.409116 
L 356.435975 159.6192 
L 356.668671 159.708598 
L 356.668671 159.805716 
L 356.784631 159.805716 
L 356.784631 160.051582 
L 357.015783 160.152788 
L 357.015783 160.262823 
L 357.130976 160.262823 
L 357.130976 160.558382 
L 357.245915 160.558382 
L 357.245915 160.679429 
L 357.475039 160.702792 
L 357.475039 160.836105 
L 357.589225 160.836105 
L 357.589225 161.211042 
L 357.703162 161.211042 
L 357.703162 161.36242 
L 358.04349 161.407032 
L 358.04349 161.565281 
L 358.269149 161.49115 
L 358.269149 162.064937 
L 358.493838 162.137586 
L 358.493838 162.350913 
L 358.82907 162.399293 
L 358.82907 162.637579 
L 359.162164 162.694154 
L 359.272725 163.567514 
L 359.603011 163.611666 
L 359.712644 164.031747 
L 360.257385 164.114975 
L 360.365654 164.615959 
L 360.903662 164.69225 
L 361.010602 164.757516 
L 361.117324 164.757516 
L 361.223828 167.548617 
L 361.647685 167.655979 
L 361.753114 167.725883 
L 362.172716 167.827365 
L 362.277092 167.885026 
L 362.692522 167.971682 
L 362.692522 172.569598 
L 362.795866 168.021096 
L 363.104676 168.099791 
L 363.207208 173.415678 
L 363.41167 173.457885 
L 363.513602 173.597222 
L 363.615336 173.597222 
L 363.716872 174.104093 
L 363.919353 174.186559 
L 364.0203 174.472886 
L 364.321977 174.528482 
L 364.42215 175.251918 
L 364.621921 175.361337 
L 364.721521 175.827897 
L 364.820931 175.827897 
L 364.920153 176.014961 
L 365.216692 176.102074 
L 365.315165 176.258929 
L 365.413454 176.258929 
L 365.511557 177.067684 
L 365.609477 177.067684 
L 365.609477 176.685458 
L 365.707213 177.262693 
L 365.90214 177.225537 
L 365.999331 179.145402 
L 366.096341 179.145402 
L 366.096341 177.583077 
L 366.193172 177.602561 
L 366.289823 177.602561 
L 366.386297 179.794781 
L 366.482592 179.794781 
L 366.57871 180.059968 
L 366.674651 180.059968 
L 366.770417 180.816317 
L 366.961423 180.76824 
L 367.056665 181.294667 
L 367.24663 181.390898 
L 367.341354 181.675794 
L 367.435906 181.675794 
L 367.530288 182.031962 
L 367.812413 182.111541 
L 367.812413 182.872047 
L 367.906118 182.476508 
L 367.999654 182.476508 
L 368.093024 183.245504 
L 368.464842 183.326832 
L 368.557384 183.575888 
L 368.741978 183.65054 
L 368.834032 184.628519 
L 369.017653 184.707668 
L 369.109222 184.866733 
L 369.29188 184.942165 
L 369.38297 185.098367 
L 369.564675 185.165636 
L 369.655292 185.28935 
L 369.836054 185.344453 
L 369.926201 185.477106 
L 370.195712 185.574476 
L 370.285241 188.28624 
L 370.374617 188.28624 
L 370.374617 185.721578 
L 370.46384 188.593807 
L 370.552911 188.593807 
L 370.641831 188.910626 
L 370.730599 188.910626 
L 370.819217 189.145121 
L 370.907685 189.145121 
L 370.996003 189.509956 
L 371.084172 189.509956 
L 371.172193 189.813946 
L 371.34779 189.891071 
L 371.435368 190.156764 
L 371.5228 190.156764 
L 371.610085 190.459786 
L 371.697224 190.459786 
L 371.784219 190.798853 
L 371.957775 190.883834 
L 372.044337 191.201302 
L 372.217032 191.29337 
L 372.303166 191.729241 
L 372.475009 191.786028 
L 372.560719 191.964769 
L 372.646288 191.964769 
L 372.731718 192.417411 
L 372.902159 192.493044 
L 372.987172 192.735065 
L 373.072046 192.735065 
L 373.156783 193.253694 
L 373.410172 193.361024 
L 373.494362 193.590956 
L 373.578417 193.590956 
L 373.578417 193.714649 
L 373.662337 193.714649 
L 373.746123 193.714649 
L 373.829774 194.537953 
L 373.996676 194.537953 
L 373.996676 194.283693 
L 374.079927 194.92263 
L 374.328888 194.959391 
L 374.328888 195.180753 
L 374.411612 195.180753 
L 374.494205 195.180753 
L 374.576668 195.694604 
L 374.659001 195.694604 
L 374.659001 195.424144 
L 374.741204 195.694752 
L 374.987041 195.694752 
L 374.987041 195.999082 
L 375.06873 195.999082 
L 375.313034 195.99925 
L 375.394216 198.231553 
L 375.717686 198.231553 
L 375.798241 199.218739 
L 376.199166 199.218739 
L 376.199166 200.905356 
L 376.278983 199.218739 
L 376.517705 199.218739 
L 376.517705 200.905356 
L 376.597037 200.905356 
L 376.755341 200.905356 
L 376.755341 199.218739 
L 376.834313 200.905356 
L 377.850236 200.906617 
L 377.850236 295.488 
L 377.927572 295.488 
L 398.487273 295.488 
L 398.487273 295.488 
" clip-path="url(#pc18b080690)" style="fill: none; stroke: #ff7f0e; stroke-width: 1.5; stroke-linecap: square"/>
   </g>
   <g id="patch_3">
    <path d="M 57.6 307.584 
L 57.6 41.472 
" style="fill: none; stroke: #000000; stroke-width: 0.8; stroke-linejoin: miter; stroke-linecap: square"/>
   </g>
   <g id="patch_4">
    <path d="M 414.72 307.584 
L 414.72 41.472 
" style="fill: none; stroke: #000000; stroke-width: 0.8; stroke-linejoin: miter; stroke-linecap: square"/>
   </g>
   <g id="patch_5">
    <path d="M 57.6 307.584 
L 414.72 307.584 
" style="fill: none; stroke: #000000; stroke-width: 0.8; stroke-linejoin: miter; stroke-linecap: square"/>
   </g>
   <g id="patch_6">
    <path d="M 57.6 41.472 
L 414.72 41.472 
" style="fill: none; stroke: #000000; stroke-width: 0.8; stroke-linejoin: miter; stroke-linecap: square"/>
   </g>
   <g id="text_14">
    <!-- T=2.0e+05 K, kappa=5.0 -->
    <g transform="translate(159.004687 35.472) scale(0.12 -0.12)">
     <defs>
      <path id="DejaVuSans-54" d="M -19 4666 
L 3928 4666 
L 3928 4134 
L 2272 4134 
L 2272 0 
L 1638 0 
L 1638 4134 
L -19 4134 
L -19 4666 
z
" transform="scale(0.015625)"/>
      <path id="DejaVuSans-3d" d="M 678 2906 
L 4684 2906 
L 4684 2381 
L 678 2381 
L 678 2906 
z
M 678 1631 
L 4684 1631 
L 4684 1100 
L 678 1100 
L 678 1631 
z
" transform="scale(0.015625)"/>
      <path id="DejaVuSans-2e" d="M 684 794 
L 1344 794 
L 1344 0 
L 684 0 
L 684 794 
z
" transform="scale(0.015625)"/>
      <path id="DejaVuSans-2b" d="M 2944 4013 
L 2944 2272 
L 4684 2272 
L 4684 1741 
L 2944 1741 
L 2944 0 
L 2419 0 
L 2419 1741 
L 678 1741 
L 678 2272 
L 2419 2272 
L 2419 4013 
L 2944 4013 
z
" transform="scale(0.015625)"/>
      <path id="DejaVuSans-4b" d="M 628 4666 
L 1259 4666 
L 1259 2694 
L 3353 4666 
L 4166 4666 
L 1850 2491 
L 4331 0 
L 3500 0 
L 1259 2247 
L 1259 0 
L 628 0 
L 628 4666 
z
" transform="scale(0.015625)"/>
      <path id="DejaVuSans-2c" d="M 750 794 
L 1409 794 
L 1409 256 
L 897 -744 
L 494 -744 
L 750 256 
L 750 794 
z
" transform="scale(0.015625)"/>
      <path id="DejaVuSans-61" d="M 2194 1759 
Q 1497 1759 1228 1600 
Q 959 1441 959 1056 
Q 959 750 1161 570 
Q 1363 391 1709 391 
Q 2188 391 2477 730 
Q 2766 1069 2766 1631 
L 2766 1759 
L 2194 1759 
z
M 3341 1997 
L 3341 0 
L 2766 0 
L 2766 531 
Q 2569 213 2275 61 
Q 1981 -91 1556 -91 
Q 1019 -91 701 211 
Q 384 513 384 1019 
Q 384 1609 779 1909 
Q 1175 2209 1959 2209 
L 2766 2209 
L 2766 2266 
Q 2766 2663 2505 2880 
Q 2244 3097 1772 3097 
Q 1472 3097 1187 3025 
Q 903 2953 641 2809 
L 641 3341 
Q 956 3463 1253 3523 
Q 1550 3584 1831 3584 
Q 2591 3584 2966 3190 
Q 3341 2797 3341 1997 
z
" transform="scale(0.015625)"/>
     </defs>
     <use xlink:href="#DejaVuSans-54"/>
     <use xlink:href="#DejaVuSans-3d" transform="translate(61.083984 0)"/>
     <use xlink:href="#DejaVuSans-32" transform="translate(144.873047 0)"/>
     <use xlink:href="#DejaVuSans-2e" transform="translate(208.496094 0)"/>
     <use xlink:href="#DejaVuSans-30" transform="translate(240.283203 0)"/>
     <use xlink:href="#DejaVuSans-65" transform="translate(303.90625 0)"/>
     <use xlink:href="#DejaVuSans-2b" transform="translate(365.429688 0)"/>
     <use xlink:href="#DejaVuSans-30" transform="translate(449.21875 0)"/>
     <use xlink:href="#DejaVuSans-35" transform="translate(512.841797 0)"/>
     <use xlink:href="#DejaVuSans-20" transform="translate(576.464844 0)"/>
     <use xlink:href="#DejaVuSans-4b" transform="translate(608.251953 0)"/>
     <use xlink:href="#DejaVuSans-2c" transform="translate(673.828125 0)"/>
     <use xlink:href="#DejaVuSans-20" transform="translate(705.615234 0)"/>
     <use xlink:href="#DejaVuSans-6b" transform="translate(737.402344 0)"/>
     <use xlink:href="#DejaVuSans-61" transform="translate(793.5625 0)"/>
     <use xlink:href="#DejaVuSans-70" transform="translate(854.841797 0)"/>
     <use xlink:href="#DejaVuSans-70" transform="translate(918.318359 0)"/>
     <use xlink:href="#DejaVuSans-61" transform="translate(981.794922 0)"/>
     <use xlink:href="#DejaVuSans-3d" transform="translate(1043.074219 0)"/>
     <use xlink:href="#DejaVuSans-35" transform="translate(1126.863281 0)"/>
     <use xlink:href="#DejaVuSans-2e" transform="translate(1190.486328 0)"/>
     <use xlink:href="#DejaVuSans-30" transform="translate(1222.273438 0)"/>
    </g>
   </g>
   <g id="legend_1">
    <g id="patch_7">
     <path d="M 340.0075 78.82825 
L 407.72 78.82825 
Q 409.72 78.82825 409.72 76.82825 
L 409.72 48.472 
Q 409.72 46.472 407.72 46.472 
L 340.0075 46.472 
Q 338.0075 46.472 338.0075 48.472 
L 338.0075 76.82825 
Q 338.0075 78.82825 340.0075 78.82825 
z
" style="fill: #ffffff; opacity: 0.8; stroke: #cccccc; stroke-linejoin: miter"/>
    </g>
    <g id="line2d_37">
     <path d="M 342.0075 54.570437 
L 342.0075 54.570437 
L 352.0075 54.570437 
L 352.0075 54.570437 
L 362.0075 54.570437 
" style="fill: none; stroke: #1f77b4; stroke-width: 1.5; stroke-linecap: square"/>
    </g>
    <g id="text_15">
     <!-- lines -->
     <g transform="translate(370.0075 58.070437) scale(0.1 -0.1)">
      <defs>
       <path id="DejaVuSans-6c" d="M 603 4863 
L 1178 4863 
L 1178 0 
L 603 0 
L 603 4863 
z
" transform="scale(0.015625)"/>
      </defs>
      <use xlink:href="#DejaVuSans-6c"/>
      <use xlink:href="#DejaVuSans-69" transform="translate(27.783203 0)"/>
      <use xlink:href="#DejaVuSans-6e" transform="translate(55.566406 0)"/>
      <use xlink:href="#DejaVuSans-65" transform="translate(118.945312 0)"/>
      <use xlink:href="#DejaVuSans-73" transform="translate(180.46875 0)"/>
     </g>
    </g>
    <g id="line2d_38">
     <path d="M 342.0075 69.248562 
L 342.0075 69.248562 
L 352.0075 69.248562 
L 352.0075 69.248562 
L 362.0075 69.248562 
" style="fill: none; stroke: #ff7f0e; stroke-width: 1.5; stroke-linecap: square"/>
    </g>
    <g id="text_16">
     <!-- nolines -->
     <g transform="translate(370.0075 72.748562) scale(0.1 -0.1)">
      <defs>
       <path id="DejaVuSans-6f" d="M 1959 3097 
Q 1497 3097 1228 2736 
Q 959 2375 959 1747 
Q 959 1119 1226 758 
Q 1494 397 1959 397 
Q 2419 397 2687 759 
Q 2956 1122 2956 1747 
Q 2956 2369 2687 2733 
Q 2419 3097 1959 3097 
z
M 1959 3584 
Q 2709 3584 3137 3096 
Q 3566 2609 3566 1747 
Q 3566 888 3137 398 
Q 2709 -91 1959 -91 
Q 1206 -91 779 398 
Q 353 888 353 1747 
Q 353 2609 779 3096 
Q 1206 3584 1959 3584 
z
" transform="scale(0.015625)"/>
      </defs>
      <use xlink:href="#DejaVuSans-6e"/>
      <use xlink:href="#DejaVuSans-6f" transform="translate(63.378906 0)"/>
      <use xlink:href="#DejaVuSans-6c" transform="translate(124.560547 0)"/>
      <use xlink:href="#DejaVuSans-69" transform="translate(152.34375 0)"/>
      <use xlink:href="#DejaVuSans-6e" transform="translate(180.126953 0)"/>
      <use xlink:href="#DejaVuSans-65" transform="translate(243.505859 0)"/>
      <use xlink:href="#DejaVuSans-73" transform="translate(305.029297 0)"/>
     </g>
    </g>
   </g>
  </g>
 </g>
 <defs>
  <clipPath id="pc18b080690">
   <rect x="57.6" y="41.472" width="357.12" height="266.112"/>
  </clipPath>
 </defs>
</svg>
