<?xml version="1.0" encoding="utf-8" standalone="no"?>
<!DOCTYPE svg PUBLIC "-//W3C//DTD SVG 1.1//EN"
  "http://www.w3.org/Graphics/SVG/1.1/DTD/svg11.dtd">
<svg xmlns:xlink="http://www.w3.org/1999/xlink" width="460.8pt" height="345.6pt" viewBox="0 0 460.8 345.6" xmlns="http://www.w3.org/2000/svg" version="1.1">
 <metadata>
  <rdf:RDF xmlns:dc="http://purl.org/dc/elements/1.1/" xmlns:cc="http://creativecommons.org/ns#" xmlns:rdf="http://www.w3.org/1999/02/22-rdf-syntax-ns#">
   <cc:Work>
    <dc:type rdf:resource="http://purl.org/dc/dcmitype/StillImage"/>
    <dc:date>2025-04-08T17:03:59.761338</dc:date>
    <dc:format>image/svg+xml</dc:format>
    <dc:creator>
     <cc:Agent>
      <dc:title>Matplotlib v3.10.1, https://matplotlib.org/</dc:title>
     </cc:Agent>
    </dc:creator>
   </cc:Work>
  </rdf:RDF>
 </metadata>
 <defs>
  <style type="text/css">*{stroke-linejoin: round; stroke-linecap: butt}</style>
 </defs>
 <g id="figure_1">
  <g id="patch_1">
   <path d="M 0 345.6 
L 460.8 345.6 
L 460.8 0 
L 0 0 
z
" style="fill: #ffffff"/>
  </g>
  <g id="axes_1">
   <g id="patch_2">
    <path d="M 57.6 307.584 
L 414.72 307.584 
L 414.72 41.472 
L 57.6 41.472 
z
" style="fill: #ffffff"/>
   </g>
   <g id="matplotlib.axis_1">
    <g id="xtick_1">
     <g id="line2d_1">
      <defs>
       <path id="m7a02397fda" d="M 0 0 
L 0 3.5 
" style="stroke: #000000; stroke-width: 0.8"/>
      </defs>
      <g>
       <use xlink:href="#m7a02397fda" x="73.832727" y="307.584" style="stroke: #000000; stroke-width: 0.8"/>
      </g>
     </g>
     <g id="text_1">
      <!-- 6.90 -->
      <g transform="translate(62.699915 322.182437) scale(0.1 -0.1)">
       <defs>
        <path id="DejaVuSans-36" d="M 2113 2584 
Q 1688 2584 1439 2293 
Q 1191 2003 1191 1497 
Q 1191 994 1439 701 
Q 1688 409 2113 409 
Q 2538 409 2786 701 
Q 3034 994 3034 1497 
Q 3034 2003 2786 2293 
Q 2538 2584 2113 2584 
z
M 3366 4563 
L 3366 3988 
Q 3128 4100 2886 4159 
Q 2644 4219 2406 4219 
Q 1781 4219 1451 3797 
Q 1122 3375 1075 2522 
Q 1259 2794 1537 2939 
Q 1816 3084 2150 3084 
Q 2853 3084 3261 2657 
Q 3669 2231 3669 1497 
Q 3669 778 3244 343 
Q 2819 -91 2113 -91 
Q 1303 -91 875 529 
Q 447 1150 447 2328 
Q 447 3434 972 4092 
Q 1497 4750 2381 4750 
Q 2619 4750 2861 4703 
Q 3103 4656 3366 4563 
z
" transform="scale(0.015625)"/>
        <path id="DejaVuSans-2e" d="M 684 794 
L 1344 794 
L 1344 0 
L 684 0 
L 684 794 
z
" transform="scale(0.015625)"/>
        <path id="DejaVuSans-39" d="M 703 97 
L 703 672 
Q 941 559 1184 500 
Q 1428 441 1663 441 
Q 2288 441 2617 861 
Q 2947 1281 2994 2138 
Q 2813 1869 2534 1725 
Q 2256 1581 1919 1581 
Q 1219 1581 811 2004 
Q 403 2428 403 3163 
Q 403 3881 828 4315 
Q 1253 4750 1959 4750 
Q 2769 4750 3195 4129 
Q 3622 3509 3622 2328 
Q 3622 1225 3098 567 
Q 2575 -91 1691 -91 
Q 1453 -91 1209 -44 
Q 966 3 703 97 
z
M 1959 2075 
Q 2384 2075 2632 2365 
Q 2881 2656 2881 3163 
Q 2881 3666 2632 3958 
Q 2384 4250 1959 4250 
Q 1534 4250 1286 3958 
Q 1038 3666 1038 3163 
Q 1038 2656 1286 2365 
Q 1534 2075 1959 2075 
z
" transform="scale(0.015625)"/>
        <path id="DejaVuSans-30" d="M 2034 4250 
Q 1547 4250 1301 3770 
Q 1056 3291 1056 2328 
Q 1056 1369 1301 889 
Q 1547 409 2034 409 
Q 2525 409 2770 889 
Q 3016 1369 3016 2328 
Q 3016 3291 2770 3770 
Q 2525 4250 2034 4250 
z
M 2034 4750 
Q 2819 4750 3233 4129 
Q 3647 3509 3647 2328 
Q 3647 1150 3233 529 
Q 2819 -91 2034 -91 
Q 1250 -91 836 529 
Q 422 1150 422 2328 
Q 422 3509 836 4129 
Q 1250 4750 2034 4750 
z
" transform="scale(0.015625)"/>
       </defs>
       <use xlink:href="#DejaVuSans-36"/>
       <use xlink:href="#DejaVuSans-2e" transform="translate(63.623047 0)"/>
       <use xlink:href="#DejaVuSans-39" transform="translate(95.410156 0)"/>
       <use xlink:href="#DejaVuSans-30" transform="translate(159.033203 0)"/>
      </g>
     </g>
    </g>
    <g id="xtick_2">
     <g id="line2d_2">
      <g>
       <use xlink:href="#m7a02397fda" x="138.763636" y="307.584" style="stroke: #000000; stroke-width: 0.8"/>
      </g>
     </g>
     <g id="text_2">
      <!-- 6.92 -->
      <g transform="translate(127.630824 322.182437) scale(0.1 -0.1)">
       <defs>
        <path id="DejaVuSans-32" d="M 1228 531 
L 3431 531 
L 3431 0 
L 469 0 
L 469 531 
Q 828 903 1448 1529 
Q 2069 2156 2228 2338 
Q 2531 2678 2651 2914 
Q 2772 3150 2772 3378 
Q 2772 3750 2511 3984 
Q 2250 4219 1831 4219 
Q 1534 4219 1204 4116 
Q 875 4013 500 3803 
L 500 4441 
Q 881 4594 1212 4672 
Q 1544 4750 1819 4750 
Q 2544 4750 2975 4387 
Q 3406 4025 3406 3419 
Q 3406 3131 3298 2873 
Q 3191 2616 2906 2266 
Q 2828 2175 2409 1742 
Q 1991 1309 1228 531 
z
" transform="scale(0.015625)"/>
       </defs>
       <use xlink:href="#DejaVuSans-36"/>
       <use xlink:href="#DejaVuSans-2e" transform="translate(63.623047 0)"/>
       <use xlink:href="#DejaVuSans-39" transform="translate(95.410156 0)"/>
       <use xlink:href="#DejaVuSans-32" transform="translate(159.033203 0)"/>
      </g>
     </g>
    </g>
    <g id="xtick_3">
     <g id="line2d_3">
      <g>
       <use xlink:href="#m7a02397fda" x="203.694545" y="307.584" style="stroke: #000000; stroke-width: 0.8"/>
      </g>
     </g>
     <g id="text_3">
      <!-- 6.94 -->
      <g transform="translate(192.561733 322.182437) scale(0.1 -0.1)">
       <defs>
        <path id="DejaVuSans-34" d="M 2419 4116 
L 825 1625 
L 2419 1625 
L 2419 4116 
z
M 2253 4666 
L 3047 4666 
L 3047 1625 
L 3713 1625 
L 3713 1100 
L 3047 1100 
L 3047 0 
L 2419 0 
L 2419 1100 
L 313 1100 
L 313 1709 
L 2253 4666 
z
" transform="scale(0.015625)"/>
       </defs>
       <use xlink:href="#DejaVuSans-36"/>
       <use xlink:href="#DejaVuSans-2e" transform="translate(63.623047 0)"/>
       <use xlink:href="#DejaVuSans-39" transform="translate(95.410156 0)"/>
       <use xlink:href="#DejaVuSans-34" transform="translate(159.033203 0)"/>
      </g>
     </g>
    </g>
    <g id="xtick_4">
     <g id="line2d_4">
      <g>
       <use xlink:href="#m7a02397fda" x="268.625455" y="307.584" style="stroke: #000000; stroke-width: 0.8"/>
      </g>
     </g>
     <g id="text_4">
      <!-- 6.96 -->
      <g transform="translate(257.492642 322.182437) scale(0.1 -0.1)">
       <use xlink:href="#DejaVuSans-36"/>
       <use xlink:href="#DejaVuSans-2e" transform="translate(63.623047 0)"/>
       <use xlink:href="#DejaVuSans-39" transform="translate(95.410156 0)"/>
       <use xlink:href="#DejaVuSans-36" transform="translate(159.033203 0)"/>
      </g>
     </g>
    </g>
    <g id="xtick_5">
     <g id="line2d_5">
      <g>
       <use xlink:href="#m7a02397fda" x="333.556364" y="307.584" style="stroke: #000000; stroke-width: 0.8"/>
      </g>
     </g>
     <g id="text_5">
      <!-- 6.98 -->
      <g transform="translate(322.423551 322.182437) scale(0.1 -0.1)">
       <defs>
        <path id="DejaVuSans-38" d="M 2034 2216 
Q 1584 2216 1326 1975 
Q 1069 1734 1069 1313 
Q 1069 891 1326 650 
Q 1584 409 2034 409 
Q 2484 409 2743 651 
Q 3003 894 3003 1313 
Q 3003 1734 2745 1975 
Q 2488 2216 2034 2216 
z
M 1403 2484 
Q 997 2584 770 2862 
Q 544 3141 544 3541 
Q 544 4100 942 4425 
Q 1341 4750 2034 4750 
Q 2731 4750 3128 4425 
Q 3525 4100 3525 3541 
Q 3525 3141 3298 2862 
Q 3072 2584 2669 2484 
Q 3125 2378 3379 2068 
Q 3634 1759 3634 1313 
Q 3634 634 3220 271 
Q 2806 -91 2034 -91 
Q 1263 -91 848 271 
Q 434 634 434 1313 
Q 434 1759 690 2068 
Q 947 2378 1403 2484 
z
M 1172 3481 
Q 1172 3119 1398 2916 
Q 1625 2713 2034 2713 
Q 2441 2713 2670 2916 
Q 2900 3119 2900 3481 
Q 2900 3844 2670 4047 
Q 2441 4250 2034 4250 
Q 1625 4250 1398 4047 
Q 1172 3844 1172 3481 
z
" transform="scale(0.015625)"/>
       </defs>
       <use xlink:href="#DejaVuSans-36"/>
       <use xlink:href="#DejaVuSans-2e" transform="translate(63.623047 0)"/>
       <use xlink:href="#DejaVuSans-39" transform="translate(95.410156 0)"/>
       <use xlink:href="#DejaVuSans-38" transform="translate(159.033203 0)"/>
      </g>
     </g>
    </g>
    <g id="xtick_6">
     <g id="line2d_6">
      <g>
       <use xlink:href="#m7a02397fda" x="398.487273" y="307.584" style="stroke: #000000; stroke-width: 0.8"/>
      </g>
     </g>
     <g id="text_6">
      <!-- 7.00 -->
      <g transform="translate(387.35446 322.182437) scale(0.1 -0.1)">
       <defs>
        <path id="DejaVuSans-37" d="M 525 4666 
L 3525 4666 
L 3525 4397 
L 1831 0 
L 1172 0 
L 2766 4134 
L 525 4134 
L 525 4666 
z
" transform="scale(0.015625)"/>
       </defs>
       <use xlink:href="#DejaVuSans-37"/>
       <use xlink:href="#DejaVuSans-2e" transform="translate(63.623047 0)"/>
       <use xlink:href="#DejaVuSans-30" transform="translate(95.410156 0)"/>
       <use xlink:href="#DejaVuSans-30" transform="translate(159.033203 0)"/>
      </g>
     </g>
    </g>
    <g id="text_7">
     <!-- Energy (keV) -->
     <g transform="translate(203.952187 335.860562) scale(0.1 -0.1)">
      <defs>
       <path id="DejaVuSans-45" d="M 628 4666 
L 3578 4666 
L 3578 4134 
L 1259 4134 
L 1259 2753 
L 3481 2753 
L 3481 2222 
L 1259 2222 
L 1259 531 
L 3634 531 
L 3634 0 
L 628 0 
L 628 4666 
z
" transform="scale(0.015625)"/>
       <path id="DejaVuSans-6e" d="M 3513 2113 
L 3513 0 
L 2938 0 
L 2938 2094 
Q 2938 2591 2744 2837 
Q 2550 3084 2163 3084 
Q 1697 3084 1428 2787 
Q 1159 2491 1159 1978 
L 1159 0 
L 581 0 
L 581 3500 
L 1159 3500 
L 1159 2956 
Q 1366 3272 1645 3428 
Q 1925 3584 2291 3584 
Q 2894 3584 3203 3211 
Q 3513 2838 3513 2113 
z
" transform="scale(0.015625)"/>
       <path id="DejaVuSans-65" d="M 3597 1894 
L 3597 1613 
L 953 1613 
Q 991 1019 1311 708 
Q 1631 397 2203 397 
Q 2534 397 2845 478 
Q 3156 559 3463 722 
L 3463 178 
Q 3153 47 2828 -22 
Q 2503 -91 2169 -91 
Q 1331 -91 842 396 
Q 353 884 353 1716 
Q 353 2575 817 3079 
Q 1281 3584 2069 3584 
Q 2775 3584 3186 3129 
Q 3597 2675 3597 1894 
z
M 3022 2063 
Q 3016 2534 2758 2815 
Q 2500 3097 2075 3097 
Q 1594 3097 1305 2825 
Q 1016 2553 972 2059 
L 3022 2063 
z
" transform="scale(0.015625)"/>
       <path id="DejaVuSans-72" d="M 2631 2963 
Q 2534 3019 2420 3045 
Q 2306 3072 2169 3072 
Q 1681 3072 1420 2755 
Q 1159 2438 1159 1844 
L 1159 0 
L 581 0 
L 581 3500 
L 1159 3500 
L 1159 2956 
Q 1341 3275 1631 3429 
Q 1922 3584 2338 3584 
Q 2397 3584 2469 3576 
Q 2541 3569 2628 3553 
L 2631 2963 
z
" transform="scale(0.015625)"/>
       <path id="DejaVuSans-67" d="M 2906 1791 
Q 2906 2416 2648 2759 
Q 2391 3103 1925 3103 
Q 1463 3103 1205 2759 
Q 947 2416 947 1791 
Q 947 1169 1205 825 
Q 1463 481 1925 481 
Q 2391 481 2648 825 
Q 2906 1169 2906 1791 
z
M 3481 434 
Q 3481 -459 3084 -895 
Q 2688 -1331 1869 -1331 
Q 1566 -1331 1297 -1286 
Q 1028 -1241 775 -1147 
L 775 -588 
Q 1028 -725 1275 -790 
Q 1522 -856 1778 -856 
Q 2344 -856 2625 -561 
Q 2906 -266 2906 331 
L 2906 616 
Q 2728 306 2450 153 
Q 2172 0 1784 0 
Q 1141 0 747 490 
Q 353 981 353 1791 
Q 353 2603 747 3093 
Q 1141 3584 1784 3584 
Q 2172 3584 2450 3431 
Q 2728 3278 2906 2969 
L 2906 3500 
L 3481 3500 
L 3481 434 
z
" transform="scale(0.015625)"/>
       <path id="DejaVuSans-79" d="M 2059 -325 
Q 1816 -950 1584 -1140 
Q 1353 -1331 966 -1331 
L 506 -1331 
L 506 -850 
L 844 -850 
Q 1081 -850 1212 -737 
Q 1344 -625 1503 -206 
L 1606 56 
L 191 3500 
L 800 3500 
L 1894 763 
L 2988 3500 
L 3597 3500 
L 2059 -325 
z
" transform="scale(0.015625)"/>
       <path id="DejaVuSans-20" transform="scale(0.015625)"/>
       <path id="DejaVuSans-28" d="M 1984 4856 
Q 1566 4138 1362 3434 
Q 1159 2731 1159 2009 
Q 1159 1288 1364 580 
Q 1569 -128 1984 -844 
L 1484 -844 
Q 1016 -109 783 600 
Q 550 1309 550 2009 
Q 550 2706 781 3412 
Q 1013 4119 1484 4856 
L 1984 4856 
z
" transform="scale(0.015625)"/>
       <path id="DejaVuSans-6b" d="M 581 4863 
L 1159 4863 
L 1159 1991 
L 2875 3500 
L 3609 3500 
L 1753 1863 
L 3688 0 
L 2938 0 
L 1159 1709 
L 1159 0 
L 581 0 
L 581 4863 
z
" transform="scale(0.015625)"/>
       <path id="DejaVuSans-56" d="M 1831 0 
L 50 4666 
L 709 4666 
L 2188 738 
L 3669 4666 
L 4325 4666 
L 2547 0 
L 1831 0 
z
" transform="scale(0.015625)"/>
       <path id="DejaVuSans-29" d="M 513 4856 
L 1013 4856 
Q 1481 4119 1714 3412 
Q 1947 2706 1947 2009 
Q 1947 1309 1714 600 
Q 1481 -109 1013 -844 
L 513 -844 
Q 928 -128 1133 580 
Q 1338 1288 1338 2009 
Q 1338 2731 1133 3434 
Q 928 4138 513 4856 
z
" transform="scale(0.015625)"/>
      </defs>
      <use xlink:href="#DejaVuSans-45"/>
      <use xlink:href="#DejaVuSans-6e" transform="translate(63.183594 0)"/>
      <use xlink:href="#DejaVuSans-65" transform="translate(126.5625 0)"/>
      <use xlink:href="#DejaVuSans-72" transform="translate(188.085938 0)"/>
      <use xlink:href="#DejaVuSans-67" transform="translate(227.449219 0)"/>
      <use xlink:href="#DejaVuSans-79" transform="translate(290.925781 0)"/>
      <use xlink:href="#DejaVuSans-20" transform="translate(350.105469 0)"/>
      <use xlink:href="#DejaVuSans-28" transform="translate(381.892578 0)"/>
      <use xlink:href="#DejaVuSans-6b" transform="translate(420.90625 0)"/>
      <use xlink:href="#DejaVuSans-65" transform="translate(475.191406 0)"/>
      <use xlink:href="#DejaVuSans-56" transform="translate(536.714844 0)"/>
      <use xlink:href="#DejaVuSans-29" transform="translate(605.123047 0)"/>
     </g>
    </g>
   </g>
   <g id="matplotlib.axis_2">
    <g id="ytick_1">
     <g id="line2d_7">
      <defs>
       <path id="m5038ec86b1" d="M 0 0 
L -3.5 0 
" style="stroke: #000000; stroke-width: 0.8"/>
      </defs>
      <g>
       <use xlink:href="#m5038ec86b1" x="57.6" y="245.130996" style="stroke: #000000; stroke-width: 0.8"/>
      </g>
     </g>
     <g id="text_8">
      <!-- $\mathdefault{10^{-19}}$ -->
      <g transform="translate(22.7 248.930215) scale(0.1 -0.1)">
       <defs>
        <path id="DejaVuSans-31" d="M 794 531 
L 1825 531 
L 1825 4091 
L 703 3866 
L 703 4441 
L 1819 4666 
L 2450 4666 
L 2450 531 
L 3481 531 
L 3481 0 
L 794 0 
L 794 531 
z
" transform="scale(0.015625)"/>
        <path id="DejaVuSans-2212" d="M 678 2272 
L 4684 2272 
L 4684 1741 
L 678 1741 
L 678 2272 
z
" transform="scale(0.015625)"/>
       </defs>
       <use xlink:href="#DejaVuSans-31" transform="translate(0 0.765625)"/>
       <use xlink:href="#DejaVuSans-30" transform="translate(63.623047 0.765625)"/>
       <use xlink:href="#DejaVuSans-2212" transform="translate(128.203125 39.046875) scale(0.7)"/>
       <use xlink:href="#DejaVuSans-31" transform="translate(186.855469 39.046875) scale(0.7)"/>
       <use xlink:href="#DejaVuSans-39" transform="translate(231.391602 39.046875) scale(0.7)"/>
      </g>
     </g>
    </g>
    <g id="ytick_2">
     <g id="line2d_8">
      <g>
       <use xlink:href="#m5038ec86b1" x="57.6" y="164.911379" style="stroke: #000000; stroke-width: 0.8"/>
      </g>
     </g>
     <g id="text_9">
      <!-- $\mathdefault{10^{-18}}$ -->
      <g transform="translate(22.7 168.710598) scale(0.1 -0.1)">
       <use xlink:href="#DejaVuSans-31" transform="translate(0 0.765625)"/>
       <use xlink:href="#DejaVuSans-30" transform="translate(63.623047 0.765625)"/>
       <use xlink:href="#DejaVuSans-2212" transform="translate(128.203125 39.046875) scale(0.7)"/>
       <use xlink:href="#DejaVuSans-31" transform="translate(186.855469 39.046875) scale(0.7)"/>
       <use xlink:href="#DejaVuSans-38" transform="translate(231.391602 39.046875) scale(0.7)"/>
      </g>
     </g>
    </g>
    <g id="ytick_3">
     <g id="line2d_9">
      <g>
       <use xlink:href="#m5038ec86b1" x="57.6" y="84.691762" style="stroke: #000000; stroke-width: 0.8"/>
      </g>
     </g>
     <g id="text_10">
      <!-- $\mathdefault{10^{-17}}$ -->
      <g transform="translate(22.7 88.490981) scale(0.1 -0.1)">
       <use xlink:href="#DejaVuSans-31" transform="translate(0 0.684375)"/>
       <use xlink:href="#DejaVuSans-30" transform="translate(63.623047 0.684375)"/>
       <use xlink:href="#DejaVuSans-2212" transform="translate(128.203125 38.965625) scale(0.7)"/>
       <use xlink:href="#DejaVuSans-31" transform="translate(186.855469 38.965625) scale(0.7)"/>
       <use xlink:href="#DejaVuSans-37" transform="translate(231.391602 38.965625) scale(0.7)"/>
      </g>
     </g>
    </g>
    <g id="ytick_4">
     <g id="line2d_10">
      <defs>
       <path id="ma611b85c61" d="M 0 0 
L -2 0 
" style="stroke: #000000; stroke-width: 0.6"/>
      </defs>
      <g>
       <use xlink:href="#ma611b85c61" x="57.6" y="301.202102" style="stroke: #000000; stroke-width: 0.6"/>
      </g>
     </g>
    </g>
    <g id="ytick_5">
     <g id="line2d_11">
      <g>
       <use xlink:href="#ma611b85c61" x="57.6" y="287.076129" style="stroke: #000000; stroke-width: 0.6"/>
      </g>
     </g>
    </g>
    <g id="ytick_6">
     <g id="line2d_12">
      <g>
       <use xlink:href="#ma611b85c61" x="57.6" y="277.053591" style="stroke: #000000; stroke-width: 0.6"/>
      </g>
     </g>
    </g>
    <g id="ytick_7">
     <g id="line2d_13">
      <g>
       <use xlink:href="#ma611b85c61" x="57.6" y="269.279507" style="stroke: #000000; stroke-width: 0.6"/>
      </g>
     </g>
    </g>
    <g id="ytick_8">
     <g id="line2d_14">
      <g>
       <use xlink:href="#ma611b85c61" x="57.6" y="262.927618" style="stroke: #000000; stroke-width: 0.6"/>
      </g>
     </g>
    </g>
    <g id="ytick_9">
     <g id="line2d_15">
      <g>
       <use xlink:href="#ma611b85c61" x="57.6" y="257.557172" style="stroke: #000000; stroke-width: 0.6"/>
      </g>
     </g>
    </g>
    <g id="ytick_10">
     <g id="line2d_16">
      <g>
       <use xlink:href="#ma611b85c61" x="57.6" y="252.90508" style="stroke: #000000; stroke-width: 0.6"/>
      </g>
     </g>
    </g>
    <g id="ytick_11">
     <g id="line2d_17">
      <g>
       <use xlink:href="#ma611b85c61" x="57.6" y="248.801644" style="stroke: #000000; stroke-width: 0.6"/>
      </g>
     </g>
    </g>
    <g id="ytick_12">
     <g id="line2d_18">
      <g>
       <use xlink:href="#ma611b85c61" x="57.6" y="220.982485" style="stroke: #000000; stroke-width: 0.6"/>
      </g>
     </g>
    </g>
    <g id="ytick_13">
     <g id="line2d_19">
      <g>
       <use xlink:href="#ma611b85c61" x="57.6" y="206.856512" style="stroke: #000000; stroke-width: 0.6"/>
      </g>
     </g>
    </g>
    <g id="ytick_14">
     <g id="line2d_20">
      <g>
       <use xlink:href="#ma611b85c61" x="57.6" y="196.833974" style="stroke: #000000; stroke-width: 0.6"/>
      </g>
     </g>
    </g>
    <g id="ytick_15">
     <g id="line2d_21">
      <g>
       <use xlink:href="#ma611b85c61" x="57.6" y="189.05989" style="stroke: #000000; stroke-width: 0.6"/>
      </g>
     </g>
    </g>
    <g id="ytick_16">
     <g id="line2d_22">
      <g>
       <use xlink:href="#ma611b85c61" x="57.6" y="182.708001" style="stroke: #000000; stroke-width: 0.6"/>
      </g>
     </g>
    </g>
    <g id="ytick_17">
     <g id="line2d_23">
      <g>
       <use xlink:href="#ma611b85c61" x="57.6" y="177.337555" style="stroke: #000000; stroke-width: 0.6"/>
      </g>
     </g>
    </g>
    <g id="ytick_18">
     <g id="line2d_24">
      <g>
       <use xlink:href="#ma611b85c61" x="57.6" y="172.685463" style="stroke: #000000; stroke-width: 0.6"/>
      </g>
     </g>
    </g>
    <g id="ytick_19">
     <g id="line2d_25">
      <g>
       <use xlink:href="#ma611b85c61" x="57.6" y="168.582027" style="stroke: #000000; stroke-width: 0.6"/>
      </g>
     </g>
    </g>
    <g id="ytick_20">
     <g id="line2d_26">
      <g>
       <use xlink:href="#ma611b85c61" x="57.6" y="140.762868" style="stroke: #000000; stroke-width: 0.6"/>
      </g>
     </g>
    </g>
    <g id="ytick_21">
     <g id="line2d_27">
      <g>
       <use xlink:href="#ma611b85c61" x="57.6" y="126.636894" style="stroke: #000000; stroke-width: 0.6"/>
      </g>
     </g>
    </g>
    <g id="ytick_22">
     <g id="line2d_28">
      <g>
       <use xlink:href="#ma611b85c61" x="57.6" y="116.614357" style="stroke: #000000; stroke-width: 0.6"/>
      </g>
     </g>
    </g>
    <g id="ytick_23">
     <g id="line2d_29">
      <g>
       <use xlink:href="#ma611b85c61" x="57.6" y="108.840273" style="stroke: #000000; stroke-width: 0.6"/>
      </g>
     </g>
    </g>
    <g id="ytick_24">
     <g id="line2d_30">
      <g>
       <use xlink:href="#ma611b85c61" x="57.6" y="102.488384" style="stroke: #000000; stroke-width: 0.6"/>
      </g>
     </g>
    </g>
    <g id="ytick_25">
     <g id="line2d_31">
      <g>
       <use xlink:href="#ma611b85c61" x="57.6" y="97.117938" style="stroke: #000000; stroke-width: 0.6"/>
      </g>
     </g>
    </g>
    <g id="ytick_26">
     <g id="line2d_32">
      <g>
       <use xlink:href="#ma611b85c61" x="57.6" y="92.465846" style="stroke: #000000; stroke-width: 0.6"/>
      </g>
     </g>
    </g>
    <g id="ytick_27">
     <g id="line2d_33">
      <g>
       <use xlink:href="#ma611b85c61" x="57.6" y="88.36241" style="stroke: #000000; stroke-width: 0.6"/>
      </g>
     </g>
    </g>
    <g id="ytick_28">
     <g id="line2d_34">
      <g>
       <use xlink:href="#ma611b85c61" x="57.6" y="60.543251" style="stroke: #000000; stroke-width: 0.6"/>
      </g>
     </g>
    </g>
    <g id="ytick_29">
     <g id="line2d_35">
      <g>
       <use xlink:href="#ma611b85c61" x="57.6" y="46.417277" style="stroke: #000000; stroke-width: 0.6"/>
      </g>
     </g>
    </g>
    <g id="text_11">
     <!-- Intensity (ph cm$^5$ s$^{-1}$ bin$^{-1}$) -->
     <g transform="translate(16.6 243.978) rotate(-90) scale(0.1 -0.1)">
      <defs>
       <path id="DejaVuSans-49" d="M 628 4666 
L 1259 4666 
L 1259 0 
L 628 0 
L 628 4666 
z
" transform="scale(0.015625)"/>
       <path id="DejaVuSans-74" d="M 1172 4494 
L 1172 3500 
L 2356 3500 
L 2356 3053 
L 1172 3053 
L 1172 1153 
Q 1172 725 1289 603 
Q 1406 481 1766 481 
L 2356 481 
L 2356 0 
L 1766 0 
Q 1100 0 847 248 
Q 594 497 594 1153 
L 594 3053 
L 172 3053 
L 172 3500 
L 594 3500 
L 594 4494 
L 1172 4494 
z
" transform="scale(0.015625)"/>
       <path id="DejaVuSans-73" d="M 2834 3397 
L 2834 2853 
Q 2591 2978 2328 3040 
Q 2066 3103 1784 3103 
Q 1356 3103 1142 2972 
Q 928 2841 928 2578 
Q 928 2378 1081 2264 
Q 1234 2150 1697 2047 
L 1894 2003 
Q 2506 1872 2764 1633 
Q 3022 1394 3022 966 
Q 3022 478 2636 193 
Q 2250 -91 1575 -91 
Q 1294 -91 989 -36 
Q 684 19 347 128 
L 347 722 
Q 666 556 975 473 
Q 1284 391 1588 391 
Q 1994 391 2212 530 
Q 2431 669 2431 922 
Q 2431 1156 2273 1281 
Q 2116 1406 1581 1522 
L 1381 1569 
Q 847 1681 609 1914 
Q 372 2147 372 2553 
Q 372 3047 722 3315 
Q 1072 3584 1716 3584 
Q 2034 3584 2315 3537 
Q 2597 3491 2834 3397 
z
" transform="scale(0.015625)"/>
       <path id="DejaVuSans-69" d="M 603 3500 
L 1178 3500 
L 1178 0 
L 603 0 
L 603 3500 
z
M 603 4863 
L 1178 4863 
L 1178 4134 
L 603 4134 
L 603 4863 
z
" transform="scale(0.015625)"/>
       <path id="DejaVuSans-70" d="M 1159 525 
L 1159 -1331 
L 581 -1331 
L 581 3500 
L 1159 3500 
L 1159 2969 
Q 1341 3281 1617 3432 
Q 1894 3584 2278 3584 
Q 2916 3584 3314 3078 
Q 3713 2572 3713 1747 
Q 3713 922 3314 415 
Q 2916 -91 2278 -91 
Q 1894 -91 1617 61 
Q 1341 213 1159 525 
z
M 3116 1747 
Q 3116 2381 2855 2742 
Q 2594 3103 2138 3103 
Q 1681 3103 1420 2742 
Q 1159 2381 1159 1747 
Q 1159 1113 1420 752 
Q 1681 391 2138 391 
Q 2594 391 2855 752 
Q 3116 1113 3116 1747 
z
" transform="scale(0.015625)"/>
       <path id="DejaVuSans-68" d="M 3513 2113 
L 3513 0 
L 2938 0 
L 2938 2094 
Q 2938 2591 2744 2837 
Q 2550 3084 2163 3084 
Q 1697 3084 1428 2787 
Q 1159 2491 1159 1978 
L 1159 0 
L 581 0 
L 581 4863 
L 1159 4863 
L 1159 2956 
Q 1366 3272 1645 3428 
Q 1925 3584 2291 3584 
Q 2894 3584 3203 3211 
Q 3513 2838 3513 2113 
z
" transform="scale(0.015625)"/>
       <path id="DejaVuSans-63" d="M 3122 3366 
L 3122 2828 
Q 2878 2963 2633 3030 
Q 2388 3097 2138 3097 
Q 1578 3097 1268 2742 
Q 959 2388 959 1747 
Q 959 1106 1268 751 
Q 1578 397 2138 397 
Q 2388 397 2633 464 
Q 2878 531 3122 666 
L 3122 134 
Q 2881 22 2623 -34 
Q 2366 -91 2075 -91 
Q 1284 -91 818 406 
Q 353 903 353 1747 
Q 353 2603 823 3093 
Q 1294 3584 2113 3584 
Q 2378 3584 2631 3529 
Q 2884 3475 3122 3366 
z
" transform="scale(0.015625)"/>
       <path id="DejaVuSans-6d" d="M 3328 2828 
Q 3544 3216 3844 3400 
Q 4144 3584 4550 3584 
Q 5097 3584 5394 3201 
Q 5691 2819 5691 2113 
L 5691 0 
L 5113 0 
L 5113 2094 
Q 5113 2597 4934 2840 
Q 4756 3084 4391 3084 
Q 3944 3084 3684 2787 
Q 3425 2491 3425 1978 
L 3425 0 
L 2847 0 
L 2847 2094 
Q 2847 2600 2669 2842 
Q 2491 3084 2119 3084 
Q 1678 3084 1418 2786 
Q 1159 2488 1159 1978 
L 1159 0 
L 581 0 
L 581 3500 
L 1159 3500 
L 1159 2956 
Q 1356 3278 1631 3431 
Q 1906 3584 2284 3584 
Q 2666 3584 2933 3390 
Q 3200 3197 3328 2828 
z
" transform="scale(0.015625)"/>
       <path id="DejaVuSans-35" d="M 691 4666 
L 3169 4666 
L 3169 4134 
L 1269 4134 
L 1269 2991 
Q 1406 3038 1543 3061 
Q 1681 3084 1819 3084 
Q 2600 3084 3056 2656 
Q 3513 2228 3513 1497 
Q 3513 744 3044 326 
Q 2575 -91 1722 -91 
Q 1428 -91 1123 -41 
Q 819 9 494 109 
L 494 744 
Q 775 591 1075 516 
Q 1375 441 1709 441 
Q 2250 441 2565 725 
Q 2881 1009 2881 1497 
Q 2881 1984 2565 2268 
Q 2250 2553 1709 2553 
Q 1456 2553 1204 2497 
Q 953 2441 691 2322 
L 691 4666 
z
" transform="scale(0.015625)"/>
       <path id="DejaVuSans-62" d="M 3116 1747 
Q 3116 2381 2855 2742 
Q 2594 3103 2138 3103 
Q 1681 3103 1420 2742 
Q 1159 2381 1159 1747 
Q 1159 1113 1420 752 
Q 1681 391 2138 391 
Q 2594 391 2855 752 
Q 3116 1113 3116 1747 
z
M 1159 2969 
Q 1341 3281 1617 3432 
Q 1894 3584 2278 3584 
Q 2916 3584 3314 3078 
Q 3713 2572 3713 1747 
Q 3713 922 3314 415 
Q 2916 -91 2278 -91 
Q 1894 -91 1617 61 
Q 1341 213 1159 525 
L 1159 0 
L 581 0 
L 581 4863 
L 1159 4863 
L 1159 2969 
z
" transform="scale(0.015625)"/>
      </defs>
      <use xlink:href="#DejaVuSans-49" transform="translate(0 0.684375)"/>
      <use xlink:href="#DejaVuSans-6e" transform="translate(29.492188 0.684375)"/>
      <use xlink:href="#DejaVuSans-74" transform="translate(92.871094 0.684375)"/>
      <use xlink:href="#DejaVuSans-65" transform="translate(132.080078 0.684375)"/>
      <use xlink:href="#DejaVuSans-6e" transform="translate(193.603516 0.684375)"/>
      <use xlink:href="#DejaVuSans-73" transform="translate(256.982422 0.684375)"/>
      <use xlink:href="#DejaVuSans-69" transform="translate(309.082031 0.684375)"/>
      <use xlink:href="#DejaVuSans-74" transform="translate(336.865234 0.684375)"/>
      <use xlink:href="#DejaVuSans-79" transform="translate(376.074219 0.684375)"/>
      <use xlink:href="#DejaVuSans-20" transform="translate(435.253906 0.684375)"/>
      <use xlink:href="#DejaVuSans-28" transform="translate(467.041016 0.684375)"/>
      <use xlink:href="#DejaVuSans-70" transform="translate(506.054688 0.684375)"/>
      <use xlink:href="#DejaVuSans-68" transform="translate(569.53125 0.684375)"/>
      <use xlink:href="#DejaVuSans-20" transform="translate(632.910156 0.684375)"/>
      <use xlink:href="#DejaVuSans-63" transform="translate(664.697266 0.684375)"/>
      <use xlink:href="#DejaVuSans-6d" transform="translate(719.677734 0.684375)"/>
      <use xlink:href="#DejaVuSans-35" transform="translate(818.046875 38.965625) scale(0.7)"/>
      <use xlink:href="#DejaVuSans-20" transform="translate(865.317383 0.684375)"/>
      <use xlink:href="#DejaVuSans-73" transform="translate(897.104492 0.684375)"/>
      <use xlink:href="#DejaVuSans-2212" transform="translate(950.161133 38.965625) scale(0.7)"/>
      <use xlink:href="#DejaVuSans-31" transform="translate(1008.813477 38.965625) scale(0.7)"/>
      <use xlink:href="#DejaVuSans-20" transform="translate(1056.083984 0.684375)"/>
      <use xlink:href="#DejaVuSans-62" transform="translate(1087.871094 0.684375)"/>
      <use xlink:href="#DejaVuSans-69" transform="translate(1151.347656 0.684375)"/>
      <use xlink:href="#DejaVuSans-6e" transform="translate(1179.130859 0.684375)"/>
      <use xlink:href="#DejaVuSans-2212" transform="translate(1243.466797 38.965625) scale(0.7)"/>
      <use xlink:href="#DejaVuSans-31" transform="translate(1302.119141 38.965625) scale(0.7)"/>
      <use xlink:href="#DejaVuSans-29" transform="translate(1349.389648 0.684375)"/>
     </g>
    </g>
   </g>
   <g id="line2d_36">
    <path d="M 73.832727 346.6 
L 73.832727 294.462684 
L 113.440582 294.573134 
L 113.440582 294.583548 
L 116.687127 294.547001 
L 116.687127 280.926159 
L 117.336436 280.926159 
L 117.336436 294.530181 
L 121.232291 294.483899 
L 121.232291 294.198673 
L 121.8816 294.198673 
L 121.8816 293.912123 
L 122.530909 293.912123 
L 122.530909 293.627939 
L 123.180218 293.627939 
L 123.180218 293.346072 
L 124.478836 293.268885 
L 124.478836 293.551616 
L 125.128145 293.551616 
L 125.128145 293.843609 
L 125.777455 293.843609 
L 125.777455 294.138093 
L 126.426764 294.138093 
L 126.426764 294.43513 
L 127.076073 294.43513 
L 127.076073 294.627571 
L 130.971927 294.633388 
L 130.971927 207.90659 
L 131.621236 207.90659 
L 131.621236 294.63911 
L 132.270545 294.63911 
L 132.270545 253.802101 
L 132.919855 253.802101 
L 132.919855 175.787212 
L 133.569164 175.787212 
L 133.569164 294.647277 
L 145.906036 294.545861 
L 145.906036 294.504487 
L 148.503273 294.584247 
L 148.503273 294.629905 
L 155.645673 294.624156 
L 155.645673 275.38167 
L 156.294982 275.38167 
L 156.294982 294.588719 
L 159.541527 294.694984 
L 159.541527 294.703365 
L 167.333236 294.606868 
L 167.333236 294.517712 
L 168.631855 294.428791 
L 168.631855 294.3401 
L 170.579782 294.400864 
L 170.579782 294.489068 
L 171.8784 294.577502 
L 171.8784 294.666167 
L 175.774255 294.561839 
L 175.774255 294.439156 
L 176.423564 294.439156 
L 176.423564 294.167734 
L 177.072873 294.167734 
L 177.072873 293.895651 
L 177.722182 293.895651 
L 177.722182 224.290874 
L 178.371491 224.290874 
L 178.371491 293.357815 
L 179.670109 293.28301 
L 179.670109 293.546321 
L 180.319418 293.546321 
L 180.319418 293.818062 
L 180.968727 293.818062 
L 180.968727 294.091953 
L 181.618036 294.091953 
L 181.618036 294.368032 
L 182.267345 294.368032 
L 182.267345 294.539832 
L 183.565964 294.525168 
L 183.565964 252.662047 
L 184.215273 252.662047 
L 184.215273 294.488891 
L 184.864582 294.488891 
L 184.864582 282.17909 
L 185.513891 282.17909 
L 185.513891 294.482302 
L 186.812509 294.545963 
L 186.812509 294.610716 
L 188.111127 294.675594 
L 188.111127 270.133545 
L 188.760436 270.133545 
L 188.760436 294.771294 
L 191.357673 294.683944 
L 191.357673 294.654547 
L 194.604218 294.738546 
L 194.604218 294.769422 
L 196.552145 294.763258 
L 196.552145 198.608549 
L 197.201455 198.608549 
L 197.201455 294.724031 
L 199.798691 294.700806 
L 199.798691 214.296745 
L 200.448 214.296745 
L 200.448 294.714447 
L 201.746618 294.721269 
L 201.746618 294.235758 
L 202.395927 294.235758 
L 202.395927 292.919316 
L 203.045236 292.919316 
L 203.045236 272.199542 
L 203.694545 272.199542 
L 203.694545 290.398266 
L 204.343855 290.398266 
L 204.343855 289.203034 
L 204.993164 289.203034 
L 204.993164 288.882235 
L 205.642473 288.882235 
L 205.642473 290.066765 
L 206.291782 290.066765 
L 206.291782 291.322652 
L 206.941091 291.322652 
L 206.941091 292.625535 
L 207.5904 292.625535 
L 207.5904 293.979122 
L 208.239709 293.979122 
L 208.239709 294.870747 
L 211.486255 294.832238 
L 211.486255 294.685079 
L 212.135564 294.685079 
L 212.135564 294.307124 
L 212.784873 294.307124 
L 212.784873 293.929053 
L 213.434182 293.929053 
L 213.434182 293.555064 
L 214.083491 293.555064 
L 214.083491 293.185061 
L 214.7328 293.185061 
L 214.7328 292.934289 
L 216.031418 292.965211 
L 216.031418 265.915456 
L 216.680727 265.915456 
L 216.680727 278.614502 
L 217.330036 278.614502 
L 217.330036 293.096055 
L 217.979345 293.096055 
L 217.979345 293.22561 
L 218.628655 293.22561 
L 218.628655 293.506723 
L 219.277964 293.506723 
L 219.277964 271.60396 
L 219.927273 271.60396 
L 219.927273 294.08151 
L 220.576582 294.08151 
L 220.576582 294.372522 
L 221.225891 294.372522 
L 221.225891 264.10061 
L 221.8752 264.10061 
L 221.8752 294.405456 
L 222.524509 294.405456 
L 222.524509 277.042256 
L 223.173818 277.042256 
L 223.173818 294.162087 
L 223.823127 294.162087 
L 223.823127 294.041045 
L 224.472436 294.041045 
L 224.472436 293.592962 
L 225.121745 293.592962 
L 225.121745 280.40211 
L 225.771055 280.40211 
L 225.771055 291.604068 
L 226.420364 291.604068 
L 226.420364 290.645756 
L 227.069673 290.645756 
L 227.069673 289.713108 
L 227.718982 289.713108 
L 227.718982 289.319135 
L 228.368291 289.319135 
L 228.368291 267.478855 
L 229.0176 267.478855 
L 229.0176 290.388082 
L 229.666909 290.388082 
L 229.666909 290.94398 
L 230.316218 290.94398 
L 230.316218 291.508895 
L 230.965527 291.508895 
L 230.965527 275.833953 
L 231.614836 275.833953 
L 231.614836 289.831762 
L 232.264145 289.831762 
L 232.264145 274.617203 
L 232.913455 274.617203 
L 232.913455 287.006636 
L 233.562764 287.006636 
L 233.562764 285.677621 
L 234.212073 285.677621 
L 234.212073 264.130268 
L 234.861382 264.130268 
L 234.861382 279.609547 
L 235.510691 279.609547 
L 235.510691 268.337343 
L 236.16 268.337343 
L 236.16 277.463565 
L 236.809309 277.463565 
L 236.809309 280.114207 
L 237.458618 280.114207 
L 237.458618 278.285808 
L 238.107927 278.285808 
L 238.107927 275.236911 
L 238.757236 275.236911 
L 238.757236 269.532168 
L 239.406545 269.532168 
L 239.406545 269.846386 
L 240.055855 269.846386 
L 240.055855 267.446213 
L 240.705164 267.446213 
L 240.705164 266.663358 
L 241.354473 266.663358 
L 241.354473 268.541748 
L 242.003782 268.541748 
L 242.003782 77.275885 
L 242.653091 77.275885 
L 242.653091 272.745808 
L 243.3024 272.745808 
L 243.3024 275.054777 
L 243.951709 275.054777 
L 243.951709 277.522779 
L 244.601018 277.522779 
L 244.601018 279.901417 
L 245.250327 279.901417 
L 245.250327 282.271397 
L 245.899636 282.271397 
L 245.899636 284.814447 
L 246.548945 284.814447 
L 246.548945 260.642238 
L 247.198255 260.642238 
L 247.198255 289.868726 
L 247.847564 289.868726 
L 247.847564 290.90454 
L 248.496873 290.90454 
L 248.496873 291.927605 
L 249.146182 291.927605 
L 249.146182 261.737509 
L 249.795491 261.737509 
L 249.795491 294.068629 
L 250.4448 294.068629 
L 250.4448 294.706308 
L 251.094109 294.706308 
L 251.094109 294.506184 
L 251.743418 294.506184 
L 251.743418 294.291718 
L 252.392727 294.291718 
L 252.392727 294.078576 
L 253.042036 294.078576 
L 253.042036 268.643931 
L 253.691345 268.643931 
L 253.691345 293.821055 
L 254.340655 293.821055 
L 254.340655 294.065867 
L 254.989964 294.065867 
L 254.989964 294.317855 
L 255.639273 294.317855 
L 255.639273 294.571696 
L 256.288582 294.571696 
L 256.288582 294.827428 
L 256.937891 294.827428 
L 256.937891 294.977039 
L 258.885818 294.895946 
L 258.885818 294.853801 
L 264.080291 294.889581 
L 264.080291 294.620466 
L 264.7296 294.620466 
L 264.7296 294.349891 
L 265.378909 294.349891 
L 265.378909 294.081419 
L 266.028218 294.081419 
L 266.028218 293.815011 
L 267.326836 293.745291 
L 267.326836 294.017061 
L 267.976145 294.017061 
L 267.976145 294.29726 
L 268.625455 294.29726 
L 268.625455 262.708905 
L 269.274764 262.708905 
L 269.274764 294.864576 
L 270.573382 294.915374 
L 270.573382 294.554434 
L 271.222691 294.554434 
L 271.222691 294.189699 
L 271.872 294.189699 
L 271.872 293.828768 
L 272.521309 293.828768 
L 272.521309 293.471552 
L 273.170618 293.471552 
L 273.170618 293.352495 
L 273.819927 293.352495 
L 273.819927 261.050358 
L 274.469236 261.050358 
L 274.469236 293.952918 
L 275.118545 293.952918 
L 275.118545 294.260997 
L 275.767855 294.260997 
L 275.767855 294.571843 
L 276.417164 294.571843 
L 276.417164 294.742549 
L 277.715782 294.663882 
L 277.715782 294.580805 
L 279.0144 294.497928 
L 279.0144 294.41525 
L 279.663709 294.41525 
L 279.663709 276.756224 
L 280.313018 276.756224 
L 280.313018 294.371211 
L 283.559564 294.455782 
L 283.559564 294.499346 
L 285.507491 294.587213 
L 285.507491 294.631231 
L 286.806109 294.567272 
L 286.806109 294.316083 
L 287.455418 294.316083 
L 287.455418 294.063327 
L 288.104727 294.063327 
L 288.104727 293.812402 
L 288.754036 293.812402 
L 288.754036 293.563277 
L 289.403345 293.563277 
L 289.403345 293.361997 
L 291.351273 293.265193 
L 291.351273 293.22233 
L 293.2992 293.143385 
L 293.2992 210.438499 
L 293.948509 210.438499 
L 293.948509 293.224447 
L 294.597818 293.224447 
L 294.597818 230.361282 
L 295.247127 230.361282 
L 295.247127 293.323526 
L 296.545745 293.378656 
L 296.545745 293.443503 
L 297.844364 293.508651 
L 297.844364 260.613351 
L 298.493673 260.613351 
L 298.493673 274.099167 
L 299.142982 274.099167 
L 299.142982 293.56779 
L 299.792291 293.56779 
L 299.792291 293.223527 
L 300.4416 293.223527 
L 300.4416 231.170521 
L 301.090909 231.170521 
L 301.090909 277.652434 
L 301.740218 277.652434 
L 301.740218 292.187484 
L 302.389527 292.187484 
L 302.389527 291.812011 
L 303.038836 291.812011 
L 303.038836 291.31553 
L 303.688145 291.31553 
L 303.688145 275.380094 
L 304.337455 275.380094 
L 304.337455 290.352347 
L 304.986764 290.352347 
L 304.986764 257.807968 
L 305.636073 257.807968 
L 305.636073 266.893164 
L 306.285382 266.893164 
L 306.285382 285.673851 
L 306.934691 285.673851 
L 306.934691 282.980485 
L 307.584 282.980485 
L 307.584 241.816735 
L 308.233309 241.816735 
L 308.233309 266.422392 
L 308.882618 266.422392 
L 308.882618 244.054984 
L 309.531927 244.054984 
L 309.531927 260.875203 
L 310.181236 260.875203 
L 310.181236 261.952241 
L 310.830545 261.952241 
L 310.830545 53.568 
L 311.479855 53.568 
L 311.479855 235.116872 
L 312.129164 235.116872 
L 312.129164 262.887643 
L 312.778473 262.887643 
L 312.778473 267.448771 
L 313.427782 267.448771 
L 313.427782 252.565704 
L 314.077091 252.565704 
L 314.077091 275.951623 
L 314.7264 275.951623 
L 314.7264 286.928988 
L 315.375709 286.928988 
L 315.375709 293.379584 
L 316.025018 293.379584 
L 316.025018 277.325367 
L 316.674327 277.325367 
L 316.674327 294.161889 
L 317.323636 294.161889 
L 317.323636 294.505224 
L 317.972945 294.505224 
L 317.972945 294.872556 
L 318.622255 294.872556 
L 318.622255 295.138932 
L 321.8688 295.243761 
L 321.8688 273.360851 
L 322.518109 273.360851 
L 322.518109 295.049415 
L 323.167418 295.049415 
L 323.167418 294.89401 
L 323.816727 294.89401 
L 323.816727 254.258794 
L 324.466036 254.258794 
L 324.466036 294.585295 
L 325.115345 294.585295 
L 325.115345 277.799189 
L 325.764655 277.799189 
L 325.764655 294.672136 
L 326.413964 294.672136 
L 326.413964 294.811371 
L 327.063273 294.811371 
L 327.063273 294.951173 
L 327.712582 294.951173 
L 327.712582 295.091549 
L 329.0112 295.188503 
L 329.0112 295.204971 
L 330.309818 295.219713 
L 330.309818 264.815885 
L 330.959127 264.815885 
L 330.959127 278.607394 
L 331.608436 278.607394 
L 331.608436 295.262118 
L 364.7232 295.373153 
L 364.7232 295.376899 
L 398.487273 295.488 
L 398.487273 295.488 
" clip-path="url(#p2aa2879686)" style="fill: none; stroke: #1f77b4; stroke-width: 1.5; stroke-linecap: square"/>
   </g>
   <g id="line2d_37">
    <path d="M 73.832727 346.6 
L 73.832727 294.46257 
L 116.687127 294.492195 
L 116.687127 280.88527 
L 117.336436 280.88527 
L 117.336436 294.465766 
L 121.232291 294.38826 
L 121.232291 294.096106 
L 121.8816 294.096106 
L 121.8816 293.802179 
L 122.530909 293.802179 
L 122.530909 293.510131 
L 123.180218 293.510131 
L 123.180218 293.219884 
L 124.478836 293.13295 
L 124.478836 293.403761 
L 125.128145 293.403761 
L 125.128145 293.682838 
L 125.777455 293.682838 
L 125.777455 293.963345 
L 126.426764 293.963345 
L 126.426764 294.245259 
L 127.076073 294.245259 
L 127.076073 294.421968 
L 130.971927 294.337389 
L 130.971927 207.879751 
L 131.621236 207.879751 
L 131.621236 294.297569 
L 132.270545 294.297569 
L 132.270545 253.691309 
L 132.919855 253.691309 
L 132.919855 175.773777 
L 133.569164 175.773777 
L 133.569164 294.225572 
L 136.1664 294.133066 
L 136.1664 294.098017 
L 138.114327 294.023436 
L 138.114327 293.983017 
L 140.062255 293.894124 
L 140.062255 293.845027 
L 142.010182 293.736272 
L 142.010182 293.676824 
L 143.3088 293.613783 
L 143.3088 293.531624 
L 143.958109 293.531624 
L 143.958109 293.418657 
L 144.607418 293.418657 
L 144.607418 293.301001 
L 145.256727 293.301001 
L 145.256727 293.179642 
L 145.906036 293.179642 
L 145.906036 293.054064 
L 147.204655 292.953752 
L 147.204655 292.900979 
L 148.503273 292.843979 
L 148.503273 292.781534 
L 149.801891 292.71342 
L 149.801891 292.624689 
L 150.4512 292.624689 
L 150.4512 292.504011 
L 151.100509 292.504011 
L 151.100509 292.376218 
L 151.749818 292.376218 
L 151.749818 292.242291 
L 152.399127 292.242291 
L 152.399127 292.102063 
L 153.048436 292.102063 
L 153.048436 291.945295 
L 153.697745 291.945295 
L 153.697745 291.764504 
L 154.347055 291.764504 
L 154.347055 291.576469 
L 154.996364 291.576469 
L 154.996364 291.38131 
L 155.645673 291.38131 
L 155.645673 273.367523 
L 156.294982 273.367523 
L 156.294982 290.986279 
L 156.944291 290.986279 
L 156.944291 290.816376 
L 157.5936 290.816376 
L 157.5936 290.6384 
L 158.242909 290.6384 
L 158.242909 290.450872 
L 158.892218 290.450872 
L 158.892218 290.255416 
L 159.541527 290.255416 
L 159.541527 290.034779 
L 160.190836 290.034779 
L 160.190836 289.776069 
L 160.840145 289.776069 
L 160.840145 289.507918 
L 161.489455 289.507918 
L 161.489455 289.230788 
L 162.138764 289.230788 
L 162.138764 288.94454 
L 162.788073 288.94454 
L 162.788073 288.665395 
L 163.437382 288.665395 
L 163.437382 288.40511 
L 164.086691 288.40511 
L 164.086691 288.135128 
L 164.736 288.135128 
L 164.736 287.853622 
L 165.385309 287.853622 
L 165.385309 287.562076 
L 166.034618 287.562076 
L 166.034618 287.22633 
L 166.683927 287.22633 
L 166.683927 286.821218 
L 167.333236 286.821218 
L 167.333236 286.406262 
L 167.982545 286.406262 
L 167.982545 285.982572 
L 168.631855 285.982572 
L 168.631855 285.550154 
L 169.281164 285.550154 
L 169.281164 285.15773 
L 169.930473 285.15773 
L 169.930473 284.83995 
L 170.579782 284.83995 
L 170.579782 284.512116 
L 171.229091 284.512116 
L 171.229091 284.172317 
L 171.8784 284.172317 
L 171.8784 283.81915 
L 172.527709 283.81915 
L 172.527709 283.42402 
L 173.177018 283.42402 
L 173.177018 282.960812 
L 173.826327 282.960812 
L 173.826327 282.48725 
L 174.475636 282.48725 
L 174.475636 282.004637 
L 175.124945 282.004637 
L 175.124945 281.513131 
L 175.774255 281.513131 
L 175.774255 280.955 
L 176.423564 280.955 
L 176.423564 280.289957 
L 177.072873 280.289957 
L 177.072873 279.620029 
L 177.722182 279.620029 
L 177.722182 221.877234 
L 178.371491 221.877234 
L 178.371491 278.270089 
L 179.0208 278.270089 
L 179.0208 277.713472 
L 179.670109 277.713472 
L 179.670109 277.364156 
L 180.319418 277.364156 
L 180.319418 277.006783 
L 180.968727 277.006783 
L 180.968727 276.63752 
L 181.618036 276.63752 
L 181.618036 276.256599 
L 182.267345 276.256599 
L 182.267345 275.802083 
L 182.916655 275.802083 
L 182.916655 275.23039 
L 183.565964 275.23039 
L 183.565964 245.414137 
L 184.215273 245.414137 
L 184.215273 274.065307 
L 184.864582 274.065307 
L 184.864582 266.213413 
L 185.513891 266.213413 
L 185.513891 272.891539 
L 186.1632 272.891539 
L 186.1632 272.334139 
L 186.812509 272.334139 
L 186.812509 271.771531 
L 187.461818 271.771531 
L 187.461818 271.203564 
L 188.111127 271.203564 
L 188.111127 256.183502 
L 188.760436 256.183502 
L 188.760436 270.036143 
L 189.409745 270.036143 
L 189.409745 269.409413 
L 190.059055 269.409413 
L 190.059055 268.779942 
L 190.708364 268.779942 
L 190.708364 268.148575 
L 191.357673 268.148575 
L 191.357673 267.515668 
L 192.006982 267.515668 
L 192.006982 266.889141 
L 192.656291 266.889141 
L 192.656291 266.278953 
L 193.3056 266.278953 
L 193.3056 265.669003 
L 193.954909 265.669003 
L 193.954909 265.057993 
L 194.604218 265.057993 
L 194.604218 264.446288 
L 195.253527 264.446288 
L 195.253527 263.826823 
L 195.902836 263.826823 
L 195.902836 263.19475 
L 196.552145 263.19475 
L 196.552145 195.40722 
L 197.201455 195.40722 
L 197.201455 261.933687 
L 197.850764 261.933687 
L 197.850764 261.305585 
L 198.500073 261.305585 
L 198.500073 260.68269 
L 199.149382 260.68269 
L 199.149382 260.065516 
L 199.798691 260.065516 
L 199.798691 208.69925 
L 200.448 208.69925 
L 200.448 258.844539 
L 201.097309 258.844539 
L 201.097309 258.238267 
L 201.746618 258.238267 
L 201.746618 257.464522 
L 202.395927 257.464522 
L 202.395927 256.40919 
L 203.045236 256.40919 
L 203.045236 247.210998 
L 203.694545 247.210998 
L 203.694545 254.361701 
L 204.343855 254.361701 
L 204.343855 253.373211 
L 204.993164 253.373211 
L 204.993164 252.705078 
L 205.642473 252.705078 
L 205.642473 252.562778 
L 206.291782 252.562778 
L 206.291782 252.427011 
L 206.941091 252.427011 
L 206.941091 252.288889 
L 207.5904 252.288889 
L 207.5904 252.147577 
L 208.239709 252.147577 
L 208.239709 251.853598 
L 208.889018 251.853598 
L 208.889018 251.300257 
L 209.538327 251.300257 
L 209.538327 250.748188 
L 210.187636 250.748188 
L 210.187636 250.202401 
L 210.836945 250.202401 
L 210.836945 249.663051 
L 211.486255 249.663051 
L 211.486255 249.094285 
L 212.135564 249.094285 
L 212.135564 248.471116 
L 212.784873 248.471116 
L 212.784873 247.854679 
L 213.434182 247.854679 
L 213.434182 247.250688 
L 214.083491 247.250688 
L 214.083491 246.656667 
L 214.7328 246.656667 
L 214.7328 246.102718 
L 215.382109 246.102718 
L 215.382109 245.629915 
L 216.031418 245.629915 
L 216.031418 236.07515 
L 216.680727 236.07515 
L 216.680727 240.504008 
L 217.330036 240.504008 
L 217.330036 244.262287 
L 217.979345 244.262287 
L 217.979345 243.841364 
L 218.628655 243.841364 
L 218.628655 243.463095 
L 219.277964 243.463095 
L 219.277964 236.507799 
L 219.927273 236.507799 
L 219.927273 242.72372 
L 220.576582 242.72372 
L 220.576582 242.364288 
L 221.225891 242.364288 
L 221.225891 232.605398 
L 221.8752 232.605398 
L 221.8752 241.542836 
L 222.524509 241.542836 
L 222.524509 236.570766 
L 223.173818 236.570766 
L 223.173818 240.692543 
L 223.823127 240.692543 
L 223.823127 240.279597 
L 224.472436 240.279597 
L 224.472436 239.805332 
L 225.121745 239.805332 
L 225.121745 236.196974 
L 225.771055 236.196974 
L 225.771055 238.646695 
L 226.420364 238.646695 
L 226.420364 238.084755 
L 227.069673 238.084755 
L 227.069673 237.536947 
L 227.718982 237.536947 
L 227.718982 237.117246 
L 228.368291 237.117246 
L 228.368291 230.639874 
L 229.0176 230.639874 
L 229.0176 236.708266 
L 229.666909 236.708266 
L 229.666909 236.513664 
L 230.316218 236.513664 
L 230.316218 236.3244 
L 230.965527 236.3244 
L 230.965527 232.213459 
L 231.614836 232.213459 
L 231.614836 235.386127 
L 232.264145 235.386127 
L 232.264145 231.343718 
L 232.913455 231.343718 
L 232.913455 234.220676 
L 233.562764 234.220676 
L 233.562764 233.658649 
L 234.212073 233.658649 
L 234.212073 227.31732 
L 234.861382 227.31732 
L 234.861382 231.595953 
L 235.510691 231.595953 
L 235.510691 228.289401 
L 236.16 228.289401 
L 236.16 230.611989 
L 236.809309 230.611989 
L 236.809309 231.134808 
L 237.458618 231.134808 
L 237.458618 230.463704 
L 238.107927 230.463704 
L 238.107927 229.465458 
L 238.757236 229.465458 
L 238.757236 227.569438 
L 240.055855 227.549858 
L 240.055855 226.635102 
L 240.705164 226.635102 
L 240.705164 226.212007 
L 241.354473 226.212007 
L 241.354473 226.613447 
L 242.003782 226.613447 
L 242.003782 227.037641 
L 242.653091 227.037641 
L 242.653091 227.469768 
L 243.3024 227.469768 
L 243.3024 227.909928 
L 243.951709 227.909928 
L 243.951709 228.357016 
L 244.601018 228.357016 
L 244.601018 228.748502 
L 245.250327 228.748502 
L 245.250327 229.106937 
L 245.899636 229.106937 
L 245.899636 229.471183 
L 246.548945 229.471183 
L 246.548945 222.842234 
L 247.198255 222.842234 
L 247.198255 230.097769 
L 249.146182 230.116455 
L 249.146182 222.655918 
L 249.795491 222.655918 
L 249.795491 230.132816 
L 251.094109 230.066794 
L 251.094109 229.869763 
L 251.743418 229.869763 
L 251.743418 229.67167 
L 252.392727 229.67167 
L 252.392727 229.474732 
L 253.042036 229.474732 
L 253.042036 223.913792 
L 253.691345 223.913792 
L 253.691345 229.110116 
L 254.340655 229.110116 
L 254.340655 228.98592 
L 254.989964 228.98592 
L 254.989964 228.861597 
L 255.639273 228.861597 
L 255.639273 228.73607 
L 256.288582 228.73607 
L 256.288582 228.610823 
L 256.937891 228.610823 
L 256.937891 228.468572 
L 257.5872 228.468572 
L 257.5872 228.297382 
L 258.236509 228.297382 
L 258.236509 228.124694 
L 258.885818 228.124694 
L 258.885818 227.950852 
L 259.535127 227.950852 
L 259.535127 227.775692 
L 260.184436 227.775692 
L 260.184436 227.604075 
L 260.833745 227.604075 
L 260.833745 227.438254 
L 261.483055 227.438254 
L 261.483055 227.270171 
L 262.132364 227.270171 
L 262.132364 227.100118 
L 262.781673 227.100118 
L 262.781673 226.927492 
L 263.430982 226.927492 
L 263.430982 226.73561 
L 264.080291 226.73561 
L 264.080291 226.515354 
L 264.7296 226.515354 
L 264.7296 226.292794 
L 265.378909 226.292794 
L 265.378909 226.068393 
L 266.028218 226.068393 
L 266.028218 225.84212 
L 266.677527 225.84212 
L 266.677527 225.641657 
L 267.326836 225.641657 
L 267.326836 225.488193 
L 267.976145 225.488193 
L 267.976145 225.331583 
L 268.625455 225.331583 
L 268.625455 218.698153 
L 269.274764 218.698153 
L 269.274764 225.010233 
L 269.924073 225.010233 
L 269.924073 224.814044 
L 270.573382 224.814044 
L 270.573382 224.560281 
L 271.222691 224.560281 
L 271.222691 224.302512 
L 271.872 224.302512 
L 271.872 224.045257 
L 272.521309 224.045257 
L 272.521309 223.786767 
L 273.170618 223.786767 
L 273.170618 223.55891 
L 273.819927 223.55891 
L 273.819927 216.852074 
L 274.469236 216.852074 
L 274.469236 223.211507 
L 275.118545 223.211507 
L 275.118545 223.034891 
L 275.767855 223.034891 
L 275.767855 222.856648 
L 276.417164 222.856648 
L 276.417164 222.658921 
L 277.066473 222.658921 
L 277.066473 222.428744 
L 277.715782 222.428744 
L 277.715782 222.197513 
L 278.365091 222.197513 
L 278.365091 221.965871 
L 279.0144 221.965871 
L 279.0144 221.732291 
L 279.663709 221.732291 
L 279.663709 218.781412 
L 280.313018 218.781412 
L 280.313018 221.284839 
L 280.962327 221.284839 
L 280.962327 221.067926 
L 281.611636 221.067926 
L 281.611636 220.850556 
L 282.260945 220.850556 
L 282.260945 220.634149 
L 282.910255 220.634149 
L 282.910255 220.420026 
L 283.559564 220.420026 
L 283.559564 220.209218 
L 284.208873 220.209218 
L 284.208873 220.000136 
L 284.858182 220.000136 
L 284.858182 219.793008 
L 285.507491 219.793008 
L 285.507491 219.588098 
L 286.1568 219.588098 
L 286.1568 219.373201 
L 286.806109 219.373201 
L 286.806109 219.137755 
L 287.455418 219.137755 
L 287.455418 218.907693 
L 288.104727 218.907693 
L 288.104727 218.681309 
L 288.754036 218.681309 
L 288.754036 218.458389 
L 289.403345 218.458389 
L 289.403345 218.245001 
L 290.052655 218.245001 
L 290.052655 218.052896 
L 290.701964 218.052896 
L 290.701964 217.866474 
L 291.351273 217.866474 
L 291.351273 217.684724 
L 292.000582 217.684724 
L 292.000582 217.507895 
L 292.649891 217.507895 
L 292.649891 217.336988 
L 293.2992 217.336988 
L 293.2992 191.314448 
L 293.948509 191.314448 
L 293.948509 217.028886 
L 294.597818 217.028886 
L 294.597818 201.217447 
L 295.247127 201.217447 
L 295.247127 216.745416 
L 295.896436 216.745416 
L 295.896436 216.613927 
L 296.545745 216.613927 
L 296.545745 216.489997 
L 297.195055 216.489997 
L 297.195055 216.372804 
L 297.844364 216.372804 
L 297.844364 210.751285 
L 298.493673 210.751285 
L 298.493673 213.431776 
L 299.142982 213.431776 
L 299.142982 216.048892 
L 299.792291 216.048892 
L 299.792291 215.916447 
L 300.4416 215.916447 
L 300.4416 200.886446 
L 301.090909 200.886446 
L 301.090909 213.686119 
L 301.740218 213.686119 
L 301.740218 215.565898 
L 303.038836 215.461059 
L 303.038836 215.350742 
L 303.688145 215.350742 
L 303.688145 213.09685 
L 304.337455 213.09685 
L 304.337455 215.154904 
L 304.986764 215.154904 
L 304.986764 209.377794 
L 305.636073 209.377794 
L 305.636073 211.451914 
L 306.285382 211.451914 
L 306.285382 214.527989 
L 306.934691 214.527989 
L 306.934691 214.168527 
L 307.584 214.168527 
L 307.584 204.675447 
L 308.233309 204.675447 
L 308.233309 211.373327 
L 308.882618 211.373327 
L 308.882618 205.446778 
L 309.531927 205.446778 
L 309.531927 210.214299 
L 310.181236 210.214299 
L 310.181236 210.505373 
L 310.830545 210.505373 
L 310.830545 211.377534 
L 311.479855 211.377534 
L 311.479855 202.398994 
L 312.129164 202.398994 
L 312.129164 210.897732 
L 312.778473 210.897732 
L 312.778473 211.954944 
L 313.427782 211.954944 
L 313.427782 208.449499 
L 314.077091 208.449499 
L 314.077091 213.64575 
L 314.7264 213.64575 
L 314.7264 215.456485 
L 315.375709 215.456485 
L 315.375709 216.332059 
L 316.025018 216.332059 
L 316.025018 214.32726 
L 316.674327 214.32726 
L 316.674327 216.731965 
L 317.323636 216.731965 
L 317.323636 216.942437 
L 317.972945 216.942437 
L 317.972945 217.164948 
L 318.622255 217.164948 
L 318.622255 217.384197 
L 319.271564 217.384197 
L 319.271564 217.588102 
L 319.920873 217.588102 
L 319.920873 217.802765 
L 320.570182 217.802765 
L 320.570182 218.028743 
L 321.219491 218.028743 
L 321.219491 218.266066 
L 321.8688 218.266066 
L 321.8688 215.297482 
L 322.518109 215.297482 
L 322.518109 218.747812 
L 323.167418 218.747812 
L 323.167418 218.998776 
L 323.816727 218.998776 
L 323.816727 211.43748 
L 324.466036 211.43748 
L 324.466036 219.53408 
L 325.115345 219.53408 
L 325.115345 217.400211 
L 325.764655 217.400211 
L 325.764655 220.161117 
L 326.413964 220.161117 
L 326.413964 220.503648 
L 327.063273 220.503648 
L 327.063273 220.857233 
L 327.712582 220.857233 
L 327.712582 221.22256 
L 328.361891 221.22256 
L 328.361891 221.594379 
L 329.0112 221.594379 
L 329.0112 221.967973 
L 329.660509 221.967973 
L 329.660509 222.352688 
L 330.309818 222.352688 
L 330.309818 217.153906 
L 330.959127 217.153906 
L 330.959127 220.557914 
L 331.608436 220.557914 
L 331.608436 223.574762 
L 332.257745 223.574762 
L 332.257745 224.003984 
L 332.907055 224.003984 
L 332.907055 224.444399 
L 333.556364 224.444399 
L 333.556364 224.896941 
L 334.205673 224.896941 
L 334.205673 225.360953 
L 334.854982 225.360953 
L 334.854982 225.834442 
L 335.504291 225.834442 
L 335.504291 226.318363 
L 336.1536 226.318363 
L 336.1536 226.813084 
L 336.802909 226.813084 
L 336.802909 227.31863 
L 337.452218 227.31863 
L 337.452218 227.834924 
L 338.101527 227.834924 
L 338.101527 228.361801 
L 338.750836 228.361801 
L 338.750836 228.899104 
L 339.400145 228.899104 
L 339.400145 229.446877 
L 340.049455 229.446877 
L 340.049455 230.005022 
L 340.698764 230.005022 
L 340.698764 230.57343 
L 341.348073 230.57343 
L 341.348073 231.153344 
L 341.997382 231.153344 
L 341.997382 231.744911 
L 342.646691 231.744911 
L 342.646691 232.344569 
L 343.296 232.344569 
L 343.296 232.954001 
L 343.945309 232.954001 
L 343.945309 233.573103 
L 344.594618 233.573103 
L 344.594618 234.201503 
L 345.243927 234.201503 
L 345.243927 234.83886 
L 345.893236 234.83886 
L 345.893236 235.485404 
L 346.542545 235.485404 
L 346.542545 236.140975 
L 347.191855 236.140975 
L 347.191855 236.8054 
L 347.841164 236.8054 
L 347.841164 237.47849 
L 348.490473 237.47849 
L 348.490473 238.16005 
L 349.139782 238.16005 
L 349.139782 238.850798 
L 349.789091 238.850798 
L 349.789091 239.551282 
L 350.4384 239.551282 
L 350.4384 240.257075 
L 351.087709 240.257075 
L 351.087709 240.970488 
L 351.737018 240.970488 
L 351.737018 241.691276 
L 352.386327 241.691276 
L 352.386327 242.419226 
L 353.035636 242.419226 
L 353.035636 243.154087 
L 353.684945 243.154087 
L 353.684945 243.895602 
L 354.334255 243.895602 
L 354.334255 244.64348 
L 354.983564 244.64348 
L 354.983564 245.397423 
L 355.632873 245.397423 
L 355.632873 246.157192 
L 356.282182 246.157192 
L 356.282182 246.922479 
L 356.931491 246.922479 
L 356.931491 247.69359 
L 357.5808 247.69359 
L 357.5808 248.472012 
L 358.230109 248.472012 
L 358.230109 249.251588 
L 358.879418 249.251588 
L 358.879418 250.03537 
L 359.528727 250.03537 
L 359.528727 250.823008 
L 360.178036 250.823008 
L 360.178036 251.614142 
L 360.827345 251.614142 
L 360.827345 252.408482 
L 361.476655 252.408482 
L 361.476655 253.205714 
L 362.125964 253.205714 
L 362.125964 254.005355 
L 362.775273 254.005355 
L 362.775273 254.806996 
L 363.424582 254.806996 
L 363.424582 255.61019 
L 364.073891 255.61019 
L 364.073891 256.414839 
L 364.7232 256.414839 
L 364.7232 257.221069 
L 365.372509 257.221069 
L 365.372509 258.030978 
L 366.021818 258.030978 
L 366.021818 258.837045 
L 366.671127 258.837045 
L 366.671127 259.642546 
L 367.320436 259.642546 
L 367.320436 260.446766 
L 367.969745 260.446766 
L 367.969745 261.249132 
L 368.619055 261.249132 
L 368.619055 262.04952 
L 369.268364 262.04952 
L 369.268364 262.847456 
L 369.917673 262.847456 
L 369.917673 263.642458 
L 370.566982 263.642458 
L 370.566982 264.43418 
L 371.216291 264.43418 
L 371.216291 265.222261 
L 371.8656 265.222261 
L 371.8656 266.005976 
L 372.514909 266.005976 
L 372.514909 266.784833 
L 373.164218 266.784833 
L 373.164218 267.56205 
L 373.813527 267.56205 
L 373.813527 268.329071 
L 374.462836 268.329071 
L 374.462836 269.088668 
L 375.112145 269.088668 
L 375.112145 269.84138 
L 375.761455 269.84138 
L 375.761455 270.586749 
L 376.410764 270.586749 
L 376.410764 271.324311 
L 377.060073 271.324311 
L 377.060073 272.054295 
L 377.709382 272.054295 
L 377.709382 272.776827 
L 378.358691 272.776827 
L 378.358691 273.490299 
L 379.008 273.490299 
L 379.008 274.19426 
L 379.657309 274.19426 
L 379.657309 274.888297 
L 380.306618 274.888297 
L 380.306618 275.571918 
L 380.955927 275.571918 
L 380.955927 276.247474 
L 381.605236 276.247474 
L 381.605236 276.909199 
L 382.254545 276.909199 
L 382.254545 277.559131 
L 382.903855 277.559131 
L 382.903855 278.197293 
L 383.553164 278.197293 
L 383.553164 278.823157 
L 384.202473 278.823157 
L 384.202473 279.436259 
L 384.851782 279.436259 
L 384.851782 280.0367 
L 385.501091 280.0367 
L 385.501091 280.624245 
L 386.1504 280.624245 
L 386.1504 281.198676 
L 386.799709 281.198676 
L 386.799709 281.759859 
L 387.449018 281.759859 
L 387.449018 282.307673 
L 388.098327 282.307673 
L 388.098327 282.841877 
L 388.747636 282.841877 
L 388.747636 283.364358 
L 389.396945 283.364358 
L 389.396945 283.87135 
L 390.046255 283.87135 
L 390.046255 284.363859 
L 390.695564 284.363859 
L 390.695564 284.842269 
L 391.344873 284.842269 
L 391.344873 285.306737 
L 391.994182 285.306737 
L 391.994182 285.757275 
L 392.643491 285.757275 
L 392.643491 286.193922 
L 393.2928 286.193922 
L 393.2928 286.616877 
L 393.942109 286.616877 
L 393.942109 287.026336 
L 394.591418 287.026336 
L 394.591418 287.422165 
L 395.240727 287.422165 
L 395.240727 287.804488 
L 395.890036 287.804488 
L 395.890036 288.173451 
L 396.539345 288.173451 
L 396.539345 288.530206 
L 397.188655 288.530206 
L 397.188655 288.872716 
L 397.837964 288.872716 
L 397.837964 289.201904 
L 398.487273 289.201904 
L 398.487273 289.201904 
" clip-path="url(#p2aa2879686)" style="fill: none; stroke: #ff7f0e; stroke-width: 1.5; stroke-linecap: square"/>
   </g>
   <g id="line2d_38">
    <path d="M 73.832727 346.6 
L 73.832727 292.274439 
L 75.131345 292.194559 
L 75.131345 292.112555 
L 76.429964 292.02874 
L 76.429964 291.942748 
L 77.728582 291.854638 
L 77.728582 291.764761 
L 79.0272 291.672816 
L 79.0272 291.578813 
L 80.325818 291.48285 
L 80.325818 291.384874 
L 81.624436 291.284919 
L 81.624436 291.183209 
L 82.923055 291.079377 
L 82.923055 290.973876 
L 84.221673 290.8667 
L 84.221673 290.757726 
L 85.520291 290.647033 
L 85.520291 290.534607 
L 86.1696 290.534607 
L 86.1696 290.420397 
L 86.818909 290.420397 
L 86.818909 290.304664 
L 87.468218 290.304664 
L 87.468218 290.18744 
L 88.117527 290.18744 
L 88.117527 290.068198 
L 88.766836 290.068198 
L 88.766836 289.948053 
L 89.416145 289.948053 
L 89.416145 289.826511 
L 90.065455 289.826511 
L 90.065455 289.703646 
L 90.714764 289.703646 
L 90.714764 289.579564 
L 91.364073 289.579564 
L 91.364073 289.453509 
L 92.013382 289.453509 
L 92.013382 289.324767 
L 92.662691 289.324767 
L 92.662691 289.195179 
L 93.312 289.195179 
L 93.312 289.064458 
L 93.961309 289.064458 
L 93.961309 288.932642 
L 94.610618 288.932642 
L 94.610618 288.801952 
L 95.259927 288.801952 
L 95.259927 288.673173 
L 95.909236 288.673173 
L 95.909236 288.543773 
L 96.558545 288.543773 
L 96.558545 288.413809 
L 97.207855 288.413809 
L 97.207855 288.283253 
L 97.857164 288.283253 
L 97.857164 288.151446 
L 98.506473 288.151446 
L 98.506473 288.018114 
L 99.155782 288.018114 
L 99.155782 287.884152 
L 99.805091 287.884152 
L 99.805091 287.750176 
L 100.4544 287.750176 
L 100.4544 287.616361 
L 101.103709 287.616361 
L 101.103709 287.482393 
L 101.753018 287.482393 
L 101.753018 287.348321 
L 102.402327 287.348321 
L 102.402327 287.214465 
L 103.051636 287.214465 
L 103.051636 287.080746 
L 103.700945 287.080746 
L 103.700945 286.947476 
L 104.350255 286.947476 
L 104.350255 286.814675 
L 104.999564 286.814675 
L 104.999564 286.681763 
L 105.648873 286.681763 
L 105.648873 286.549946 
L 106.298182 286.549946 
L 106.298182 286.418878 
L 106.947491 286.418878 
L 106.947491 286.288589 
L 107.5968 286.288589 
L 107.5968 286.157333 
L 108.246109 286.157333 
L 108.246109 286.02379 
L 108.895418 286.02379 
L 108.895418 285.891101 
L 109.544727 285.891101 
L 109.544727 285.759746 
L 110.194036 285.759746 
L 110.194036 285.629478 
L 110.843345 285.629478 
L 110.843345 285.504549 
L 111.492655 285.504549 
L 111.492655 285.388919 
L 112.141964 285.388919 
L 112.141964 285.274746 
L 112.791273 285.274746 
L 112.791273 285.162006 
L 113.440582 285.162006 
L 113.440582 285.05074 
L 114.089891 285.05074 
L 114.089891 284.934559 
L 114.7392 284.934559 
L 114.7392 284.808887 
L 115.388509 284.808887 
L 115.388509 284.684876 
L 116.037818 284.684876 
L 116.037818 284.56245 
L 116.687127 284.56245 
L 116.687127 284.441895 
L 117.336436 284.441895 
L 117.336436 284.330155 
L 118.635055 284.232131 
L 118.635055 284.136183 
L 119.933673 284.042122 
L 119.933673 283.949823 
L 120.582982 283.949823 
L 120.582982 283.780436 
L 121.232291 283.780436 
L 121.232291 283.473986 
L 121.8816 283.473986 
L 121.8816 283.168972 
L 122.530909 283.168972 
L 122.530909 282.868524 
L 123.180218 282.868524 
L 123.180218 282.572329 
L 123.829527 282.572329 
L 123.829527 282.428735 
L 124.478836 282.428735 
L 124.478836 282.550111 
L 125.128145 282.550111 
L 125.128145 282.678689 
L 125.777455 282.678689 
L 125.777455 282.809407 
L 126.426764 282.809407 
L 126.426764 282.942382 
L 129.024 282.850138 
L 129.024 282.776187 
L 130.322618 282.703931 
L 130.322618 282.633922 
L 131.621236 282.566665 
L 131.621236 282.501076 
L 132.919855 282.436851 
L 132.919855 282.374068 
L 134.218473 282.312226 
L 134.218473 282.250909 
L 135.517091 282.190655 
L 135.517091 282.131297 
L 136.815709 282.072806 
L 136.815709 282.015631 
L 138.114327 281.959758 
L 138.114327 281.904364 
L 140.062255 281.794758 
L 140.062255 281.739825 
L 141.360873 281.684385 
L 141.360873 281.628615 
L 142.659491 281.572223 
L 142.659491 281.515385 
L 143.958109 281.446731 
L 143.958109 281.357999 
L 145.256727 281.267818 
L 145.256727 281.176404 
L 146.555345 281.083506 
L 146.555345 281.009929 
L 148.503273 280.931299 
L 148.503273 280.888484 
L 150.4512 280.783782 
L 150.4512 280.702977 
L 151.749818 280.617887 
L 151.749818 280.529296 
L 153.048436 280.436926 
L 153.048436 280.333362 
L 153.697745 280.333362 
L 153.697745 280.213232 
L 154.347055 280.213232 
L 154.347055 280.088152 
L 154.996364 280.088152 
L 154.996364 279.958254 
L 155.645673 279.958254 
L 155.645673 279.823753 
L 156.294982 279.823753 
L 156.294982 279.696273 
L 157.5936 279.585341 
L 157.5936 279.468797 
L 158.242909 279.468797 
L 158.242909 279.345379 
L 158.892218 279.345379 
L 158.892218 279.21621 
L 159.541527 279.21621 
L 159.541527 279.068766 
L 160.190836 279.068766 
L 160.190836 278.893137 
L 160.840145 278.893137 
L 160.840145 278.710065 
L 161.489455 278.710065 
L 161.489455 278.520546 
L 162.138764 278.520546 
L 162.138764 278.323377 
L 162.788073 278.323377 
L 162.788073 278.130817 
L 163.437382 278.130817 
L 163.437382 277.951775 
L 164.086691 277.951775 
L 164.086691 277.765044 
L 164.736 277.765044 
L 164.736 277.569216 
L 165.385309 277.569216 
L 165.385309 277.36531 
L 166.034618 277.36531 
L 166.034618 277.127562 
L 166.683927 277.127562 
L 166.683927 276.837002 
L 167.333236 276.837002 
L 167.333236 276.537848 
L 167.982545 276.537848 
L 167.982545 276.230707 
L 168.631855 276.230707 
L 168.631855 275.915592 
L 169.281164 275.915592 
L 169.281164 275.62956 
L 169.930473 275.62956 
L 169.930473 275.399357 
L 170.579782 275.399357 
L 170.579782 275.160759 
L 171.229091 275.160759 
L 171.229091 274.91208 
L 171.8784 274.91208 
L 171.8784 274.652197 
L 172.527709 274.652197 
L 172.527709 274.359305 
L 173.177018 274.359305 
L 173.177018 274.012478 
L 173.826327 274.012478 
L 173.826327 273.656107 
L 174.475636 273.656107 
L 174.475636 273.291334 
L 175.124945 273.291334 
L 175.124945 272.918074 
L 175.774255 272.918074 
L 175.774255 272.491187 
L 176.423564 272.491187 
L 176.423564 271.97847 
L 177.072873 271.97847 
L 177.072873 271.459316 
L 177.722182 271.459316 
L 177.722182 270.935489 
L 178.371491 270.935489 
L 178.371491 270.405953 
L 179.0208 270.405953 
L 179.0208 269.970279 
L 179.670109 269.970279 
L 179.670109 269.699244 
L 180.319418 269.699244 
L 180.319418 269.421188 
L 180.968727 269.421188 
L 180.968727 269.132888 
L 181.618036 269.132888 
L 181.618036 268.834477 
L 182.267345 268.834477 
L 182.267345 268.475874 
L 182.916655 268.475874 
L 182.916655 268.021046 
L 183.565964 268.021046 
L 183.565964 267.558231 
L 184.215273 267.558231 
L 184.215273 267.089364 
L 184.864582 267.089364 
L 184.864582 266.614069 
L 185.513891 266.614069 
L 185.513891 266.144254 
L 186.1632 266.144254 
L 186.1632 265.693804 
L 186.812509 265.693804 
L 186.812509 265.237841 
L 187.461818 265.237841 
L 187.461818 264.776157 
L 188.111127 264.776157 
L 188.111127 264.30901 
L 188.760436 264.30901 
L 188.760436 263.822599 
L 189.409745 263.822599 
L 189.409745 263.307871 
L 190.059055 263.307871 
L 190.059055 262.789302 
L 190.708364 262.789302 
L 190.708364 262.267585 
L 191.357673 262.267585 
L 191.357673 261.743102 
L 192.006982 261.743102 
L 192.006982 261.222564 
L 192.656291 261.222564 
L 192.656291 260.714583 
L 193.3056 260.714583 
L 193.3056 260.205575 
L 193.954909 260.205575 
L 193.954909 259.694309 
L 194.604218 259.694309 
L 194.604218 259.181194 
L 195.253527 259.181194 
L 195.253527 258.660253 
L 195.902836 258.660253 
L 195.902836 258.127046 
L 196.552145 258.127046 
L 196.552145 257.593241 
L 197.201455 257.593241 
L 197.201455 257.05938 
L 197.850764 257.05938 
L 197.850764 256.52574 
L 198.500073 256.52574 
L 198.500073 255.995418 
L 199.149382 255.995418 
L 199.149382 255.468925 
L 199.798691 255.468925 
L 199.798691 254.945966 
L 200.448 254.945966 
L 200.448 254.424078 
L 201.097309 254.424078 
L 201.097309 253.9037 
L 201.746618 253.9037 
L 201.746618 253.23391 
L 202.395927 253.23391 
L 202.395927 252.312051 
L 203.045236 252.312051 
L 203.045236 251.404048 
L 203.694545 251.404048 
L 203.694545 250.514299 
L 204.343855 250.514299 
L 204.343855 249.64226 
L 204.993164 249.64226 
L 204.993164 249.055884 
L 205.642473 249.055884 
L 205.642473 248.942314 
L 206.941091 248.834846 
L 206.941091 248.725416 
L 207.5904 248.725416 
L 207.5904 248.613225 
L 208.239709 248.613225 
L 208.239709 248.363142 
L 208.889018 248.363142 
L 208.889018 247.87794 
L 209.538327 247.87794 
L 209.538327 247.392974 
L 210.187636 247.392974 
L 210.187636 246.912815 
L 210.836945 246.912815 
L 210.836945 246.437664 
L 211.486255 246.437664 
L 211.486255 245.934773 
L 212.135564 245.934773 
L 212.135564 245.38111 
L 212.784873 245.38111 
L 212.784873 244.832426 
L 213.434182 244.832426 
L 213.434182 244.294003 
L 214.083491 244.294003 
L 214.083491 243.76362 
L 214.7328 243.76362 
L 214.7328 243.269096 
L 215.382109 243.269096 
L 215.382109 242.848534 
L 216.031418 242.848534 
L 216.031418 242.436388 
L 216.680727 242.436388 
L 216.680727 242.030045 
L 217.330036 242.030045 
L 217.330036 241.62962 
L 217.979345 241.62962 
L 217.979345 241.254368 
L 218.628655 241.254368 
L 218.628655 240.918125 
L 219.277964 240.918125 
L 219.277964 240.586322 
L 219.927273 240.586322 
L 219.927273 240.260009 
L 220.576582 240.260009 
L 220.576582 239.939691 
L 221.225891 239.939691 
L 221.225891 239.594906 
L 221.8752 239.594906 
L 221.8752 239.201555 
L 222.524509 239.201555 
L 222.524509 238.814108 
L 223.173818 238.814108 
L 223.173818 238.433799 
L 223.823127 238.433799 
L 223.823127 238.060357 
L 224.472436 238.060357 
L 224.472436 237.628581 
L 225.121745 237.628581 
L 225.121745 237.092021 
L 225.771055 237.092021 
L 225.771055 236.564744 
L 226.420364 236.564744 
L 226.420364 236.047585 
L 227.069673 236.047585 
L 227.069673 235.542754 
L 227.718982 235.542754 
L 227.718982 235.158034 
L 228.368291 235.158034 
L 228.368291 234.971874 
L 229.0176 234.971874 
L 229.0176 234.793941 
L 229.666909 234.793941 
L 229.666909 234.620697 
L 230.316218 234.620697 
L 230.316218 234.452103 
L 230.965527 234.452103 
L 230.965527 234.141085 
L 231.614836 234.141085 
L 231.614836 233.582202 
L 232.264145 233.582202 
L 232.264145 233.031451 
L 232.913455 233.031451 
L 232.913455 232.49282 
L 233.562764 232.49282 
L 233.562764 231.966307 
L 234.212073 231.966307 
L 234.212073 231.459786 
L 234.861382 231.459786 
L 234.861382 230.978213 
L 235.510691 230.978213 
L 235.510691 230.507017 
L 236.16 230.507017 
L 236.16 230.045595 
L 236.809309 230.045595 
L 236.809309 229.593542 
L 237.458618 229.593542 
L 237.458618 228.957451 
L 238.107927 228.957451 
L 238.107927 228.006951 
L 238.757236 228.006951 
L 238.757236 227.079201 
L 239.406545 227.079201 
L 239.406545 226.178268 
L 240.055855 226.178268 
L 240.055855 225.302917 
L 240.705164 225.302917 
L 240.705164 224.89963 
L 241.354473 224.89963 
L 241.354473 225.289709 
L 242.003782 225.289709 
L 242.003782 225.701245 
L 242.653091 225.701245 
L 242.653091 226.119961 
L 243.3024 226.119961 
L 243.3024 226.545873 
L 243.951709 226.545873 
L 243.951709 226.977903 
L 244.601018 226.977903 
L 244.601018 227.355983 
L 245.250327 227.355983 
L 245.250327 227.701796 
L 245.899636 227.701796 
L 245.899636 228.052661 
L 246.548945 228.052661 
L 246.548945 228.408743 
L 247.198255 228.408743 
L 247.198255 228.654992 
L 251.094109 228.620511 
L 251.094109 228.429277 
L 251.743418 228.429277 
L 251.743418 228.236554 
L 252.392727 228.236554 
L 252.392727 228.044523 
L 253.042036 228.044523 
L 253.042036 227.853009 
L 253.691345 227.853009 
L 253.691345 227.687316 
L 254.340655 227.687316 
L 254.340655 227.563891 
L 254.989964 227.563891 
L 254.989964 227.439977 
L 255.639273 227.439977 
L 255.639273 227.314526 
L 256.288582 227.314526 
L 256.288582 227.188978 
L 256.937891 227.188978 
L 256.937891 227.046762 
L 257.5872 227.046762 
L 257.5872 226.876426 
L 258.236509 226.876426 
L 258.236509 226.704306 
L 258.885818 226.704306 
L 258.885818 226.530753 
L 259.535127 226.530753 
L 259.535127 226.355613 
L 260.184436 226.355613 
L 260.184436 226.183609 
L 260.833745 226.183609 
L 260.833745 226.016896 
L 261.483055 226.016896 
L 261.483055 225.847758 
L 262.132364 225.847758 
L 262.132364 225.676457 
L 262.781673 225.676457 
L 262.781673 225.502442 
L 263.430982 225.502442 
L 263.430982 225.309741 
L 264.080291 225.309741 
L 264.080291 225.089602 
L 264.7296 225.089602 
L 264.7296 224.867063 
L 265.378909 224.867063 
L 265.378909 224.642585 
L 266.028218 224.642585 
L 266.028218 224.416146 
L 266.677527 224.416146 
L 266.677527 224.214322 
L 267.326836 224.214322 
L 267.326836 224.057491 
L 267.976145 224.057491 
L 267.976145 223.897546 
L 268.625455 223.897546 
L 268.625455 223.734883 
L 269.274764 223.734883 
L 269.274764 223.569559 
L 269.924073 223.569559 
L 269.924073 223.371387 
L 270.573382 223.371387 
L 270.573382 223.117926 
L 271.222691 223.117926 
L 271.222691 222.860605 
L 271.872 222.860605 
L 271.872 222.60378 
L 272.521309 222.60378 
L 272.521309 222.345768 
L 273.170618 222.345768 
L 273.170618 222.117163 
L 273.819927 222.117163 
L 273.819927 221.941027 
L 274.469236 221.941027 
L 274.469236 221.763964 
L 275.118545 221.763964 
L 275.118545 221.584655 
L 275.767855 221.584655 
L 275.767855 221.403873 
L 276.417164 221.403873 
L 276.417164 221.204497 
L 277.066473 221.204497 
L 277.066473 220.974107 
L 277.715782 220.974107 
L 277.715782 220.742821 
L 278.365091 220.742821 
L 278.365091 220.511278 
L 279.0144 220.511278 
L 279.0144 220.278035 
L 279.663709 220.278035 
L 279.663709 220.049966 
L 280.313018 220.049966 
L 280.313018 219.830957 
L 280.962327 219.830957 
L 280.962327 219.614223 
L 281.611636 219.614223 
L 281.611636 219.397244 
L 282.260945 219.397244 
L 282.260945 219.181398 
L 282.910255 219.181398 
L 282.910255 218.967967 
L 283.559564 218.967967 
L 283.559564 218.75795 
L 284.208873 218.75795 
L 284.208873 218.549829 
L 284.858182 218.549829 
L 284.858182 218.343834 
L 285.507491 218.343834 
L 285.507491 218.140224 
L 286.1568 218.140224 
L 286.1568 217.927299 
L 286.806109 217.927299 
L 286.806109 217.694942 
L 287.455418 217.694942 
L 287.455418 217.468033 
L 288.104727 217.468033 
L 288.104727 217.244942 
L 288.754036 217.244942 
L 288.754036 217.02547 
L 289.403345 217.02547 
L 289.403345 216.81544 
L 290.052655 216.81544 
L 290.052655 216.626149 
L 290.701964 216.626149 
L 290.701964 216.442628 
L 291.351273 216.442628 
L 291.351273 216.263915 
L 292.000582 216.263915 
L 292.000582 216.090256 
L 292.649891 216.090256 
L 292.649891 215.92262 
L 293.2992 215.92262 
L 293.2992 215.767862 
L 293.948509 215.767862 
L 293.948509 215.620727 
L 294.597818 215.620727 
L 294.597818 215.479056 
L 295.247127 215.479056 
L 295.247127 215.343891 
L 295.896436 215.343891 
L 295.896436 215.21585 
L 296.545745 215.21585 
L 296.545745 215.09543 
L 297.195055 215.09543 
L 297.195055 214.981849 
L 298.493673 214.875303 
L 298.493673 214.775998 
L 299.792291 214.669902 
L 299.792291 214.543135 
L 300.4416 214.543135 
L 300.4416 214.423621 
L 301.740218 214.312628 
L 301.740218 214.210007 
L 303.038836 214.111235 
L 303.038836 214.007514 
L 304.337455 213.911742 
L 304.337455 213.825028 
L 305.636073 213.747486 
L 305.636073 213.582097 
L 306.285382 213.582097 
L 306.285382 213.233199 
L 306.934691 213.233199 
L 306.934691 212.891482 
L 307.584 212.891482 
L 307.584 212.562278 
L 308.233309 212.562278 
L 308.233309 212.245735 
L 308.882618 212.245735 
L 308.882618 211.844321 
L 309.531927 211.844321 
L 309.531927 211.290771 
L 310.181236 211.290771 
L 310.181236 210.752034 
L 310.830545 210.752034 
L 310.830545 210.230644 
L 311.479855 210.230644 
L 311.479855 209.725912 
L 312.778473 209.779892 
L 312.778473 210.810576 
L 313.427782 210.810576 
L 313.427782 211.900602 
L 314.077091 211.900602 
L 314.077091 213.035767 
L 314.7264 213.035767 
L 314.7264 214.219557 
L 315.375709 214.219557 
L 315.375709 215.073932 
L 316.025018 215.073932 
L 316.025018 215.277963 
L 316.674327 215.277963 
L 316.674327 215.480524 
L 317.323636 215.480524 
L 317.323636 215.694567 
L 317.972945 215.694567 
L 317.972945 215.920626 
L 318.622255 215.920626 
L 318.622255 216.14391 
L 319.271564 216.14391 
L 319.271564 216.352747 
L 319.920873 216.352747 
L 319.920873 216.572373 
L 320.570182 216.572373 
L 320.570182 216.803294 
L 321.219491 216.803294 
L 321.219491 217.045548 
L 321.8688 217.045548 
L 321.8688 217.292394 
L 322.518109 217.292394 
L 322.518109 217.538068 
L 323.167418 217.538068 
L 323.167418 217.794643 
L 323.816727 217.794643 
L 323.816727 218.062353 
L 324.466036 218.062353 
L 324.466036 218.34118 
L 325.115345 218.34118 
L 325.115345 218.643008 
L 325.764655 218.643008 
L 325.764655 218.977865 
L 326.413964 218.977865 
L 326.413964 219.324818 
L 327.063273 219.324818 
L 327.063273 219.682849 
L 327.712582 219.682849 
L 327.712582 220.052625 
L 328.361891 220.052625 
L 328.361891 220.429034 
L 329.0112 220.429034 
L 329.0112 220.807536 
L 329.660509 220.807536 
L 329.660509 221.197168 
L 330.309818 221.197168 
L 330.309818 221.598179 
L 330.959127 221.598179 
L 330.959127 222.010544 
L 331.608436 222.010544 
L 331.608436 222.434012 
L 332.257745 222.434012 
L 332.257745 222.86819 
L 332.907055 222.86819 
L 332.907055 223.313563 
L 333.556364 223.313563 
L 333.556364 223.771044 
L 334.205673 223.771044 
L 334.205673 224.239988 
L 334.854982 224.239988 
L 334.854982 224.718492 
L 335.504291 224.718492 
L 335.504291 225.207447 
L 336.1536 225.207447 
L 336.1536 225.707211 
L 336.802909 225.707211 
L 336.802909 226.217814 
L 337.452218 226.217814 
L 337.452218 226.739187 
L 338.101527 226.739187 
L 338.101527 227.271163 
L 338.750836 227.271163 
L 338.750836 227.813598 
L 339.400145 227.813598 
L 339.400145 228.36654 
L 340.049455 228.36654 
L 340.049455 228.929876 
L 340.698764 228.929876 
L 340.698764 229.503504 
L 341.348073 229.503504 
L 341.348073 230.088636 
L 341.997382 230.088636 
L 341.997382 230.685407 
L 342.646691 230.685407 
L 342.646691 231.290391 
L 343.296 231.290391 
L 343.296 231.905166 
L 343.945309 231.905166 
L 343.945309 232.529656 
L 344.594618 232.529656 
L 344.594618 233.163496 
L 345.243927 233.163496 
L 345.243927 233.806363 
L 345.893236 233.806363 
L 345.893236 234.458469 
L 346.542545 234.458469 
L 346.542545 235.119668 
L 347.191855 235.119668 
L 347.191855 235.789791 
L 347.841164 235.789791 
L 347.841164 236.468643 
L 348.490473 236.468643 
L 348.490473 237.156032 
L 349.139782 237.156032 
L 349.139782 237.852664 
L 349.789091 237.852664 
L 349.789091 238.55907 
L 350.4384 238.55907 
L 350.4384 239.270952 
L 351.087709 239.270952 
L 351.087709 239.990514 
L 351.737018 239.990514 
L 351.737018 240.717545 
L 352.386327 240.717545 
L 352.386327 241.45183 
L 353.035636 241.45183 
L 353.035636 242.193132 
L 353.684945 242.193132 
L 353.684945 242.941187 
L 354.334255 242.941187 
L 354.334255 243.695719 
L 354.983564 243.695719 
L 354.983564 244.456428 
L 355.632873 244.456428 
L 355.632873 245.223085 
L 356.282182 245.223085 
L 356.282182 245.995369 
L 356.931491 245.995369 
L 356.931491 246.773589 
L 357.5808 246.773589 
L 357.5808 247.55921 
L 358.230109 247.55921 
L 358.230109 248.346187 
L 358.879418 248.346187 
L 358.879418 249.137491 
L 359.528727 249.137491 
L 359.528727 249.932792 
L 360.178036 249.932792 
L 360.178036 250.731728 
L 360.827345 250.731728 
L 360.827345 251.534021 
L 361.476655 251.534021 
L 361.476655 252.339351 
L 362.125964 252.339351 
L 362.125964 253.147243 
L 362.775273 253.147243 
L 362.775273 253.957286 
L 363.424582 253.957286 
L 363.424582 254.769043 
L 364.073891 254.769043 
L 364.073891 255.5824 
L 364.7232 255.5824 
L 364.7232 256.397482 
L 365.372509 256.397482 
L 365.372509 257.216351 
L 366.021818 257.216351 
L 366.021818 258.031598 
L 366.671127 258.031598 
L 366.671127 258.846431 
L 367.320436 258.846431 
L 367.320436 259.660153 
L 367.969745 259.660153 
L 367.969745 260.472185 
L 368.619055 260.472185 
L 368.619055 261.282403 
L 369.268364 261.282403 
L 369.268364 262.090331 
L 369.917673 262.090331 
L 369.917673 262.895476 
L 370.566982 262.895476 
L 370.566982 263.697489 
L 371.216291 263.697489 
L 371.216291 264.496003 
L 371.8656 264.496003 
L 371.8656 265.290297 
L 372.514909 265.290297 
L 372.514909 266.079873 
L 373.164218 266.079873 
L 373.164218 266.867881 
L 373.813527 266.867881 
L 373.813527 267.645884 
L 374.462836 267.645884 
L 374.462836 268.416594 
L 375.112145 268.416594 
L 375.112145 269.180528 
L 375.761455 269.180528 
L 375.761455 269.937214 
L 376.410764 269.937214 
L 376.410764 270.686184 
L 377.060073 270.686184 
L 377.060073 271.427648 
L 377.709382 271.427648 
L 377.709382 272.161705 
L 378.358691 272.161705 
L 378.358691 272.886749 
L 379.008 272.886749 
L 379.008 273.602323 
L 379.657309 273.602323 
L 379.657309 274.308004 
L 380.306618 274.308004 
L 380.306618 275.003291 
L 380.955927 275.003291 
L 380.955927 275.690469 
L 381.605236 275.690469 
L 381.605236 276.363823 
L 382.254545 276.363823 
L 382.254545 277.025359 
L 382.903855 277.025359 
L 382.903855 277.675069 
L 383.553164 277.675069 
L 383.553164 278.31241 
L 384.202473 278.31241 
L 384.202473 278.936912 
L 384.851782 278.936912 
L 384.851782 279.548648 
L 385.501091 279.548648 
L 385.501091 280.147372 
L 386.1504 280.147372 
L 386.1504 280.732836 
L 386.799709 280.732836 
L 386.799709 281.304891 
L 387.449018 281.304891 
L 387.449018 281.863402 
L 388.098327 281.863402 
L 388.098327 282.408123 
L 388.747636 282.408123 
L 388.747636 282.940878 
L 389.396945 282.940878 
L 389.396945 283.457926 
L 390.046255 283.457926 
L 390.046255 283.960252 
L 390.695564 283.960252 
L 390.695564 284.448225 
L 391.344873 284.448225 
L 391.344873 284.92197 
L 391.994182 284.92197 
L 391.994182 285.381496 
L 392.643491 285.381496 
L 392.643491 285.826824 
L 393.2928 285.826824 
L 393.2928 286.258142 
L 393.942109 286.258142 
L 393.942109 286.675628 
L 394.591418 286.675628 
L 394.591418 287.079136 
L 395.240727 287.079136 
L 395.240727 287.468783 
L 395.890036 287.468783 
L 395.890036 287.844714 
L 396.539345 287.844714 
L 396.539345 288.208048 
L 397.188655 288.208048 
L 397.188655 288.55676 
L 397.837964 288.55676 
L 397.837964 288.891761 
L 398.487273 288.891761 
L 398.487273 288.891761 
" clip-path="url(#p2aa2879686)" style="fill: none; stroke: #2ca02c; stroke-width: 1.5; stroke-linecap: square"/>
   </g>
   <g id="patch_3">
    <path d="M 57.6 307.584 
L 57.6 41.472 
" style="fill: none; stroke: #000000; stroke-width: 0.8; stroke-linejoin: miter; stroke-linecap: square"/>
   </g>
   <g id="patch_4">
    <path d="M 414.72 307.584 
L 414.72 41.472 
" style="fill: none; stroke: #000000; stroke-width: 0.8; stroke-linejoin: miter; stroke-linecap: square"/>
   </g>
   <g id="patch_5">
    <path d="M 57.6 307.584 
L 414.72 307.584 
" style="fill: none; stroke: #000000; stroke-width: 0.8; stroke-linejoin: miter; stroke-linecap: square"/>
   </g>
   <g id="patch_6">
    <path d="M 57.6 41.472 
L 414.72 41.472 
" style="fill: none; stroke: #000000; stroke-width: 0.8; stroke-linejoin: miter; stroke-linecap: square"/>
   </g>
   <g id="legend_1">
    <g id="patch_7">
     <path d="M 64.6 93.506375 
L 196.992188 93.506375 
Q 198.992188 93.506375 198.992188 91.506375 
L 198.992188 48.472 
Q 198.992188 46.472 196.992188 46.472 
L 64.6 46.472 
Q 62.6 46.472 62.6 48.472 
L 62.6 91.506375 
Q 62.6 93.506375 64.6 93.506375 
z
" style="fill: #ffffff; opacity: 0.8; stroke: #cccccc; stroke-linejoin: miter"/>
    </g>
    <g id="line2d_39">
     <path d="M 66.6 54.570438 
L 66.6 54.570438 
L 76.6 54.570438 
L 76.6 54.570438 
L 86.6 54.570438 
" style="fill: none; stroke: #1f77b4; stroke-width: 1.5; stroke-linecap: square"/>
    </g>
    <g id="text_12">
     <!-- dummy response -->
     <g transform="translate(94.6 58.070438) scale(0.1 -0.1)">
      <defs>
       <path id="DejaVuSans-64" d="M 2906 2969 
L 2906 4863 
L 3481 4863 
L 3481 0 
L 2906 0 
L 2906 525 
Q 2725 213 2448 61 
Q 2172 -91 1784 -91 
Q 1150 -91 751 415 
Q 353 922 353 1747 
Q 353 2572 751 3078 
Q 1150 3584 1784 3584 
Q 2172 3584 2448 3432 
Q 2725 3281 2906 2969 
z
M 947 1747 
Q 947 1113 1208 752 
Q 1469 391 1925 391 
Q 2381 391 2643 752 
Q 2906 1113 2906 1747 
Q 2906 2381 2643 2742 
Q 2381 3103 1925 3103 
Q 1469 3103 1208 2742 
Q 947 2381 947 1747 
z
" transform="scale(0.015625)"/>
       <path id="DejaVuSans-75" d="M 544 1381 
L 544 3500 
L 1119 3500 
L 1119 1403 
Q 1119 906 1312 657 
Q 1506 409 1894 409 
Q 2359 409 2629 706 
Q 2900 1003 2900 1516 
L 2900 3500 
L 3475 3500 
L 3475 0 
L 2900 0 
L 2900 538 
Q 2691 219 2414 64 
Q 2138 -91 1772 -91 
Q 1169 -91 856 284 
Q 544 659 544 1381 
z
M 1991 3584 
L 1991 3584 
z
" transform="scale(0.015625)"/>
       <path id="DejaVuSans-6f" d="M 1959 3097 
Q 1497 3097 1228 2736 
Q 959 2375 959 1747 
Q 959 1119 1226 758 
Q 1494 397 1959 397 
Q 2419 397 2687 759 
Q 2956 1122 2956 1747 
Q 2956 2369 2687 2733 
Q 2419 3097 1959 3097 
z
M 1959 3584 
Q 2709 3584 3137 3096 
Q 3566 2609 3566 1747 
Q 3566 888 3137 398 
Q 2709 -91 1959 -91 
Q 1206 -91 779 398 
Q 353 888 353 1747 
Q 353 2609 779 3096 
Q 1206 3584 1959 3584 
z
" transform="scale(0.015625)"/>
      </defs>
      <use xlink:href="#DejaVuSans-64"/>
      <use xlink:href="#DejaVuSans-75" transform="translate(63.476562 0)"/>
      <use xlink:href="#DejaVuSans-6d" transform="translate(126.855469 0)"/>
      <use xlink:href="#DejaVuSans-6d" transform="translate(224.267578 0)"/>
      <use xlink:href="#DejaVuSans-79" transform="translate(321.679688 0)"/>
      <use xlink:href="#DejaVuSans-20" transform="translate(380.859375 0)"/>
      <use xlink:href="#DejaVuSans-72" transform="translate(412.646484 0)"/>
      <use xlink:href="#DejaVuSans-65" transform="translate(451.509766 0)"/>
      <use xlink:href="#DejaVuSans-73" transform="translate(513.033203 0)"/>
      <use xlink:href="#DejaVuSans-70" transform="translate(565.132812 0)"/>
      <use xlink:href="#DejaVuSans-6f" transform="translate(628.609375 0)"/>
      <use xlink:href="#DejaVuSans-6e" transform="translate(689.791016 0)"/>
      <use xlink:href="#DejaVuSans-73" transform="translate(753.169922 0)"/>
      <use xlink:href="#DejaVuSans-65" transform="translate(805.269531 0)"/>
     </g>
    </g>
    <g id="line2d_40">
     <path d="M 66.6 69.248563 
L 66.6 69.248563 
L 76.6 69.248563 
L 76.6 69.248563 
L 86.6 69.248563 
" style="fill: none; stroke: #ff7f0e; stroke-width: 1.5; stroke-linecap: square"/>
    </g>
    <g id="text_13">
     <!-- 400 km/s -->
     <g transform="translate(94.6 72.748563) scale(0.1 -0.1)">
      <defs>
       <path id="DejaVuSans-2f" d="M 1625 4666 
L 2156 4666 
L 531 -594 
L 0 -594 
L 1625 4666 
z
" transform="scale(0.015625)"/>
      </defs>
      <use xlink:href="#DejaVuSans-34"/>
      <use xlink:href="#DejaVuSans-30" transform="translate(63.623047 0)"/>
      <use xlink:href="#DejaVuSans-30" transform="translate(127.246094 0)"/>
      <use xlink:href="#DejaVuSans-20" transform="translate(190.869141 0)"/>
      <use xlink:href="#DejaVuSans-6b" transform="translate(222.65625 0)"/>
      <use xlink:href="#DejaVuSans-6d" transform="translate(280.566406 0)"/>
      <use xlink:href="#DejaVuSans-2f" transform="translate(377.978516 0)"/>
      <use xlink:href="#DejaVuSans-73" transform="translate(411.669922 0)"/>
     </g>
    </g>
    <g id="line2d_41">
     <path d="M 66.6 83.926688 
L 66.6 83.926688 
L 76.6 83.926688 
L 76.6 83.926688 
L 86.6 83.926688 
" style="fill: none; stroke: #2ca02c; stroke-width: 1.5; stroke-linecap: square"/>
    </g>
    <g id="text_14">
     <!-- Low Limit, 400 km/s -->
     <g transform="translate(94.6 87.426688) scale(0.1 -0.1)">
      <defs>
       <path id="DejaVuSans-4c" d="M 628 4666 
L 1259 4666 
L 1259 531 
L 3531 531 
L 3531 0 
L 628 0 
L 628 4666 
z
" transform="scale(0.015625)"/>
       <path id="DejaVuSans-77" d="M 269 3500 
L 844 3500 
L 1563 769 
L 2278 3500 
L 2956 3500 
L 3675 769 
L 4391 3500 
L 4966 3500 
L 4050 0 
L 3372 0 
L 2619 2869 
L 1863 0 
L 1184 0 
L 269 3500 
z
" transform="scale(0.015625)"/>
       <path id="DejaVuSans-2c" d="M 750 794 
L 1409 794 
L 1409 256 
L 897 -744 
L 494 -744 
L 750 256 
L 750 794 
z
" transform="scale(0.015625)"/>
      </defs>
      <use xlink:href="#DejaVuSans-4c"/>
      <use xlink:href="#DejaVuSans-6f" transform="translate(53.962891 0)"/>
      <use xlink:href="#DejaVuSans-77" transform="translate(115.144531 0)"/>
      <use xlink:href="#DejaVuSans-20" transform="translate(196.931641 0)"/>
      <use xlink:href="#DejaVuSans-4c" transform="translate(228.71875 0)"/>
      <use xlink:href="#DejaVuSans-69" transform="translate(284.431641 0)"/>
      <use xlink:href="#DejaVuSans-6d" transform="translate(312.214844 0)"/>
      <use xlink:href="#DejaVuSans-69" transform="translate(409.626953 0)"/>
      <use xlink:href="#DejaVuSans-74" transform="translate(437.410156 0)"/>
      <use xlink:href="#DejaVuSans-2c" transform="translate(476.619141 0)"/>
      <use xlink:href="#DejaVuSans-20" transform="translate(508.40625 0)"/>
      <use xlink:href="#DejaVuSans-34" transform="translate(540.193359 0)"/>
      <use xlink:href="#DejaVuSans-30" transform="translate(603.816406 0)"/>
      <use xlink:href="#DejaVuSans-30" transform="translate(667.439453 0)"/>
      <use xlink:href="#DejaVuSans-20" transform="translate(731.0625 0)"/>
      <use xlink:href="#DejaVuSans-6b" transform="translate(762.849609 0)"/>
      <use xlink:href="#DejaVuSans-6d" transform="translate(820.759766 0)"/>
      <use xlink:href="#DejaVuSans-2f" transform="translate(918.171875 0)"/>
      <use xlink:href="#DejaVuSans-73" transform="translate(951.863281 0)"/>
     </g>
    </g>
   </g>
  </g>
 </g>
 <defs>
  <clipPath id="p2aa2879686">
   <rect x="57.6" y="41.472" width="357.12" height="266.112"/>
  </clipPath>
 </defs>
</svg>
