<?xml version="1.0" encoding="utf-8" standalone="no"?>
<!DOCTYPE svg PUBLIC "-//W3C//DTD SVG 1.1//EN"
  "http://www.w3.org/Graphics/SVG/1.1/DTD/svg11.dtd">
<!-- Created with matplotlib (http://matplotlib.org/) -->
<svg height="345pt" version="1.1" viewBox="0 0 460 345" width="460pt" xmlns="http://www.w3.org/2000/svg" xmlns:xlink="http://www.w3.org/1999/xlink">
 <defs>
  <style type="text/css">
*{stroke-linecap:butt;stroke-linejoin:round;}
  </style>
 </defs>
 <g id="figure_1">
  <g id="patch_1">
   <path d="M 0 345.6 
L 460.8 345.6 
L 460.8 0 
L 0 0 
z
" style="fill:#ffffff;"/>
  </g>
  <g id="axes_1">
   <g id="patch_2">
    <path d="M 57.6 155.195077 
L 414.72 155.195077 
L 414.72 41.472 
L 57.6 41.472 
z
" style="fill:#ffffff;"/>
   </g>
   <g id="matplotlib.axis_1">
    <g id="xtick_1">
     <g id="line2d_1">
      <defs>
       <path d="M 0 0 
L 0 3.5 
" id="mca95443336" style="stroke:#000000;stroke-width:0.8;"/>
      </defs>
      <g>
       <use style="stroke:#000000;stroke-width:0.8;" x="57.6" xlink:href="#mca95443336" y="155.195077"/>
      </g>
     </g>
     <g id="text_1">
      <!-- 0.700 -->
      <defs>
       <path d="M 50.484375 30.328125 
Q 50.484375 14.453125 45.0625 6.734375 
Q 39.65625 -0.984375 28.125 -0.984375 
Q 16.75 -0.984375 11.28125 6.5625 
Q 5.8125 14.109375 5.609375 29.109375 
L 5.609375 41.15625 
Q 5.609375 56.84375 11.03125 64.453125 
Q 16.453125 72.078125 28.03125 72.078125 
Q 39.5 72.078125 44.921875 64.71875 
Q 50.34375 57.375 50.484375 42.046875 
z
M 41.453125 42.671875 
Q 41.453125 54.15625 38.234375 59.40625 
Q 35.015625 64.65625 28.03125 64.65625 
Q 21.09375 64.65625 17.921875 59.421875 
Q 14.75 54.203125 14.65625 43.359375 
L 14.65625 28.90625 
Q 14.65625 17.390625 18 11.890625 
Q 21.34375 6.390625 28.125 6.390625 
Q 34.8125 6.390625 38.0625 11.5625 
Q 41.3125 16.75 41.453125 27.875 
z
" id="Roboto-Regular-30"/>
       <path d="M 7.03125 4.734375 
Q 7.03125 7.078125 8.421875 8.640625 
Q 9.8125 10.203125 12.59375 10.203125 
Q 15.375 10.203125 16.8125 8.640625 
Q 18.265625 7.078125 18.265625 4.734375 
Q 18.265625 2.484375 16.8125 0.96875 
Q 15.375 -0.53125 12.59375 -0.53125 
Q 9.8125 -0.53125 8.421875 0.96875 
Q 7.03125 2.484375 7.03125 4.734375 
z
" id="Roboto-Regular-2e"/>
       <path d="M 51.8125 66.015625 
L 22.359375 0 
L 12.890625 0 
L 42.234375 63.671875 
L 3.765625 63.671875 
L 3.765625 71.09375 
L 51.8125 71.09375 
z
" id="Roboto-Regular-37"/>
      </defs>
      <g transform="translate(45.053125 169.695077)scale(0.1 -0.1)">
       <use xlink:href="#Roboto-Regular-30"/>
       <use x="56.152344" xlink:href="#Roboto-Regular-2e"/>
       <use x="82.470703" xlink:href="#Roboto-Regular-37"/>
       <use x="138.623047" xlink:href="#Roboto-Regular-30"/>
       <use x="194.775391" xlink:href="#Roboto-Regular-30"/>
      </g>
     </g>
    </g>
    <g id="xtick_2">
     <g id="line2d_2">
      <g>
       <use style="stroke:#000000;stroke-width:0.8;" x="102.24" xlink:href="#mca95443336" y="155.195077"/>
      </g>
     </g>
     <g id="text_2">
      <!-- 0.725 -->
      <defs>
       <path d="M 52.484375 0 
L 5.90625 0 
L 5.90625 6.5 
L 30.515625 33.84375 
Q 35.984375 40.046875 38.0625 43.921875 
Q 40.140625 47.796875 40.140625 51.953125 
Q 40.140625 57.515625 36.765625 61.078125 
Q 33.40625 64.65625 27.78125 64.65625 
Q 21.046875 64.65625 17.3125 60.8125 
Q 13.578125 56.984375 13.578125 50.140625 
L 4.546875 50.140625 
Q 4.546875 59.96875 10.859375 66.015625 
Q 17.1875 72.078125 27.78125 72.078125 
Q 37.703125 72.078125 43.453125 66.875 
Q 49.21875 61.671875 49.21875 53.03125 
Q 49.21875 42.53125 35.84375 28.03125 
L 16.796875 7.375 
L 52.484375 7.375 
z
" id="Roboto-Regular-32"/>
       <path d="M 10.0625 35.640625 
L 13.671875 71.09375 
L 50.09375 71.09375 
L 50.09375 62.75 
L 21.34375 62.75 
L 19.1875 43.359375 
Q 24.421875 46.4375 31.0625 46.4375 
Q 40.765625 46.4375 46.484375 40.015625 
Q 52.203125 33.59375 52.203125 22.65625 
Q 52.203125 11.671875 46.265625 5.34375 
Q 40.328125 -0.984375 29.6875 -0.984375 
Q 20.265625 -0.984375 14.296875 4.234375 
Q 8.34375 9.46875 7.515625 18.703125 
L 16.0625 18.703125 
Q 16.890625 12.59375 20.40625 9.484375 
Q 23.921875 6.390625 29.6875 6.390625 
Q 35.984375 6.390625 39.578125 10.6875 
Q 43.171875 14.984375 43.171875 22.5625 
Q 43.171875 29.6875 39.28125 34 
Q 35.40625 38.328125 28.953125 38.328125 
Q 23.046875 38.328125 19.671875 35.75 
L 17.28125 33.796875 
z
" id="Roboto-Regular-35"/>
      </defs>
      <g transform="translate(89.693125 169.695077)scale(0.1 -0.1)">
       <use xlink:href="#Roboto-Regular-30"/>
       <use x="56.152344" xlink:href="#Roboto-Regular-2e"/>
       <use x="82.470703" xlink:href="#Roboto-Regular-37"/>
       <use x="138.623047" xlink:href="#Roboto-Regular-32"/>
       <use x="194.775391" xlink:href="#Roboto-Regular-35"/>
      </g>
     </g>
    </g>
    <g id="xtick_3">
     <g id="line2d_3">
      <g>
       <use style="stroke:#000000;stroke-width:0.8;" x="146.88" xlink:href="#mca95443336" y="155.195077"/>
      </g>
     </g>
     <g id="text_3">
      <!-- 0.750 -->
      <g transform="translate(134.333125 169.695077)scale(0.1 -0.1)">
       <use xlink:href="#Roboto-Regular-30"/>
       <use x="56.152344" xlink:href="#Roboto-Regular-2e"/>
       <use x="82.470703" xlink:href="#Roboto-Regular-37"/>
       <use x="138.623047" xlink:href="#Roboto-Regular-35"/>
       <use x="194.775391" xlink:href="#Roboto-Regular-30"/>
      </g>
     </g>
    </g>
    <g id="xtick_4">
     <g id="line2d_4">
      <g>
       <use style="stroke:#000000;stroke-width:0.8;" x="191.52" xlink:href="#mca95443336" y="155.195077"/>
      </g>
     </g>
     <g id="text_4">
      <!-- 0.775 -->
      <g transform="translate(178.973125 169.695077)scale(0.1 -0.1)">
       <use xlink:href="#Roboto-Regular-30"/>
       <use x="56.152344" xlink:href="#Roboto-Regular-2e"/>
       <use x="82.470703" xlink:href="#Roboto-Regular-37"/>
       <use x="138.623047" xlink:href="#Roboto-Regular-37"/>
       <use x="194.775391" xlink:href="#Roboto-Regular-35"/>
      </g>
     </g>
    </g>
    <g id="xtick_5">
     <g id="line2d_5">
      <g>
       <use style="stroke:#000000;stroke-width:0.8;" x="236.16" xlink:href="#mca95443336" y="155.195077"/>
      </g>
     </g>
     <g id="text_5">
      <!-- 0.800 -->
      <defs>
       <path d="M 49.03125 52.546875 
Q 49.03125 47.21875 46.21875 43.0625 
Q 43.40625 38.921875 38.625 36.578125 
Q 44.1875 34.1875 47.4375 29.59375 
Q 50.6875 25 50.6875 19.1875 
Q 50.6875 9.96875 44.453125 4.484375 
Q 38.234375 -0.984375 28.078125 -0.984375 
Q 17.828125 -0.984375 11.640625 4.515625 
Q 5.46875 10.015625 5.46875 19.1875 
Q 5.46875 24.953125 8.609375 29.59375 
Q 11.765625 34.234375 17.328125 36.625 
Q 12.59375 38.96875 9.859375 43.109375 
Q 7.125 47.265625 7.125 52.546875 
Q 7.125 61.53125 12.890625 66.796875 
Q 18.65625 72.078125 28.078125 72.078125 
Q 37.453125 72.078125 43.234375 66.796875 
Q 49.03125 61.53125 49.03125 52.546875 
z
M 41.65625 19.390625 
Q 41.65625 25.34375 37.859375 29.09375 
Q 34.078125 32.859375 27.96875 32.859375 
Q 21.875 32.859375 18.1875 29.140625 
Q 14.5 25.4375 14.5 19.375 
Q 14.5 13.328125 18.09375 9.859375 
Q 21.6875 6.390625 28.078125 6.390625 
Q 34.421875 6.390625 38.03125 9.875 
Q 41.65625 13.375 41.65625 19.390625 
z
M 28.078125 64.65625 
Q 22.75 64.65625 19.453125 61.359375 
Q 16.15625 58.0625 16.15625 52.390625 
Q 16.15625 46.96875 19.40625 43.625 
Q 22.65625 40.28125 28.078125 40.28125 
Q 33.5 40.28125 36.734375 43.625 
Q 39.984375 46.96875 39.984375 52.390625 
Q 39.984375 57.8125 36.609375 61.234375 
Q 33.25 64.65625 28.078125 64.65625 
z
" id="Roboto-Regular-38"/>
      </defs>
      <g transform="translate(223.613125 169.695077)scale(0.1 -0.1)">
       <use xlink:href="#Roboto-Regular-30"/>
       <use x="56.152344" xlink:href="#Roboto-Regular-2e"/>
       <use x="82.470703" xlink:href="#Roboto-Regular-38"/>
       <use x="138.623047" xlink:href="#Roboto-Regular-30"/>
       <use x="194.775391" xlink:href="#Roboto-Regular-30"/>
      </g>
     </g>
    </g>
    <g id="xtick_6">
     <g id="line2d_6">
      <g>
       <use style="stroke:#000000;stroke-width:0.8;" x="280.8" xlink:href="#mca95443336" y="155.195077"/>
      </g>
     </g>
     <g id="text_6">
      <!-- 0.825 -->
      <g transform="translate(268.253125 169.695077)scale(0.1 -0.1)">
       <use xlink:href="#Roboto-Regular-30"/>
       <use x="56.152344" xlink:href="#Roboto-Regular-2e"/>
       <use x="82.470703" xlink:href="#Roboto-Regular-38"/>
       <use x="138.623047" xlink:href="#Roboto-Regular-32"/>
       <use x="194.775391" xlink:href="#Roboto-Regular-35"/>
      </g>
     </g>
    </g>
    <g id="xtick_7">
     <g id="line2d_7">
      <g>
       <use style="stroke:#000000;stroke-width:0.8;" x="325.44" xlink:href="#mca95443336" y="155.195077"/>
      </g>
     </g>
     <g id="text_7">
      <!-- 0.850 -->
      <g transform="translate(312.893125 169.695077)scale(0.1 -0.1)">
       <use xlink:href="#Roboto-Regular-30"/>
       <use x="56.152344" xlink:href="#Roboto-Regular-2e"/>
       <use x="82.470703" xlink:href="#Roboto-Regular-38"/>
       <use x="138.623047" xlink:href="#Roboto-Regular-35"/>
       <use x="194.775391" xlink:href="#Roboto-Regular-30"/>
      </g>
     </g>
    </g>
    <g id="xtick_8">
     <g id="line2d_8">
      <g>
       <use style="stroke:#000000;stroke-width:0.8;" x="370.08" xlink:href="#mca95443336" y="155.195077"/>
      </g>
     </g>
     <g id="text_8">
      <!-- 0.875 -->
      <g transform="translate(357.533125 169.695077)scale(0.1 -0.1)">
       <use xlink:href="#Roboto-Regular-30"/>
       <use x="56.152344" xlink:href="#Roboto-Regular-2e"/>
       <use x="82.470703" xlink:href="#Roboto-Regular-38"/>
       <use x="138.623047" xlink:href="#Roboto-Regular-37"/>
       <use x="194.775391" xlink:href="#Roboto-Regular-35"/>
      </g>
     </g>
    </g>
    <g id="xtick_9">
     <g id="line2d_9">
      <g>
       <use style="stroke:#000000;stroke-width:0.8;" x="414.72" xlink:href="#mca95443336" y="155.195077"/>
      </g>
     </g>
     <g id="text_9">
      <!-- 0.900 -->
      <defs>
       <path d="M 40.53125 31.25 
Q 37.703125 27.875 33.765625 25.828125 
Q 29.828125 23.78125 25.140625 23.78125 
Q 19 23.78125 14.421875 26.796875 
Q 9.859375 29.828125 7.375 35.328125 
Q 4.890625 40.828125 4.890625 47.46875 
Q 4.890625 54.59375 7.59375 60.296875 
Q 10.296875 66.015625 15.28125 69.046875 
Q 20.265625 72.078125 26.90625 72.078125 
Q 37.453125 72.078125 43.53125 64.1875 
Q 49.609375 56.296875 49.609375 42.671875 
L 49.609375 40.046875 
Q 49.609375 19.28125 41.40625 9.734375 
Q 33.203125 0.203125 16.65625 -0.046875 
L 14.890625 -0.046875 
L 14.890625 7.5625 
L 16.796875 7.5625 
Q 27.984375 7.765625 33.984375 13.40625 
Q 39.984375 19.046875 40.53125 31.25 
z
M 26.609375 31.25 
Q 31.15625 31.25 34.984375 34.03125 
Q 38.8125 36.8125 40.578125 40.921875 
L 40.578125 44.53125 
Q 40.578125 53.421875 36.71875 58.984375 
Q 32.859375 64.546875 26.953125 64.546875 
Q 21 64.546875 17.375 59.984375 
Q 13.765625 55.421875 13.765625 47.953125 
Q 13.765625 40.671875 17.25 35.953125 
Q 20.75 31.25 26.609375 31.25 
z
" id="Roboto-Regular-39"/>
      </defs>
      <g transform="translate(402.173125 169.695077)scale(0.1 -0.1)">
       <use xlink:href="#Roboto-Regular-30"/>
       <use x="56.152344" xlink:href="#Roboto-Regular-2e"/>
       <use x="82.470703" xlink:href="#Roboto-Regular-39"/>
       <use x="138.623047" xlink:href="#Roboto-Regular-30"/>
       <use x="194.775391" xlink:href="#Roboto-Regular-30"/>
      </g>
     </g>
    </g>
    <g id="text_10">
     <!-- Energy (keV) -->
     <defs>
      <path d="M 48.4375 32.859375 
L 17.625 32.859375 
L 17.625 7.671875 
L 53.421875 7.671875 
L 53.421875 0 
L 8.25 0 
L 8.25 71.09375 
L 52.9375 71.09375 
L 52.9375 63.375 
L 17.625 63.375 
L 17.625 40.53125 
L 48.4375 40.53125 
z
" id="Roboto-Regular-45"/>
      <path d="M 15.375 52.828125 
L 15.671875 46.1875 
Q 21.734375 53.8125 31.5 53.8125 
Q 48.25 53.8125 48.390625 34.90625 
L 48.390625 0 
L 39.359375 0 
L 39.359375 34.96875 
Q 39.3125 40.671875 36.75 43.40625 
Q 34.1875 46.140625 28.765625 46.140625 
Q 24.359375 46.140625 21.03125 43.796875 
Q 17.71875 41.453125 15.875 37.640625 
L 15.875 0 
L 6.84375 0 
L 6.84375 52.828125 
z
" id="Roboto-Regular-6e"/>
      <path d="M 28.765625 -0.984375 
Q 18.015625 -0.984375 11.28125 6.078125 
Q 4.546875 13.140625 4.546875 24.953125 
L 4.546875 26.609375 
Q 4.546875 34.46875 7.546875 40.640625 
Q 10.546875 46.828125 15.9375 50.3125 
Q 21.34375 53.8125 27.640625 53.8125 
Q 37.9375 53.8125 43.640625 47.015625 
Q 49.359375 40.234375 49.359375 27.59375 
L 49.359375 23.828125 
L 13.578125 23.828125 
Q 13.765625 16.015625 18.140625 11.203125 
Q 22.515625 6.390625 29.25 6.390625 
Q 34.03125 6.390625 37.34375 8.34375 
Q 40.671875 10.296875 43.171875 13.53125 
L 48.6875 9.234375 
Q 42.046875 -0.984375 28.765625 -0.984375 
z
M 27.640625 46.390625 
Q 22.171875 46.390625 18.453125 42.40625 
Q 14.75 38.421875 13.875 31.25 
L 40.328125 31.25 
L 40.328125 31.9375 
Q 39.9375 38.8125 36.609375 42.59375 
Q 33.296875 46.390625 27.640625 46.390625 
z
" id="Roboto-Regular-65"/>
      <path d="M 32.375 44.734375 
Q 30.328125 45.0625 27.9375 45.0625 
Q 19.046875 45.0625 15.875 37.5 
L 15.875 0 
L 6.84375 0 
L 6.84375 52.828125 
L 15.625 52.828125 
L 15.765625 46.734375 
Q 20.21875 53.8125 28.375 53.8125 
Q 31 53.8125 32.375 53.125 
z
" id="Roboto-Regular-72"/>
      <path d="M 4.6875 26.859375 
Q 4.6875 39.203125 10.390625 46.5 
Q 16.109375 53.8125 25.53125 53.8125 
Q 35.203125 53.8125 40.625 46.96875 
L 41.0625 52.828125 
L 49.3125 52.828125 
L 49.3125 1.265625 
Q 49.3125 -8.984375 43.234375 -14.890625 
Q 37.15625 -20.796875 26.90625 -20.796875 
Q 21.1875 -20.796875 15.71875 -18.359375 
Q 10.25 -15.921875 7.375 -11.671875 
L 12.0625 -6.25 
Q 17.875 -13.421875 26.265625 -13.421875 
Q 32.859375 -13.421875 36.546875 -9.703125 
Q 40.234375 -6 40.234375 0.734375 
L 40.234375 5.28125 
Q 34.8125 -0.984375 25.4375 -0.984375 
Q 16.15625 -0.984375 10.421875 6.484375 
Q 4.6875 13.96875 4.6875 26.859375 
z
M 13.765625 25.828125 
Q 13.765625 16.890625 17.421875 11.78125 
Q 21.09375 6.6875 27.6875 6.6875 
Q 36.234375 6.6875 40.234375 14.453125 
L 40.234375 38.578125 
Q 36.078125 46.140625 27.78125 46.140625 
Q 21.1875 46.140625 17.46875 41.015625 
Q 13.765625 35.890625 13.765625 25.828125 
z
" id="Roboto-Regular-67"/>
      <path d="M 24.125 13.234375 
L 36.421875 52.828125 
L 46.09375 52.828125 
L 24.859375 -8.15625 
Q 19.921875 -21.34375 9.1875 -21.34375 
L 7.46875 -21.1875 
L 4.109375 -20.5625 
L 4.109375 -13.234375 
L 6.546875 -13.421875 
Q 11.140625 -13.421875 13.703125 -11.5625 
Q 16.265625 -9.71875 17.921875 -4.78125 
L 19.921875 0.59375 
L 1.078125 52.828125 
L 10.9375 52.828125 
z
" id="Roboto-Regular-79"/>
      <path id="Roboto-Regular-20"/>
      <path d="M 6.5 28.859375 
Q 6.5 39.890625 9.453125 50.046875 
Q 12.40625 60.203125 18.265625 68.5 
Q 24.125 76.8125 30.421875 80.21875 
L 32.28125 74.265625 
Q 25.140625 68.796875 20.578125 57.5625 
Q 16.015625 46.34375 15.578125 32.421875 
L 15.53125 28.265625 
Q 15.53125 9.421875 22.40625 -4.4375 
Q 26.5625 -12.75 32.28125 -17.4375 
L 30.421875 -22.953125 
Q 23.921875 -19.34375 18.015625 -10.84375 
Q 6.5 5.765625 6.5 28.859375 
z
" id="Roboto-Regular-28"/>
      <path d="M 21.578125 24.46875 
L 15.921875 18.5625 
L 15.921875 0 
L 6.890625 0 
L 6.890625 75 
L 15.921875 75 
L 15.921875 29.640625 
L 20.75 35.453125 
L 37.203125 52.828125 
L 48.1875 52.828125 
L 27.640625 30.765625 
L 50.59375 0 
L 39.984375 0 
z
" id="Roboto-Regular-6b"/>
      <path d="M 31.78125 12.453125 
L 52.09375 71.09375 
L 62.359375 71.09375 
L 35.984375 0 
L 27.6875 0 
L 1.375 71.09375 
L 11.578125 71.09375 
z
" id="Roboto-Regular-56"/>
      <path d="M 27.6875 28.375 
Q 27.6875 17.484375 24.828125 7.5 
Q 21.96875 -2.484375 16.078125 -10.9375 
Q 10.203125 -19.390625 3.765625 -22.953125 
L 1.859375 -17.4375 
Q 9.375 -11.671875 13.9375 0.453125 
Q 18.5 12.59375 18.609375 27.390625 
L 18.609375 28.953125 
Q 18.609375 39.203125 16.453125 48.015625 
Q 14.3125 56.84375 10.46875 63.8125 
Q 6.640625 70.796875 1.859375 74.703125 
L 3.765625 80.21875 
Q 10.203125 76.65625 16.03125 68.3125 
Q 21.875 59.96875 24.78125 49.90625 
Q 27.6875 39.84375 27.6875 28.375 
z
" id="Roboto-Regular-29"/>
     </defs>
     <g transform="translate(207.996719 183.748202)scale(0.1 -0.1)">
      <use xlink:href="#Roboto-Regular-45"/>
      <use x="56.835938" xlink:href="#Roboto-Regular-6e"/>
      <use x="112.011719" xlink:href="#Roboto-Regular-65"/>
      <use x="164.990234" xlink:href="#Roboto-Regular-72"/>
      <use x="198.828125" xlink:href="#Roboto-Regular-67"/>
      <use x="254.931641" xlink:href="#Roboto-Regular-79"/>
      <use x="302.246094" xlink:href="#Roboto-Regular-20"/>
      <use x="327.001953" xlink:href="#Roboto-Regular-28"/>
      <use x="361.181641" xlink:href="#Roboto-Regular-6b"/>
      <use x="411.865234" xlink:href="#Roboto-Regular-65"/>
      <use x="464.84375" xlink:href="#Roboto-Regular-56"/>
      <use x="528.466797" xlink:href="#Roboto-Regular-29"/>
     </g>
    </g>
   </g>
   <g id="matplotlib.axis_2">
    <g id="ytick_1">
     <g id="line2d_10">
      <defs>
       <path d="M 0 0 
L -3.5 0 
" id="m4ecf6a62ef" style="stroke:#000000;stroke-width:0.8;"/>
      </defs>
      <g>
       <use style="stroke:#000000;stroke-width:0.8;" x="57.6" xlink:href="#m4ecf6a62ef" y="150.025846"/>
      </g>
     </g>
     <g id="text_11">
      <!-- 0.0 -->
      <g transform="translate(36.7375 153.775846)scale(0.1 -0.1)">
       <use xlink:href="#Roboto-Regular-30"/>
       <use x="56.152344" xlink:href="#Roboto-Regular-2e"/>
       <use x="82.470703" xlink:href="#Roboto-Regular-30"/>
      </g>
     </g>
    </g>
    <g id="ytick_2">
     <g id="line2d_11">
      <g>
       <use style="stroke:#000000;stroke-width:0.8;" x="57.6" xlink:href="#m4ecf6a62ef" y="123.30987"/>
      </g>
     </g>
     <g id="text_12">
      <!-- 0.5 -->
      <g transform="translate(36.7375 127.05987)scale(0.1 -0.1)">
       <use xlink:href="#Roboto-Regular-30"/>
       <use x="56.152344" xlink:href="#Roboto-Regular-2e"/>
       <use x="82.470703" xlink:href="#Roboto-Regular-35"/>
      </g>
     </g>
    </g>
    <g id="ytick_3">
     <g id="line2d_12">
      <g>
       <use style="stroke:#000000;stroke-width:0.8;" x="57.6" xlink:href="#m4ecf6a62ef" y="96.593893"/>
      </g>
     </g>
     <g id="text_13">
      <!-- 1.0 -->
      <defs>
       <path d="M 35.59375 0 
L 26.515625 0 
L 26.515625 60.203125 
L 8.296875 53.515625 
L 8.296875 61.71875 
L 34.1875 71.4375 
L 35.59375 71.4375 
z
" id="Roboto-Regular-31"/>
      </defs>
      <g transform="translate(36.7375 100.343893)scale(0.1 -0.1)">
       <use xlink:href="#Roboto-Regular-31"/>
       <use x="56.152344" xlink:href="#Roboto-Regular-2e"/>
       <use x="82.470703" xlink:href="#Roboto-Regular-30"/>
      </g>
     </g>
    </g>
    <g id="ytick_4">
     <g id="line2d_13">
      <g>
       <use style="stroke:#000000;stroke-width:0.8;" x="57.6" xlink:href="#m4ecf6a62ef" y="69.877917"/>
      </g>
     </g>
     <g id="text_14">
      <!-- 1.5 -->
      <g transform="translate(36.7375 73.627917)scale(0.1 -0.1)">
       <use xlink:href="#Roboto-Regular-31"/>
       <use x="56.152344" xlink:href="#Roboto-Regular-2e"/>
       <use x="82.470703" xlink:href="#Roboto-Regular-35"/>
      </g>
     </g>
    </g>
    <g id="ytick_5">
     <g id="line2d_14">
      <g>
       <use style="stroke:#000000;stroke-width:0.8;" x="57.6" xlink:href="#m4ecf6a62ef" y="43.16194"/>
      </g>
     </g>
     <g id="text_15">
      <!-- 2.0 -->
      <g transform="translate(36.7375 46.91194)scale(0.1 -0.1)">
       <use xlink:href="#Roboto-Regular-32"/>
       <use x="56.152344" xlink:href="#Roboto-Regular-2e"/>
       <use x="82.470703" xlink:href="#Roboto-Regular-30"/>
      </g>
     </g>
    </g>
    <g id="text_16">
     <!-- Intensity (ph cm$^5$ s$^{-1}$ bin$^{-1}$) -->
     <defs>
      <path d="M 18.3125 0 
L 8.9375 0 
L 8.9375 71.09375 
L 18.3125 71.09375 
z
" id="Roboto-Regular-49"/>
      <path d="M 19.09375 65.625 
L 19.09375 52.828125 
L 28.953125 52.828125 
L 28.953125 45.84375 
L 19.09375 45.84375 
L 19.09375 13.09375 
Q 19.09375 9.90625 20.40625 8.3125 
Q 21.734375 6.734375 24.90625 6.734375 
Q 26.46875 6.734375 29.203125 7.328125 
L 29.203125 0 
Q 25.640625 -0.984375 22.265625 -0.984375 
Q 16.21875 -0.984375 13.140625 2.671875 
Q 10.0625 6.34375 10.0625 13.09375 
L 10.0625 45.84375 
L 0.4375 45.84375 
L 0.4375 52.828125 
L 10.0625 52.828125 
L 10.0625 65.625 
z
" id="Roboto-Regular-74"/>
      <path d="M 37.59375 14.015625 
Q 37.59375 17.671875 34.828125 19.703125 
Q 32.078125 21.734375 25.21875 23.1875 
Q 18.359375 24.65625 14.328125 26.703125 
Q 10.296875 28.765625 8.375 31.59375 
Q 6.453125 34.421875 6.453125 38.328125 
Q 6.453125 44.828125 11.9375 49.3125 
Q 17.4375 53.8125 25.984375 53.8125 
Q 34.96875 53.8125 40.546875 49.171875 
Q 46.140625 44.53125 46.140625 37.3125 
L 37.0625 37.3125 
Q 37.0625 41.015625 33.90625 43.703125 
Q 30.765625 46.390625 25.984375 46.390625 
Q 21.046875 46.390625 18.265625 44.234375 
Q 15.484375 42.09375 15.484375 38.625 
Q 15.484375 35.359375 18.0625 33.6875 
Q 20.65625 32.03125 27.421875 30.515625 
Q 34.1875 29 38.375 26.90625 
Q 42.578125 24.8125 44.59375 21.84375 
Q 46.625 18.890625 46.625 14.65625 
Q 46.625 7.5625 40.953125 3.28125 
Q 35.296875 -0.984375 26.265625 -0.984375 
Q 19.921875 -0.984375 15.03125 1.265625 
Q 10.15625 3.515625 7.390625 7.546875 
Q 4.640625 11.578125 4.640625 16.265625 
L 13.671875 16.265625 
Q 13.921875 11.71875 17.3125 9.046875 
Q 20.703125 6.390625 26.265625 6.390625 
Q 31.390625 6.390625 34.484375 8.46875 
Q 37.59375 10.546875 37.59375 14.015625 
z
" id="Roboto-Regular-73"/>
      <path d="M 16.65625 0 
L 7.625 0 
L 7.625 52.828125 
L 16.65625 52.828125 
z
M 6.890625 66.84375 
Q 6.890625 69.046875 8.234375 70.5625 
Q 9.578125 72.078125 12.203125 72.078125 
Q 14.84375 72.078125 16.203125 70.5625 
Q 17.578125 69.046875 17.578125 66.84375 
Q 17.578125 64.65625 16.203125 63.1875 
Q 14.84375 61.71875 12.203125 61.71875 
Q 9.578125 61.71875 8.234375 63.1875 
Q 6.890625 64.65625 6.890625 66.84375 
z
" id="Roboto-Regular-69"/>
      <path d="M 51.46875 25.828125 
Q 51.46875 13.765625 45.953125 6.390625 
Q 40.4375 -0.984375 31 -0.984375 
Q 21.390625 -0.984375 15.875 5.125 
L 15.875 -20.3125 
L 6.84375 -20.3125 
L 6.84375 52.828125 
L 15.09375 52.828125 
L 15.53125 46.96875 
Q 21.046875 53.8125 30.859375 53.8125 
Q 40.375 53.8125 45.921875 46.625 
Q 51.46875 39.453125 51.46875 26.65625 
z
M 42.4375 26.859375 
Q 42.4375 35.796875 38.625 40.96875 
Q 34.8125 46.140625 28.171875 46.140625 
Q 19.96875 46.140625 15.875 38.875 
L 15.875 13.625 
Q 19.921875 6.390625 28.265625 6.390625 
Q 34.765625 6.390625 38.59375 11.546875 
Q 42.4375 16.703125 42.4375 26.859375 
z
" id="Roboto-Regular-70"/>
      <path d="M 15.875 46.4375 
Q 21.875 53.8125 31.5 53.8125 
Q 48.25 53.8125 48.390625 34.90625 
L 48.390625 0 
L 39.359375 0 
L 39.359375 34.96875 
Q 39.3125 40.671875 36.75 43.40625 
Q 34.1875 46.140625 28.765625 46.140625 
Q 24.359375 46.140625 21.03125 43.796875 
Q 17.71875 41.453125 15.875 37.640625 
L 15.875 0 
L 6.84375 0 
L 6.84375 75 
L 15.875 75 
z
" id="Roboto-Regular-68"/>
      <path d="M 28.03125 6.390625 
Q 32.859375 6.390625 36.46875 9.3125 
Q 40.09375 12.25 40.484375 16.65625 
L 49.03125 16.65625 
Q 48.78125 12.109375 45.890625 8 
Q 43.015625 3.90625 38.203125 1.453125 
Q 33.40625 -0.984375 28.03125 -0.984375 
Q 17.234375 -0.984375 10.859375 6.21875 
Q 4.5 13.421875 4.5 25.921875 
L 4.5 27.4375 
Q 4.5 35.15625 7.328125 41.15625 
Q 10.15625 47.171875 15.453125 50.484375 
Q 20.75 53.8125 27.984375 53.8125 
Q 36.859375 53.8125 42.75 48.484375 
Q 48.640625 43.171875 49.03125 34.671875 
L 40.484375 34.671875 
Q 40.09375 39.796875 36.59375 43.09375 
Q 33.109375 46.390625 27.984375 46.390625 
Q 21.09375 46.390625 17.3125 41.421875 
Q 13.53125 36.46875 13.53125 27.09375 
L 13.53125 25.390625 
Q 13.53125 16.265625 17.28125 11.328125 
Q 21.046875 6.390625 28.03125 6.390625 
z
" id="Roboto-Regular-63"/>
      <path d="M 15.328125 52.828125 
L 15.578125 46.96875 
Q 21.390625 53.8125 31.25 53.8125 
Q 42.328125 53.8125 46.34375 45.3125 
Q 48.96875 49.125 53.1875 51.46875 
Q 57.421875 53.8125 63.1875 53.8125 
Q 80.5625 53.8125 80.859375 35.40625 
L 80.859375 0 
L 71.828125 0 
L 71.828125 34.859375 
Q 71.828125 40.53125 69.234375 43.328125 
Q 66.65625 46.140625 60.546875 46.140625 
Q 55.515625 46.140625 52.1875 43.140625 
Q 48.875 40.140625 48.34375 35.0625 
L 48.34375 0 
L 39.265625 0 
L 39.265625 34.625 
Q 39.265625 46.140625 27.984375 46.140625 
Q 19.09375 46.140625 15.828125 38.578125 
L 15.828125 0 
L 6.78125 0 
L 6.78125 52.828125 
z
" id="Roboto-Regular-6d"/>
      <path d="M 48.96875 31.78125 
L 8.203125 31.78125 
L 8.203125 39.15625 
L 48.96875 39.15625 
z
" id="Roboto-Regular-2212"/>
      <path d="M 51.5625 25.828125 
Q 51.5625 13.71875 46 6.359375 
Q 40.4375 -0.984375 31.0625 -0.984375 
Q 21.046875 -0.984375 15.578125 6.109375 
L 15.140625 0 
L 6.84375 0 
L 6.84375 75 
L 15.875 75 
L 15.875 47.015625 
Q 21.34375 53.8125 30.953125 53.8125 
Q 40.578125 53.8125 46.0625 46.53125 
Q 51.5625 39.265625 51.5625 26.609375 
z
M 42.53125 26.859375 
Q 42.53125 36.078125 38.96875 41.109375 
Q 35.40625 46.140625 28.71875 46.140625 
Q 19.78125 46.140625 15.875 37.84375 
L 15.875 14.984375 
Q 20.015625 6.6875 28.8125 6.6875 
Q 35.296875 6.6875 38.90625 11.71875 
Q 42.53125 16.75 42.53125 26.859375 
z
" id="Roboto-Regular-62"/>
     </defs>
     <g transform="translate(30.4375 158.033538)rotate(-90)scale(0.1 -0.1)">
      <use transform="translate(0 0.014063)" xlink:href="#Roboto-Regular-49"/>
      <use transform="translate(27.197266 0.014063)" xlink:href="#Roboto-Regular-6e"/>
      <use transform="translate(82.373047 0.014063)" xlink:href="#Roboto-Regular-74"/>
      <use transform="translate(115.039062 0.014063)" xlink:href="#Roboto-Regular-65"/>
      <use transform="translate(168.017578 0.014063)" xlink:href="#Roboto-Regular-6e"/>
      <use transform="translate(223.193359 0.014063)" xlink:href="#Roboto-Regular-73"/>
      <use transform="translate(274.755859 0.014063)" xlink:href="#Roboto-Regular-69"/>
      <use transform="translate(299.023438 0.014063)" xlink:href="#Roboto-Regular-74"/>
      <use transform="translate(331.689453 0.014063)" xlink:href="#Roboto-Regular-79"/>
      <use transform="translate(379.003906 0.014063)" xlink:href="#Roboto-Regular-20"/>
      <use transform="translate(403.759766 0.014063)" xlink:href="#Roboto-Regular-28"/>
      <use transform="translate(437.939453 0.014063)" xlink:href="#Roboto-Regular-70"/>
      <use transform="translate(494.042969 0.014063)" xlink:href="#Roboto-Regular-68"/>
      <use transform="translate(549.121094 0.014063)" xlink:href="#Roboto-Regular-20"/>
      <use transform="translate(573.876953 0.014063)" xlink:href="#Roboto-Regular-63"/>
      <use transform="translate(626.220703 0.014063)" xlink:href="#Roboto-Regular-6d"/>
      <use transform="translate(714.79168 36.99375)scale(0.7)" xlink:href="#Roboto-Regular-35"/>
      <use transform="translate(756.739727 0.014063)" xlink:href="#Roboto-Regular-20"/>
      <use transform="translate(781.495586 0.014063)" xlink:href="#Roboto-Regular-73"/>
      <use transform="translate(833.982578 36.99375)scale(0.7)" xlink:href="#Roboto-Regular-2212"/>
      <use transform="translate(873.972813 36.99375)scale(0.7)" xlink:href="#Roboto-Regular-31"/>
      <use transform="translate(915.920859 0.014063)" xlink:href="#Roboto-Regular-20"/>
      <use transform="translate(940.676719 0.014063)" xlink:href="#Roboto-Regular-62"/>
      <use transform="translate(996.780234 0.014063)" xlink:href="#Roboto-Regular-69"/>
      <use transform="translate(1021.047812 0.014063)" xlink:href="#Roboto-Regular-6e"/>
      <use transform="translate(1077.148086 36.99375)scale(0.7)" xlink:href="#Roboto-Regular-2212"/>
      <use transform="translate(1117.13832 36.99375)scale(0.7)" xlink:href="#Roboto-Regular-31"/>
      <use transform="translate(1159.086367 0.014063)" xlink:href="#Roboto-Regular-29"/>
     </g>
    </g>
    <g id="text_17">
     <!-- 1e−15 -->
     <g transform="translate(57.6 38.472)scale(0.1 -0.1)">
      <use xlink:href="#Roboto-Regular-31"/>
      <use x="56.152344" xlink:href="#Roboto-Regular-65"/>
      <use x="109.130859" xlink:href="#Roboto-Regular-2212"/>
      <use x="166.259766" xlink:href="#Roboto-Regular-31"/>
      <use x="222.412109" xlink:href="#Roboto-Regular-35"/>
     </g>
    </g>
   </g>
   <g id="line2d_15">
    <path clip-path="url(#p7251ceb6cc)" d="M 57.510711 150.014448 
L 57.510711 150.016665 
L 62.7609 150.016878 
L 62.7609 149.808015 
L 62.885905 149.808015 
L 62.885905 150.001953 
L 63.885941 150.016911 
L 63.885941 148.045799 
L 64.010945 148.045799 
L 64.010945 150.00168 
L 65.886013 149.987429 
L 65.886013 149.72494 
L 66.011017 149.72494 
L 66.011017 150.016774 
L 72.76126 149.979217 
L 72.76126 149.611608 
L 72.886265 149.611608 
L 72.886265 150.010611 
L 74.761332 150.017143 
L 74.761332 149.891136 
L 74.886337 149.891136 
L 74.886337 150.017129 
L 78.386463 149.957379 
L 78.386463 149.852572 
L 78.511467 149.852572 
L 78.511467 150.017025 
L 79.261494 149.972115 
L 79.261494 149.364564 
L 79.386499 149.364564 
L 79.386499 150.017007 
L 79.886517 150.015509 
L 79.886517 149.896656 
L 80.011521 149.896656 
L 80.011521 150.014101 
L 80.26153 150.016996 
L 80.26153 149.051447 
L 80.386535 149.051447 
L 80.386535 150.016994 
L 82.886625 150.017146 
L 82.886625 149.887542 
L 83.011629 149.887542 
L 83.011629 150.016591 
L 85.636724 150.015243 
L 85.636724 149.881057 
L 85.761728 149.881057 
L 85.761728 150.017201 
L 91.136922 150.017345 
L 91.136922 149.763905 
L 91.261926 149.763905 
L 91.261926 150.017362 
L 94.262034 150.014583 
L 94.262034 149.674967 
L 94.387039 149.674967 
L 94.387039 150.017488 
L 94.762052 150.015189 
L 94.762052 149.448509 
L 94.887057 149.448509 
L 94.887057 150.017506 
L 102.512331 149.959533 
L 102.512331 149.591565 
L 102.637336 149.591565 
L 102.637336 84.281047 
L 102.76234 84.281047 
L 102.76234 150.01742 
L 103.137354 150.01741 
L 103.137354 149.647395 
L 103.262358 149.647395 
L 103.262358 150.015999 
L 103.387363 150.015999 
L 103.387363 149.640168 
L 103.512367 149.640168 
L 103.512367 150.016761 
L 104.887417 150.017666 
L 104.887417 149.626338 
L 105.012421 149.626338 
L 105.012421 150.017664 
L 106.012457 150.017653 
L 106.012457 73.342179 
L 106.137462 73.342179 
L 106.137462 150.016926 
L 108.762556 150.017697 
L 108.762556 149.89098 
L 109.012565 149.890263 
L 109.012565 150.017719 
L 109.512583 150.017741 
L 109.512583 149.904059 
L 109.637588 149.904059 
L 109.637588 150.017755 
L 110.137606 150.017053 
L 110.137606 149.64992 
L 110.26261 149.64992 
L 110.26261 150.017778 
L 113.637732 150.01567 
L 113.637732 149.879591 
L 113.762736 149.879591 
L 113.762736 150.017852 
L 118.012889 150.010722 
L 118.012889 149.836203 
L 118.137894 149.836203 
L 118.137894 150.017958 
L 119.512943 149.956385 
L 119.512943 149.902142 
L 119.762952 149.999107 
L 119.762952 150.017934 
L 124.013105 150.016993 
L 124.013105 149.793559 
L 124.13811 149.793559 
L 124.13811 150.015651 
L 127.013213 150.018049 
L 127.013213 92.787309 
L 127.138218 92.787309 
L 127.138218 150.018029 
L 135.013501 150.017946 
L 135.013501 149.471291 
L 135.138506 149.471291 
L 135.138506 150.017949 
L 139.263654 150.017947 
L 139.263654 147.237988 
L 139.388659 147.237988 
L 139.388659 150.007092 
L 143.888821 150.017987 
L 143.888821 145.340067 
L 144.013825 145.340067 
L 144.013825 150.017987 
L 161.63946 150.01833 
L 161.63946 148.321684 
L 161.764464 148.321684 
L 161.764464 150.018338 
L 164.13955 150.018389 
L 164.13955 149.768563 
L 164.264554 149.768563 
L 164.264554 150.018391 
L 171.764824 150.01415 
L 171.764824 148.833805 
L 171.889829 148.833805 
L 171.889829 150.017353 
L 177.640036 150.01862 
L 177.640036 149.2788 
L 177.765041 149.2788 
L 177.765041 150.018618 
L 185.140306 149.908661 
L 185.140306 146.409643 
L 185.265311 146.409643 
L 185.265311 150.018727 
L 187.390387 150.018726 
L 187.390387 149.689248 
L 187.515392 149.689248 
L 187.515392 150.018735 
L 190.765509 150.018842 
L 190.765509 129.930759 
L 190.890513 129.930759 
L 190.890513 147.882384 
L 191.015518 147.882384 
L 191.015518 150.018835 
L 191.64054 150.018825 
L 191.64054 148.526376 
L 191.765545 148.526376 
L 191.765545 150.017643 
L 197.265743 150.00482 
L 197.265743 149.512048 
L 197.390747 149.512048 
L 197.390747 150.018948 
L 202.640936 150.01534 
L 202.640936 149.185488 
L 202.765941 149.185488 
L 202.765941 150.018979 
L 206.64108 150.019044 
L 206.64108 148.692426 
L 206.766085 148.692426 
L 206.766085 150.019046 
L 212.391287 150.019118 
L 212.391287 149.730911 
L 212.516292 149.730911 
L 212.516292 150.013324 
L 212.766301 150.017669 
L 212.766301 149.877186 
L 212.891305 149.877186 
L 212.891305 150.019117 
L 213.391323 149.980013 
L 213.391323 149.726564 
L 213.516328 149.726564 
L 213.516328 150.019116 
L 214.266355 149.994563 
L 214.266355 149.626634 
L 214.391359 149.626634 
L 214.391359 150.019115 
L 223.141674 150.017074 
L 223.141674 148.904152 
L 223.266679 148.904152 
L 223.266679 150.019258 
L 224.516724 150.019305 
L 224.516724 147.996061 
L 224.641728 147.996061 
L 224.641728 150.019293 
L 225.141746 150.019275 
L 225.141746 149.892545 
L 225.391755 150.000436 
L 225.391755 150.016208 
L 233.01703 150.018751 
L 233.01703 149.779794 
L 233.142034 149.779794 
L 233.142034 150.013698 
L 234.14207 150.019431 
L 234.14207 149.880385 
L 234.267075 149.880385 
L 234.267075 150.019407 
L 235.642124 150.019377 
L 235.642124 149.267733 
L 235.767129 149.267733 
L 235.767129 150.017554 
L 236.392151 150.015829 
L 236.392151 148.674739 
L 236.517156 148.674739 
L 236.517156 149.895794 
L 236.64216 149.895794 
L 236.64216 150.018762 
L 240.267291 149.999904 
L 240.267291 143.93765 
L 240.392295 143.93765 
L 240.392295 150.019443 
L 240.642304 150.019449 
L 240.642304 148.966454 
L 240.767309 148.966454 
L 240.767309 150.019471 
L 241.64234 150.018814 
L 241.64234 149.723376 
L 241.767345 149.723376 
L 241.767345 150.01956 
L 243.892421 150.019591 
L 243.892421 149.840005 
L 244.017426 149.840005 
L 244.017426 150.01959 
L 244.14243 150.01959 
L 244.14243 149.448245 
L 244.267435 149.448245 
L 244.267435 150.018865 
L 245.267471 150.019584 
L 245.267471 149.09631 
L 245.392475 149.09631 
L 245.392475 150.019583 
L 245.51748 150.019583 
L 245.51748 149.701686 
L 245.642484 149.701686 
L 245.642484 150.010168 
L 245.892493 150.019582 
L 245.892493 149.516304 
L 246.017498 149.516304 
L 246.017498 149.165095 
L 246.142502 149.165095 
L 246.142502 150.019578 
L 246.892529 150.015227 
L 246.892529 149.736433 
L 247.017534 149.736433 
L 247.017534 149.938467 
L 248.01757 150.015952 
L 248.01757 149.4533 
L 248.142574 149.4533 
L 248.142574 150.018855 
L 249.517624 150.019612 
L 249.517624 149.790067 
L 249.642628 149.790067 
L 249.642628 150.019625 
L 249.892637 150.019631 
L 249.892637 149.848017 
L 250.017642 149.848017 
L 250.017642 150.019644 
L 253.642772 150.008846 
L 253.642772 149.863296 
L 253.767777 149.863296 
L 253.767777 150.019713 
L 258.267939 150.018315 
L 258.267939 126.18188 
L 258.392943 126.18188 
L 258.392943 150.019768 
L 258.517948 150.019768 
L 258.517948 149.830776 
L 258.767957 149.923473 
L 258.767957 150.019791 
L 259.017966 150.019798 
L 259.017966 149.51653 
L 259.14297 149.51653 
L 259.14297 150.019813 
L 261.518056 150.019879 
L 261.518056 149.848259 
L 261.64306 149.848259 
L 261.64306 150.019881 
L 266.393231 150.011954 
L 266.393231 143.554295 
L 266.518236 143.554295 
L 266.518236 150.019928 
L 267.643276 150.019951 
L 267.643276 149.03368 
L 267.768281 149.03368 
L 267.768281 150.00402 
L 276.768605 150.020082 
L 276.768605 149.885359 
L 276.893609 149.885359 
L 276.893609 150.020084 
L 278.643672 150.004038 
L 278.643672 143.533249 
L 278.768677 143.533249 
L 278.768677 150.020084 
L 282.143798 150.02014 
L 282.143798 75.360102 
L 282.268803 75.360102 
L 282.268803 150.020147 
L 286.268947 150.020238 
L 286.268947 149.896413 
L 286.393951 149.896413 
L 286.393951 150.020242 
L 287.894005 150.020256 
L 287.894005 144.564611 
L 288.01901 144.564611 
L 288.01901 150.020258 
L 294.269235 150.020328 
L 294.269235 149.829153 
L 294.394239 149.829153 
L 294.394239 150.020323 
L 301.394491 150.020353 
L 301.394491 147.073508 
L 301.519496 147.073508 
L 301.519496 150.02037 
L 308.519748 149.950949 
L 308.519748 149.890848 
L 308.644752 149.890848 
L 308.644752 150.02047 
L 320.395176 150.01992 
L 320.395176 148.484499 
L 320.52018 148.484499 
L 320.52018 150.020642 
L 322.270243 150.020701 
L 322.270243 149.884569 
L 322.395248 149.884569 
L 322.395248 150.020713 
L 327.020414 150.020732 
L 327.020414 149.472566 
L 327.145419 149.472566 
L 327.145419 150.020742 
L 328.02045 150.020773 
L 328.02045 149.774566 
L 328.145455 149.774566 
L 328.145455 150.020772 
L 330.895554 150.020759 
L 330.895554 148.980897 
L 331.020558 148.980897 
L 331.020558 150.020759 
L 331.89559 150.020135 
L 331.89559 149.103244 
L 332.020594 149.103244 
L 332.020594 150.020776 
L 338.520828 150.020758 
L 338.520828 149.869406 
L 338.645833 149.869406 
L 338.645833 150.020747 
L 339.145851 150.020768 
L 339.145851 149.759361 
L 339.270855 149.759361 
L 339.270855 149.428934 
L 339.39586 149.428934 
L 339.39586 150.02079 
L 340.395896 150.020841 
L 340.395896 149.899917 
L 340.5209 149.899917 
L 340.5209 150.020219 
L 341.395932 150.020872 
L 341.395932 149.884738 
L 341.520936 149.884738 
L 341.520936 150.019928 
L 342.395968 150.01981 
L 342.395968 149.759482 
L 342.520972 149.759482 
L 342.520972 150.020895 
L 344.39604 150.020898 
L 344.39604 149.66673 
L 344.521044 149.66673 
L 344.521044 150.020904 
L 345.146067 150.020918 
L 345.146067 149.741404 
L 345.271071 149.741404 
L 345.271071 150.020925 
L 347.896166 150.020932 
L 347.896166 148.800764 
L 348.02117 148.800764 
L 348.02117 149.768242 
L 348.146175 149.768242 
L 348.146175 150.020949 
L 351.146283 150.021058 
L 351.146283 149.45551 
L 351.271287 149.45551 
L 351.271287 150.021058 
L 360.52162 150.021112 
L 360.52162 148.996454 
L 360.646625 148.996454 
L 360.646625 150.021104 
L 365.771809 150.017186 
L 365.771809 145.092333 
L 365.896814 145.092333 
L 365.896814 150.01503 
L 380.272331 150.017483 
L 380.272331 149.48099 
L 380.397336 149.48099 
L 380.397336 150.01749 
L 381.147363 150.014948 
L 381.147363 149.905991 
L 381.272367 149.905991 
L 381.272367 150.017512 
L 384.147471 150.01761 
L 384.147471 149.316374 
L 384.272475 149.316374 
L 384.272475 150.017018 
L 387.147579 149.998931 
L 387.147579 149.831204 
L 387.272583 149.831204 
L 387.272583 150.009932 
L 394.272835 150.013008 
L 394.272835 149.723813 
L 394.39784 149.723813 
L 394.39784 150.017816 
L 401.273087 150.018019 
L 401.273087 148.718916 
L 401.398092 148.718916 
L 401.398092 150.018012 
L 409.023366 150.018111 
L 409.023366 144.803591 
L 409.148371 144.803591 
L 409.148371 150.01811 
L 414.273555 150.018245 
L 414.273555 149.482478 
L 414.39856 149.482478 
L 414.39856 150.018254 
L 414.773573 150.018262 
L 414.773573 150.018262 
" style="fill:none;stroke:#1f77b4;stroke-linecap:square;stroke-width:1.5;"/>
   </g>
   <g id="patch_3">
    <path d="M 57.6 155.195077 
L 57.6 41.472 
" style="fill:none;stroke:#000000;stroke-linecap:square;stroke-linejoin:miter;stroke-width:0.8;"/>
   </g>
   <g id="patch_4">
    <path d="M 414.72 155.195077 
L 414.72 41.472 
" style="fill:none;stroke:#000000;stroke-linecap:square;stroke-linejoin:miter;stroke-width:0.8;"/>
   </g>
   <g id="patch_5">
    <path d="M 57.6 155.195077 
L 414.72 155.195077 
" style="fill:none;stroke:#000000;stroke-linecap:square;stroke-linejoin:miter;stroke-width:0.8;"/>
   </g>
   <g id="patch_6">
    <path d="M 57.6 41.472 
L 414.72 41.472 
" style="fill:none;stroke:#000000;stroke-linecap:square;stroke-linejoin:miter;stroke-width:0.8;"/>
   </g>
   <g id="legend_1">
    <g id="patch_7">
     <path d="M 298.709063 64.106375 
L 407.72 64.106375 
Q 409.72 64.106375 409.72 62.106375 
L 409.72 48.472 
Q 409.72 46.472 407.72 46.472 
L 298.709063 46.472 
Q 296.709063 46.472 296.709063 48.472 
L 296.709063 62.106375 
Q 296.709063 64.106375 298.709063 64.106375 
z
" style="fill:#ffffff;opacity:0.8;stroke:#cccccc;stroke-linejoin:miter;"/>
    </g>
    <g id="line2d_16">
     <path d="M 300.709063 54.472 
L 320.709063 54.472 
" style="fill:none;stroke:#1f77b4;stroke-linecap:square;stroke-width:1.5;"/>
    </g>
    <g id="line2d_17"/>
    <g id="text_18">
     <!-- dummy response -->
     <defs>
      <path d="M 4.640625 26.859375 
Q 4.640625 39.015625 10.390625 46.40625 
Q 16.15625 53.8125 25.484375 53.8125 
Q 34.765625 53.8125 40.1875 47.46875 
L 40.1875 75 
L 49.21875 75 
L 49.21875 0 
L 40.921875 0 
L 40.484375 5.671875 
Q 35.0625 -0.984375 25.390625 -0.984375 
Q 16.21875 -0.984375 10.421875 6.53125 
Q 4.640625 14.0625 4.640625 26.171875 
z
M 13.671875 25.828125 
Q 13.671875 16.84375 17.375 11.765625 
Q 21.09375 6.6875 27.640625 6.6875 
Q 36.234375 6.6875 40.1875 14.40625 
L 40.1875 38.671875 
Q 36.140625 46.140625 27.734375 46.140625 
Q 21.09375 46.140625 17.375 41.015625 
Q 13.671875 35.890625 13.671875 25.828125 
z
" id="Roboto-Regular-64"/>
      <path d="M 39.453125 5.21875 
Q 34.1875 -0.984375 23.96875 -0.984375 
Q 15.53125 -0.984375 11.109375 3.921875 
Q 6.6875 8.84375 6.640625 18.453125 
L 6.640625 52.828125 
L 15.671875 52.828125 
L 15.671875 18.703125 
Q 15.671875 6.6875 25.4375 6.6875 
Q 35.796875 6.6875 39.203125 14.40625 
L 39.203125 52.828125 
L 48.25 52.828125 
L 48.25 0 
L 39.65625 0 
z
" id="Roboto-Regular-75"/>
      <path d="M 4.4375 26.90625 
Q 4.4375 34.671875 7.484375 40.875 
Q 10.546875 47.078125 15.984375 50.4375 
Q 21.4375 53.8125 28.421875 53.8125 
Q 39.203125 53.8125 45.875 46.34375 
Q 52.546875 38.875 52.546875 26.46875 
L 52.546875 25.828125 
Q 52.546875 18.109375 49.578125 11.984375 
Q 46.625 5.859375 41.125 2.4375 
Q 35.640625 -0.984375 28.515625 -0.984375 
Q 17.78125 -0.984375 11.109375 6.484375 
Q 4.4375 13.96875 4.4375 26.265625 
z
M 13.53125 25.828125 
Q 13.53125 17.046875 17.609375 11.71875 
Q 21.6875 6.390625 28.515625 6.390625 
Q 35.40625 6.390625 39.453125 11.78125 
Q 43.5 17.1875 43.5 26.90625 
Q 43.5 35.59375 39.375 40.984375 
Q 35.25 46.390625 28.421875 46.390625 
Q 21.734375 46.390625 17.625 41.0625 
Q 13.53125 35.75 13.53125 25.828125 
z
" id="Roboto-Regular-6f"/>
     </defs>
     <g transform="translate(328.709063 57.972)scale(0.1 -0.1)">
      <use xlink:href="#Roboto-Regular-64"/>
      <use x="56.396484" xlink:href="#Roboto-Regular-75"/>
      <use x="111.523438" xlink:href="#Roboto-Regular-6d"/>
      <use x="199.169922" xlink:href="#Roboto-Regular-6d"/>
      <use x="286.816406" xlink:href="#Roboto-Regular-79"/>
      <use x="334.130859" xlink:href="#Roboto-Regular-20"/>
      <use x="358.886719" xlink:href="#Roboto-Regular-72"/>
      <use x="392.724609" xlink:href="#Roboto-Regular-65"/>
      <use x="445.703125" xlink:href="#Roboto-Regular-73"/>
      <use x="497.265625" xlink:href="#Roboto-Regular-70"/>
      <use x="553.369141" xlink:href="#Roboto-Regular-6f"/>
      <use x="610.400391" xlink:href="#Roboto-Regular-6e"/>
      <use x="665.576172" xlink:href="#Roboto-Regular-73"/>
      <use x="717.138672" xlink:href="#Roboto-Regular-65"/>
     </g>
    </g>
   </g>
  </g>
  <g id="axes_2">
   <g id="patch_8">
    <path d="M 57.6 307.584 
L 414.72 307.584 
L 414.72 193.860923 
L 57.6 193.860923 
z
" style="fill:#ffffff;"/>
   </g>
   <g id="matplotlib.axis_3">
    <g id="xtick_10">
     <g id="line2d_18">
      <g>
       <use style="stroke:#000000;stroke-width:0.8;" x="57.6" xlink:href="#mca95443336" y="307.584"/>
      </g>
     </g>
     <g id="text_19">
      <!-- 0.700 -->
      <g transform="translate(45.053125 322.084)scale(0.1 -0.1)">
       <use xlink:href="#Roboto-Regular-30"/>
       <use x="56.152344" xlink:href="#Roboto-Regular-2e"/>
       <use x="82.470703" xlink:href="#Roboto-Regular-37"/>
       <use x="138.623047" xlink:href="#Roboto-Regular-30"/>
       <use x="194.775391" xlink:href="#Roboto-Regular-30"/>
      </g>
     </g>
    </g>
    <g id="xtick_11">
     <g id="line2d_19">
      <g>
       <use style="stroke:#000000;stroke-width:0.8;" x="102.24" xlink:href="#mca95443336" y="307.584"/>
      </g>
     </g>
     <g id="text_20">
      <!-- 0.725 -->
      <g transform="translate(89.693125 322.084)scale(0.1 -0.1)">
       <use xlink:href="#Roboto-Regular-30"/>
       <use x="56.152344" xlink:href="#Roboto-Regular-2e"/>
       <use x="82.470703" xlink:href="#Roboto-Regular-37"/>
       <use x="138.623047" xlink:href="#Roboto-Regular-32"/>
       <use x="194.775391" xlink:href="#Roboto-Regular-35"/>
      </g>
     </g>
    </g>
    <g id="xtick_12">
     <g id="line2d_20">
      <g>
       <use style="stroke:#000000;stroke-width:0.8;" x="146.88" xlink:href="#mca95443336" y="307.584"/>
      </g>
     </g>
     <g id="text_21">
      <!-- 0.750 -->
      <g transform="translate(134.333125 322.084)scale(0.1 -0.1)">
       <use xlink:href="#Roboto-Regular-30"/>
       <use x="56.152344" xlink:href="#Roboto-Regular-2e"/>
       <use x="82.470703" xlink:href="#Roboto-Regular-37"/>
       <use x="138.623047" xlink:href="#Roboto-Regular-35"/>
       <use x="194.775391" xlink:href="#Roboto-Regular-30"/>
      </g>
     </g>
    </g>
    <g id="xtick_13">
     <g id="line2d_21">
      <g>
       <use style="stroke:#000000;stroke-width:0.8;" x="191.52" xlink:href="#mca95443336" y="307.584"/>
      </g>
     </g>
     <g id="text_22">
      <!-- 0.775 -->
      <g transform="translate(178.973125 322.084)scale(0.1 -0.1)">
       <use xlink:href="#Roboto-Regular-30"/>
       <use x="56.152344" xlink:href="#Roboto-Regular-2e"/>
       <use x="82.470703" xlink:href="#Roboto-Regular-37"/>
       <use x="138.623047" xlink:href="#Roboto-Regular-37"/>
       <use x="194.775391" xlink:href="#Roboto-Regular-35"/>
      </g>
     </g>
    </g>
    <g id="xtick_14">
     <g id="line2d_22">
      <g>
       <use style="stroke:#000000;stroke-width:0.8;" x="236.16" xlink:href="#mca95443336" y="307.584"/>
      </g>
     </g>
     <g id="text_23">
      <!-- 0.800 -->
      <g transform="translate(223.613125 322.084)scale(0.1 -0.1)">
       <use xlink:href="#Roboto-Regular-30"/>
       <use x="56.152344" xlink:href="#Roboto-Regular-2e"/>
       <use x="82.470703" xlink:href="#Roboto-Regular-38"/>
       <use x="138.623047" xlink:href="#Roboto-Regular-30"/>
       <use x="194.775391" xlink:href="#Roboto-Regular-30"/>
      </g>
     </g>
    </g>
    <g id="xtick_15">
     <g id="line2d_23">
      <g>
       <use style="stroke:#000000;stroke-width:0.8;" x="280.8" xlink:href="#mca95443336" y="307.584"/>
      </g>
     </g>
     <g id="text_24">
      <!-- 0.825 -->
      <g transform="translate(268.253125 322.084)scale(0.1 -0.1)">
       <use xlink:href="#Roboto-Regular-30"/>
       <use x="56.152344" xlink:href="#Roboto-Regular-2e"/>
       <use x="82.470703" xlink:href="#Roboto-Regular-38"/>
       <use x="138.623047" xlink:href="#Roboto-Regular-32"/>
       <use x="194.775391" xlink:href="#Roboto-Regular-35"/>
      </g>
     </g>
    </g>
    <g id="xtick_16">
     <g id="line2d_24">
      <g>
       <use style="stroke:#000000;stroke-width:0.8;" x="325.44" xlink:href="#mca95443336" y="307.584"/>
      </g>
     </g>
     <g id="text_25">
      <!-- 0.850 -->
      <g transform="translate(312.893125 322.084)scale(0.1 -0.1)">
       <use xlink:href="#Roboto-Regular-30"/>
       <use x="56.152344" xlink:href="#Roboto-Regular-2e"/>
       <use x="82.470703" xlink:href="#Roboto-Regular-38"/>
       <use x="138.623047" xlink:href="#Roboto-Regular-35"/>
       <use x="194.775391" xlink:href="#Roboto-Regular-30"/>
      </g>
     </g>
    </g>
    <g id="xtick_17">
     <g id="line2d_25">
      <g>
       <use style="stroke:#000000;stroke-width:0.8;" x="370.08" xlink:href="#mca95443336" y="307.584"/>
      </g>
     </g>
     <g id="text_26">
      <!-- 0.875 -->
      <g transform="translate(357.533125 322.084)scale(0.1 -0.1)">
       <use xlink:href="#Roboto-Regular-30"/>
       <use x="56.152344" xlink:href="#Roboto-Regular-2e"/>
       <use x="82.470703" xlink:href="#Roboto-Regular-38"/>
       <use x="138.623047" xlink:href="#Roboto-Regular-37"/>
       <use x="194.775391" xlink:href="#Roboto-Regular-35"/>
      </g>
     </g>
    </g>
    <g id="xtick_18">
     <g id="line2d_26">
      <g>
       <use style="stroke:#000000;stroke-width:0.8;" x="414.72" xlink:href="#mca95443336" y="307.584"/>
      </g>
     </g>
     <g id="text_27">
      <!-- 0.900 -->
      <g transform="translate(402.173125 322.084)scale(0.1 -0.1)">
       <use xlink:href="#Roboto-Regular-30"/>
       <use x="56.152344" xlink:href="#Roboto-Regular-2e"/>
       <use x="82.470703" xlink:href="#Roboto-Regular-39"/>
       <use x="138.623047" xlink:href="#Roboto-Regular-30"/>
       <use x="194.775391" xlink:href="#Roboto-Regular-30"/>
      </g>
     </g>
    </g>
    <g id="text_28">
     <!-- Energy (keV) -->
     <g transform="translate(207.996719 336.137125)scale(0.1 -0.1)">
      <use xlink:href="#Roboto-Regular-45"/>
      <use x="56.835938" xlink:href="#Roboto-Regular-6e"/>
      <use x="112.011719" xlink:href="#Roboto-Regular-65"/>
      <use x="164.990234" xlink:href="#Roboto-Regular-72"/>
      <use x="198.828125" xlink:href="#Roboto-Regular-67"/>
      <use x="254.931641" xlink:href="#Roboto-Regular-79"/>
      <use x="302.246094" xlink:href="#Roboto-Regular-20"/>
      <use x="327.001953" xlink:href="#Roboto-Regular-28"/>
      <use x="361.181641" xlink:href="#Roboto-Regular-6b"/>
      <use x="411.865234" xlink:href="#Roboto-Regular-65"/>
      <use x="464.84375" xlink:href="#Roboto-Regular-56"/>
      <use x="528.466797" xlink:href="#Roboto-Regular-29"/>
     </g>
    </g>
   </g>
   <g id="matplotlib.axis_4">
    <g id="ytick_6">
     <g id="line2d_27">
      <g>
       <use style="stroke:#000000;stroke-width:0.8;" x="57.6" xlink:href="#m4ecf6a62ef" y="302.414769"/>
      </g>
     </g>
     <g id="text_29">
      <!-- 0 -->
      <g transform="translate(44.984375 306.164769)scale(0.1 -0.1)">
       <use xlink:href="#Roboto-Regular-30"/>
      </g>
     </g>
    </g>
    <g id="ytick_7">
     <g id="line2d_28">
      <g>
       <use style="stroke:#000000;stroke-width:0.8;" x="57.6" xlink:href="#m4ecf6a62ef" y="275.830356"/>
      </g>
     </g>
     <g id="text_30">
      <!-- 1 -->
      <g transform="translate(44.984375 279.580356)scale(0.1 -0.1)">
       <use xlink:href="#Roboto-Regular-31"/>
      </g>
     </g>
    </g>
    <g id="ytick_8">
     <g id="line2d_29">
      <g>
       <use style="stroke:#000000;stroke-width:0.8;" x="57.6" xlink:href="#m4ecf6a62ef" y="249.245942"/>
      </g>
     </g>
     <g id="text_31">
      <!-- 2 -->
      <g transform="translate(44.984375 252.995942)scale(0.1 -0.1)">
       <use xlink:href="#Roboto-Regular-32"/>
      </g>
     </g>
    </g>
    <g id="ytick_9">
     <g id="line2d_30">
      <g>
       <use style="stroke:#000000;stroke-width:0.8;" x="57.6" xlink:href="#m4ecf6a62ef" y="222.661529"/>
      </g>
     </g>
     <g id="text_32">
      <!-- 3 -->
      <defs>
       <path d="M 19.046875 39.9375 
L 25.828125 39.9375 
Q 32.234375 40.046875 35.890625 43.3125 
Q 39.546875 46.578125 39.546875 52.15625 
Q 39.546875 64.65625 27.09375 64.65625 
Q 21.234375 64.65625 17.75 61.296875 
Q 14.265625 57.953125 14.265625 52.4375 
L 5.21875 52.4375 
Q 5.21875 60.890625 11.390625 66.484375 
Q 17.578125 72.078125 27.09375 72.078125 
Q 37.15625 72.078125 42.859375 66.75 
Q 48.578125 61.421875 48.578125 51.953125 
Q 48.578125 47.3125 45.578125 42.96875 
Q 42.578125 38.625 37.40625 36.46875 
Q 43.265625 34.625 46.453125 30.328125 
Q 49.65625 26.03125 49.65625 19.828125 
Q 49.65625 10.25 43.40625 4.625 
Q 37.15625 -0.984375 27.140625 -0.984375 
Q 17.140625 -0.984375 10.859375 4.4375 
Q 4.59375 9.859375 4.59375 18.75 
L 13.671875 18.75 
Q 13.671875 13.140625 17.328125 9.765625 
Q 21 6.390625 27.15625 6.390625 
Q 33.6875 6.390625 37.15625 9.8125 
Q 40.625 13.234375 40.625 19.625 
Q 40.625 25.828125 36.8125 29.140625 
Q 33.015625 32.46875 25.828125 32.5625 
L 19.046875 32.5625 
z
" id="Roboto-Regular-33"/>
      </defs>
      <g transform="translate(44.984375 226.411529)scale(0.1 -0.1)">
       <use xlink:href="#Roboto-Regular-33"/>
      </g>
     </g>
    </g>
    <g id="ytick_10">
     <g id="line2d_31">
      <g>
       <use style="stroke:#000000;stroke-width:0.8;" x="57.6" xlink:href="#m4ecf6a62ef" y="196.077115"/>
      </g>
     </g>
     <g id="text_33">
      <!-- 4 -->
      <defs>
       <path d="M 44.046875 23.875 
L 53.90625 23.875 
L 53.90625 16.5 
L 44.046875 16.5 
L 44.046875 0 
L 34.96875 0 
L 34.96875 16.5 
L 2.59375 16.5 
L 2.59375 21.828125 
L 34.421875 71.09375 
L 44.046875 71.09375 
z
M 12.84375 23.875 
L 34.96875 23.875 
L 34.96875 58.734375 
L 33.890625 56.78125 
z
" id="Roboto-Regular-34"/>
      </defs>
      <g transform="translate(44.984375 199.827115)scale(0.1 -0.1)">
       <use xlink:href="#Roboto-Regular-34"/>
      </g>
     </g>
    </g>
    <g id="text_34">
     <!-- Intensity (ph cm$^5$ s$^{-1}$ bin$^{-1}$) -->
     <g transform="translate(38.684375 310.422462)rotate(-90)scale(0.1 -0.1)">
      <use transform="translate(0 0.014063)" xlink:href="#Roboto-Regular-49"/>
      <use transform="translate(27.197266 0.014063)" xlink:href="#Roboto-Regular-6e"/>
      <use transform="translate(82.373047 0.014063)" xlink:href="#Roboto-Regular-74"/>
      <use transform="translate(115.039062 0.014063)" xlink:href="#Roboto-Regular-65"/>
      <use transform="translate(168.017578 0.014063)" xlink:href="#Roboto-Regular-6e"/>
      <use transform="translate(223.193359 0.014063)" xlink:href="#Roboto-Regular-73"/>
      <use transform="translate(274.755859 0.014063)" xlink:href="#Roboto-Regular-69"/>
      <use transform="translate(299.023438 0.014063)" xlink:href="#Roboto-Regular-74"/>
      <use transform="translate(331.689453 0.014063)" xlink:href="#Roboto-Regular-79"/>
      <use transform="translate(379.003906 0.014063)" xlink:href="#Roboto-Regular-20"/>
      <use transform="translate(403.759766 0.014063)" xlink:href="#Roboto-Regular-28"/>
      <use transform="translate(437.939453 0.014063)" xlink:href="#Roboto-Regular-70"/>
      <use transform="translate(494.042969 0.014063)" xlink:href="#Roboto-Regular-68"/>
      <use transform="translate(549.121094 0.014063)" xlink:href="#Roboto-Regular-20"/>
      <use transform="translate(573.876953 0.014063)" xlink:href="#Roboto-Regular-63"/>
      <use transform="translate(626.220703 0.014063)" xlink:href="#Roboto-Regular-6d"/>
      <use transform="translate(714.79168 36.99375)scale(0.7)" xlink:href="#Roboto-Regular-35"/>
      <use transform="translate(756.739727 0.014063)" xlink:href="#Roboto-Regular-20"/>
      <use transform="translate(781.495586 0.014063)" xlink:href="#Roboto-Regular-73"/>
      <use transform="translate(833.982578 36.99375)scale(0.7)" xlink:href="#Roboto-Regular-2212"/>
      <use transform="translate(873.972813 36.99375)scale(0.7)" xlink:href="#Roboto-Regular-31"/>
      <use transform="translate(915.920859 0.014063)" xlink:href="#Roboto-Regular-20"/>
      <use transform="translate(940.676719 0.014063)" xlink:href="#Roboto-Regular-62"/>
      <use transform="translate(996.780234 0.014063)" xlink:href="#Roboto-Regular-69"/>
      <use transform="translate(1021.047812 0.014063)" xlink:href="#Roboto-Regular-6e"/>
      <use transform="translate(1077.148086 36.99375)scale(0.7)" xlink:href="#Roboto-Regular-2212"/>
      <use transform="translate(1117.13832 36.99375)scale(0.7)" xlink:href="#Roboto-Regular-31"/>
      <use transform="translate(1159.086367 0.014063)" xlink:href="#Roboto-Regular-29"/>
     </g>
    </g>
    <g id="text_35">
     <!-- 1e−16 -->
     <defs>
      <path d="M 41.359375 71.140625 
L 41.359375 63.484375 
L 39.703125 63.484375 
Q 29.15625 63.28125 22.90625 57.21875 
Q 16.65625 51.171875 15.671875 40.1875 
Q 21.296875 46.625 31 46.625 
Q 40.28125 46.625 45.828125 40.078125 
Q 51.375 33.546875 51.375 23.1875 
Q 51.375 12.203125 45.390625 5.609375 
Q 39.40625 -0.984375 29.34375 -0.984375 
Q 19.140625 -0.984375 12.796875 6.859375 
Q 6.453125 14.703125 6.453125 27.046875 
L 6.453125 30.515625 
Q 6.453125 50.140625 14.8125 60.515625 
Q 23.1875 70.90625 39.75 71.140625 
z
M 29.5 39.109375 
Q 24.859375 39.109375 20.953125 36.328125 
Q 17.046875 33.546875 15.53125 29.34375 
L 15.53125 26.03125 
Q 15.53125 17.234375 19.484375 11.859375 
Q 23.4375 6.5 29.34375 6.5 
Q 35.453125 6.5 38.9375 10.984375 
Q 42.4375 15.484375 42.4375 22.75 
Q 42.4375 30.078125 38.890625 34.59375 
Q 35.359375 39.109375 29.5 39.109375 
z
" id="Roboto-Regular-36"/>
     </defs>
     <g transform="translate(57.6 190.860923)scale(0.1 -0.1)">
      <use xlink:href="#Roboto-Regular-31"/>
      <use x="56.152344" xlink:href="#Roboto-Regular-65"/>
      <use x="109.130859" xlink:href="#Roboto-Regular-2212"/>
      <use x="166.259766" xlink:href="#Roboto-Regular-31"/>
      <use x="222.412109" xlink:href="#Roboto-Regular-36"/>
     </g>
    </g>
   </g>
   <g id="line2d_32">
    <path clip-path="url(#p080d9ff7de)" d="M 57.390205 302.393207 
L 57.390205 302.392163 
L 63.059415 302.316292 
L 63.059415 302.24194 
L 63.415423 302.24194 
L 63.415423 302.122576 
L 64.841586 302.21537 
L 64.841586 302.312199 
L 79.283506 302.229122 
L 79.283506 302.152487 
L 81.11208 302.253194 
L 81.11208 302.328442 
L 94.060999 302.253395 
L 94.060999 302.180063 
L 95.557619 302.2661 
L 95.557619 302.298059 
L 100.445951 302.189619 
L 100.445951 302.050247 
L 100.823459 302.050247 
L 100.823459 301.738514 
L 101.201285 301.738514 
L 101.201285 300.582665 
L 101.579218 300.582665 
L 101.579218 296.740893 
L 101.957471 296.740893 
L 101.957471 290.093919 
L 102.335936 290.093919 
L 102.335936 285.345362 
L 102.714614 285.345362 
L 102.714614 287.448461 
L 103.093505 287.448461 
L 103.093505 293.928858 
L 103.472609 293.928858 
L 103.472609 298.827305 
L 103.851926 298.827305 
L 103.851926 300.538341 
L 104.231455 300.538341 
L 104.231455 300.953109 
L 104.611198 300.953109 
L 104.611198 299.911125 
L 104.991259 299.911125 
L 104.991259 295.478679 
L 105.371428 295.478679 
L 105.371428 287.655862 
L 105.751915 287.655862 
L 105.751915 282.100096 
L 106.132615 282.100096 
L 106.132615 284.753635 
L 106.513422 284.753635 
L 106.513422 292.614377 
L 106.894548 292.614377 
L 106.894548 298.521042 
L 107.275887 298.521042 
L 107.275887 300.695679 
L 107.657439 300.695679 
L 107.657439 301.610625 
L 108.039203 301.610625 
L 108.039203 301.9971 
L 108.421287 301.9971 
L 108.421287 302.114396 
L 110.334687 302.20004 
L 110.334687 302.236299 
L 114.178408 302.328923 
L 114.178408 302.349645 
L 123.887809 302.255686 
L 123.887809 302.230358 
L 125.06269 302.186105 
L 125.06269 302.055042 
L 125.454779 302.055042 
L 125.454779 301.716492 
L 125.84708 301.716492 
L 125.84708 300.467959 
L 126.239594 300.467959 
L 126.239594 296.242945 
L 126.632427 296.242945 
L 126.632427 288.848921 
L 127.025473 288.848921 
L 127.025473 283.578375 
L 127.418626 283.578375 
L 127.418626 286.047172 
L 127.812204 286.047172 
L 127.812204 293.390146 
L 128.205889 293.390146 
L 128.205889 298.853869 
L 128.599787 298.853869 
L 128.599787 300.840621 
L 128.994004 300.840621 
L 128.994004 301.69205 
L 129.388434 301.69205 
L 129.388434 302.065838 
L 129.783076 302.065838 
L 129.783076 302.202792 
L 130.968494 302.296752 
L 130.968494 302.316062 
L 134.935142 302.223453 
L 134.935142 302.168637 
L 136.12982 302.262627 
L 136.12982 302.313913 
L 138.52556 302.2498 
L 138.52556 302.019696 
L 138.925737 302.019696 
L 138.925737 301.615876 
L 139.326127 301.615876 
L 139.326127 301.326752 
L 139.72673 301.326752 
L 139.72673 301.46455 
L 140.127545 301.46455 
L 140.127545 301.871377 
L 140.52868 301.871377 
L 140.52868 302.171495 
L 141.331588 302.277193 
L 141.331588 302.316508 
L 142.53776 302.289167 
L 142.53776 302.172652 
L 142.940279 302.172652 
L 142.940279 301.771346 
L 143.343116 301.771346 
L 143.343116 301.059525 
L 143.746167 301.059525 
L 143.746167 300.546859 
L 144.149431 300.546859 
L 144.149431 300.782723 
L 144.552907 300.782723 
L 144.552907 301.491575 
L 144.956702 301.491575 
L 144.956702 302.020088 
L 145.360711 302.020088 
L 145.360711 302.216978 
L 146.169473 302.305185 
L 146.169473 302.343555 
L 160.896199 302.283182 
L 160.896199 302.129058 
L 161.309893 302.129058 
L 161.309893 301.857561 
L 161.7238 301.857561 
L 161.7238 301.661636 
L 162.552464 301.755089 
L 162.552464 302.03007 
L 162.967222 302.03007 
L 162.967222 302.226507 
L 165.460772 302.31486 
L 165.460772 302.344974 
L 170.895303 302.292518 
L 170.895303 302.185282 
L 171.31517 302.185282 
L 171.31517 301.983868 
L 171.735249 301.983868 
L 171.735249 301.836132 
L 172.576153 301.907574 
L 172.576153 302.116367 
L 172.997084 302.116367 
L 172.997084 302.269464 
L 177.220122 302.271073 
L 177.220122 302.151456 
L 178.916723 302.22466 
L 178.916723 302.310962 
L 183.603903 302.264745 
L 183.603903 302.133498 
L 184.031645 302.133498 
L 184.031645 301.669588 
L 184.459601 301.669588 
L 184.459601 300.838442 
L 184.887875 300.838442 
L 184.887875 300.238089 
L 185.316362 300.238089 
L 185.316362 300.516 
L 185.745169 300.516 
L 185.745169 301.33838 
L 186.174189 301.33838 
L 186.174189 301.925832 
L 186.603421 301.925832 
L 186.603421 302.092927 
L 188.753947 302.047019 
L 188.753947 301.874066 
L 189.184882 301.874066 
L 189.184882 301.116992 
L 189.616137 301.116992 
L 189.616137 298.413986 
L 190.047498 298.413986 
L 190.047498 293.372936 
L 190.479284 293.372936 
L 190.479284 289.270064 
L 190.911284 289.270064 
L 190.911284 290.152951 
L 191.343496 290.152951 
L 191.343496 294.778075 
L 191.776028 294.778075 
L 191.776028 298.823126 
L 192.208879 298.823126 
L 192.208879 300.761119 
L 192.641943 300.761119 
L 192.641943 301.682913 
L 193.07522 301.682913 
L 193.07522 302.052164 
L 193.508922 302.052164 
L 193.508922 302.193335 
L 196.987589 302.090048 
L 196.987589 302.000081 
L 197.859996 302.049229 
L 197.859996 302.181514 
L 198.733467 302.274128 
L 198.733467 302.305453 
L 201.799398 302.284701 
L 201.799398 302.165212 
L 202.238528 302.165212 
L 202.238528 301.940973 
L 202.677871 301.940973 
L 202.677871 301.772625 
L 203.557409 301.841844 
L 203.557409 302.063287 
L 203.997604 302.063287 
L 203.997604 302.222318 
L 205.761256 302.230773 
L 205.761256 302.045092 
L 206.202835 302.045092 
L 206.202835 301.690015 
L 206.644732 301.690015 
L 206.644732 301.428517 
L 207.086843 301.428517 
L 207.086843 301.554794 
L 207.529273 301.554794 
L 207.529273 301.918905 
L 207.972022 301.918905 
L 207.972022 302.176914 
L 208.858265 302.261809 
L 208.858265 302.292476 
L 211.969002 302.201395 
L 211.969002 302.051382 
L 212.414518 302.051382 
L 212.414518 301.903261 
L 214.646357 301.899465 
L 214.646357 302.020401 
L 215.093576 302.020401 
L 215.093576 302.169791 
L 215.988972 302.262824 
L 215.988972 302.284776 
L 222.288035 302.200391 
L 222.288035 302.006767 
L 222.740149 302.006767 
L 222.740149 301.639343 
L 223.192584 301.639343 
L 223.192584 301.29539 
L 223.645231 301.29539 
L 223.645231 301.067771 
L 224.098197 301.067771 
L 224.098197 300.752788 
L 224.551482 300.752788 
L 224.551482 300.481112 
L 225.004981 300.481112 
L 225.004981 300.751595 
L 225.458799 300.751595 
L 225.458799 301.449725 
L 225.912936 301.449725 
L 225.912936 301.966214 
L 226.367392 301.966214 
L 226.367392 302.158082 
L 234.596883 302.06604 
L 234.596883 301.916899 
L 235.05698 301.916899 
L 235.05698 301.527212 
L 235.517184 301.527212 
L 235.517184 300.974606 
L 235.977813 300.974606 
L 235.977813 300.726155 
L 236.438762 300.726155 
L 236.438762 301.065461 
L 236.899923 301.065461 
L 236.899923 301.629373 
L 237.361404 301.629373 
L 237.361404 301.967039 
L 238.747655 302.05266 
L 238.747655 301.829191 
L 239.210307 301.829191 
L 239.210307 300.823792 
L 239.673277 300.823792 
L 239.673277 298.809522 
L 240.136567 298.809522 
L 240.136567 297.108908 
L 240.600177 297.108908 
L 240.600177 297.448428 
L 241.063999 297.448428 
L 241.063999 299.311324 
L 241.528247 299.311324 
L 241.528247 300.861673 
L 241.992708 300.861673 
L 241.992708 301.558958 
L 242.457488 301.558958 
L 242.457488 301.905236 
L 243.387899 301.966505 
L 243.387899 301.780449 
L 243.853637 301.780449 
L 243.853637 301.554854 
L 244.319588 301.554854 
L 244.319588 301.372597 
L 244.785858 301.372597 
L 244.785858 301.02454 
L 245.252447 301.02454 
L 245.252447 300.541994 
L 245.719356 300.541994 
L 245.719356 300.429095 
L 246.186584 300.429095 
L 246.186584 300.881902 
L 246.654131 300.881902 
L 246.654131 301.439571 
L 247.121891 301.439571 
L 247.121891 301.723708 
L 248.996124 301.823644 
L 248.996124 301.910287 
L 250.405045 301.958552 
L 250.405045 302.062194 
L 251.345887 302.164782 
L 251.345887 302.209785 
L 253.703313 302.103465 
L 253.703313 302.093043 
L 255.594681 302.117968 
L 255.594681 301.981031 
L 256.068401 301.981031 
L 256.068401 301.624232 
L 256.542334 301.624232 
L 256.542334 300.438611 
L 257.016587 300.438611 
L 257.016587 296.006127 
L 257.491158 296.006127 
L 257.491158 287.604241 
L 257.966049 287.604241 
L 257.966049 281.258339 
L 258.441259 281.258339 
L 258.441259 283.940863 
L 258.916683 283.940863 
L 258.916683 292.271722 
L 259.392531 292.271722 
L 259.392531 298.278743 
L 259.868699 298.278743 
L 259.868699 300.47821 
L 260.34508 300.47821 
L 260.34508 301.472796 
L 260.821887 301.472796 
L 260.821887 301.827077 
L 261.298906 301.827077 
L 261.298906 301.94523 
L 262.25401 302.028051 
L 262.25401 302.105412 
L 264.647196 302.152807 
L 264.647196 301.952872 
L 265.12677 301.952872 
L 265.12677 301.201161 
L 265.606663 301.201161 
L 265.606663 299.770712 
L 266.086875 299.770712 
L 266.086875 298.680142 
L 266.567407 298.680142 
L 266.567407 299.052308 
L 267.048258 299.052308 
L 267.048258 300.263077 
L 267.529428 300.263077 
L 267.529428 301.105481 
L 268.010918 301.105481 
L 268.010918 301.541143 
L 268.492727 301.541143 
L 268.492727 301.939757 
L 268.974748 301.939757 
L 268.974748 302.172742 
L 269.939962 302.259343 
L 269.939962 302.299934 
L 275.757961 302.198735 
L 275.757961 302.1327 
L 276.732222 302.051549 
L 276.732222 301.947403 
L 277.219778 301.947403 
L 277.219778 301.696142 
L 277.707654 301.696142 
L 277.707654 300.74449 
L 278.195848 300.74449 
L 278.195848 298.893936 
L 278.684362 298.893936 
L 278.684362 297.459725 
L 279.173302 297.459725 
L 279.173302 297.929108 
L 279.662454 297.929108 
L 279.662454 299.318688 
L 280.151926 299.318688 
L 280.151926 299.519563 
L 280.641824 299.519563 
L 280.641824 296.507322 
L 281.13204 296.507322 
L 281.13204 283.686174 
L 281.62247 283.686174 
L 281.62247 258.892748 
L 282.113326 258.892748 
L 282.113326 240.388029 
L 282.6045 240.388029 
L 282.6045 249.149655 
L 283.095994 249.149655 
L 283.095994 274.355516 
L 283.587701 274.355516 
L 283.587701 291.724555 
L 284.079834 291.724555 
L 284.079834 297.591317 
L 284.572392 297.591317 
L 284.572392 300.264623 
L 285.065163 300.264623 
L 285.065163 301.280821 
L 285.558254 301.280821 
L 285.558254 301.533141 
L 286.051663 301.533141 
L 286.051663 301.387781 
L 286.545499 301.387781 
L 286.545499 300.406153 
L 287.039547 300.406153 
L 287.039547 298.430511 
L 287.534021 298.430511 
L 287.534021 296.967166 
L 288.028814 296.967166 
L 288.028814 297.756562 
L 288.523927 297.756562 
L 288.523927 299.890847 
L 289.019359 299.890847 
L 289.019359 301.34632 
L 289.51511 301.34632 
L 289.51511 301.842325 
L 290.011181 301.842325 
L 290.011181 302.084331 
L 290.50757 302.084331 
L 290.50757 302.195546 
L 296.991502 302.292886 
L 296.991502 302.314471 
L 299.500484 302.263683 
L 299.500484 302.128181 
L 300.00326 302.128181 
L 300.00326 301.617114 
L 300.506461 301.617114 
L 300.506461 300.635484 
L 301.009982 300.635484 
L 301.009982 299.900042 
L 301.513715 299.900042 
L 301.513715 300.241355 
L 302.017874 300.241355 
L 302.017874 301.230046 
L 302.522459 301.230046 
L 302.522459 301.908322 
L 303.027257 301.908322 
L 303.027257 302.138584 
L 304.038023 302.243598 
L 304.038023 302.283661 
L 308.094498 302.214229 
L 308.094498 302.139694 
L 310.131037 302.232138 
L 310.131037 302.26901 
L 314.733498 302.165657 
L 314.733498 302.120058 
L 318.848297 302.043542 
L 318.848297 302.002951 
L 319.36427 302.002951 
L 319.36427 301.590408 
L 319.880562 301.590408 
L 319.880562 300.725196 
L 320.397174 300.725196 
L 320.397174 300.067609 
L 320.914211 300.067609 
L 320.914211 300.350349 
L 321.431567 300.350349 
L 321.431567 301.173274 
L 321.949243 301.173274 
L 321.949243 301.72475 
L 322.467238 301.72475 
L 322.467238 301.957365 
L 322.985659 301.957365 
L 322.985659 302.129844 
L 324.023565 302.217113 
L 324.023565 302.241454 
L 325.583085 302.202805 
L 325.583085 302.041409 
L 326.103634 302.041409 
L 326.103634 301.710461 
L 326.624503 301.710461 
L 326.624503 301.393711 
L 327.667411 301.355755 
L 327.667411 301.572519 
L 328.189344 301.572519 
L 328.189344 301.839362 
L 328.711702 301.839362 
L 328.711702 302.028781 
L 329.757378 302.06992 
L 329.757378 301.794712 
L 330.280801 301.794712 
L 330.280801 301.161828 
L 330.804649 301.161828 
L 330.804649 300.469471 
L 331.328711 300.469471 
L 331.328711 300.176501 
L 331.853198 300.176501 
L 331.853198 300.393022 
L 332.378111 300.393022 
L 332.378111 300.973132 
L 332.903344 300.973132 
L 332.903344 301.617324 
L 333.428895 301.617324 
L 333.428895 302.022548 
L 333.954766 302.022548 
L 333.954766 302.161942 
L 337.646612 302.056147 
L 337.646612 301.842724 
L 338.175463 301.842724 
L 338.175463 301.39944 
L 338.704633 301.39944 
L 338.704633 300.890221 
L 339.234229 300.890221 
L 339.234229 300.704915 
L 339.764144 300.704915 
L 339.764144 300.998628 
L 340.294485 300.998628 
L 340.294485 301.43234 
L 340.825145 301.43234 
L 340.825145 301.666847 
L 343.484087 301.605605 
L 343.484087 301.534381 
L 344.016983 301.534381 
L 344.016983 301.374649 
L 345.617904 301.42465 
L 345.617904 301.635974 
L 346.152289 301.635974 
L 346.152289 301.762264 
L 346.686993 301.762264 
L 346.686993 301.379473 
L 347.222124 301.379473 
L 347.222124 300.345088 
L 347.75768 300.345088 
L 347.75768 299.522641 
L 348.293555 299.522641 
L 348.293555 299.885121 
L 348.82975 299.885121 
L 348.82975 300.974512 
L 349.36637 300.974512 
L 349.36637 301.685822 
L 350.440675 301.743225 
L 350.440675 301.444865 
L 350.978466 301.444865 
L 350.978466 301.169373 
L 351.516576 301.169373 
L 351.516576 301.334952 
L 352.055006 301.334952 
L 352.055006 301.773999 
L 352.593861 301.773999 
L 352.593861 302.068509 
L 353.672743 302.168391 
L 353.672743 302.214306 
L 358.546282 302.130741 
L 358.546282 302.036067 
L 359.089713 302.036067 
L 359.089713 301.643535 
L 359.633465 301.643535 
L 359.633465 300.843002 
L 360.177641 300.843002 
L 360.177641 300.224999 
L 360.722138 300.224999 
L 360.722138 300.505783 
L 361.267059 300.505783 
L 361.267059 301.320319 
L 361.812407 301.320319 
L 361.812407 301.851933 
L 362.358074 301.851933 
L 362.358074 301.995098 
L 363.450685 301.991003 
L 363.450685 301.834936 
L 363.997522 301.834936 
L 363.997522 301.328025 
L 364.544679 301.328025 
L 364.544679 299.353103 
L 365.092368 299.353103 
L 365.092368 295.421453 
L 365.640377 295.421453 
L 365.640377 292.419347 
L 366.188704 292.419347 
L 366.188704 293.812211 
L 366.737458 293.812211 
L 366.737458 297.807171 
L 367.286637 297.807171 
L 367.286637 300.464795 
L 367.836135 300.464795 
L 367.836135 301.361464 
L 368.386059 301.361464 
L 368.386059 301.792227 
L 368.936409 301.792227 
L 368.936409 301.954328 
L 370.589694 301.912752 
L 370.589694 301.816294 
L 376.126078 301.815764 
L 376.126078 301.691803 
L 378.909012 301.733894 
L 378.909012 301.50985 
L 379.466705 301.50985 
L 379.466705 301.034043 
L 380.024931 301.034043 
L 380.024931 300.642588 
L 381.142446 300.751949 
L 381.142446 301.192497 
L 381.701736 301.192497 
L 381.701736 301.523866 
L 382.8217 301.605995 
L 382.8217 301.347262 
L 383.382267 301.347262 
L 383.382267 300.724142 
L 383.943153 300.724142 
L 383.943153 300.262667 
L 384.504465 300.262667 
L 384.504465 300.524785 
L 385.066309 300.524785 
L 385.066309 301.18131 
L 385.628367 301.18131 
L 385.628367 301.499375 
L 386.753864 301.408379 
L 386.753864 301.327033 
L 387.317305 301.327033 
L 387.317305 301.448624 
L 387.881065 301.448624 
L 387.881065 301.640135 
L 389.009756 301.734207 
L 389.009756 301.801326 
L 390.140043 301.894888 
L 390.140043 301.940669 
L 392.972998 301.863467 
L 392.972998 301.754949 
L 393.540802 301.754949 
L 393.540802 301.463269 
L 394.108926 301.463269 
L 394.108926 301.2221 
L 395.246557 301.320279 
L 395.246557 301.632051 
L 395.816064 301.632051 
L 395.816064 301.851851 
L 396.956143 301.936877 
L 396.956143 301.97792 
L 399.241196 301.870048 
L 399.241196 301.671058 
L 399.813471 301.671058 
L 399.813471 301.001303 
L 400.386171 301.001303 
L 400.386171 299.64846 
L 400.959296 299.64846 
L 400.959296 298.582989 
L 401.532848 298.582989 
L 401.532848 299.041417 
L 402.106825 299.041417 
L 402.106825 300.391064 
L 402.681122 300.391064 
L 402.681122 301.240102 
L 403.255951 301.240102 
L 403.255951 301.50896 
L 403.831099 301.50896 
L 403.831099 301.698054 
L 404.406779 301.698054 
L 404.406779 301.830392 
L 406.713331 301.746427 
L 406.713331 301.496092 
L 407.291033 301.496092 
L 407.291033 300.788901 
L 407.869055 300.788901 
L 407.869055 297.966063 
L 408.447609 297.966063 
L 408.447609 292.185926 
L 409.026588 292.185926 
L 409.026588 287.70675 
L 409.605887 287.70675 
L 409.605887 289.792827 
L 410.185718 289.792827 
L 410.185718 295.735256 
L 410.765868 295.735256 
L 410.765868 299.596493 
L 411.34655 299.596493 
L 411.34655 300.83684 
L 411.927552 300.83684 
L 411.927552 301.351893 
L 413.673218 301.256639 
L 413.673218 300.755967 
L 414.255922 300.755967 
L 414.255922 300.356466 
L 414.839053 300.356466 
L 414.839053 300.356466 
" style="fill:none;stroke:#1f77b4;stroke-linecap:square;stroke-width:1.5;"/>
   </g>
   <g id="patch_9">
    <path d="M 57.6 307.584 
L 57.6 193.860923 
" style="fill:none;stroke:#000000;stroke-linecap:square;stroke-linejoin:miter;stroke-width:0.8;"/>
   </g>
   <g id="patch_10">
    <path d="M 414.72 307.584 
L 414.72 193.860923 
" style="fill:none;stroke:#000000;stroke-linecap:square;stroke-linejoin:miter;stroke-width:0.8;"/>
   </g>
   <g id="patch_11">
    <path d="M 57.6 307.584 
L 414.72 307.584 
" style="fill:none;stroke:#000000;stroke-linecap:square;stroke-linejoin:miter;stroke-width:0.8;"/>
   </g>
   <g id="patch_12">
    <path d="M 57.6 193.860923 
L 414.72 193.860923 
" style="fill:none;stroke:#000000;stroke-linecap:square;stroke-linejoin:miter;stroke-width:0.8;"/>
   </g>
   <g id="legend_2">
    <g id="patch_13">
     <path d="M 314.5825 216.392173 
L 407.72 216.392173 
Q 409.72 216.392173 409.72 214.392173 
L 409.72 200.860923 
Q 409.72 198.860923 407.72 198.860923 
L 314.5825 198.860923 
Q 312.5825 198.860923 312.5825 200.860923 
L 312.5825 214.392173 
Q 312.5825 216.392173 314.5825 216.392173 
z
" style="fill:#ffffff;opacity:0.8;stroke:#cccccc;stroke-linejoin:miter;"/>
    </g>
    <g id="line2d_33">
     <path d="M 316.5825 206.860923 
L 336.5825 206.860923 
" style="fill:none;stroke:#1f77b4;stroke-linecap:square;stroke-width:1.5;"/>
    </g>
    <g id="line2d_34"/>
    <g id="text_36">
     <!-- Chandra MEG -->
     <defs>
      <path d="M 60.546875 22.5625 
Q 59.234375 11.28125 52.21875 5.140625 
Q 45.21875 -0.984375 33.59375 -0.984375 
Q 21 -0.984375 13.40625 8.046875 
Q 5.8125 17.09375 5.8125 32.234375 
L 5.8125 39.0625 
Q 5.8125 48.96875 9.34375 56.484375 
Q 12.890625 64.015625 19.375 68.046875 
Q 25.875 72.078125 34.421875 72.078125 
Q 45.75 72.078125 52.578125 65.75 
Q 59.421875 59.421875 60.546875 48.25 
L 51.125 48.25 
Q 49.90625 56.734375 45.828125 60.546875 
Q 41.75 64.359375 34.421875 64.359375 
Q 25.4375 64.359375 20.328125 57.71875 
Q 15.234375 51.078125 15.234375 38.8125 
L 15.234375 31.9375 
Q 15.234375 20.359375 20.0625 13.515625 
Q 24.90625 6.6875 33.59375 6.6875 
Q 41.40625 6.6875 45.578125 10.21875 
Q 49.75 13.765625 51.125 22.5625 
z
" id="Roboto-Regular-43"/>
      <path d="M 39.453125 0 
Q 38.671875 1.5625 38.1875 5.5625 
Q 31.890625 -0.984375 23.140625 -0.984375 
Q 15.328125 -0.984375 10.328125 3.4375 
Q 5.328125 7.859375 5.328125 14.65625 
Q 5.328125 22.90625 11.59375 27.46875 
Q 17.875 32.03125 29.25 32.03125 
L 38.03125 32.03125 
L 38.03125 36.1875 
Q 38.03125 40.921875 35.203125 43.71875 
Q 32.375 46.53125 26.859375 46.53125 
Q 22.015625 46.53125 18.75 44.09375 
Q 15.484375 41.65625 15.484375 38.1875 
L 6.390625 38.1875 
Q 6.390625 42.140625 9.203125 45.828125 
Q 12.015625 49.515625 16.8125 51.65625 
Q 21.625 53.8125 27.390625 53.8125 
Q 36.53125 53.8125 41.703125 49.234375 
Q 46.875 44.671875 47.078125 36.671875 
L 47.078125 12.359375 
Q 47.078125 5.078125 48.921875 0.78125 
L 48.921875 0 
z
M 24.46875 6.890625 
Q 28.71875 6.890625 32.515625 9.078125 
Q 36.328125 11.28125 38.03125 14.796875 
L 38.03125 25.640625 
L 30.953125 25.640625 
Q 14.359375 25.640625 14.359375 15.921875 
Q 14.359375 11.671875 17.1875 9.28125 
Q 20.015625 6.890625 24.46875 6.890625 
z
" id="Roboto-Regular-61"/>
      <path d="M 20.359375 71.09375 
L 43.609375 13.09375 
L 66.84375 71.09375 
L 79 71.09375 
L 79 0 
L 69.625 0 
L 69.625 27.6875 
L 70.515625 57.5625 
L 47.171875 0 
L 39.984375 0 
L 16.703125 57.421875 
L 17.625 27.6875 
L 17.625 0 
L 8.25 0 
L 8.25 71.09375 
z
" id="Roboto-Regular-4d"/>
      <path d="M 60.75 9.328125 
Q 57.125 4.15625 50.65625 1.578125 
Q 44.1875 -0.984375 35.59375 -0.984375 
Q 26.90625 -0.984375 20.15625 3.09375 
Q 13.421875 7.171875 9.734375 14.6875 
Q 6.0625 22.21875 5.953125 32.125 
L 5.953125 38.328125 
Q 5.953125 54.390625 13.453125 63.234375 
Q 20.953125 72.078125 34.515625 72.078125 
Q 45.65625 72.078125 52.4375 66.375 
Q 59.234375 60.6875 60.75 50.25 
L 51.375 50.25 
Q 48.734375 64.359375 34.578125 64.359375 
Q 25.140625 64.359375 20.28125 57.734375 
Q 15.4375 51.125 15.375 38.578125 
L 15.375 32.765625 
Q 15.375 20.796875 20.84375 13.734375 
Q 26.3125 6.6875 35.640625 6.6875 
Q 40.921875 6.6875 44.875 7.859375 
Q 48.828125 9.03125 51.421875 11.8125 
L 51.421875 27.78125 
L 34.96875 27.78125 
L 34.96875 35.40625 
L 60.75 35.40625 
z
" id="Roboto-Regular-47"/>
     </defs>
     <g transform="translate(344.5825 210.360923)scale(0.1 -0.1)">
      <use xlink:href="#Roboto-Regular-43"/>
      <use x="65.087891" xlink:href="#Roboto-Regular-68"/>
      <use x="120.166016" xlink:href="#Roboto-Regular-61"/>
      <use x="174.560547" xlink:href="#Roboto-Regular-6e"/>
      <use x="229.736328" xlink:href="#Roboto-Regular-64"/>
      <use x="286.132812" xlink:href="#Roboto-Regular-72"/>
      <use x="319.970703" xlink:href="#Roboto-Regular-61"/>
      <use x="374.365234" xlink:href="#Roboto-Regular-20"/>
      <use x="399.121094" xlink:href="#Roboto-Regular-4d"/>
      <use x="486.425781" xlink:href="#Roboto-Regular-45"/>
      <use x="543.261719" xlink:href="#Roboto-Regular-47"/>
     </g>
    </g>
   </g>
  </g>
 </g>
 <defs>
  <clipPath id="p7251ceb6cc">
   <rect height="113.723077" width="357.12" x="57.6" y="41.472"/>
  </clipPath>
  <clipPath id="p080d9ff7de">
   <rect height="113.723077" width="357.12" x="57.6" y="193.860923"/>
  </clipPath>
 </defs>
</svg>
