<?xml version="1.0" encoding="utf-8" standalone="no"?>
<!DOCTYPE svg PUBLIC "-//W3C//DTD SVG 1.1//EN"
  "http://www.w3.org/Graphics/SVG/1.1/DTD/svg11.dtd">
<svg xmlns:xlink="http://www.w3.org/1999/xlink" width="460.8pt" height="345.6pt" viewBox="0 0 460.8 345.6" xmlns="http://www.w3.org/2000/svg" version="1.1">
 <metadata>
  <rdf:RDF xmlns:dc="http://purl.org/dc/elements/1.1/" xmlns:cc="http://creativecommons.org/ns#" xmlns:rdf="http://www.w3.org/1999/02/22-rdf-syntax-ns#">
   <cc:Work>
    <dc:type rdf:resource="http://purl.org/dc/dcmitype/StillImage"/>
    <dc:date>2025-04-08T17:03:48.200364</dc:date>
    <dc:format>image/svg+xml</dc:format>
    <dc:creator>
     <cc:Agent>
      <dc:title>Matplotlib v3.10.1, https://matplotlib.org/</dc:title>
     </cc:Agent>
    </dc:creator>
   </cc:Work>
  </rdf:RDF>
 </metadata>
 <defs>
  <style type="text/css">*{stroke-linejoin: round; stroke-linecap: butt}</style>
 </defs>
 <g id="figure_1">
  <g id="patch_1">
   <path d="M 0 345.6 
L 460.8 345.6 
L 460.8 0 
L 0 0 
z
" style="fill: #ffffff"/>
  </g>
  <g id="axes_1">
   <g id="patch_2">
    <path d="M 57.6 155.195077 
L 414.72 155.195077 
L 414.72 41.472 
L 57.6 41.472 
z
" style="fill: #ffffff"/>
   </g>
   <g id="matplotlib.axis_1">
    <g id="xtick_1">
     <g id="line2d_1">
      <defs>
       <path id="m709538f4ae" d="M 0 0 
L 0 3.5 
" style="stroke: #000000; stroke-width: 0.8"/>
      </defs>
      <g>
       <use xlink:href="#m709538f4ae" x="57.6" y="155.195077" style="stroke: #000000; stroke-width: 0.8"/>
      </g>
     </g>
     <g id="text_1">
      <!-- 0.700 -->
      <g transform="translate(43.285938 169.793514) scale(0.1 -0.1)">
       <defs>
        <path id="DejaVuSans-30" d="M 2034 4250 
Q 1547 4250 1301 3770 
Q 1056 3291 1056 2328 
Q 1056 1369 1301 889 
Q 1547 409 2034 409 
Q 2525 409 2770 889 
Q 3016 1369 3016 2328 
Q 3016 3291 2770 3770 
Q 2525 4250 2034 4250 
z
M 2034 4750 
Q 2819 4750 3233 4129 
Q 3647 3509 3647 2328 
Q 3647 1150 3233 529 
Q 2819 -91 2034 -91 
Q 1250 -91 836 529 
Q 422 1150 422 2328 
Q 422 3509 836 4129 
Q 1250 4750 2034 4750 
z
" transform="scale(0.015625)"/>
        <path id="DejaVuSans-2e" d="M 684 794 
L 1344 794 
L 1344 0 
L 684 0 
L 684 794 
z
" transform="scale(0.015625)"/>
        <path id="DejaVuSans-37" d="M 525 4666 
L 3525 4666 
L 3525 4397 
L 1831 0 
L 1172 0 
L 2766 4134 
L 525 4134 
L 525 4666 
z
" transform="scale(0.015625)"/>
       </defs>
       <use xlink:href="#DejaVuSans-30"/>
       <use xlink:href="#DejaVuSans-2e" transform="translate(63.623047 0)"/>
       <use xlink:href="#DejaVuSans-37" transform="translate(95.410156 0)"/>
       <use xlink:href="#DejaVuSans-30" transform="translate(159.033203 0)"/>
       <use xlink:href="#DejaVuSans-30" transform="translate(222.65625 0)"/>
      </g>
     </g>
    </g>
    <g id="xtick_2">
     <g id="line2d_2">
      <g>
       <use xlink:href="#m709538f4ae" x="102.24" y="155.195077" style="stroke: #000000; stroke-width: 0.8"/>
      </g>
     </g>
     <g id="text_2">
      <!-- 0.725 -->
      <g transform="translate(87.925938 169.793514) scale(0.1 -0.1)">
       <defs>
        <path id="DejaVuSans-32" d="M 1228 531 
L 3431 531 
L 3431 0 
L 469 0 
L 469 531 
Q 828 903 1448 1529 
Q 2069 2156 2228 2338 
Q 2531 2678 2651 2914 
Q 2772 3150 2772 3378 
Q 2772 3750 2511 3984 
Q 2250 4219 1831 4219 
Q 1534 4219 1204 4116 
Q 875 4013 500 3803 
L 500 4441 
Q 881 4594 1212 4672 
Q 1544 4750 1819 4750 
Q 2544 4750 2975 4387 
Q 3406 4025 3406 3419 
Q 3406 3131 3298 2873 
Q 3191 2616 2906 2266 
Q 2828 2175 2409 1742 
Q 1991 1309 1228 531 
z
" transform="scale(0.015625)"/>
        <path id="DejaVuSans-35" d="M 691 4666 
L 3169 4666 
L 3169 4134 
L 1269 4134 
L 1269 2991 
Q 1406 3038 1543 3061 
Q 1681 3084 1819 3084 
Q 2600 3084 3056 2656 
Q 3513 2228 3513 1497 
Q 3513 744 3044 326 
Q 2575 -91 1722 -91 
Q 1428 -91 1123 -41 
Q 819 9 494 109 
L 494 744 
Q 775 591 1075 516 
Q 1375 441 1709 441 
Q 2250 441 2565 725 
Q 2881 1009 2881 1497 
Q 2881 1984 2565 2268 
Q 2250 2553 1709 2553 
Q 1456 2553 1204 2497 
Q 953 2441 691 2322 
L 691 4666 
z
" transform="scale(0.015625)"/>
       </defs>
       <use xlink:href="#DejaVuSans-30"/>
       <use xlink:href="#DejaVuSans-2e" transform="translate(63.623047 0)"/>
       <use xlink:href="#DejaVuSans-37" transform="translate(95.410156 0)"/>
       <use xlink:href="#DejaVuSans-32" transform="translate(159.033203 0)"/>
       <use xlink:href="#DejaVuSans-35" transform="translate(222.65625 0)"/>
      </g>
     </g>
    </g>
    <g id="xtick_3">
     <g id="line2d_3">
      <g>
       <use xlink:href="#m709538f4ae" x="146.88" y="155.195077" style="stroke: #000000; stroke-width: 0.8"/>
      </g>
     </g>
     <g id="text_3">
      <!-- 0.750 -->
      <g transform="translate(132.565937 169.793514) scale(0.1 -0.1)">
       <use xlink:href="#DejaVuSans-30"/>
       <use xlink:href="#DejaVuSans-2e" transform="translate(63.623047 0)"/>
       <use xlink:href="#DejaVuSans-37" transform="translate(95.410156 0)"/>
       <use xlink:href="#DejaVuSans-35" transform="translate(159.033203 0)"/>
       <use xlink:href="#DejaVuSans-30" transform="translate(222.65625 0)"/>
      </g>
     </g>
    </g>
    <g id="xtick_4">
     <g id="line2d_4">
      <g>
       <use xlink:href="#m709538f4ae" x="191.52" y="155.195077" style="stroke: #000000; stroke-width: 0.8"/>
      </g>
     </g>
     <g id="text_4">
      <!-- 0.775 -->
      <g transform="translate(177.205937 169.793514) scale(0.1 -0.1)">
       <use xlink:href="#DejaVuSans-30"/>
       <use xlink:href="#DejaVuSans-2e" transform="translate(63.623047 0)"/>
       <use xlink:href="#DejaVuSans-37" transform="translate(95.410156 0)"/>
       <use xlink:href="#DejaVuSans-37" transform="translate(159.033203 0)"/>
       <use xlink:href="#DejaVuSans-35" transform="translate(222.65625 0)"/>
      </g>
     </g>
    </g>
    <g id="xtick_5">
     <g id="line2d_5">
      <g>
       <use xlink:href="#m709538f4ae" x="236.16" y="155.195077" style="stroke: #000000; stroke-width: 0.8"/>
      </g>
     </g>
     <g id="text_5">
      <!-- 0.800 -->
      <g transform="translate(221.845937 169.793514) scale(0.1 -0.1)">
       <defs>
        <path id="DejaVuSans-38" d="M 2034 2216 
Q 1584 2216 1326 1975 
Q 1069 1734 1069 1313 
Q 1069 891 1326 650 
Q 1584 409 2034 409 
Q 2484 409 2743 651 
Q 3003 894 3003 1313 
Q 3003 1734 2745 1975 
Q 2488 2216 2034 2216 
z
M 1403 2484 
Q 997 2584 770 2862 
Q 544 3141 544 3541 
Q 544 4100 942 4425 
Q 1341 4750 2034 4750 
Q 2731 4750 3128 4425 
Q 3525 4100 3525 3541 
Q 3525 3141 3298 2862 
Q 3072 2584 2669 2484 
Q 3125 2378 3379 2068 
Q 3634 1759 3634 1313 
Q 3634 634 3220 271 
Q 2806 -91 2034 -91 
Q 1263 -91 848 271 
Q 434 634 434 1313 
Q 434 1759 690 2068 
Q 947 2378 1403 2484 
z
M 1172 3481 
Q 1172 3119 1398 2916 
Q 1625 2713 2034 2713 
Q 2441 2713 2670 2916 
Q 2900 3119 2900 3481 
Q 2900 3844 2670 4047 
Q 2441 4250 2034 4250 
Q 1625 4250 1398 4047 
Q 1172 3844 1172 3481 
z
" transform="scale(0.015625)"/>
       </defs>
       <use xlink:href="#DejaVuSans-30"/>
       <use xlink:href="#DejaVuSans-2e" transform="translate(63.623047 0)"/>
       <use xlink:href="#DejaVuSans-38" transform="translate(95.410156 0)"/>
       <use xlink:href="#DejaVuSans-30" transform="translate(159.033203 0)"/>
       <use xlink:href="#DejaVuSans-30" transform="translate(222.65625 0)"/>
      </g>
     </g>
    </g>
    <g id="xtick_6">
     <g id="line2d_6">
      <g>
       <use xlink:href="#m709538f4ae" x="280.8" y="155.195077" style="stroke: #000000; stroke-width: 0.8"/>
      </g>
     </g>
     <g id="text_6">
      <!-- 0.825 -->
      <g transform="translate(266.485937 169.793514) scale(0.1 -0.1)">
       <use xlink:href="#DejaVuSans-30"/>
       <use xlink:href="#DejaVuSans-2e" transform="translate(63.623047 0)"/>
       <use xlink:href="#DejaVuSans-38" transform="translate(95.410156 0)"/>
       <use xlink:href="#DejaVuSans-32" transform="translate(159.033203 0)"/>
       <use xlink:href="#DejaVuSans-35" transform="translate(222.65625 0)"/>
      </g>
     </g>
    </g>
    <g id="xtick_7">
     <g id="line2d_7">
      <g>
       <use xlink:href="#m709538f4ae" x="325.44" y="155.195077" style="stroke: #000000; stroke-width: 0.8"/>
      </g>
     </g>
     <g id="text_7">
      <!-- 0.850 -->
      <g transform="translate(311.125938 169.793514) scale(0.1 -0.1)">
       <use xlink:href="#DejaVuSans-30"/>
       <use xlink:href="#DejaVuSans-2e" transform="translate(63.623047 0)"/>
       <use xlink:href="#DejaVuSans-38" transform="translate(95.410156 0)"/>
       <use xlink:href="#DejaVuSans-35" transform="translate(159.033203 0)"/>
       <use xlink:href="#DejaVuSans-30" transform="translate(222.65625 0)"/>
      </g>
     </g>
    </g>
    <g id="xtick_8">
     <g id="line2d_8">
      <g>
       <use xlink:href="#m709538f4ae" x="370.08" y="155.195077" style="stroke: #000000; stroke-width: 0.8"/>
      </g>
     </g>
     <g id="text_8">
      <!-- 0.875 -->
      <g transform="translate(355.765937 169.793514) scale(0.1 -0.1)">
       <use xlink:href="#DejaVuSans-30"/>
       <use xlink:href="#DejaVuSans-2e" transform="translate(63.623047 0)"/>
       <use xlink:href="#DejaVuSans-38" transform="translate(95.410156 0)"/>
       <use xlink:href="#DejaVuSans-37" transform="translate(159.033203 0)"/>
       <use xlink:href="#DejaVuSans-35" transform="translate(222.65625 0)"/>
      </g>
     </g>
    </g>
    <g id="xtick_9">
     <g id="line2d_9">
      <g>
       <use xlink:href="#m709538f4ae" x="414.72" y="155.195077" style="stroke: #000000; stroke-width: 0.8"/>
      </g>
     </g>
     <g id="text_9">
      <!-- 0.900 -->
      <g transform="translate(400.405937 169.793514) scale(0.1 -0.1)">
       <defs>
        <path id="DejaVuSans-39" d="M 703 97 
L 703 672 
Q 941 559 1184 500 
Q 1428 441 1663 441 
Q 2288 441 2617 861 
Q 2947 1281 2994 2138 
Q 2813 1869 2534 1725 
Q 2256 1581 1919 1581 
Q 1219 1581 811 2004 
Q 403 2428 403 3163 
Q 403 3881 828 4315 
Q 1253 4750 1959 4750 
Q 2769 4750 3195 4129 
Q 3622 3509 3622 2328 
Q 3622 1225 3098 567 
Q 2575 -91 1691 -91 
Q 1453 -91 1209 -44 
Q 966 3 703 97 
z
M 1959 2075 
Q 2384 2075 2632 2365 
Q 2881 2656 2881 3163 
Q 2881 3666 2632 3958 
Q 2384 4250 1959 4250 
Q 1534 4250 1286 3958 
Q 1038 3666 1038 3163 
Q 1038 2656 1286 2365 
Q 1534 2075 1959 2075 
z
" transform="scale(0.015625)"/>
       </defs>
       <use xlink:href="#DejaVuSans-30"/>
       <use xlink:href="#DejaVuSans-2e" transform="translate(63.623047 0)"/>
       <use xlink:href="#DejaVuSans-39" transform="translate(95.410156 0)"/>
       <use xlink:href="#DejaVuSans-30" transform="translate(159.033203 0)"/>
       <use xlink:href="#DejaVuSans-30" transform="translate(222.65625 0)"/>
      </g>
     </g>
    </g>
    <g id="text_10">
     <!-- Energy (keV) -->
     <g transform="translate(203.952187 183.471639) scale(0.1 -0.1)">
      <defs>
       <path id="DejaVuSans-45" d="M 628 4666 
L 3578 4666 
L 3578 4134 
L 1259 4134 
L 1259 2753 
L 3481 2753 
L 3481 2222 
L 1259 2222 
L 1259 531 
L 3634 531 
L 3634 0 
L 628 0 
L 628 4666 
z
" transform="scale(0.015625)"/>
       <path id="DejaVuSans-6e" d="M 3513 2113 
L 3513 0 
L 2938 0 
L 2938 2094 
Q 2938 2591 2744 2837 
Q 2550 3084 2163 3084 
Q 1697 3084 1428 2787 
Q 1159 2491 1159 1978 
L 1159 0 
L 581 0 
L 581 3500 
L 1159 3500 
L 1159 2956 
Q 1366 3272 1645 3428 
Q 1925 3584 2291 3584 
Q 2894 3584 3203 3211 
Q 3513 2838 3513 2113 
z
" transform="scale(0.015625)"/>
       <path id="DejaVuSans-65" d="M 3597 1894 
L 3597 1613 
L 953 1613 
Q 991 1019 1311 708 
Q 1631 397 2203 397 
Q 2534 397 2845 478 
Q 3156 559 3463 722 
L 3463 178 
Q 3153 47 2828 -22 
Q 2503 -91 2169 -91 
Q 1331 -91 842 396 
Q 353 884 353 1716 
Q 353 2575 817 3079 
Q 1281 3584 2069 3584 
Q 2775 3584 3186 3129 
Q 3597 2675 3597 1894 
z
M 3022 2063 
Q 3016 2534 2758 2815 
Q 2500 3097 2075 3097 
Q 1594 3097 1305 2825 
Q 1016 2553 972 2059 
L 3022 2063 
z
" transform="scale(0.015625)"/>
       <path id="DejaVuSans-72" d="M 2631 2963 
Q 2534 3019 2420 3045 
Q 2306 3072 2169 3072 
Q 1681 3072 1420 2755 
Q 1159 2438 1159 1844 
L 1159 0 
L 581 0 
L 581 3500 
L 1159 3500 
L 1159 2956 
Q 1341 3275 1631 3429 
Q 1922 3584 2338 3584 
Q 2397 3584 2469 3576 
Q 2541 3569 2628 3553 
L 2631 2963 
z
" transform="scale(0.015625)"/>
       <path id="DejaVuSans-67" d="M 2906 1791 
Q 2906 2416 2648 2759 
Q 2391 3103 1925 3103 
Q 1463 3103 1205 2759 
Q 947 2416 947 1791 
Q 947 1169 1205 825 
Q 1463 481 1925 481 
Q 2391 481 2648 825 
Q 2906 1169 2906 1791 
z
M 3481 434 
Q 3481 -459 3084 -895 
Q 2688 -1331 1869 -1331 
Q 1566 -1331 1297 -1286 
Q 1028 -1241 775 -1147 
L 775 -588 
Q 1028 -725 1275 -790 
Q 1522 -856 1778 -856 
Q 2344 -856 2625 -561 
Q 2906 -266 2906 331 
L 2906 616 
Q 2728 306 2450 153 
Q 2172 0 1784 0 
Q 1141 0 747 490 
Q 353 981 353 1791 
Q 353 2603 747 3093 
Q 1141 3584 1784 3584 
Q 2172 3584 2450 3431 
Q 2728 3278 2906 2969 
L 2906 3500 
L 3481 3500 
L 3481 434 
z
" transform="scale(0.015625)"/>
       <path id="DejaVuSans-79" d="M 2059 -325 
Q 1816 -950 1584 -1140 
Q 1353 -1331 966 -1331 
L 506 -1331 
L 506 -850 
L 844 -850 
Q 1081 -850 1212 -737 
Q 1344 -625 1503 -206 
L 1606 56 
L 191 3500 
L 800 3500 
L 1894 763 
L 2988 3500 
L 3597 3500 
L 2059 -325 
z
" transform="scale(0.015625)"/>
       <path id="DejaVuSans-20" transform="scale(0.015625)"/>
       <path id="DejaVuSans-28" d="M 1984 4856 
Q 1566 4138 1362 3434 
Q 1159 2731 1159 2009 
Q 1159 1288 1364 580 
Q 1569 -128 1984 -844 
L 1484 -844 
Q 1016 -109 783 600 
Q 550 1309 550 2009 
Q 550 2706 781 3412 
Q 1013 4119 1484 4856 
L 1984 4856 
z
" transform="scale(0.015625)"/>
       <path id="DejaVuSans-6b" d="M 581 4863 
L 1159 4863 
L 1159 1991 
L 2875 3500 
L 3609 3500 
L 1753 1863 
L 3688 0 
L 2938 0 
L 1159 1709 
L 1159 0 
L 581 0 
L 581 4863 
z
" transform="scale(0.015625)"/>
       <path id="DejaVuSans-56" d="M 1831 0 
L 50 4666 
L 709 4666 
L 2188 738 
L 3669 4666 
L 4325 4666 
L 2547 0 
L 1831 0 
z
" transform="scale(0.015625)"/>
       <path id="DejaVuSans-29" d="M 513 4856 
L 1013 4856 
Q 1481 4119 1714 3412 
Q 1947 2706 1947 2009 
Q 1947 1309 1714 600 
Q 1481 -109 1013 -844 
L 513 -844 
Q 928 -128 1133 580 
Q 1338 1288 1338 2009 
Q 1338 2731 1133 3434 
Q 928 4138 513 4856 
z
" transform="scale(0.015625)"/>
      </defs>
      <use xlink:href="#DejaVuSans-45"/>
      <use xlink:href="#DejaVuSans-6e" transform="translate(63.183594 0)"/>
      <use xlink:href="#DejaVuSans-65" transform="translate(126.5625 0)"/>
      <use xlink:href="#DejaVuSans-72" transform="translate(188.085938 0)"/>
      <use xlink:href="#DejaVuSans-67" transform="translate(227.449219 0)"/>
      <use xlink:href="#DejaVuSans-79" transform="translate(290.925781 0)"/>
      <use xlink:href="#DejaVuSans-20" transform="translate(350.105469 0)"/>
      <use xlink:href="#DejaVuSans-28" transform="translate(381.892578 0)"/>
      <use xlink:href="#DejaVuSans-6b" transform="translate(420.90625 0)"/>
      <use xlink:href="#DejaVuSans-65" transform="translate(475.191406 0)"/>
      <use xlink:href="#DejaVuSans-56" transform="translate(536.714844 0)"/>
      <use xlink:href="#DejaVuSans-29" transform="translate(605.123047 0)"/>
     </g>
    </g>
   </g>
   <g id="matplotlib.axis_2">
    <g id="ytick_1">
     <g id="line2d_10">
      <defs>
       <path id="m0b771be4a3" d="M 0 0 
L -3.5 0 
" style="stroke: #000000; stroke-width: 0.8"/>
      </defs>
      <g>
       <use xlink:href="#m0b771be4a3" x="57.6" y="150.025846" style="stroke: #000000; stroke-width: 0.8"/>
      </g>
     </g>
     <g id="text_11">
      <!-- 0.0 -->
      <g transform="translate(34.696875 153.825065) scale(0.1 -0.1)">
       <use xlink:href="#DejaVuSans-30"/>
       <use xlink:href="#DejaVuSans-2e" transform="translate(63.623047 0)"/>
       <use xlink:href="#DejaVuSans-30" transform="translate(95.410156 0)"/>
      </g>
     </g>
    </g>
    <g id="ytick_2">
     <g id="line2d_11">
      <g>
       <use xlink:href="#m0b771be4a3" x="57.6" y="123.197721" style="stroke: #000000; stroke-width: 0.8"/>
      </g>
     </g>
     <g id="text_12">
      <!-- 0.5 -->
      <g transform="translate(34.696875 126.996939) scale(0.1 -0.1)">
       <use xlink:href="#DejaVuSans-30"/>
       <use xlink:href="#DejaVuSans-2e" transform="translate(63.623047 0)"/>
       <use xlink:href="#DejaVuSans-35" transform="translate(95.410156 0)"/>
      </g>
     </g>
    </g>
    <g id="ytick_3">
     <g id="line2d_12">
      <g>
       <use xlink:href="#m0b771be4a3" x="57.6" y="96.369595" style="stroke: #000000; stroke-width: 0.8"/>
      </g>
     </g>
     <g id="text_13">
      <!-- 1.0 -->
      <g transform="translate(34.696875 100.168814) scale(0.1 -0.1)">
       <defs>
        <path id="DejaVuSans-31" d="M 794 531 
L 1825 531 
L 1825 4091 
L 703 3866 
L 703 4441 
L 1819 4666 
L 2450 4666 
L 2450 531 
L 3481 531 
L 3481 0 
L 794 0 
L 794 531 
z
" transform="scale(0.015625)"/>
       </defs>
       <use xlink:href="#DejaVuSans-31"/>
       <use xlink:href="#DejaVuSans-2e" transform="translate(63.623047 0)"/>
       <use xlink:href="#DejaVuSans-30" transform="translate(95.410156 0)"/>
      </g>
     </g>
    </g>
    <g id="ytick_4">
     <g id="line2d_13">
      <g>
       <use xlink:href="#m0b771be4a3" x="57.6" y="69.541469" style="stroke: #000000; stroke-width: 0.8"/>
      </g>
     </g>
     <g id="text_14">
      <!-- 1.5 -->
      <g transform="translate(34.696875 73.340688) scale(0.1 -0.1)">
       <use xlink:href="#DejaVuSans-31"/>
       <use xlink:href="#DejaVuSans-2e" transform="translate(63.623047 0)"/>
       <use xlink:href="#DejaVuSans-35" transform="translate(95.410156 0)"/>
      </g>
     </g>
    </g>
    <g id="ytick_5">
     <g id="line2d_14">
      <g>
       <use xlink:href="#m0b771be4a3" x="57.6" y="42.713344" style="stroke: #000000; stroke-width: 0.8"/>
      </g>
     </g>
     <g id="text_15">
      <!-- 2.0 -->
      <g transform="translate(34.696875 46.512562) scale(0.1 -0.1)">
       <use xlink:href="#DejaVuSans-32"/>
       <use xlink:href="#DejaVuSans-2e" transform="translate(63.623047 0)"/>
       <use xlink:href="#DejaVuSans-30" transform="translate(95.410156 0)"/>
      </g>
     </g>
    </g>
    <g id="text_16">
     <!-- Intensity (ph cm$^5$ s$^{-1}$ bin$^{-1}$) -->
     <g transform="translate(28.596875 167.783538) rotate(-90) scale(0.1 -0.1)">
      <defs>
       <path id="DejaVuSans-49" d="M 628 4666 
L 1259 4666 
L 1259 0 
L 628 0 
L 628 4666 
z
" transform="scale(0.015625)"/>
       <path id="DejaVuSans-74" d="M 1172 4494 
L 1172 3500 
L 2356 3500 
L 2356 3053 
L 1172 3053 
L 1172 1153 
Q 1172 725 1289 603 
Q 1406 481 1766 481 
L 2356 481 
L 2356 0 
L 1766 0 
Q 1100 0 847 248 
Q 594 497 594 1153 
L 594 3053 
L 172 3053 
L 172 3500 
L 594 3500 
L 594 4494 
L 1172 4494 
z
" transform="scale(0.015625)"/>
       <path id="DejaVuSans-73" d="M 2834 3397 
L 2834 2853 
Q 2591 2978 2328 3040 
Q 2066 3103 1784 3103 
Q 1356 3103 1142 2972 
Q 928 2841 928 2578 
Q 928 2378 1081 2264 
Q 1234 2150 1697 2047 
L 1894 2003 
Q 2506 1872 2764 1633 
Q 3022 1394 3022 966 
Q 3022 478 2636 193 
Q 2250 -91 1575 -91 
Q 1294 -91 989 -36 
Q 684 19 347 128 
L 347 722 
Q 666 556 975 473 
Q 1284 391 1588 391 
Q 1994 391 2212 530 
Q 2431 669 2431 922 
Q 2431 1156 2273 1281 
Q 2116 1406 1581 1522 
L 1381 1569 
Q 847 1681 609 1914 
Q 372 2147 372 2553 
Q 372 3047 722 3315 
Q 1072 3584 1716 3584 
Q 2034 3584 2315 3537 
Q 2597 3491 2834 3397 
z
" transform="scale(0.015625)"/>
       <path id="DejaVuSans-69" d="M 603 3500 
L 1178 3500 
L 1178 0 
L 603 0 
L 603 3500 
z
M 603 4863 
L 1178 4863 
L 1178 4134 
L 603 4134 
L 603 4863 
z
" transform="scale(0.015625)"/>
       <path id="DejaVuSans-70" d="M 1159 525 
L 1159 -1331 
L 581 -1331 
L 581 3500 
L 1159 3500 
L 1159 2969 
Q 1341 3281 1617 3432 
Q 1894 3584 2278 3584 
Q 2916 3584 3314 3078 
Q 3713 2572 3713 1747 
Q 3713 922 3314 415 
Q 2916 -91 2278 -91 
Q 1894 -91 1617 61 
Q 1341 213 1159 525 
z
M 3116 1747 
Q 3116 2381 2855 2742 
Q 2594 3103 2138 3103 
Q 1681 3103 1420 2742 
Q 1159 2381 1159 1747 
Q 1159 1113 1420 752 
Q 1681 391 2138 391 
Q 2594 391 2855 752 
Q 3116 1113 3116 1747 
z
" transform="scale(0.015625)"/>
       <path id="DejaVuSans-68" d="M 3513 2113 
L 3513 0 
L 2938 0 
L 2938 2094 
Q 2938 2591 2744 2837 
Q 2550 3084 2163 3084 
Q 1697 3084 1428 2787 
Q 1159 2491 1159 1978 
L 1159 0 
L 581 0 
L 581 4863 
L 1159 4863 
L 1159 2956 
Q 1366 3272 1645 3428 
Q 1925 3584 2291 3584 
Q 2894 3584 3203 3211 
Q 3513 2838 3513 2113 
z
" transform="scale(0.015625)"/>
       <path id="DejaVuSans-63" d="M 3122 3366 
L 3122 2828 
Q 2878 2963 2633 3030 
Q 2388 3097 2138 3097 
Q 1578 3097 1268 2742 
Q 959 2388 959 1747 
Q 959 1106 1268 751 
Q 1578 397 2138 397 
Q 2388 397 2633 464 
Q 2878 531 3122 666 
L 3122 134 
Q 2881 22 2623 -34 
Q 2366 -91 2075 -91 
Q 1284 -91 818 406 
Q 353 903 353 1747 
Q 353 2603 823 3093 
Q 1294 3584 2113 3584 
Q 2378 3584 2631 3529 
Q 2884 3475 3122 3366 
z
" transform="scale(0.015625)"/>
       <path id="DejaVuSans-6d" d="M 3328 2828 
Q 3544 3216 3844 3400 
Q 4144 3584 4550 3584 
Q 5097 3584 5394 3201 
Q 5691 2819 5691 2113 
L 5691 0 
L 5113 0 
L 5113 2094 
Q 5113 2597 4934 2840 
Q 4756 3084 4391 3084 
Q 3944 3084 3684 2787 
Q 3425 2491 3425 1978 
L 3425 0 
L 2847 0 
L 2847 2094 
Q 2847 2600 2669 2842 
Q 2491 3084 2119 3084 
Q 1678 3084 1418 2786 
Q 1159 2488 1159 1978 
L 1159 0 
L 581 0 
L 581 3500 
L 1159 3500 
L 1159 2956 
Q 1356 3278 1631 3431 
Q 1906 3584 2284 3584 
Q 2666 3584 2933 3390 
Q 3200 3197 3328 2828 
z
" transform="scale(0.015625)"/>
       <path id="DejaVuSans-2212" d="M 678 2272 
L 4684 2272 
L 4684 1741 
L 678 1741 
L 678 2272 
z
" transform="scale(0.015625)"/>
       <path id="DejaVuSans-62" d="M 3116 1747 
Q 3116 2381 2855 2742 
Q 2594 3103 2138 3103 
Q 1681 3103 1420 2742 
Q 1159 2381 1159 1747 
Q 1159 1113 1420 752 
Q 1681 391 2138 391 
Q 2594 391 2855 752 
Q 3116 1113 3116 1747 
z
M 1159 2969 
Q 1341 3281 1617 3432 
Q 1894 3584 2278 3584 
Q 2916 3584 3314 3078 
Q 3713 2572 3713 1747 
Q 3713 922 3314 415 
Q 2916 -91 2278 -91 
Q 1894 -91 1617 61 
Q 1341 213 1159 525 
L 1159 0 
L 581 0 
L 581 4863 
L 1159 4863 
L 1159 2969 
z
" transform="scale(0.015625)"/>
      </defs>
      <use xlink:href="#DejaVuSans-49" transform="translate(0 0.684375)"/>
      <use xlink:href="#DejaVuSans-6e" transform="translate(29.492188 0.684375)"/>
      <use xlink:href="#DejaVuSans-74" transform="translate(92.871094 0.684375)"/>
      <use xlink:href="#DejaVuSans-65" transform="translate(132.080078 0.684375)"/>
      <use xlink:href="#DejaVuSans-6e" transform="translate(193.603516 0.684375)"/>
      <use xlink:href="#DejaVuSans-73" transform="translate(256.982422 0.684375)"/>
      <use xlink:href="#DejaVuSans-69" transform="translate(309.082031 0.684375)"/>
      <use xlink:href="#DejaVuSans-74" transform="translate(336.865234 0.684375)"/>
      <use xlink:href="#DejaVuSans-79" transform="translate(376.074219 0.684375)"/>
      <use xlink:href="#DejaVuSans-20" transform="translate(435.253906 0.684375)"/>
      <use xlink:href="#DejaVuSans-28" transform="translate(467.041016 0.684375)"/>
      <use xlink:href="#DejaVuSans-70" transform="translate(506.054688 0.684375)"/>
      <use xlink:href="#DejaVuSans-68" transform="translate(569.53125 0.684375)"/>
      <use xlink:href="#DejaVuSans-20" transform="translate(632.910156 0.684375)"/>
      <use xlink:href="#DejaVuSans-63" transform="translate(664.697266 0.684375)"/>
      <use xlink:href="#DejaVuSans-6d" transform="translate(719.677734 0.684375)"/>
      <use xlink:href="#DejaVuSans-35" transform="translate(818.046875 38.965625) scale(0.7)"/>
      <use xlink:href="#DejaVuSans-20" transform="translate(865.317383 0.684375)"/>
      <use xlink:href="#DejaVuSans-73" transform="translate(897.104492 0.684375)"/>
      <use xlink:href="#DejaVuSans-2212" transform="translate(950.161133 38.965625) scale(0.7)"/>
      <use xlink:href="#DejaVuSans-31" transform="translate(1008.813477 38.965625) scale(0.7)"/>
      <use xlink:href="#DejaVuSans-20" transform="translate(1056.083984 0.684375)"/>
      <use xlink:href="#DejaVuSans-62" transform="translate(1087.871094 0.684375)"/>
      <use xlink:href="#DejaVuSans-69" transform="translate(1151.347656 0.684375)"/>
      <use xlink:href="#DejaVuSans-6e" transform="translate(1179.130859 0.684375)"/>
      <use xlink:href="#DejaVuSans-2212" transform="translate(1243.466797 38.965625) scale(0.7)"/>
      <use xlink:href="#DejaVuSans-31" transform="translate(1302.119141 38.965625) scale(0.7)"/>
      <use xlink:href="#DejaVuSans-29" transform="translate(1349.389648 0.684375)"/>
     </g>
    </g>
    <g id="text_17">
     <!-- 1e−15 -->
     <g transform="translate(57.6 38.472) scale(0.1 -0.1)">
      <use xlink:href="#DejaVuSans-31"/>
      <use xlink:href="#DejaVuSans-65" transform="translate(63.623047 0)"/>
      <use xlink:href="#DejaVuSans-2212" transform="translate(125.146484 0)"/>
      <use xlink:href="#DejaVuSans-31" transform="translate(208.935547 0)"/>
      <use xlink:href="#DejaVuSans-35" transform="translate(272.558594 0)"/>
     </g>
    </g>
   </g>
   <g id="line2d_15">
    <path d="M 57.510711 150.013318 
L 57.510711 150.015149 
L 60.885833 150.015333 
L 60.885833 149.898401 
L 61.010837 149.898401 
L 61.010837 150.015342 
L 62.7609 150.015399 
L 62.7609 149.750229 
L 62.885905 149.750229 
L 62.885905 149.990349 
L 63.885941 150.015426 
L 63.885941 144.876944 
L 64.010945 144.876944 
L 64.010945 150.007415 
L 65.886013 149.996871 
L 65.886013 149.861326 
L 66.011017 149.861326 
L 66.011017 150.015351 
L 70.886193 150.011087 
L 70.886193 149.884945 
L 71.011197 149.884945 
L 71.011197 150.015536 
L 72.76126 149.952036 
L 72.76126 149.799067 
L 72.886265 149.799067 
L 72.886265 150.009573 
L 78.136454 150.015539 
L 78.136454 149.836006 
L 78.261458 149.836006 
L 78.261458 149.961615 
L 78.386463 149.961615 
L 78.386463 149.737815 
L 78.511467 149.737815 
L 78.511467 150.015552 
L 79.261494 149.990366 
L 79.261494 149.656733 
L 79.386499 149.656733 
L 79.386499 150.015582 
L 80.26153 150.015598 
L 80.26153 149.461209 
L 80.386535 149.461209 
L 80.386535 150.015597 
L 89.761872 149.972769 
L 89.761872 149.887574 
L 90.011881 149.981824 
L 90.011881 150.015899 
L 91.136922 150.015937 
L 91.136922 149.877903 
L 91.261926 149.877903 
L 91.261926 150.015936 
L 94.262034 150.014601 
L 94.262034 149.824945 
L 94.387039 149.824945 
L 94.387039 150.01605 
L 94.762052 150.012124 
L 94.762052 149.678549 
L 94.887057 149.678549 
L 94.887057 150.016035 
L 102.512331 149.979365 
L 102.512331 149.78821 
L 102.637336 149.78821 
L 102.637336 63.895145 
L 102.76234 63.895145 
L 102.76234 150.016051 
L 103.137354 150.016029 
L 103.137354 149.814976 
L 103.262358 149.814976 
L 103.262358 150.016036 
L 103.387363 150.016036 
L 103.387363 149.787484 
L 103.512367 149.787484 
L 103.512367 150.016053 
L 104.887417 150.015175 
L 104.887417 149.783738 
L 105.012421 149.783738 
L 105.012421 150.016157 
L 106.012457 150.016193 
L 106.012457 49.956205 
L 106.137462 49.956205 
L 106.137462 150.015618 
L 110.137606 150.01498 
L 110.137606 149.808992 
L 110.26261 149.808992 
L 110.26261 150.016359 
L 113.637732 150.014286 
L 113.637732 149.856838 
L 113.762736 149.856838 
L 113.762736 150.016 
L 124.013105 150.011887 
L 124.013105 149.895185 
L 124.263114 150.004436 
L 124.263114 150.016637 
L 127.013213 150.014053 
L 127.013213 75.673184 
L 127.138218 75.673184 
L 127.138218 150.014521 
L 135.013501 150.016663 
L 135.013501 149.382032 
L 135.138506 149.382032 
L 135.138506 150.015819 
L 139.263654 150.01667 
L 139.263654 148.434594 
L 139.388659 148.434594 
L 139.388659 150.016682 
L 143.888821 150.016639 
L 143.888821 147.354217 
L 144.013825 147.354217 
L 144.013825 150.016621 
L 161.63946 150.017065 
L 161.63946 147.734127 
L 161.764464 147.734127 
L 161.764464 150.014221 
L 164.13955 150.017146 
L 164.13955 149.346751 
L 164.264554 149.346751 
L 164.264554 150.017152 
L 167.264662 150.01721 
L 167.264662 149.875661 
L 167.389667 149.875661 
L 167.389667 150.017213 
L 170.014761 150.017233 
L 170.014761 149.881196 
L 170.139766 149.881196 
L 170.139766 150.008301 
L 171.764824 149.993136 
L 171.764824 148.409407 
L 171.889829 148.409407 
L 171.889829 150.014782 
L 177.640036 150.017408 
L 177.640036 148.020992 
L 177.765041 148.020992 
L 177.765041 150.017415 
L 181.765185 150.006549 
L 181.765185 149.887891 
L 181.890189 149.887891 
L 181.890189 149.583253 
L 182.015194 149.583253 
L 182.015194 150.017446 
L 185.015302 150.016917 
L 185.015302 149.743708 
L 185.140306 149.743708 
L 185.140306 140.860097 
L 185.265311 140.860097 
L 185.265311 150.017509 
L 187.390387 150.017417 
L 187.390387 149.201732 
L 187.515392 149.201732 
L 187.515392 150.017369 
L 190.765509 150.014246 
L 190.765509 132.801718 
L 190.890513 132.801718 
L 190.890513 144.63261 
L 191.015518 144.63261 
L 191.015518 150.014916 
L 191.64054 150.01581 
L 191.64054 148.041244 
L 191.765545 148.041244 
L 191.765545 150.013359 
L 197.265743 149.993593 
L 197.265743 148.78226 
L 197.390747 148.78226 
L 197.390747 150.017666 
L 202.640936 149.99397 
L 202.640936 147.939564 
L 202.765941 147.939564 
L 202.765941 150.016375 
L 206.64108 150.017805 
L 206.64108 146.71021 
L 206.766085 146.71021 
L 206.766085 150.017807 
L 212.391287 150.017947 
L 212.391287 149.303363 
L 212.516292 149.303363 
L 212.516292 150.012376 
L 212.766301 150.016495 
L 212.766301 149.878463 
L 212.891305 149.878463 
L 212.891305 150.017952 
L 213.391323 149.981016 
L 213.391323 149.735627 
L 213.516328 149.735627 
L 213.516328 150.017956 
L 214.266355 150.012512 
L 214.266355 149.639591 
L 214.391359 149.639591 
L 214.391359 150.017971 
L 223.141674 150.01588 
L 223.141674 148.955828 
L 223.266679 148.955828 
L 223.266679 150.018061 
L 224.516724 150.018063 
L 224.516724 144.877631 
L 224.641728 144.877631 
L 224.641728 150.018057 
L 225.141746 150.01805 
L 225.141746 149.896203 
L 225.266751 149.896203 
L 225.266751 150.008415 
L 233.01703 150.018253 
L 233.01703 149.790333 
L 233.142034 149.790333 
L 233.142034 150.017541 
L 234.14207 150.018278 
L 234.14207 149.888218 
L 234.267075 149.888218 
L 234.267075 150.018275 
L 235.642124 150.018269 
L 235.642124 149.288863 
L 235.767129 149.288863 
L 235.767129 150.00419 
L 236.392151 150.016104 
L 236.392151 148.716105 
L 236.517156 148.716105 
L 236.517156 149.679171 
L 236.64216 149.679171 
L 236.64216 150.017546 
L 240.267291 149.99981 
L 240.267291 142.448754 
L 240.392295 142.448754 
L 240.392295 150.018335 
L 240.642304 150.018331 
L 240.642304 149.060036 
L 240.767309 149.060036 
L 240.767309 150.018346 
L 241.64234 150.018403 
L 241.64234 149.737079 
L 241.767345 149.737079 
L 241.767345 150.018422 
L 243.892421 150.018288 
L 243.892421 149.637246 
L 244.017426 149.637246 
L 244.017426 150.018257 
L 244.14243 150.018257 
L 244.14243 149.478326 
L 244.267435 149.478326 
L 244.267435 150.018251 
L 244.767453 150.018275 
L 244.767453 149.903491 
L 244.892457 149.903491 
L 244.892457 150.018291 
L 245.267471 150.018307 
L 245.267471 149.124644 
L 245.392475 149.124644 
L 245.392475 150.018324 
L 245.51748 150.018324 
L 245.51748 149.710077 
L 245.642484 149.710077 
L 245.642484 150.016408 
L 245.892493 150.018348 
L 245.892493 149.528402 
L 246.017498 149.528402 
L 246.017498 149.199991 
L 246.142502 149.199991 
L 246.142502 150.016401 
L 246.892529 150.014422 
L 246.892529 149.746161 
L 247.017534 149.746161 
L 247.017534 149.971543 
L 248.01757 149.99877 
L 248.01757 149.660846 
L 248.142574 149.660846 
L 248.142574 150.018518 
L 249.517624 150.018569 
L 249.517624 149.427456 
L 249.642628 149.427456 
L 249.642628 150.018577 
L 249.892637 150.017809 
L 249.892637 149.852756 
L 250.017642 149.852756 
L 250.017642 150.018585 
L 258.267939 150.017109 
L 258.267939 117.293038 
L 258.392943 117.293038 
L 258.392943 150.018191 
L 258.517948 150.018191 
L 258.517948 149.835161 
L 258.767957 149.763435 
L 258.767957 150.018573 
L 259.017966 150.018586 
L 259.017966 149.539807 
L 259.14297 149.539807 
L 259.14297 150.018612 
L 261.518056 150.018521 
L 261.518056 149.854975 
L 261.64306 149.854975 
L 261.64306 150.018716 
L 264.268155 150.01876 
L 264.268155 149.779149 
L 264.393159 149.779149 
L 264.393159 150.018754 
L 265.143186 150.018739 
L 265.143186 149.892035 
L 265.268191 149.892035 
L 265.268191 150.018733 
L 266.393231 149.972065 
L 266.393231 140.787728 
L 266.518236 140.787728 
L 266.518236 150.018227 
L 267.143258 149.978876 
L 267.143258 149.891089 
L 267.268263 149.891089 
L 267.268263 150.018758 
L 267.643276 150.018536 
L 267.643276 149.434715 
L 267.768281 149.434715 
L 267.768281 150.009669 
L 268.01829 150.018373 
L 268.01829 149.892483 
L 268.143294 149.892483 
L 268.143294 150.018765 
L 275.768569 150.018952 
L 275.768569 149.536668 
L 275.893573 149.536668 
L 275.893573 150.018961 
L 276.768605 150.016835 
L 276.768605 149.886832 
L 276.893609 149.886832 
L 276.893609 150.018935 
L 278.643672 150.007816 
L 278.643672 146.162076 
L 278.768677 146.162076 
L 278.768677 150.018884 
L 282.143798 150.019028 
L 282.143798 46.641231 
L 282.268803 46.641231 
L 282.268803 150.015953 
L 286.268947 150.019083 
L 286.268947 149.696865 
L 286.393951 149.696865 
L 286.393951 150.019084 
L 287.393987 150.019089 
L 287.393987 149.842707 
L 287.518992 149.842707 
L 287.518992 150.019093 
L 287.894005 150.017188 
L 287.894005 146.773487 
L 288.01901 146.773487 
L 288.01901 150.0191 
L 294.269235 150.019252 
L 294.269235 149.529466 
L 294.394239 149.529466 
L 294.394239 150.019239 
L 296.394311 150.019178 
L 296.394311 149.81599 
L 296.519316 149.81599 
L 296.519316 150.019187 
L 301.394491 150.019291 
L 301.394491 145.677797 
L 301.519496 145.677797 
L 301.519496 150.01905 
L 308.394743 150.019393 
L 308.394743 149.834965 
L 308.519748 149.834965 
L 308.519748 149.649265 
L 308.644752 149.649265 
L 308.644752 150.016788 
L 311.144842 150.019458 
L 311.144842 149.86675 
L 311.269847 149.86675 
L 311.269847 150.019458 
L 314.769973 150.019519 
L 314.769973 149.746459 
L 314.894977 149.746459 
L 314.894977 150.01953 
L 317.395068 150.016682 
L 317.395068 149.660808 
L 317.520072 149.660808 
L 317.520072 150.001711 
L 318.145095 150.014896 
L 318.145095 149.758932 
L 318.270099 149.758932 
L 318.270099 150.019568 
L 320.395176 150.016727 
L 320.395176 147.628001 
L 320.52018 147.628001 
L 320.52018 150.019585 
L 322.270243 150.019608 
L 322.270243 149.663186 
L 322.395248 149.663186 
L 322.395248 150.019613 
L 327.020414 150.018185 
L 327.020414 148.563893 
L 327.145419 148.563893 
L 327.145419 150.019724 
L 328.02045 150.01974 
L 328.02045 149.369769 
L 328.145455 149.369769 
L 328.145455 150.01974 
L 330.895554 150.019731 
L 330.895554 147.236441 
L 331.020558 147.236441 
L 331.020558 150.019733 
L 331.89559 150.019736 
L 331.89559 148.559742 
L 332.020594 148.559742 
L 332.020594 150.019734 
L 336.89577 150.019797 
L 336.89577 149.90359 
L 337.020774 149.90359 
L 337.020774 150.019796 
L 338.520828 150.019784 
L 338.520828 149.623552 
L 338.645833 149.623552 
L 338.645833 150.012463 
L 339.145851 150.019787 
L 339.145851 149.328281 
L 339.270855 149.328281 
L 339.270855 149.054272 
L 339.39586 149.054272 
L 339.39586 150.019796 
L 340.395896 150.019823 
L 340.395896 149.692733 
L 340.5209 149.692733 
L 340.5209 150.019833 
L 341.395932 150.019869 
L 341.395932 149.659758 
L 341.520936 149.659758 
L 341.520936 150.019173 
L 342.395968 150.019176 
L 342.395968 149.310225 
L 342.520972 149.310225 
L 342.520972 150.01992 
L 344.39604 150.019883 
L 344.39604 149.4051 
L 344.521044 149.4051 
L 344.521044 150.019893 
L 345.146067 150.019914 
L 345.146067 149.275673 
L 345.271071 149.275673 
L 345.271071 150.01897 
L 347.896166 150.019961 
L 347.896166 146.732973 
L 348.02117 146.732973 
L 348.02117 149.5763 
L 348.146175 149.5763 
L 348.146175 150.019967 
L 351.021278 150.020057 
L 351.021278 149.855533 
L 351.146283 149.855533 
L 351.146283 148.494151 
L 351.271287 148.494151 
L 351.271287 150.020072 
L 353.02135 150.020034 
L 353.02135 149.892814 
L 353.146355 149.892814 
L 353.146355 150.020029 
L 360.52162 150.020059 
L 360.52162 147.260755 
L 360.646625 147.260755 
L 360.646625 150.000026 
L 365.771809 150.016738 
L 365.771809 136.63758 
L 365.896814 136.63758 
L 365.896814 150.015557 
L 371.272007 150.014331 
L 371.272007 149.819552 
L 371.397012 149.819552 
L 371.397012 150.008213 
L 377.272223 150.016873 
L 377.272223 149.890522 
L 377.397228 149.890522 
L 377.397228 150.016884 
L 380.272331 150.014098 
L 380.272331 148.923587 
L 380.397336 148.923587 
L 380.397336 150.016998 
L 382.772421 150.017083 
L 382.772421 149.860277 
L 382.897426 149.860277 
L 382.897426 150.010435 
L 384.147471 150.017124 
L 384.147471 148.567459 
L 384.272475 148.567459 
L 384.272475 150.017113 
L 387.147579 150.003414 
L 387.147579 149.837275 
L 387.272583 149.837275 
L 387.272583 150.011884 
L 394.272835 150.008693 
L 394.272835 149.216371 
L 394.39784 149.216371 
L 394.39784 150.017338 
L 401.273087 150.017501 
L 401.273087 148.218889 
L 401.398092 148.218889 
L 401.398092 150.017491 
L 409.023366 150.017565 
L 409.023366 142.444685 
L 409.148371 142.444685 
L 409.148371 150.017561 
L 412.398488 150.017688 
L 412.398488 149.604375 
L 412.523492 149.604375 
L 412.523492 150.017028 
L 414.273555 150.017742 
L 414.273555 148.901175 
L 414.39856 148.901175 
L 414.39856 150.017744 
L 414.773573 150.017747 
L 414.773573 150.017747 
" clip-path="url(#p7b5f392204)" style="fill: none; stroke: #1f77b4; stroke-width: 1.5; stroke-linecap: square"/>
   </g>
   <g id="patch_3">
    <path d="M 57.6 155.195077 
L 57.6 41.472 
" style="fill: none; stroke: #000000; stroke-width: 0.8; stroke-linejoin: miter; stroke-linecap: square"/>
   </g>
   <g id="patch_4">
    <path d="M 414.72 155.195077 
L 414.72 41.472 
" style="fill: none; stroke: #000000; stroke-width: 0.8; stroke-linejoin: miter; stroke-linecap: square"/>
   </g>
   <g id="patch_5">
    <path d="M 57.6 155.195077 
L 414.72 155.195077 
" style="fill: none; stroke: #000000; stroke-width: 0.8; stroke-linejoin: miter; stroke-linecap: square"/>
   </g>
   <g id="patch_6">
    <path d="M 57.6 41.472 
L 414.72 41.472 
" style="fill: none; stroke: #000000; stroke-width: 0.8; stroke-linejoin: miter; stroke-linecap: square"/>
   </g>
   <g id="legend_1">
    <g id="patch_7">
     <path d="M 289.040313 64.150125 
L 407.72 64.150125 
Q 409.72 64.150125 409.72 62.150125 
L 409.72 48.472 
Q 409.72 46.472 407.72 46.472 
L 289.040313 46.472 
Q 287.040313 46.472 287.040313 48.472 
L 287.040313 62.150125 
Q 287.040313 64.150125 289.040313 64.150125 
z
" style="fill: #ffffff; opacity: 0.8; stroke: #cccccc; stroke-linejoin: miter"/>
    </g>
    <g id="line2d_16">
     <path d="M 291.040313 54.570437 
L 291.040313 54.570437 
L 301.040313 54.570437 
L 301.040313 54.570437 
L 311.040313 54.570437 
" style="fill: none; stroke: #1f77b4; stroke-width: 1.5; stroke-linecap: square"/>
    </g>
    <g id="text_18">
     <!-- dummy response -->
     <g transform="translate(319.040313 58.070437) scale(0.1 -0.1)">
      <defs>
       <path id="DejaVuSans-64" d="M 2906 2969 
L 2906 4863 
L 3481 4863 
L 3481 0 
L 2906 0 
L 2906 525 
Q 2725 213 2448 61 
Q 2172 -91 1784 -91 
Q 1150 -91 751 415 
Q 353 922 353 1747 
Q 353 2572 751 3078 
Q 1150 3584 1784 3584 
Q 2172 3584 2448 3432 
Q 2725 3281 2906 2969 
z
M 947 1747 
Q 947 1113 1208 752 
Q 1469 391 1925 391 
Q 2381 391 2643 752 
Q 2906 1113 2906 1747 
Q 2906 2381 2643 2742 
Q 2381 3103 1925 3103 
Q 1469 3103 1208 2742 
Q 947 2381 947 1747 
z
" transform="scale(0.015625)"/>
       <path id="DejaVuSans-75" d="M 544 1381 
L 544 3500 
L 1119 3500 
L 1119 1403 
Q 1119 906 1312 657 
Q 1506 409 1894 409 
Q 2359 409 2629 706 
Q 2900 1003 2900 1516 
L 2900 3500 
L 3475 3500 
L 3475 0 
L 2900 0 
L 2900 538 
Q 2691 219 2414 64 
Q 2138 -91 1772 -91 
Q 1169 -91 856 284 
Q 544 659 544 1381 
z
M 1991 3584 
L 1991 3584 
z
" transform="scale(0.015625)"/>
       <path id="DejaVuSans-6f" d="M 1959 3097 
Q 1497 3097 1228 2736 
Q 959 2375 959 1747 
Q 959 1119 1226 758 
Q 1494 397 1959 397 
Q 2419 397 2687 759 
Q 2956 1122 2956 1747 
Q 2956 2369 2687 2733 
Q 2419 3097 1959 3097 
z
M 1959 3584 
Q 2709 3584 3137 3096 
Q 3566 2609 3566 1747 
Q 3566 888 3137 398 
Q 2709 -91 1959 -91 
Q 1206 -91 779 398 
Q 353 888 353 1747 
Q 353 2609 779 3096 
Q 1206 3584 1959 3584 
z
" transform="scale(0.015625)"/>
      </defs>
      <use xlink:href="#DejaVuSans-64"/>
      <use xlink:href="#DejaVuSans-75" transform="translate(63.476562 0)"/>
      <use xlink:href="#DejaVuSans-6d" transform="translate(126.855469 0)"/>
      <use xlink:href="#DejaVuSans-6d" transform="translate(224.267578 0)"/>
      <use xlink:href="#DejaVuSans-79" transform="translate(321.679688 0)"/>
      <use xlink:href="#DejaVuSans-20" transform="translate(380.859375 0)"/>
      <use xlink:href="#DejaVuSans-72" transform="translate(412.646484 0)"/>
      <use xlink:href="#DejaVuSans-65" transform="translate(451.509766 0)"/>
      <use xlink:href="#DejaVuSans-73" transform="translate(513.033203 0)"/>
      <use xlink:href="#DejaVuSans-70" transform="translate(565.132812 0)"/>
      <use xlink:href="#DejaVuSans-6f" transform="translate(628.609375 0)"/>
      <use xlink:href="#DejaVuSans-6e" transform="translate(689.791016 0)"/>
      <use xlink:href="#DejaVuSans-73" transform="translate(753.169922 0)"/>
      <use xlink:href="#DejaVuSans-65" transform="translate(805.269531 0)"/>
     </g>
    </g>
   </g>
  </g>
  <g id="axes_2">
   <g id="patch_8">
    <path d="M 57.6 307.584 
L 414.72 307.584 
L 414.72 193.860923 
L 57.6 193.860923 
z
" style="fill: #ffffff"/>
   </g>
   <g id="matplotlib.axis_3">
    <g id="xtick_10">
     <g id="line2d_17">
      <g>
       <use xlink:href="#m709538f4ae" x="57.6" y="307.584" style="stroke: #000000; stroke-width: 0.8"/>
      </g>
     </g>
     <g id="text_19">
      <!-- 0.700 -->
      <g transform="translate(43.285938 322.182437) scale(0.1 -0.1)">
       <use xlink:href="#DejaVuSans-30"/>
       <use xlink:href="#DejaVuSans-2e" transform="translate(63.623047 0)"/>
       <use xlink:href="#DejaVuSans-37" transform="translate(95.410156 0)"/>
       <use xlink:href="#DejaVuSans-30" transform="translate(159.033203 0)"/>
       <use xlink:href="#DejaVuSans-30" transform="translate(222.65625 0)"/>
      </g>
     </g>
    </g>
    <g id="xtick_11">
     <g id="line2d_18">
      <g>
       <use xlink:href="#m709538f4ae" x="102.24" y="307.584" style="stroke: #000000; stroke-width: 0.8"/>
      </g>
     </g>
     <g id="text_20">
      <!-- 0.725 -->
      <g transform="translate(87.925938 322.182437) scale(0.1 -0.1)">
       <use xlink:href="#DejaVuSans-30"/>
       <use xlink:href="#DejaVuSans-2e" transform="translate(63.623047 0)"/>
       <use xlink:href="#DejaVuSans-37" transform="translate(95.410156 0)"/>
       <use xlink:href="#DejaVuSans-32" transform="translate(159.033203 0)"/>
       <use xlink:href="#DejaVuSans-35" transform="translate(222.65625 0)"/>
      </g>
     </g>
    </g>
    <g id="xtick_12">
     <g id="line2d_19">
      <g>
       <use xlink:href="#m709538f4ae" x="146.88" y="307.584" style="stroke: #000000; stroke-width: 0.8"/>
      </g>
     </g>
     <g id="text_21">
      <!-- 0.750 -->
      <g transform="translate(132.565937 322.182437) scale(0.1 -0.1)">
       <use xlink:href="#DejaVuSans-30"/>
       <use xlink:href="#DejaVuSans-2e" transform="translate(63.623047 0)"/>
       <use xlink:href="#DejaVuSans-37" transform="translate(95.410156 0)"/>
       <use xlink:href="#DejaVuSans-35" transform="translate(159.033203 0)"/>
       <use xlink:href="#DejaVuSans-30" transform="translate(222.65625 0)"/>
      </g>
     </g>
    </g>
    <g id="xtick_13">
     <g id="line2d_20">
      <g>
       <use xlink:href="#m709538f4ae" x="191.52" y="307.584" style="stroke: #000000; stroke-width: 0.8"/>
      </g>
     </g>
     <g id="text_22">
      <!-- 0.775 -->
      <g transform="translate(177.205937 322.182437) scale(0.1 -0.1)">
       <use xlink:href="#DejaVuSans-30"/>
       <use xlink:href="#DejaVuSans-2e" transform="translate(63.623047 0)"/>
       <use xlink:href="#DejaVuSans-37" transform="translate(95.410156 0)"/>
       <use xlink:href="#DejaVuSans-37" transform="translate(159.033203 0)"/>
       <use xlink:href="#DejaVuSans-35" transform="translate(222.65625 0)"/>
      </g>
     </g>
    </g>
    <g id="xtick_14">
     <g id="line2d_21">
      <g>
       <use xlink:href="#m709538f4ae" x="236.16" y="307.584" style="stroke: #000000; stroke-width: 0.8"/>
      </g>
     </g>
     <g id="text_23">
      <!-- 0.800 -->
      <g transform="translate(221.845937 322.182437) scale(0.1 -0.1)">
       <use xlink:href="#DejaVuSans-30"/>
       <use xlink:href="#DejaVuSans-2e" transform="translate(63.623047 0)"/>
       <use xlink:href="#DejaVuSans-38" transform="translate(95.410156 0)"/>
       <use xlink:href="#DejaVuSans-30" transform="translate(159.033203 0)"/>
       <use xlink:href="#DejaVuSans-30" transform="translate(222.65625 0)"/>
      </g>
     </g>
    </g>
    <g id="xtick_15">
     <g id="line2d_22">
      <g>
       <use xlink:href="#m709538f4ae" x="280.8" y="307.584" style="stroke: #000000; stroke-width: 0.8"/>
      </g>
     </g>
     <g id="text_24">
      <!-- 0.825 -->
      <g transform="translate(266.485937 322.182437) scale(0.1 -0.1)">
       <use xlink:href="#DejaVuSans-30"/>
       <use xlink:href="#DejaVuSans-2e" transform="translate(63.623047 0)"/>
       <use xlink:href="#DejaVuSans-38" transform="translate(95.410156 0)"/>
       <use xlink:href="#DejaVuSans-32" transform="translate(159.033203 0)"/>
       <use xlink:href="#DejaVuSans-35" transform="translate(222.65625 0)"/>
      </g>
     </g>
    </g>
    <g id="xtick_16">
     <g id="line2d_23">
      <g>
       <use xlink:href="#m709538f4ae" x="325.44" y="307.584" style="stroke: #000000; stroke-width: 0.8"/>
      </g>
     </g>
     <g id="text_25">
      <!-- 0.850 -->
      <g transform="translate(311.125938 322.182437) scale(0.1 -0.1)">
       <use xlink:href="#DejaVuSans-30"/>
       <use xlink:href="#DejaVuSans-2e" transform="translate(63.623047 0)"/>
       <use xlink:href="#DejaVuSans-38" transform="translate(95.410156 0)"/>
       <use xlink:href="#DejaVuSans-35" transform="translate(159.033203 0)"/>
       <use xlink:href="#DejaVuSans-30" transform="translate(222.65625 0)"/>
      </g>
     </g>
    </g>
    <g id="xtick_17">
     <g id="line2d_24">
      <g>
       <use xlink:href="#m709538f4ae" x="370.08" y="307.584" style="stroke: #000000; stroke-width: 0.8"/>
      </g>
     </g>
     <g id="text_26">
      <!-- 0.875 -->
      <g transform="translate(355.765937 322.182437) scale(0.1 -0.1)">
       <use xlink:href="#DejaVuSans-30"/>
       <use xlink:href="#DejaVuSans-2e" transform="translate(63.623047 0)"/>
       <use xlink:href="#DejaVuSans-38" transform="translate(95.410156 0)"/>
       <use xlink:href="#DejaVuSans-37" transform="translate(159.033203 0)"/>
       <use xlink:href="#DejaVuSans-35" transform="translate(222.65625 0)"/>
      </g>
     </g>
    </g>
    <g id="xtick_18">
     <g id="line2d_25">
      <g>
       <use xlink:href="#m709538f4ae" x="414.72" y="307.584" style="stroke: #000000; stroke-width: 0.8"/>
      </g>
     </g>
     <g id="text_27">
      <!-- 0.900 -->
      <g transform="translate(400.405937 322.182437) scale(0.1 -0.1)">
       <use xlink:href="#DejaVuSans-30"/>
       <use xlink:href="#DejaVuSans-2e" transform="translate(63.623047 0)"/>
       <use xlink:href="#DejaVuSans-39" transform="translate(95.410156 0)"/>
       <use xlink:href="#DejaVuSans-30" transform="translate(159.033203 0)"/>
       <use xlink:href="#DejaVuSans-30" transform="translate(222.65625 0)"/>
      </g>
     </g>
    </g>
    <g id="text_28">
     <!-- Energy (keV) -->
     <g transform="translate(203.952187 335.860563) scale(0.1 -0.1)">
      <use xlink:href="#DejaVuSans-45"/>
      <use xlink:href="#DejaVuSans-6e" transform="translate(63.183594 0)"/>
      <use xlink:href="#DejaVuSans-65" transform="translate(126.5625 0)"/>
      <use xlink:href="#DejaVuSans-72" transform="translate(188.085938 0)"/>
      <use xlink:href="#DejaVuSans-67" transform="translate(227.449219 0)"/>
      <use xlink:href="#DejaVuSans-79" transform="translate(290.925781 0)"/>
      <use xlink:href="#DejaVuSans-20" transform="translate(350.105469 0)"/>
      <use xlink:href="#DejaVuSans-28" transform="translate(381.892578 0)"/>
      <use xlink:href="#DejaVuSans-6b" transform="translate(420.90625 0)"/>
      <use xlink:href="#DejaVuSans-65" transform="translate(475.191406 0)"/>
      <use xlink:href="#DejaVuSans-56" transform="translate(536.714844 0)"/>
      <use xlink:href="#DejaVuSans-29" transform="translate(605.123047 0)"/>
     </g>
    </g>
   </g>
   <g id="matplotlib.axis_4">
    <g id="ytick_6">
     <g id="line2d_26">
      <g>
       <use xlink:href="#m0b771be4a3" x="57.6" y="302.414769" style="stroke: #000000; stroke-width: 0.8"/>
      </g>
     </g>
     <g id="text_29">
      <!-- 0 -->
      <g transform="translate(44.2375 306.213988) scale(0.1 -0.1)">
       <use xlink:href="#DejaVuSans-30"/>
      </g>
     </g>
    </g>
    <g id="ytick_7">
     <g id="line2d_27">
      <g>
       <use xlink:href="#m0b771be4a3" x="57.6" y="267.07843" style="stroke: #000000; stroke-width: 0.8"/>
      </g>
     </g>
     <g id="text_30">
      <!-- 2 -->
      <g transform="translate(44.2375 270.877649) scale(0.1 -0.1)">
       <use xlink:href="#DejaVuSans-32"/>
      </g>
     </g>
    </g>
    <g id="ytick_8">
     <g id="line2d_28">
      <g>
       <use xlink:href="#m0b771be4a3" x="57.6" y="231.742091" style="stroke: #000000; stroke-width: 0.8"/>
      </g>
     </g>
     <g id="text_31">
      <!-- 4 -->
      <g transform="translate(44.2375 235.54131) scale(0.1 -0.1)">
       <defs>
        <path id="DejaVuSans-34" d="M 2419 4116 
L 825 1625 
L 2419 1625 
L 2419 4116 
z
M 2253 4666 
L 3047 4666 
L 3047 1625 
L 3713 1625 
L 3713 1100 
L 3047 1100 
L 3047 0 
L 2419 0 
L 2419 1100 
L 313 1100 
L 313 1709 
L 2253 4666 
z
" transform="scale(0.015625)"/>
       </defs>
       <use xlink:href="#DejaVuSans-34"/>
      </g>
     </g>
    </g>
    <g id="ytick_9">
     <g id="line2d_29">
      <g>
       <use xlink:href="#m0b771be4a3" x="57.6" y="196.405752" style="stroke: #000000; stroke-width: 0.8"/>
      </g>
     </g>
     <g id="text_32">
      <!-- 6 -->
      <g transform="translate(44.2375 200.204971) scale(0.1 -0.1)">
       <defs>
        <path id="DejaVuSans-36" d="M 2113 2584 
Q 1688 2584 1439 2293 
Q 1191 2003 1191 1497 
Q 1191 994 1439 701 
Q 1688 409 2113 409 
Q 2538 409 2786 701 
Q 3034 994 3034 1497 
Q 3034 2003 2786 2293 
Q 2538 2584 2113 2584 
z
M 3366 4563 
L 3366 3988 
Q 3128 4100 2886 4159 
Q 2644 4219 2406 4219 
Q 1781 4219 1451 3797 
Q 1122 3375 1075 2522 
Q 1259 2794 1537 2939 
Q 1816 3084 2150 3084 
Q 2853 3084 3261 2657 
Q 3669 2231 3669 1497 
Q 3669 778 3244 343 
Q 2819 -91 2113 -91 
Q 1303 -91 875 529 
Q 447 1150 447 2328 
Q 447 3434 972 4092 
Q 1497 4750 2381 4750 
Q 2619 4750 2861 4703 
Q 3103 4656 3366 4563 
z
" transform="scale(0.015625)"/>
       </defs>
       <use xlink:href="#DejaVuSans-36"/>
      </g>
     </g>
    </g>
    <g id="text_33">
     <!-- Intensity (ph cm$^5$ s$^{-1}$ bin$^{-1}$) -->
     <g transform="translate(38.1375 320.172462) rotate(-90) scale(0.1 -0.1)">
      <use xlink:href="#DejaVuSans-49" transform="translate(0 0.684375)"/>
      <use xlink:href="#DejaVuSans-6e" transform="translate(29.492188 0.684375)"/>
      <use xlink:href="#DejaVuSans-74" transform="translate(92.871094 0.684375)"/>
      <use xlink:href="#DejaVuSans-65" transform="translate(132.080078 0.684375)"/>
      <use xlink:href="#DejaVuSans-6e" transform="translate(193.603516 0.684375)"/>
      <use xlink:href="#DejaVuSans-73" transform="translate(256.982422 0.684375)"/>
      <use xlink:href="#DejaVuSans-69" transform="translate(309.082031 0.684375)"/>
      <use xlink:href="#DejaVuSans-74" transform="translate(336.865234 0.684375)"/>
      <use xlink:href="#DejaVuSans-79" transform="translate(376.074219 0.684375)"/>
      <use xlink:href="#DejaVuSans-20" transform="translate(435.253906 0.684375)"/>
      <use xlink:href="#DejaVuSans-28" transform="translate(467.041016 0.684375)"/>
      <use xlink:href="#DejaVuSans-70" transform="translate(506.054688 0.684375)"/>
      <use xlink:href="#DejaVuSans-68" transform="translate(569.53125 0.684375)"/>
      <use xlink:href="#DejaVuSans-20" transform="translate(632.910156 0.684375)"/>
      <use xlink:href="#DejaVuSans-63" transform="translate(664.697266 0.684375)"/>
      <use xlink:href="#DejaVuSans-6d" transform="translate(719.677734 0.684375)"/>
      <use xlink:href="#DejaVuSans-35" transform="translate(818.046875 38.965625) scale(0.7)"/>
      <use xlink:href="#DejaVuSans-20" transform="translate(865.317383 0.684375)"/>
      <use xlink:href="#DejaVuSans-73" transform="translate(897.104492 0.684375)"/>
      <use xlink:href="#DejaVuSans-2212" transform="translate(950.161133 38.965625) scale(0.7)"/>
      <use xlink:href="#DejaVuSans-31" transform="translate(1008.813477 38.965625) scale(0.7)"/>
      <use xlink:href="#DejaVuSans-20" transform="translate(1056.083984 0.684375)"/>
      <use xlink:href="#DejaVuSans-62" transform="translate(1087.871094 0.684375)"/>
      <use xlink:href="#DejaVuSans-69" transform="translate(1151.347656 0.684375)"/>
      <use xlink:href="#DejaVuSans-6e" transform="translate(1179.130859 0.684375)"/>
      <use xlink:href="#DejaVuSans-2212" transform="translate(1243.466797 38.965625) scale(0.7)"/>
      <use xlink:href="#DejaVuSans-31" transform="translate(1302.119141 38.965625) scale(0.7)"/>
      <use xlink:href="#DejaVuSans-29" transform="translate(1349.389648 0.684375)"/>
     </g>
    </g>
    <g id="text_34">
     <!-- 1e−16 -->
     <g transform="translate(57.6 190.860923) scale(0.1 -0.1)">
      <use xlink:href="#DejaVuSans-31"/>
      <use xlink:href="#DejaVuSans-65" transform="translate(63.623047 0)"/>
      <use xlink:href="#DejaVuSans-2212" transform="translate(125.146484 0)"/>
      <use xlink:href="#DejaVuSans-31" transform="translate(208.935547 0)"/>
      <use xlink:href="#DejaVuSans-36" transform="translate(272.558594 0)"/>
     </g>
    </g>
   </g>
   <g id="line2d_30">
    <path d="M 57.390205 302.39818 
L 57.390205 302.397685 
L 63.059415 302.300917 
L 63.059415 302.171398 
L 63.415423 302.171398 
L 63.415423 301.957217 
L 63.771751 301.957217 
L 63.771751 301.807733 
L 64.484832 301.884644 
L 64.484832 302.107929 
L 64.841586 302.107929 
L 64.841586 302.277608 
L 66.987003 302.383151 
L 66.987003 302.389736 
L 80.014254 302.279426 
L 80.014254 302.27792 
L 86.629521 302.38853 
L 86.629521 302.389831 
L 100.06855 302.284848 
L 100.06855 302.235196 
L 100.445951 302.235196 
L 100.445951 302.113682 
L 100.823459 302.113682 
L 100.823459 301.842208 
L 101.201285 301.842208 
L 101.201285 300.842363 
L 101.579218 300.842363 
L 101.579218 297.524841 
L 101.957471 297.524841 
L 101.957471 291.790432 
L 102.335936 291.790432 
L 102.335936 287.711267 
L 102.714614 287.711267 
L 102.714614 289.56469 
L 103.093505 289.56469 
L 103.093505 295.187067 
L 103.472609 295.187067 
L 103.472609 299.407283 
L 103.851926 299.407283 
L 103.851926 300.858966 
L 104.231455 300.858966 
L 104.231455 301.20836 
L 104.611198 301.20836 
L 104.611198 300.311116 
L 104.991259 300.311116 
L 104.991259 296.471894 
L 105.371428 296.471894 
L 105.371428 289.694652 
L 105.751915 289.694652 
L 105.751915 284.881182 
L 106.132615 284.881182 
L 106.132615 287.167335 
L 106.513422 287.167335 
L 106.513422 293.954932 
L 106.894548 293.954932 
L 106.894548 299.057634 
L 107.275887 299.057634 
L 107.275887 300.939583 
L 107.657439 300.939583 
L 107.657439 301.736741 
L 108.039203 301.736741 
L 108.039203 302.081746 
L 108.421287 302.081746 
L 108.421287 302.196553 
L 110.334687 302.292692 
L 110.334687 302.31044 
L 125.06269 302.230407 
L 125.06269 302.107346 
L 125.454779 302.107346 
L 125.454779 301.812646 
L 125.84708 301.812646 
L 125.84708 300.738066 
L 126.239594 300.738066 
L 126.239594 297.104845 
L 126.632427 297.104845 
L 126.632427 290.746139 
L 127.025473 290.746139 
L 127.025473 286.213192 
L 127.418626 286.213192 
L 127.418626 288.336689 
L 127.812204 288.336689 
L 127.812204 294.654039 
L 128.205889 294.654039 
L 128.205889 299.357372 
L 128.599787 299.357372 
L 128.599787 301.069141 
L 128.994004 301.069141 
L 128.994004 301.799028 
L 129.388434 301.799028 
L 129.388434 302.114471 
L 129.783076 302.114471 
L 129.783076 302.229114 
L 131.364095 302.330482 
L 131.364095 302.342712 
L 134.935142 302.264934 
L 134.935142 302.223658 
L 136.528507 302.33412 
L 136.528507 302.351128 
L 138.925737 302.246809 
L 138.925737 302.094592 
L 140.52868 302.190036 
L 140.52868 302.303558 
L 142.940279 302.305445 
L 142.940279 302.150404 
L 143.343116 302.150404 
L 143.343116 301.880174 
L 143.746167 301.880174 
L 143.746167 301.688126 
L 144.552907 301.778789 
L 144.552907 302.0466 
L 144.956702 302.0466 
L 144.956702 302.246173 
L 146.169473 302.355565 
L 146.169473 302.370872 
L 160.896199 302.28794 
L 160.896199 302.152242 
L 161.309893 302.152242 
L 161.309893 301.914639 
L 161.7238 301.914639 
L 161.7238 301.741491 
L 162.552464 301.822117 
L 162.552464 302.063359 
L 162.967222 302.063359 
L 162.967222 302.231676 
L 165.877339 302.335184 
L 165.877339 302.34586 
L 170.895303 302.290075 
L 170.895303 302.199254 
L 171.31517 302.199254 
L 171.31517 302.022287 
L 171.735249 302.022287 
L 171.735249 301.891872 
L 172.576153 301.958537 
L 172.576153 302.147927 
L 172.997084 302.147927 
L 172.997084 302.286358 
L 177.220122 302.201522 
L 177.220122 301.987704 
L 177.643926 301.987704 
L 177.643926 301.832249 
L 178.492174 301.903528 
L 178.492174 302.116543 
L 178.916723 302.116543 
L 178.916723 302.271733 
L 183.603903 302.206374 
L 183.603903 301.996431 
L 184.031645 301.996431 
L 184.031645 301.223363 
L 184.459601 301.223363 
L 184.459601 299.830604 
L 184.887875 299.830604 
L 184.887875 298.822798 
L 185.316362 298.822798 
L 185.316362 299.29032 
L 185.745169 299.29032 
L 185.745169 300.676333 
L 186.174189 300.676333 
L 186.174189 301.671664 
L 186.603421 301.671664 
L 186.603421 301.963103 
L 189.184882 301.999172 
L 189.184882 301.565787 
L 189.616137 301.565787 
L 189.616137 299.953046 
L 190.047498 299.953046 
L 190.047498 296.776376 
L 190.479284 296.776376 
L 190.479284 293.839864 
L 191.343496 293.835351 
L 191.343496 296.570352 
L 191.776028 296.570352 
L 191.776028 299.456595 
L 192.208879 299.456595 
L 192.208879 301.066229 
L 192.641943 301.066229 
L 192.641943 301.807816 
L 193.07522 301.807816 
L 193.07522 302.105717 
L 193.508922 302.105717 
L 193.508922 302.227762 
L 196.551758 302.176775 
L 196.551758 301.969319 
L 196.987589 301.969319 
L 196.987589 301.820533 
L 197.859996 301.894022 
L 197.859996 302.10217 
L 198.296572 302.10217 
L 198.296572 302.248642 
L 201.799398 302.258689 
L 201.799398 302.056274 
L 202.238528 302.056274 
L 202.238528 301.685786 
L 202.677871 301.685786 
L 202.677871 301.41397 
L 203.117534 301.41397 
L 203.117534 301.536099 
L 203.557409 301.536099 
L 203.557409 301.904194 
L 203.997604 301.904194 
L 203.997604 302.16755 
L 205.761256 302.191291 
L 205.761256 301.876887 
L 206.202835 301.876887 
L 206.202835 301.285362 
L 206.644732 301.285362 
L 206.644732 300.851732 
L 207.086843 300.851732 
L 207.086843 301.058859 
L 207.529273 301.058859 
L 207.529273 301.659985 
L 207.972022 301.659985 
L 207.972022 302.08818 
L 208.414983 302.08818 
L 208.414983 302.233878 
L 211.969002 302.19718 
L 211.969002 302.020339 
L 212.414518 302.020339 
L 212.414518 301.866053 
L 213.75277 301.950889 
L 213.75277 302.019546 
L 214.646357 302.064437 
L 214.646357 302.146871 
L 215.541114 302.239742 
L 215.541114 302.293944 
L 222.288035 302.2534 
L 222.288035 302.118199 
L 222.740149 302.118199 
L 222.740149 301.856869 
L 223.192584 301.856869 
L 223.192584 301.540355 
L 223.645231 301.540355 
L 223.645231 301.031422 
L 224.098197 301.031422 
L 224.098197 300.154871 
L 224.551482 300.154871 
L 224.551482 299.486694 
L 225.004981 299.486694 
L 225.004981 299.892299 
L 225.458799 299.892299 
L 225.458799 301.012628 
L 225.912936 301.012628 
L 225.912936 301.817425 
L 226.367392 301.817425 
L 226.367392 302.10415 
L 226.822061 302.10415 
L 226.822061 302.227989 
L 234.596883 302.178298 
L 234.596883 302.078344 
L 235.05698 302.078344 
L 235.05698 301.819471 
L 235.517184 301.819471 
L 235.517184 301.440941 
L 235.977813 301.440941 
L 235.977813 301.240702 
L 236.438762 301.240702 
L 236.438762 301.428914 
L 236.899923 301.428914 
L 236.899923 301.803083 
L 237.361404 301.803083 
L 237.361404 302.055163 
L 238.747655 302.125148 
L 238.747655 301.941017 
L 239.210307 301.941017 
L 239.210307 301.123347 
L 239.673277 301.123347 
L 239.673277 299.505178 
L 240.136567 299.505178 
L 240.136567 298.178045 
L 240.600177 298.178045 
L 240.600177 298.513567 
L 241.063999 298.513567 
L 241.063999 300.029817 
L 241.528247 300.029817 
L 241.528247 301.236354 
L 241.992708 301.236354 
L 241.992708 301.748384 
L 242.457488 301.748384 
L 242.457488 302.005139 
L 243.853637 301.90923 
L 243.853637 301.740463 
L 244.785858 301.639434 
L 244.785858 301.459816 
L 245.252447 301.459816 
L 245.252447 301.18339 
L 246.186584 301.124699 
L 246.186584 301.42333 
L 246.654131 301.42333 
L 246.654131 301.790814 
L 247.121891 301.790814 
L 247.121891 301.993203 
L 250.87536 302.048415 
L 250.87536 302.159425 
L 255.594681 302.168609 
L 255.594681 302.0374 
L 256.068401 302.0374 
L 256.068401 301.711403 
L 256.542334 301.711403 
L 256.542334 300.635157 
L 257.016587 300.635157 
L 257.016587 296.610876 
L 257.491158 296.610876 
L 257.491158 288.979623 
L 257.966049 288.979623 
L 257.966049 283.225458 
L 258.441259 283.225458 
L 258.441259 285.69658 
L 258.916683 285.69658 
L 258.916683 293.300766 
L 259.392531 293.300766 
L 259.392531 298.752547 
L 259.868699 298.752547 
L 259.868699 300.711981 
L 260.34508 300.711981 
L 260.34508 301.589373 
L 260.821887 301.589373 
L 260.821887 301.912136 
L 261.298906 301.912136 
L 261.298906 302.028665 
L 262.25401 302.107106 
L 262.25401 302.169266 
L 264.647196 302.103537 
L 264.647196 301.915067 
L 265.12677 301.915067 
L 265.12677 301.225853 
L 265.606663 301.225853 
L 265.606663 299.896472 
L 266.086875 299.896472 
L 266.086875 298.893802 
L 266.567407 298.893802 
L 266.567407 299.319348 
L 267.048258 299.319348 
L 267.048258 300.5898 
L 267.529428 300.5898 
L 267.529428 301.472825 
L 268.010918 301.472825 
L 268.010918 301.834973 
L 268.492727 301.834973 
L 268.492727 302.087355 
L 268.974748 302.087355 
L 268.974748 302.227047 
L 275.757961 302.119569 
L 275.757961 302.022913 
L 277.707654 301.969735 
L 277.707654 301.605298 
L 278.195848 301.605298 
L 278.195848 300.864451 
L 278.684362 300.864451 
L 278.684362 300.259065 
L 279.662454 300.349867 
L 279.662454 300.652531 
L 280.151926 300.652531 
L 280.151926 300.167022 
L 280.641824 300.167022 
L 280.641824 297.181679 
L 281.13204 297.181679 
L 281.13204 285.330794 
L 281.62247 285.330794 
L 281.62247 262.56658 
L 282.113326 262.56658 
L 282.113326 245.587206 
L 282.6045 245.587206 
L 282.6045 253.603533 
L 283.095994 253.603533 
L 283.095994 276.700015 
L 283.587701 276.700015 
L 283.587701 292.62412 
L 284.079834 292.62412 
L 284.079834 298.011416 
L 284.572392 298.011416 
L 284.572392 300.471256 
L 285.065163 300.471256 
L 285.065163 301.40497 
L 285.558254 301.40497 
L 285.558254 301.636445 
L 286.545499 301.592453 
L 286.545499 301.215315 
L 287.039547 301.215315 
L 287.039547 300.484219 
L 287.534021 300.484219 
L 287.534021 299.994424 
L 288.028814 299.994424 
L 288.028814 300.399276 
L 288.523927 300.399276 
L 288.523927 301.302299 
L 289.019359 301.302299 
L 289.019359 301.902016 
L 289.51511 301.902016 
L 289.51511 302.111537 
L 290.50757 302.213329 
L 290.50757 302.254829 
L 293.991877 302.176199 
L 293.991877 302.127016 
L 296.490749 302.23175 
L 296.490749 302.261249 
L 299.500484 302.273957 
L 299.500484 302.13861 
L 300.00326 302.13861 
L 300.00326 301.634642 
L 300.506461 301.634642 
L 300.506461 300.67323 
L 301.009982 300.67323 
L 301.009982 299.955753 
L 301.513715 299.955753 
L 301.513715 300.289441 
L 302.017874 300.289441 
L 302.017874 301.254567 
L 302.522459 301.254567 
L 302.522459 301.91991 
L 303.027257 301.91991 
L 303.027257 302.150337 
L 304.038023 302.256693 
L 304.038023 302.296699 
L 307.586295 302.241409 
L 307.586295 302.137798 
L 308.094498 302.137798 
L 308.094498 301.99936 
L 309.62145 302.030046 
L 309.62145 302.167075 
L 314.733498 302.066751 
L 314.733498 301.981213 
L 315.760123 302.004499 
L 315.760123 302.099703 
L 316.788131 302.106045 
L 316.788131 301.945524 
L 317.302614 301.945524 
L 317.302614 301.743153 
L 318.848297 301.840225 
L 318.848297 301.907582 
L 319.36427 301.907582 
L 319.36427 301.5319 
L 319.880562 301.5319 
L 319.880562 300.661604 
L 320.397174 300.661604 
L 320.397174 299.991145 
L 320.914211 299.991145 
L 320.914211 300.259592 
L 321.431567 300.259592 
L 321.431567 301.053003 
L 321.949243 301.053003 
L 321.949243 301.581164 
L 322.467238 301.581164 
L 322.467238 301.841354 
L 322.985659 301.841354 
L 322.985659 302.072284 
L 323.504506 302.072284 
L 323.504506 302.194041 
L 325.583085 302.147534 
L 325.583085 301.864486 
L 326.103634 301.864486 
L 326.103634 301.282975 
L 326.624503 301.282975 
L 326.624503 300.724466 
L 327.667411 300.656705 
L 327.667411 301.0391 
L 328.189344 301.0391 
L 328.189344 301.509671 
L 328.711702 301.509671 
L 328.711702 301.843986 
L 329.757378 301.922197 
L 329.757378 301.452608 
L 330.280801 301.452608 
L 330.280801 300.381773 
L 330.804649 300.381773 
L 330.804649 299.341308 
L 331.328711 299.341308 
L 331.328711 299.184281 
L 331.853198 299.184281 
L 331.853198 299.83935 
L 332.378111 299.83935 
L 332.378111 300.734081 
L 332.903344 300.734081 
L 332.903344 301.503272 
L 333.428895 301.503272 
L 333.428895 301.973834 
L 333.954766 301.973834 
L 333.954766 302.142666 
L 337.11808 302.066892 
L 337.11808 301.943143 
L 337.646612 301.943143 
L 337.646612 301.605193 
L 338.175463 301.605193 
L 338.175463 300.96585 
L 338.704633 300.96585 
L 338.704633 300.342584 
L 339.234229 300.342584 
L 339.234229 300.219866 
L 339.764144 300.219866 
L 339.764144 300.63327 
L 340.294485 300.63327 
L 340.294485 301.111581 
L 340.825145 301.111581 
L 340.825145 301.335835 
L 341.887637 301.330397 
L 341.887637 301.211473 
L 344.016983 301.225021 
L 344.016983 301.062875 
L 344.550304 301.062875 
L 344.550304 300.904007 
L 345.617904 300.96323 
L 345.617904 301.239121 
L 346.152289 301.239121 
L 346.152289 301.439481 
L 346.686993 301.439481 
L 346.686993 300.798102 
L 347.222124 300.798102 
L 347.222124 299.069439 
L 347.75768 299.069439 
L 347.75768 297.70249 
L 348.293555 297.70249 
L 348.293555 298.321691 
L 348.82975 298.321691 
L 348.82975 300.146868 
L 349.36637 300.146868 
L 349.36637 301.313677 
L 350.440675 301.331768 
L 350.440675 300.691994 
L 350.978466 300.691994 
L 350.978466 300.117342 
L 351.516576 300.117342 
L 351.516576 300.402448 
L 352.055006 300.402448 
L 352.055006 301.203477 
L 352.593861 301.203477 
L 352.593861 301.733313 
L 353.133143 301.733313 
L 353.133143 301.930464 
L 354.212769 302.037357 
L 354.212769 302.073342 
L 357.460589 302.000065 
L 357.460589 301.952766 
L 358.546282 301.904718 
L 358.546282 301.74278 
L 359.089713 301.74278 
L 359.089713 301.021817 
L 359.633465 301.021817 
L 359.633465 299.581826 
L 360.177641 299.581826 
L 360.177641 298.48868 
L 360.722138 298.48868 
L 360.722138 298.998908 
L 361.267059 298.998908 
L 361.267059 300.457497 
L 361.812407 300.457497 
L 361.812407 301.420068 
L 362.358074 301.420068 
L 362.358074 301.70732 
L 363.450685 301.753903 
L 363.450685 301.540994 
L 363.997522 301.540994 
L 363.997522 300.690645 
L 364.544679 300.690645 
L 364.544679 297.182044 
L 365.092368 297.182044 
L 365.092368 290.138868 
L 365.640377 290.138868 
L 365.640377 284.757199 
L 366.188704 284.757199 
L 366.188704 287.27346 
L 366.737458 287.27346 
L 366.737458 294.467648 
L 367.286637 294.467648 
L 367.286637 299.252913 
L 367.836135 299.252913 
L 367.836135 300.862178 
L 368.386059 300.862178 
L 368.386059 301.62801 
L 368.936409 301.62801 
L 368.936409 301.920503 
L 371.14164 301.852846 
L 371.14164 301.76934 
L 374.461087 301.873692 
L 374.461087 301.898463 
L 376.681856 301.851591 
L 376.681856 301.785263 
L 378.909012 301.792038 
L 378.909012 301.490166 
L 379.466705 301.490166 
L 379.466705 300.828957 
L 380.024931 300.828957 
L 380.024931 300.311102 
L 380.583476 300.311102 
L 380.583476 300.513689 
L 381.142446 300.513689 
L 381.142446 301.143705 
L 381.701736 301.143705 
L 381.701736 301.538416 
L 382.8217 301.547914 
L 382.8217 301.132761 
L 383.382267 301.132761 
L 383.382267 300.272987 
L 383.943153 300.272987 
L 383.943153 299.642977 
L 384.504465 299.642977 
L 384.504465 299.99651 
L 385.066309 299.99651 
L 385.066309 300.924651 
L 385.628367 300.924651 
L 385.628367 301.491303 
L 387.317305 301.590397 
L 387.317305 301.705583 
L 387.881065 301.705583 
L 387.881065 301.854808 
L 389.009756 301.931421 
L 389.009756 301.985105 
L 392.972998 301.957249 
L 392.972998 301.710362 
L 393.540802 301.710362 
L 393.540802 301.164725 
L 394.108926 301.164725 
L 394.108926 300.731278 
L 394.677582 300.731278 
L 394.677582 300.915809 
L 395.246557 300.915809 
L 395.246557 301.469458 
L 395.816064 301.469458 
L 395.816064 301.827171 
L 396.956143 301.935259 
L 396.956143 301.991682 
L 398.669347 301.972862 
L 398.669347 301.80292 
L 399.241196 301.80292 
L 399.241196 301.546575 
L 399.813471 301.546575 
L 399.813471 300.971635 
L 400.386171 300.971635 
L 400.386171 299.838988 
L 400.959296 299.838988 
L 400.959296 298.938036 
L 401.532848 298.938036 
L 401.532848 299.394154 
L 402.106825 299.394154 
L 402.106825 300.660026 
L 402.681122 300.660026 
L 402.681122 301.460776 
L 403.255951 301.460776 
L 403.255951 301.716381 
L 403.831099 301.716381 
L 403.831099 301.876961 
L 404.982778 301.975497 
L 404.982778 302.004995 
L 406.136054 301.967609 
L 406.136054 301.83903 
L 406.713331 301.83903 
L 406.713331 301.542669 
L 407.291033 301.542669 
L 407.291033 300.822877 
L 407.869055 300.822877 
L 407.869055 298.129741 
L 408.447609 298.129741 
L 408.447609 292.625175 
L 409.026588 292.625175 
L 409.026588 288.34874 
L 409.605887 288.34874 
L 409.605887 290.354122 
L 410.185718 290.354122 
L 410.185718 296.049353 
L 410.765868 296.049353 
L 410.765868 299.723037 
L 411.34655 299.723037 
L 411.34655 300.800565 
L 411.927552 300.800565 
L 411.927552 301.065887 
L 413.090939 300.960488 
L 413.090939 300.742494 
L 413.673218 300.742494 
L 413.673218 300.250235 
L 414.255922 300.250235 
L 414.255922 299.821333 
L 414.839053 299.821333 
L 414.839053 299.821333 
" clip-path="url(#p9f381373f7)" style="fill: none; stroke: #1f77b4; stroke-width: 1.5; stroke-linecap: square"/>
   </g>
   <g id="patch_9">
    <path d="M 57.6 307.584 
L 57.6 193.860923 
" style="fill: none; stroke: #000000; stroke-width: 0.8; stroke-linejoin: miter; stroke-linecap: square"/>
   </g>
   <g id="patch_10">
    <path d="M 414.72 307.584 
L 414.72 193.860923 
" style="fill: none; stroke: #000000; stroke-width: 0.8; stroke-linejoin: miter; stroke-linecap: square"/>
   </g>
   <g id="patch_11">
    <path d="M 57.6 307.584 
L 414.72 307.584 
" style="fill: none; stroke: #000000; stroke-width: 0.8; stroke-linejoin: miter; stroke-linecap: square"/>
   </g>
   <g id="patch_12">
    <path d="M 57.6 193.860923 
L 414.72 193.860923 
" style="fill: none; stroke: #000000; stroke-width: 0.8; stroke-linejoin: miter; stroke-linecap: square"/>
   </g>
   <g id="legend_2">
    <g id="patch_13">
     <path d="M 307.473125 216.539048 
L 407.72 216.539048 
Q 409.72 216.539048 409.72 214.539048 
L 409.72 200.860923 
Q 409.72 198.860923 407.72 198.860923 
L 307.473125 198.860923 
Q 305.473125 198.860923 305.473125 200.860923 
L 305.473125 214.539048 
Q 305.473125 216.539048 307.473125 216.539048 
z
" style="fill: #ffffff; opacity: 0.8; stroke: #cccccc; stroke-linejoin: miter"/>
    </g>
    <g id="line2d_31">
     <path d="M 309.473125 206.959361 
L 309.473125 206.959361 
L 319.473125 206.959361 
L 319.473125 206.959361 
L 329.473125 206.959361 
" style="fill: none; stroke: #1f77b4; stroke-width: 1.5; stroke-linecap: square"/>
    </g>
    <g id="text_35">
     <!-- Chandra MEG -->
     <g transform="translate(337.473125 210.459361) scale(0.1 -0.1)">
      <defs>
       <path id="DejaVuSans-43" d="M 4122 4306 
L 4122 3641 
Q 3803 3938 3442 4084 
Q 3081 4231 2675 4231 
Q 1875 4231 1450 3742 
Q 1025 3253 1025 2328 
Q 1025 1406 1450 917 
Q 1875 428 2675 428 
Q 3081 428 3442 575 
Q 3803 722 4122 1019 
L 4122 359 
Q 3791 134 3420 21 
Q 3050 -91 2638 -91 
Q 1578 -91 968 557 
Q 359 1206 359 2328 
Q 359 3453 968 4101 
Q 1578 4750 2638 4750 
Q 3056 4750 3426 4639 
Q 3797 4528 4122 4306 
z
" transform="scale(0.015625)"/>
       <path id="DejaVuSans-61" d="M 2194 1759 
Q 1497 1759 1228 1600 
Q 959 1441 959 1056 
Q 959 750 1161 570 
Q 1363 391 1709 391 
Q 2188 391 2477 730 
Q 2766 1069 2766 1631 
L 2766 1759 
L 2194 1759 
z
M 3341 1997 
L 3341 0 
L 2766 0 
L 2766 531 
Q 2569 213 2275 61 
Q 1981 -91 1556 -91 
Q 1019 -91 701 211 
Q 384 513 384 1019 
Q 384 1609 779 1909 
Q 1175 2209 1959 2209 
L 2766 2209 
L 2766 2266 
Q 2766 2663 2505 2880 
Q 2244 3097 1772 3097 
Q 1472 3097 1187 3025 
Q 903 2953 641 2809 
L 641 3341 
Q 956 3463 1253 3523 
Q 1550 3584 1831 3584 
Q 2591 3584 2966 3190 
Q 3341 2797 3341 1997 
z
" transform="scale(0.015625)"/>
       <path id="DejaVuSans-4d" d="M 628 4666 
L 1569 4666 
L 2759 1491 
L 3956 4666 
L 4897 4666 
L 4897 0 
L 4281 0 
L 4281 4097 
L 3078 897 
L 2444 897 
L 1241 4097 
L 1241 0 
L 628 0 
L 628 4666 
z
" transform="scale(0.015625)"/>
       <path id="DejaVuSans-47" d="M 3809 666 
L 3809 1919 
L 2778 1919 
L 2778 2438 
L 4434 2438 
L 4434 434 
Q 4069 175 3628 42 
Q 3188 -91 2688 -91 
Q 1594 -91 976 548 
Q 359 1188 359 2328 
Q 359 3472 976 4111 
Q 1594 4750 2688 4750 
Q 3144 4750 3555 4637 
Q 3966 4525 4313 4306 
L 4313 3634 
Q 3963 3931 3569 4081 
Q 3175 4231 2741 4231 
Q 1884 4231 1454 3753 
Q 1025 3275 1025 2328 
Q 1025 1384 1454 906 
Q 1884 428 2741 428 
Q 3075 428 3337 486 
Q 3600 544 3809 666 
z
" transform="scale(0.015625)"/>
      </defs>
      <use xlink:href="#DejaVuSans-43"/>
      <use xlink:href="#DejaVuSans-68" transform="translate(69.824219 0)"/>
      <use xlink:href="#DejaVuSans-61" transform="translate(133.203125 0)"/>
      <use xlink:href="#DejaVuSans-6e" transform="translate(194.482422 0)"/>
      <use xlink:href="#DejaVuSans-64" transform="translate(257.861328 0)"/>
      <use xlink:href="#DejaVuSans-72" transform="translate(321.337891 0)"/>
      <use xlink:href="#DejaVuSans-61" transform="translate(362.451172 0)"/>
      <use xlink:href="#DejaVuSans-20" transform="translate(423.730469 0)"/>
      <use xlink:href="#DejaVuSans-4d" transform="translate(455.517578 0)"/>
      <use xlink:href="#DejaVuSans-45" transform="translate(541.796875 0)"/>
      <use xlink:href="#DejaVuSans-47" transform="translate(604.980469 0)"/>
     </g>
    </g>
   </g>
  </g>
 </g>
 <defs>
  <clipPath id="p7b5f392204">
   <rect x="57.6" y="41.472" width="357.12" height="113.723077"/>
  </clipPath>
  <clipPath id="p9f381373f7">
   <rect x="57.6" y="193.860923" width="357.12" height="113.723077"/>
  </clipPath>
 </defs>
</svg>
