<?xml version="1.0" encoding="utf-8" standalone="no"?>
<!DOCTYPE svg PUBLIC "-//W3C//DTD SVG 1.1//EN"
  "http://www.w3.org/Graphics/SVG/1.1/DTD/svg11.dtd">
<!-- Created with matplotlib (http://matplotlib.org/) -->
<svg height="345pt" version="1.1" viewBox="0 0 460 345" width="460pt" xmlns="http://www.w3.org/2000/svg" xmlns:xlink="http://www.w3.org/1999/xlink">
 <defs>
  <style type="text/css">
*{stroke-linecap:butt;stroke-linejoin:round;}
  </style>
 </defs>
 <g id="figure_1">
  <g id="patch_1">
   <path d="M 0 345.6 
L 460.8 345.6 
L 460.8 0 
L 0 0 
z
" style="fill:#ffffff;"/>
  </g>
  <g id="axes_1">
   <g id="patch_2">
    <path d="M 57.6 307.584 
L 414.72 307.584 
L 414.72 41.472 
L 57.6 41.472 
z
" style="fill:#ffffff;"/>
   </g>
   <g id="matplotlib.axis_1">
    <g id="xtick_1">
     <g id="line2d_1">
      <defs>
       <path d="M 0 0 
L 0 3.5 
" id="m651087303a" style="stroke:#000000;stroke-width:0.8;"/>
      </defs>
      <g>
       <use style="stroke:#000000;stroke-width:0.8;" x="57.6" xlink:href="#m651087303a" y="307.584"/>
      </g>
     </g>
     <g id="text_1">
      <!-- 0.6 -->
      <defs>
       <path d="M 50.484375 30.328125 
Q 50.484375 14.453125 45.0625 6.734375 
Q 39.65625 -0.984375 28.125 -0.984375 
Q 16.75 -0.984375 11.28125 6.5625 
Q 5.8125 14.109375 5.609375 29.109375 
L 5.609375 41.15625 
Q 5.609375 56.84375 11.03125 64.453125 
Q 16.453125 72.078125 28.03125 72.078125 
Q 39.5 72.078125 44.921875 64.71875 
Q 50.34375 57.375 50.484375 42.046875 
z
M 41.453125 42.671875 
Q 41.453125 54.15625 38.234375 59.40625 
Q 35.015625 64.65625 28.03125 64.65625 
Q 21.09375 64.65625 17.921875 59.421875 
Q 14.75 54.203125 14.65625 43.359375 
L 14.65625 28.90625 
Q 14.65625 17.390625 18 11.890625 
Q 21.34375 6.390625 28.125 6.390625 
Q 34.8125 6.390625 38.0625 11.5625 
Q 41.3125 16.75 41.453125 27.875 
z
" id="Roboto-Regular-30"/>
       <path d="M 7.03125 4.734375 
Q 7.03125 7.078125 8.421875 8.640625 
Q 9.8125 10.203125 12.59375 10.203125 
Q 15.375 10.203125 16.8125 8.640625 
Q 18.265625 7.078125 18.265625 4.734375 
Q 18.265625 2.484375 16.8125 0.96875 
Q 15.375 -0.53125 12.59375 -0.53125 
Q 9.8125 -0.53125 8.421875 0.96875 
Q 7.03125 2.484375 7.03125 4.734375 
z
" id="Roboto-Regular-2e"/>
       <path d="M 41.359375 71.140625 
L 41.359375 63.484375 
L 39.703125 63.484375 
Q 29.15625 63.28125 22.90625 57.21875 
Q 16.65625 51.171875 15.671875 40.1875 
Q 21.296875 46.625 31 46.625 
Q 40.28125 46.625 45.828125 40.078125 
Q 51.375 33.546875 51.375 23.1875 
Q 51.375 12.203125 45.390625 5.609375 
Q 39.40625 -0.984375 29.34375 -0.984375 
Q 19.140625 -0.984375 12.796875 6.859375 
Q 6.453125 14.703125 6.453125 27.046875 
L 6.453125 30.515625 
Q 6.453125 50.140625 14.8125 60.515625 
Q 23.1875 70.90625 39.75 71.140625 
z
M 29.5 39.109375 
Q 24.859375 39.109375 20.953125 36.328125 
Q 17.046875 33.546875 15.53125 29.34375 
L 15.53125 26.03125 
Q 15.53125 17.234375 19.484375 11.859375 
Q 23.4375 6.5 29.34375 6.5 
Q 35.453125 6.5 38.9375 10.984375 
Q 42.4375 15.484375 42.4375 22.75 
Q 42.4375 30.078125 38.890625 34.59375 
Q 35.359375 39.109375 29.5 39.109375 
z
" id="Roboto-Regular-36"/>
      </defs>
      <g transform="translate(50.66875 322.084)scale(0.1 -0.1)">
       <use xlink:href="#Roboto-Regular-30"/>
       <use x="56.152344" xlink:href="#Roboto-Regular-2e"/>
       <use x="82.470703" xlink:href="#Roboto-Regular-36"/>
      </g>
     </g>
    </g>
    <g id="xtick_2">
     <g id="line2d_2">
      <g>
       <use style="stroke:#000000;stroke-width:0.8;" x="117.12" xlink:href="#m651087303a" y="307.584"/>
      </g>
     </g>
     <g id="text_2">
      <!-- 0.7 -->
      <defs>
       <path d="M 51.8125 66.015625 
L 22.359375 0 
L 12.890625 0 
L 42.234375 63.671875 
L 3.765625 63.671875 
L 3.765625 71.09375 
L 51.8125 71.09375 
z
" id="Roboto-Regular-37"/>
      </defs>
      <g transform="translate(110.18875 322.084)scale(0.1 -0.1)">
       <use xlink:href="#Roboto-Regular-30"/>
       <use x="56.152344" xlink:href="#Roboto-Regular-2e"/>
       <use x="82.470703" xlink:href="#Roboto-Regular-37"/>
      </g>
     </g>
    </g>
    <g id="xtick_3">
     <g id="line2d_3">
      <g>
       <use style="stroke:#000000;stroke-width:0.8;" x="176.64" xlink:href="#m651087303a" y="307.584"/>
      </g>
     </g>
     <g id="text_3">
      <!-- 0.8 -->
      <defs>
       <path d="M 49.03125 52.546875 
Q 49.03125 47.21875 46.21875 43.0625 
Q 43.40625 38.921875 38.625 36.578125 
Q 44.1875 34.1875 47.4375 29.59375 
Q 50.6875 25 50.6875 19.1875 
Q 50.6875 9.96875 44.453125 4.484375 
Q 38.234375 -0.984375 28.078125 -0.984375 
Q 17.828125 -0.984375 11.640625 4.515625 
Q 5.46875 10.015625 5.46875 19.1875 
Q 5.46875 24.953125 8.609375 29.59375 
Q 11.765625 34.234375 17.328125 36.625 
Q 12.59375 38.96875 9.859375 43.109375 
Q 7.125 47.265625 7.125 52.546875 
Q 7.125 61.53125 12.890625 66.796875 
Q 18.65625 72.078125 28.078125 72.078125 
Q 37.453125 72.078125 43.234375 66.796875 
Q 49.03125 61.53125 49.03125 52.546875 
z
M 41.65625 19.390625 
Q 41.65625 25.34375 37.859375 29.09375 
Q 34.078125 32.859375 27.96875 32.859375 
Q 21.875 32.859375 18.1875 29.140625 
Q 14.5 25.4375 14.5 19.375 
Q 14.5 13.328125 18.09375 9.859375 
Q 21.6875 6.390625 28.078125 6.390625 
Q 34.421875 6.390625 38.03125 9.875 
Q 41.65625 13.375 41.65625 19.390625 
z
M 28.078125 64.65625 
Q 22.75 64.65625 19.453125 61.359375 
Q 16.15625 58.0625 16.15625 52.390625 
Q 16.15625 46.96875 19.40625 43.625 
Q 22.65625 40.28125 28.078125 40.28125 
Q 33.5 40.28125 36.734375 43.625 
Q 39.984375 46.96875 39.984375 52.390625 
Q 39.984375 57.8125 36.609375 61.234375 
Q 33.25 64.65625 28.078125 64.65625 
z
" id="Roboto-Regular-38"/>
      </defs>
      <g transform="translate(169.70875 322.084)scale(0.1 -0.1)">
       <use xlink:href="#Roboto-Regular-30"/>
       <use x="56.152344" xlink:href="#Roboto-Regular-2e"/>
       <use x="82.470703" xlink:href="#Roboto-Regular-38"/>
      </g>
     </g>
    </g>
    <g id="xtick_4">
     <g id="line2d_4">
      <g>
       <use style="stroke:#000000;stroke-width:0.8;" x="236.16" xlink:href="#m651087303a" y="307.584"/>
      </g>
     </g>
     <g id="text_4">
      <!-- 0.9 -->
      <defs>
       <path d="M 40.53125 31.25 
Q 37.703125 27.875 33.765625 25.828125 
Q 29.828125 23.78125 25.140625 23.78125 
Q 19 23.78125 14.421875 26.796875 
Q 9.859375 29.828125 7.375 35.328125 
Q 4.890625 40.828125 4.890625 47.46875 
Q 4.890625 54.59375 7.59375 60.296875 
Q 10.296875 66.015625 15.28125 69.046875 
Q 20.265625 72.078125 26.90625 72.078125 
Q 37.453125 72.078125 43.53125 64.1875 
Q 49.609375 56.296875 49.609375 42.671875 
L 49.609375 40.046875 
Q 49.609375 19.28125 41.40625 9.734375 
Q 33.203125 0.203125 16.65625 -0.046875 
L 14.890625 -0.046875 
L 14.890625 7.5625 
L 16.796875 7.5625 
Q 27.984375 7.765625 33.984375 13.40625 
Q 39.984375 19.046875 40.53125 31.25 
z
M 26.609375 31.25 
Q 31.15625 31.25 34.984375 34.03125 
Q 38.8125 36.8125 40.578125 40.921875 
L 40.578125 44.53125 
Q 40.578125 53.421875 36.71875 58.984375 
Q 32.859375 64.546875 26.953125 64.546875 
Q 21 64.546875 17.375 59.984375 
Q 13.765625 55.421875 13.765625 47.953125 
Q 13.765625 40.671875 17.25 35.953125 
Q 20.75 31.25 26.609375 31.25 
z
" id="Roboto-Regular-39"/>
      </defs>
      <g transform="translate(229.22875 322.084)scale(0.1 -0.1)">
       <use xlink:href="#Roboto-Regular-30"/>
       <use x="56.152344" xlink:href="#Roboto-Regular-2e"/>
       <use x="82.470703" xlink:href="#Roboto-Regular-39"/>
      </g>
     </g>
    </g>
    <g id="xtick_5">
     <g id="line2d_5">
      <g>
       <use style="stroke:#000000;stroke-width:0.8;" x="295.68" xlink:href="#m651087303a" y="307.584"/>
      </g>
     </g>
     <g id="text_5">
      <!-- 1.0 -->
      <defs>
       <path d="M 35.59375 0 
L 26.515625 0 
L 26.515625 60.203125 
L 8.296875 53.515625 
L 8.296875 61.71875 
L 34.1875 71.4375 
L 35.59375 71.4375 
z
" id="Roboto-Regular-31"/>
      </defs>
      <g transform="translate(288.74875 322.084)scale(0.1 -0.1)">
       <use xlink:href="#Roboto-Regular-31"/>
       <use x="56.152344" xlink:href="#Roboto-Regular-2e"/>
       <use x="82.470703" xlink:href="#Roboto-Regular-30"/>
      </g>
     </g>
    </g>
    <g id="xtick_6">
     <g id="line2d_6">
      <g>
       <use style="stroke:#000000;stroke-width:0.8;" x="355.2" xlink:href="#m651087303a" y="307.584"/>
      </g>
     </g>
     <g id="text_6">
      <!-- 1.1 -->
      <g transform="translate(348.26875 322.084)scale(0.1 -0.1)">
       <use xlink:href="#Roboto-Regular-31"/>
       <use x="56.152344" xlink:href="#Roboto-Regular-2e"/>
       <use x="82.470703" xlink:href="#Roboto-Regular-31"/>
      </g>
     </g>
    </g>
    <g id="xtick_7">
     <g id="line2d_7">
      <g>
       <use style="stroke:#000000;stroke-width:0.8;" x="414.72" xlink:href="#m651087303a" y="307.584"/>
      </g>
     </g>
     <g id="text_7">
      <!-- 1.2 -->
      <defs>
       <path d="M 52.484375 0 
L 5.90625 0 
L 5.90625 6.5 
L 30.515625 33.84375 
Q 35.984375 40.046875 38.0625 43.921875 
Q 40.140625 47.796875 40.140625 51.953125 
Q 40.140625 57.515625 36.765625 61.078125 
Q 33.40625 64.65625 27.78125 64.65625 
Q 21.046875 64.65625 17.3125 60.8125 
Q 13.578125 56.984375 13.578125 50.140625 
L 4.546875 50.140625 
Q 4.546875 59.96875 10.859375 66.015625 
Q 17.1875 72.078125 27.78125 72.078125 
Q 37.703125 72.078125 43.453125 66.875 
Q 49.21875 61.671875 49.21875 53.03125 
Q 49.21875 42.53125 35.84375 28.03125 
L 16.796875 7.375 
L 52.484375 7.375 
z
" id="Roboto-Regular-32"/>
      </defs>
      <g transform="translate(407.78875 322.084)scale(0.1 -0.1)">
       <use xlink:href="#Roboto-Regular-31"/>
       <use x="56.152344" xlink:href="#Roboto-Regular-2e"/>
       <use x="82.470703" xlink:href="#Roboto-Regular-32"/>
      </g>
     </g>
    </g>
    <g id="text_8">
     <!-- Energy (keV) -->
     <defs>
      <path d="M 48.4375 32.859375 
L 17.625 32.859375 
L 17.625 7.671875 
L 53.421875 7.671875 
L 53.421875 0 
L 8.25 0 
L 8.25 71.09375 
L 52.9375 71.09375 
L 52.9375 63.375 
L 17.625 63.375 
L 17.625 40.53125 
L 48.4375 40.53125 
z
" id="Roboto-Regular-45"/>
      <path d="M 15.375 52.828125 
L 15.671875 46.1875 
Q 21.734375 53.8125 31.5 53.8125 
Q 48.25 53.8125 48.390625 34.90625 
L 48.390625 0 
L 39.359375 0 
L 39.359375 34.96875 
Q 39.3125 40.671875 36.75 43.40625 
Q 34.1875 46.140625 28.765625 46.140625 
Q 24.359375 46.140625 21.03125 43.796875 
Q 17.71875 41.453125 15.875 37.640625 
L 15.875 0 
L 6.84375 0 
L 6.84375 52.828125 
z
" id="Roboto-Regular-6e"/>
      <path d="M 28.765625 -0.984375 
Q 18.015625 -0.984375 11.28125 6.078125 
Q 4.546875 13.140625 4.546875 24.953125 
L 4.546875 26.609375 
Q 4.546875 34.46875 7.546875 40.640625 
Q 10.546875 46.828125 15.9375 50.3125 
Q 21.34375 53.8125 27.640625 53.8125 
Q 37.9375 53.8125 43.640625 47.015625 
Q 49.359375 40.234375 49.359375 27.59375 
L 49.359375 23.828125 
L 13.578125 23.828125 
Q 13.765625 16.015625 18.140625 11.203125 
Q 22.515625 6.390625 29.25 6.390625 
Q 34.03125 6.390625 37.34375 8.34375 
Q 40.671875 10.296875 43.171875 13.53125 
L 48.6875 9.234375 
Q 42.046875 -0.984375 28.765625 -0.984375 
z
M 27.640625 46.390625 
Q 22.171875 46.390625 18.453125 42.40625 
Q 14.75 38.421875 13.875 31.25 
L 40.328125 31.25 
L 40.328125 31.9375 
Q 39.9375 38.8125 36.609375 42.59375 
Q 33.296875 46.390625 27.640625 46.390625 
z
" id="Roboto-Regular-65"/>
      <path d="M 32.375 44.734375 
Q 30.328125 45.0625 27.9375 45.0625 
Q 19.046875 45.0625 15.875 37.5 
L 15.875 0 
L 6.84375 0 
L 6.84375 52.828125 
L 15.625 52.828125 
L 15.765625 46.734375 
Q 20.21875 53.8125 28.375 53.8125 
Q 31 53.8125 32.375 53.125 
z
" id="Roboto-Regular-72"/>
      <path d="M 4.6875 26.859375 
Q 4.6875 39.203125 10.390625 46.5 
Q 16.109375 53.8125 25.53125 53.8125 
Q 35.203125 53.8125 40.625 46.96875 
L 41.0625 52.828125 
L 49.3125 52.828125 
L 49.3125 1.265625 
Q 49.3125 -8.984375 43.234375 -14.890625 
Q 37.15625 -20.796875 26.90625 -20.796875 
Q 21.1875 -20.796875 15.71875 -18.359375 
Q 10.25 -15.921875 7.375 -11.671875 
L 12.0625 -6.25 
Q 17.875 -13.421875 26.265625 -13.421875 
Q 32.859375 -13.421875 36.546875 -9.703125 
Q 40.234375 -6 40.234375 0.734375 
L 40.234375 5.28125 
Q 34.8125 -0.984375 25.4375 -0.984375 
Q 16.15625 -0.984375 10.421875 6.484375 
Q 4.6875 13.96875 4.6875 26.859375 
z
M 13.765625 25.828125 
Q 13.765625 16.890625 17.421875 11.78125 
Q 21.09375 6.6875 27.6875 6.6875 
Q 36.234375 6.6875 40.234375 14.453125 
L 40.234375 38.578125 
Q 36.078125 46.140625 27.78125 46.140625 
Q 21.1875 46.140625 17.46875 41.015625 
Q 13.765625 35.890625 13.765625 25.828125 
z
" id="Roboto-Regular-67"/>
      <path d="M 24.125 13.234375 
L 36.421875 52.828125 
L 46.09375 52.828125 
L 24.859375 -8.15625 
Q 19.921875 -21.34375 9.1875 -21.34375 
L 7.46875 -21.1875 
L 4.109375 -20.5625 
L 4.109375 -13.234375 
L 6.546875 -13.421875 
Q 11.140625 -13.421875 13.703125 -11.5625 
Q 16.265625 -9.71875 17.921875 -4.78125 
L 19.921875 0.59375 
L 1.078125 52.828125 
L 10.9375 52.828125 
z
" id="Roboto-Regular-79"/>
      <path id="Roboto-Regular-20"/>
      <path d="M 6.5 28.859375 
Q 6.5 39.890625 9.453125 50.046875 
Q 12.40625 60.203125 18.265625 68.5 
Q 24.125 76.8125 30.421875 80.21875 
L 32.28125 74.265625 
Q 25.140625 68.796875 20.578125 57.5625 
Q 16.015625 46.34375 15.578125 32.421875 
L 15.53125 28.265625 
Q 15.53125 9.421875 22.40625 -4.4375 
Q 26.5625 -12.75 32.28125 -17.4375 
L 30.421875 -22.953125 
Q 23.921875 -19.34375 18.015625 -10.84375 
Q 6.5 5.765625 6.5 28.859375 
z
" id="Roboto-Regular-28"/>
      <path d="M 21.578125 24.46875 
L 15.921875 18.5625 
L 15.921875 0 
L 6.890625 0 
L 6.890625 75 
L 15.921875 75 
L 15.921875 29.640625 
L 20.75 35.453125 
L 37.203125 52.828125 
L 48.1875 52.828125 
L 27.640625 30.765625 
L 50.59375 0 
L 39.984375 0 
z
" id="Roboto-Regular-6b"/>
      <path d="M 31.78125 12.453125 
L 52.09375 71.09375 
L 62.359375 71.09375 
L 35.984375 0 
L 27.6875 0 
L 1.375 71.09375 
L 11.578125 71.09375 
z
" id="Roboto-Regular-56"/>
      <path d="M 27.6875 28.375 
Q 27.6875 17.484375 24.828125 7.5 
Q 21.96875 -2.484375 16.078125 -10.9375 
Q 10.203125 -19.390625 3.765625 -22.953125 
L 1.859375 -17.4375 
Q 9.375 -11.671875 13.9375 0.453125 
Q 18.5 12.59375 18.609375 27.390625 
L 18.609375 28.953125 
Q 18.609375 39.203125 16.453125 48.015625 
Q 14.3125 56.84375 10.46875 63.8125 
Q 6.640625 70.796875 1.859375 74.703125 
L 3.765625 80.21875 
Q 10.203125 76.65625 16.03125 68.3125 
Q 21.875 59.96875 24.78125 49.90625 
Q 27.6875 39.84375 27.6875 28.375 
z
" id="Roboto-Regular-29"/>
     </defs>
     <g transform="translate(207.996719 336.137125)scale(0.1 -0.1)">
      <use xlink:href="#Roboto-Regular-45"/>
      <use x="56.835938" xlink:href="#Roboto-Regular-6e"/>
      <use x="112.011719" xlink:href="#Roboto-Regular-65"/>
      <use x="164.990234" xlink:href="#Roboto-Regular-72"/>
      <use x="198.828125" xlink:href="#Roboto-Regular-67"/>
      <use x="254.931641" xlink:href="#Roboto-Regular-79"/>
      <use x="302.246094" xlink:href="#Roboto-Regular-20"/>
      <use x="327.001953" xlink:href="#Roboto-Regular-28"/>
      <use x="361.181641" xlink:href="#Roboto-Regular-6b"/>
      <use x="411.865234" xlink:href="#Roboto-Regular-65"/>
      <use x="464.84375" xlink:href="#Roboto-Regular-56"/>
      <use x="528.466797" xlink:href="#Roboto-Regular-29"/>
     </g>
    </g>
   </g>
   <g id="matplotlib.axis_2">
    <g id="ytick_1">
     <g id="line2d_8">
      <defs>
       <path d="M 0 0 
L -3.5 0 
" id="m8933b9927a" style="stroke:#000000;stroke-width:0.8;"/>
      </defs>
      <g>
       <use style="stroke:#000000;stroke-width:0.8;" x="57.6" xlink:href="#m8933b9927a" y="295.488"/>
      </g>
     </g>
     <g id="text_9">
      <!-- 0 -->
      <g transform="translate(44.984375 299.238)scale(0.1 -0.1)">
       <use xlink:href="#Roboto-Regular-30"/>
      </g>
     </g>
    </g>
    <g id="ytick_2">
     <g id="line2d_9">
      <g>
       <use style="stroke:#000000;stroke-width:0.8;" x="57.6" xlink:href="#m8933b9927a" y="240.354281"/>
      </g>
     </g>
     <g id="text_10">
      <!-- 2 -->
      <g transform="translate(44.984375 244.104281)scale(0.1 -0.1)">
       <use xlink:href="#Roboto-Regular-32"/>
      </g>
     </g>
    </g>
    <g id="ytick_3">
     <g id="line2d_10">
      <g>
       <use style="stroke:#000000;stroke-width:0.8;" x="57.6" xlink:href="#m8933b9927a" y="185.220561"/>
      </g>
     </g>
     <g id="text_11">
      <!-- 4 -->
      <defs>
       <path d="M 44.046875 23.875 
L 53.90625 23.875 
L 53.90625 16.5 
L 44.046875 16.5 
L 44.046875 0 
L 34.96875 0 
L 34.96875 16.5 
L 2.59375 16.5 
L 2.59375 21.828125 
L 34.421875 71.09375 
L 44.046875 71.09375 
z
M 12.84375 23.875 
L 34.96875 23.875 
L 34.96875 58.734375 
L 33.890625 56.78125 
z
" id="Roboto-Regular-34"/>
      </defs>
      <g transform="translate(44.984375 188.970561)scale(0.1 -0.1)">
       <use xlink:href="#Roboto-Regular-34"/>
      </g>
     </g>
    </g>
    <g id="ytick_4">
     <g id="line2d_11">
      <g>
       <use style="stroke:#000000;stroke-width:0.8;" x="57.6" xlink:href="#m8933b9927a" y="130.086842"/>
      </g>
     </g>
     <g id="text_12">
      <!-- 6 -->
      <g transform="translate(44.984375 133.836842)scale(0.1 -0.1)">
       <use xlink:href="#Roboto-Regular-36"/>
      </g>
     </g>
    </g>
    <g id="ytick_5">
     <g id="line2d_12">
      <g>
       <use style="stroke:#000000;stroke-width:0.8;" x="57.6" xlink:href="#m8933b9927a" y="74.953122"/>
      </g>
     </g>
     <g id="text_13">
      <!-- 8 -->
      <g transform="translate(44.984375 78.703122)scale(0.1 -0.1)">
       <use xlink:href="#Roboto-Regular-38"/>
      </g>
     </g>
    </g>
    <g id="text_14">
     <!-- Intensity (ph cm$^5$ s$^{-1}$ bin$^{-1}$) -->
     <defs>
      <path d="M 18.3125 0 
L 8.9375 0 
L 8.9375 71.09375 
L 18.3125 71.09375 
z
" id="Roboto-Regular-49"/>
      <path d="M 19.09375 65.625 
L 19.09375 52.828125 
L 28.953125 52.828125 
L 28.953125 45.84375 
L 19.09375 45.84375 
L 19.09375 13.09375 
Q 19.09375 9.90625 20.40625 8.3125 
Q 21.734375 6.734375 24.90625 6.734375 
Q 26.46875 6.734375 29.203125 7.328125 
L 29.203125 0 
Q 25.640625 -0.984375 22.265625 -0.984375 
Q 16.21875 -0.984375 13.140625 2.671875 
Q 10.0625 6.34375 10.0625 13.09375 
L 10.0625 45.84375 
L 0.4375 45.84375 
L 0.4375 52.828125 
L 10.0625 52.828125 
L 10.0625 65.625 
z
" id="Roboto-Regular-74"/>
      <path d="M 37.59375 14.015625 
Q 37.59375 17.671875 34.828125 19.703125 
Q 32.078125 21.734375 25.21875 23.1875 
Q 18.359375 24.65625 14.328125 26.703125 
Q 10.296875 28.765625 8.375 31.59375 
Q 6.453125 34.421875 6.453125 38.328125 
Q 6.453125 44.828125 11.9375 49.3125 
Q 17.4375 53.8125 25.984375 53.8125 
Q 34.96875 53.8125 40.546875 49.171875 
Q 46.140625 44.53125 46.140625 37.3125 
L 37.0625 37.3125 
Q 37.0625 41.015625 33.90625 43.703125 
Q 30.765625 46.390625 25.984375 46.390625 
Q 21.046875 46.390625 18.265625 44.234375 
Q 15.484375 42.09375 15.484375 38.625 
Q 15.484375 35.359375 18.0625 33.6875 
Q 20.65625 32.03125 27.421875 30.515625 
Q 34.1875 29 38.375 26.90625 
Q 42.578125 24.8125 44.59375 21.84375 
Q 46.625 18.890625 46.625 14.65625 
Q 46.625 7.5625 40.953125 3.28125 
Q 35.296875 -0.984375 26.265625 -0.984375 
Q 19.921875 -0.984375 15.03125 1.265625 
Q 10.15625 3.515625 7.390625 7.546875 
Q 4.640625 11.578125 4.640625 16.265625 
L 13.671875 16.265625 
Q 13.921875 11.71875 17.3125 9.046875 
Q 20.703125 6.390625 26.265625 6.390625 
Q 31.390625 6.390625 34.484375 8.46875 
Q 37.59375 10.546875 37.59375 14.015625 
z
" id="Roboto-Regular-73"/>
      <path d="M 16.65625 0 
L 7.625 0 
L 7.625 52.828125 
L 16.65625 52.828125 
z
M 6.890625 66.84375 
Q 6.890625 69.046875 8.234375 70.5625 
Q 9.578125 72.078125 12.203125 72.078125 
Q 14.84375 72.078125 16.203125 70.5625 
Q 17.578125 69.046875 17.578125 66.84375 
Q 17.578125 64.65625 16.203125 63.1875 
Q 14.84375 61.71875 12.203125 61.71875 
Q 9.578125 61.71875 8.234375 63.1875 
Q 6.890625 64.65625 6.890625 66.84375 
z
" id="Roboto-Regular-69"/>
      <path d="M 51.46875 25.828125 
Q 51.46875 13.765625 45.953125 6.390625 
Q 40.4375 -0.984375 31 -0.984375 
Q 21.390625 -0.984375 15.875 5.125 
L 15.875 -20.3125 
L 6.84375 -20.3125 
L 6.84375 52.828125 
L 15.09375 52.828125 
L 15.53125 46.96875 
Q 21.046875 53.8125 30.859375 53.8125 
Q 40.375 53.8125 45.921875 46.625 
Q 51.46875 39.453125 51.46875 26.65625 
z
M 42.4375 26.859375 
Q 42.4375 35.796875 38.625 40.96875 
Q 34.8125 46.140625 28.171875 46.140625 
Q 19.96875 46.140625 15.875 38.875 
L 15.875 13.625 
Q 19.921875 6.390625 28.265625 6.390625 
Q 34.765625 6.390625 38.59375 11.546875 
Q 42.4375 16.703125 42.4375 26.859375 
z
" id="Roboto-Regular-70"/>
      <path d="M 15.875 46.4375 
Q 21.875 53.8125 31.5 53.8125 
Q 48.25 53.8125 48.390625 34.90625 
L 48.390625 0 
L 39.359375 0 
L 39.359375 34.96875 
Q 39.3125 40.671875 36.75 43.40625 
Q 34.1875 46.140625 28.765625 46.140625 
Q 24.359375 46.140625 21.03125 43.796875 
Q 17.71875 41.453125 15.875 37.640625 
L 15.875 0 
L 6.84375 0 
L 6.84375 75 
L 15.875 75 
z
" id="Roboto-Regular-68"/>
      <path d="M 28.03125 6.390625 
Q 32.859375 6.390625 36.46875 9.3125 
Q 40.09375 12.25 40.484375 16.65625 
L 49.03125 16.65625 
Q 48.78125 12.109375 45.890625 8 
Q 43.015625 3.90625 38.203125 1.453125 
Q 33.40625 -0.984375 28.03125 -0.984375 
Q 17.234375 -0.984375 10.859375 6.21875 
Q 4.5 13.421875 4.5 25.921875 
L 4.5 27.4375 
Q 4.5 35.15625 7.328125 41.15625 
Q 10.15625 47.171875 15.453125 50.484375 
Q 20.75 53.8125 27.984375 53.8125 
Q 36.859375 53.8125 42.75 48.484375 
Q 48.640625 43.171875 49.03125 34.671875 
L 40.484375 34.671875 
Q 40.09375 39.796875 36.59375 43.09375 
Q 33.109375 46.390625 27.984375 46.390625 
Q 21.09375 46.390625 17.3125 41.421875 
Q 13.53125 36.46875 13.53125 27.09375 
L 13.53125 25.390625 
Q 13.53125 16.265625 17.28125 11.328125 
Q 21.046875 6.390625 28.03125 6.390625 
z
" id="Roboto-Regular-63"/>
      <path d="M 15.328125 52.828125 
L 15.578125 46.96875 
Q 21.390625 53.8125 31.25 53.8125 
Q 42.328125 53.8125 46.34375 45.3125 
Q 48.96875 49.125 53.1875 51.46875 
Q 57.421875 53.8125 63.1875 53.8125 
Q 80.5625 53.8125 80.859375 35.40625 
L 80.859375 0 
L 71.828125 0 
L 71.828125 34.859375 
Q 71.828125 40.53125 69.234375 43.328125 
Q 66.65625 46.140625 60.546875 46.140625 
Q 55.515625 46.140625 52.1875 43.140625 
Q 48.875 40.140625 48.34375 35.0625 
L 48.34375 0 
L 39.265625 0 
L 39.265625 34.625 
Q 39.265625 46.140625 27.984375 46.140625 
Q 19.09375 46.140625 15.828125 38.578125 
L 15.828125 0 
L 6.78125 0 
L 6.78125 52.828125 
z
" id="Roboto-Regular-6d"/>
      <path d="M 10.0625 35.640625 
L 13.671875 71.09375 
L 50.09375 71.09375 
L 50.09375 62.75 
L 21.34375 62.75 
L 19.1875 43.359375 
Q 24.421875 46.4375 31.0625 46.4375 
Q 40.765625 46.4375 46.484375 40.015625 
Q 52.203125 33.59375 52.203125 22.65625 
Q 52.203125 11.671875 46.265625 5.34375 
Q 40.328125 -0.984375 29.6875 -0.984375 
Q 20.265625 -0.984375 14.296875 4.234375 
Q 8.34375 9.46875 7.515625 18.703125 
L 16.0625 18.703125 
Q 16.890625 12.59375 20.40625 9.484375 
Q 23.921875 6.390625 29.6875 6.390625 
Q 35.984375 6.390625 39.578125 10.6875 
Q 43.171875 14.984375 43.171875 22.5625 
Q 43.171875 29.6875 39.28125 34 
Q 35.40625 38.328125 28.953125 38.328125 
Q 23.046875 38.328125 19.671875 35.75 
L 17.28125 33.796875 
z
" id="Roboto-Regular-35"/>
      <path d="M 48.96875 31.78125 
L 8.203125 31.78125 
L 8.203125 39.15625 
L 48.96875 39.15625 
z
" id="Roboto-Regular-2212"/>
      <path d="M 51.5625 25.828125 
Q 51.5625 13.71875 46 6.359375 
Q 40.4375 -0.984375 31.0625 -0.984375 
Q 21.046875 -0.984375 15.578125 6.109375 
L 15.140625 0 
L 6.84375 0 
L 6.84375 75 
L 15.875 75 
L 15.875 47.015625 
Q 21.34375 53.8125 30.953125 53.8125 
Q 40.578125 53.8125 46.0625 46.53125 
Q 51.5625 39.265625 51.5625 26.609375 
z
M 42.53125 26.859375 
Q 42.53125 36.078125 38.96875 41.109375 
Q 35.40625 46.140625 28.71875 46.140625 
Q 19.78125 46.140625 15.875 37.84375 
L 15.875 14.984375 
Q 20.015625 6.6875 28.8125 6.6875 
Q 35.296875 6.6875 38.90625 11.71875 
Q 42.53125 16.75 42.53125 26.859375 
z
" id="Roboto-Regular-62"/>
     </defs>
     <g transform="translate(38.684375 234.228)rotate(-90)scale(0.1 -0.1)">
      <use transform="translate(0 0.014063)" xlink:href="#Roboto-Regular-49"/>
      <use transform="translate(27.197266 0.014063)" xlink:href="#Roboto-Regular-6e"/>
      <use transform="translate(82.373047 0.014063)" xlink:href="#Roboto-Regular-74"/>
      <use transform="translate(115.039062 0.014063)" xlink:href="#Roboto-Regular-65"/>
      <use transform="translate(168.017578 0.014063)" xlink:href="#Roboto-Regular-6e"/>
      <use transform="translate(223.193359 0.014063)" xlink:href="#Roboto-Regular-73"/>
      <use transform="translate(274.755859 0.014063)" xlink:href="#Roboto-Regular-69"/>
      <use transform="translate(299.023438 0.014063)" xlink:href="#Roboto-Regular-74"/>
      <use transform="translate(331.689453 0.014063)" xlink:href="#Roboto-Regular-79"/>
      <use transform="translate(379.003906 0.014063)" xlink:href="#Roboto-Regular-20"/>
      <use transform="translate(403.759766 0.014063)" xlink:href="#Roboto-Regular-28"/>
      <use transform="translate(437.939453 0.014063)" xlink:href="#Roboto-Regular-70"/>
      <use transform="translate(494.042969 0.014063)" xlink:href="#Roboto-Regular-68"/>
      <use transform="translate(549.121094 0.014063)" xlink:href="#Roboto-Regular-20"/>
      <use transform="translate(573.876953 0.014063)" xlink:href="#Roboto-Regular-63"/>
      <use transform="translate(626.220703 0.014063)" xlink:href="#Roboto-Regular-6d"/>
      <use transform="translate(714.79168 36.99375)scale(0.7)" xlink:href="#Roboto-Regular-35"/>
      <use transform="translate(756.739727 0.014063)" xlink:href="#Roboto-Regular-20"/>
      <use transform="translate(781.495586 0.014063)" xlink:href="#Roboto-Regular-73"/>
      <use transform="translate(833.982578 36.99375)scale(0.7)" xlink:href="#Roboto-Regular-2212"/>
      <use transform="translate(873.972813 36.99375)scale(0.7)" xlink:href="#Roboto-Regular-31"/>
      <use transform="translate(915.920859 0.014063)" xlink:href="#Roboto-Regular-20"/>
      <use transform="translate(940.676719 0.014063)" xlink:href="#Roboto-Regular-62"/>
      <use transform="translate(996.780234 0.014063)" xlink:href="#Roboto-Regular-69"/>
      <use transform="translate(1021.047812 0.014063)" xlink:href="#Roboto-Regular-6e"/>
      <use transform="translate(1077.148086 36.99375)scale(0.7)" xlink:href="#Roboto-Regular-2212"/>
      <use transform="translate(1117.13832 36.99375)scale(0.7)" xlink:href="#Roboto-Regular-31"/>
      <use transform="translate(1159.086367 0.014063)" xlink:href="#Roboto-Regular-29"/>
     </g>
    </g>
    <g id="text_15">
     <!-- 1e−16 -->
     <g transform="translate(57.6 38.472)scale(0.1 -0.1)">
      <use xlink:href="#Roboto-Regular-31"/>
      <use x="56.152344" xlink:href="#Roboto-Regular-65"/>
      <use x="109.130859" xlink:href="#Roboto-Regular-2212"/>
      <use x="166.259766" xlink:href="#Roboto-Regular-31"/>
      <use x="222.412109" xlink:href="#Roboto-Regular-36"/>
     </g>
    </g>
   </g>
   <g id="line2d_13">
    <path clip-path="url(#p4344625d00)" d="M 57.583269 295.487851 
L 57.66969 295.48784 
L 89.081315 295.419247 
L 89.183629 295.008244 
L 89.28605 295.008244 
L 89.388507 293.545278 
L 89.490999 293.545278 
L 89.490999 293.234256 
L 89.593562 293.706279 
L 89.696161 293.706279 
L 89.79883 295.0792 
L 89.901571 295.0792 
L 90.004347 295.407519 
L 160.981627 295.38944 
L 160.981627 295.220645 
L 161.125379 295.220645 
L 161.125379 294.630843 
L 161.269166 294.630843 
L 161.269166 293.569541 
L 161.413095 293.569541 
L 161.413095 292.801909 
L 161.557095 292.801909 
L 161.557095 293.161674 
L 161.701165 293.161674 
L 161.701165 294.222707 
L 161.845343 294.222707 
L 161.845343 294.994163 
L 161.989626 294.994163 
L 161.989626 295.269371 
L 162.133981 295.269371 
L 162.133981 295.390297 
L 186.29559 295.403564 
L 186.29559 295.220384 
L 186.455554 295.220384 
L 186.455554 294.872949 
L 186.615625 294.872949 
L 186.615625 294.615162 
L 186.775802 294.615162 
L 186.775802 294.737147 
L 186.936086 294.737147 
L 186.936086 295.088891 
L 187.096476 295.088891 
L 187.096476 295.332862 
L 187.417576 295.415637 
L 187.417576 295.453645 
L 197.921087 295.426602 
L 197.921087 295.299763 
L 198.08882 295.299763 
L 198.08882 295.055453 
L 198.256661 295.055453 
L 198.256661 294.872477 
L 198.592625 294.958482 
L 198.592625 295.205912 
L 198.76082 295.205912 
L 198.76082 295.374907 
L 204.546854 295.305413 
L 204.546854 295.076224 
L 204.719058 295.076224 
L 204.719058 294.903713 
L 205.063856 294.985082 
L 205.063856 295.218202 
L 205.236414 295.218202 
L 205.236414 295.376256 
L 208.362904 295.376619 
L 208.362904 295.244309 
L 209.062965 295.326127 
L 209.062965 295.416744 
L 210.821544 295.392208 
L 210.821544 295.285461 
L 211.528382 295.351149 
L 211.528382 295.423973 
L 224.781159 295.313314 
L 224.781159 295.312748 
L 238.543345 295.216294 
L 238.543345 295.133991 
L 238.739566 295.133991 
L 238.739566 294.824762 
L 238.93593 294.824762 
L 238.93593 294.194035 
L 239.132471 294.194035 
L 239.132471 293.704517 
L 239.329118 293.704517 
L 239.329118 293.935155 
L 239.525943 293.935155 
L 239.525943 294.588212 
L 239.722874 294.588212 
L 239.722874 295.011353 
L 239.919982 295.011353 
L 239.919982 295.151756 
L 244.69376 295.122108 
L 244.69376 294.933734 
L 244.894523 294.933734 
L 244.894523 294.786341 
L 245.296438 294.853796 
L 245.296438 295.046475 
L 245.497627 295.046475 
L 245.497627 295.169903 
L 248.533366 295.124629 
L 248.533366 295.030105 
L 248.736967 295.030105 
L 248.736967 294.684507 
L 248.94071 294.684507 
L 248.94071 293.956716 
L 249.144594 293.956716 
L 249.144594 293.388472 
L 249.348621 293.388472 
L 249.348621 293.669021 
L 249.552824 293.669021 
L 249.552824 294.441133 
L 249.75717 294.441133 
L 249.75717 294.935265 
L 249.961658 294.935265 
L 249.961658 295.100423 
L 250.576078 295.208824 
L 250.576078 295.219288 
L 287.322048 295.108405 
L 287.322048 295.107328 
L 297.047413 295.046847 
L 297.047413 294.983707 
L 297.288655 294.983707 
L 297.288655 294.845501 
L 297.530038 294.845501 
L 297.530038 294.732924 
L 298.013514 294.781892 
L 298.013514 294.924486 
L 298.4977 295.01314 
L 298.4977 295.043809 
L 299.955153 294.949536 
L 299.955153 294.895372 
L 300.442532 294.929245 
L 300.442532 295.009013 
L 305.608221 294.948218 
L 305.608221 294.86389 
L 305.856416 294.86389 
L 305.856416 294.718768 
L 306.104824 294.718768 
L 306.104824 294.580119 
L 307.100512 294.520436 
L 307.100512 294.289152 
L 307.349984 294.289152 
L 307.349984 293.724609 
L 307.599598 293.724609 
L 307.599598 292.588127 
L 307.849425 292.588127 
L 307.849425 289.033448 
L 308.099465 289.033448 
L 308.099465 278.851263 
L 308.349717 278.851263 
L 308.349717 263.529125 
L 308.600183 263.529125 
L 308.600183 256.419295 
L 308.850861 256.419295 
L 308.850861 265.924295 
L 309.101752 265.924295 
L 309.101752 280.937951 
L 309.352856 280.937951 
L 309.352856 289.352714 
L 309.604102 289.352714 
L 309.604102 292.394693 
L 309.855632 292.394693 
L 309.855632 293.831385 
L 310.107303 293.831385 
L 310.107303 294.400494 
L 310.359259 294.400494 
L 310.359259 294.635341 
L 310.611356 294.635341 
L 310.611356 294.752448 
L 311.116189 294.829528 
L 311.116189 294.881545 
L 312.635869 294.985164 
L 312.635869 294.993264 
L 338.296651 294.88719 
L 338.296651 294.87969 
L 339.124606 294.826192 
L 339.124606 294.66354 
L 339.401111 294.66354 
L 339.401111 294.286909 
L 339.677829 294.286909 
L 339.677829 293.972713 
L 339.95476 293.972713 
L 339.95476 294.111759 
L 340.231975 294.111759 
L 340.231975 294.508351 
L 340.509403 294.508351 
L 340.509403 294.744377 
L 341.064968 294.819492 
L 341.064968 294.856222 
L 349.801456 294.966248 
L 349.801456 294.975441 
L 367.406264 294.882959 
L 367.406264 294.863544 
L 370.433561 294.812086 
L 370.433561 294.74923 
L 370.737809 294.74923 
L 370.737809 294.582977 
L 371.042341 294.582977 
L 371.042341 294.435607 
L 371.652256 294.489161 
L 371.652256 294.654045 
L 385.673919 294.585129 
L 385.673919 294.456434 
L 386.948738 294.529502 
L 386.948738 294.605597 
L 393.394426 294.568537 
L 393.394426 294.474188 
L 395.024792 294.582292 
L 395.024792 294.598588 
L 404.634433 294.701057 
L 404.634433 294.72704 
L 414.513767 294.616005 
L 414.513767 294.613187 
L 414.859381 294.613187 
L 414.859381 294.613187 
" style="fill:none;stroke:#1f77b4;stroke-linecap:square;stroke-width:1.5;"/>
   </g>
   <g id="line2d_14">
    <path clip-path="url(#p4344625d00)" d="M 57.583269 256.418787 
L 57.66969 256.418749 
L 88.570379 256.322996 
L 88.672481 256.24707 
L 88.979 256.141165 
L 89.081315 255.272473 
L 89.183629 255.272473 
L 89.28605 248.61897 
L 89.388507 248.61897 
L 89.490999 241.114493 
L 89.593562 241.114493 
L 89.696161 249.783505 
L 89.79883 249.783505 
L 89.901571 255.204607 
L 90.004347 255.204607 
L 90.107194 256.152646 
L 90.312994 256.254477 
L 90.415983 256.340722 
L 95.847747 256.265664 
L 95.95368 256.09373 
L 96.059685 256.09373 
L 96.165725 255.053218 
L 96.271835 255.053218 
L 96.378017 243.8526 
L 96.484234 243.8526 
L 96.590522 221.031781 
L 96.696846 221.031781 
L 96.803241 238.571287 
L 96.909706 238.571287 
L 97.016207 253.342603 
L 97.122779 253.342603 
L 97.229387 255.80218 
L 97.336065 255.80218 
L 97.442814 256.182282 
L 97.763382 256.290079 
L 97.870344 256.330538 
L 115.177325 256.288389 
L 115.177325 256.162632 
L 115.293866 256.162632 
L 115.293866 255.884081 
L 115.410478 255.884081 
L 115.410478 254.834674 
L 115.527161 254.834674 
L 115.527161 251.496892 
L 115.643914 251.496892 
L 115.643914 245.894904 
L 115.760739 245.894904 
L 115.760739 241.987453 
L 115.877635 241.987453 
L 115.877635 243.814748 
L 115.994566 243.814748 
L 115.994566 249.32748 
L 116.111568 249.32748 
L 116.111568 253.585191 
L 116.228677 253.585191 
L 116.228677 255.208789 
L 116.345821 255.208789 
L 116.345821 255.880519 
L 116.463 255.880519 
L 116.463 256.183048 
L 116.697643 256.287995 
L 116.697643 256.332467 
L 124.104501 256.249285 
L 124.104501 256.067793 
L 124.226115 256.067793 
L 124.226115 255.393171 
L 124.347835 255.393171 
L 124.347835 253.197613 
L 124.469591 253.197613 
L 124.469591 249.454261 
L 124.591418 249.454261 
L 124.591418 246.822298 
L 124.713316 246.822298 
L 124.713316 248.055949 
L 124.83532 248.055949 
L 124.83532 251.753509 
L 124.95736 251.753509 
L 124.95736 254.568384 
L 125.079471 254.568384 
L 125.079471 255.622141 
L 125.201653 255.622141 
L 125.201653 256.064049 
L 125.323905 256.064049 
L 125.323905 256.260171 
L 125.691089 256.357159 
L 125.691089 256.372357 
L 128.900239 256.303254 
L 128.900239 256.184589 
L 129.024656 256.184589 
L 129.024656 255.747074 
L 129.149108 255.747074 
L 129.149108 254.305377 
L 129.273666 254.305377 
L 129.273666 251.826556 
L 129.398261 251.826556 
L 129.398261 250.076051 
L 129.522961 250.076051 
L 129.522961 250.89649 
L 129.647697 250.89649 
L 129.647697 253.349048 
L 129.77254 253.349048 
L 129.77254 255.202518 
L 129.897453 255.202518 
L 129.897453 255.890047 
L 130.022402 255.890047 
L 130.022402 256.180147 
L 130.147457 256.180147 
L 130.147457 256.307435 
L 131.905824 256.247394 
L 131.905824 255.957641 
L 132.031979 255.957641 
L 132.031979 254.99971 
L 132.158205 254.99971 
L 132.158205 253.336217 
L 132.284502 253.336217 
L 132.284502 252.122067 
L 132.41087 252.122067 
L 132.41087 252.474813 
L 132.537309 252.474813 
L 132.537309 253.465398 
L 132.663818 253.465398 
L 132.663818 253.591646 
L 132.790399 253.591646 
L 132.790399 253.265576 
L 132.917086 253.265576 
L 132.917086 253.819836 
L 133.043809 253.819836 
L 133.043809 254.988645 
L 133.170638 254.988645 
L 133.170638 255.832227 
L 133.297538 255.832227 
L 133.297538 256.139818 
L 133.424474 256.139818 
L 133.424474 256.257685 
L 133.805813 256.167065 
L 133.805813 255.72688 
L 133.933068 255.72688 
L 133.933068 254.952004 
L 134.060429 254.952004 
L 134.060429 254.401316 
L 134.187826 254.401316 
L 134.187826 254.661032 
L 134.315329 254.661032 
L 134.315329 255.431844 
L 134.442868 255.431844 
L 134.442868 256.002389 
L 134.570513 256.002389 
L 134.570513 256.190829 
L 134.826016 256.185055 
L 134.826016 255.898951 
L 134.953874 255.898951 
L 134.953874 255.346512 
L 135.081803 255.346512 
L 135.081803 254.950642 
L 135.209838 254.950642 
L 135.209838 255.142869 
L 135.337909 255.142869 
L 135.337909 255.707403 
L 135.466086 255.707403 
L 135.466086 256.130585 
L 135.594299 256.130585 
L 135.594299 256.286804 
L 136.108037 256.393885 
L 136.108037 256.398668 
L 160.550976 256.322809 
L 160.550976 256.278014 
L 160.694444 256.278014 
L 160.694444 256.162158 
L 160.837982 256.162158 
L 160.837982 255.892636 
L 160.981627 255.892636 
L 160.981627 254.963769 
L 161.125379 254.963769 
L 161.125379 251.717288 
L 161.269166 251.717288 
L 161.269166 245.874018 
L 161.413095 245.874018 
L 161.413095 241.647263 
L 161.557095 241.647263 
L 161.557095 243.628483 
L 161.701165 243.628483 
L 161.701165 249.471224 
L 161.845343 249.471224 
L 161.845343 253.719277 
L 161.989626 253.719277 
L 161.989626 255.234562 
L 162.133981 255.234562 
L 162.133981 255.900027 
L 162.278407 255.900027 
L 162.278407 256.174685 
L 162.567577 256.269348 
L 162.567577 256.31197 
L 186.135732 256.25427 
L 186.135732 256.006579 
L 186.29559 256.006579 
L 186.29559 255.075417 
L 186.455554 255.075417 
L 186.455554 253.309662 
L 186.615625 253.309662 
L 186.615625 251.999596 
L 186.775802 251.999596 
L 186.775802 252.619501 
L 186.936086 252.619501 
L 186.936086 254.40701 
L 187.096476 254.40701 
L 187.096476 255.646766 
L 187.256973 255.646766 
L 187.256973 256.067177 
L 187.417576 256.067177 
L 187.417576 256.259914 
L 187.899987 256.366092 
L 187.899987 256.37879 
L 197.753495 256.300388 
L 197.753495 256.136324 
L 197.921087 256.136324 
L 197.921087 255.512173 
L 198.08882 255.512173 
L 198.08882 254.30909 
L 198.256661 254.30909 
L 198.256661 253.408183 
L 198.424572 253.408183 
L 198.424572 253.832742 
L 198.592625 253.832742 
L 198.592625 255.052764 
L 198.76082 255.052764 
L 198.76082 255.886282 
L 198.929086 255.886282 
L 198.929086 256.166537 
L 199.097493 256.166537 
L 199.097493 256.295225 
L 204.202766 256.291123 
L 204.202766 256.145027 
L 204.374757 256.145027 
L 204.374757 255.582307 
L 204.546854 255.582307 
L 204.546854 254.486258 
L 204.719058 254.486258 
L 204.719058 253.661263 
L 204.891404 253.661263 
L 204.891404 254.050598 
L 205.063856 254.050598 
L 205.063856 255.165694 
L 205.236414 255.165694 
L 205.236414 255.921617 
L 205.409079 255.921617 
L 205.409079 256.175664 
L 205.581886 256.175664 
L 205.581886 256.293281 
L 208.188216 256.247601 
L 208.188216 255.928894 
L 208.362904 255.928894 
L 208.362904 255.304648 
L 208.537733 255.304648 
L 208.537733 254.833189 
L 208.712704 254.833189 
L 208.712704 255.055274 
L 208.887781 255.055274 
L 208.887781 255.690706 
L 209.062965 255.690706 
L 209.062965 256.118808 
L 209.238255 256.118808 
L 209.238255 256.261497 
L 210.645154 256.265149 
L 210.645154 256.011587 
L 210.821544 256.011587 
L 210.821544 255.511921 
L 210.998076 255.511921 
L 210.998076 255.133419 
L 211.174715 255.133419 
L 211.174715 255.310892 
L 211.351495 255.310892 
L 211.351495 255.819066 
L 211.528382 255.819066 
L 211.528382 256.159137 
L 211.882546 256.267689 
L 211.882546 256.305968 
L 212.237206 256.280179 
L 212.237206 256.106748 
L 212.414696 256.106748 
L 212.414696 255.753526 
L 212.592328 255.753526 
L 212.592328 255.484565 
L 212.770101 255.484565 
L 212.770101 255.610838 
L 212.947981 255.610838 
L 212.947981 255.970267 
L 213.125968 255.970267 
L 213.125968 256.203592 
L 213.660708 256.158901 
L 213.660708 255.914044 
L 213.839227 255.914044 
L 213.839227 255.722348 
L 214.196583 255.817736 
L 214.196583 256.084408 
L 214.375457 256.084408 
L 214.375457 256.263063 
L 232.914259 256.249223 
L 232.914259 255.973235 
L 233.106401 255.973235 
L 233.106401 255.410427 
L 233.298685 255.410427 
L 233.298685 254.973355 
L 233.49111 254.973355 
L 233.49111 255.167042 
L 233.683678 255.167042 
L 233.683678 255.727229 
L 233.876352 255.727229 
L 233.876352 256.089526 
L 234.069203 256.089526 
L 234.069203 256.215883 
L 237.173732 256.150535 
L 237.173732 256.10451 
L 237.56433 256.042295 
L 237.56433 255.94798 
L 237.759842 255.94798 
L 237.759842 255.782492 
L 237.955496 255.782492 
L 237.955496 255.427447 
L 238.151328 255.427447 
L 238.151328 254.410102 
L 238.347265 254.410102 
L 238.347265 251.922047 
L 238.543345 251.922047 
L 238.543345 246.246182 
L 238.739566 246.246182 
L 238.739566 226.854611 
L 238.93593 226.854611 
L 238.93593 187.841618 
L 239.132471 187.841618 
L 239.132471 157.681595 
L 239.329118 157.681595 
L 239.329118 172.386556 
L 239.525943 172.386556 
L 239.525943 213.405495 
L 239.722874 213.405495 
L 239.722874 239.935518 
L 239.919982 239.935518 
L 239.919982 248.662733 
L 240.117197 248.662733 
L 240.117197 252.659179 
L 240.314589 252.659179 
L 240.314589 253.540881 
L 240.512124 253.540881 
L 240.512124 251.226063 
L 240.709764 251.226063 
L 240.709764 245.629127 
L 240.907582 245.629127 
L 240.907582 241.366673 
L 241.105542 241.366673 
L 241.105542 243.73246 
L 241.303644 243.73246 
L 241.303644 249.852511 
L 241.501888 249.852511 
L 241.501888 253.780602 
L 241.700309 253.780602 
L 241.700309 255.111512 
L 241.898836 255.111512 
L 241.898836 255.754937 
L 242.097506 255.754937 
L 242.097506 256.002571 
L 242.495341 256.097165 
L 242.495341 256.135752 
L 243.692289 256.080465 
L 243.692289 255.953482 
L 243.892271 255.953482 
L 243.892271 255.602219 
L 244.092431 255.602219 
L 244.092431 254.855374 
L 244.292732 254.855374 
L 244.292732 253.255299 
L 244.493175 253.255299 
L 244.493175 247.586992 
L 244.69376 247.586992 
L 244.69376 235.970736 
L 244.894523 235.970736 
L 244.894523 226.919208 
L 245.095392 226.919208 
L 245.095392 231.180363 
L 245.296438 231.180363 
L 245.296438 243.131346 
L 245.497627 243.131346 
L 245.497627 250.734239 
L 245.698957 250.734239 
L 245.698957 253.294241 
L 245.900464 253.294241 
L 245.900464 254.677466 
L 246.102078 254.677466 
L 246.102078 255.319065 
L 246.30387 255.319065 
L 246.30387 255.611944 
L 246.910131 255.590956 
L 246.910131 255.075064 
L 247.11249 255.075064 
L 247.11249 253.837427 
L 247.315026 253.837427 
L 247.315026 252.19705 
L 247.517704 252.19705 
L 247.517704 251.175855 
L 247.923522 251.13538 
L 247.923522 250.490946 
L 248.126662 250.490946 
L 248.126662 246.907385 
L 248.329943 246.907385 
L 248.329943 240.234965 
L 248.533366 240.234965 
L 248.533366 229.63833 
L 248.736967 229.63833 
L 248.736967 192.680068 
L 248.94071 192.680068 
L 248.94071 114.458716 
L 249.144594 114.458716 
L 249.144594 53.568 
L 249.348621 53.568 
L 249.348621 84.819123 
L 249.552824 84.819123 
L 249.552824 169.199263 
L 249.75717 169.199263 
L 249.75717 223.162451 
L 249.961658 223.162451 
L 249.961658 241.314539 
L 250.166323 241.314539 
L 250.166323 250.080915 
L 250.37113 250.080915 
L 250.37113 253.355009 
L 250.576078 253.355009 
L 250.576078 254.579286 
L 250.781169 254.579286 
L 250.781169 255.159214 
L 250.986437 255.159214 
L 250.986437 255.485239 
L 251.191847 255.485239 
L 251.191847 255.692981 
L 251.397399 255.692981 
L 251.397399 255.837803 
L 251.809 255.945092 
L 251.809 256.027681 
L 252.221203 256.092736 
L 252.221203 256.14471 
L 253.047491 256.248003 
L 253.047491 256.270295 
L 260.17199 256.381173 
L 260.17199 256.381541 
L 307.349984 256.276362 
L 307.349984 256.205682 
L 307.599598 256.205682 
L 307.599598 256.082431 
L 307.849425 256.082431 
L 307.849425 255.731201 
L 308.099465 255.731201 
L 308.099465 254.726684 
L 308.349717 254.726684 
L 308.349717 253.203546 
L 308.600183 253.203546 
L 308.600183 252.478845 
L 308.850861 252.478845 
L 308.850861 253.397603 
L 309.101752 253.397603 
L 309.101752 254.885069 
L 309.352856 254.885069 
L 309.352856 255.744918 
L 309.604102 255.744918 
L 309.604102 256.074864 
L 309.855632 256.074864 
L 309.855632 256.234839 
L 310.863666 256.342887 
L 310.863666 256.35187 
L 317.75636 256.308226 
L 317.75636 256.212221 
L 318.014631 256.212221 
L 318.014631 255.814244 
L 318.273114 255.814244 
L 318.273114 254.920611 
L 318.53181 254.920611 
L 318.53181 254.184174 
L 318.790719 254.184174 
L 318.790719 254.497139 
L 319.049911 254.497139 
L 319.049911 255.373643 
L 319.309246 255.373643 
L 319.309246 255.759644 
L 319.568793 255.759644 
L 319.568793 255.643939 
L 320.088598 255.567103 
L 320.088598 255.766174 
L 320.348855 255.766174 
L 320.348855 256.073322 
L 320.609324 256.073322 
L 320.609324 256.237761 
L 321.39194 256.214086 
L 321.39194 256.121752 
L 322.176613 256.183484 
L 322.176613 256.281172 
L 336.921433 256.172396 
L 336.921433 256.13029 
L 337.470825 256.075634 
L 337.470825 255.99852 
L 337.74584 255.99852 
L 337.74584 255.865643 
L 338.021139 255.865643 
L 338.021139 255.611594 
L 338.296651 255.611594 
L 338.296651 255.098822 
L 338.572376 255.098822 
L 338.572376 253.855853 
L 338.848385 253.855853 
L 338.848385 250.544752 
L 339.124606 250.544752 
L 339.124606 236.316479 
L 339.401111 236.316479 
L 339.401111 203.283611 
L 339.677829 203.283611 
L 339.677829 175.745951 
L 339.95476 175.745951 
L 339.95476 188.080595 
L 340.231975 188.080595 
L 340.231975 223.071343 
L 340.509403 223.071343 
L 340.509403 243.938586 
L 340.787043 243.938586 
L 340.787043 250.652596 
L 341.064968 250.652596 
L 341.064968 253.990681 
L 341.343105 253.990681 
L 341.343105 255.18075 
L 341.621526 255.18075 
L 341.621526 255.635155 
L 341.90016 255.635155 
L 341.90016 255.856607 
L 342.179007 255.856607 
L 342.179007 255.984831 
L 342.737481 256.068168 
L 342.737481 256.126007 
L 344.137958 256.071268 
L 344.137958 255.803058 
L 344.418792 255.803058 
L 344.418792 255.494149 
L 344.981168 255.447425 
L 344.981168 255.690462 
L 345.262782 255.690462 
L 345.262782 255.968032 
L 345.544609 255.968032 
L 345.544609 256.152132 
L 346.108901 256.257644 
L 346.108901 256.303424 
L 347.240607 256.235214 
L 347.240607 256.060863 
L 347.524137 256.060863 
L 347.524137 255.892593 
L 348.091977 255.893614 
L 348.091977 256.020948 
L 348.376287 256.020948 
L 348.376287 256.150573 
L 348.945617 256.251169 
L 348.945617 256.309065 
L 356.147596 256.200995 
L 356.147596 255.984727 
L 356.439002 255.984727 
L 356.439002 255.80537 
L 357.022593 255.866631 
L 357.022593 256.085307 
L 357.314779 256.085307 
L 357.314779 256.242464 
L 359.956231 256.189897 
L 359.956231 256.088156 
L 360.546067 256.101907 
L 360.546067 256.203466 
L 361.137037 256.284385 
L 361.137037 256.323396 
L 368.916507 256.219693 
L 368.916507 256.178546 
L 369.522519 256.104015 
L 369.522519 255.931381 
L 369.825916 255.931381 
L 369.825916 255.460313 
L 370.129596 255.460313 
L 370.129596 254.23341 
L 370.433561 254.23341 
L 370.433561 249.056052 
L 370.737809 249.056052 
L 370.737809 236.74536 
L 371.042341 236.74536 
L 371.042341 226.388347 
L 371.347156 226.388347 
L 371.347156 231.114162 
L 371.652256 231.114162 
L 371.652256 244.229175 
L 371.957568 244.229175 
L 371.957568 251.835612 
L 372.263235 251.835612 
L 372.263235 254.254306 
L 372.569115 254.254306 
L 372.569115 255.474053 
L 372.87535 255.474053 
L 372.87535 255.907661 
L 373.181797 255.907661 
L 373.181797 256.074875 
L 373.795544 256.157159 
L 373.795544 256.205289 
L 376.261954 256.314457 
L 376.261954 256.319471 
L 384.087117 256.224027 
L 384.087117 256.175445 
L 384.720944 256.065925 
L 384.720944 255.766076 
L 385.038318 255.766076 
L 385.038318 254.986484 
L 385.355977 254.986484 
L 385.355977 251.70435 
L 385.673919 251.70435 
L 385.673919 243.812886 
L 385.992215 243.812886 
L 385.992215 237.149799 
L 386.310725 237.149799 
L 386.310725 240.220606 
L 386.62959 240.220606 
L 386.62959 248.647648 
L 386.948738 248.647648 
L 386.948738 253.471867 
L 387.26817 253.471867 
L 387.26817 255.000198 
L 387.587886 255.000198 
L 387.587886 255.775501 
L 387.907956 255.775501 
L 387.907956 256.050173 
L 388.548878 256.155681 
L 388.548878 256.206681 
L 392.419881 256.169182 
L 392.419881 255.997257 
L 392.744422 255.997257 
L 392.744422 255.550386 
L 393.069246 255.550386 
L 393.069246 253.671221 
L 393.394426 253.671221 
L 393.394426 249.122822 
L 393.719889 249.122822 
L 393.719889 245.272186 
L 394.045636 245.272186 
L 394.045636 247.052505 
L 394.371737 247.052505 
L 394.371737 251.914502 
L 394.698123 251.914502 
L 394.698123 254.6774 
L 395.024792 254.6774 
L 395.024792 255.548825 
L 395.351816 255.548825 
L 395.351816 255.990128 
L 395.679124 255.990128 
L 395.679124 256.142874 
L 397.649428 256.101465 
L 397.649428 255.856637 
L 397.978936 255.856637 
L 397.978936 254.812756 
L 398.308727 254.812756 
L 398.308727 252.275098 
L 398.638802 252.275098 
L 398.638802 250.113496 
L 398.969232 250.113496 
L 398.969232 251.052623 
L 399.299946 251.052623 
L 399.299946 253.604515 
L 399.631014 253.604515 
L 399.631014 254.474743 
L 399.962366 254.474743 
L 399.962366 253.344478 
L 400.294002 253.344478 
L 400.294002 252.216859 
L 400.625993 252.216859 
L 400.625993 252.925865 
L 400.958268 252.925865 
L 400.958268 254.66712 
L 401.290897 254.66712 
L 401.290897 255.617482 
L 401.62381 255.617482 
L 401.62381 255.819135 
L 401.957078 255.819135 
L 401.957078 255.486712 
L 402.29063 255.486712 
L 402.29063 254.340929 
L 402.624537 254.340929 
L 402.624537 253.32639 
L 402.958727 253.32639 
L 402.958727 253.741918 
L 403.293201 253.741918 
L 403.293201 254.72386 
L 403.963214 254.69918 
L 403.963214 254.291916 
L 404.298681 254.291916 
L 404.298681 254.71014 
L 404.634433 254.71014 
L 404.634433 255.56433 
L 404.970539 255.56433 
L 404.970539 256.041234 
L 405.307 256.041234 
L 405.307 256.195962 
L 406.318227 256.304346 
L 406.318227 256.316749 
L 414.859381 256.335298 
L 414.859381 256.335298 
" style="fill:none;stroke:#ff7f0e;stroke-linecap:square;stroke-width:1.5;"/>
   </g>
   <g id="line2d_15">
    <path clip-path="url(#p4344625d00)" d="M 57.583269 217.350467 
L 57.66969 217.350458 
L 89.183629 217.254699 
L 89.28605 216.679632 
L 89.388507 216.679632 
L 89.490999 216.033714 
L 89.593562 216.033714 
L 89.696161 216.783507 
L 89.79883 216.783507 
L 89.901571 217.248253 
L 161.125379 217.171817 
L 161.125379 216.780933 
L 161.269166 216.780933 
L 161.269166 216.077587 
L 161.413095 216.077587 
L 161.413095 215.568866 
L 161.557095 215.568866 
L 161.557095 215.807286 
L 161.701165 215.807286 
L 161.701165 216.510445 
L 161.845343 216.510445 
L 161.845343 217.021704 
L 161.989626 217.021704 
L 161.989626 217.204098 
L 162.278407 217.284262 
L 162.278407 217.317447 
L 186.29559 217.291118 
L 186.29559 217.16499 
L 186.455554 217.16499 
L 186.455554 216.925732 
L 186.615625 216.925732 
L 186.615625 216.748207 
L 186.936086 216.832222 
L 186.936086 217.074466 
L 187.096476 217.074466 
L 187.096476 217.242491 
L 198.08882 217.217607 
L 198.08882 217.046993 
L 198.256661 217.046993 
L 198.256661 216.919201 
L 198.592625 216.979185 
L 198.592625 217.15186 
L 198.76082 217.15186 
L 198.76082 217.269779 
L 204.546854 217.21887 
L 204.546854 217.056914 
L 204.719058 217.056914 
L 204.719058 216.93501 
L 205.063856 216.992503 
L 205.063856 217.157231 
L 205.236414 217.157231 
L 205.236414 217.268924 
L 208.537733 217.17489 
L 208.537733 217.103918 
L 208.887781 217.137381 
L 208.887781 217.233041 
L 238.739566 217.122491 
L 238.739566 217.086456 
L 239.132471 217.012984 
L 239.132471 216.955745 
L 239.722874 217.056028 
L 239.722874 217.104128 
L 249.144594 217.015732 
L 249.144594 216.973961 
L 249.961658 217.08119 
L 249.961658 217.092233 
L 284.76652 216.981197 
L 284.76652 216.980347 
L 305.608221 216.874035 
L 305.608221 216.853745 
L 306.851324 216.757683 
L 306.851324 216.726161 
L 307.349984 216.633043 
L 307.349984 216.401994 
L 307.599598 216.401994 
L 307.599598 215.839273 
L 307.849425 215.839273 
L 307.849425 213.903763 
L 308.099465 213.903763 
L 308.099465 208.353152 
L 308.349717 208.353152 
L 308.349717 200.057919 
L 308.600183 200.057919 
L 308.600183 196.274434 
L 308.850861 196.274434 
L 308.850861 201.481411 
L 309.101752 201.481411 
L 309.101752 209.57083 
L 309.352856 209.57083 
L 309.352856 214.026065 
L 309.604102 214.026065 
L 309.604102 215.600471 
L 309.855632 215.600471 
L 309.855632 216.332169 
L 310.107303 216.332169 
L 310.107303 216.603096 
L 310.611356 216.711143 
L 310.611356 216.765067 
L 313.144037 216.874585 
L 313.144037 216.876815 
L 335.825558 216.766116 
L 335.825558 216.764853 
L 371.957568 216.661886 
L 371.957568 216.653243 
L 380.935369 216.543389 
L 380.935369 216.541591 
L 414.859381 216.486391 
L 414.859381 216.486391 
" style="fill:none;stroke:#2ca02c;stroke-linecap:square;stroke-width:1.5;"/>
   </g>
   <g id="line2d_16">
    <path clip-path="url(#p4344625d00)" d="M 57.583269 178.281763 
L 57.66969 178.281753 
L 89.183629 178.185994 
L 89.28605 177.610927 
L 89.388507 177.610927 
L 89.490999 176.96501 
L 89.593562 176.96501 
L 89.696161 177.714803 
L 89.79883 177.714803 
L 89.901571 178.179549 
L 161.125379 178.103112 
L 161.125379 177.712228 
L 161.269166 177.712228 
L 161.269166 177.008882 
L 161.413095 177.008882 
L 161.413095 176.500161 
L 161.557095 176.500161 
L 161.557095 176.738581 
L 161.701165 176.738581 
L 161.701165 177.441741 
L 161.845343 177.441741 
L 161.845343 177.952999 
L 161.989626 177.952999 
L 161.989626 178.135393 
L 162.278407 178.215558 
L 162.278407 178.248742 
L 186.29559 178.222414 
L 186.29559 178.096286 
L 186.455554 178.096286 
L 186.455554 177.857028 
L 186.615625 177.857028 
L 186.615625 177.679503 
L 186.936086 177.763517 
L 186.936086 178.005762 
L 187.096476 178.005762 
L 187.096476 178.173786 
L 198.08882 178.148902 
L 198.08882 177.978288 
L 198.256661 177.978288 
L 198.256661 177.850497 
L 198.592625 177.910481 
L 198.592625 178.083156 
L 198.76082 178.083156 
L 198.76082 178.201075 
L 204.546854 178.150166 
L 204.546854 177.988209 
L 204.719058 177.988209 
L 204.719058 177.866305 
L 205.063856 177.923798 
L 205.063856 178.088526 
L 205.236414 178.088526 
L 205.236414 178.200219 
L 208.537733 178.106186 
L 208.537733 178.035213 
L 208.887781 178.068677 
L 208.887781 178.164336 
L 238.739566 178.053786 
L 238.739566 178.017752 
L 239.132471 177.94428 
L 239.132471 177.887041 
L 239.722874 177.987324 
L 239.722874 178.035423 
L 249.144594 177.947027 
L 249.144594 177.905256 
L 249.961658 178.012486 
L 249.961658 178.023528 
L 284.76652 177.912493 
L 284.76652 177.911643 
L 305.608221 177.805331 
L 305.608221 177.78504 
L 306.851324 177.688978 
L 306.851324 177.657457 
L 307.349984 177.564339 
L 307.349984 177.333289 
L 307.599598 177.333289 
L 307.599598 176.770568 
L 307.849425 176.770568 
L 307.849425 174.835059 
L 308.099465 174.835059 
L 308.099465 169.284448 
L 308.349717 169.284448 
L 308.349717 160.989214 
L 308.600183 160.989214 
L 308.600183 157.205729 
L 308.850861 157.205729 
L 308.850861 162.412706 
L 309.101752 162.412706 
L 309.101752 170.502125 
L 309.352856 170.502125 
L 309.352856 174.95736 
L 309.604102 174.95736 
L 309.604102 176.531767 
L 309.855632 176.531767 
L 309.855632 177.263465 
L 310.107303 177.263465 
L 310.107303 177.534392 
L 310.611356 177.642438 
L 310.611356 177.696363 
L 313.144037 177.80588 
L 313.144037 177.80811 
L 335.825558 177.697411 
L 335.825558 177.696149 
L 371.957568 177.593181 
L 371.957568 177.584538 
L 380.935369 177.474684 
L 380.935369 177.472887 
L 414.859381 177.417686 
L 414.859381 177.417686 
" style="fill:none;stroke:#d62728;stroke-linecap:square;stroke-width:1.5;"/>
   </g>
   <g id="patch_3">
    <path d="M 57.6 307.584 
L 57.6 41.472 
" style="fill:none;stroke:#000000;stroke-linecap:square;stroke-linejoin:miter;stroke-width:0.8;"/>
   </g>
   <g id="patch_4">
    <path d="M 414.72 307.584 
L 414.72 41.472 
" style="fill:none;stroke:#000000;stroke-linecap:square;stroke-linejoin:miter;stroke-width:0.8;"/>
   </g>
   <g id="patch_5">
    <path d="M 57.6 307.584 
L 414.72 307.584 
" style="fill:none;stroke:#000000;stroke-linecap:square;stroke-linejoin:miter;stroke-width:0.8;"/>
   </g>
   <g id="patch_6">
    <path d="M 57.6 41.472 
L 414.72 41.472 
" style="fill:none;stroke:#000000;stroke-linecap:square;stroke-linejoin:miter;stroke-width:0.8;"/>
   </g>
   <g id="legend_1">
    <g id="patch_7">
     <path d="M 298.495 107.742312 
L 407.72 107.742312 
Q 409.72 107.742312 409.72 105.742312 
L 409.72 48.472 
Q 409.72 46.472 407.72 46.472 
L 298.495 46.472 
Q 296.495 46.472 296.495 48.472 
L 296.495 105.742312 
Q 296.495 107.742312 298.495 107.742312 
z
" style="fill:#ffffff;opacity:0.8;stroke:#cccccc;stroke-linejoin:miter;"/>
    </g>
    <g id="line2d_17">
     <path d="M 300.495 54.472 
L 320.495 54.472 
" style="fill:none;stroke:#1f77b4;stroke-linecap:square;stroke-width:1.5;"/>
    </g>
    <g id="line2d_18"/>
    <g id="text_16">
     <!-- mild recombining -->
     <defs>
      <path d="M 16.65625 0 
L 7.625 0 
L 7.625 75 
L 16.65625 75 
z
" id="Roboto-Regular-6c"/>
      <path d="M 4.640625 26.859375 
Q 4.640625 39.015625 10.390625 46.40625 
Q 16.15625 53.8125 25.484375 53.8125 
Q 34.765625 53.8125 40.1875 47.46875 
L 40.1875 75 
L 49.21875 75 
L 49.21875 0 
L 40.921875 0 
L 40.484375 5.671875 
Q 35.0625 -0.984375 25.390625 -0.984375 
Q 16.21875 -0.984375 10.421875 6.53125 
Q 4.640625 14.0625 4.640625 26.171875 
z
M 13.671875 25.828125 
Q 13.671875 16.84375 17.375 11.765625 
Q 21.09375 6.6875 27.640625 6.6875 
Q 36.234375 6.6875 40.1875 14.40625 
L 40.1875 38.671875 
Q 36.140625 46.140625 27.734375 46.140625 
Q 21.09375 46.140625 17.375 41.015625 
Q 13.671875 35.890625 13.671875 25.828125 
z
" id="Roboto-Regular-64"/>
      <path d="M 4.4375 26.90625 
Q 4.4375 34.671875 7.484375 40.875 
Q 10.546875 47.078125 15.984375 50.4375 
Q 21.4375 53.8125 28.421875 53.8125 
Q 39.203125 53.8125 45.875 46.34375 
Q 52.546875 38.875 52.546875 26.46875 
L 52.546875 25.828125 
Q 52.546875 18.109375 49.578125 11.984375 
Q 46.625 5.859375 41.125 2.4375 
Q 35.640625 -0.984375 28.515625 -0.984375 
Q 17.78125 -0.984375 11.109375 6.484375 
Q 4.4375 13.96875 4.4375 26.265625 
z
M 13.53125 25.828125 
Q 13.53125 17.046875 17.609375 11.71875 
Q 21.6875 6.390625 28.515625 6.390625 
Q 35.40625 6.390625 39.453125 11.78125 
Q 43.5 17.1875 43.5 26.90625 
Q 43.5 35.59375 39.375 40.984375 
Q 35.25 46.390625 28.421875 46.390625 
Q 21.734375 46.390625 17.625 41.0625 
Q 13.53125 35.75 13.53125 25.828125 
z
" id="Roboto-Regular-6f"/>
     </defs>
     <g transform="translate(328.495 57.972)scale(0.1 -0.1)">
      <use xlink:href="#Roboto-Regular-6d"/>
      <use x="87.646484" xlink:href="#Roboto-Regular-69"/>
      <use x="111.914062" xlink:href="#Roboto-Regular-6c"/>
      <use x="136.181641" xlink:href="#Roboto-Regular-64"/>
      <use x="192.578125" xlink:href="#Roboto-Regular-20"/>
      <use x="217.333984" xlink:href="#Roboto-Regular-72"/>
      <use x="251.171875" xlink:href="#Roboto-Regular-65"/>
      <use x="304.150391" xlink:href="#Roboto-Regular-63"/>
      <use x="356.494141" xlink:href="#Roboto-Regular-6f"/>
      <use x="413.525391" xlink:href="#Roboto-Regular-6d"/>
      <use x="501.171875" xlink:href="#Roboto-Regular-62"/>
      <use x="557.275391" xlink:href="#Roboto-Regular-69"/>
      <use x="581.542969" xlink:href="#Roboto-Regular-6e"/>
      <use x="636.71875" xlink:href="#Roboto-Regular-69"/>
      <use x="660.986328" xlink:href="#Roboto-Regular-6e"/>
      <use x="716.162109" xlink:href="#Roboto-Regular-67"/>
     </g>
    </g>
    <g id="line2d_19">
     <path d="M 300.495 69.051687 
L 320.495 69.051687 
" style="fill:none;stroke:#ff7f0e;stroke-linecap:square;stroke-width:1.5;"/>
    </g>
    <g id="line2d_20"/>
    <g id="text_17">
     <!-- ionizing -->
     <defs>
      <path d="M 15.328125 7.375 
L 46.234375 7.375 
L 46.234375 0 
L 4.296875 0 
L 4.296875 6.640625 
L 33.453125 45.359375 
L 4.734375 45.359375 
L 4.734375 52.828125 
L 44.78125 52.828125 
L 44.78125 46.4375 
z
" id="Roboto-Regular-7a"/>
     </defs>
     <g transform="translate(328.495 72.551687)scale(0.1 -0.1)">
      <use xlink:href="#Roboto-Regular-69"/>
      <use x="24.267578" xlink:href="#Roboto-Regular-6f"/>
      <use x="81.298828" xlink:href="#Roboto-Regular-6e"/>
      <use x="136.474609" xlink:href="#Roboto-Regular-69"/>
      <use x="160.742188" xlink:href="#Roboto-Regular-7a"/>
      <use x="210.302734" xlink:href="#Roboto-Regular-69"/>
      <use x="234.570312" xlink:href="#Roboto-Regular-6e"/>
      <use x="289.746094" xlink:href="#Roboto-Regular-67"/>
     </g>
    </g>
    <g id="line2d_21">
     <path d="M 300.495 83.631375 
L 320.495 83.631375 
" style="fill:none;stroke:#2ca02c;stroke-linecap:square;stroke-width:1.5;"/>
    </g>
    <g id="line2d_22"/>
    <g id="text_18">
     <!-- recombining -->
     <g transform="translate(328.495 87.131375)scale(0.1 -0.1)">
      <use xlink:href="#Roboto-Regular-72"/>
      <use x="33.837891" xlink:href="#Roboto-Regular-65"/>
      <use x="86.816406" xlink:href="#Roboto-Regular-63"/>
      <use x="139.160156" xlink:href="#Roboto-Regular-6f"/>
      <use x="196.191406" xlink:href="#Roboto-Regular-6d"/>
      <use x="283.837891" xlink:href="#Roboto-Regular-62"/>
      <use x="339.941406" xlink:href="#Roboto-Regular-69"/>
      <use x="364.208984" xlink:href="#Roboto-Regular-6e"/>
      <use x="419.384766" xlink:href="#Roboto-Regular-69"/>
      <use x="443.652344" xlink:href="#Roboto-Regular-6e"/>
      <use x="498.828125" xlink:href="#Roboto-Regular-67"/>
     </g>
    </g>
    <g id="line2d_23">
     <path d="M 300.495 98.211062 
L 320.495 98.211062 
" style="fill:none;stroke:#d62728;stroke-linecap:square;stroke-width:1.5;"/>
    </g>
    <g id="line2d_24"/>
    <g id="text_19">
     <!-- all H-like -->
     <defs>
      <path d="M 39.453125 0 
Q 38.671875 1.5625 38.1875 5.5625 
Q 31.890625 -0.984375 23.140625 -0.984375 
Q 15.328125 -0.984375 10.328125 3.4375 
Q 5.328125 7.859375 5.328125 14.65625 
Q 5.328125 22.90625 11.59375 27.46875 
Q 17.875 32.03125 29.25 32.03125 
L 38.03125 32.03125 
L 38.03125 36.1875 
Q 38.03125 40.921875 35.203125 43.71875 
Q 32.375 46.53125 26.859375 46.53125 
Q 22.015625 46.53125 18.75 44.09375 
Q 15.484375 41.65625 15.484375 38.1875 
L 6.390625 38.1875 
Q 6.390625 42.140625 9.203125 45.828125 
Q 12.015625 49.515625 16.8125 51.65625 
Q 21.625 53.8125 27.390625 53.8125 
Q 36.53125 53.8125 41.703125 49.234375 
Q 46.875 44.671875 47.078125 36.671875 
L 47.078125 12.359375 
Q 47.078125 5.078125 48.921875 0.78125 
L 48.921875 0 
z
M 24.46875 6.890625 
Q 28.71875 6.890625 32.515625 9.078125 
Q 36.328125 11.28125 38.03125 14.796875 
L 38.03125 25.640625 
L 30.953125 25.640625 
Q 14.359375 25.640625 14.359375 15.921875 
Q 14.359375 11.671875 17.1875 9.28125 
Q 20.015625 6.890625 24.46875 6.890625 
z
" id="Roboto-Regular-61"/>
      <path d="M 62.890625 0 
L 53.46875 0 
L 53.46875 32.859375 
L 17.625 32.859375 
L 17.625 0 
L 8.25 0 
L 8.25 71.09375 
L 17.625 71.09375 
L 17.625 40.53125 
L 53.46875 40.53125 
L 53.46875 71.09375 
L 62.890625 71.09375 
z
" id="Roboto-Regular-48"/>
      <path d="M 25.640625 26.515625 
L 1.8125 26.515625 
L 1.8125 33.890625 
L 25.640625 33.890625 
z
" id="Roboto-Regular-2d"/>
     </defs>
     <g transform="translate(328.495 101.711062)scale(0.1 -0.1)">
      <use xlink:href="#Roboto-Regular-61"/>
      <use x="54.394531" xlink:href="#Roboto-Regular-6c"/>
      <use x="78.662109" xlink:href="#Roboto-Regular-6c"/>
      <use x="102.929688" xlink:href="#Roboto-Regular-20"/>
      <use x="127.685547" xlink:href="#Roboto-Regular-48"/>
      <use x="198.974609" xlink:href="#Roboto-Regular-2d"/>
      <use x="226.5625" xlink:href="#Roboto-Regular-6c"/>
      <use x="250.830078" xlink:href="#Roboto-Regular-69"/>
      <use x="275.097656" xlink:href="#Roboto-Regular-6b"/>
      <use x="325.78125" xlink:href="#Roboto-Regular-65"/>
     </g>
    </g>
   </g>
  </g>
 </g>
 <defs>
  <clipPath id="p4344625d00">
   <rect height="266.112" width="357.12" x="57.6" y="41.472"/>
  </clipPath>
 </defs>
</svg>
