<?xml version="1.0" encoding="utf-8" standalone="no"?>
<!DOCTYPE svg PUBLIC "-//W3C//DTD SVG 1.1//EN"
  "http://www.w3.org/Graphics/SVG/1.1/DTD/svg11.dtd">
<svg xmlns:xlink="http://www.w3.org/1999/xlink" width="460.8pt" height="345.6pt" viewBox="0 0 460.8 345.6" xmlns="http://www.w3.org/2000/svg" version="1.1">
 <metadata>
  <rdf:RDF xmlns:dc="http://purl.org/dc/elements/1.1/" xmlns:cc="http://creativecommons.org/ns#" xmlns:rdf="http://www.w3.org/1999/02/22-rdf-syntax-ns#">
   <cc:Work>
    <dc:type rdf:resource="http://purl.org/dc/dcmitype/StillImage"/>
    <dc:date>2026-03-12T15:49:17.190331</dc:date>
    <dc:format>image/svg+xml</dc:format>
    <dc:creator>
     <cc:Agent>
      <dc:title>Matplotlib v3.10.6, https://matplotlib.org/</dc:title>
     </cc:Agent>
    </dc:creator>
   </cc:Work>
  </rdf:RDF>
 </metadata>
 <defs>
  <style type="text/css">*{stroke-linejoin: round; stroke-linecap: butt}</style>
 </defs>
 <g id="figure_1">
  <g id="patch_1">
   <path d="M 0 345.6 
L 460.8 345.6 
L 460.8 0 
L 0 0 
z
" style="fill: #ffffff"/>
  </g>
  <g id="axes_1">
   <g id="patch_2">
    <path d="M 57.6 307.584 
L 414.72 307.584 
L 414.72 41.472 
L 57.6 41.472 
z
" style="fill: #ffffff"/>
   </g>
   <g id="matplotlib.axis_1">
    <g id="xtick_1">
     <g id="line2d_1">
      <defs>
       <path id="m05a47a434f" d="M 0 0 
L 0 3.5 
" style="stroke: #000000; stroke-width: 0.8"/>
      </defs>
      <g>
       <use xlink:href="#m05a47a434f" x="73.832727" y="307.584" style="stroke: #000000; stroke-width: 0.8"/>
      </g>
     </g>
     <g id="text_1">
      <!-- 6.90 -->
      <g transform="translate(62.699915 322.182437) scale(0.1 -0.1)">
       <defs>
        <path id="DejaVuSans-36" d="M 2113 2584 
Q 1688 2584 1439 2293 
Q 1191 2003 1191 1497 
Q 1191 994 1439 701 
Q 1688 409 2113 409 
Q 2538 409 2786 701 
Q 3034 994 3034 1497 
Q 3034 2003 2786 2293 
Q 2538 2584 2113 2584 
z
M 3366 4563 
L 3366 3988 
Q 3128 4100 2886 4159 
Q 2644 4219 2406 4219 
Q 1781 4219 1451 3797 
Q 1122 3375 1075 2522 
Q 1259 2794 1537 2939 
Q 1816 3084 2150 3084 
Q 2853 3084 3261 2657 
Q 3669 2231 3669 1497 
Q 3669 778 3244 343 
Q 2819 -91 2113 -91 
Q 1303 -91 875 529 
Q 447 1150 447 2328 
Q 447 3434 972 4092 
Q 1497 4750 2381 4750 
Q 2619 4750 2861 4703 
Q 3103 4656 3366 4563 
z
" transform="scale(0.015625)"/>
        <path id="DejaVuSans-2e" d="M 684 794 
L 1344 794 
L 1344 0 
L 684 0 
L 684 794 
z
" transform="scale(0.015625)"/>
        <path id="DejaVuSans-39" d="M 703 97 
L 703 672 
Q 941 559 1184 500 
Q 1428 441 1663 441 
Q 2288 441 2617 861 
Q 2947 1281 2994 2138 
Q 2813 1869 2534 1725 
Q 2256 1581 1919 1581 
Q 1219 1581 811 2004 
Q 403 2428 403 3163 
Q 403 3881 828 4315 
Q 1253 4750 1959 4750 
Q 2769 4750 3195 4129 
Q 3622 3509 3622 2328 
Q 3622 1225 3098 567 
Q 2575 -91 1691 -91 
Q 1453 -91 1209 -44 
Q 966 3 703 97 
z
M 1959 2075 
Q 2384 2075 2632 2365 
Q 2881 2656 2881 3163 
Q 2881 3666 2632 3958 
Q 2384 4250 1959 4250 
Q 1534 4250 1286 3958 
Q 1038 3666 1038 3163 
Q 1038 2656 1286 2365 
Q 1534 2075 1959 2075 
z
" transform="scale(0.015625)"/>
        <path id="DejaVuSans-30" d="M 2034 4250 
Q 1547 4250 1301 3770 
Q 1056 3291 1056 2328 
Q 1056 1369 1301 889 
Q 1547 409 2034 409 
Q 2525 409 2770 889 
Q 3016 1369 3016 2328 
Q 3016 3291 2770 3770 
Q 2525 4250 2034 4250 
z
M 2034 4750 
Q 2819 4750 3233 4129 
Q 3647 3509 3647 2328 
Q 3647 1150 3233 529 
Q 2819 -91 2034 -91 
Q 1250 -91 836 529 
Q 422 1150 422 2328 
Q 422 3509 836 4129 
Q 1250 4750 2034 4750 
z
" transform="scale(0.015625)"/>
       </defs>
       <use xlink:href="#DejaVuSans-36"/>
       <use xlink:href="#DejaVuSans-2e" transform="translate(63.623047 0)"/>
       <use xlink:href="#DejaVuSans-39" transform="translate(95.410156 0)"/>
       <use xlink:href="#DejaVuSans-30" transform="translate(159.033203 0)"/>
      </g>
     </g>
    </g>
    <g id="xtick_2">
     <g id="line2d_2">
      <g>
       <use xlink:href="#m05a47a434f" x="138.763636" y="307.584" style="stroke: #000000; stroke-width: 0.8"/>
      </g>
     </g>
     <g id="text_2">
      <!-- 6.92 -->
      <g transform="translate(127.630824 322.182437) scale(0.1 -0.1)">
       <defs>
        <path id="DejaVuSans-32" d="M 1228 531 
L 3431 531 
L 3431 0 
L 469 0 
L 469 531 
Q 828 903 1448 1529 
Q 2069 2156 2228 2338 
Q 2531 2678 2651 2914 
Q 2772 3150 2772 3378 
Q 2772 3750 2511 3984 
Q 2250 4219 1831 4219 
Q 1534 4219 1204 4116 
Q 875 4013 500 3803 
L 500 4441 
Q 881 4594 1212 4672 
Q 1544 4750 1819 4750 
Q 2544 4750 2975 4387 
Q 3406 4025 3406 3419 
Q 3406 3131 3298 2873 
Q 3191 2616 2906 2266 
Q 2828 2175 2409 1742 
Q 1991 1309 1228 531 
z
" transform="scale(0.015625)"/>
       </defs>
       <use xlink:href="#DejaVuSans-36"/>
       <use xlink:href="#DejaVuSans-2e" transform="translate(63.623047 0)"/>
       <use xlink:href="#DejaVuSans-39" transform="translate(95.410156 0)"/>
       <use xlink:href="#DejaVuSans-32" transform="translate(159.033203 0)"/>
      </g>
     </g>
    </g>
    <g id="xtick_3">
     <g id="line2d_3">
      <g>
       <use xlink:href="#m05a47a434f" x="203.694545" y="307.584" style="stroke: #000000; stroke-width: 0.8"/>
      </g>
     </g>
     <g id="text_3">
      <!-- 6.94 -->
      <g transform="translate(192.561733 322.182437) scale(0.1 -0.1)">
       <defs>
        <path id="DejaVuSans-34" d="M 2419 4116 
L 825 1625 
L 2419 1625 
L 2419 4116 
z
M 2253 4666 
L 3047 4666 
L 3047 1625 
L 3713 1625 
L 3713 1100 
L 3047 1100 
L 3047 0 
L 2419 0 
L 2419 1100 
L 313 1100 
L 313 1709 
L 2253 4666 
z
" transform="scale(0.015625)"/>
       </defs>
       <use xlink:href="#DejaVuSans-36"/>
       <use xlink:href="#DejaVuSans-2e" transform="translate(63.623047 0)"/>
       <use xlink:href="#DejaVuSans-39" transform="translate(95.410156 0)"/>
       <use xlink:href="#DejaVuSans-34" transform="translate(159.033203 0)"/>
      </g>
     </g>
    </g>
    <g id="xtick_4">
     <g id="line2d_4">
      <g>
       <use xlink:href="#m05a47a434f" x="268.625455" y="307.584" style="stroke: #000000; stroke-width: 0.8"/>
      </g>
     </g>
     <g id="text_4">
      <!-- 6.96 -->
      <g transform="translate(257.492642 322.182437) scale(0.1 -0.1)">
       <use xlink:href="#DejaVuSans-36"/>
       <use xlink:href="#DejaVuSans-2e" transform="translate(63.623047 0)"/>
       <use xlink:href="#DejaVuSans-39" transform="translate(95.410156 0)"/>
       <use xlink:href="#DejaVuSans-36" transform="translate(159.033203 0)"/>
      </g>
     </g>
    </g>
    <g id="xtick_5">
     <g id="line2d_5">
      <g>
       <use xlink:href="#m05a47a434f" x="333.556364" y="307.584" style="stroke: #000000; stroke-width: 0.8"/>
      </g>
     </g>
     <g id="text_5">
      <!-- 6.98 -->
      <g transform="translate(322.423551 322.182437) scale(0.1 -0.1)">
       <defs>
        <path id="DejaVuSans-38" d="M 2034 2216 
Q 1584 2216 1326 1975 
Q 1069 1734 1069 1313 
Q 1069 891 1326 650 
Q 1584 409 2034 409 
Q 2484 409 2743 651 
Q 3003 894 3003 1313 
Q 3003 1734 2745 1975 
Q 2488 2216 2034 2216 
z
M 1403 2484 
Q 997 2584 770 2862 
Q 544 3141 544 3541 
Q 544 4100 942 4425 
Q 1341 4750 2034 4750 
Q 2731 4750 3128 4425 
Q 3525 4100 3525 3541 
Q 3525 3141 3298 2862 
Q 3072 2584 2669 2484 
Q 3125 2378 3379 2068 
Q 3634 1759 3634 1313 
Q 3634 634 3220 271 
Q 2806 -91 2034 -91 
Q 1263 -91 848 271 
Q 434 634 434 1313 
Q 434 1759 690 2068 
Q 947 2378 1403 2484 
z
M 1172 3481 
Q 1172 3119 1398 2916 
Q 1625 2713 2034 2713 
Q 2441 2713 2670 2916 
Q 2900 3119 2900 3481 
Q 2900 3844 2670 4047 
Q 2441 4250 2034 4250 
Q 1625 4250 1398 4047 
Q 1172 3844 1172 3481 
z
" transform="scale(0.015625)"/>
       </defs>
       <use xlink:href="#DejaVuSans-36"/>
       <use xlink:href="#DejaVuSans-2e" transform="translate(63.623047 0)"/>
       <use xlink:href="#DejaVuSans-39" transform="translate(95.410156 0)"/>
       <use xlink:href="#DejaVuSans-38" transform="translate(159.033203 0)"/>
      </g>
     </g>
    </g>
    <g id="xtick_6">
     <g id="line2d_6">
      <g>
       <use xlink:href="#m05a47a434f" x="398.487273" y="307.584" style="stroke: #000000; stroke-width: 0.8"/>
      </g>
     </g>
     <g id="text_6">
      <!-- 7.00 -->
      <g transform="translate(387.35446 322.182437) scale(0.1 -0.1)">
       <defs>
        <path id="DejaVuSans-37" d="M 525 4666 
L 3525 4666 
L 3525 4397 
L 1831 0 
L 1172 0 
L 2766 4134 
L 525 4134 
L 525 4666 
z
" transform="scale(0.015625)"/>
       </defs>
       <use xlink:href="#DejaVuSans-37"/>
       <use xlink:href="#DejaVuSans-2e" transform="translate(63.623047 0)"/>
       <use xlink:href="#DejaVuSans-30" transform="translate(95.410156 0)"/>
       <use xlink:href="#DejaVuSans-30" transform="translate(159.033203 0)"/>
      </g>
     </g>
    </g>
    <g id="text_7">
     <!-- Energy (keV) -->
     <g transform="translate(203.952187 335.860562) scale(0.1 -0.1)">
      <defs>
       <path id="DejaVuSans-45" d="M 628 4666 
L 3578 4666 
L 3578 4134 
L 1259 4134 
L 1259 2753 
L 3481 2753 
L 3481 2222 
L 1259 2222 
L 1259 531 
L 3634 531 
L 3634 0 
L 628 0 
L 628 4666 
z
" transform="scale(0.015625)"/>
       <path id="DejaVuSans-6e" d="M 3513 2113 
L 3513 0 
L 2938 0 
L 2938 2094 
Q 2938 2591 2744 2837 
Q 2550 3084 2163 3084 
Q 1697 3084 1428 2787 
Q 1159 2491 1159 1978 
L 1159 0 
L 581 0 
L 581 3500 
L 1159 3500 
L 1159 2956 
Q 1366 3272 1645 3428 
Q 1925 3584 2291 3584 
Q 2894 3584 3203 3211 
Q 3513 2838 3513 2113 
z
" transform="scale(0.015625)"/>
       <path id="DejaVuSans-65" d="M 3597 1894 
L 3597 1613 
L 953 1613 
Q 991 1019 1311 708 
Q 1631 397 2203 397 
Q 2534 397 2845 478 
Q 3156 559 3463 722 
L 3463 178 
Q 3153 47 2828 -22 
Q 2503 -91 2169 -91 
Q 1331 -91 842 396 
Q 353 884 353 1716 
Q 353 2575 817 3079 
Q 1281 3584 2069 3584 
Q 2775 3584 3186 3129 
Q 3597 2675 3597 1894 
z
M 3022 2063 
Q 3016 2534 2758 2815 
Q 2500 3097 2075 3097 
Q 1594 3097 1305 2825 
Q 1016 2553 972 2059 
L 3022 2063 
z
" transform="scale(0.015625)"/>
       <path id="DejaVuSans-72" d="M 2631 2963 
Q 2534 3019 2420 3045 
Q 2306 3072 2169 3072 
Q 1681 3072 1420 2755 
Q 1159 2438 1159 1844 
L 1159 0 
L 581 0 
L 581 3500 
L 1159 3500 
L 1159 2956 
Q 1341 3275 1631 3429 
Q 1922 3584 2338 3584 
Q 2397 3584 2469 3576 
Q 2541 3569 2628 3553 
L 2631 2963 
z
" transform="scale(0.015625)"/>
       <path id="DejaVuSans-67" d="M 2906 1791 
Q 2906 2416 2648 2759 
Q 2391 3103 1925 3103 
Q 1463 3103 1205 2759 
Q 947 2416 947 1791 
Q 947 1169 1205 825 
Q 1463 481 1925 481 
Q 2391 481 2648 825 
Q 2906 1169 2906 1791 
z
M 3481 434 
Q 3481 -459 3084 -895 
Q 2688 -1331 1869 -1331 
Q 1566 -1331 1297 -1286 
Q 1028 -1241 775 -1147 
L 775 -588 
Q 1028 -725 1275 -790 
Q 1522 -856 1778 -856 
Q 2344 -856 2625 -561 
Q 2906 -266 2906 331 
L 2906 616 
Q 2728 306 2450 153 
Q 2172 0 1784 0 
Q 1141 0 747 490 
Q 353 981 353 1791 
Q 353 2603 747 3093 
Q 1141 3584 1784 3584 
Q 2172 3584 2450 3431 
Q 2728 3278 2906 2969 
L 2906 3500 
L 3481 3500 
L 3481 434 
z
" transform="scale(0.015625)"/>
       <path id="DejaVuSans-79" d="M 2059 -325 
Q 1816 -950 1584 -1140 
Q 1353 -1331 966 -1331 
L 506 -1331 
L 506 -850 
L 844 -850 
Q 1081 -850 1212 -737 
Q 1344 -625 1503 -206 
L 1606 56 
L 191 3500 
L 800 3500 
L 1894 763 
L 2988 3500 
L 3597 3500 
L 2059 -325 
z
" transform="scale(0.015625)"/>
       <path id="DejaVuSans-20" transform="scale(0.015625)"/>
       <path id="DejaVuSans-28" d="M 1984 4856 
Q 1566 4138 1362 3434 
Q 1159 2731 1159 2009 
Q 1159 1288 1364 580 
Q 1569 -128 1984 -844 
L 1484 -844 
Q 1016 -109 783 600 
Q 550 1309 550 2009 
Q 550 2706 781 3412 
Q 1013 4119 1484 4856 
L 1984 4856 
z
" transform="scale(0.015625)"/>
       <path id="DejaVuSans-6b" d="M 581 4863 
L 1159 4863 
L 1159 1991 
L 2875 3500 
L 3609 3500 
L 1753 1863 
L 3688 0 
L 2938 0 
L 1159 1709 
L 1159 0 
L 581 0 
L 581 4863 
z
" transform="scale(0.015625)"/>
       <path id="DejaVuSans-56" d="M 1831 0 
L 50 4666 
L 709 4666 
L 2188 738 
L 3669 4666 
L 4325 4666 
L 2547 0 
L 1831 0 
z
" transform="scale(0.015625)"/>
       <path id="DejaVuSans-29" d="M 513 4856 
L 1013 4856 
Q 1481 4119 1714 3412 
Q 1947 2706 1947 2009 
Q 1947 1309 1714 600 
Q 1481 -109 1013 -844 
L 513 -844 
Q 928 -128 1133 580 
Q 1338 1288 1338 2009 
Q 1338 2731 1133 3434 
Q 928 4138 513 4856 
z
" transform="scale(0.015625)"/>
      </defs>
      <use xlink:href="#DejaVuSans-45"/>
      <use xlink:href="#DejaVuSans-6e" transform="translate(63.183594 0)"/>
      <use xlink:href="#DejaVuSans-65" transform="translate(126.5625 0)"/>
      <use xlink:href="#DejaVuSans-72" transform="translate(188.085938 0)"/>
      <use xlink:href="#DejaVuSans-67" transform="translate(227.449219 0)"/>
      <use xlink:href="#DejaVuSans-79" transform="translate(290.925781 0)"/>
      <use xlink:href="#DejaVuSans-20" transform="translate(350.105469 0)"/>
      <use xlink:href="#DejaVuSans-28" transform="translate(381.892578 0)"/>
      <use xlink:href="#DejaVuSans-6b" transform="translate(420.90625 0)"/>
      <use xlink:href="#DejaVuSans-65" transform="translate(475.191406 0)"/>
      <use xlink:href="#DejaVuSans-56" transform="translate(536.714844 0)"/>
      <use xlink:href="#DejaVuSans-29" transform="translate(605.123047 0)"/>
     </g>
    </g>
   </g>
   <g id="matplotlib.axis_2">
    <g id="ytick_1">
     <g id="line2d_7">
      <defs>
       <path id="m65ae592685" d="M 0 0 
L -3.5 0 
" style="stroke: #000000; stroke-width: 0.8"/>
      </defs>
      <g>
       <use xlink:href="#m65ae592685" x="57.6" y="245.130996" style="stroke: #000000; stroke-width: 0.8"/>
      </g>
     </g>
     <g id="text_8">
      <!-- $\mathdefault{10^{-19}}$ -->
      <g transform="translate(22.7 248.930215) scale(0.1 -0.1)">
       <defs>
        <path id="DejaVuSans-31" d="M 794 531 
L 1825 531 
L 1825 4091 
L 703 3866 
L 703 4441 
L 1819 4666 
L 2450 4666 
L 2450 531 
L 3481 531 
L 3481 0 
L 794 0 
L 794 531 
z
" transform="scale(0.015625)"/>
        <path id="DejaVuSans-2212" d="M 678 2272 
L 4684 2272 
L 4684 1741 
L 678 1741 
L 678 2272 
z
" transform="scale(0.015625)"/>
       </defs>
       <use xlink:href="#DejaVuSans-31" transform="translate(0 0.765625)"/>
       <use xlink:href="#DejaVuSans-30" transform="translate(63.623047 0.765625)"/>
       <use xlink:href="#DejaVuSans-2212" transform="translate(128.203125 39.046875) scale(0.7)"/>
       <use xlink:href="#DejaVuSans-31" transform="translate(186.855469 39.046875) scale(0.7)"/>
       <use xlink:href="#DejaVuSans-39" transform="translate(231.391602 39.046875) scale(0.7)"/>
      </g>
     </g>
    </g>
    <g id="ytick_2">
     <g id="line2d_8">
      <g>
       <use xlink:href="#m65ae592685" x="57.6" y="164.911379" style="stroke: #000000; stroke-width: 0.8"/>
      </g>
     </g>
     <g id="text_9">
      <!-- $\mathdefault{10^{-18}}$ -->
      <g transform="translate(22.7 168.710598) scale(0.1 -0.1)">
       <use xlink:href="#DejaVuSans-31" transform="translate(0 0.765625)"/>
       <use xlink:href="#DejaVuSans-30" transform="translate(63.623047 0.765625)"/>
       <use xlink:href="#DejaVuSans-2212" transform="translate(128.203125 39.046875) scale(0.7)"/>
       <use xlink:href="#DejaVuSans-31" transform="translate(186.855469 39.046875) scale(0.7)"/>
       <use xlink:href="#DejaVuSans-38" transform="translate(231.391602 39.046875) scale(0.7)"/>
      </g>
     </g>
    </g>
    <g id="ytick_3">
     <g id="line2d_9">
      <g>
       <use xlink:href="#m65ae592685" x="57.6" y="84.691762" style="stroke: #000000; stroke-width: 0.8"/>
      </g>
     </g>
     <g id="text_10">
      <!-- $\mathdefault{10^{-17}}$ -->
      <g transform="translate(22.7 88.490981) scale(0.1 -0.1)">
       <use xlink:href="#DejaVuSans-31" transform="translate(0 0.684375)"/>
       <use xlink:href="#DejaVuSans-30" transform="translate(63.623047 0.684375)"/>
       <use xlink:href="#DejaVuSans-2212" transform="translate(128.203125 38.965625) scale(0.7)"/>
       <use xlink:href="#DejaVuSans-31" transform="translate(186.855469 38.965625) scale(0.7)"/>
       <use xlink:href="#DejaVuSans-37" transform="translate(231.391602 38.965625) scale(0.7)"/>
      </g>
     </g>
    </g>
    <g id="ytick_4">
     <g id="line2d_10">
      <defs>
       <path id="m6ff6a83367" d="M 0 0 
L -2 0 
" style="stroke: #000000; stroke-width: 0.6"/>
      </defs>
      <g>
       <use xlink:href="#m6ff6a83367" x="57.6" y="301.202102" style="stroke: #000000; stroke-width: 0.6"/>
      </g>
     </g>
    </g>
    <g id="ytick_5">
     <g id="line2d_11">
      <g>
       <use xlink:href="#m6ff6a83367" x="57.6" y="287.076129" style="stroke: #000000; stroke-width: 0.6"/>
      </g>
     </g>
    </g>
    <g id="ytick_6">
     <g id="line2d_12">
      <g>
       <use xlink:href="#m6ff6a83367" x="57.6" y="277.053591" style="stroke: #000000; stroke-width: 0.6"/>
      </g>
     </g>
    </g>
    <g id="ytick_7">
     <g id="line2d_13">
      <g>
       <use xlink:href="#m6ff6a83367" x="57.6" y="269.279507" style="stroke: #000000; stroke-width: 0.6"/>
      </g>
     </g>
    </g>
    <g id="ytick_8">
     <g id="line2d_14">
      <g>
       <use xlink:href="#m6ff6a83367" x="57.6" y="262.927618" style="stroke: #000000; stroke-width: 0.6"/>
      </g>
     </g>
    </g>
    <g id="ytick_9">
     <g id="line2d_15">
      <g>
       <use xlink:href="#m6ff6a83367" x="57.6" y="257.557172" style="stroke: #000000; stroke-width: 0.6"/>
      </g>
     </g>
    </g>
    <g id="ytick_10">
     <g id="line2d_16">
      <g>
       <use xlink:href="#m6ff6a83367" x="57.6" y="252.90508" style="stroke: #000000; stroke-width: 0.6"/>
      </g>
     </g>
    </g>
    <g id="ytick_11">
     <g id="line2d_17">
      <g>
       <use xlink:href="#m6ff6a83367" x="57.6" y="248.801644" style="stroke: #000000; stroke-width: 0.6"/>
      </g>
     </g>
    </g>
    <g id="ytick_12">
     <g id="line2d_18">
      <g>
       <use xlink:href="#m6ff6a83367" x="57.6" y="220.982485" style="stroke: #000000; stroke-width: 0.6"/>
      </g>
     </g>
    </g>
    <g id="ytick_13">
     <g id="line2d_19">
      <g>
       <use xlink:href="#m6ff6a83367" x="57.6" y="206.856512" style="stroke: #000000; stroke-width: 0.6"/>
      </g>
     </g>
    </g>
    <g id="ytick_14">
     <g id="line2d_20">
      <g>
       <use xlink:href="#m6ff6a83367" x="57.6" y="196.833974" style="stroke: #000000; stroke-width: 0.6"/>
      </g>
     </g>
    </g>
    <g id="ytick_15">
     <g id="line2d_21">
      <g>
       <use xlink:href="#m6ff6a83367" x="57.6" y="189.05989" style="stroke: #000000; stroke-width: 0.6"/>
      </g>
     </g>
    </g>
    <g id="ytick_16">
     <g id="line2d_22">
      <g>
       <use xlink:href="#m6ff6a83367" x="57.6" y="182.708001" style="stroke: #000000; stroke-width: 0.6"/>
      </g>
     </g>
    </g>
    <g id="ytick_17">
     <g id="line2d_23">
      <g>
       <use xlink:href="#m6ff6a83367" x="57.6" y="177.337555" style="stroke: #000000; stroke-width: 0.6"/>
      </g>
     </g>
    </g>
    <g id="ytick_18">
     <g id="line2d_24">
      <g>
       <use xlink:href="#m6ff6a83367" x="57.6" y="172.685463" style="stroke: #000000; stroke-width: 0.6"/>
      </g>
     </g>
    </g>
    <g id="ytick_19">
     <g id="line2d_25">
      <g>
       <use xlink:href="#m6ff6a83367" x="57.6" y="168.582027" style="stroke: #000000; stroke-width: 0.6"/>
      </g>
     </g>
    </g>
    <g id="ytick_20">
     <g id="line2d_26">
      <g>
       <use xlink:href="#m6ff6a83367" x="57.6" y="140.762868" style="stroke: #000000; stroke-width: 0.6"/>
      </g>
     </g>
    </g>
    <g id="ytick_21">
     <g id="line2d_27">
      <g>
       <use xlink:href="#m6ff6a83367" x="57.6" y="126.636894" style="stroke: #000000; stroke-width: 0.6"/>
      </g>
     </g>
    </g>
    <g id="ytick_22">
     <g id="line2d_28">
      <g>
       <use xlink:href="#m6ff6a83367" x="57.6" y="116.614357" style="stroke: #000000; stroke-width: 0.6"/>
      </g>
     </g>
    </g>
    <g id="ytick_23">
     <g id="line2d_29">
      <g>
       <use xlink:href="#m6ff6a83367" x="57.6" y="108.840273" style="stroke: #000000; stroke-width: 0.6"/>
      </g>
     </g>
    </g>
    <g id="ytick_24">
     <g id="line2d_30">
      <g>
       <use xlink:href="#m6ff6a83367" x="57.6" y="102.488384" style="stroke: #000000; stroke-width: 0.6"/>
      </g>
     </g>
    </g>
    <g id="ytick_25">
     <g id="line2d_31">
      <g>
       <use xlink:href="#m6ff6a83367" x="57.6" y="97.117938" style="stroke: #000000; stroke-width: 0.6"/>
      </g>
     </g>
    </g>
    <g id="ytick_26">
     <g id="line2d_32">
      <g>
       <use xlink:href="#m6ff6a83367" x="57.6" y="92.465846" style="stroke: #000000; stroke-width: 0.6"/>
      </g>
     </g>
    </g>
    <g id="ytick_27">
     <g id="line2d_33">
      <g>
       <use xlink:href="#m6ff6a83367" x="57.6" y="88.36241" style="stroke: #000000; stroke-width: 0.6"/>
      </g>
     </g>
    </g>
    <g id="ytick_28">
     <g id="line2d_34">
      <g>
       <use xlink:href="#m6ff6a83367" x="57.6" y="60.543251" style="stroke: #000000; stroke-width: 0.6"/>
      </g>
     </g>
    </g>
    <g id="ytick_29">
     <g id="line2d_35">
      <g>
       <use xlink:href="#m6ff6a83367" x="57.6" y="46.417277" style="stroke: #000000; stroke-width: 0.6"/>
      </g>
     </g>
    </g>
    <g id="text_11">
     <!-- Intensity (ph cm$^5$ s$^{-1}$ bin$^{-1}$) -->
     <g transform="translate(16.6 243.978) rotate(-90) scale(0.1 -0.1)">
      <defs>
       <path id="DejaVuSans-49" d="M 628 4666 
L 1259 4666 
L 1259 0 
L 628 0 
L 628 4666 
z
" transform="scale(0.015625)"/>
       <path id="DejaVuSans-74" d="M 1172 4494 
L 1172 3500 
L 2356 3500 
L 2356 3053 
L 1172 3053 
L 1172 1153 
Q 1172 725 1289 603 
Q 1406 481 1766 481 
L 2356 481 
L 2356 0 
L 1766 0 
Q 1100 0 847 248 
Q 594 497 594 1153 
L 594 3053 
L 172 3053 
L 172 3500 
L 594 3500 
L 594 4494 
L 1172 4494 
z
" transform="scale(0.015625)"/>
       <path id="DejaVuSans-73" d="M 2834 3397 
L 2834 2853 
Q 2591 2978 2328 3040 
Q 2066 3103 1784 3103 
Q 1356 3103 1142 2972 
Q 928 2841 928 2578 
Q 928 2378 1081 2264 
Q 1234 2150 1697 2047 
L 1894 2003 
Q 2506 1872 2764 1633 
Q 3022 1394 3022 966 
Q 3022 478 2636 193 
Q 2250 -91 1575 -91 
Q 1294 -91 989 -36 
Q 684 19 347 128 
L 347 722 
Q 666 556 975 473 
Q 1284 391 1588 391 
Q 1994 391 2212 530 
Q 2431 669 2431 922 
Q 2431 1156 2273 1281 
Q 2116 1406 1581 1522 
L 1381 1569 
Q 847 1681 609 1914 
Q 372 2147 372 2553 
Q 372 3047 722 3315 
Q 1072 3584 1716 3584 
Q 2034 3584 2315 3537 
Q 2597 3491 2834 3397 
z
" transform="scale(0.015625)"/>
       <path id="DejaVuSans-69" d="M 603 3500 
L 1178 3500 
L 1178 0 
L 603 0 
L 603 3500 
z
M 603 4863 
L 1178 4863 
L 1178 4134 
L 603 4134 
L 603 4863 
z
" transform="scale(0.015625)"/>
       <path id="DejaVuSans-70" d="M 1159 525 
L 1159 -1331 
L 581 -1331 
L 581 3500 
L 1159 3500 
L 1159 2969 
Q 1341 3281 1617 3432 
Q 1894 3584 2278 3584 
Q 2916 3584 3314 3078 
Q 3713 2572 3713 1747 
Q 3713 922 3314 415 
Q 2916 -91 2278 -91 
Q 1894 -91 1617 61 
Q 1341 213 1159 525 
z
M 3116 1747 
Q 3116 2381 2855 2742 
Q 2594 3103 2138 3103 
Q 1681 3103 1420 2742 
Q 1159 2381 1159 1747 
Q 1159 1113 1420 752 
Q 1681 391 2138 391 
Q 2594 391 2855 752 
Q 3116 1113 3116 1747 
z
" transform="scale(0.015625)"/>
       <path id="DejaVuSans-68" d="M 3513 2113 
L 3513 0 
L 2938 0 
L 2938 2094 
Q 2938 2591 2744 2837 
Q 2550 3084 2163 3084 
Q 1697 3084 1428 2787 
Q 1159 2491 1159 1978 
L 1159 0 
L 581 0 
L 581 4863 
L 1159 4863 
L 1159 2956 
Q 1366 3272 1645 3428 
Q 1925 3584 2291 3584 
Q 2894 3584 3203 3211 
Q 3513 2838 3513 2113 
z
" transform="scale(0.015625)"/>
       <path id="DejaVuSans-63" d="M 3122 3366 
L 3122 2828 
Q 2878 2963 2633 3030 
Q 2388 3097 2138 3097 
Q 1578 3097 1268 2742 
Q 959 2388 959 1747 
Q 959 1106 1268 751 
Q 1578 397 2138 397 
Q 2388 397 2633 464 
Q 2878 531 3122 666 
L 3122 134 
Q 2881 22 2623 -34 
Q 2366 -91 2075 -91 
Q 1284 -91 818 406 
Q 353 903 353 1747 
Q 353 2603 823 3093 
Q 1294 3584 2113 3584 
Q 2378 3584 2631 3529 
Q 2884 3475 3122 3366 
z
" transform="scale(0.015625)"/>
       <path id="DejaVuSans-6d" d="M 3328 2828 
Q 3544 3216 3844 3400 
Q 4144 3584 4550 3584 
Q 5097 3584 5394 3201 
Q 5691 2819 5691 2113 
L 5691 0 
L 5113 0 
L 5113 2094 
Q 5113 2597 4934 2840 
Q 4756 3084 4391 3084 
Q 3944 3084 3684 2787 
Q 3425 2491 3425 1978 
L 3425 0 
L 2847 0 
L 2847 2094 
Q 2847 2600 2669 2842 
Q 2491 3084 2119 3084 
Q 1678 3084 1418 2786 
Q 1159 2488 1159 1978 
L 1159 0 
L 581 0 
L 581 3500 
L 1159 3500 
L 1159 2956 
Q 1356 3278 1631 3431 
Q 1906 3584 2284 3584 
Q 2666 3584 2933 3390 
Q 3200 3197 3328 2828 
z
" transform="scale(0.015625)"/>
       <path id="DejaVuSans-35" d="M 691 4666 
L 3169 4666 
L 3169 4134 
L 1269 4134 
L 1269 2991 
Q 1406 3038 1543 3061 
Q 1681 3084 1819 3084 
Q 2600 3084 3056 2656 
Q 3513 2228 3513 1497 
Q 3513 744 3044 326 
Q 2575 -91 1722 -91 
Q 1428 -91 1123 -41 
Q 819 9 494 109 
L 494 744 
Q 775 591 1075 516 
Q 1375 441 1709 441 
Q 2250 441 2565 725 
Q 2881 1009 2881 1497 
Q 2881 1984 2565 2268 
Q 2250 2553 1709 2553 
Q 1456 2553 1204 2497 
Q 953 2441 691 2322 
L 691 4666 
z
" transform="scale(0.015625)"/>
       <path id="DejaVuSans-62" d="M 3116 1747 
Q 3116 2381 2855 2742 
Q 2594 3103 2138 3103 
Q 1681 3103 1420 2742 
Q 1159 2381 1159 1747 
Q 1159 1113 1420 752 
Q 1681 391 2138 391 
Q 2594 391 2855 752 
Q 3116 1113 3116 1747 
z
M 1159 2969 
Q 1341 3281 1617 3432 
Q 1894 3584 2278 3584 
Q 2916 3584 3314 3078 
Q 3713 2572 3713 1747 
Q 3713 922 3314 415 
Q 2916 -91 2278 -91 
Q 1894 -91 1617 61 
Q 1341 213 1159 525 
L 1159 0 
L 581 0 
L 581 4863 
L 1159 4863 
L 1159 2969 
z
" transform="scale(0.015625)"/>
      </defs>
      <use xlink:href="#DejaVuSans-49" transform="translate(0 0.684375)"/>
      <use xlink:href="#DejaVuSans-6e" transform="translate(29.492188 0.684375)"/>
      <use xlink:href="#DejaVuSans-74" transform="translate(92.871094 0.684375)"/>
      <use xlink:href="#DejaVuSans-65" transform="translate(132.080078 0.684375)"/>
      <use xlink:href="#DejaVuSans-6e" transform="translate(193.603516 0.684375)"/>
      <use xlink:href="#DejaVuSans-73" transform="translate(256.982422 0.684375)"/>
      <use xlink:href="#DejaVuSans-69" transform="translate(309.082031 0.684375)"/>
      <use xlink:href="#DejaVuSans-74" transform="translate(336.865234 0.684375)"/>
      <use xlink:href="#DejaVuSans-79" transform="translate(376.074219 0.684375)"/>
      <use xlink:href="#DejaVuSans-20" transform="translate(435.253906 0.684375)"/>
      <use xlink:href="#DejaVuSans-28" transform="translate(467.041016 0.684375)"/>
      <use xlink:href="#DejaVuSans-70" transform="translate(506.054688 0.684375)"/>
      <use xlink:href="#DejaVuSans-68" transform="translate(569.53125 0.684375)"/>
      <use xlink:href="#DejaVuSans-20" transform="translate(632.910156 0.684375)"/>
      <use xlink:href="#DejaVuSans-63" transform="translate(664.697266 0.684375)"/>
      <use xlink:href="#DejaVuSans-6d" transform="translate(719.677734 0.684375)"/>
      <use xlink:href="#DejaVuSans-35" transform="translate(818.046875 38.965625) scale(0.7)"/>
      <use xlink:href="#DejaVuSans-20" transform="translate(865.317383 0.684375)"/>
      <use xlink:href="#DejaVuSans-73" transform="translate(897.104492 0.684375)"/>
      <use xlink:href="#DejaVuSans-2212" transform="translate(950.161133 38.965625) scale(0.7)"/>
      <use xlink:href="#DejaVuSans-31" transform="translate(1008.813477 38.965625) scale(0.7)"/>
      <use xlink:href="#DejaVuSans-20" transform="translate(1056.083984 0.684375)"/>
      <use xlink:href="#DejaVuSans-62" transform="translate(1087.871094 0.684375)"/>
      <use xlink:href="#DejaVuSans-69" transform="translate(1151.347656 0.684375)"/>
      <use xlink:href="#DejaVuSans-6e" transform="translate(1179.130859 0.684375)"/>
      <use xlink:href="#DejaVuSans-2212" transform="translate(1243.466797 38.965625) scale(0.7)"/>
      <use xlink:href="#DejaVuSans-31" transform="translate(1302.119141 38.965625) scale(0.7)"/>
      <use xlink:href="#DejaVuSans-29" transform="translate(1349.389648 0.684375)"/>
     </g>
    </g>
   </g>
   <g id="line2d_36">
    <path d="M 73.832727 346.6 
L 73.832727 294.462684 
L 113.440582 294.573134 
L 113.440582 294.583548 
L 116.687127 294.547001 
L 116.687127 280.926159 
L 117.336436 280.926159 
L 117.336436 294.530181 
L 121.232291 294.483899 
L 121.232291 294.198673 
L 121.8816 294.198673 
L 121.8816 293.912123 
L 122.530909 293.912123 
L 122.530909 293.627939 
L 123.180218 293.627939 
L 123.180218 293.346072 
L 124.478836 293.268885 
L 124.478836 293.551616 
L 125.128145 293.551616 
L 125.128145 293.843609 
L 125.777455 293.843609 
L 125.777455 294.138093 
L 126.426764 294.138093 
L 126.426764 294.43513 
L 127.076073 294.43513 
L 127.076073 294.627571 
L 130.971927 294.633388 
L 130.971927 207.90659 
L 131.621236 207.90659 
L 131.621236 294.63911 
L 132.270545 294.63911 
L 132.270545 253.802101 
L 132.919855 253.802101 
L 132.919855 175.787212 
L 133.569164 175.787212 
L 133.569164 294.647277 
L 145.906036 294.545861 
L 145.906036 294.504487 
L 148.503273 294.584247 
L 148.503273 294.629905 
L 155.645673 294.624156 
L 155.645673 275.38167 
L 156.294982 275.38167 
L 156.294982 294.588719 
L 159.541527 294.694984 
L 159.541527 294.703365 
L 167.333236 294.606868 
L 167.333236 294.517712 
L 168.631855 294.428791 
L 168.631855 294.3401 
L 170.579782 294.400864 
L 170.579782 294.489068 
L 171.8784 294.577502 
L 171.8784 294.666167 
L 175.774255 294.561839 
L 175.774255 294.439156 
L 176.423564 294.439156 
L 176.423564 294.167734 
L 177.072873 294.167734 
L 177.072873 293.895651 
L 177.722182 293.895651 
L 177.722182 224.290874 
L 178.371491 224.290874 
L 178.371491 293.357815 
L 179.670109 293.28301 
L 179.670109 293.546321 
L 180.319418 293.546321 
L 180.319418 293.818062 
L 180.968727 293.818062 
L 180.968727 294.091953 
L 181.618036 294.091953 
L 181.618036 294.368032 
L 182.267345 294.368032 
L 182.267345 294.539832 
L 183.565964 294.525168 
L 183.565964 252.662047 
L 184.215273 252.662047 
L 184.215273 294.488891 
L 184.864582 294.488891 
L 184.864582 282.17909 
L 185.513891 282.17909 
L 185.513891 294.482302 
L 186.812509 294.545963 
L 186.812509 294.610716 
L 188.111127 294.675594 
L 188.111127 270.133545 
L 188.760436 270.133545 
L 188.760436 294.771294 
L 191.357673 294.683944 
L 191.357673 294.654547 
L 194.604218 294.738546 
L 194.604218 294.769422 
L 196.552145 294.763258 
L 196.552145 198.608549 
L 197.201455 198.608549 
L 197.201455 294.724031 
L 199.798691 294.700806 
L 199.798691 214.296745 
L 200.448 214.296745 
L 200.448 294.714447 
L 201.746618 294.721269 
L 201.746618 294.235758 
L 202.395927 294.235758 
L 202.395927 292.919316 
L 203.045236 292.919316 
L 203.045236 272.199542 
L 203.694545 272.199542 
L 203.694545 290.398266 
L 204.343855 290.398266 
L 204.343855 289.203034 
L 204.993164 289.203034 
L 204.993164 288.882235 
L 205.642473 288.882235 
L 205.642473 290.066765 
L 206.291782 290.066765 
L 206.291782 291.322652 
L 206.941091 291.322652 
L 206.941091 292.625535 
L 207.5904 292.625535 
L 207.5904 293.979122 
L 208.239709 293.979122 
L 208.239709 294.870747 
L 211.486255 294.832238 
L 211.486255 294.685079 
L 212.135564 294.685079 
L 212.135564 294.307124 
L 212.784873 294.307124 
L 212.784873 293.929053 
L 213.434182 293.929053 
L 213.434182 293.555064 
L 214.083491 293.555064 
L 214.083491 293.185061 
L 214.7328 293.185061 
L 214.7328 292.934289 
L 216.031418 292.965211 
L 216.031418 265.915456 
L 216.680727 265.915456 
L 216.680727 278.614502 
L 217.330036 278.614502 
L 217.330036 293.096055 
L 217.979345 293.096055 
L 217.979345 293.22561 
L 218.628655 293.22561 
L 218.628655 293.506723 
L 219.277964 293.506723 
L 219.277964 271.60396 
L 219.927273 271.60396 
L 219.927273 294.08151 
L 220.576582 294.08151 
L 220.576582 294.372522 
L 221.225891 294.372522 
L 221.225891 264.10061 
L 221.8752 264.10061 
L 221.8752 294.405456 
L 222.524509 294.405456 
L 222.524509 277.042256 
L 223.173818 277.042256 
L 223.173818 294.162087 
L 223.823127 294.162087 
L 223.823127 294.041045 
L 224.472436 294.041045 
L 224.472436 293.592962 
L 225.121745 293.592962 
L 225.121745 280.40211 
L 225.771055 280.40211 
L 225.771055 291.604068 
L 226.420364 291.604068 
L 226.420364 290.645756 
L 227.069673 290.645756 
L 227.069673 289.713108 
L 227.718982 289.713108 
L 227.718982 289.319135 
L 228.368291 289.319135 
L 228.368291 267.478855 
L 229.0176 267.478855 
L 229.0176 290.388082 
L 229.666909 290.388082 
L 229.666909 290.94398 
L 230.316218 290.94398 
L 230.316218 291.508895 
L 230.965527 291.508895 
L 230.965527 275.833953 
L 231.614836 275.833953 
L 231.614836 289.831762 
L 232.264145 289.831762 
L 232.264145 274.617203 
L 232.913455 274.617203 
L 232.913455 287.006636 
L 233.562764 287.006636 
L 233.562764 285.677621 
L 234.212073 285.677621 
L 234.212073 264.130268 
L 234.861382 264.130268 
L 234.861382 279.609547 
L 235.510691 279.609547 
L 235.510691 268.337343 
L 236.16 268.337343 
L 236.16 277.463565 
L 236.809309 277.463565 
L 236.809309 280.114207 
L 237.458618 280.114207 
L 237.458618 278.285808 
L 238.107927 278.285808 
L 238.107927 275.236911 
L 238.757236 275.236911 
L 238.757236 269.532168 
L 239.406545 269.532168 
L 239.406545 269.846386 
L 240.055855 269.846386 
L 240.055855 267.446213 
L 240.705164 267.446213 
L 240.705164 266.663358 
L 241.354473 266.663358 
L 241.354473 268.541748 
L 242.003782 268.541748 
L 242.003782 77.275885 
L 242.653091 77.275885 
L 242.653091 272.745808 
L 243.3024 272.745808 
L 243.3024 275.054777 
L 243.951709 275.054777 
L 243.951709 277.522779 
L 244.601018 277.522779 
L 244.601018 279.901417 
L 245.250327 279.901417 
L 245.250327 282.271397 
L 245.899636 282.271397 
L 245.899636 284.814447 
L 246.548945 284.814447 
L 246.548945 260.642238 
L 247.198255 260.642238 
L 247.198255 289.868726 
L 247.847564 289.868726 
L 247.847564 290.90454 
L 248.496873 290.90454 
L 248.496873 291.927605 
L 249.146182 291.927605 
L 249.146182 261.737509 
L 249.795491 261.737509 
L 249.795491 294.068629 
L 250.4448 294.068629 
L 250.4448 294.706308 
L 251.094109 294.706308 
L 251.094109 294.506184 
L 251.743418 294.506184 
L 251.743418 294.291718 
L 252.392727 294.291718 
L 252.392727 294.078576 
L 253.042036 294.078576 
L 253.042036 268.643931 
L 253.691345 268.643931 
L 253.691345 293.821055 
L 254.340655 293.821055 
L 254.340655 294.065867 
L 254.989964 294.065867 
L 254.989964 294.317855 
L 255.639273 294.317855 
L 255.639273 294.571696 
L 256.288582 294.571696 
L 256.288582 294.827428 
L 256.937891 294.827428 
L 256.937891 294.977039 
L 258.885818 294.895946 
L 258.885818 294.853801 
L 264.080291 294.889581 
L 264.080291 294.620466 
L 264.7296 294.620466 
L 264.7296 294.349891 
L 265.378909 294.349891 
L 265.378909 294.081419 
L 266.028218 294.081419 
L 266.028218 293.815011 
L 267.326836 293.745291 
L 267.326836 294.017061 
L 267.976145 294.017061 
L 267.976145 294.29726 
L 268.625455 294.29726 
L 268.625455 262.708905 
L 269.274764 262.708905 
L 269.274764 294.864576 
L 270.573382 294.915374 
L 270.573382 294.554434 
L 271.222691 294.554434 
L 271.222691 294.189699 
L 271.872 294.189699 
L 271.872 293.828768 
L 272.521309 293.828768 
L 272.521309 293.471552 
L 273.170618 293.471552 
L 273.170618 293.352495 
L 273.819927 293.352495 
L 273.819927 261.050358 
L 274.469236 261.050358 
L 274.469236 293.952918 
L 275.118545 293.952918 
L 275.118545 294.260997 
L 275.767855 294.260997 
L 275.767855 294.571843 
L 276.417164 294.571843 
L 276.417164 294.742549 
L 277.715782 294.663882 
L 277.715782 294.580805 
L 279.0144 294.497928 
L 279.0144 294.41525 
L 279.663709 294.41525 
L 279.663709 276.756224 
L 280.313018 276.756224 
L 280.313018 294.371211 
L 283.559564 294.455782 
L 283.559564 294.499346 
L 285.507491 294.587213 
L 285.507491 294.631231 
L 286.806109 294.567272 
L 286.806109 294.316083 
L 287.455418 294.316083 
L 287.455418 294.063327 
L 288.104727 294.063327 
L 288.104727 293.812402 
L 288.754036 293.812402 
L 288.754036 293.563277 
L 289.403345 293.563277 
L 289.403345 293.361997 
L 291.351273 293.265193 
L 291.351273 293.22233 
L 293.2992 293.143385 
L 293.2992 210.438499 
L 293.948509 210.438499 
L 293.948509 293.224447 
L 294.597818 293.224447 
L 294.597818 230.361282 
L 295.247127 230.361282 
L 295.247127 293.323526 
L 296.545745 293.378656 
L 296.545745 293.443503 
L 297.844364 293.508651 
L 297.844364 260.613351 
L 298.493673 260.613351 
L 298.493673 274.099167 
L 299.142982 274.099167 
L 299.142982 293.56779 
L 299.792291 293.56779 
L 299.792291 293.223527 
L 300.4416 293.223527 
L 300.4416 231.170521 
L 301.090909 231.170521 
L 301.090909 277.652434 
L 301.740218 277.652434 
L 301.740218 292.187484 
L 302.389527 292.187484 
L 302.389527 291.812011 
L 303.038836 291.812011 
L 303.038836 291.31553 
L 303.688145 291.31553 
L 303.688145 275.380094 
L 304.337455 275.380094 
L 304.337455 290.352347 
L 304.986764 290.352347 
L 304.986764 257.807968 
L 305.636073 257.807968 
L 305.636073 266.893164 
L 306.285382 266.893164 
L 306.285382 285.673851 
L 306.934691 285.673851 
L 306.934691 282.980485 
L 307.584 282.980485 
L 307.584 241.816735 
L 308.233309 241.816735 
L 308.233309 266.422392 
L 308.882618 266.422392 
L 308.882618 244.054984 
L 309.531927 244.054984 
L 309.531927 260.875203 
L 310.181236 260.875203 
L 310.181236 261.952241 
L 310.830545 261.952241 
L 310.830545 53.568 
L 311.479855 53.568 
L 311.479855 235.116872 
L 312.129164 235.116872 
L 312.129164 262.887643 
L 312.778473 262.887643 
L 312.778473 255.382325 
L 313.427782 255.382325 
L 313.427782 263.53022 
L 314.077091 263.53022 
L 314.077091 275.951623 
L 314.7264 275.951623 
L 314.7264 286.928988 
L 315.375709 286.928988 
L 315.375709 293.379584 
L 316.025018 293.379584 
L 316.025018 277.325367 
L 316.674327 277.325367 
L 316.674327 294.161889 
L 317.323636 294.161889 
L 317.323636 294.505224 
L 317.972945 294.505224 
L 317.972945 294.872556 
L 318.622255 294.872556 
L 318.622255 295.138932 
L 321.8688 295.243761 
L 321.8688 273.360851 
L 322.518109 273.360851 
L 322.518109 295.049415 
L 323.167418 295.049415 
L 323.167418 294.89401 
L 323.816727 294.89401 
L 323.816727 254.258794 
L 324.466036 254.258794 
L 324.466036 294.585295 
L 325.115345 294.585295 
L 325.115345 277.799189 
L 325.764655 277.799189 
L 325.764655 294.672136 
L 326.413964 294.672136 
L 326.413964 294.811371 
L 327.063273 294.811371 
L 327.063273 294.951173 
L 327.712582 294.951173 
L 327.712582 295.091549 
L 329.0112 295.188503 
L 329.0112 295.204971 
L 330.309818 295.219713 
L 330.309818 264.815885 
L 330.959127 264.815885 
L 330.959127 278.607394 
L 331.608436 278.607394 
L 331.608436 295.262118 
L 364.7232 295.373153 
L 364.7232 295.376899 
L 398.487273 295.488 
L 398.487273 295.488 
" clip-path="url(#p622126bf90)" style="fill: none; stroke: #1f77b4; stroke-width: 1.5; stroke-linecap: square"/>
   </g>
   <g id="line2d_37">
    <path d="M 73.832727 346.6 
L 73.832727 292.273138 
L 75.131345 292.193138 
L 75.131345 292.111188 
L 76.429964 292.027336 
L 76.429964 291.941081 
L 77.728582 291.853169 
L 77.728582 291.763253 
L 79.0272 291.671277 
L 79.0272 291.577252 
L 80.325818 291.481259 
L 80.325818 291.383145 
L 81.624436 291.283263 
L 81.624436 291.181388 
L 82.923055 291.077515 
L 82.923055 290.972124 
L 84.221673 290.864904 
L 84.221673 290.755925 
L 85.520291 290.645203 
L 85.520291 290.532694 
L 86.1696 290.532694 
L 86.1696 290.418454 
L 86.818909 290.418454 
L 86.818909 290.302751 
L 87.468218 290.302751 
L 87.468218 290.185191 
L 88.117527 290.185191 
L 88.117527 290.06624 
L 88.766836 290.06624 
L 88.766836 289.946072 
L 89.416145 289.946072 
L 89.416145 289.824481 
L 90.065455 289.824481 
L 90.065455 289.701626 
L 90.714764 289.701626 
L 90.714764 289.577525 
L 91.364073 289.577525 
L 91.364073 289.451319 
L 92.013382 289.451319 
L 92.013382 289.32269 
L 92.662691 289.32269 
L 92.662691 289.193085 
L 93.312 289.193085 
L 93.312 289.062009 
L 93.961309 289.062009 
L 93.961309 288.930523 
L 94.610618 288.930523 
L 94.610618 288.799808 
L 95.259927 288.799808 
L 95.259927 288.671004 
L 95.909236 288.671004 
L 95.909236 288.541621 
L 96.558545 288.541621 
L 96.558545 288.411649 
L 97.207855 288.411649 
L 97.207855 288.280951 
L 97.857164 288.280951 
L 97.857164 288.149266 
L 98.506473 288.149266 
L 98.506473 288.01581 
L 99.155782 288.01581 
L 99.155782 287.881744 
L 99.805091 287.881744 
L 99.805091 287.747995 
L 100.4544 287.747995 
L 100.4544 287.614154 
L 101.103709 287.614154 
L 101.103709 287.480198 
L 101.753018 287.480198 
L 101.753018 287.34614 
L 102.402327 287.34614 
L 102.402327 287.212229 
L 103.051636 287.212229 
L 103.051636 287.07851 
L 103.700945 287.07851 
L 103.700945 286.945304 
L 104.350255 286.945304 
L 104.350255 286.812228 
L 104.999564 286.812228 
L 104.999564 286.679577 
L 105.648873 286.679577 
L 105.648873 286.547815 
L 106.298182 286.547815 
L 106.298182 286.416737 
L 106.947491 286.416737 
L 106.947491 286.286482 
L 107.5968 286.286482 
L 107.5968 286.155226 
L 108.246109 286.155226 
L 108.246109 286.021606 
L 108.895418 286.021606 
L 108.895418 285.889048 
L 109.544727 285.889048 
L 109.544727 285.757712 
L 110.194036 285.757712 
L 110.194036 285.627149 
L 110.843345 285.627149 
L 110.843345 285.502557 
L 111.492655 285.502557 
L 111.492655 285.386939 
L 112.141964 285.386939 
L 112.141964 285.27279 
L 112.791273 285.27279 
L 112.791273 285.160087 
L 113.440582 285.160087 
L 113.440582 285.048816 
L 114.089891 285.048816 
L 114.089891 284.932598 
L 114.7392 284.932598 
L 114.7392 284.807051 
L 115.388509 284.807051 
L 115.388509 284.683007 
L 116.037818 284.683007 
L 116.037818 284.560483 
L 116.687127 284.560483 
L 116.687127 284.440119 
L 117.336436 284.440119 
L 117.336436 284.328427 
L 118.635055 284.230434 
L 118.635055 284.134532 
L 119.933673 284.040443 
L 119.933673 283.948185 
L 120.582982 283.948185 
L 120.582982 283.778887 
L 121.232291 283.778887 
L 121.232291 283.47235 
L 121.8816 283.47235 
L 121.8816 283.167477 
L 122.530909 283.167477 
L 122.530909 282.867065 
L 123.180218 282.867065 
L 123.180218 282.570928 
L 123.829527 282.570928 
L 123.829527 282.427374 
L 124.478836 282.427374 
L 124.478836 282.548779 
L 125.128145 282.548779 
L 125.128145 282.677359 
L 125.777455 282.677359 
L 125.777455 282.808091 
L 126.426764 282.808091 
L 126.426764 282.941137 
L 129.024 282.848988 
L 129.024 282.775016 
L 130.322618 282.702847 
L 130.322618 282.632794 
L 131.621236 282.565632 
L 131.621236 282.500021 
L 132.919855 282.435859 
L 132.919855 282.373125 
L 134.218473 282.311308 
L 134.218473 282.250009 
L 135.517091 282.189748 
L 135.517091 282.130394 
L 136.815709 282.071979 
L 136.815709 282.014739 
L 138.114327 281.958856 
L 138.114327 281.903568 
L 140.062255 281.793975 
L 140.062255 281.739052 
L 141.360873 281.68361 
L 141.360873 281.627752 
L 142.659491 281.571495 
L 142.659491 281.514603 
L 143.958109 281.445893 
L 143.958109 281.357105 
L 145.256727 281.266983 
L 145.256727 281.175572 
L 146.555345 281.082662 
L 146.555345 281.009055 
L 148.503273 280.930333 
L 148.503273 280.887515 
L 150.4512 280.782868 
L 150.4512 280.701726 
L 151.749818 280.616581 
L 151.749818 280.528111 
L 153.048436 280.435681 
L 153.048436 280.332112 
L 153.697745 280.332112 
L 153.697745 280.211876 
L 154.347055 280.211876 
L 154.347055 280.086638 
L 154.996364 280.086638 
L 154.996364 279.956902 
L 155.645673 279.956902 
L 155.645673 279.822238 
L 156.294982 279.822238 
L 156.294982 279.69459 
L 157.5936 279.58364 
L 157.5936 279.466477 
L 158.242909 279.466477 
L 158.242909 279.343485 
L 158.892218 279.343485 
L 158.892218 279.214326 
L 159.541527 279.214326 
L 159.541527 279.066688 
L 160.190836 279.066688 
L 160.190836 278.89085 
L 160.840145 278.89085 
L 160.840145 278.708034 
L 161.489455 278.708034 
L 161.489455 278.518181 
L 162.138764 278.518181 
L 162.138764 278.320809 
L 162.788073 278.320809 
L 162.788073 278.128239 
L 163.437382 278.128239 
L 163.437382 277.949101 
L 164.086691 277.949101 
L 164.086691 277.76192 
L 164.736 277.76192 
L 164.736 277.565934 
L 165.385309 277.565934 
L 165.385309 277.362262 
L 166.034618 277.362262 
L 166.034618 277.124394 
L 166.683927 277.124394 
L 166.683927 276.833845 
L 167.333236 276.833845 
L 167.333236 276.534443 
L 167.982545 276.534443 
L 167.982545 276.227176 
L 168.631855 276.227176 
L 168.631855 275.911906 
L 169.281164 275.911906 
L 169.281164 275.625811 
L 169.930473 275.625811 
L 169.930473 275.395528 
L 170.579782 275.395528 
L 170.579782 275.1568 
L 171.229091 275.1568 
L 171.229091 274.906837 
L 171.8784 274.906837 
L 171.8784 274.647993 
L 172.527709 274.647993 
L 172.527709 274.354962 
L 173.177018 274.354962 
L 173.177018 274.007851 
L 173.826327 274.007851 
L 173.826327 273.651435 
L 174.475636 273.651435 
L 174.475636 273.286502 
L 175.124945 273.286502 
L 175.124945 272.913139 
L 175.774255 272.913139 
L 175.774255 272.486238 
L 176.423564 272.486238 
L 176.423564 271.973346 
L 177.072873 271.973346 
L 177.072873 271.454105 
L 177.722182 271.454105 
L 177.722182 270.929794 
L 178.371491 270.929794 
L 178.371491 270.399712 
L 179.0208 270.399712 
L 179.0208 269.964667 
L 179.670109 269.964667 
L 179.670109 269.693572 
L 180.319418 269.693572 
L 180.319418 269.415387 
L 180.968727 269.415387 
L 180.968727 269.126924 
L 181.618036 269.126924 
L 181.618036 268.828491 
L 182.267345 268.828491 
L 182.267345 268.469721 
L 182.916655 268.469721 
L 182.916655 268.014799 
L 183.565964 268.014799 
L 183.565964 267.552042 
L 184.215273 267.552042 
L 184.215273 267.082927 
L 184.864582 267.082927 
L 184.864582 266.605902 
L 185.513891 266.605902 
L 185.513891 266.13759 
L 186.1632 266.13759 
L 186.1632 265.687116 
L 186.812509 265.687116 
L 186.812509 265.231089 
L 187.461818 265.231089 
L 187.461818 264.769307 
L 188.111127 264.769307 
L 188.111127 264.302099 
L 188.760436 264.302099 
L 188.760436 263.815659 
L 189.409745 263.815659 
L 189.409745 263.300915 
L 190.059055 263.300915 
L 190.059055 262.782236 
L 190.708364 262.782236 
L 190.708364 262.260479 
L 191.357673 262.260479 
L 191.357673 261.735252 
L 192.006982 261.735252 
L 192.006982 261.214191 
L 192.656291 261.214191 
L 192.656291 260.707379 
L 193.3056 260.707379 
L 193.3056 260.198292 
L 193.954909 260.198292 
L 193.954909 259.686993 
L 194.604218 259.686993 
L 194.604218 259.173924 
L 195.253527 259.173924 
L 195.253527 258.652917 
L 195.902836 258.652917 
L 195.902836 258.119687 
L 196.552145 258.119687 
L 196.552145 257.585892 
L 197.201455 257.585892 
L 197.201455 257.052023 
L 197.850764 257.052023 
L 197.850764 256.518389 
L 198.500073 256.518389 
L 198.500073 255.986272 
L 199.149382 255.986272 
L 199.149382 255.46157 
L 199.798691 255.46157 
L 199.798691 254.938571 
L 200.448 254.938571 
L 200.448 254.416788 
L 201.097309 254.416788 
L 201.097309 253.896394 
L 201.746618 253.896394 
L 201.746618 253.226655 
L 202.395927 253.226655 
L 202.395927 252.304903 
L 203.045236 252.304903 
L 203.045236 251.39702 
L 203.694545 251.39702 
L 203.694545 250.507387 
L 204.343855 250.507387 
L 204.343855 249.635494 
L 204.993164 249.635494 
L 204.993164 249.048543 
L 205.642473 249.048543 
L 205.642473 248.934468 
L 206.941091 248.828049 
L 206.941091 248.718559 
L 207.5904 248.718559 
L 207.5904 248.60626 
L 208.239709 248.60626 
L 208.239709 248.35625 
L 208.889018 248.35625 
L 208.889018 247.871123 
L 209.538327 247.871123 
L 209.538327 247.386222 
L 210.187636 247.386222 
L 210.187636 246.906138 
L 210.836945 246.906138 
L 210.836945 246.431089 
L 211.486255 246.431089 
L 211.486255 245.928244 
L 212.135564 245.928244 
L 212.135564 245.373141 
L 212.784873 245.373141 
L 212.784873 244.826071 
L 213.434182 244.826071 
L 213.434182 244.28772 
L 214.083491 244.28772 
L 214.083491 243.757427 
L 214.7328 243.757427 
L 214.7328 243.262992 
L 215.382109 243.262992 
L 215.382109 242.842368 
L 216.031418 242.842368 
L 216.031418 242.430373 
L 216.680727 242.430373 
L 216.680727 242.024199 
L 217.330036 242.024199 
L 217.330036 241.623828 
L 217.979345 241.623828 
L 217.979345 241.248643 
L 218.628655 241.248643 
L 218.628655 240.912057 
L 219.277964 240.912057 
L 219.277964 240.579938 
L 219.927273 240.579938 
L 219.927273 240.254503 
L 220.576582 240.254503 
L 220.576582 239.934257 
L 221.225891 239.934257 
L 221.225891 239.58955 
L 221.8752 239.58955 
L 221.8752 239.196293 
L 222.524509 239.196293 
L 222.524509 238.808936 
L 223.173818 238.808936 
L 223.173818 238.428574 
L 223.823127 238.428574 
L 223.823127 238.055231 
L 224.472436 238.055231 
L 224.472436 237.623669 
L 225.121745 237.623669 
L 225.121745 237.087234 
L 225.771055 237.087234 
L 225.771055 236.559181 
L 226.420364 236.559181 
L 226.420364 236.043019 
L 227.069673 236.043019 
L 227.069673 235.53829 
L 227.718982 235.53829 
L 227.718982 235.153658 
L 228.368291 235.153658 
L 228.368291 234.967558 
L 229.0176 234.967558 
L 229.0176 234.789706 
L 229.666909 234.789706 
L 229.666909 234.616536 
L 230.316218 234.616536 
L 230.316218 234.447983 
L 230.965527 234.447983 
L 230.965527 234.136793 
L 231.614836 234.136793 
L 231.614836 233.578035 
L 232.264145 233.578035 
L 232.264145 233.027437 
L 232.913455 233.027437 
L 232.913455 232.488747 
L 233.562764 232.488747 
L 233.562764 231.962669 
L 234.212073 231.962669 
L 234.212073 231.456239 
L 234.861382 231.456239 
L 234.861382 230.974755 
L 235.510691 230.974755 
L 235.510691 230.503654 
L 236.16 230.503654 
L 236.16 230.042289 
L 236.809309 230.042289 
L 236.809309 229.590311 
L 237.458618 229.590311 
L 237.458618 228.954312 
L 238.107927 228.954312 
L 238.107927 228.003931 
L 238.757236 228.003931 
L 238.757236 227.076021 
L 239.406545 227.076021 
L 239.406545 226.17497 
L 240.055855 226.17497 
L 240.055855 225.300191 
L 240.705164 225.300191 
L 240.705164 224.896958 
L 241.354473 224.896958 
L 241.354473 225.287025 
L 242.003782 225.287025 
L 242.003782 225.698568 
L 242.653091 225.698568 
L 242.653091 226.117243 
L 243.3024 226.117243 
L 243.3024 226.543125 
L 243.951709 226.543125 
L 243.951709 226.975135 
L 244.601018 226.975135 
L 244.601018 227.353202 
L 245.250327 227.353202 
L 245.250327 227.698987 
L 245.899636 227.698987 
L 245.899636 228.049886 
L 246.548945 228.049886 
L 246.548945 228.405772 
L 247.198255 228.405772 
L 247.198255 228.651444 
L 251.094109 228.617587 
L 251.094109 228.426325 
L 251.743418 228.426325 
L 251.743418 228.233604 
L 252.392727 228.233604 
L 252.392727 228.041572 
L 253.042036 228.041572 
L 253.042036 227.850567 
L 253.691345 227.850567 
L 253.691345 227.68436 
L 254.340655 227.68436 
L 254.340655 227.560672 
L 254.989964 227.560672 
L 254.989964 227.435903 
L 255.639273 227.435903 
L 255.639273 227.311464 
L 256.288582 227.311464 
L 256.288582 227.185887 
L 256.937891 227.185887 
L 256.937891 227.043648 
L 257.5872 227.043648 
L 257.5872 226.873269 
L 258.236509 226.873269 
L 258.236509 226.70111 
L 258.885818 226.70111 
L 258.885818 226.527509 
L 259.535127 226.527509 
L 259.535127 226.352541 
L 260.184436 226.352541 
L 260.184436 226.180854 
L 260.833745 226.180854 
L 260.833745 226.01359 
L 261.483055 226.01359 
L 261.483055 225.844397 
L 262.132364 225.844397 
L 262.132364 225.67292 
L 262.781673 225.67292 
L 262.781673 225.497527 
L 263.430982 225.497527 
L 263.430982 225.306234 
L 264.080291 225.306234 
L 264.080291 225.086055 
L 264.7296 225.086055 
L 264.7296 224.863479 
L 265.378909 224.863479 
L 265.378909 224.638958 
L 266.028218 224.638958 
L 266.028218 224.41247 
L 266.677527 224.41247 
L 266.677527 224.211405 
L 267.326836 224.211405 
L 267.326836 224.053765 
L 267.976145 224.053765 
L 267.976145 223.893767 
L 268.625455 223.893767 
L 268.625455 223.731064 
L 269.274764 223.731064 
L 269.274764 223.565696 
L 269.924073 223.565696 
L 269.924073 223.36748 
L 270.573382 223.36748 
L 270.573382 223.112248 
L 271.222691 223.112248 
L 271.222691 222.856645 
L 271.872 222.856645 
L 271.872 222.599795 
L 272.521309 222.599795 
L 272.521309 222.34176 
L 273.170618 222.34176 
L 273.170618 222.113323 
L 273.819927 222.113323 
L 273.819927 221.937562 
L 274.469236 221.937562 
L 274.469236 221.759884 
L 275.118545 221.759884 
L 275.118545 221.580566 
L 275.767855 221.580566 
L 275.767855 221.399769 
L 276.417164 221.399769 
L 276.417164 221.200381 
L 277.066473 221.200381 
L 277.066473 220.969981 
L 277.715782 220.969981 
L 277.715782 220.738695 
L 278.365091 220.738695 
L 278.365091 220.505441 
L 279.0144 220.505441 
L 279.0144 220.273929 
L 279.663709 220.273929 
L 279.663709 220.045878 
L 280.313018 220.045878 
L 280.313018 219.827586 
L 280.962327 219.827586 
L 280.962327 219.610155 
L 281.611636 219.610155 
L 281.611636 219.393199 
L 282.260945 219.393199 
L 282.260945 219.177384 
L 282.910255 219.177384 
L 282.910255 218.963987 
L 283.559564 218.963987 
L 283.559564 218.754005 
L 284.208873 218.754005 
L 284.208873 218.545925 
L 284.858182 218.545925 
L 284.858182 218.339971 
L 285.507491 218.339971 
L 285.507491 218.136407 
L 286.1568 218.136407 
L 286.1568 217.922079 
L 286.806109 217.922079 
L 286.806109 217.691345 
L 287.455418 217.691345 
L 287.455418 217.46487 
L 288.104727 217.46487 
L 288.104727 217.241389 
L 288.754036 217.241389 
L 288.754036 217.021986 
L 289.403345 217.021986 
L 289.403345 216.812033 
L 290.052655 216.812033 
L 290.052655 216.622821 
L 290.701964 216.622821 
L 290.701964 216.439383 
L 291.351273 216.439383 
L 291.351273 216.260756 
L 292.000582 216.260756 
L 292.000582 216.087193 
L 292.649891 216.087193 
L 292.649891 215.919646 
L 293.2992 215.919646 
L 293.2992 215.764983 
L 293.948509 215.764983 
L 293.948509 215.617441 
L 294.597818 215.617441 
L 294.597818 215.476252 
L 295.247127 215.476252 
L 295.247127 215.341353 
L 295.896436 215.341353 
L 295.896436 215.213424 
L 296.545745 215.213424 
L 296.545745 215.093118 
L 297.195055 215.093118 
L 297.195055 214.979658 
L 298.493673 214.873231 
L 298.493673 214.77405 
L 299.792291 214.668085 
L 299.792291 214.541448 
L 300.4416 214.541448 
L 300.4416 214.422139 
L 301.740218 214.311485 
L 301.740218 214.208257 
L 303.038836 214.109985 
L 303.038836 214.006567 
L 304.337455 213.910943 
L 304.337455 213.824387 
L 305.636073 213.746987 
L 305.636073 213.581753 
L 306.285382 213.581753 
L 306.285382 213.233009 
L 306.934691 213.233009 
L 306.934691 212.891447 
L 307.584 212.891447 
L 307.584 212.562629 
L 308.233309 212.562629 
L 308.233309 212.246004 
L 308.882618 212.246004 
L 308.882618 211.844735 
L 309.531927 211.844735 
L 309.531927 211.29129 
L 310.181236 211.29129 
L 310.181236 210.752758 
L 310.830545 210.752758 
L 310.830545 210.231525 
L 311.479855 210.231525 
L 311.479855 209.726937 
L 312.778473 209.781065 
L 312.778473 210.811928 
L 313.427782 210.811928 
L 313.427782 211.902154 
L 314.077091 211.902154 
L 314.077091 213.03756 
L 314.7264 213.03756 
L 314.7264 214.221685 
L 315.375709 214.221685 
L 315.375709 215.076138 
L 316.025018 215.076138 
L 316.025018 215.280351 
L 316.674327 215.280351 
L 316.674327 215.483095 
L 317.323636 215.483095 
L 317.323636 215.697605 
L 317.972945 215.697605 
L 317.972945 215.923859 
L 318.622255 215.923859 
L 318.622255 216.147083 
L 319.271564 216.147083 
L 319.271564 216.356121 
L 319.920873 216.356121 
L 319.920873 216.575918 
L 320.570182 216.575918 
L 320.570182 216.807018 
L 321.219491 216.807018 
L 321.219491 217.049576 
L 321.8688 217.049576 
L 321.8688 217.296489 
L 322.518109 217.296489 
L 322.518109 217.542342 
L 323.167418 217.542342 
L 323.167418 217.799107 
L 323.816727 217.799107 
L 323.816727 218.066999 
L 324.466036 218.066999 
L 324.466036 218.34601 
L 325.115345 218.34601 
L 325.115345 218.6485 
L 325.764655 218.6485 
L 325.764655 218.983759 
L 326.413964 218.983759 
L 326.413964 219.330253 
L 327.063273 219.330253 
L 327.063273 219.688488 
L 327.712582 219.688488 
L 327.712582 220.058444 
L 328.361891 220.058444 
L 328.361891 220.435097 
L 329.0112 220.435097 
L 329.0112 220.813714 
L 329.660509 220.813714 
L 329.660509 221.203531 
L 330.309818 221.203531 
L 330.309818 221.604727 
L 330.959127 221.604727 
L 330.959127 222.017288 
L 331.608436 222.017288 
L 331.608436 222.440937 
L 332.257745 222.440937 
L 332.257745 222.875296 
L 332.907055 222.875296 
L 332.907055 223.321394 
L 333.556364 223.321394 
L 333.556364 223.779721 
L 334.205673 223.779721 
L 334.205673 224.24768 
L 334.854982 224.24768 
L 334.854982 224.726413 
L 335.504291 224.726413 
L 335.504291 225.215485 
L 336.1536 225.215485 
L 336.1536 225.715423 
L 336.802909 225.715423 
L 336.802909 226.226204 
L 337.452218 226.226204 
L 337.452218 226.747752 
L 338.101527 226.747752 
L 338.101527 227.279904 
L 338.750836 227.279904 
L 338.750836 227.822523 
L 339.400145 227.822523 
L 339.400145 228.375632 
L 340.049455 228.375632 
L 340.049455 228.939136 
L 340.698764 228.939136 
L 340.698764 229.513403 
L 341.348073 229.513403 
L 341.348073 230.100046 
L 341.997382 230.100046 
L 341.997382 230.695229 
L 342.646691 230.695229 
L 342.646691 231.300322 
L 343.296 231.300322 
L 343.296 231.915256 
L 343.945309 231.915256 
L 343.945309 232.539903 
L 344.594618 232.539903 
L 344.594618 233.173903 
L 345.243927 233.173903 
L 345.243927 233.816922 
L 345.893236 233.816922 
L 345.893236 234.469184 
L 346.542545 234.469184 
L 346.542545 235.130537 
L 347.191855 235.130537 
L 347.191855 235.800806 
L 347.841164 235.800806 
L 347.841164 236.479801 
L 348.490473 236.479801 
L 348.490473 237.167622 
L 349.139782 237.167622 
L 349.139782 237.866565 
L 349.789091 237.866565 
L 349.789091 238.570642 
L 350.4384 238.570642 
L 350.4384 239.28263 
L 351.087709 239.28263 
L 351.087709 240.002322 
L 351.737018 240.002322 
L 351.737018 240.729474 
L 352.386327 240.729474 
L 352.386327 241.463884 
L 353.035636 241.463884 
L 353.035636 242.2053 
L 353.684945 242.2053 
L 353.684945 242.953473 
L 354.334255 242.953473 
L 354.334255 243.708112 
L 354.983564 243.708112 
L 354.983564 244.468933 
L 355.632873 244.468933 
L 355.632873 245.235693 
L 356.282182 245.235693 
L 356.282182 246.00806 
L 356.931491 246.00806 
L 356.931491 246.789442 
L 357.5808 246.789442 
L 357.5808 247.572039 
L 358.230109 247.572039 
L 358.230109 248.35908 
L 358.879418 248.35908 
L 358.879418 249.150459 
L 359.528727 249.150459 
L 359.528727 249.945825 
L 360.178036 249.945825 
L 360.178036 250.744828 
L 360.827345 250.744828 
L 360.827345 251.547179 
L 361.476655 251.547179 
L 361.476655 252.35256 
L 362.125964 252.35256 
L 362.125964 253.160502 
L 362.775273 253.160502 
L 362.775273 253.970579 
L 363.424582 253.970579 
L 363.424582 254.782365 
L 364.073891 254.782365 
L 364.073891 255.595746 
L 364.7232 255.595746 
L 364.7232 256.414058 
L 365.372509 256.414058 
L 365.372509 257.22966 
L 366.021818 257.22966 
L 366.021818 258.044902 
L 366.671127 258.044902 
L 366.671127 258.859732 
L 367.320436 258.859732 
L 367.320436 259.67344 
L 367.969745 259.67344 
L 367.969745 260.485455 
L 368.619055 260.485455 
L 368.619055 261.295653 
L 369.268364 261.295653 
L 369.268364 262.103549 
L 369.917673 262.103549 
L 369.917673 262.908645 
L 370.566982 262.908645 
L 370.566982 263.710606 
L 371.216291 263.710606 
L 371.216291 264.50907 
L 371.8656 264.50907 
L 371.8656 265.303294 
L 372.514909 265.303294 
L 372.514909 266.095837 
L 373.164218 266.095837 
L 373.164218 266.880691 
L 373.813527 266.880691 
L 373.813527 267.658543 
L 374.462836 267.658543 
L 374.462836 268.429154 
L 375.112145 268.429154 
L 375.112145 269.192979 
L 375.761455 269.192979 
L 375.761455 269.949554 
L 376.410764 269.949554 
L 376.410764 270.698405 
L 377.060073 270.698405 
L 377.060073 271.439742 
L 377.709382 271.439742 
L 377.709382 272.173656 
L 378.358691 272.173656 
L 378.358691 272.898555 
L 379.008 272.898555 
L 379.008 273.613982 
L 379.657309 273.613982 
L 379.657309 274.31951 
L 380.306618 274.31951 
L 380.306618 275.016988 
L 380.955927 275.016988 
L 380.955927 275.70188 
L 381.605236 275.70188 
L 381.605236 276.374718 
L 382.254545 276.374718 
L 382.254545 277.036066 
L 382.903855 277.036066 
L 382.903855 277.685584 
L 383.553164 277.685584 
L 383.553164 278.322731 
L 384.202473 278.322731 
L 384.202473 278.947034 
L 384.851782 278.947034 
L 384.851782 279.558573 
L 385.501091 279.558573 
L 385.501091 280.157084 
L 386.1504 280.157084 
L 386.1504 280.742334 
L 386.799709 280.742334 
L 386.799709 281.314173 
L 387.449018 281.314173 
L 387.449018 281.872481 
L 388.098327 281.872481 
L 388.098327 282.418576 
L 388.747636 282.418576 
L 388.747636 282.949912 
L 389.396945 282.949912 
L 389.396945 283.466235 
L 390.046255 283.466235 
L 390.046255 283.968342 
L 390.695564 283.968342 
L 390.695564 284.456082 
L 391.344873 284.456082 
L 391.344873 284.929602 
L 391.994182 284.929602 
L 391.994182 285.388902 
L 392.643491 285.388902 
L 392.643491 285.834005 
L 393.2928 285.834005 
L 393.2928 286.265099 
L 393.942109 286.265099 
L 393.942109 286.682356 
L 394.591418 286.682356 
L 394.591418 287.085641 
L 395.240727 287.085641 
L 395.240727 287.475074 
L 395.890036 287.475074 
L 395.890036 287.851726 
L 396.539345 287.851726 
L 396.539345 288.214329 
L 397.188655 288.214329 
L 397.188655 288.562327 
L 397.837964 288.562327 
L 397.837964 288.897126 
L 398.487273 288.897126 
L 398.487273 288.897126 
" clip-path="url(#p622126bf90)" style="fill: none; stroke: #ff7f0e; stroke-width: 1.5; stroke-linecap: square"/>
   </g>
   <g id="line2d_38">
    <path d="M 73.832727 346.6 
L 73.832727 292.273138 
L 75.131345 292.193138 
L 75.131345 292.111188 
L 76.429964 292.027336 
L 76.429964 291.941081 
L 77.728582 291.853169 
L 77.728582 291.763253 
L 79.0272 291.671277 
L 79.0272 291.577252 
L 80.325818 291.481259 
L 80.325818 291.383145 
L 81.624436 291.283263 
L 81.624436 291.181388 
L 82.923055 291.077515 
L 82.923055 290.972124 
L 84.221673 290.864904 
L 84.221673 290.755925 
L 85.520291 290.645203 
L 85.520291 290.532694 
L 86.1696 290.532694 
L 86.1696 290.418454 
L 86.818909 290.418454 
L 86.818909 290.302751 
L 87.468218 290.302751 
L 87.468218 290.185191 
L 88.117527 290.185191 
L 88.117527 290.06624 
L 88.766836 290.06624 
L 88.766836 289.946072 
L 89.416145 289.946072 
L 89.416145 289.824481 
L 90.065455 289.824481 
L 90.065455 289.701626 
L 90.714764 289.701626 
L 90.714764 289.577525 
L 91.364073 289.577525 
L 91.364073 289.451319 
L 92.013382 289.451319 
L 92.013382 289.32269 
L 92.662691 289.32269 
L 92.662691 289.193085 
L 93.312 289.193085 
L 93.312 289.062009 
L 93.961309 289.062009 
L 93.961309 288.930523 
L 94.610618 288.930523 
L 94.610618 288.799808 
L 95.259927 288.799808 
L 95.259927 288.671004 
L 95.909236 288.671004 
L 95.909236 288.541621 
L 96.558545 288.541621 
L 96.558545 288.411649 
L 97.207855 288.411649 
L 97.207855 288.280951 
L 97.857164 288.280951 
L 97.857164 288.149266 
L 98.506473 288.149266 
L 98.506473 288.01581 
L 99.155782 288.01581 
L 99.155782 287.881744 
L 99.805091 287.881744 
L 99.805091 287.747995 
L 100.4544 287.747995 
L 100.4544 287.614154 
L 101.103709 287.614154 
L 101.103709 287.480198 
L 101.753018 287.480198 
L 101.753018 287.34614 
L 102.402327 287.34614 
L 102.402327 287.212229 
L 103.051636 287.212229 
L 103.051636 287.07851 
L 103.700945 287.07851 
L 103.700945 286.945304 
L 104.350255 286.945304 
L 104.350255 286.812228 
L 104.999564 286.812228 
L 104.999564 286.679577 
L 105.648873 286.679577 
L 105.648873 286.547815 
L 106.298182 286.547815 
L 106.298182 286.416737 
L 106.947491 286.416737 
L 106.947491 286.286482 
L 107.5968 286.286482 
L 107.5968 286.155226 
L 108.246109 286.155226 
L 108.246109 286.021606 
L 108.895418 286.021606 
L 108.895418 285.889048 
L 109.544727 285.889048 
L 109.544727 285.757712 
L 110.194036 285.757712 
L 110.194036 285.627149 
L 110.843345 285.627149 
L 110.843345 285.502557 
L 111.492655 285.502557 
L 111.492655 285.386939 
L 112.141964 285.386939 
L 112.141964 285.27279 
L 112.791273 285.27279 
L 112.791273 285.160087 
L 113.440582 285.160087 
L 113.440582 285.048816 
L 114.089891 285.048816 
L 114.089891 284.932598 
L 114.7392 284.932598 
L 114.7392 284.807051 
L 115.388509 284.807051 
L 115.388509 284.683007 
L 116.037818 284.683007 
L 116.037818 284.560483 
L 116.687127 284.560483 
L 116.687127 284.440119 
L 117.336436 284.440119 
L 117.336436 284.328427 
L 118.635055 284.230434 
L 118.635055 284.134532 
L 119.933673 284.040443 
L 119.933673 283.948185 
L 120.582982 283.948185 
L 120.582982 283.778887 
L 121.232291 283.778887 
L 121.232291 283.47235 
L 121.8816 283.47235 
L 121.8816 283.167477 
L 122.530909 283.167477 
L 122.530909 282.867065 
L 123.180218 282.867065 
L 123.180218 282.570928 
L 123.829527 282.570928 
L 123.829527 282.427374 
L 124.478836 282.427374 
L 124.478836 282.548779 
L 125.128145 282.548779 
L 125.128145 282.677359 
L 125.777455 282.677359 
L 125.777455 282.808091 
L 126.426764 282.808091 
L 126.426764 282.941137 
L 129.024 282.848988 
L 129.024 282.775016 
L 130.322618 282.702847 
L 130.322618 282.632794 
L 131.621236 282.565632 
L 131.621236 282.500021 
L 132.919855 282.435859 
L 132.919855 282.373125 
L 134.218473 282.311308 
L 134.218473 282.250009 
L 135.517091 282.189748 
L 135.517091 282.130394 
L 136.815709 282.071979 
L 136.815709 282.014739 
L 138.114327 281.958856 
L 138.114327 281.903568 
L 140.062255 281.793975 
L 140.062255 281.739052 
L 141.360873 281.68361 
L 141.360873 281.627752 
L 142.659491 281.571495 
L 142.659491 281.514603 
L 143.958109 281.445893 
L 143.958109 281.357105 
L 145.256727 281.266983 
L 145.256727 281.175572 
L 146.555345 281.082662 
L 146.555345 281.009055 
L 148.503273 280.930333 
L 148.503273 280.887515 
L 150.4512 280.782868 
L 150.4512 280.701726 
L 151.749818 280.616581 
L 151.749818 280.528111 
L 153.048436 280.435681 
L 153.048436 280.332112 
L 153.697745 280.332112 
L 153.697745 280.211876 
L 154.347055 280.211876 
L 154.347055 280.086638 
L 154.996364 280.086638 
L 154.996364 279.956902 
L 155.645673 279.956902 
L 155.645673 279.822238 
L 156.294982 279.822238 
L 156.294982 279.69459 
L 157.5936 279.58364 
L 157.5936 279.466477 
L 158.242909 279.466477 
L 158.242909 279.343485 
L 158.892218 279.343485 
L 158.892218 279.214326 
L 159.541527 279.214326 
L 159.541527 279.066688 
L 160.190836 279.066688 
L 160.190836 278.89085 
L 160.840145 278.89085 
L 160.840145 278.708034 
L 161.489455 278.708034 
L 161.489455 278.518181 
L 162.138764 278.518181 
L 162.138764 278.320809 
L 162.788073 278.320809 
L 162.788073 278.128239 
L 163.437382 278.128239 
L 163.437382 277.949101 
L 164.086691 277.949101 
L 164.086691 277.76192 
L 164.736 277.76192 
L 164.736 277.565934 
L 165.385309 277.565934 
L 165.385309 277.362262 
L 166.034618 277.362262 
L 166.034618 277.124394 
L 166.683927 277.124394 
L 166.683927 276.833845 
L 167.333236 276.833845 
L 167.333236 276.534443 
L 167.982545 276.534443 
L 167.982545 276.227176 
L 168.631855 276.227176 
L 168.631855 275.911906 
L 169.281164 275.911906 
L 169.281164 275.625811 
L 169.930473 275.625811 
L 169.930473 275.395528 
L 170.579782 275.395528 
L 170.579782 275.1568 
L 171.229091 275.1568 
L 171.229091 274.906837 
L 171.8784 274.906837 
L 171.8784 274.647993 
L 172.527709 274.647993 
L 172.527709 274.354962 
L 173.177018 274.354962 
L 173.177018 274.007851 
L 173.826327 274.007851 
L 173.826327 273.651435 
L 174.475636 273.651435 
L 174.475636 273.286502 
L 175.124945 273.286502 
L 175.124945 272.913139 
L 175.774255 272.913139 
L 175.774255 272.486238 
L 176.423564 272.486238 
L 176.423564 271.973346 
L 177.072873 271.973346 
L 177.072873 271.454105 
L 177.722182 271.454105 
L 177.722182 270.929794 
L 178.371491 270.929794 
L 178.371491 270.399712 
L 179.0208 270.399712 
L 179.0208 269.964667 
L 179.670109 269.964667 
L 179.670109 269.693572 
L 180.319418 269.693572 
L 180.319418 269.415387 
L 180.968727 269.415387 
L 180.968727 269.126924 
L 181.618036 269.126924 
L 181.618036 268.828491 
L 182.267345 268.828491 
L 182.267345 268.469721 
L 182.916655 268.469721 
L 182.916655 268.014799 
L 183.565964 268.014799 
L 183.565964 267.552042 
L 184.215273 267.552042 
L 184.215273 267.082927 
L 184.864582 267.082927 
L 184.864582 266.605902 
L 185.513891 266.605902 
L 185.513891 266.13759 
L 186.1632 266.13759 
L 186.1632 265.687116 
L 186.812509 265.687116 
L 186.812509 265.231089 
L 187.461818 265.231089 
L 187.461818 264.769307 
L 188.111127 264.769307 
L 188.111127 264.302099 
L 188.760436 264.302099 
L 188.760436 263.815659 
L 189.409745 263.815659 
L 189.409745 263.300915 
L 190.059055 263.300915 
L 190.059055 262.782236 
L 190.708364 262.782236 
L 190.708364 262.260479 
L 191.357673 262.260479 
L 191.357673 261.735252 
L 192.006982 261.735252 
L 192.006982 261.214191 
L 192.656291 261.214191 
L 192.656291 260.707379 
L 193.3056 260.707379 
L 193.3056 260.198292 
L 193.954909 260.198292 
L 193.954909 259.686993 
L 194.604218 259.686993 
L 194.604218 259.173924 
L 195.253527 259.173924 
L 195.253527 258.652917 
L 195.902836 258.652917 
L 195.902836 258.119687 
L 196.552145 258.119687 
L 196.552145 257.585892 
L 197.201455 257.585892 
L 197.201455 257.052023 
L 197.850764 257.052023 
L 197.850764 256.518389 
L 198.500073 256.518389 
L 198.500073 255.986272 
L 199.149382 255.986272 
L 199.149382 255.46157 
L 199.798691 255.46157 
L 199.798691 254.938571 
L 200.448 254.938571 
L 200.448 254.416788 
L 201.097309 254.416788 
L 201.097309 253.896394 
L 201.746618 253.896394 
L 201.746618 253.226655 
L 202.395927 253.226655 
L 202.395927 252.304903 
L 203.045236 252.304903 
L 203.045236 251.39702 
L 203.694545 251.39702 
L 203.694545 250.507387 
L 204.343855 250.507387 
L 204.343855 249.635494 
L 204.993164 249.635494 
L 204.993164 249.048543 
L 205.642473 249.048543 
L 205.642473 248.934468 
L 206.941091 248.828049 
L 206.941091 248.718559 
L 207.5904 248.718559 
L 207.5904 248.60626 
L 208.239709 248.60626 
L 208.239709 248.35625 
L 208.889018 248.35625 
L 208.889018 247.871123 
L 209.538327 247.871123 
L 209.538327 247.386222 
L 210.187636 247.386222 
L 210.187636 246.906138 
L 210.836945 246.906138 
L 210.836945 246.431089 
L 211.486255 246.431089 
L 211.486255 245.928244 
L 212.135564 245.928244 
L 212.135564 245.373141 
L 212.784873 245.373141 
L 212.784873 244.826071 
L 213.434182 244.826071 
L 213.434182 244.28772 
L 214.083491 244.28772 
L 214.083491 243.757427 
L 214.7328 243.757427 
L 214.7328 243.262992 
L 215.382109 243.262992 
L 215.382109 242.842368 
L 216.031418 242.842368 
L 216.031418 242.430373 
L 216.680727 242.430373 
L 216.680727 242.024199 
L 217.330036 242.024199 
L 217.330036 241.623828 
L 217.979345 241.623828 
L 217.979345 241.248643 
L 218.628655 241.248643 
L 218.628655 240.912057 
L 219.277964 240.912057 
L 219.277964 240.579938 
L 219.927273 240.579938 
L 219.927273 240.254503 
L 220.576582 240.254503 
L 220.576582 239.934257 
L 221.225891 239.934257 
L 221.225891 239.58955 
L 221.8752 239.58955 
L 221.8752 239.196293 
L 222.524509 239.196293 
L 222.524509 238.808936 
L 223.173818 238.808936 
L 223.173818 238.428574 
L 223.823127 238.428574 
L 223.823127 238.055231 
L 224.472436 238.055231 
L 224.472436 237.623669 
L 225.121745 237.623669 
L 225.121745 237.087234 
L 225.771055 237.087234 
L 225.771055 236.559181 
L 226.420364 236.559181 
L 226.420364 236.043019 
L 227.069673 236.043019 
L 227.069673 235.53829 
L 227.718982 235.53829 
L 227.718982 235.153658 
L 228.368291 235.153658 
L 228.368291 234.967558 
L 229.0176 234.967558 
L 229.0176 234.789706 
L 229.666909 234.789706 
L 229.666909 234.616536 
L 230.316218 234.616536 
L 230.316218 234.447983 
L 230.965527 234.447983 
L 230.965527 234.136793 
L 231.614836 234.136793 
L 231.614836 233.578035 
L 232.264145 233.578035 
L 232.264145 233.027437 
L 232.913455 233.027437 
L 232.913455 232.488747 
L 233.562764 232.488747 
L 233.562764 231.962669 
L 234.212073 231.962669 
L 234.212073 231.456239 
L 234.861382 231.456239 
L 234.861382 230.974755 
L 235.510691 230.974755 
L 235.510691 230.503654 
L 236.16 230.503654 
L 236.16 230.042289 
L 236.809309 230.042289 
L 236.809309 229.590311 
L 237.458618 229.590311 
L 237.458618 228.954312 
L 238.107927 228.954312 
L 238.107927 228.003931 
L 238.757236 228.003931 
L 238.757236 227.076021 
L 239.406545 227.076021 
L 239.406545 226.17497 
L 240.055855 226.17497 
L 240.055855 225.300191 
L 240.705164 225.300191 
L 240.705164 224.896958 
L 241.354473 224.896958 
L 241.354473 225.287025 
L 242.003782 225.287025 
L 242.003782 225.698568 
L 242.653091 225.698568 
L 242.653091 226.117243 
L 243.3024 226.117243 
L 243.3024 226.543125 
L 243.951709 226.543125 
L 243.951709 226.975135 
L 244.601018 226.975135 
L 244.601018 227.353202 
L 245.250327 227.353202 
L 245.250327 227.698987 
L 245.899636 227.698987 
L 245.899636 228.049886 
L 246.548945 228.049886 
L 246.548945 228.405772 
L 247.198255 228.405772 
L 247.198255 228.651444 
L 251.094109 228.617587 
L 251.094109 228.426325 
L 251.743418 228.426325 
L 251.743418 228.233604 
L 252.392727 228.233604 
L 252.392727 228.041572 
L 253.042036 228.041572 
L 253.042036 227.850567 
L 253.691345 227.850567 
L 253.691345 227.68436 
L 254.340655 227.68436 
L 254.340655 227.560672 
L 254.989964 227.560672 
L 254.989964 227.435903 
L 255.639273 227.435903 
L 255.639273 227.311464 
L 256.288582 227.311464 
L 256.288582 227.185887 
L 256.937891 227.185887 
L 256.937891 227.043648 
L 257.5872 227.043648 
L 257.5872 226.873269 
L 258.236509 226.873269 
L 258.236509 226.70111 
L 258.885818 226.70111 
L 258.885818 226.527509 
L 259.535127 226.527509 
L 259.535127 226.352541 
L 260.184436 226.352541 
L 260.184436 226.180854 
L 260.833745 226.180854 
L 260.833745 226.01359 
L 261.483055 226.01359 
L 261.483055 225.844397 
L 262.132364 225.844397 
L 262.132364 225.67292 
L 262.781673 225.67292 
L 262.781673 225.497527 
L 263.430982 225.497527 
L 263.430982 225.306234 
L 264.080291 225.306234 
L 264.080291 225.086055 
L 264.7296 225.086055 
L 264.7296 224.863479 
L 265.378909 224.863479 
L 265.378909 224.638958 
L 266.028218 224.638958 
L 266.028218 224.41247 
L 266.677527 224.41247 
L 266.677527 224.211405 
L 267.326836 224.211405 
L 267.326836 224.053765 
L 267.976145 224.053765 
L 267.976145 223.893767 
L 268.625455 223.893767 
L 268.625455 223.731064 
L 269.274764 223.731064 
L 269.274764 223.565696 
L 269.924073 223.565696 
L 269.924073 223.36748 
L 270.573382 223.36748 
L 270.573382 223.112248 
L 271.222691 223.112248 
L 271.222691 222.856645 
L 271.872 222.856645 
L 271.872 222.599795 
L 272.521309 222.599795 
L 272.521309 222.34176 
L 273.170618 222.34176 
L 273.170618 222.113323 
L 273.819927 222.113323 
L 273.819927 221.937562 
L 274.469236 221.937562 
L 274.469236 221.759884 
L 275.118545 221.759884 
L 275.118545 221.580566 
L 275.767855 221.580566 
L 275.767855 221.399769 
L 276.417164 221.399769 
L 276.417164 221.200381 
L 277.066473 221.200381 
L 277.066473 220.969981 
L 277.715782 220.969981 
L 277.715782 220.738695 
L 278.365091 220.738695 
L 278.365091 220.505441 
L 279.0144 220.505441 
L 279.0144 220.273929 
L 279.663709 220.273929 
L 279.663709 220.045878 
L 280.313018 220.045878 
L 280.313018 219.827586 
L 280.962327 219.827586 
L 280.962327 219.610155 
L 281.611636 219.610155 
L 281.611636 219.393199 
L 282.260945 219.393199 
L 282.260945 219.177384 
L 282.910255 219.177384 
L 282.910255 218.963987 
L 283.559564 218.963987 
L 283.559564 218.754005 
L 284.208873 218.754005 
L 284.208873 218.545925 
L 284.858182 218.545925 
L 284.858182 218.339971 
L 285.507491 218.339971 
L 285.507491 218.136407 
L 286.1568 218.136407 
L 286.1568 217.922079 
L 286.806109 217.922079 
L 286.806109 217.691345 
L 287.455418 217.691345 
L 287.455418 217.46487 
L 288.104727 217.46487 
L 288.104727 217.241389 
L 288.754036 217.241389 
L 288.754036 217.021986 
L 289.403345 217.021986 
L 289.403345 216.812033 
L 290.052655 216.812033 
L 290.052655 216.622821 
L 290.701964 216.622821 
L 290.701964 216.439383 
L 291.351273 216.439383 
L 291.351273 216.260756 
L 292.000582 216.260756 
L 292.000582 216.087193 
L 292.649891 216.087193 
L 292.649891 215.919646 
L 293.2992 215.919646 
L 293.2992 215.764983 
L 293.948509 215.764983 
L 293.948509 215.617441 
L 294.597818 215.617441 
L 294.597818 215.476252 
L 295.247127 215.476252 
L 295.247127 215.341353 
L 295.896436 215.341353 
L 295.896436 215.213424 
L 296.545745 215.213424 
L 296.545745 215.093118 
L 297.195055 215.093118 
L 297.195055 214.979658 
L 298.493673 214.873231 
L 298.493673 214.77405 
L 299.792291 214.668085 
L 299.792291 214.541448 
L 300.4416 214.541448 
L 300.4416 214.422139 
L 301.740218 214.311485 
L 301.740218 214.208257 
L 303.038836 214.109985 
L 303.038836 214.006567 
L 304.337455 213.910943 
L 304.337455 213.824387 
L 305.636073 213.746987 
L 305.636073 213.581753 
L 306.285382 213.581753 
L 306.285382 213.233009 
L 306.934691 213.233009 
L 306.934691 212.891447 
L 307.584 212.891447 
L 307.584 212.562629 
L 308.233309 212.562629 
L 308.233309 212.246004 
L 308.882618 212.246004 
L 308.882618 211.844735 
L 309.531927 211.844735 
L 309.531927 211.29129 
L 310.181236 211.29129 
L 310.181236 210.752758 
L 310.830545 210.752758 
L 310.830545 210.231525 
L 311.479855 210.231525 
L 311.479855 209.726937 
L 312.778473 209.781065 
L 312.778473 210.811928 
L 313.427782 210.811928 
L 313.427782 211.902154 
L 314.077091 211.902154 
L 314.077091 213.03756 
L 314.7264 213.03756 
L 314.7264 214.221685 
L 315.375709 214.221685 
L 315.375709 215.076138 
L 316.025018 215.076138 
L 316.025018 215.280351 
L 316.674327 215.280351 
L 316.674327 215.483095 
L 317.323636 215.483095 
L 317.323636 215.697605 
L 317.972945 215.697605 
L 317.972945 215.923859 
L 318.622255 215.923859 
L 318.622255 216.147083 
L 319.271564 216.147083 
L 319.271564 216.356121 
L 319.920873 216.356121 
L 319.920873 216.575918 
L 320.570182 216.575918 
L 320.570182 216.807018 
L 321.219491 216.807018 
L 321.219491 217.049576 
L 321.8688 217.049576 
L 321.8688 217.296489 
L 322.518109 217.296489 
L 322.518109 217.542342 
L 323.167418 217.542342 
L 323.167418 217.799107 
L 323.816727 217.799107 
L 323.816727 218.066999 
L 324.466036 218.066999 
L 324.466036 218.34601 
L 325.115345 218.34601 
L 325.115345 218.6485 
L 325.764655 218.6485 
L 325.764655 218.983759 
L 326.413964 218.983759 
L 326.413964 219.330253 
L 327.063273 219.330253 
L 327.063273 219.688488 
L 327.712582 219.688488 
L 327.712582 220.058444 
L 328.361891 220.058444 
L 328.361891 220.435097 
L 329.0112 220.435097 
L 329.0112 220.813714 
L 329.660509 220.813714 
L 329.660509 221.203531 
L 330.309818 221.203531 
L 330.309818 221.604727 
L 330.959127 221.604727 
L 330.959127 222.017288 
L 331.608436 222.017288 
L 331.608436 222.440937 
L 332.257745 222.440937 
L 332.257745 222.875296 
L 332.907055 222.875296 
L 332.907055 223.321394 
L 333.556364 223.321394 
L 333.556364 223.779721 
L 334.205673 223.779721 
L 334.205673 224.24768 
L 334.854982 224.24768 
L 334.854982 224.726413 
L 335.504291 224.726413 
L 335.504291 225.215485 
L 336.1536 225.215485 
L 336.1536 225.715423 
L 336.802909 225.715423 
L 336.802909 226.226204 
L 337.452218 226.226204 
L 337.452218 226.747752 
L 338.101527 226.747752 
L 338.101527 227.279904 
L 338.750836 227.279904 
L 338.750836 227.822523 
L 339.400145 227.822523 
L 339.400145 228.375632 
L 340.049455 228.375632 
L 340.049455 228.939136 
L 340.698764 228.939136 
L 340.698764 229.513403 
L 341.348073 229.513403 
L 341.348073 230.100046 
L 341.997382 230.100046 
L 341.997382 230.695229 
L 342.646691 230.695229 
L 342.646691 231.300322 
L 343.296 231.300322 
L 343.296 231.915256 
L 343.945309 231.915256 
L 343.945309 232.539903 
L 344.594618 232.539903 
L 344.594618 233.173903 
L 345.243927 233.173903 
L 345.243927 233.816922 
L 345.893236 233.816922 
L 345.893236 234.469184 
L 346.542545 234.469184 
L 346.542545 235.130537 
L 347.191855 235.130537 
L 347.191855 235.800806 
L 347.841164 235.800806 
L 347.841164 236.479801 
L 348.490473 236.479801 
L 348.490473 237.167622 
L 349.139782 237.167622 
L 349.139782 237.866565 
L 349.789091 237.866565 
L 349.789091 238.570642 
L 350.4384 238.570642 
L 350.4384 239.28263 
L 351.087709 239.28263 
L 351.087709 240.002322 
L 351.737018 240.002322 
L 351.737018 240.729474 
L 352.386327 240.729474 
L 352.386327 241.463884 
L 353.035636 241.463884 
L 353.035636 242.2053 
L 353.684945 242.2053 
L 353.684945 242.953473 
L 354.334255 242.953473 
L 354.334255 243.708112 
L 354.983564 243.708112 
L 354.983564 244.468933 
L 355.632873 244.468933 
L 355.632873 245.235693 
L 356.282182 245.235693 
L 356.282182 246.00806 
L 356.931491 246.00806 
L 356.931491 246.789442 
L 357.5808 246.789442 
L 357.5808 247.572039 
L 358.230109 247.572039 
L 358.230109 248.35908 
L 358.879418 248.35908 
L 358.879418 249.150459 
L 359.528727 249.150459 
L 359.528727 249.945825 
L 360.178036 249.945825 
L 360.178036 250.744828 
L 360.827345 250.744828 
L 360.827345 251.547179 
L 361.476655 251.547179 
L 361.476655 252.35256 
L 362.125964 252.35256 
L 362.125964 253.160502 
L 362.775273 253.160502 
L 362.775273 253.970579 
L 363.424582 253.970579 
L 363.424582 254.782365 
L 364.073891 254.782365 
L 364.073891 255.595746 
L 364.7232 255.595746 
L 364.7232 256.414058 
L 365.372509 256.414058 
L 365.372509 257.22966 
L 366.021818 257.22966 
L 366.021818 258.044902 
L 366.671127 258.044902 
L 366.671127 258.859732 
L 367.320436 258.859732 
L 367.320436 259.67344 
L 367.969745 259.67344 
L 367.969745 260.485455 
L 368.619055 260.485455 
L 368.619055 261.295653 
L 369.268364 261.295653 
L 369.268364 262.103549 
L 369.917673 262.103549 
L 369.917673 262.908645 
L 370.566982 262.908645 
L 370.566982 263.710606 
L 371.216291 263.710606 
L 371.216291 264.50907 
L 371.8656 264.50907 
L 371.8656 265.303294 
L 372.514909 265.303294 
L 372.514909 266.095837 
L 373.164218 266.095837 
L 373.164218 266.880691 
L 373.813527 266.880691 
L 373.813527 267.658543 
L 374.462836 267.658543 
L 374.462836 268.429154 
L 375.112145 268.429154 
L 375.112145 269.192979 
L 375.761455 269.192979 
L 375.761455 269.949554 
L 376.410764 269.949554 
L 376.410764 270.698405 
L 377.060073 270.698405 
L 377.060073 271.439742 
L 377.709382 271.439742 
L 377.709382 272.173656 
L 378.358691 272.173656 
L 378.358691 272.898555 
L 379.008 272.898555 
L 379.008 273.613982 
L 379.657309 273.613982 
L 379.657309 274.31951 
L 380.306618 274.31951 
L 380.306618 275.016988 
L 380.955927 275.016988 
L 380.955927 275.70188 
L 381.605236 275.70188 
L 381.605236 276.374718 
L 382.254545 276.374718 
L 382.254545 277.036066 
L 382.903855 277.036066 
L 382.903855 277.685584 
L 383.553164 277.685584 
L 383.553164 278.322731 
L 384.202473 278.322731 
L 384.202473 278.947034 
L 384.851782 278.947034 
L 384.851782 279.558573 
L 385.501091 279.558573 
L 385.501091 280.157084 
L 386.1504 280.157084 
L 386.1504 280.742334 
L 386.799709 280.742334 
L 386.799709 281.314173 
L 387.449018 281.314173 
L 387.449018 281.872481 
L 388.098327 281.872481 
L 388.098327 282.418576 
L 388.747636 282.418576 
L 388.747636 282.949912 
L 389.396945 282.949912 
L 389.396945 283.466235 
L 390.046255 283.466235 
L 390.046255 283.968342 
L 390.695564 283.968342 
L 390.695564 284.456082 
L 391.344873 284.456082 
L 391.344873 284.929602 
L 391.994182 284.929602 
L 391.994182 285.388902 
L 392.643491 285.388902 
L 392.643491 285.834005 
L 393.2928 285.834005 
L 393.2928 286.265099 
L 393.942109 286.265099 
L 393.942109 286.682356 
L 394.591418 286.682356 
L 394.591418 287.085641 
L 395.240727 287.085641 
L 395.240727 287.475074 
L 395.890036 287.475074 
L 395.890036 287.851726 
L 396.539345 287.851726 
L 396.539345 288.214329 
L 397.188655 288.214329 
L 397.188655 288.562327 
L 397.837964 288.562327 
L 397.837964 288.897126 
L 398.487273 288.897126 
L 398.487273 288.897126 
" clip-path="url(#p622126bf90)" style="fill: none; stroke: #2ca02c; stroke-width: 1.5; stroke-linecap: square"/>
   </g>
   <g id="patch_3">
    <path d="M 57.6 307.584 
L 57.6 41.472 
" style="fill: none; stroke: #000000; stroke-width: 0.8; stroke-linejoin: miter; stroke-linecap: square"/>
   </g>
   <g id="patch_4">
    <path d="M 414.72 307.584 
L 414.72 41.472 
" style="fill: none; stroke: #000000; stroke-width: 0.8; stroke-linejoin: miter; stroke-linecap: square"/>
   </g>
   <g id="patch_5">
    <path d="M 57.6 307.584 
L 414.72 307.584 
" style="fill: none; stroke: #000000; stroke-width: 0.8; stroke-linejoin: miter; stroke-linecap: square"/>
   </g>
   <g id="patch_6">
    <path d="M 57.6 41.472 
L 414.72 41.472 
" style="fill: none; stroke: #000000; stroke-width: 0.8; stroke-linejoin: miter; stroke-linecap: square"/>
   </g>
   <g id="legend_1">
    <g id="patch_7">
     <path d="M 64.6 93.506375 
L 196.992188 93.506375 
Q 198.992188 93.506375 198.992188 91.506375 
L 198.992188 48.472 
Q 198.992188 46.472 196.992188 46.472 
L 64.6 46.472 
Q 62.6 46.472 62.6 48.472 
L 62.6 91.506375 
Q 62.6 93.506375 64.6 93.506375 
z
" style="fill: #ffffff; opacity: 0.8; stroke: #cccccc; stroke-linejoin: miter"/>
    </g>
    <g id="line2d_39">
     <path d="M 66.6 54.570438 
L 66.6 54.570438 
L 76.6 54.570438 
L 76.6 54.570438 
L 86.6 54.570438 
" style="fill: none; stroke: #1f77b4; stroke-width: 1.5; stroke-linecap: square"/>
    </g>
    <g id="text_12">
     <!-- dummy response -->
     <g transform="translate(94.6 58.070438) scale(0.1 -0.1)">
      <defs>
       <path id="DejaVuSans-64" d="M 2906 2969 
L 2906 4863 
L 3481 4863 
L 3481 0 
L 2906 0 
L 2906 525 
Q 2725 213 2448 61 
Q 2172 -91 1784 -91 
Q 1150 -91 751 415 
Q 353 922 353 1747 
Q 353 2572 751 3078 
Q 1150 3584 1784 3584 
Q 2172 3584 2448 3432 
Q 2725 3281 2906 2969 
z
M 947 1747 
Q 947 1113 1208 752 
Q 1469 391 1925 391 
Q 2381 391 2643 752 
Q 2906 1113 2906 1747 
Q 2906 2381 2643 2742 
Q 2381 3103 1925 3103 
Q 1469 3103 1208 2742 
Q 947 2381 947 1747 
z
" transform="scale(0.015625)"/>
       <path id="DejaVuSans-75" d="M 544 1381 
L 544 3500 
L 1119 3500 
L 1119 1403 
Q 1119 906 1312 657 
Q 1506 409 1894 409 
Q 2359 409 2629 706 
Q 2900 1003 2900 1516 
L 2900 3500 
L 3475 3500 
L 3475 0 
L 2900 0 
L 2900 538 
Q 2691 219 2414 64 
Q 2138 -91 1772 -91 
Q 1169 -91 856 284 
Q 544 659 544 1381 
z
M 1991 3584 
L 1991 3584 
z
" transform="scale(0.015625)"/>
       <path id="DejaVuSans-6f" d="M 1959 3097 
Q 1497 3097 1228 2736 
Q 959 2375 959 1747 
Q 959 1119 1226 758 
Q 1494 397 1959 397 
Q 2419 397 2687 759 
Q 2956 1122 2956 1747 
Q 2956 2369 2687 2733 
Q 2419 3097 1959 3097 
z
M 1959 3584 
Q 2709 3584 3137 3096 
Q 3566 2609 3566 1747 
Q 3566 888 3137 398 
Q 2709 -91 1959 -91 
Q 1206 -91 779 398 
Q 353 888 353 1747 
Q 353 2609 779 3096 
Q 1206 3584 1959 3584 
z
" transform="scale(0.015625)"/>
      </defs>
      <use xlink:href="#DejaVuSans-64"/>
      <use xlink:href="#DejaVuSans-75" transform="translate(63.476562 0)"/>
      <use xlink:href="#DejaVuSans-6d" transform="translate(126.855469 0)"/>
      <use xlink:href="#DejaVuSans-6d" transform="translate(224.267578 0)"/>
      <use xlink:href="#DejaVuSans-79" transform="translate(321.679688 0)"/>
      <use xlink:href="#DejaVuSans-20" transform="translate(380.859375 0)"/>
      <use xlink:href="#DejaVuSans-72" transform="translate(412.646484 0)"/>
      <use xlink:href="#DejaVuSans-65" transform="translate(451.509766 0)"/>
      <use xlink:href="#DejaVuSans-73" transform="translate(513.033203 0)"/>
      <use xlink:href="#DejaVuSans-70" transform="translate(565.132812 0)"/>
      <use xlink:href="#DejaVuSans-6f" transform="translate(628.609375 0)"/>
      <use xlink:href="#DejaVuSans-6e" transform="translate(689.791016 0)"/>
      <use xlink:href="#DejaVuSans-73" transform="translate(753.169922 0)"/>
      <use xlink:href="#DejaVuSans-65" transform="translate(805.269531 0)"/>
     </g>
    </g>
    <g id="line2d_40">
     <path d="M 66.6 69.248563 
L 66.6 69.248563 
L 76.6 69.248563 
L 76.6 69.248563 
L 86.6 69.248563 
" style="fill: none; stroke: #ff7f0e; stroke-width: 1.5; stroke-linecap: square"/>
    </g>
    <g id="text_13">
     <!-- 400 km/s -->
     <g transform="translate(94.6 72.748563) scale(0.1 -0.1)">
      <defs>
       <path id="DejaVuSans-2f" d="M 1625 4666 
L 2156 4666 
L 531 -594 
L 0 -594 
L 1625 4666 
z
" transform="scale(0.015625)"/>
      </defs>
      <use xlink:href="#DejaVuSans-34"/>
      <use xlink:href="#DejaVuSans-30" transform="translate(63.623047 0)"/>
      <use xlink:href="#DejaVuSans-30" transform="translate(127.246094 0)"/>
      <use xlink:href="#DejaVuSans-20" transform="translate(190.869141 0)"/>
      <use xlink:href="#DejaVuSans-6b" transform="translate(222.65625 0)"/>
      <use xlink:href="#DejaVuSans-6d" transform="translate(280.566406 0)"/>
      <use xlink:href="#DejaVuSans-2f" transform="translate(377.978516 0)"/>
      <use xlink:href="#DejaVuSans-73" transform="translate(411.669922 0)"/>
     </g>
    </g>
    <g id="line2d_41">
     <path d="M 66.6 83.926688 
L 66.6 83.926688 
L 76.6 83.926688 
L 76.6 83.926688 
L 86.6 83.926688 
" style="fill: none; stroke: #2ca02c; stroke-width: 1.5; stroke-linecap: square"/>
    </g>
    <g id="text_14">
     <!-- Low Limit, 400 km/s -->
     <g transform="translate(94.6 87.426688) scale(0.1 -0.1)">
      <defs>
       <path id="DejaVuSans-4c" d="M 628 4666 
L 1259 4666 
L 1259 531 
L 3531 531 
L 3531 0 
L 628 0 
L 628 4666 
z
" transform="scale(0.015625)"/>
       <path id="DejaVuSans-77" d="M 269 3500 
L 844 3500 
L 1563 769 
L 2278 3500 
L 2956 3500 
L 3675 769 
L 4391 3500 
L 4966 3500 
L 4050 0 
L 3372 0 
L 2619 2869 
L 1863 0 
L 1184 0 
L 269 3500 
z
" transform="scale(0.015625)"/>
       <path id="DejaVuSans-2c" d="M 750 794 
L 1409 794 
L 1409 256 
L 897 -744 
L 494 -744 
L 750 256 
L 750 794 
z
" transform="scale(0.015625)"/>
      </defs>
      <use xlink:href="#DejaVuSans-4c"/>
      <use xlink:href="#DejaVuSans-6f" transform="translate(53.962891 0)"/>
      <use xlink:href="#DejaVuSans-77" transform="translate(115.144531 0)"/>
      <use xlink:href="#DejaVuSans-20" transform="translate(196.931641 0)"/>
      <use xlink:href="#DejaVuSans-4c" transform="translate(228.71875 0)"/>
      <use xlink:href="#DejaVuSans-69" transform="translate(284.431641 0)"/>
      <use xlink:href="#DejaVuSans-6d" transform="translate(312.214844 0)"/>
      <use xlink:href="#DejaVuSans-69" transform="translate(409.626953 0)"/>
      <use xlink:href="#DejaVuSans-74" transform="translate(437.410156 0)"/>
      <use xlink:href="#DejaVuSans-2c" transform="translate(476.619141 0)"/>
      <use xlink:href="#DejaVuSans-20" transform="translate(508.40625 0)"/>
      <use xlink:href="#DejaVuSans-34" transform="translate(540.193359 0)"/>
      <use xlink:href="#DejaVuSans-30" transform="translate(603.816406 0)"/>
      <use xlink:href="#DejaVuSans-30" transform="translate(667.439453 0)"/>
      <use xlink:href="#DejaVuSans-20" transform="translate(731.0625 0)"/>
      <use xlink:href="#DejaVuSans-6b" transform="translate(762.849609 0)"/>
      <use xlink:href="#DejaVuSans-6d" transform="translate(820.759766 0)"/>
      <use xlink:href="#DejaVuSans-2f" transform="translate(918.171875 0)"/>
      <use xlink:href="#DejaVuSans-73" transform="translate(951.863281 0)"/>
     </g>
    </g>
   </g>
  </g>
 </g>
 <defs>
  <clipPath id="p622126bf90">
   <rect x="57.6" y="41.472" width="357.12" height="266.112"/>
  </clipPath>
 </defs>
</svg>
