<?xml version="1.0" encoding="utf-8" standalone="no"?>
<!DOCTYPE svg PUBLIC "-//W3C//DTD SVG 1.1//EN"
  "http://www.w3.org/Graphics/SVG/1.1/DTD/svg11.dtd">
<svg xmlns:xlink="http://www.w3.org/1999/xlink" width="460.8pt" height="345.6pt" viewBox="0 0 460.8 345.6" xmlns="http://www.w3.org/2000/svg" version="1.1">
 <metadata>
  <rdf:RDF xmlns:dc="http://purl.org/dc/elements/1.1/" xmlns:cc="http://creativecommons.org/ns#" xmlns:rdf="http://www.w3.org/1999/02/22-rdf-syntax-ns#">
   <cc:Work>
    <dc:type rdf:resource="http://purl.org/dc/dcmitype/StillImage"/>
    <dc:date>2025-09-25T15:31:45.052498</dc:date>
    <dc:format>image/svg+xml</dc:format>
    <dc:creator>
     <cc:Agent>
      <dc:title>Matplotlib v3.5.0, https://matplotlib.org/</dc:title>
     </cc:Agent>
    </dc:creator>
   </cc:Work>
  </rdf:RDF>
 </metadata>
 <defs>
  <style type="text/css">*{stroke-linejoin: round; stroke-linecap: butt}</style>
 </defs>
 <g id="figure_1">
  <g id="patch_1">
   <path d="M 0 345.6 
L 460.8 345.6 
L 460.8 0 
L 0 0 
z
" style="fill: #ffffff"/>
  </g>
  <g id="axes_1">
   <g id="patch_2">
    <path d="M 57.6 307.584 
L 414.72 307.584 
L 414.72 41.472 
L 57.6 41.472 
z
" style="fill: #ffffff"/>
   </g>
   <g id="matplotlib.axis_1">
    <g id="xtick_1">
     <g id="line2d_1">
      <defs>
       <path id="m8be620821f" d="M 0 0 
L 0 3.5 
" style="stroke: #000000; stroke-width: 0.8"/>
      </defs>
      <g>
       <use xlink:href="#m8be620821f" x="73.832727" y="307.584" style="stroke: #000000; stroke-width: 0.8"/>
      </g>
     </g>
     <g id="text_1">
      <!-- $\mathdefault{10^{-2}}$ -->
      <g transform="translate(64.032727 322.084)scale(0.1 -0.1)">
       <defs>
        <path id="Roboto-Regular-31" d="M 2278 4575 
L 2278 0 
L 1700 0 
L 1700 3853 
L 534 3428 
L 534 3950 
L 2188 4575 
L 2278 4575 
z
" transform="scale(0.015625)"/>
        <path id="Roboto-Regular-30" d="M 3234 1944 
Q 3234 825 2848 381 
Q 2463 -63 1800 -63 
Q 1156 -63 764 368 
Q 372 800 359 1872 
L 359 2638 
Q 359 3753 750 4183 
Q 1141 4613 1794 4613 
Q 2447 4613 2834 4195 
Q 3222 3778 3234 2709 
L 3234 1944 
z
M 2653 2734 
Q 2653 3503 2434 3822 
Q 2216 4141 1794 4141 
Q 1388 4141 1167 3831 
Q 947 3522 941 2778 
L 941 1850 
Q 941 1088 1164 750 
Q 1388 413 1800 413 
Q 2222 413 2436 745 
Q 2650 1078 2653 1825 
L 2653 2734 
z
" transform="scale(0.015625)"/>
        <path id="Roboto-Regular-2212" d="M 3134 2509 
L 3134 2034 
L 525 2034 
L 525 2509 
L 3134 2509 
z
" transform="scale(0.015625)"/>
        <path id="Roboto-Regular-32" d="M 3359 475 
L 3359 0 
L 381 0 
L 381 416 
L 1925 2134 
Q 2306 2566 2439 2819 
Q 2572 3072 2572 3328 
Q 2572 3663 2364 3900 
Q 2156 4138 1778 4138 
Q 1322 4138 1097 3878 
Q 872 3619 872 3213 
L 294 3213 
Q 294 3788 672 4200 
Q 1050 4613 1778 4613 
Q 2422 4613 2786 4278 
Q 3150 3944 3150 3397 
Q 3150 2997 2903 2592 
Q 2656 2188 2297 1797 
L 1078 475 
L 3359 475 
z
" transform="scale(0.015625)"/>
       </defs>
       <use xlink:href="#Roboto-Regular-31" transform="translate(0 0.565625)"/>
       <use xlink:href="#Roboto-Regular-30" transform="translate(56.201172 0.565625)"/>
       <use xlink:href="#Roboto-Regular-2212" transform="translate(113.326836 37.545313)scale(0.7)"/>
       <use xlink:href="#Roboto-Regular-32" transform="translate(153.35125 37.545313)scale(0.7)"/>
      </g>
     </g>
    </g>
    <g id="xtick_2">
     <g id="line2d_2">
      <g>
       <use xlink:href="#m8be620821f" x="194.121039" y="307.584" style="stroke: #000000; stroke-width: 0.8"/>
      </g>
     </g>
     <g id="text_2">
      <!-- $\mathdefault{10^{-1}}$ -->
      <g transform="translate(184.321039 322.084)scale(0.1 -0.1)">
       <use xlink:href="#Roboto-Regular-31" transform="translate(0 0.98125)"/>
       <use xlink:href="#Roboto-Regular-30" transform="translate(56.201172 0.98125)"/>
       <use xlink:href="#Roboto-Regular-2212" transform="translate(113.326836 37.960938)scale(0.7)"/>
       <use xlink:href="#Roboto-Regular-31" transform="translate(153.35125 37.960938)scale(0.7)"/>
      </g>
     </g>
    </g>
    <g id="xtick_3">
     <g id="line2d_3">
      <g>
       <use xlink:href="#m8be620821f" x="314.409351" y="307.584" style="stroke: #000000; stroke-width: 0.8"/>
      </g>
     </g>
     <g id="text_3">
      <!-- $\mathdefault{10^{0}}$ -->
      <g transform="translate(306.609351 322.084)scale(0.1 -0.1)">
       <use xlink:href="#Roboto-Regular-31" transform="translate(0 0.565625)"/>
       <use xlink:href="#Roboto-Regular-30" transform="translate(56.201172 0.565625)"/>
       <use xlink:href="#Roboto-Regular-30" transform="translate(113.326836 37.545313)scale(0.7)"/>
      </g>
     </g>
    </g>
    <g id="xtick_4">
     <g id="line2d_4">
      <defs>
       <path id="meba0299714" d="M 0 0 
L 0 2 
" style="stroke: #000000; stroke-width: 0.6"/>
      </defs>
      <g>
       <use xlink:href="#meba0299714" x="62.175585" y="307.584" style="stroke: #000000; stroke-width: 0.6"/>
      </g>
     </g>
    </g>
    <g id="xtick_5">
     <g id="line2d_5">
      <g>
       <use xlink:href="#meba0299714" x="68.328636" y="307.584" style="stroke: #000000; stroke-width: 0.6"/>
      </g>
     </g>
    </g>
    <g id="xtick_6">
     <g id="line2d_6">
      <g>
       <use xlink:href="#meba0299714" x="110.043117" y="307.584" style="stroke: #000000; stroke-width: 0.6"/>
      </g>
     </g>
    </g>
    <g id="xtick_7">
     <g id="line2d_7">
      <g>
       <use xlink:href="#meba0299714" x="131.224838" y="307.584" style="stroke: #000000; stroke-width: 0.6"/>
      </g>
     </g>
    </g>
    <g id="xtick_8">
     <g id="line2d_8">
      <g>
       <use xlink:href="#meba0299714" x="146.253507" y="307.584" style="stroke: #000000; stroke-width: 0.6"/>
      </g>
     </g>
    </g>
    <g id="xtick_9">
     <g id="line2d_9">
      <g>
       <use xlink:href="#meba0299714" x="157.910649" y="307.584" style="stroke: #000000; stroke-width: 0.6"/>
      </g>
     </g>
    </g>
    <g id="xtick_10">
     <g id="line2d_10">
      <g>
       <use xlink:href="#meba0299714" x="167.435228" y="307.584" style="stroke: #000000; stroke-width: 0.6"/>
      </g>
     </g>
    </g>
    <g id="xtick_11">
     <g id="line2d_11">
      <g>
       <use xlink:href="#meba0299714" x="175.488144" y="307.584" style="stroke: #000000; stroke-width: 0.6"/>
      </g>
     </g>
    </g>
    <g id="xtick_12">
     <g id="line2d_12">
      <g>
       <use xlink:href="#meba0299714" x="182.463897" y="307.584" style="stroke: #000000; stroke-width: 0.6"/>
      </g>
     </g>
    </g>
    <g id="xtick_13">
     <g id="line2d_13">
      <g>
       <use xlink:href="#meba0299714" x="188.616948" y="307.584" style="stroke: #000000; stroke-width: 0.6"/>
      </g>
     </g>
    </g>
    <g id="xtick_14">
     <g id="line2d_14">
      <g>
       <use xlink:href="#meba0299714" x="230.331429" y="307.584" style="stroke: #000000; stroke-width: 0.6"/>
      </g>
     </g>
    </g>
    <g id="xtick_15">
     <g id="line2d_15">
      <g>
       <use xlink:href="#meba0299714" x="251.513149" y="307.584" style="stroke: #000000; stroke-width: 0.6"/>
      </g>
     </g>
    </g>
    <g id="xtick_16">
     <g id="line2d_16">
      <g>
       <use xlink:href="#meba0299714" x="266.541819" y="307.584" style="stroke: #000000; stroke-width: 0.6"/>
      </g>
     </g>
    </g>
    <g id="xtick_17">
     <g id="line2d_17">
      <g>
       <use xlink:href="#meba0299714" x="278.198961" y="307.584" style="stroke: #000000; stroke-width: 0.6"/>
      </g>
     </g>
    </g>
    <g id="xtick_18">
     <g id="line2d_18">
      <g>
       <use xlink:href="#meba0299714" x="287.723539" y="307.584" style="stroke: #000000; stroke-width: 0.6"/>
      </g>
     </g>
    </g>
    <g id="xtick_19">
     <g id="line2d_19">
      <g>
       <use xlink:href="#meba0299714" x="295.776456" y="307.584" style="stroke: #000000; stroke-width: 0.6"/>
      </g>
     </g>
    </g>
    <g id="xtick_20">
     <g id="line2d_20">
      <g>
       <use xlink:href="#meba0299714" x="302.752209" y="307.584" style="stroke: #000000; stroke-width: 0.6"/>
      </g>
     </g>
    </g>
    <g id="xtick_21">
     <g id="line2d_21">
      <g>
       <use xlink:href="#meba0299714" x="308.90526" y="307.584" style="stroke: #000000; stroke-width: 0.6"/>
      </g>
     </g>
    </g>
    <g id="xtick_22">
     <g id="line2d_22">
      <g>
       <use xlink:href="#meba0299714" x="350.619741" y="307.584" style="stroke: #000000; stroke-width: 0.6"/>
      </g>
     </g>
    </g>
    <g id="xtick_23">
     <g id="line2d_23">
      <g>
       <use xlink:href="#meba0299714" x="371.801461" y="307.584" style="stroke: #000000; stroke-width: 0.6"/>
      </g>
     </g>
    </g>
    <g id="xtick_24">
     <g id="line2d_24">
      <g>
       <use xlink:href="#meba0299714" x="386.830131" y="307.584" style="stroke: #000000; stroke-width: 0.6"/>
      </g>
     </g>
    </g>
    <g id="xtick_25">
     <g id="line2d_25">
      <g>
       <use xlink:href="#meba0299714" x="398.487273" y="307.584" style="stroke: #000000; stroke-width: 0.6"/>
      </g>
     </g>
    </g>
    <g id="xtick_26">
     <g id="line2d_26">
      <g>
       <use xlink:href="#meba0299714" x="408.011851" y="307.584" style="stroke: #000000; stroke-width: 0.6"/>
      </g>
     </g>
    </g>
    <g id="text_4">
     <!-- Energy (keV) -->
     <g transform="translate(207.974844 336.137125)scale(0.1 -0.1)">
      <defs>
       <path id="Roboto-Regular-45" d="M 528 0 
L 528 4550 
L 3388 4550 
L 3388 4056 
L 1131 4056 
L 1131 2594 
L 3100 2594 
L 3100 2103 
L 1131 2103 
L 1131 491 
L 3419 491 
L 3419 0 
L 528 0 
z
" transform="scale(0.015625)"/>
       <path id="Roboto-Regular-6e" d="M 1844 2956 
Q 1566 2956 1353 2806 
Q 1141 2656 1019 2416 
L 1019 0 
L 441 0 
L 441 3381 
L 988 3381 
L 1006 2959 
Q 1391 3444 2016 3444 
Q 2513 3444 2805 3166 
Q 3097 2888 3100 2231 
L 3100 0 
L 2519 0 
L 2519 2222 
Q 2519 2619 2345 2787 
Q 2172 2956 1844 2956 
z
" transform="scale(0.015625)"/>
       <path id="Roboto-Regular-65" d="M 3116 591 
Q 2950 341 2647 139 
Q 2344 -63 1844 -63 
Q 1138 -63 714 396 
Q 291 856 291 1572 
L 291 1703 
Q 291 2256 502 2645 
Q 713 3034 1050 3239 
Q 1388 3444 1769 3444 
Q 2494 3444 2826 2970 
Q 3159 2497 3159 1788 
L 3159 1528 
L 872 1528 
Q 884 1063 1148 736 
Q 1413 409 1875 409 
Q 2181 409 2393 534 
Q 2606 659 2766 869 
L 3116 591 
z
M 1769 2969 
Q 1425 2969 1187 2719 
Q 950 2469 891 2000 
L 2581 2000 
L 2581 2044 
Q 2559 2381 2386 2675 
Q 2213 2969 1769 2969 
z
" transform="scale(0.015625)"/>
       <path id="Roboto-Regular-72" d="M 1791 2888 
Q 1225 2888 1019 2400 
L 1019 0 
L 441 0 
L 441 3381 
L 1003 3381 
L 1016 2994 
Q 1294 3444 1819 3444 
Q 1981 3444 2075 3400 
L 2072 2863 
Q 1944 2888 1791 2888 
z
" transform="scale(0.015625)"/>
       <path id="Roboto-Regular-67" d="M 1725 -1334 
Q 1463 -1334 1081 -1206 
Q 700 -1078 472 -747 
L 775 -403 
Q 1150 -859 1681 -859 
Q 2091 -859 2334 -629 
Q 2578 -400 2578 44 
L 2578 341 
Q 2234 -63 1631 -63 
Q 1022 -63 662 425 
Q 303 913 303 1653 
L 303 1719 
Q 303 2494 661 2969 
Q 1019 3444 1638 3444 
Q 2259 3444 2603 3006 
L 2631 3381 
L 3156 3381 
L 3156 72 
Q 3156 -600 2756 -967 
Q 2356 -1334 1725 -1334 
z
M 881 1653 
Q 881 1150 1092 789 
Q 1303 428 1772 428 
Q 2322 428 2578 928 
L 2578 2469 
Q 2469 2678 2275 2817 
Q 2081 2956 1778 2956 
Q 1306 2956 1093 2589 
Q 881 2222 881 1719 
L 881 1653 
z
" transform="scale(0.015625)"/>
       <path id="Roboto-Regular-79" d="M 1594 -522 
Q 1294 -1316 688 -1363 
L 591 -1366 
Q 406 -1366 266 -1316 
L 263 -847 
L 419 -859 
Q 713 -859 878 -739 
Q 1044 -619 1150 -306 
L 1275 38 
L 69 3381 
L 700 3381 
L 1547 850 
L 2331 3381 
L 2950 3381 
L 1594 -522 
z
" transform="scale(0.015625)"/>
       <path id="Roboto-Regular-20" transform="scale(0.015625)"/>
       <path id="Roboto-Regular-28" d="M 419 1850 
Q 419 2756 678 3434 
Q 938 4113 1294 4541 
Q 1650 4969 1947 5134 
L 2069 4753 
Q 1700 4475 1348 3761 
Q 997 3047 997 1813 
Q 997 625 1348 -97 
Q 1700 -819 2069 -1119 
L 1947 -1469 
Q 1650 -1306 1294 -878 
Q 938 -450 678 226 
Q 419 903 419 1850 
z
" transform="scale(0.015625)"/>
       <path id="Roboto-Regular-6b" d="M 2559 0 
L 1388 1569 
L 1022 1191 
L 1022 0 
L 441 0 
L 441 4800 
L 1022 4800 
L 1022 1900 
L 1331 2269 
L 2381 3381 
L 3088 3381 
L 1769 1972 
L 3241 0 
L 2559 0 
z
" transform="scale(0.015625)"/>
       <path id="Roboto-Regular-56" d="M 3991 4550 
L 2306 0 
L 1772 0 
L 91 4550 
L 744 4550 
L 2034 800 
L 3338 4550 
L 3991 4550 
z
" transform="scale(0.015625)"/>
       <path id="Roboto-Regular-29" d="M 1772 1819 
Q 1772 906 1512 228 
Q 1253 -450 895 -878 
Q 538 -1306 244 -1469 
L 122 -1119 
Q 488 -841 841 -109 
Q 1194 622 1194 1856 
Q 1194 2647 1019 3236 
Q 844 3825 594 4212 
Q 344 4600 122 4781 
L 244 5134 
Q 538 4969 895 4541 
Q 1253 4113 1512 3436 
Q 1772 2759 1772 1819 
z
" transform="scale(0.015625)"/>
      </defs>
      <use xlink:href="#Roboto-Regular-45"/>
      <use xlink:href="#Roboto-Regular-6e" x="56.835938"/>
      <use xlink:href="#Roboto-Regular-65" x="112.060547"/>
      <use xlink:href="#Roboto-Regular-72" x="165.087891"/>
      <use xlink:href="#Roboto-Regular-67" x="198.974609"/>
      <use xlink:href="#Roboto-Regular-79" x="255.126953"/>
      <use xlink:href="#Roboto-Regular-20" x="302.441406"/>
      <use xlink:href="#Roboto-Regular-28" x="327.246094"/>
      <use xlink:href="#Roboto-Regular-6b" x="361.474609"/>
      <use xlink:href="#Roboto-Regular-65" x="412.158203"/>
      <use xlink:href="#Roboto-Regular-56" x="465.185547"/>
      <use xlink:href="#Roboto-Regular-29" x="528.857422"/>
     </g>
    </g>
   </g>
   <g id="matplotlib.axis_2">
    <g id="ytick_1">
     <g id="line2d_27">
      <defs>
       <path id="mf0daf7a0a4" d="M 0 0 
L -3.5 0 
" style="stroke: #000000; stroke-width: 0.8"/>
      </defs>
      <g>
       <use xlink:href="#mf0daf7a0a4" x="57.6" y="277.194998" style="stroke: #000000; stroke-width: 0.8"/>
      </g>
     </g>
     <g id="text_5">
      <!-- $\mathdefault{10^{-51}}$ -->
      <g transform="translate(27.1 280.944998)scale(0.1 -0.1)">
       <defs>
        <path id="Roboto-Regular-35" d="M 1109 2166 
L 647 2284 
L 875 4550 
L 3209 4550 
L 3209 4016 
L 1366 4016 
L 1228 2778 
Q 1572 2975 1988 2975 
Q 2616 2975 2980 2561 
Q 3344 2147 3344 1450 
Q 3344 797 2987 367 
Q 2631 -63 1903 -63 
Q 1350 -63 947 248 
Q 544 559 481 1197 
L 1031 1197 
Q 1141 413 1903 413 
Q 2313 413 2538 691 
Q 2763 969 2763 1444 
Q 2763 1872 2527 2164 
Q 2291 2456 1853 2456 
Q 1563 2456 1413 2378 
Q 1263 2300 1109 2166 
z
" transform="scale(0.015625)"/>
       </defs>
       <use xlink:href="#Roboto-Regular-31" transform="translate(0 0.98125)"/>
       <use xlink:href="#Roboto-Regular-30" transform="translate(56.201172 0.98125)"/>
       <use xlink:href="#Roboto-Regular-2212" transform="translate(113.326836 37.960938)scale(0.7)"/>
       <use xlink:href="#Roboto-Regular-35" transform="translate(153.35125 37.960938)scale(0.7)"/>
       <use xlink:href="#Roboto-Regular-31" transform="translate(192.69207 37.960938)scale(0.7)"/>
      </g>
     </g>
    </g>
    <g id="ytick_2">
     <g id="line2d_28">
      <g>
       <use xlink:href="#mf0daf7a0a4" x="57.6" y="243.565511" style="stroke: #000000; stroke-width: 0.8"/>
      </g>
     </g>
     <g id="text_6">
      <!-- $\mathdefault{10^{-45}}$ -->
      <g transform="translate(27.1 247.315511)scale(0.1 -0.1)">
       <defs>
        <path id="Roboto-Regular-34" d="M 166 1397 
L 2203 4550 
L 2819 4550 
L 2819 1531 
L 3453 1531 
L 3453 1056 
L 2819 1056 
L 2819 0 
L 2241 0 
L 2241 1056 
L 166 1056 
L 166 1397 
z
M 822 1531 
L 2241 1531 
L 2241 3766 
L 2169 3638 
L 822 1531 
z
" transform="scale(0.015625)"/>
       </defs>
       <use xlink:href="#Roboto-Regular-31" transform="translate(0 0.254688)"/>
       <use xlink:href="#Roboto-Regular-30" transform="translate(56.201172 0.254688)"/>
       <use xlink:href="#Roboto-Regular-2212" transform="translate(113.326836 37.234375)scale(0.7)"/>
       <use xlink:href="#Roboto-Regular-34" transform="translate(153.35125 37.234375)scale(0.7)"/>
       <use xlink:href="#Roboto-Regular-35" transform="translate(192.69207 37.234375)scale(0.7)"/>
      </g>
     </g>
    </g>
    <g id="ytick_3">
     <g id="line2d_29">
      <g>
       <use xlink:href="#mf0daf7a0a4" x="57.6" y="209.936024" style="stroke: #000000; stroke-width: 0.8"/>
      </g>
     </g>
     <g id="text_7">
      <!-- $\mathdefault{10^{-39}}$ -->
      <g transform="translate(27.1 213.686024)scale(0.1 -0.1)">
       <defs>
        <path id="Roboto-Regular-33" d="M 1222 2084 
L 1222 2559 
L 1647 2559 
Q 2094 2563 2312 2784 
Q 2531 3006 2531 3338 
Q 2531 4138 1738 4138 
Q 1369 4138 1141 3927 
Q 913 3716 913 3359 
L 334 3359 
Q 334 3881 720 4247 
Q 1106 4613 1738 4613 
Q 2353 4613 2733 4286 
Q 3113 3959 3113 3325 
Q 3113 3072 2942 2784 
Q 2772 2497 2397 2338 
Q 2850 2191 3015 1884 
Q 3181 1578 3181 1269 
Q 3181 631 2768 284 
Q 2356 -63 1741 -63 
Q 1147 -63 722 267 
Q 297 597 297 1203 
L 875 1203 
Q 875 844 1108 628 
Q 1341 413 1741 413 
Q 2138 413 2369 622 
Q 2600 831 2600 1256 
Q 2600 1681 2337 1882 
Q 2075 2084 1634 2084 
L 1222 2084 
z
" transform="scale(0.015625)"/>
        <path id="Roboto-Regular-39" d="M 3175 2563 
Q 3175 2119 3098 1667 
Q 3022 1216 2801 836 
Q 2581 456 2151 225 
Q 1722 -6 953 -6 
L 953 484 
Q 1644 484 1980 700 
Q 2316 916 2448 1264 
Q 2581 1613 2597 2006 
Q 2416 1791 2162 1656 
Q 1909 1522 1613 1522 
Q 1163 1522 875 1747 
Q 588 1972 450 2320 
Q 313 2669 313 3041 
Q 313 3691 670 4152 
Q 1028 4613 1725 4613 
Q 2244 4613 2564 4344 
Q 2884 4075 3029 3653 
Q 3175 3231 3175 2772 
L 3175 2563 
z
M 881 3072 
Q 881 2666 1086 2334 
Q 1291 2003 1706 2003 
Q 2003 2003 2245 2181 
Q 2488 2359 2600 2622 
L 2600 2850 
Q 2600 3472 2336 3803 
Q 2072 4134 1725 4134 
Q 1322 4134 1101 3829 
Q 881 3525 881 3072 
z
" transform="scale(0.015625)"/>
       </defs>
       <use xlink:href="#Roboto-Regular-31" transform="translate(0 0.565625)"/>
       <use xlink:href="#Roboto-Regular-30" transform="translate(56.201172 0.565625)"/>
       <use xlink:href="#Roboto-Regular-2212" transform="translate(113.326836 37.545313)scale(0.7)"/>
       <use xlink:href="#Roboto-Regular-33" transform="translate(153.35125 37.545313)scale(0.7)"/>
       <use xlink:href="#Roboto-Regular-39" transform="translate(192.69207 37.545313)scale(0.7)"/>
      </g>
     </g>
    </g>
    <g id="ytick_4">
     <g id="line2d_30">
      <g>
       <use xlink:href="#mf0daf7a0a4" x="57.6" y="176.306536" style="stroke: #000000; stroke-width: 0.8"/>
      </g>
     </g>
     <g id="text_8">
      <!-- $\mathdefault{10^{-33}}$ -->
      <g transform="translate(27.1 180.056536)scale(0.1 -0.1)">
       <use xlink:href="#Roboto-Regular-31" transform="translate(0 0.565625)"/>
       <use xlink:href="#Roboto-Regular-30" transform="translate(56.201172 0.565625)"/>
       <use xlink:href="#Roboto-Regular-2212" transform="translate(113.326836 37.545313)scale(0.7)"/>
       <use xlink:href="#Roboto-Regular-33" transform="translate(153.35125 37.545313)scale(0.7)"/>
       <use xlink:href="#Roboto-Regular-33" transform="translate(192.69207 37.545313)scale(0.7)"/>
      </g>
     </g>
    </g>
    <g id="ytick_5">
     <g id="line2d_31">
      <g>
       <use xlink:href="#mf0daf7a0a4" x="57.6" y="142.677049" style="stroke: #000000; stroke-width: 0.8"/>
      </g>
     </g>
     <g id="text_9">
      <!-- $\mathdefault{10^{-27}}$ -->
      <g transform="translate(27.1 146.427049)scale(0.1 -0.1)">
       <defs>
        <path id="Roboto-Regular-37" d="M 3319 4550 
L 3319 4225 
L 1434 0 
L 825 0 
L 2706 4075 
L 244 4075 
L 244 4550 
L 3319 4550 
z
" transform="scale(0.015625)"/>
       </defs>
       <use xlink:href="#Roboto-Regular-31" transform="translate(0 0.565625)"/>
       <use xlink:href="#Roboto-Regular-30" transform="translate(56.201172 0.565625)"/>
       <use xlink:href="#Roboto-Regular-2212" transform="translate(113.326836 37.545313)scale(0.7)"/>
       <use xlink:href="#Roboto-Regular-32" transform="translate(153.35125 37.545313)scale(0.7)"/>
       <use xlink:href="#Roboto-Regular-37" transform="translate(192.69207 37.545313)scale(0.7)"/>
      </g>
     </g>
    </g>
    <g id="ytick_6">
     <g id="line2d_32">
      <g>
       <use xlink:href="#mf0daf7a0a4" x="57.6" y="109.047562" style="stroke: #000000; stroke-width: 0.8"/>
      </g>
     </g>
     <g id="text_10">
      <!-- $\mathdefault{10^{-21}}$ -->
      <g transform="translate(27.1 112.797562)scale(0.1 -0.1)">
       <use xlink:href="#Roboto-Regular-31" transform="translate(0 0.565625)"/>
       <use xlink:href="#Roboto-Regular-30" transform="translate(56.201172 0.565625)"/>
       <use xlink:href="#Roboto-Regular-2212" transform="translate(113.326836 37.545313)scale(0.7)"/>
       <use xlink:href="#Roboto-Regular-32" transform="translate(153.35125 37.545313)scale(0.7)"/>
       <use xlink:href="#Roboto-Regular-31" transform="translate(192.69207 37.545313)scale(0.7)"/>
      </g>
     </g>
    </g>
    <g id="ytick_7">
     <g id="line2d_33">
      <g>
       <use xlink:href="#mf0daf7a0a4" x="57.6" y="75.418074" style="stroke: #000000; stroke-width: 0.8"/>
      </g>
     </g>
     <g id="text_11">
      <!-- $\mathdefault{10^{-15}}$ -->
      <g transform="translate(27.1 79.168074)scale(0.1 -0.1)">
       <use xlink:href="#Roboto-Regular-31" transform="translate(0 0.98125)"/>
       <use xlink:href="#Roboto-Regular-30" transform="translate(56.201172 0.98125)"/>
       <use xlink:href="#Roboto-Regular-2212" transform="translate(113.326836 37.960938)scale(0.7)"/>
       <use xlink:href="#Roboto-Regular-31" transform="translate(153.35125 37.960938)scale(0.7)"/>
       <use xlink:href="#Roboto-Regular-35" transform="translate(192.69207 37.960938)scale(0.7)"/>
      </g>
     </g>
    </g>
    <g id="ytick_8">
     <g id="line2d_34">
      <g>
       <use xlink:href="#mf0daf7a0a4" x="57.6" y="41.788587" style="stroke: #000000; stroke-width: 0.8"/>
      </g>
     </g>
     <g id="text_12">
      <!-- $\mathdefault{10^{-9}}$ -->
      <g transform="translate(31 45.538587)scale(0.1 -0.1)">
       <use xlink:href="#Roboto-Regular-31" transform="translate(0 0.565625)"/>
       <use xlink:href="#Roboto-Regular-30" transform="translate(56.201172 0.565625)"/>
       <use xlink:href="#Roboto-Regular-2212" transform="translate(113.326836 37.545313)scale(0.7)"/>
       <use xlink:href="#Roboto-Regular-39" transform="translate(153.35125 37.545313)scale(0.7)"/>
      </g>
     </g>
    </g>
    <g id="text_13">
     <!-- Intensity (ph cm$^5$ s$^{-1}$ bin$^{-1}$) -->
     <g transform="translate(20.8 234.278)rotate(-90)scale(0.1 -0.1)">
      <defs>
       <path id="Roboto-Regular-49" d="M 1175 4550 
L 1175 0 
L 572 0 
L 572 4550 
L 1175 4550 
z
" transform="scale(0.015625)"/>
       <path id="Roboto-Regular-74" d="M 1872 0 
Q 1675 -63 1425 -63 
Q 1103 -63 875 134 
Q 647 331 647 841 
L 647 2938 
L 28 2938 
L 28 3381 
L 647 3381 
L 647 4203 
L 1225 4203 
L 1225 3381 
L 1856 3381 
L 1856 2938 
L 1225 2938 
L 1225 838 
Q 1225 578 1337 506 
Q 1450 434 1597 434 
Q 1706 434 1869 472 
L 1872 0 
z
" transform="scale(0.015625)"/>
       <path id="Roboto-Regular-73" d="M 2409 897 
Q 2409 1081 2273 1229 
Q 2138 1378 1647 1478 
Q 1081 1594 747 1814 
Q 413 2034 413 2456 
Q 413 2856 755 3150 
Q 1097 3444 1666 3444 
Q 2272 3444 2612 3134 
Q 2953 2825 2953 2388 
L 2375 2388 
Q 2375 2597 2190 2783 
Q 2006 2969 1666 2969 
Q 1306 2969 1150 2812 
Q 994 2656 994 2472 
Q 994 2288 1139 2173 
Q 1284 2059 1756 1953 
Q 2378 1813 2683 1584 
Q 2988 1356 2988 941 
Q 2988 494 2630 215 
Q 2272 -63 1681 -63 
Q 1009 -63 653 281 
Q 297 625 297 1044 
L 878 1044 
Q 897 684 1155 548 
Q 1413 413 1681 413 
Q 2034 413 2221 550 
Q 2409 688 2409 897 
z
" transform="scale(0.015625)"/>
       <path id="Roboto-Regular-69" d="M 444 4278 
Q 444 4419 530 4516 
Q 616 4613 784 4613 
Q 950 4613 1039 4516 
Q 1128 4419 1128 4278 
Q 1128 4144 1039 4048 
Q 950 3953 784 3953 
Q 616 3953 530 4048 
Q 444 4144 444 4278 
z
M 1069 3381 
L 1069 0 
L 488 0 
L 488 3381 
L 1069 3381 
z
" transform="scale(0.015625)"/>
       <path id="Roboto-Regular-70" d="M 1984 -63 
Q 1375 -63 1019 328 
L 1019 -1300 
L 438 -1300 
L 438 3381 
L 969 3381 
L 997 3009 
Q 1353 3444 1975 3444 
Q 2616 3444 2956 2969 
Q 3297 2494 3297 1719 
L 3297 1653 
Q 3297 913 2955 425 
Q 2613 -63 1984 -63 
z
M 1806 2956 
Q 1281 2956 1019 2491 
L 1019 872 
Q 1284 413 1813 413 
Q 2281 413 2498 781 
Q 2716 1150 2716 1653 
L 2716 1719 
Q 2716 2222 2498 2589 
Q 2281 2956 1806 2956 
z
" transform="scale(0.015625)"/>
       <path id="Roboto-Regular-68" d="M 1844 2956 
Q 1566 2956 1353 2806 
Q 1141 2656 1019 2416 
L 1019 0 
L 441 0 
L 441 4800 
L 1019 4800 
L 1019 2978 
Q 1403 3444 2016 3444 
Q 2513 3444 2805 3166 
Q 3097 2888 3100 2231 
L 3100 0 
L 2519 0 
L 2519 2222 
Q 2519 2619 2345 2787 
Q 2172 2956 1844 2956 
z
" transform="scale(0.015625)"/>
       <path id="Roboto-Regular-63" d="M 1794 413 
Q 2103 413 2336 597 
Q 2569 781 2591 1069 
L 3141 1069 
Q 3119 616 2725 276 
Q 2331 -63 1794 -63 
Q 1031 -63 661 440 
Q 291 944 291 1625 
L 291 1756 
Q 291 2438 661 2941 
Q 1031 3444 1794 3444 
Q 2388 3444 2753 3092 
Q 3119 2741 3141 2219 
L 2591 2219 
Q 2569 2531 2355 2750 
Q 2141 2969 1794 2969 
Q 1438 2969 1236 2787 
Q 1034 2606 951 2328 
Q 869 2050 869 1756 
L 869 1625 
Q 869 1328 950 1050 
Q 1031 772 1232 592 
Q 1434 413 1794 413 
z
" transform="scale(0.015625)"/>
       <path id="Roboto-Regular-6d" d="M 1794 2956 
Q 1225 2956 1016 2478 
L 1016 0 
L 434 0 
L 434 3381 
L 984 3381 
L 1000 3013 
Q 1366 3444 2000 3444 
Q 2325 3444 2579 3314 
Q 2834 3184 2969 2900 
Q 3138 3144 3408 3294 
Q 3678 3444 4044 3444 
Q 4588 3444 4883 3153 
Q 5178 2863 5178 2222 
L 5178 0 
L 4597 0 
L 4597 2228 
Q 4597 2653 4401 2804 
Q 4206 2956 3875 2956 
Q 3525 2956 3325 2748 
Q 3125 2541 3094 2244 
L 3094 0 
L 2516 0 
L 2516 2225 
Q 2516 2622 2319 2789 
Q 2122 2956 1794 2956 
z
" transform="scale(0.015625)"/>
       <path id="Roboto-Regular-62" d="M 3303 1653 
Q 3303 913 2959 425 
Q 2616 -63 1988 -63 
Q 1347 -63 1000 391 
L 969 0 
L 438 0 
L 438 4800 
L 1019 4800 
L 1019 3016 
Q 1363 3444 1981 3444 
Q 2619 3444 2961 2969 
Q 3303 2494 3303 1719 
L 3303 1653 
z
M 1838 2956 
Q 1522 2956 1325 2804 
Q 1128 2653 1019 2431 
L 1019 959 
Q 1131 734 1331 581 
Q 1531 428 1844 428 
Q 2313 428 2517 789 
Q 2722 1150 2722 1653 
L 2722 1719 
Q 2722 2222 2526 2589 
Q 2331 2956 1838 2956 
z
" transform="scale(0.015625)"/>
      </defs>
      <use xlink:href="#Roboto-Regular-49" transform="translate(0 0.98125)"/>
      <use xlink:href="#Roboto-Regular-6e" transform="translate(27.197266 0.98125)"/>
      <use xlink:href="#Roboto-Regular-74" transform="translate(82.421875 0.98125)"/>
      <use xlink:href="#Roboto-Regular-65" transform="translate(115.136719 0.98125)"/>
      <use xlink:href="#Roboto-Regular-6e" transform="translate(168.164062 0.98125)"/>
      <use xlink:href="#Roboto-Regular-73" transform="translate(223.388672 0.98125)"/>
      <use xlink:href="#Roboto-Regular-69" transform="translate(275 0.98125)"/>
      <use xlink:href="#Roboto-Regular-74" transform="translate(299.316406 0.98125)"/>
      <use xlink:href="#Roboto-Regular-79" transform="translate(332.03125 0.98125)"/>
      <use xlink:href="#Roboto-Regular-20" transform="translate(379.345703 0.98125)"/>
      <use xlink:href="#Roboto-Regular-28" transform="translate(404.150391 0.98125)"/>
      <use xlink:href="#Roboto-Regular-70" transform="translate(438.378906 0.98125)"/>
      <use xlink:href="#Roboto-Regular-68" transform="translate(494.53125 0.98125)"/>
      <use xlink:href="#Roboto-Regular-20" transform="translate(549.609375 0.98125)"/>
      <use xlink:href="#Roboto-Regular-63" transform="translate(574.414062 0.98125)"/>
      <use xlink:href="#Roboto-Regular-6d" transform="translate(626.757812 0.98125)"/>
      <use xlink:href="#Roboto-Regular-35" transform="translate(715.377617 37.960938)scale(0.7)"/>
      <use xlink:href="#Roboto-Regular-20" transform="translate(757.359844 0.98125)"/>
      <use xlink:href="#Roboto-Regular-73" transform="translate(782.164531 0.98125)"/>
      <use xlink:href="#Roboto-Regular-2212" transform="translate(834.700352 37.960938)scale(0.7)"/>
      <use xlink:href="#Roboto-Regular-31" transform="translate(874.724766 37.960938)scale(0.7)"/>
      <use xlink:href="#Roboto-Regular-20" transform="translate(916.706992 0.98125)"/>
      <use xlink:href="#Roboto-Regular-62" transform="translate(941.51168 0.98125)"/>
      <use xlink:href="#Roboto-Regular-69" transform="translate(997.664023 0.98125)"/>
      <use xlink:href="#Roboto-Regular-6e" transform="translate(1021.98043 0.98125)"/>
      <use xlink:href="#Roboto-Regular-2212" transform="translate(1078.129531 37.960938)scale(0.7)"/>
      <use xlink:href="#Roboto-Regular-31" transform="translate(1118.153945 37.960938)scale(0.7)"/>
      <use xlink:href="#Roboto-Regular-29" transform="translate(1160.136172 0.98125)"/>
     </g>
    </g>
   </g>
   <g id="line2d_35">
    <path d="M 73.832727 54.454604 
L 94.979609 54.454604 
L 94.979609 53.568 
L 109.990851 53.568 
L 109.990851 57.015352 
L 121.637533 57.015352 
L 121.637533 62.304433 
L 131.155137 62.304433 
L 131.155137 62.892568 
L 139.203071 62.892568 
L 139.203071 65.398097 
L 146.175088 65.398097 
L 146.175088 62.782161 
L 152.325231 62.782161 
L 152.325231 64.629623 
L 157.826997 64.629623 
L 157.826997 63.800036 
L 162.804151 63.800036 
L 162.804151 65.035863 
L 167.348087 65.035863 
L 167.348087 66.609158 
L 171.528221 66.609158 
L 171.528221 66.99931 
L 175.398512 66.99931 
L 175.398512 65.258921 
L 179.001741 65.258921 
L 179.001741 70.09849 
L 182.372396 70.09849 
L 182.372396 69.372173 
L 185.53869 69.372173 
L 185.53869 70.789594 
L 188.523993 70.789594 
L 188.523993 71.948715 
L 191.347882 71.948715 
L 191.347882 74.812698 
L 194.026921 74.812698 
L 194.026921 73.548939 
L 196.575248 73.548939 
L 196.575248 73.038596 
L 199.005026 73.038596 
L 199.005026 76.441624 
L 201.326797 76.441624 
L 201.326797 76.582191 
L 203.549755 76.582191 
L 203.549755 76.42755 
L 205.68197 76.42755 
L 205.68197 76.306978 
L 207.730559 76.306978 
L 207.730559 78.970424 
L 209.701837 78.970424 
L 209.701837 80.550836 
L 211.601425 80.550836 
L 211.601425 80.259686 
L 213.434357 80.259686 
L 213.434357 80.069259 
L 215.205153 80.069259 
L 215.205153 80.233858 
L 216.917886 80.233858 
L 216.917886 83.305818 
L 218.576244 83.305818 
L 218.576244 83.561358 
L 220.183574 83.561358 
L 220.183574 84.573219 
L 221.742923 84.573219 
L 221.742923 79.734649 
L 223.257072 79.734649 
L 223.257072 83.318737 
L 224.728568 83.318737 
L 224.728568 86.417954 
L 226.159748 86.417954 
L 226.159748 87.00801 
L 227.552763 87.00801 
L 227.552763 87.273237 
L 228.909596 87.273237 
L 228.909596 88.023968 
L 230.232078 88.023968 
L 230.232078 87.271607 
L 231.521906 87.271607 
L 231.521906 83.224719 
L 232.780653 83.224719 
L 232.780653 88.686393 
L 234.009784 88.686393 
L 234.009784 89.548367 
L 235.210658 89.548367 
L 235.210658 90.126192 
L 236.384547 90.126192 
L 236.384547 89.767338 
L 237.532636 89.767338 
L 237.532636 90.714839 
L 238.656035 90.714839 
L 238.656035 87.300723 
L 239.755784 87.300723 
L 239.755784 91.511238 
L 240.832858 91.511238 
L 240.832858 91.636567 
L 241.888173 91.636567 
L 241.888173 92.194275 
L 242.922591 92.194275 
L 242.922591 92.509782 
L 243.936923 92.509782 
L 243.936923 92.734885 
L 244.931935 92.734885 
L 244.931935 92.944187 
L 246.866848 92.967065 
L 246.866848 93.445901 
L 247.808077 93.445901 
L 247.808077 93.005985 
L 248.732647 93.005985 
L 248.732647 93.492095 
L 249.641138 93.492095 
L 249.641138 93.999997 
L 250.534099 93.999997 
L 250.534099 83.323008 
L 251.412053 83.323008 
L 251.412053 89.683877 
L 252.275496 89.683877 
L 252.275496 83.785201 
L 253.124899 83.785201 
L 253.124899 96.376633 
L 253.960712 96.376633 
L 253.960712 96.705395 
L 254.783363 96.705395 
L 254.783363 97.09415 
L 255.59326 97.09415 
L 255.59326 97.280064 
L 256.390792 97.280064 
L 256.390792 96.715116 
L 257.176332 96.715116 
L 257.176332 96.910401 
L 257.950234 96.910401 
L 257.950234 97.804247 
L 258.712839 97.804247 
L 258.712839 97.524542 
L 260.205442 97.607322 
L 260.205442 89.273568 
L 260.93605 89.273568 
L 260.93605 98.904495 
L 261.656581 98.904495 
L 261.656581 96.584423 
L 262.367309 96.584423 
L 262.367309 92.031308 
L 263.068497 92.031308 
L 263.068497 93.638461 
L 263.760398 93.638461 
L 263.760398 95.289747 
L 264.443255 95.289747 
L 264.443255 94.572498 
L 265.117301 94.572498 
L 265.117301 94.096492 
L 265.782761 94.096492 
L 265.782761 93.407012 
L 266.439851 93.407012 
L 266.439851 94.565679 
L 267.088777 94.565679 
L 267.088777 95.600283 
L 267.729742 95.600283 
L 267.729742 96.351224 
L 268.988551 96.426719 
L 268.988551 91.542746 
L 269.60676 91.542746 
L 269.60676 94.984301 
L 270.217739 94.984301 
L 270.217739 91.948809 
L 270.821655 91.948809 
L 270.821655 99.578772 
L 271.418669 99.578772 
L 271.418669 100.537124 
L 272.008937 100.537124 
L 272.008937 101.038036 
L 272.59261 101.038036 
L 272.59261 101.463465 
L 273.169834 101.463465 
L 273.169834 101.87759 
L 273.74075 101.87759 
L 273.74075 101.753663 
L 274.305494 101.753663 
L 274.305494 102.531236 
L 274.864197 102.531236 
L 274.864197 101.999992 
L 275.416989 101.999992 
L 275.416989 102.184682 
L 275.963993 102.184682 
L 275.963993 103.055648 
L 276.505328 103.055648 
L 276.505328 103.672236 
L 277.041111 103.672236 
L 277.041111 103.265171 
L 277.571455 103.265171 
L 277.571455 97.780574 
L 278.096469 97.780574 
L 278.096469 103.631011 
L 278.616259 103.631011 
L 278.616259 104.41076 
L 279.130928 104.41076 
L 279.130928 104.570039 
L 279.640576 104.570039 
L 279.640576 105.048054 
L 280.1453 105.048054 
L 280.1453 100.59656 
L 280.645194 100.59656 
L 280.645194 105.305022 
L 281.14035 105.305022 
L 281.14035 102.186371 
L 281.630857 102.186371 
L 281.630857 103.379929 
L 282.598266 103.319841 
L 282.598266 103.732305 
L 283.075335 103.732305 
L 283.075335 99.476314 
L 283.548086 99.476314 
L 283.548086 98.181814 
L 284.016597 98.181814 
L 284.016597 94.937977 
L 284.480944 94.937977 
L 284.480944 98.672438 
L 284.9412 98.672438 
L 284.9412 98.483281 
L 285.397437 98.483281 
L 285.397437 96.094341 
L 285.849723 96.094341 
L 285.849723 105.708358 
L 286.298127 105.708358 
L 286.298127 106.345314 
L 286.742715 106.345314 
L 286.742715 106.750414 
L 287.183551 106.750414 
L 287.183551 107.309629 
L 287.620698 107.309629 
L 287.620698 107.680322 
L 288.054218 107.680322 
L 288.054218 108.118507 
L 288.48417 108.118507 
L 288.48417 108.439832 
L 288.910612 108.439832 
L 288.910612 108.66737 
L 289.753192 108.736907 
L 289.753192 109.2167 
L 290.16944 109.2167 
L 290.16944 108.939954 
L 290.582398 108.939954 
L 290.582398 106.311671 
L 290.992117 106.311671 
L 290.992117 104.845408 
L 291.398648 104.845408 
L 291.398648 107.074991 
L 291.802039 107.074991 
L 291.802039 109.817399 
L 292.20234 109.817399 
L 292.20234 110.261204 
L 292.599596 110.261204 
L 292.599596 108.360613 
L 292.993854 108.360613 
L 292.993854 102.295641 
L 293.385159 102.295641 
L 293.385159 110.228275 
L 293.773555 110.228275 
L 293.773555 109.542794 
L 294.159085 109.542794 
L 294.159085 110.002317 
L 294.54179 110.002317 
L 294.54179 110.30547 
L 294.921712 110.30547 
L 294.921712 110.879347 
L 295.29889 110.879347 
L 295.29889 105.458094 
L 295.673365 105.458094 
L 295.673365 112.236022 
L 296.045175 112.236022 
L 296.045175 112.566968 
L 296.414358 112.566968 
L 296.414358 107.327261 
L 296.780949 107.327261 
L 296.780949 112.933193 
L 297.144986 112.933193 
L 297.144986 109.033051 
L 297.865537 109.09031 
L 297.865537 110.883042 
L 298.222119 110.883042 
L 298.222119 110.55994 
L 298.576284 110.55994 
L 298.576284 105.639402 
L 298.928064 105.639402 
L 298.928064 106.238103 
L 299.277491 106.238103 
L 299.277491 107.370219 
L 299.624597 107.370219 
L 299.624597 108.403031 
L 299.969411 108.403031 
L 299.969411 109.307274 
L 300.311964 109.307274 
L 300.311964 110.118043 
L 300.652286 110.118043 
L 300.652286 110.847357 
L 300.990405 110.847357 
L 300.990405 111.511039 
L 301.326349 111.511039 
L 301.326349 112.105858 
L 301.660147 112.105858 
L 301.660147 112.650496 
L 301.991826 112.650496 
L 301.991826 113.140765 
L 302.321412 113.140765 
L 302.321412 113.580896 
L 302.648932 113.580896 
L 302.648932 113.986656 
L 302.974411 113.986656 
L 302.974411 114.37341 
L 303.297875 114.37341 
L 303.297875 114.701173 
L 303.619348 114.701173 
L 303.619348 114.94353 
L 303.938856 114.94353 
L 303.938856 115.122125 
L 304.256421 115.122125 
L 304.256421 115.638113 
L 304.572067 115.638113 
L 304.572067 115.854676 
L 304.885817 115.854676 
L 304.885817 116.143075 
L 305.197695 116.143075 
L 305.197695 116.396087 
L 305.507721 116.396087 
L 305.507721 116.648257 
L 305.815919 116.648257 
L 305.815919 116.840764 
L 306.122308 116.840764 
L 306.122308 117.070941 
L 306.426912 117.070941 
L 306.426912 116.467117 
L 306.729749 116.467117 
L 306.729749 117.459712 
L 307.030842 117.459712 
L 307.030842 115.612792 
L 307.330208 115.612792 
L 307.330208 117.570043 
L 307.627869 117.570043 
L 307.627869 117.206795 
L 307.923844 117.206795 
L 307.923844 117.037076 
L 308.218151 117.037076 
L 308.218151 118.426654 
L 308.801837 118.514879 
L 308.801837 118.75843 
L 309.091253 118.75843 
L 309.091253 118.936598 
L 309.379074 118.936598 
L 309.379074 119.148836 
L 309.665318 119.148836 
L 309.665318 119.320917 
L 309.950002 119.320917 
L 309.950002 119.482976 
L 310.233143 119.482976 
L 310.233143 119.648316 
L 310.514758 119.648316 
L 310.514758 119.802556 
L 310.794863 119.802556 
L 310.794863 119.976605 
L 311.073474 119.976605 
L 311.073474 120.164885 
L 311.350607 120.164885 
L 311.350607 120.333091 
L 311.626277 120.333091 
L 311.626277 120.494189 
L 311.900501 120.494189 
L 311.900501 120.619992 
L 312.173292 120.619992 
L 312.173292 120.78898 
L 312.444667 120.78898 
L 312.444667 120.97198 
L 312.714639 120.97198 
L 312.714639 121.148275 
L 312.983223 121.148275 
L 312.983223 121.316272 
L 313.250433 121.316272 
L 313.250433 121.472683 
L 313.516283 121.472683 
L 313.516283 121.607089 
L 313.780788 121.607089 
L 313.780788 121.732741 
L 314.043959 121.732741 
L 314.043959 121.936878 
L 314.305812 121.936878 
L 314.305812 122.113575 
L 314.566359 122.113575 
L 314.566359 122.28322 
L 314.825612 122.28322 
L 314.825612 122.438845 
L 315.083586 122.438845 
L 315.083586 122.578552 
L 315.340292 122.578552 
L 315.340292 122.735256 
L 315.595742 122.735256 
L 315.595742 122.898108 
L 315.84995 122.898108 
L 315.84995 123.060865 
L 316.102926 123.060865 
L 316.102926 123.236137 
L 316.354683 123.236137 
L 316.354683 123.391507 
L 316.605233 123.391507 
L 316.605233 123.540279 
L 316.854587 123.540279 
L 316.854587 123.686446 
L 317.102757 123.686446 
L 317.102757 123.84325 
L 317.349753 123.84325 
L 317.349753 124.008067 
L 317.595586 124.008067 
L 317.595586 124.179837 
L 317.840269 124.179837 
L 317.840269 124.337914 
L 318.08381 124.337914 
L 318.08381 124.48693 
L 318.326222 124.48693 
L 318.326222 124.630828 
L 318.567513 124.630828 
L 318.567513 124.782412 
L 318.807696 124.782412 
L 318.807696 124.944529 
L 319.046779 124.944529 
L 319.046779 125.114637 
L 319.284773 125.114637 
L 319.284773 125.276909 
L 319.521688 125.276909 
L 319.521688 125.427682 
L 319.757533 125.427682 
L 319.757533 125.569613 
L 319.992318 125.569613 
L 319.992318 125.718197 
L 320.226053 125.718197 
L 320.226053 125.875601 
L 320.458746 125.875601 
L 320.458746 126.042498 
L 320.690408 126.042498 
L 320.690408 126.210107 
L 320.921047 126.210107 
L 320.921047 126.362727 
L 321.150672 126.362727 
L 321.150672 126.504195 
L 321.379292 126.504195 
L 321.379292 126.649748 
L 321.606916 126.649748 
L 321.606916 126.803839 
L 321.833553 126.803839 
L 321.833553 126.967291 
L 322.05921 126.967291 
L 322.05921 127.136728 
L 322.283897 127.136728 
L 322.283897 127.291779 
L 322.507622 127.291779 
L 322.507622 127.435929 
L 322.730393 127.435929 
L 322.730393 127.578472 
L 322.952218 127.578472 
L 322.952218 127.729097 
L 323.173105 127.729097 
L 323.173105 127.889246 
L 323.393061 127.889246 
L 323.393061 128.058925 
L 323.612096 128.058925 
L 323.612096 128.218855 
L 323.830216 128.218855 
L 323.830216 128.364646 
L 324.047429 128.364646 
L 324.047429 128.505779 
L 324.263743 128.505779 
L 324.263743 128.653245 
L 324.479165 128.653245 
L 324.479165 128.804105 
L 324.693702 128.804105 
L 324.693702 128.975202 
L 324.907361 128.975202 
L 324.907361 129.14172 
L 325.12015 129.14172 
L 325.12015 129.291507 
L 325.332076 129.291507 
L 325.332076 129.431109 
L 325.543146 129.431109 
L 325.543146 129.57546 
L 325.753367 129.57546 
L 325.753367 129.728013 
L 326.171287 129.824946 
L 326.171287 130.025369 
L 326.58589 129.9277 
L 326.58589 129.859078 
L 326.791964 129.859078 
L 326.791964 130.475441 
L 326.997228 130.475441 
L 326.997228 130.165624 
L 327.201689 130.165624 
L 327.201689 130.77527 
L 327.405353 130.77527 
L 327.405353 130.959544 
L 327.810315 131.02248 
L 327.810315 131.276236 
L 328.011624 131.276236 
L 328.011624 131.416307 
L 328.212161 131.416307 
L 328.212161 131.560692 
L 328.411931 131.560692 
L 328.411931 131.717696 
L 328.610939 131.717696 
L 328.610939 131.880366 
L 328.809193 131.880366 
L 328.809193 132.046303 
L 329.006697 132.046303 
L 329.006697 132.197655 
L 329.203457 132.197655 
L 329.203457 132.336558 
L 329.399479 132.336558 
L 329.399479 132.480037 
L 329.594768 132.480037 
L 329.594768 132.629331 
L 329.78933 132.629331 
L 329.78933 132.790394 
L 329.98317 132.790394 
L 329.98317 132.955653 
L 330.176293 132.955653 
L 330.176293 133.114934 
L 330.368705 133.114934 
L 330.368705 133.254609 
L 330.560411 133.254609 
L 330.560411 133.379583 
L 330.751416 133.379583 
L 330.751416 133.539451 
L 330.941725 133.539451 
L 330.941725 133.694644 
L 331.131343 133.694644 
L 331.131343 133.865218 
L 331.320276 133.865218 
L 331.320276 134.028696 
L 331.508527 134.028696 
L 331.508527 134.171442 
L 331.696103 134.171442 
L 331.696103 134.309338 
L 331.883008 134.309338 
L 331.883008 134.450663 
L 332.069246 134.450663 
L 332.069246 134.602163 
L 332.254823 134.602163 
L 332.254823 134.768769 
L 332.439743 134.768769 
L 332.439743 134.937118 
L 332.62401 134.937118 
L 332.62401 135.087718 
L 332.80763 135.087718 
L 332.80763 135.225314 
L 332.990607 135.225314 
L 332.990607 135.367233 
L 333.172945 135.367233 
L 333.172945 135.516161 
L 333.354649 135.516161 
L 333.354649 135.672751 
L 333.535723 135.672751 
L 333.535723 135.84055 
L 333.716172 135.84055 
L 333.716172 135.999676 
L 333.895999 135.999676 
L 333.895999 136.139667 
L 334.07521 136.139667 
L 334.07521 136.279455 
L 334.253808 136.279455 
L 334.253808 136.425507 
L 334.431797 136.425507 
L 334.431797 136.578477 
L 334.609182 136.578477 
L 334.609182 136.740777 
L 334.785967 136.740777 
L 334.785967 136.907258 
L 334.962155 136.907258 
L 334.962155 137.024903 
L 335.137752 137.024903 
L 335.137752 137.186497 
L 335.31276 137.186497 
L 335.31276 137.331009 
L 335.661027 137.419651 
L 335.661027 137.640725 
L 335.834293 137.640725 
L 335.834293 137.805795 
L 336.006987 137.805795 
L 336.006987 137.952344 
L 336.179112 137.952344 
L 336.179112 138.102276 
L 336.350672 138.102276 
L 336.350672 138.242707 
L 336.52167 138.242707 
L 336.52167 138.389348 
L 336.69211 138.389348 
L 336.69211 138.543595 
L 336.861996 138.543595 
L 336.861996 138.706842 
L 337.031331 138.706842 
L 337.031331 138.871311 
L 337.200119 138.871311 
L 337.200119 139.013721 
L 337.368364 139.013721 
L 337.368364 139.151521 
L 337.536068 139.151521 
L 337.536068 139.295596 
L 337.703236 139.295596 
L 337.703236 139.446173 
L 337.86987 139.446173 
L 337.86987 139.604443 
L 338.035975 139.604443 
L 338.035975 139.771809 
L 338.201553 139.771809 
L 338.201553 139.92353 
L 338.366608 139.92353 
L 338.366608 140.060351 
L 338.531144 140.060351 
L 338.531144 140.201508 
L 338.695162 140.201508 
L 338.695162 140.349126 
L 338.858668 140.349126 
L 338.858668 140.502484 
L 339.021663 140.502484 
L 339.021663 140.666961 
L 339.184151 140.666961 
L 339.184151 140.829771 
L 339.346135 140.829771 
L 339.346135 140.969254 
L 339.507619 140.969254 
L 339.507619 141.107742 
L 339.668605 141.107742 
L 339.668605 141.252266 
L 339.829096 141.252266 
L 339.829096 141.403285 
L 339.989096 141.403285 
L 339.989096 141.561065 
L 340.148607 141.561065 
L 340.148607 141.728634 
L 340.307633 141.728634 
L 340.307633 141.8778 
L 340.466176 141.8778 
L 340.466176 142.013984 
L 340.62424 142.013984 
L 340.62424 142.155562 
L 340.781826 142.155562 
L 340.781826 142.303482 
L 340.938939 142.303482 
L 340.938939 142.458469 
L 341.09558 142.458469 
L 341.09558 142.62229 
L 341.251754 142.62229 
L 341.251754 142.783221 
L 341.407461 142.783221 
L 341.407461 142.920602 
L 341.562707 142.920602 
L 341.562707 143.059487 
L 341.717492 143.059487 
L 341.717492 143.204305 
L 341.871819 143.204305 
L 341.871819 143.355695 
L 342.025693 143.355695 
L 342.025693 143.514792 
L 342.179114 143.514792 
L 342.179114 143.681644 
L 342.332086 143.681644 
L 342.332086 143.828272 
L 342.484612 143.828272 
L 342.484612 143.963488 
L 342.636693 143.963488 
L 342.636693 144.105737 
L 342.788333 144.105737 
L 342.788333 144.253556 
L 342.939534 144.253556 
L 342.939534 144.408917 
L 343.090299 144.408917 
L 343.090299 144.572961 
L 343.24063 144.572961 
L 343.24063 144.368713 
L 343.390529 144.368713 
L 343.390529 144.572368 
L 343.54 144.572368 
L 343.54 144.993826 
L 343.837664 144.994148 
L 343.837664 145.194418 
L 343.985863 145.194418 
L 343.985863 145.460891 
L 344.133642 145.460891 
L 344.133642 145.619374 
L 344.281005 145.619374 
L 344.281005 145.761083 
L 344.427953 145.761083 
L 344.427953 145.908943 
L 344.574488 145.908943 
L 344.574488 146.050753 
L 344.720614 146.050753 
L 344.720614 146.199529 
L 344.866333 146.199529 
L 344.866333 146.354811 
L 345.011645 146.354811 
L 345.011645 146.518764 
L 345.156555 146.518764 
L 345.156555 146.677917 
L 345.301064 146.677917 
L 345.301064 146.812936 
L 345.445175 146.812936 
L 345.445175 146.951011 
L 345.588889 146.951011 
L 345.588889 147.096528 
L 345.732208 147.096528 
L 345.732208 147.24724 
L 345.875136 147.24724 
L 345.875136 147.406806 
L 346.017673 147.406806 
L 346.017673 147.573556 
L 346.159823 147.573556 
L 346.159823 147.716911 
L 346.301587 147.716911 
L 346.301587 147.851854 
L 346.442967 147.851854 
L 346.442967 147.993415 
L 346.583966 147.993415 
L 346.583966 148.139107 
L 346.724585 148.139107 
L 346.724585 148.291082 
L 346.864827 148.291082 
L 346.864827 148.460492 
L 347.004693 148.460492 
L 347.004693 148.620247 
L 347.144186 148.620247 
L 347.144186 148.754255 
L 347.283307 148.754255 
L 347.283307 148.891304 
L 347.422059 148.891304 
L 347.422059 149.035963 
L 347.560443 149.035963 
L 347.560443 149.175001 
L 347.698461 149.175001 
L 347.698461 149.343537 
L 347.836116 149.343537 
L 347.836116 149.512737 
L 347.973409 149.512737 
L 347.973409 149.657562 
L 348.110343 149.657562 
L 348.110343 149.790051 
L 348.246918 149.790051 
L 348.246918 149.933007 
L 348.383137 149.933007 
L 348.383137 150.07935 
L 348.519002 150.07935 
L 348.519002 150.230724 
L 348.654514 150.230724 
L 348.654514 150.395901 
L 348.789676 150.395901 
L 348.789676 150.558747 
L 348.924489 150.558747 
L 348.924489 150.692469 
L 349.058955 150.692469 
L 349.058955 150.82978 
L 349.193076 150.82978 
L 349.193076 150.974608 
L 349.326853 150.974608 
L 349.326853 151.125382 
L 349.460289 151.125382 
L 349.460289 151.281849 
L 349.593384 151.281849 
L 349.593384 151.449771 
L 349.726142 151.449771 
L 349.726142 151.592234 
L 349.858563 151.592234 
L 349.858563 151.725206 
L 349.990649 151.725206 
L 349.990649 151.867717 
L 350.122402 151.867717 
L 350.122402 152.017983 
L 350.253823 152.017983 
L 350.253823 152.165142 
L 350.384915 152.165142 
L 350.384915 152.330353 
L 350.515679 152.330353 
L 350.515679 152.495285 
L 350.646116 152.495285 
L 350.646116 152.626408 
L 350.776228 152.626408 
L 350.776228 152.764538 
L 350.906017 152.764538 
L 350.906017 152.90978 
L 351.035484 152.90978 
L 351.035484 153.058023 
L 351.164631 153.058023 
L 351.164631 153.217477 
L 351.29346 153.217477 
L 351.29346 153.371618 
L 351.421972 153.371618 
L 351.421972 153.518591 
L 351.550168 153.518591 
L 351.550168 153.651805 
L 351.678051 153.651805 
L 351.678051 153.791856 
L 351.805622 153.791856 
L 351.805622 153.939492 
L 351.932881 153.939492 
L 351.932881 154.093583 
L 352.059831 154.093583 
L 352.059831 154.256059 
L 352.186474 154.256059 
L 352.186474 154.421052 
L 352.31281 154.421052 
L 352.31281 154.555121 
L 352.438842 154.555121 
L 352.438842 154.697088 
L 352.56457 154.697088 
L 352.56457 154.828009 
L 352.689996 154.828009 
L 352.689996 154.984329 
L 352.815122 154.984329 
L 352.815122 155.148359 
L 352.939949 155.148359 
L 352.939949 155.300456 
L 353.064479 155.300456 
L 353.064479 155.449214 
L 353.188712 155.449214 
L 353.188712 155.581317 
L 353.31265 155.581317 
L 353.31265 155.720796 
L 353.436296 155.720796 
L 353.436296 155.881078 
L 353.559649 155.881078 
L 353.559649 156.03671 
L 353.682711 156.03671 
L 353.682711 156.167209 
L 353.805485 156.167209 
L 353.805485 156.338808 
L 353.92797 156.338808 
L 353.92797 156.465685 
L 354.050169 156.465685 
L 354.050169 156.637455 
L 354.172083 156.637455 
L 354.172083 156.761316 
L 354.293713 156.761316 
L 354.293713 156.911224 
L 354.415061 156.911224 
L 354.415061 157.067989 
L 354.536127 157.067989 
L 354.536127 157.207845 
L 354.656913 157.207845 
L 354.656913 157.382261 
L 354.777421 157.382261 
L 354.777421 157.512953 
L 354.897651 157.512953 
L 354.897651 157.650163 
L 355.017606 157.650163 
L 355.017606 157.795228 
L 355.137285 157.795228 
L 355.137285 157.981814 
L 355.375825 158.071188 
L 355.375825 158.276047 
L 355.494687 158.276047 
L 355.494687 158.414584 
L 355.731604 158.519942 
L 355.731604 158.719164 
L 355.967451 158.788372 
L 355.967451 159.005363 
L 356.202239 159.082181 
L 356.202239 159.325454 
L 356.435975 159.409116 
L 356.435975 159.6192 
L 356.668671 159.708598 
L 356.668671 159.805716 
L 356.784631 159.805716 
L 356.784631 160.051582 
L 357.015783 160.152788 
L 357.015783 160.262823 
L 357.130976 160.262823 
L 357.130976 160.558382 
L 357.245915 160.558382 
L 357.245915 160.679429 
L 357.475039 160.702792 
L 357.475039 160.836105 
L 357.589225 160.836105 
L 357.589225 161.211042 
L 357.703162 161.211042 
L 357.703162 161.36242 
L 358.04349 161.407032 
L 358.04349 161.565281 
L 358.269149 161.49115 
L 358.269149 162.064937 
L 358.493838 162.137586 
L 358.493838 162.350913 
L 358.82907 162.399293 
L 358.82907 162.637579 
L 359.162164 162.694154 
L 359.272725 163.567514 
L 359.603011 163.611666 
L 359.712644 164.031747 
L 360.257385 164.114975 
L 360.365654 164.615959 
L 360.903662 164.69225 
L 361.010602 164.757516 
L 361.117324 164.757516 
L 361.223828 167.548617 
L 361.647685 167.655979 
L 361.753114 167.725883 
L 362.172716 167.827365 
L 362.277092 167.885026 
L 362.692522 167.971682 
L 362.692522 172.569598 
L 362.795866 168.021096 
L 363.104676 168.099791 
L 363.207208 173.415678 
L 363.41167 173.457885 
L 363.513602 173.597222 
L 363.615336 173.597222 
L 363.716872 174.104093 
L 363.919353 174.186559 
L 364.0203 174.472886 
L 364.321977 174.528482 
L 364.42215 175.251918 
L 364.621921 175.361337 
L 364.721521 175.827897 
L 364.820931 175.827897 
L 364.920153 176.01496 
L 365.216692 176.102074 
L 365.315165 176.258929 
L 365.413454 176.258929 
L 365.511557 177.067684 
L 365.609477 177.067684 
L 365.609477 176.685458 
L 365.707213 177.262693 
L 365.90214 177.225537 
L 365.999331 179.145403 
L 366.096341 179.145403 
L 366.096341 177.583077 
L 366.193172 177.602561 
L 366.289823 177.602561 
L 366.386297 179.794781 
L 366.482592 179.794781 
L 366.57871 180.059968 
L 366.674651 180.059968 
L 366.770417 180.816317 
L 366.961423 180.76824 
L 367.056665 181.294667 
L 367.24663 181.390898 
L 367.341354 181.675794 
L 367.435906 181.675794 
L 367.530288 182.031962 
L 367.812413 182.111541 
L 367.812413 182.872047 
L 367.906118 182.476508 
L 367.999654 182.476508 
L 368.093024 183.245504 
L 368.464842 183.326832 
L 368.557384 183.575888 
L 368.741978 183.65054 
L 368.834032 184.628519 
L 369.017653 184.707668 
L 369.109222 184.866733 
L 369.29188 184.942165 
L 369.38297 185.098367 
L 369.564675 185.165636 
L 369.655292 185.28935 
L 369.836054 185.344453 
L 369.926201 185.477106 
L 370.195712 185.574476 
L 370.285241 188.28624 
L 370.374617 188.28624 
L 370.374617 185.721577 
L 370.46384 188.593807 
L 370.552911 188.593807 
L 370.641831 188.910626 
L 370.730599 188.910626 
L 370.819217 189.145122 
L 370.907685 189.145122 
L 370.996003 189.509956 
L 371.084172 189.509956 
L 371.172193 189.813946 
L 371.34779 189.891071 
L 371.435368 190.156765 
L 371.5228 190.156765 
L 371.610085 190.459786 
L 371.697224 190.459786 
L 371.784219 190.798853 
L 371.957775 190.883834 
L 372.044337 191.201302 
L 372.217032 191.29337 
L 372.303166 191.729241 
L 372.475009 191.786029 
L 372.560719 191.964769 
L 372.646288 191.964769 
L 372.731718 192.417411 
L 372.902159 192.493044 
L 372.987172 192.735065 
L 373.072046 192.735065 
L 373.156783 193.253694 
L 373.410172 193.361024 
L 373.494362 193.590956 
L 373.578417 193.590956 
L 373.662337 193.714649 
L 373.662337 193.714649 
L 373.746123 193.714649 
L 373.829774 194.537953 
L 373.996676 194.537953 
L 373.996676 194.283694 
L 374.079927 194.92263 
L 374.328888 194.959391 
L 374.411612 195.180753 
L 374.411612 195.180753 
L 374.494205 195.180753 
L 374.576668 195.694604 
L 374.659001 195.694604 
L 374.659001 195.424145 
L 374.741204 195.694752 
L 374.987041 195.694752 
L 374.987041 195.999082 
L 375.06873 195.999082 
L 375.313034 195.99925 
L 375.394216 198.231553 
L 375.717686 198.231553 
L 375.798241 199.218739 
L 376.199166 199.218739 
L 376.199166 200.905356 
L 376.278983 199.218739 
L 376.517705 199.218739 
L 376.517705 200.905356 
L 376.597037 200.905356 
L 376.755341 200.905356 
L 376.755341 199.218739 
L 376.834313 200.905356 
L 377.850236 200.906617 
L 377.850236 295.488 
L 377.927572 295.488 
L 398.487273 295.488 
L 398.487273 295.488 
" clip-path="url(#pe90c565d10)" style="fill: none; stroke: #1f77b4; stroke-width: 1.5; stroke-linecap: square"/>
   </g>
   <g id="line2d_36">
    <path d="M 73.832727 67.570926 
L 94.979609 67.570926 
L 94.979609 67.422751 
L 109.990851 67.422751 
L 109.990851 68.44299 
L 121.637533 68.44299 
L 121.637533 69.201444 
L 131.155137 69.201444 
L 131.155137 69.904015 
L 139.203071 69.904015 
L 139.203071 71.156357 
L 146.175088 71.156357 
L 146.175088 74.673044 
L 152.325231 74.673044 
L 152.325231 75.988731 
L 157.826997 75.988731 
L 157.826997 74.895262 
L 162.804151 74.895262 
L 162.804151 71.189341 
L 167.348087 71.189341 
L 167.348087 72.469099 
L 171.528221 72.469099 
L 171.528221 73.673553 
L 175.398512 73.673553 
L 175.398512 74.796712 
L 179.001741 74.796712 
L 179.001741 75.784682 
L 182.372396 75.784682 
L 182.372396 76.690578 
L 185.53869 76.690578 
L 185.53869 77.596091 
L 188.523993 77.596091 
L 188.523993 78.422177 
L 191.347882 78.422177 
L 191.347882 78.979196 
L 194.026921 78.979196 
L 194.026921 79.501212 
L 196.575248 79.501212 
L 196.575248 80.274439 
L 199.005026 80.274439 
L 199.005026 80.788049 
L 201.326797 80.788049 
L 201.326797 81.448294 
L 203.549755 81.448294 
L 203.549755 82.142008 
L 205.68197 82.142008 
L 205.68197 82.505066 
L 207.730559 82.505066 
L 207.730559 83.126552 
L 209.701837 83.126552 
L 209.701837 83.51867 
L 211.601425 83.51867 
L 211.601425 83.362864 
L 213.434357 83.362864 
L 213.434357 84.052405 
L 215.205153 84.052405 
L 215.205153 84.708561 
L 216.917886 84.708561 
L 216.917886 85.263401 
L 218.576244 85.263401 
L 218.576244 85.864299 
L 220.183574 85.864299 
L 220.183574 85.979777 
L 221.742923 85.979777 
L 221.742923 86.38224 
L 223.257072 86.38224 
L 223.257072 86.988147 
L 224.728568 86.988147 
L 224.728568 87.543085 
L 226.159748 87.543085 
L 226.159748 87.950988 
L 227.552763 87.950988 
L 227.552763 88.365972 
L 228.909596 88.365972 
L 228.909596 88.81394 
L 230.232078 88.81394 
L 230.232078 89.240222 
L 231.521906 89.240222 
L 231.521906 88.852727 
L 232.780653 88.852727 
L 232.780653 89.288354 
L 234.009784 89.288354 
L 234.009784 89.82552 
L 235.210658 89.82552 
L 235.210658 90.296708 
L 236.384547 90.296708 
L 236.384547 90.688214 
L 237.532636 90.688214 
L 237.532636 91.051241 
L 238.656035 91.051241 
L 238.656035 91.391462 
L 239.755784 91.391462 
L 239.755784 91.699607 
L 240.832858 91.699607 
L 240.832858 91.967089 
L 241.888173 91.967089 
L 241.888173 92.243596 
L 242.922591 92.243596 
L 242.922591 92.529533 
L 243.936923 92.529533 
L 243.936923 92.810881 
L 244.931935 92.810881 
L 244.931935 93.086247 
L 245.90835 93.086247 
L 245.90835 93.358332 
L 246.866848 93.358332 
L 246.866848 93.663001 
L 247.808077 93.663001 
L 247.808077 93.137087 
L 248.732647 93.137087 
L 248.732647 93.543476 
L 249.641138 93.543476 
L 249.641138 94.140957 
L 250.534099 94.140957 
L 250.534099 94.698349 
L 251.412053 94.698349 
L 251.412053 95.337527 
L 252.275496 95.337527 
L 252.275496 95.550769 
L 253.124899 95.550769 
L 253.124899 96.416633 
L 253.960712 96.416633 
L 253.960712 96.784455 
L 254.783363 96.784455 
L 254.783363 97.124093 
L 255.59326 97.124093 
L 255.59326 97.399099 
L 256.390792 97.399099 
L 256.390792 97.580166 
L 257.176332 97.580166 
L 257.176332 97.81428 
L 257.950234 97.81428 
L 257.950234 98.122706 
L 258.712839 98.122706 
L 258.712839 98.292377 
L 260.205442 98.263981 
L 260.205442 98.645067 
L 260.93605 98.645067 
L 260.93605 99.04661 
L 261.656581 99.04661 
L 261.656581 99.297065 
L 262.367309 99.297065 
L 262.367309 99.650018 
L 263.068497 99.650018 
L 263.068497 99.839316 
L 263.760398 99.839316 
L 263.760398 100.100114 
L 265.117301 99.993923 
L 265.117301 94.99617 
L 265.782761 94.99617 
L 265.782761 93.407012 
L 266.439851 93.407012 
L 266.439851 94.568211 
L 267.088777 94.568211 
L 267.088777 95.600283 
L 267.729742 95.600283 
L 267.729742 96.525353 
L 268.362938 96.525353 
L 268.362938 97.352461 
L 268.988551 97.352461 
L 268.988551 98.085405 
L 269.60676 98.085405 
L 269.60676 98.583651 
L 270.217739 98.583651 
L 270.217739 98.971356 
L 270.821655 98.971356 
L 270.821655 100.03344 
L 271.418669 100.03344 
L 271.418669 100.54883 
L 272.008937 100.54883 
L 272.008937 101.038378 
L 272.59261 101.038378 
L 272.59261 101.464031 
L 273.169834 101.464031 
L 273.169834 101.877785 
L 273.74075 101.877785 
L 273.74075 102.253054 
L 274.305494 102.253054 
L 274.305494 102.57341 
L 274.864197 102.57341 
L 274.864197 102.785913 
L 275.416989 102.785913 
L 275.416989 102.969655 
L 275.963993 102.969655 
L 275.963993 103.432695 
L 276.505328 103.432695 
L 276.505328 103.765538 
L 277.041111 103.765538 
L 277.041111 103.538733 
L 278.096469 103.529345 
L 278.096469 104.06028 
L 278.616259 104.06028 
L 278.616259 104.475861 
L 279.130928 104.475861 
L 279.130928 104.637411 
L 279.640576 104.637411 
L 279.640576 105.048054 
L 280.1453 105.048054 
L 280.1453 105.181939 
L 280.645194 105.181939 
L 280.645194 105.305022 
L 281.14035 105.305022 
L 281.14035 105.511597 
L 282.598266 105.593204 
L 282.598266 105.374839 
L 283.075335 105.374839 
L 283.075335 103.052773 
L 283.548086 103.052773 
L 283.548086 101.297644 
L 284.016597 101.297644 
L 284.016597 102.183643 
L 284.480944 102.183643 
L 284.480944 103.253656 
L 284.9412 103.253656 
L 284.9412 103.524398 
L 285.397437 103.524398 
L 285.397437 104.959814 
L 285.849723 104.959814 
L 285.849723 105.74224 
L 286.298127 105.74224 
L 286.298127 106.352905 
L 286.742715 106.352905 
L 286.742715 106.821832 
L 287.183551 106.821832 
L 287.183551 107.309697 
L 287.620698 107.309697 
L 287.620698 107.680389 
L 288.054218 107.680389 
L 288.054218 108.118507 
L 288.48417 108.118507 
L 288.48417 108.439832 
L 288.910612 108.439832 
L 288.910612 108.66737 
L 289.753192 108.736907 
L 289.753192 109.320955 
L 291.398648 109.272122 
L 291.398648 109.9472 
L 291.802039 109.9472 
L 291.802039 110.150831 
L 292.20234 110.150831 
L 292.20234 110.566819 
L 292.599596 110.566819 
L 292.599596 110.285855 
L 292.993854 110.285855 
L 292.993854 109.177629 
L 293.385159 109.177629 
L 293.385159 111.16972 
L 294.159085 111.074324 
L 294.159085 111.32456 
L 295.29889 111.419731 
L 295.29889 111.454599 
L 295.673365 111.454599 
L 295.673365 112.236022 
L 296.045175 112.236022 
L 296.045175 112.566968 
L 296.780949 112.660447 
L 296.780949 112.933193 
L 297.865537 113.0131 
L 297.865537 113.159873 
L 298.222119 113.159873 
L 298.222119 112.714557 
L 298.576284 112.714557 
L 298.576284 105.639408 
L 298.928064 105.639408 
L 298.928064 106.238511 
L 299.277491 106.238511 
L 299.277491 107.370246 
L 299.624597 107.370246 
L 299.624597 108.403031 
L 299.969411 108.403031 
L 299.969411 109.307274 
L 300.311964 109.307274 
L 300.311964 110.118067 
L 300.652286 110.118067 
L 300.652286 110.847374 
L 300.990405 110.847374 
L 300.990405 111.512605 
L 301.326349 111.512605 
L 301.326349 112.105901 
L 301.660147 112.105901 
L 301.660147 112.650528 
L 301.991826 112.650528 
L 301.991826 113.14078 
L 302.321412 113.14078 
L 302.321412 113.580896 
L 302.648932 113.580896 
L 302.648932 113.986656 
L 302.974411 113.986656 
L 302.974411 114.373425 
L 303.297875 114.373425 
L 303.297875 114.701173 
L 303.619348 114.701173 
L 303.619348 114.945915 
L 303.938856 114.945915 
L 303.938856 115.122125 
L 304.256421 115.122125 
L 304.256421 115.638113 
L 304.572067 115.638113 
L 304.572067 115.854676 
L 304.885817 115.854676 
L 304.885817 116.144609 
L 305.197695 116.144609 
L 305.197695 116.396087 
L 305.507721 116.396087 
L 305.507721 116.649201 
L 305.815919 116.649201 
L 305.815919 116.840764 
L 306.122308 116.840764 
L 306.122308 117.071994 
L 306.426912 117.071994 
L 306.426912 116.467481 
L 306.729749 116.467481 
L 306.729749 117.459908 
L 307.030842 117.459908 
L 307.030842 115.612792 
L 307.330208 115.612792 
L 307.330208 117.570043 
L 307.627869 117.570043 
L 307.627869 117.206795 
L 307.923844 117.206795 
L 307.923844 117.037076 
L 308.218151 117.037076 
L 308.218151 118.426654 
L 308.801837 118.514879 
L 308.801837 118.75843 
L 309.091253 118.75843 
L 309.091253 118.956194 
L 309.379074 118.956194 
L 309.379074 119.148881 
L 309.665318 119.148881 
L 309.665318 119.321538 
L 309.950002 119.321538 
L 309.950002 119.485377 
L 310.233143 119.485377 
L 310.233143 119.648316 
L 310.514758 119.648316 
L 310.514758 119.802556 
L 310.794863 119.802556 
L 310.794863 119.976605 
L 311.073474 119.976605 
L 311.073474 120.164885 
L 311.350607 120.164885 
L 311.350607 120.333091 
L 311.626277 120.333091 
L 311.626277 120.494189 
L 311.900501 120.494189 
L 311.900501 120.619992 
L 312.173292 120.619992 
L 312.173292 120.78898 
L 312.444667 120.78898 
L 312.444667 120.97198 
L 312.714639 120.97198 
L 312.714639 121.148275 
L 312.983223 121.148275 
L 312.983223 121.316272 
L 313.250433 121.316272 
L 313.250433 121.472683 
L 313.516283 121.472683 
L 313.516283 121.607089 
L 313.780788 121.607089 
L 313.780788 121.732741 
L 314.043959 121.732741 
L 314.043959 121.936878 
L 314.305812 121.936878 
L 314.305812 122.113575 
L 314.566359 122.113575 
L 314.566359 122.28322 
L 314.825612 122.28322 
L 314.825612 122.438845 
L 315.083586 122.438845 
L 315.083586 122.578552 
L 315.340292 122.578552 
L 315.340292 122.735256 
L 315.595742 122.735256 
L 315.595742 122.898108 
L 315.84995 122.898108 
L 315.84995 123.060865 
L 316.102926 123.060865 
L 316.102926 123.236359 
L 316.354683 123.236359 
L 316.354683 123.391507 
L 316.605233 123.391507 
L 316.605233 123.540279 
L 316.854587 123.540279 
L 316.854587 123.686446 
L 317.102757 123.686446 
L 317.102757 123.84325 
L 317.349753 123.84325 
L 317.349753 124.008067 
L 317.595586 124.008067 
L 317.595586 124.179837 
L 317.840269 124.179837 
L 317.840269 124.337914 
L 318.08381 124.337914 
L 318.08381 124.487262 
L 318.326222 124.487262 
L 318.326222 124.630828 
L 318.567513 124.630828 
L 318.567513 124.782412 
L 318.807696 124.782412 
L 318.807696 124.944529 
L 319.046779 124.944529 
L 319.046779 125.114637 
L 319.284773 125.114637 
L 319.284773 125.276909 
L 319.521688 125.276909 
L 319.521688 125.427682 
L 319.757533 125.427682 
L 319.757533 125.569613 
L 319.992318 125.569613 
L 319.992318 125.718197 
L 320.226053 125.718197 
L 320.226053 125.875601 
L 320.458746 125.875601 
L 320.458746 126.042498 
L 320.690408 126.042498 
L 320.690408 126.210107 
L 320.921047 126.210107 
L 320.921047 126.362727 
L 321.150672 126.362727 
L 321.150672 126.504195 
L 321.379292 126.504195 
L 321.379292 126.649748 
L 321.606916 126.649748 
L 321.606916 126.803839 
L 321.833553 126.803839 
L 321.833553 126.967291 
L 322.05921 126.967291 
L 322.05921 127.136728 
L 322.283897 127.136728 
L 322.283897 127.291779 
L 322.507622 127.291779 
L 322.507622 127.435929 
L 322.730393 127.435929 
L 322.730393 127.578472 
L 322.952218 127.578472 
L 322.952218 127.729097 
L 323.173105 127.729097 
L 323.173105 127.889246 
L 323.393061 127.889246 
L 323.393061 128.058925 
L 323.612096 128.058925 
L 323.612096 128.218855 
L 323.830216 128.218855 
L 323.830216 128.364646 
L 324.047429 128.364646 
L 324.047429 128.505779 
L 324.263743 128.505779 
L 324.263743 128.653245 
L 324.479165 128.653245 
L 324.479165 128.808666 
L 324.693702 128.808666 
L 324.693702 128.975202 
L 324.907361 128.975202 
L 324.907361 129.14172 
L 325.12015 129.14172 
L 325.12015 129.291507 
L 325.332076 129.291507 
L 325.332076 129.431109 
L 325.543146 129.431109 
L 325.543146 129.57546 
L 325.753367 129.57546 
L 325.753367 129.728013 
L 326.171287 129.824946 
L 326.171287 130.025369 
L 326.58589 129.9277 
L 326.58589 129.859078 
L 326.791964 129.859078 
L 326.791964 130.475441 
L 326.997228 130.475441 
L 326.997228 130.165624 
L 327.201689 130.165624 
L 327.201689 130.77527 
L 327.405353 130.77527 
L 327.405353 130.959544 
L 327.810315 131.02248 
L 327.810315 131.276236 
L 328.011624 131.276236 
L 328.011624 131.416307 
L 328.212161 131.416307 
L 328.212161 131.560692 
L 328.411931 131.560692 
L 328.411931 131.717696 
L 328.610939 131.717696 
L 328.610939 131.880366 
L 328.809193 131.880366 
L 328.809193 132.046303 
L 329.006697 132.046303 
L 329.006697 132.197655 
L 329.203457 132.197655 
L 329.203457 132.336558 
L 329.399479 132.336558 
L 329.399479 132.480037 
L 329.594768 132.480037 
L 329.594768 132.629331 
L 329.78933 132.629331 
L 329.78933 132.790394 
L 329.98317 132.790394 
L 329.98317 132.955653 
L 330.176293 132.955653 
L 330.176293 133.114934 
L 330.368705 133.114934 
L 330.368705 133.254609 
L 330.560411 133.254609 
L 330.560411 133.379583 
L 330.751416 133.379583 
L 330.751416 133.539451 
L 330.941725 133.539451 
L 330.941725 133.694644 
L 331.131343 133.694644 
L 331.131343 133.865218 
L 331.320276 133.865218 
L 331.320276 134.028696 
L 331.508527 134.028696 
L 331.508527 134.171442 
L 331.696103 134.171442 
L 331.696103 134.309338 
L 331.883008 134.309338 
L 331.883008 134.450663 
L 332.069246 134.450663 
L 332.069246 134.602163 
L 332.254823 134.602163 
L 332.254823 134.768769 
L 332.439743 134.768769 
L 332.439743 134.937118 
L 332.62401 134.937118 
L 332.62401 135.087718 
L 332.80763 135.087718 
L 332.80763 135.225314 
L 332.990607 135.225314 
L 332.990607 135.367233 
L 333.172945 135.367233 
L 333.172945 135.516161 
L 333.354649 135.516161 
L 333.354649 135.672751 
L 333.535723 135.672751 
L 333.535723 135.84055 
L 333.716172 135.84055 
L 333.716172 135.999676 
L 333.895999 135.999676 
L 333.895999 136.139667 
L 334.07521 136.139667 
L 334.07521 136.279455 
L 334.253808 136.279455 
L 334.253808 136.425507 
L 334.431797 136.425507 
L 334.431797 136.578477 
L 334.609182 136.578477 
L 334.609182 136.740777 
L 334.785967 136.740777 
L 334.785967 136.907258 
L 334.962155 136.907258 
L 334.962155 137.024903 
L 335.137752 137.024903 
L 335.137752 137.186497 
L 335.31276 137.186497 
L 335.31276 137.331009 
L 335.661027 137.419651 
L 335.661027 137.640725 
L 335.834293 137.640725 
L 335.834293 137.805795 
L 336.006987 137.805795 
L 336.006987 137.952344 
L 336.179112 137.952344 
L 336.179112 138.102276 
L 336.350672 138.102276 
L 336.350672 138.242707 
L 336.52167 138.242707 
L 336.52167 138.389348 
L 336.69211 138.389348 
L 336.69211 138.543595 
L 336.861996 138.543595 
L 336.861996 138.706842 
L 337.031331 138.706842 
L 337.031331 138.871311 
L 337.200119 138.871311 
L 337.200119 139.013721 
L 337.368364 139.013721 
L 337.368364 139.151521 
L 337.536068 139.151521 
L 337.536068 139.295596 
L 337.703236 139.295596 
L 337.703236 139.446173 
L 337.86987 139.446173 
L 337.86987 139.604443 
L 338.035975 139.604443 
L 338.035975 139.771809 
L 338.201553 139.771809 
L 338.201553 139.92353 
L 338.366608 139.92353 
L 338.366608 140.060351 
L 338.531144 140.060351 
L 338.531144 140.201508 
L 338.695162 140.201508 
L 338.695162 140.349126 
L 338.858668 140.349126 
L 338.858668 140.502484 
L 339.021663 140.502484 
L 339.021663 140.666961 
L 339.184151 140.666961 
L 339.184151 140.829771 
L 339.346135 140.829771 
L 339.346135 140.969254 
L 339.507619 140.969254 
L 339.507619 141.107742 
L 339.668605 141.107742 
L 339.668605 141.252266 
L 339.829096 141.252266 
L 339.829096 141.403285 
L 339.989096 141.403285 
L 339.989096 141.561065 
L 340.148607 141.561065 
L 340.148607 141.728634 
L 340.307633 141.728634 
L 340.307633 141.8778 
L 340.466176 141.8778 
L 340.466176 142.013984 
L 340.62424 142.013984 
L 340.62424 142.155562 
L 340.781826 142.155562 
L 340.781826 142.303482 
L 340.938939 142.303482 
L 340.938939 142.458469 
L 341.09558 142.458469 
L 341.09558 142.62229 
L 341.251754 142.62229 
L 341.251754 142.783221 
L 341.407461 142.783221 
L 341.407461 142.920602 
L 341.562707 142.920602 
L 341.562707 143.059487 
L 341.717492 143.059487 
L 341.717492 143.204305 
L 341.871819 143.204305 
L 341.871819 143.355695 
L 342.025693 143.355695 
L 342.025693 143.514792 
L 342.179114 143.514792 
L 342.179114 143.681644 
L 342.332086 143.681644 
L 342.332086 143.828272 
L 342.484612 143.828272 
L 342.484612 143.963488 
L 342.636693 143.963488 
L 342.636693 144.105737 
L 342.788333 144.105737 
L 342.788333 144.253556 
L 342.939534 144.253556 
L 342.939534 144.408917 
L 343.090299 144.408917 
L 343.090299 144.572961 
L 343.24063 144.572961 
L 343.24063 144.368713 
L 343.390529 144.368713 
L 343.390529 144.572368 
L 343.54 144.572368 
L 343.54 144.993826 
L 343.837664 144.994148 
L 343.837664 145.194418 
L 343.985863 145.194418 
L 343.985863 145.460891 
L 344.133642 145.460891 
L 344.133642 145.619374 
L 344.281005 145.619374 
L 344.281005 145.761083 
L 344.427953 145.761083 
L 344.427953 145.908943 
L 344.574488 145.908943 
L 344.574488 146.050753 
L 344.720614 146.050753 
L 344.720614 146.199529 
L 344.866333 146.199529 
L 344.866333 146.354811 
L 345.011645 146.354811 
L 345.011645 146.518764 
L 345.156555 146.518764 
L 345.156555 146.677917 
L 345.301064 146.677917 
L 345.301064 146.812936 
L 345.445175 146.812936 
L 345.445175 146.951011 
L 345.588889 146.951011 
L 345.588889 147.096528 
L 345.732208 147.096528 
L 345.732208 147.24724 
L 345.875136 147.24724 
L 345.875136 147.406806 
L 346.017673 147.406806 
L 346.017673 147.573556 
L 346.159823 147.573556 
L 346.159823 147.716911 
L 346.301587 147.716911 
L 346.301587 147.851854 
L 346.442967 147.851854 
L 346.442967 147.993415 
L 346.583966 147.993415 
L 346.583966 148.139107 
L 346.724585 148.139107 
L 346.724585 148.291082 
L 346.864827 148.291082 
L 346.864827 148.460492 
L 347.004693 148.460492 
L 347.004693 148.620247 
L 347.144186 148.620247 
L 347.144186 148.754255 
L 347.283307 148.754255 
L 347.283307 148.891304 
L 347.422059 148.891304 
L 347.422059 149.035963 
L 347.560443 149.035963 
L 347.560443 149.175001 
L 347.698461 149.175001 
L 347.698461 149.343537 
L 347.836116 149.343537 
L 347.836116 149.512737 
L 347.973409 149.512737 
L 347.973409 149.657562 
L 348.110343 149.657562 
L 348.110343 149.790051 
L 348.246918 149.790051 
L 348.246918 149.933007 
L 348.383137 149.933007 
L 348.383137 150.07935 
L 348.519002 150.07935 
L 348.519002 150.230724 
L 348.654514 150.230724 
L 348.654514 150.395901 
L 348.789676 150.395901 
L 348.789676 150.558747 
L 348.924489 150.558747 
L 348.924489 150.692469 
L 349.058955 150.692469 
L 349.058955 150.82978 
L 349.193076 150.82978 
L 349.193076 150.974608 
L 349.326853 150.974608 
L 349.326853 151.125382 
L 349.460289 151.125382 
L 349.460289 151.281849 
L 349.593384 151.281849 
L 349.593384 151.449771 
L 349.726142 151.449771 
L 349.726142 151.592234 
L 349.858563 151.592234 
L 349.858563 151.725206 
L 349.990649 151.725206 
L 349.990649 151.867717 
L 350.122402 151.867717 
L 350.122402 152.017983 
L 350.253823 152.017983 
L 350.253823 152.165142 
L 350.384915 152.165142 
L 350.384915 152.330353 
L 350.515679 152.330353 
L 350.515679 152.495285 
L 350.646116 152.495285 
L 350.646116 152.626408 
L 350.776228 152.626408 
L 350.776228 152.764538 
L 350.906017 152.764538 
L 350.906017 152.90978 
L 351.035484 152.90978 
L 351.035484 153.058023 
L 351.164631 153.058023 
L 351.164631 153.217477 
L 351.29346 153.217477 
L 351.29346 153.371618 
L 351.421972 153.371618 
L 351.421972 153.518591 
L 351.550168 153.518591 
L 351.550168 153.651805 
L 351.678051 153.651805 
L 351.678051 153.791856 
L 351.805622 153.791856 
L 351.805622 153.939492 
L 351.932881 153.939492 
L 351.932881 154.093583 
L 352.059831 154.093583 
L 352.059831 154.256059 
L 352.186474 154.256059 
L 352.186474 154.421052 
L 352.31281 154.421052 
L 352.31281 154.555121 
L 352.438842 154.555121 
L 352.438842 154.697088 
L 352.56457 154.697088 
L 352.56457 154.828009 
L 352.689996 154.828009 
L 352.689996 154.984329 
L 352.815122 154.984329 
L 352.815122 155.148359 
L 352.939949 155.148359 
L 352.939949 155.300456 
L 353.064479 155.300456 
L 353.064479 155.449214 
L 353.188712 155.449214 
L 353.188712 155.581317 
L 353.31265 155.581317 
L 353.31265 155.720796 
L 353.436296 155.720796 
L 353.436296 155.881078 
L 353.559649 155.881078 
L 353.559649 156.03671 
L 353.682711 156.03671 
L 353.682711 156.167209 
L 353.805485 156.167209 
L 353.805485 156.338808 
L 353.92797 156.338808 
L 353.92797 156.465685 
L 354.050169 156.465685 
L 354.050169 156.637455 
L 354.172083 156.637455 
L 354.172083 156.761316 
L 354.293713 156.761316 
L 354.293713 156.911224 
L 354.415061 156.911224 
L 354.415061 157.067989 
L 354.536127 157.067989 
L 354.536127 157.207845 
L 354.656913 157.207845 
L 354.656913 157.382261 
L 354.777421 157.382261 
L 354.777421 157.512953 
L 354.897651 157.512953 
L 354.897651 157.650163 
L 355.017606 157.650163 
L 355.017606 157.795228 
L 355.137285 157.795228 
L 355.137285 157.981814 
L 355.375825 158.071188 
L 355.375825 158.276047 
L 355.494687 158.276047 
L 355.494687 158.414584 
L 355.731604 158.519942 
L 355.731604 158.719164 
L 355.967451 158.788372 
L 355.967451 159.005363 
L 356.202239 159.082181 
L 356.202239 159.325454 
L 356.435975 159.409116 
L 356.435975 159.6192 
L 356.668671 159.708598 
L 356.668671 159.805716 
L 356.784631 159.805716 
L 356.784631 160.051582 
L 357.015783 160.152788 
L 357.015783 160.262823 
L 357.130976 160.262823 
L 357.130976 160.558382 
L 357.245915 160.558382 
L 357.245915 160.679429 
L 357.475039 160.702792 
L 357.475039 160.836105 
L 357.589225 160.836105 
L 357.589225 161.211042 
L 357.703162 161.211042 
L 357.703162 161.36242 
L 358.04349 161.407032 
L 358.04349 161.565281 
L 358.269149 161.49115 
L 358.269149 162.064937 
L 358.493838 162.137586 
L 358.493838 162.350913 
L 358.82907 162.399293 
L 358.82907 162.637579 
L 359.162164 162.694154 
L 359.272725 163.567514 
L 359.603011 163.611666 
L 359.712644 164.031747 
L 360.257385 164.114975 
L 360.365654 164.615959 
L 360.903662 164.69225 
L 361.010602 164.757516 
L 361.117324 164.757516 
L 361.223828 167.548617 
L 361.647685 167.655979 
L 361.753114 167.725883 
L 362.172716 167.827365 
L 362.277092 167.885026 
L 362.692522 167.971682 
L 362.692522 172.569598 
L 362.795866 168.021096 
L 363.104676 168.099791 
L 363.207208 173.415678 
L 363.41167 173.457885 
L 363.513602 173.597222 
L 363.615336 173.597222 
L 363.716872 174.104093 
L 363.919353 174.186559 
L 364.0203 174.472886 
L 364.321977 174.528482 
L 364.42215 175.251918 
L 364.621921 175.361337 
L 364.721521 175.827897 
L 364.820931 175.827897 
L 364.920153 176.01496 
L 365.216692 176.102074 
L 365.315165 176.258929 
L 365.413454 176.258929 
L 365.511557 177.067684 
L 365.609477 177.067684 
L 365.609477 176.685458 
L 365.707213 177.262693 
L 365.90214 177.225537 
L 365.999331 179.145403 
L 366.096341 179.145403 
L 366.096341 177.583077 
L 366.193172 177.602561 
L 366.289823 177.602561 
L 366.386297 179.794781 
L 366.482592 179.794781 
L 366.57871 180.059968 
L 366.674651 180.059968 
L 366.770417 180.816317 
L 366.961423 180.76824 
L 367.056665 181.294667 
L 367.24663 181.390898 
L 367.341354 181.675794 
L 367.435906 181.675794 
L 367.530288 182.031962 
L 367.812413 182.111541 
L 367.812413 182.872047 
L 367.906118 182.476508 
L 367.999654 182.476508 
L 368.093024 183.245504 
L 368.464842 183.326832 
L 368.557384 183.575888 
L 368.741978 183.65054 
L 368.834032 184.628519 
L 369.017653 184.707668 
L 369.109222 184.866733 
L 369.29188 184.942165 
L 369.38297 185.098367 
L 369.564675 185.165636 
L 369.655292 185.28935 
L 369.836054 185.344453 
L 369.926201 185.477106 
L 370.195712 185.574476 
L 370.285241 188.28624 
L 370.374617 188.28624 
L 370.374617 185.721577 
L 370.46384 188.593807 
L 370.552911 188.593807 
L 370.641831 188.910626 
L 370.730599 188.910626 
L 370.819217 189.145122 
L 370.907685 189.145122 
L 370.996003 189.509956 
L 371.084172 189.509956 
L 371.172193 189.813946 
L 371.34779 189.891071 
L 371.435368 190.156765 
L 371.5228 190.156765 
L 371.610085 190.459786 
L 371.697224 190.459786 
L 371.784219 190.798853 
L 371.957775 190.883834 
L 372.044337 191.201302 
L 372.217032 191.29337 
L 372.303166 191.729241 
L 372.475009 191.786029 
L 372.560719 191.964769 
L 372.646288 191.964769 
L 372.731718 192.417411 
L 372.902159 192.493044 
L 372.987172 192.735065 
L 373.072046 192.735065 
L 373.156783 193.253694 
L 373.410172 193.361024 
L 373.494362 193.590956 
L 373.578417 193.590956 
L 373.662337 193.714649 
L 373.662337 193.714649 
L 373.746123 193.714649 
L 373.829774 194.537953 
L 373.996676 194.537953 
L 373.996676 194.283694 
L 374.079927 194.92263 
L 374.328888 194.959391 
L 374.411612 195.180753 
L 374.411612 195.180753 
L 374.494205 195.180753 
L 374.576668 195.694604 
L 374.659001 195.694604 
L 374.659001 195.424145 
L 374.741204 195.694752 
L 374.987041 195.694752 
L 374.987041 195.999082 
L 375.06873 195.999082 
L 375.313034 195.99925 
L 375.394216 198.231553 
L 375.717686 198.231553 
L 375.798241 199.218739 
L 376.199166 199.218739 
L 376.199166 200.905356 
L 376.278983 199.218739 
L 376.517705 199.218739 
L 376.517705 200.905356 
L 376.597037 200.905356 
L 376.755341 200.905356 
L 376.755341 199.218739 
L 376.834313 200.905356 
L 377.850236 200.906617 
L 377.850236 295.488 
L 377.927572 295.488 
L 398.487273 295.488 
L 398.487273 295.488 
" clip-path="url(#pe90c565d10)" style="fill: none; stroke: #ff7f0e; stroke-width: 1.5; stroke-linecap: square"/>
   </g>
   <g id="patch_3">
    <path d="M 57.6 307.584 
L 57.6 41.472 
" style="fill: none; stroke: #000000; stroke-width: 0.8; stroke-linejoin: miter; stroke-linecap: square"/>
   </g>
   <g id="patch_4">
    <path d="M 414.72 307.584 
L 414.72 41.472 
" style="fill: none; stroke: #000000; stroke-width: 0.8; stroke-linejoin: miter; stroke-linecap: square"/>
   </g>
   <g id="patch_5">
    <path d="M 57.6 307.584 
L 414.72 307.584 
" style="fill: none; stroke: #000000; stroke-width: 0.8; stroke-linejoin: miter; stroke-linecap: square"/>
   </g>
   <g id="patch_6">
    <path d="M 57.6 41.472 
L 414.72 41.472 
" style="fill: none; stroke: #000000; stroke-width: 0.8; stroke-linejoin: miter; stroke-linecap: square"/>
   </g>
   <g id="text_14">
    <!-- T=2.0e+05 K, kappa=5.0 -->
    <g transform="translate(171.779063 35.472)scale(0.12 -0.12)">
     <defs>
      <path id="Roboto-Regular-54" d="M 156 4056 
L 156 4550 
L 3672 4550 
L 3672 4056 
L 2209 4056 
L 2209 0 
L 1616 0 
L 1616 4056 
L 156 4056 
z
" transform="scale(0.015625)"/>
      <path id="Roboto-Regular-3d" d="M 3081 3047 
L 3081 2544 
L 475 2544 
L 475 3047 
L 3081 3047 
z
M 3081 1750 
L 3081 1247 
L 475 1247 
L 475 1750 
L 3081 1750 
z
" transform="scale(0.015625)"/>
      <path id="Roboto-Regular-2e" d="M 450 306 
Q 450 453 542 554 
Q 634 656 809 656 
Q 984 656 1076 554 
Q 1169 453 1169 306 
Q 1169 163 1076 62 
Q 984 -38 809 -38 
Q 634 -38 542 62 
Q 450 163 450 306 
z
" transform="scale(0.015625)"/>
      <path id="Roboto-Regular-2b" d="M 3363 1897 
L 2094 1897 
L 2094 456 
L 1516 456 
L 1516 1897 
L 244 1897 
L 244 2441 
L 1516 2441 
L 1516 3769 
L 2094 3769 
L 2094 2441 
L 3363 2441 
L 3363 1897 
z
" transform="scale(0.015625)"/>
      <path id="Roboto-Regular-4b" d="M 3297 0 
L 1688 2119 
L 1131 1541 
L 1131 0 
L 528 0 
L 528 4550 
L 1131 4550 
L 1131 2306 
L 3153 4550 
L 3878 4550 
L 2091 2541 
L 4016 0 
L 3297 0 
z
" transform="scale(0.015625)"/>
      <path id="Roboto-Regular-2c" d="M 966 688 
L 966 222 
Q 966 -63 822 -380 
Q 678 -697 419 -909 
L 91 -681 
Q 391 -263 400 175 
L 400 688 
L 966 688 
z
" transform="scale(0.015625)"/>
      <path id="Roboto-Regular-61" d="M 2528 0 
Q 2472 122 2447 356 
Q 2284 184 2040 60 
Q 1797 -63 1484 -63 
Q 966 -63 653 228 
Q 341 519 341 941 
Q 341 1484 753 1767 
Q 1166 2050 1863 2050 
L 2434 2050 
L 2434 2319 
Q 2434 2619 2254 2798 
Q 2075 2978 1722 2978 
Q 1394 2978 1192 2817 
Q 991 2656 991 2444 
L 413 2444 
Q 413 2806 778 3125 
Q 1144 3444 1756 3444 
Q 2306 3444 2659 3162 
Q 3013 2881 3013 2313 
L 3013 794 
Q 3013 325 3131 50 
L 3131 0 
L 2528 0 
z
M 1569 444 
Q 1881 444 2111 600 
Q 2341 756 2434 947 
L 2434 1644 
L 1897 1644 
Q 922 1625 922 1019 
Q 922 778 1084 611 
Q 1247 444 1569 444 
z
" transform="scale(0.015625)"/>
     </defs>
     <use xlink:href="#Roboto-Regular-54"/>
     <use xlink:href="#Roboto-Regular-3d" x="59.667969"/>
     <use xlink:href="#Roboto-Regular-32" x="114.550781"/>
     <use xlink:href="#Roboto-Regular-2e" x="170.751953"/>
     <use xlink:href="#Roboto-Regular-30" x="197.119141"/>
     <use xlink:href="#Roboto-Regular-65" x="253.320312"/>
     <use xlink:href="#Roboto-Regular-2b" x="306.347656"/>
     <use xlink:href="#Roboto-Regular-30" x="363.085938"/>
     <use xlink:href="#Roboto-Regular-35" x="419.287109"/>
     <use xlink:href="#Roboto-Regular-20" x="475.488281"/>
     <use xlink:href="#Roboto-Regular-4b" x="500.292969"/>
     <use xlink:href="#Roboto-Regular-2c" x="563.037109"/>
     <use xlink:href="#Roboto-Regular-20" x="582.714844"/>
     <use xlink:href="#Roboto-Regular-6b" x="607.519531"/>
     <use xlink:href="#Roboto-Regular-61" x="658.203125"/>
     <use xlink:href="#Roboto-Regular-70" x="712.597656"/>
     <use xlink:href="#Roboto-Regular-70" x="768.75"/>
     <use xlink:href="#Roboto-Regular-61" x="824.902344"/>
     <use xlink:href="#Roboto-Regular-3d" x="879.296875"/>
     <use xlink:href="#Roboto-Regular-35" x="934.179688"/>
     <use xlink:href="#Roboto-Regular-2e" x="990.380859"/>
     <use xlink:href="#Roboto-Regular-30" x="1016.748047"/>
    </g>
   </g>
   <g id="legend_1">
    <g id="patch_7">
     <path d="M 343.646563 78.5345 
L 407.72 78.5345 
Q 409.72 78.5345 409.72 76.5345 
L 409.72 48.472 
Q 409.72 46.472 407.72 46.472 
L 343.646563 46.472 
Q 341.646563 46.472 341.646563 48.472 
L 341.646563 76.5345 
Q 341.646563 78.5345 343.646563 78.5345 
z
" style="fill: #ffffff; opacity: 0.8; stroke: #cccccc; stroke-linejoin: miter"/>
    </g>
    <g id="line2d_37">
     <path d="M 345.646563 54.472 
L 345.646563 54.472 
L 355.646563 54.472 
L 355.646563 54.472 
L 365.646563 54.472 
" style="fill: none; stroke: #1f77b4; stroke-width: 1.5; stroke-linecap: square"/>
    </g>
    <g id="text_15">
     <!-- lines -->
     <g transform="translate(373.646563 57.972)scale(0.1 -0.1)">
      <defs>
       <path id="Roboto-Regular-6c" d="M 1069 4800 
L 1069 0 
L 488 0 
L 488 4800 
L 1069 4800 
z
" transform="scale(0.015625)"/>
      </defs>
      <use xlink:href="#Roboto-Regular-6c"/>
      <use xlink:href="#Roboto-Regular-69" x="24.316406"/>
      <use xlink:href="#Roboto-Regular-6e" x="48.632812"/>
      <use xlink:href="#Roboto-Regular-65" x="103.857422"/>
      <use xlink:href="#Roboto-Regular-73" x="156.884766"/>
     </g>
    </g>
    <g id="line2d_38">
     <path d="M 345.646563 69.00325 
L 345.646563 69.00325 
L 355.646563 69.00325 
L 355.646563 69.00325 
L 365.646563 69.00325 
" style="fill: none; stroke: #ff7f0e; stroke-width: 1.5; stroke-linecap: square"/>
    </g>
    <g id="text_16">
     <!-- nolines -->
     <g transform="translate(373.646563 72.50325)scale(0.1 -0.1)">
      <defs>
       <path id="Roboto-Regular-6f" d="M 288 1725 
Q 288 2459 700 2951 
Q 1113 3444 1822 3444 
Q 2531 3444 2943 2961 
Q 3356 2478 3366 1756 
L 3366 1653 
Q 3366 919 2952 428 
Q 2538 -63 1828 -63 
Q 1116 -63 702 428 
Q 288 919 288 1653 
L 288 1725 
z
M 866 1653 
Q 866 1150 1105 781 
Q 1344 413 1828 413 
Q 2300 413 2540 777 
Q 2781 1141 2784 1644 
L 2784 1725 
Q 2784 2222 2543 2595 
Q 2303 2969 1822 2969 
Q 1344 2969 1105 2595 
Q 866 2222 866 1725 
L 866 1653 
z
" transform="scale(0.015625)"/>
      </defs>
      <use xlink:href="#Roboto-Regular-6e"/>
      <use xlink:href="#Roboto-Regular-6f" x="55.224609"/>
      <use xlink:href="#Roboto-Regular-6c" x="112.255859"/>
      <use xlink:href="#Roboto-Regular-69" x="136.572266"/>
      <use xlink:href="#Roboto-Regular-6e" x="160.888672"/>
      <use xlink:href="#Roboto-Regular-65" x="216.113281"/>
      <use xlink:href="#Roboto-Regular-73" x="269.140625"/>
     </g>
    </g>
   </g>
  </g>
 </g>
 <defs>
  <clipPath id="pe90c565d10">
   <rect x="57.6" y="41.472" width="357.12" height="266.112"/>
  </clipPath>
 </defs>
</svg>
