<?xml version="1.0" encoding="utf-8" standalone="no"?>
<!DOCTYPE svg PUBLIC "-//W3C//DTD SVG 1.1//EN"
  "http://www.w3.org/Graphics/SVG/1.1/DTD/svg11.dtd">
<svg xmlns:xlink="http://www.w3.org/1999/xlink" width="460.8pt" height="345.6pt" viewBox="0 0 460.8 345.6" xmlns="http://www.w3.org/2000/svg" version="1.1">
 <metadata>
  <rdf:RDF xmlns:dc="http://purl.org/dc/elements/1.1/" xmlns:cc="http://creativecommons.org/ns#" xmlns:rdf="http://www.w3.org/1999/02/22-rdf-syntax-ns#">
   <cc:Work>
    <dc:type rdf:resource="http://purl.org/dc/dcmitype/StillImage"/>
    <dc:date>2026-03-12T16:21:53.329279</dc:date>
    <dc:format>image/svg+xml</dc:format>
    <dc:creator>
     <cc:Agent>
      <dc:title>Matplotlib v3.10.6, https://matplotlib.org/</dc:title>
     </cc:Agent>
    </dc:creator>
   </cc:Work>
  </rdf:RDF>
 </metadata>
 <defs>
  <style type="text/css">*{stroke-linejoin: round; stroke-linecap: butt}</style>
 </defs>
 <g id="figure_1">
  <g id="patch_1">
   <path d="M 0 345.6 
L 460.8 345.6 
L 460.8 0 
L 0 0 
z
" style="fill: #ffffff"/>
  </g>
  <g id="axes_1">
   <g id="patch_2">
    <path d="M 57.6 307.584 
L 414.72 307.584 
L 414.72 41.472 
L 57.6 41.472 
z
" style="fill: #ffffff"/>
   </g>
   <g id="matplotlib.axis_1">
    <g id="xtick_1">
     <g id="line2d_1">
      <defs>
       <path id="m3be46785a7" d="M 0 0 
L 0 3.5 
" style="stroke: #000000; stroke-width: 0.8"/>
      </defs>
      <g>
       <use xlink:href="#m3be46785a7" x="73.832727" y="307.584" style="stroke: #000000; stroke-width: 0.8"/>
      </g>
     </g>
     <g id="text_1">
      <!-- $\mathdefault{10^{-1}}$ -->
      <g transform="translate(62.082727 322.182437) scale(0.1 -0.1)">
       <defs>
        <path id="DejaVuSans-31" d="M 794 531 
L 1825 531 
L 1825 4091 
L 703 3866 
L 703 4441 
L 1819 4666 
L 2450 4666 
L 2450 531 
L 3481 531 
L 3481 0 
L 794 0 
L 794 531 
z
" transform="scale(0.015625)"/>
        <path id="DejaVuSans-30" d="M 2034 4250 
Q 1547 4250 1301 3770 
Q 1056 3291 1056 2328 
Q 1056 1369 1301 889 
Q 1547 409 2034 409 
Q 2525 409 2770 889 
Q 3016 1369 3016 2328 
Q 3016 3291 2770 3770 
Q 2525 4250 2034 4250 
z
M 2034 4750 
Q 2819 4750 3233 4129 
Q 3647 3509 3647 2328 
Q 3647 1150 3233 529 
Q 2819 -91 2034 -91 
Q 1250 -91 836 529 
Q 422 1150 422 2328 
Q 422 3509 836 4129 
Q 1250 4750 2034 4750 
z
" transform="scale(0.015625)"/>
        <path id="DejaVuSans-2212" d="M 678 2272 
L 4684 2272 
L 4684 1741 
L 678 1741 
L 678 2272 
z
" transform="scale(0.015625)"/>
       </defs>
       <use xlink:href="#DejaVuSans-31" transform="translate(0 0.684375)"/>
       <use xlink:href="#DejaVuSans-30" transform="translate(63.623047 0.684375)"/>
       <use xlink:href="#DejaVuSans-2212" transform="translate(128.203125 38.965625) scale(0.7)"/>
       <use xlink:href="#DejaVuSans-31" transform="translate(186.855469 38.965625) scale(0.7)"/>
      </g>
     </g>
    </g>
    <g id="xtick_2">
     <g id="line2d_2">
      <g>
       <use xlink:href="#m3be46785a7" x="264.921766" y="307.584" style="stroke: #000000; stroke-width: 0.8"/>
      </g>
     </g>
     <g id="text_2">
      <!-- $\mathdefault{10^{0}}$ -->
      <g transform="translate(256.121766 322.182437) scale(0.1 -0.1)">
       <use xlink:href="#DejaVuSans-31" transform="translate(0 0.765625)"/>
       <use xlink:href="#DejaVuSans-30" transform="translate(63.623047 0.765625)"/>
       <use xlink:href="#DejaVuSans-30" transform="translate(128.203125 39.046875) scale(0.7)"/>
      </g>
     </g>
    </g>
    <g id="xtick_3">
     <g id="line2d_3">
      <defs>
       <path id="me2157b803b" d="M 0 0 
L 0 2 
" style="stroke: #000000; stroke-width: 0.6"/>
      </defs>
      <g>
       <use xlink:href="#me2157b803b" x="65.088972" y="307.584" style="stroke: #000000; stroke-width: 0.6"/>
      </g>
     </g>
    </g>
    <g id="xtick_4">
     <g id="line2d_4">
      <g>
       <use xlink:href="#me2157b803b" x="131.35626" y="307.584" style="stroke: #000000; stroke-width: 0.6"/>
      </g>
     </g>
    </g>
    <g id="xtick_5">
     <g id="line2d_5">
      <g>
       <use xlink:href="#me2157b803b" x="165.005369" y="307.584" style="stroke: #000000; stroke-width: 0.6"/>
      </g>
     </g>
    </g>
    <g id="xtick_6">
     <g id="line2d_6">
      <g>
       <use xlink:href="#me2157b803b" x="188.879792" y="307.584" style="stroke: #000000; stroke-width: 0.6"/>
      </g>
     </g>
    </g>
    <g id="xtick_7">
     <g id="line2d_7">
      <g>
       <use xlink:href="#me2157b803b" x="207.398234" y="307.584" style="stroke: #000000; stroke-width: 0.6"/>
      </g>
     </g>
    </g>
    <g id="xtick_8">
     <g id="line2d_8">
      <g>
       <use xlink:href="#me2157b803b" x="222.528902" y="307.584" style="stroke: #000000; stroke-width: 0.6"/>
      </g>
     </g>
    </g>
    <g id="xtick_9">
     <g id="line2d_9">
      <g>
       <use xlink:href="#me2157b803b" x="235.3217" y="307.584" style="stroke: #000000; stroke-width: 0.6"/>
      </g>
     </g>
    </g>
    <g id="xtick_10">
     <g id="line2d_10">
      <g>
       <use xlink:href="#me2157b803b" x="246.403325" y="307.584" style="stroke: #000000; stroke-width: 0.6"/>
      </g>
     </g>
    </g>
    <g id="xtick_11">
     <g id="line2d_11">
      <g>
       <use xlink:href="#me2157b803b" x="256.178011" y="307.584" style="stroke: #000000; stroke-width: 0.6"/>
      </g>
     </g>
    </g>
    <g id="xtick_12">
     <g id="line2d_12">
      <g>
       <use xlink:href="#me2157b803b" x="322.445299" y="307.584" style="stroke: #000000; stroke-width: 0.6"/>
      </g>
     </g>
    </g>
    <g id="xtick_13">
     <g id="line2d_13">
      <g>
       <use xlink:href="#me2157b803b" x="356.094408" y="307.584" style="stroke: #000000; stroke-width: 0.6"/>
      </g>
     </g>
    </g>
    <g id="xtick_14">
     <g id="line2d_14">
      <g>
       <use xlink:href="#me2157b803b" x="379.968831" y="307.584" style="stroke: #000000; stroke-width: 0.6"/>
      </g>
     </g>
    </g>
    <g id="xtick_15">
     <g id="line2d_15">
      <g>
       <use xlink:href="#me2157b803b" x="398.487273" y="307.584" style="stroke: #000000; stroke-width: 0.6"/>
      </g>
     </g>
    </g>
    <g id="xtick_16">
     <g id="line2d_16">
      <g>
       <use xlink:href="#me2157b803b" x="413.617941" y="307.584" style="stroke: #000000; stroke-width: 0.6"/>
      </g>
     </g>
    </g>
    <g id="text_3">
     <!-- Energy (keV) -->
     <g transform="translate(203.952187 335.860562) scale(0.1 -0.1)">
      <defs>
       <path id="DejaVuSans-45" d="M 628 4666 
L 3578 4666 
L 3578 4134 
L 1259 4134 
L 1259 2753 
L 3481 2753 
L 3481 2222 
L 1259 2222 
L 1259 531 
L 3634 531 
L 3634 0 
L 628 0 
L 628 4666 
z
" transform="scale(0.015625)"/>
       <path id="DejaVuSans-6e" d="M 3513 2113 
L 3513 0 
L 2938 0 
L 2938 2094 
Q 2938 2591 2744 2837 
Q 2550 3084 2163 3084 
Q 1697 3084 1428 2787 
Q 1159 2491 1159 1978 
L 1159 0 
L 581 0 
L 581 3500 
L 1159 3500 
L 1159 2956 
Q 1366 3272 1645 3428 
Q 1925 3584 2291 3584 
Q 2894 3584 3203 3211 
Q 3513 2838 3513 2113 
z
" transform="scale(0.015625)"/>
       <path id="DejaVuSans-65" d="M 3597 1894 
L 3597 1613 
L 953 1613 
Q 991 1019 1311 708 
Q 1631 397 2203 397 
Q 2534 397 2845 478 
Q 3156 559 3463 722 
L 3463 178 
Q 3153 47 2828 -22 
Q 2503 -91 2169 -91 
Q 1331 -91 842 396 
Q 353 884 353 1716 
Q 353 2575 817 3079 
Q 1281 3584 2069 3584 
Q 2775 3584 3186 3129 
Q 3597 2675 3597 1894 
z
M 3022 2063 
Q 3016 2534 2758 2815 
Q 2500 3097 2075 3097 
Q 1594 3097 1305 2825 
Q 1016 2553 972 2059 
L 3022 2063 
z
" transform="scale(0.015625)"/>
       <path id="DejaVuSans-72" d="M 2631 2963 
Q 2534 3019 2420 3045 
Q 2306 3072 2169 3072 
Q 1681 3072 1420 2755 
Q 1159 2438 1159 1844 
L 1159 0 
L 581 0 
L 581 3500 
L 1159 3500 
L 1159 2956 
Q 1341 3275 1631 3429 
Q 1922 3584 2338 3584 
Q 2397 3584 2469 3576 
Q 2541 3569 2628 3553 
L 2631 2963 
z
" transform="scale(0.015625)"/>
       <path id="DejaVuSans-67" d="M 2906 1791 
Q 2906 2416 2648 2759 
Q 2391 3103 1925 3103 
Q 1463 3103 1205 2759 
Q 947 2416 947 1791 
Q 947 1169 1205 825 
Q 1463 481 1925 481 
Q 2391 481 2648 825 
Q 2906 1169 2906 1791 
z
M 3481 434 
Q 3481 -459 3084 -895 
Q 2688 -1331 1869 -1331 
Q 1566 -1331 1297 -1286 
Q 1028 -1241 775 -1147 
L 775 -588 
Q 1028 -725 1275 -790 
Q 1522 -856 1778 -856 
Q 2344 -856 2625 -561 
Q 2906 -266 2906 331 
L 2906 616 
Q 2728 306 2450 153 
Q 2172 0 1784 0 
Q 1141 0 747 490 
Q 353 981 353 1791 
Q 353 2603 747 3093 
Q 1141 3584 1784 3584 
Q 2172 3584 2450 3431 
Q 2728 3278 2906 2969 
L 2906 3500 
L 3481 3500 
L 3481 434 
z
" transform="scale(0.015625)"/>
       <path id="DejaVuSans-79" d="M 2059 -325 
Q 1816 -950 1584 -1140 
Q 1353 -1331 966 -1331 
L 506 -1331 
L 506 -850 
L 844 -850 
Q 1081 -850 1212 -737 
Q 1344 -625 1503 -206 
L 1606 56 
L 191 3500 
L 800 3500 
L 1894 763 
L 2988 3500 
L 3597 3500 
L 2059 -325 
z
" transform="scale(0.015625)"/>
       <path id="DejaVuSans-20" transform="scale(0.015625)"/>
       <path id="DejaVuSans-28" d="M 1984 4856 
Q 1566 4138 1362 3434 
Q 1159 2731 1159 2009 
Q 1159 1288 1364 580 
Q 1569 -128 1984 -844 
L 1484 -844 
Q 1016 -109 783 600 
Q 550 1309 550 2009 
Q 550 2706 781 3412 
Q 1013 4119 1484 4856 
L 1984 4856 
z
" transform="scale(0.015625)"/>
       <path id="DejaVuSans-6b" d="M 581 4863 
L 1159 4863 
L 1159 1991 
L 2875 3500 
L 3609 3500 
L 1753 1863 
L 3688 0 
L 2938 0 
L 1159 1709 
L 1159 0 
L 581 0 
L 581 4863 
z
" transform="scale(0.015625)"/>
       <path id="DejaVuSans-56" d="M 1831 0 
L 50 4666 
L 709 4666 
L 2188 738 
L 3669 4666 
L 4325 4666 
L 2547 0 
L 1831 0 
z
" transform="scale(0.015625)"/>
       <path id="DejaVuSans-29" d="M 513 4856 
L 1013 4856 
Q 1481 4119 1714 3412 
Q 1947 2706 1947 2009 
Q 1947 1309 1714 600 
Q 1481 -109 1013 -844 
L 513 -844 
Q 928 -128 1133 580 
Q 1338 1288 1338 2009 
Q 1338 2731 1133 3434 
Q 928 4138 513 4856 
z
" transform="scale(0.015625)"/>
      </defs>
      <use xlink:href="#DejaVuSans-45"/>
      <use xlink:href="#DejaVuSans-6e" transform="translate(63.183594 0)"/>
      <use xlink:href="#DejaVuSans-65" transform="translate(126.5625 0)"/>
      <use xlink:href="#DejaVuSans-72" transform="translate(188.085938 0)"/>
      <use xlink:href="#DejaVuSans-67" transform="translate(227.449219 0)"/>
      <use xlink:href="#DejaVuSans-79" transform="translate(290.925781 0)"/>
      <use xlink:href="#DejaVuSans-20" transform="translate(350.105469 0)"/>
      <use xlink:href="#DejaVuSans-28" transform="translate(381.892578 0)"/>
      <use xlink:href="#DejaVuSans-6b" transform="translate(420.90625 0)"/>
      <use xlink:href="#DejaVuSans-65" transform="translate(475.191406 0)"/>
      <use xlink:href="#DejaVuSans-56" transform="translate(536.714844 0)"/>
      <use xlink:href="#DejaVuSans-29" transform="translate(605.123047 0)"/>
     </g>
    </g>
   </g>
   <g id="matplotlib.axis_2">
    <g id="ytick_1">
     <g id="line2d_17">
      <defs>
       <path id="madaf51ca64" d="M 0 0 
L -3.5 0 
" style="stroke: #000000; stroke-width: 0.8"/>
      </defs>
      <g>
       <use xlink:href="#madaf51ca64" x="57.6" y="307.584" style="stroke: #000000; stroke-width: 0.8"/>
      </g>
     </g>
     <g id="text_4">
      <!-- $\mathdefault{10^{-22}}$ -->
      <g transform="translate(22.7 311.383219) scale(0.1 -0.1)">
       <defs>
        <path id="DejaVuSans-32" d="M 1228 531 
L 3431 531 
L 3431 0 
L 469 0 
L 469 531 
Q 828 903 1448 1529 
Q 2069 2156 2228 2338 
Q 2531 2678 2651 2914 
Q 2772 3150 2772 3378 
Q 2772 3750 2511 3984 
Q 2250 4219 1831 4219 
Q 1534 4219 1204 4116 
Q 875 4013 500 3803 
L 500 4441 
Q 881 4594 1212 4672 
Q 1544 4750 1819 4750 
Q 2544 4750 2975 4387 
Q 3406 4025 3406 3419 
Q 3406 3131 3298 2873 
Q 3191 2616 2906 2266 
Q 2828 2175 2409 1742 
Q 1991 1309 1228 531 
z
" transform="scale(0.015625)"/>
       </defs>
       <use xlink:href="#DejaVuSans-31" transform="translate(0 0.765625)"/>
       <use xlink:href="#DejaVuSans-30" transform="translate(63.623047 0.765625)"/>
       <use xlink:href="#DejaVuSans-2212" transform="translate(128.203125 39.046875) scale(0.7)"/>
       <use xlink:href="#DejaVuSans-32" transform="translate(186.855469 39.046875) scale(0.7)"/>
       <use xlink:href="#DejaVuSans-32" transform="translate(231.391602 39.046875) scale(0.7)"/>
      </g>
     </g>
    </g>
    <g id="ytick_2">
     <g id="line2d_18">
      <g>
       <use xlink:href="#madaf51ca64" x="57.6" y="251.927026" style="stroke: #000000; stroke-width: 0.8"/>
      </g>
     </g>
     <g id="text_5">
      <!-- $\mathdefault{10^{-20}}$ -->
      <g transform="translate(22.7 255.726245) scale(0.1 -0.1)">
       <use xlink:href="#DejaVuSans-31" transform="translate(0 0.765625)"/>
       <use xlink:href="#DejaVuSans-30" transform="translate(63.623047 0.765625)"/>
       <use xlink:href="#DejaVuSans-2212" transform="translate(128.203125 39.046875) scale(0.7)"/>
       <use xlink:href="#DejaVuSans-32" transform="translate(186.855469 39.046875) scale(0.7)"/>
       <use xlink:href="#DejaVuSans-30" transform="translate(231.391602 39.046875) scale(0.7)"/>
      </g>
     </g>
    </g>
    <g id="ytick_3">
     <g id="line2d_19">
      <g>
       <use xlink:href="#madaf51ca64" x="57.6" y="196.270052" style="stroke: #000000; stroke-width: 0.8"/>
      </g>
     </g>
     <g id="text_6">
      <!-- $\mathdefault{10^{-18}}$ -->
      <g transform="translate(22.7 200.06927) scale(0.1 -0.1)">
       <defs>
        <path id="DejaVuSans-38" d="M 2034 2216 
Q 1584 2216 1326 1975 
Q 1069 1734 1069 1313 
Q 1069 891 1326 650 
Q 1584 409 2034 409 
Q 2484 409 2743 651 
Q 3003 894 3003 1313 
Q 3003 1734 2745 1975 
Q 2488 2216 2034 2216 
z
M 1403 2484 
Q 997 2584 770 2862 
Q 544 3141 544 3541 
Q 544 4100 942 4425 
Q 1341 4750 2034 4750 
Q 2731 4750 3128 4425 
Q 3525 4100 3525 3541 
Q 3525 3141 3298 2862 
Q 3072 2584 2669 2484 
Q 3125 2378 3379 2068 
Q 3634 1759 3634 1313 
Q 3634 634 3220 271 
Q 2806 -91 2034 -91 
Q 1263 -91 848 271 
Q 434 634 434 1313 
Q 434 1759 690 2068 
Q 947 2378 1403 2484 
z
M 1172 3481 
Q 1172 3119 1398 2916 
Q 1625 2713 2034 2713 
Q 2441 2713 2670 2916 
Q 2900 3119 2900 3481 
Q 2900 3844 2670 4047 
Q 2441 4250 2034 4250 
Q 1625 4250 1398 4047 
Q 1172 3844 1172 3481 
z
" transform="scale(0.015625)"/>
       </defs>
       <use xlink:href="#DejaVuSans-31" transform="translate(0 0.765625)"/>
       <use xlink:href="#DejaVuSans-30" transform="translate(63.623047 0.765625)"/>
       <use xlink:href="#DejaVuSans-2212" transform="translate(128.203125 39.046875) scale(0.7)"/>
       <use xlink:href="#DejaVuSans-31" transform="translate(186.855469 39.046875) scale(0.7)"/>
       <use xlink:href="#DejaVuSans-38" transform="translate(231.391602 39.046875) scale(0.7)"/>
      </g>
     </g>
    </g>
    <g id="ytick_4">
     <g id="line2d_20">
      <g>
       <use xlink:href="#madaf51ca64" x="57.6" y="140.613077" style="stroke: #000000; stroke-width: 0.8"/>
      </g>
     </g>
     <g id="text_7">
      <!-- $\mathdefault{10^{-16}}$ -->
      <g transform="translate(22.7 144.412296) scale(0.1 -0.1)">
       <defs>
        <path id="DejaVuSans-36" d="M 2113 2584 
Q 1688 2584 1439 2293 
Q 1191 2003 1191 1497 
Q 1191 994 1439 701 
Q 1688 409 2113 409 
Q 2538 409 2786 701 
Q 3034 994 3034 1497 
Q 3034 2003 2786 2293 
Q 2538 2584 2113 2584 
z
M 3366 4563 
L 3366 3988 
Q 3128 4100 2886 4159 
Q 2644 4219 2406 4219 
Q 1781 4219 1451 3797 
Q 1122 3375 1075 2522 
Q 1259 2794 1537 2939 
Q 1816 3084 2150 3084 
Q 2853 3084 3261 2657 
Q 3669 2231 3669 1497 
Q 3669 778 3244 343 
Q 2819 -91 2113 -91 
Q 1303 -91 875 529 
Q 447 1150 447 2328 
Q 447 3434 972 4092 
Q 1497 4750 2381 4750 
Q 2619 4750 2861 4703 
Q 3103 4656 3366 4563 
z
" transform="scale(0.015625)"/>
       </defs>
       <use xlink:href="#DejaVuSans-31" transform="translate(0 0.765625)"/>
       <use xlink:href="#DejaVuSans-30" transform="translate(63.623047 0.765625)"/>
       <use xlink:href="#DejaVuSans-2212" transform="translate(128.203125 39.046875) scale(0.7)"/>
       <use xlink:href="#DejaVuSans-31" transform="translate(186.855469 39.046875) scale(0.7)"/>
       <use xlink:href="#DejaVuSans-36" transform="translate(231.391602 39.046875) scale(0.7)"/>
      </g>
     </g>
    </g>
    <g id="ytick_5">
     <g id="line2d_21">
      <g>
       <use xlink:href="#madaf51ca64" x="57.6" y="84.956103" style="stroke: #000000; stroke-width: 0.8"/>
      </g>
     </g>
     <g id="text_8">
      <!-- $\mathdefault{10^{-14}}$ -->
      <g transform="translate(22.7 88.755322) scale(0.1 -0.1)">
       <defs>
        <path id="DejaVuSans-34" d="M 2419 4116 
L 825 1625 
L 2419 1625 
L 2419 4116 
z
M 2253 4666 
L 3047 4666 
L 3047 1625 
L 3713 1625 
L 3713 1100 
L 3047 1100 
L 3047 0 
L 2419 0 
L 2419 1100 
L 313 1100 
L 313 1709 
L 2253 4666 
z
" transform="scale(0.015625)"/>
       </defs>
       <use xlink:href="#DejaVuSans-31" transform="translate(0 0.684375)"/>
       <use xlink:href="#DejaVuSans-30" transform="translate(63.623047 0.684375)"/>
       <use xlink:href="#DejaVuSans-2212" transform="translate(128.203125 38.965625) scale(0.7)"/>
       <use xlink:href="#DejaVuSans-31" transform="translate(186.855469 38.965625) scale(0.7)"/>
       <use xlink:href="#DejaVuSans-34" transform="translate(231.391602 38.965625) scale(0.7)"/>
      </g>
     </g>
    </g>
    <g id="text_9">
     <!-- Intensity (ph cm$^5$ s$^{-1}$ bin$^{-1}$) -->
     <g transform="translate(16.6 243.978) rotate(-90) scale(0.1 -0.1)">
      <defs>
       <path id="DejaVuSans-49" d="M 628 4666 
L 1259 4666 
L 1259 0 
L 628 0 
L 628 4666 
z
" transform="scale(0.015625)"/>
       <path id="DejaVuSans-74" d="M 1172 4494 
L 1172 3500 
L 2356 3500 
L 2356 3053 
L 1172 3053 
L 1172 1153 
Q 1172 725 1289 603 
Q 1406 481 1766 481 
L 2356 481 
L 2356 0 
L 1766 0 
Q 1100 0 847 248 
Q 594 497 594 1153 
L 594 3053 
L 172 3053 
L 172 3500 
L 594 3500 
L 594 4494 
L 1172 4494 
z
" transform="scale(0.015625)"/>
       <path id="DejaVuSans-73" d="M 2834 3397 
L 2834 2853 
Q 2591 2978 2328 3040 
Q 2066 3103 1784 3103 
Q 1356 3103 1142 2972 
Q 928 2841 928 2578 
Q 928 2378 1081 2264 
Q 1234 2150 1697 2047 
L 1894 2003 
Q 2506 1872 2764 1633 
Q 3022 1394 3022 966 
Q 3022 478 2636 193 
Q 2250 -91 1575 -91 
Q 1294 -91 989 -36 
Q 684 19 347 128 
L 347 722 
Q 666 556 975 473 
Q 1284 391 1588 391 
Q 1994 391 2212 530 
Q 2431 669 2431 922 
Q 2431 1156 2273 1281 
Q 2116 1406 1581 1522 
L 1381 1569 
Q 847 1681 609 1914 
Q 372 2147 372 2553 
Q 372 3047 722 3315 
Q 1072 3584 1716 3584 
Q 2034 3584 2315 3537 
Q 2597 3491 2834 3397 
z
" transform="scale(0.015625)"/>
       <path id="DejaVuSans-69" d="M 603 3500 
L 1178 3500 
L 1178 0 
L 603 0 
L 603 3500 
z
M 603 4863 
L 1178 4863 
L 1178 4134 
L 603 4134 
L 603 4863 
z
" transform="scale(0.015625)"/>
       <path id="DejaVuSans-70" d="M 1159 525 
L 1159 -1331 
L 581 -1331 
L 581 3500 
L 1159 3500 
L 1159 2969 
Q 1341 3281 1617 3432 
Q 1894 3584 2278 3584 
Q 2916 3584 3314 3078 
Q 3713 2572 3713 1747 
Q 3713 922 3314 415 
Q 2916 -91 2278 -91 
Q 1894 -91 1617 61 
Q 1341 213 1159 525 
z
M 3116 1747 
Q 3116 2381 2855 2742 
Q 2594 3103 2138 3103 
Q 1681 3103 1420 2742 
Q 1159 2381 1159 1747 
Q 1159 1113 1420 752 
Q 1681 391 2138 391 
Q 2594 391 2855 752 
Q 3116 1113 3116 1747 
z
" transform="scale(0.015625)"/>
       <path id="DejaVuSans-68" d="M 3513 2113 
L 3513 0 
L 2938 0 
L 2938 2094 
Q 2938 2591 2744 2837 
Q 2550 3084 2163 3084 
Q 1697 3084 1428 2787 
Q 1159 2491 1159 1978 
L 1159 0 
L 581 0 
L 581 4863 
L 1159 4863 
L 1159 2956 
Q 1366 3272 1645 3428 
Q 1925 3584 2291 3584 
Q 2894 3584 3203 3211 
Q 3513 2838 3513 2113 
z
" transform="scale(0.015625)"/>
       <path id="DejaVuSans-63" d="M 3122 3366 
L 3122 2828 
Q 2878 2963 2633 3030 
Q 2388 3097 2138 3097 
Q 1578 3097 1268 2742 
Q 959 2388 959 1747 
Q 959 1106 1268 751 
Q 1578 397 2138 397 
Q 2388 397 2633 464 
Q 2878 531 3122 666 
L 3122 134 
Q 2881 22 2623 -34 
Q 2366 -91 2075 -91 
Q 1284 -91 818 406 
Q 353 903 353 1747 
Q 353 2603 823 3093 
Q 1294 3584 2113 3584 
Q 2378 3584 2631 3529 
Q 2884 3475 3122 3366 
z
" transform="scale(0.015625)"/>
       <path id="DejaVuSans-6d" d="M 3328 2828 
Q 3544 3216 3844 3400 
Q 4144 3584 4550 3584 
Q 5097 3584 5394 3201 
Q 5691 2819 5691 2113 
L 5691 0 
L 5113 0 
L 5113 2094 
Q 5113 2597 4934 2840 
Q 4756 3084 4391 3084 
Q 3944 3084 3684 2787 
Q 3425 2491 3425 1978 
L 3425 0 
L 2847 0 
L 2847 2094 
Q 2847 2600 2669 2842 
Q 2491 3084 2119 3084 
Q 1678 3084 1418 2786 
Q 1159 2488 1159 1978 
L 1159 0 
L 581 0 
L 581 3500 
L 1159 3500 
L 1159 2956 
Q 1356 3278 1631 3431 
Q 1906 3584 2284 3584 
Q 2666 3584 2933 3390 
Q 3200 3197 3328 2828 
z
" transform="scale(0.015625)"/>
       <path id="DejaVuSans-35" d="M 691 4666 
L 3169 4666 
L 3169 4134 
L 1269 4134 
L 1269 2991 
Q 1406 3038 1543 3061 
Q 1681 3084 1819 3084 
Q 2600 3084 3056 2656 
Q 3513 2228 3513 1497 
Q 3513 744 3044 326 
Q 2575 -91 1722 -91 
Q 1428 -91 1123 -41 
Q 819 9 494 109 
L 494 744 
Q 775 591 1075 516 
Q 1375 441 1709 441 
Q 2250 441 2565 725 
Q 2881 1009 2881 1497 
Q 2881 1984 2565 2268 
Q 2250 2553 1709 2553 
Q 1456 2553 1204 2497 
Q 953 2441 691 2322 
L 691 4666 
z
" transform="scale(0.015625)"/>
       <path id="DejaVuSans-62" d="M 3116 1747 
Q 3116 2381 2855 2742 
Q 2594 3103 2138 3103 
Q 1681 3103 1420 2742 
Q 1159 2381 1159 1747 
Q 1159 1113 1420 752 
Q 1681 391 2138 391 
Q 2594 391 2855 752 
Q 3116 1113 3116 1747 
z
M 1159 2969 
Q 1341 3281 1617 3432 
Q 1894 3584 2278 3584 
Q 2916 3584 3314 3078 
Q 3713 2572 3713 1747 
Q 3713 922 3314 415 
Q 2916 -91 2278 -91 
Q 1894 -91 1617 61 
Q 1341 213 1159 525 
L 1159 0 
L 581 0 
L 581 4863 
L 1159 4863 
L 1159 2969 
z
" transform="scale(0.015625)"/>
      </defs>
      <use xlink:href="#DejaVuSans-49" transform="translate(0 0.684375)"/>
      <use xlink:href="#DejaVuSans-6e" transform="translate(29.492188 0.684375)"/>
      <use xlink:href="#DejaVuSans-74" transform="translate(92.871094 0.684375)"/>
      <use xlink:href="#DejaVuSans-65" transform="translate(132.080078 0.684375)"/>
      <use xlink:href="#DejaVuSans-6e" transform="translate(193.603516 0.684375)"/>
      <use xlink:href="#DejaVuSans-73" transform="translate(256.982422 0.684375)"/>
      <use xlink:href="#DejaVuSans-69" transform="translate(309.082031 0.684375)"/>
      <use xlink:href="#DejaVuSans-74" transform="translate(336.865234 0.684375)"/>
      <use xlink:href="#DejaVuSans-79" transform="translate(376.074219 0.684375)"/>
      <use xlink:href="#DejaVuSans-20" transform="translate(435.253906 0.684375)"/>
      <use xlink:href="#DejaVuSans-28" transform="translate(467.041016 0.684375)"/>
      <use xlink:href="#DejaVuSans-70" transform="translate(506.054688 0.684375)"/>
      <use xlink:href="#DejaVuSans-68" transform="translate(569.53125 0.684375)"/>
      <use xlink:href="#DejaVuSans-20" transform="translate(632.910156 0.684375)"/>
      <use xlink:href="#DejaVuSans-63" transform="translate(664.697266 0.684375)"/>
      <use xlink:href="#DejaVuSans-6d" transform="translate(719.677734 0.684375)"/>
      <use xlink:href="#DejaVuSans-35" transform="translate(818.046875 38.965625) scale(0.7)"/>
      <use xlink:href="#DejaVuSans-20" transform="translate(865.317383 0.684375)"/>
      <use xlink:href="#DejaVuSans-73" transform="translate(897.104492 0.684375)"/>
      <use xlink:href="#DejaVuSans-2212" transform="translate(950.161133 38.965625) scale(0.7)"/>
      <use xlink:href="#DejaVuSans-31" transform="translate(1008.813477 38.965625) scale(0.7)"/>
      <use xlink:href="#DejaVuSans-20" transform="translate(1056.083984 0.684375)"/>
      <use xlink:href="#DejaVuSans-62" transform="translate(1087.871094 0.684375)"/>
      <use xlink:href="#DejaVuSans-69" transform="translate(1151.347656 0.684375)"/>
      <use xlink:href="#DejaVuSans-6e" transform="translate(1179.130859 0.684375)"/>
      <use xlink:href="#DejaVuSans-2212" transform="translate(1243.466797 38.965625) scale(0.7)"/>
      <use xlink:href="#DejaVuSans-31" transform="translate(1302.119141 38.965625) scale(0.7)"/>
      <use xlink:href="#DejaVuSans-29" transform="translate(1349.389648 0.684375)"/>
     </g>
    </g>
   </g>
   <g id="line2d_22">
    <path d="M 73.832727 104.151032 
L 77.802695 104.151032 
L 77.802695 91.768433 
L 81.591389 91.768433 
L 81.591389 102.598863 
L 85.214644 102.598863 
L 85.214644 91.520476 
L 88.686304 91.520476 
L 88.686304 87.934221 
L 92.018547 87.934221 
L 92.018547 93.99075 
L 95.222141 93.99075 
L 95.222141 98.202299 
L 98.306649 98.202299 
L 98.306649 103.728265 
L 101.280611 103.728265 
L 101.280611 99.187151 
L 104.151675 99.187151 
L 104.151675 94.862061 
L 106.926725 94.862061 
L 106.926725 100.385855 
L 109.611975 100.385855 
L 109.611975 101.789542 
L 112.213056 101.789542 
L 112.213056 101.017712 
L 114.735084 101.017712 
L 114.735084 99.054524 
L 117.182722 99.054524 
L 117.182722 101.206016 
L 119.560235 101.206016 
L 119.560235 98.712209 
L 121.871528 98.712209 
L 121.871528 105.307815 
L 124.12019 105.307815 
L 124.12019 110.607116 
L 128.442587 110.57963 
L 128.442587 102.521241 
L 130.522193 102.521241 
L 130.522193 110.782736 
L 132.550958 110.782736 
L 132.550958 96.167294 
L 134.531309 96.167294 
L 134.531309 115.566675 
L 136.465502 115.566675 
L 136.465502 115.775959 
L 138.35564 115.775959 
L 138.35564 119.197502 
L 140.203686 119.197502 
L 140.203686 109.472919 
L 142.011473 109.472919 
L 142.011473 117.257597 
L 143.780719 117.257597 
L 143.780719 113.785358 
L 145.513032 113.785358 
L 145.513032 126.160595 
L 147.209923 126.160595 
L 147.209923 123.492632 
L 148.872811 123.492632 
L 148.872811 118.585315 
L 150.503032 118.585315 
L 150.503032 121.455558 
L 152.101846 121.455558 
L 152.101846 121.593221 
L 153.670439 121.593221 
L 153.670439 123.184119 
L 155.209933 123.184119 
L 155.209933 130.959081 
L 156.721388 130.959081 
L 156.721388 133.924157 
L 158.205807 133.924157 
L 158.205807 127.182063 
L 159.66414 127.182063 
L 159.66414 131.999236 
L 161.097288 131.999236 
L 161.097288 139.869758 
L 162.506106 139.869758 
L 162.506106 131.048293 
L 163.891407 131.048293 
L 163.891407 117.691576 
L 165.253963 117.691576 
L 165.253963 145.028722 
L 166.594509 145.028722 
L 166.594509 118.365144 
L 167.913744 118.365144 
L 167.913744 147.179179 
L 169.212336 147.179179 
L 169.212336 138.129425 
L 170.49092 138.129425 
L 170.49092 142.433631 
L 171.750104 142.433631 
L 171.750104 148.821551 
L 172.990468 148.821551 
L 172.990468 144.232827 
L 174.212566 144.232827 
L 174.212566 151.867884 
L 175.416928 151.867884 
L 175.416928 155.657129 
L 176.604061 155.657129 
L 176.604061 144.399712 
L 177.774453 144.399712 
L 177.774453 134.583216 
L 178.928567 134.583216 
L 178.928567 153.935511 
L 180.066851 153.935511 
L 180.066851 150.428074 
L 181.189734 150.428074 
L 181.189734 107.875566 
L 182.297626 107.875566 
L 182.297626 149.594783 
L 183.390922 149.594783 
L 183.390922 153.566164 
L 184.470002 153.566164 
L 184.470002 154.553409 
L 185.535232 154.553409 
L 185.535232 155.624823 
L 186.586961 155.624823 
L 186.586961 154.77195 
L 187.625528 154.77195 
L 187.625528 159.315156 
L 188.651259 159.315156 
L 188.651259 156.102434 
L 189.664466 156.102434 
L 189.664466 146.42487 
L 190.665452 146.42487 
L 190.665452 162.494242 
L 191.654508 162.494242 
L 191.654508 163.659282 
L 192.631916 163.659282 
L 192.631916 131.34663 
L 193.597946 131.34663 
L 193.597946 150.443709 
L 194.55286 150.443709 
L 194.55286 128.779267 
L 195.496911 128.779267 
L 195.496911 133.21154 
L 196.430344 133.21154 
L 196.430344 165.489747 
L 197.353394 165.489747 
L 197.353394 163.71292 
L 198.266291 163.71292 
L 198.266291 166.809908 
L 199.169254 166.809908 
L 199.169254 167.819833 
L 200.062499 167.819833 
L 200.062499 140.803833 
L 200.946232 140.803833 
L 200.946232 168.803462 
L 201.820652 168.803462 
L 201.820652 149.029198 
L 202.685956 149.029198 
L 202.685956 154.434438 
L 203.54233 154.434438 
L 203.54233 158.829183 
L 204.389958 158.829183 
L 204.389958 154.710286 
L 205.229015 154.710286 
L 205.229015 158.229242 
L 206.059674 158.229242 
L 206.059674 161.134205 
L 206.882101 161.134205 
L 206.882101 130.860219 
L 207.696457 130.860219 
L 207.696457 163.135048 
L 208.5029 163.135048 
L 208.5029 164.560754 
L 209.301582 164.560754 
L 209.301582 165.519144 
L 210.092651 165.519144 
L 210.092651 166.523804 
L 210.87625 166.523804 
L 210.87625 158.772362 
L 211.652519 158.772362 
L 211.652519 168.455705 
L 212.421594 168.455705 
L 212.421594 161.108534 
L 213.183608 161.108534 
L 213.183608 167.563749 
L 213.938688 167.563749 
L 213.938688 167.771626 
L 214.68696 167.771626 
L 214.68696 170.885108 
L 215.428546 170.885108 
L 215.428546 169.591873 
L 216.163563 169.591873 
L 216.163563 158.685773 
L 216.892127 158.685773 
L 216.892127 114.359143 
L 217.614352 114.359143 
L 217.614352 131.428616 
L 218.330344 131.428616 
L 218.330344 110.705716 
L 219.040213 110.705716 
L 219.040213 177.009216 
L 219.744061 177.009216 
L 219.744061 178.449919 
L 220.441989 178.449919 
L 220.441989 179.157609 
L 221.134097 179.157609 
L 221.134097 159.018784 
L 221.820481 159.018784 
L 221.820481 180.946854 
L 222.501234 180.946854 
L 222.501234 181.649361 
L 223.176449 181.649361 
L 223.176449 182.688168 
L 223.846214 182.688168 
L 223.846214 183.54424 
L 224.510617 183.54424 
L 224.510617 184.398329 
L 225.169743 184.398329 
L 225.169743 185.255768 
L 225.823675 185.255768 
L 225.823675 167.197469 
L 226.472495 167.197469 
L 226.472495 185.411012 
L 227.116281 185.411012 
L 227.116281 174.926696 
L 227.755112 174.926696 
L 227.755112 167.251083 
L 228.389063 167.251083 
L 228.389063 176.114928 
L 229.018207 176.114928 
L 229.018207 134.030954 
L 229.642618 134.030954 
L 229.642618 168.342126 
L 230.262366 168.342126 
L 230.262366 179.261643 
L 230.87752 179.261643 
L 230.87752 136.337807 
L 231.488148 136.337807 
L 231.488148 187.114677 
L 232.094316 187.114677 
L 232.094316 183.024525 
L 232.696088 183.024525 
L 232.696088 186.608547 
L 233.293527 186.608547 
L 233.293527 185.780773 
L 233.886697 185.780773 
L 233.886697 189.488252 
L 234.475657 189.488252 
L 234.475657 149.7403 
L 235.060467 149.7403 
L 235.060467 192.251188 
L 235.641184 192.251188 
L 235.641184 193.204945 
L 236.217866 193.204945 
L 236.217866 193.96459 
L 236.790568 193.96459 
L 236.790568 158.367987 
L 237.359346 158.367987 
L 237.359346 165.604454 
L 238.485337 165.53921 
L 238.485337 174.967746 
L 239.042655 174.967746 
L 239.042655 177.190376 
L 239.596256 177.190376 
L 239.596256 171.078691 
L 240.146188 171.078691 
L 240.146188 169.734715 
L 240.6925 169.734715 
L 240.6925 170.899453 
L 241.235239 170.899453 
L 241.235239 171.736779 
L 241.774451 171.736779 
L 241.774451 173.785602 
L 242.310183 173.785602 
L 242.310183 174.545974 
L 242.842478 174.545974 
L 242.842478 176.141948 
L 243.371381 176.141948 
L 243.371381 159.134709 
L 243.896935 159.134709 
L 243.896935 178.433279 
L 244.419181 178.433279 
L 244.419181 179.399139 
L 244.938161 179.399139 
L 244.938161 180.569317 
L 245.453916 180.569317 
L 245.453916 181.663769 
L 245.966486 181.663769 
L 245.966486 182.635816 
L 246.475909 182.635816 
L 246.475909 183.648384 
L 246.982224 183.648384 
L 246.982224 184.831586 
L 247.485468 184.831586 
L 247.485468 185.660946 
L 247.98568 185.660946 
L 247.98568 168.040327 
L 248.482894 168.040327 
L 248.482894 187.390637 
L 248.977148 187.390637 
L 248.977148 188.447291 
L 249.468475 188.447291 
L 249.468475 189.429811 
L 249.95691 189.429811 
L 249.95691 176.136884 
L 250.442488 176.136884 
L 250.442488 191.267583 
L 250.92524 191.267583 
L 250.92524 181.510235 
L 251.405201 181.510235 
L 251.405201 185.113394 
L 251.882402 185.113394 
L 251.882402 187.82568 
L 252.356875 187.82568 
L 252.356875 187.149079 
L 252.82865 187.149079 
L 252.82865 191.457121 
L 253.297759 191.457121 
L 253.297759 190.635059 
L 253.764231 190.635059 
L 253.764231 190.224786 
L 254.228095 190.224786 
L 254.228095 191.415928 
L 254.689381 191.415928 
L 254.689381 192.47308 
L 255.148117 192.47308 
L 255.148117 193.085965 
L 256.058052 193.124218 
L 256.058052 195.251102 
L 256.509305 195.251102 
L 256.509305 160.549138 
L 256.958118 160.549138 
L 256.958118 194.328078 
L 257.404516 194.328078 
L 257.404516 174.471216 
L 257.848526 174.471216 
L 257.848526 157.046826 
L 258.290173 157.046826 
L 258.290173 199.643616 
L 258.729483 199.643616 
L 258.729483 200.650908 
L 259.166479 200.650908 
L 259.166479 201.42316 
L 259.601185 201.42316 
L 259.601185 202.325371 
L 260.033627 202.325371 
L 260.033627 203.040032 
L 260.463827 203.040032 
L 260.463827 203.764661 
L 260.891809 203.764661 
L 260.891809 204.479902 
L 261.317594 204.479902 
L 261.317594 205.234438 
L 261.741207 205.234438 
L 261.741207 206.017889 
L 262.162668 206.017889 
L 262.162668 206.773732 
L 262.581999 206.773732 
L 262.581999 207.431226 
L 262.999222 207.431226 
L 262.999222 208.066653 
L 263.414358 208.066653 
L 263.414358 208.731412 
L 263.827428 208.731412 
L 263.827428 209.40157 
L 264.238452 209.40157 
L 264.238452 210.063793 
L 264.64745 210.063793 
L 264.64745 210.749286 
L 265.054442 210.749286 
L 265.054442 211.06182 
L 265.459449 211.06182 
L 265.459449 211.568345 
L 265.862488 211.568345 
L 265.862488 212.56692 
L 266.662741 212.477308 
L 266.662741 206.998091 
L 267.059993 206.998091 
L 267.059993 213.476255 
L 267.455352 213.476255 
L 267.455352 215.022109 
L 267.848836 215.022109 
L 267.848836 204.576934 
L 268.240464 204.576934 
L 268.240464 215.126363 
L 268.630252 215.126363 
L 268.630252 214.016169 
L 269.018218 214.016169 
L 269.018218 216.74213 
L 269.404378 216.74213 
L 269.404378 217.789315 
L 269.78875 217.789315 
L 269.78875 217.930002 
L 270.17135 217.930002 
L 270.17135 218.553274 
L 270.552195 218.553274 
L 270.552195 185.964613 
L 270.931299 185.964613 
L 270.931299 219.959868 
L 271.30868 219.959868 
L 271.30868 214.474482 
L 271.684352 214.474482 
L 271.684352 217.329237 
L 272.058331 217.329237 
L 272.058331 221.593095 
L 272.430633 221.593095 
L 272.430633 220.740588 
L 272.801271 220.740588 
L 272.801271 218.645665 
L 273.170262 218.645665 
L 273.170262 220.938738 
L 273.903358 220.855194 
L 273.903358 220.686201 
L 274.267492 220.686201 
L 274.267492 223.145657 
L 274.630035 223.145657 
L 274.630035 199.502554 
L 274.991001 199.502554 
L 274.991001 223.928461 
L 275.350404 223.928461 
L 275.350404 224.844423 
L 275.708257 224.844423 
L 275.708257 226.155768 
L 276.064573 226.155768 
L 276.064573 226.770853 
L 276.419367 226.770853 
L 276.419367 207.976689 
L 276.77265 207.976689 
L 276.77265 227.832671 
L 277.124435 227.832671 
L 277.124435 228.288287 
L 277.474735 228.288287 
L 277.474735 214.471903 
L 277.823564 214.471903 
L 277.823564 228.901116 
L 278.170931 228.901116 
L 278.170931 214.904011 
L 278.516851 214.904011 
L 278.516851 221.427105 
L 278.861336 221.427105 
L 278.861336 227.610663 
L 279.204396 227.610663 
L 279.204396 224.614858 
L 279.546043 224.614858 
L 279.546043 220.343503 
L 279.88629 220.343503 
L 279.88629 218.382914 
L 280.225148 218.382914 
L 280.225148 219.364971 
L 280.562628 219.364971 
L 280.562628 219.171464 
L 280.898741 219.171464 
L 280.898741 221.079286 
L 281.233498 221.079286 
L 281.233498 222.235377 
L 281.56691 222.235377 
L 281.56691 223.142208 
L 281.898988 223.142208 
L 281.898988 224.089003 
L 282.229743 224.089003 
L 282.229743 224.883499 
L 282.559185 224.883499 
L 282.559185 225.640338 
L 282.887324 225.640338 
L 282.887324 226.393774 
L 283.21417 226.393774 
L 283.21417 227.237444 
L 283.539735 227.237444 
L 283.539735 227.971885 
L 283.864027 227.971885 
L 283.864027 228.693316 
L 284.187057 228.693316 
L 284.187057 229.460173 
L 284.508834 229.460173 
L 284.508834 229.765568 
L 284.829369 229.765568 
L 284.829369 230.710436 
L 285.14867 230.710436 
L 285.14867 230.069109 
L 285.466747 230.069109 
L 285.466747 232.067068 
L 285.78361 232.067068 
L 285.78361 231.595679 
L 286.099268 231.595679 
L 286.099268 232.69277 
L 286.41373 232.69277 
L 286.41373 233.956602 
L 286.727005 233.956602 
L 286.727005 229.919868 
L 287.039101 229.919868 
L 287.039101 231.865076 
L 287.350028 231.865076 
L 287.350028 235.182655 
L 287.659795 235.182655 
L 287.659795 228.456271 
L 287.96841 228.456271 
L 287.96841 229.532046 
L 288.275881 229.532046 
L 288.275881 236.326823 
L 288.582217 236.326823 
L 288.582217 211.260067 
L 288.887427 211.260067 
L 288.887427 220.751661 
L 289.191518 220.751661 
L 289.191518 222.725484 
L 289.4945 222.725484 
L 289.4945 228.966979 
L 289.796379 228.966979 
L 289.796379 209.595133 
L 290.097163 209.595133 
L 290.097163 240.028872 
L 290.396862 240.028872 
L 290.396862 240.535701 
L 290.695482 240.535701 
L 290.695482 240.227744 
L 290.993032 240.227744 
L 290.993032 241.321037 
L 291.289518 241.321037 
L 291.289518 241.771124 
L 291.58495 241.771124 
L 291.58495 242.227004 
L 291.879333 242.227004 
L 291.879333 242.669813 
L 292.172675 242.669813 
L 292.172675 243.110991 
L 292.464985 243.110991 
L 292.464985 243.560477 
L 292.756268 243.560477 
L 292.756268 243.994976 
L 293.046532 243.994976 
L 293.046532 244.378859 
L 293.335785 244.378859 
L 293.335785 244.771482 
L 293.624033 244.771482 
L 293.624033 245.214801 
L 293.911284 245.214801 
L 293.911284 245.631856 
L 294.197543 245.631856 
L 294.197543 246.048106 
L 294.482819 246.048106 
L 294.482819 246.453696 
L 294.767117 246.453696 
L 294.767117 246.839362 
L 295.050445 246.839362 
L 295.050445 247.209286 
L 295.332809 247.209286 
L 295.332809 247.598032 
L 295.614215 247.598032 
L 295.614215 247.93984 
L 295.89467 247.93984 
L 295.89467 248.308105 
L 296.174181 248.308105 
L 296.174181 248.687916 
L 296.452753 248.687916 
L 296.452753 249.061229 
L 296.730394 249.061229 
L 296.730394 249.294524 
L 297.282903 249.36705 
L 297.282903 250.070633 
L 297.557785 250.070633 
L 297.557785 250.493981 
L 297.831759 250.493981 
L 297.831759 250.84149 
L 298.104832 250.84149 
L 298.104832 251.161062 
L 298.377009 251.161062 
L 298.377009 250.686466 
L 298.648296 250.686466 
L 298.648296 251.78145 
L 299.188224 251.676338 
L 299.188224 252.251684 
L 299.456877 252.251684 
L 299.456877 252.888424 
L 299.724663 252.888424 
L 299.724663 252.469464 
L 300.257656 252.463113 
L 300.257656 248.207732 
L 300.522874 248.207732 
L 300.522874 246.464813 
L 300.787248 246.464813 
L 300.787248 252.466856 
L 301.050782 252.466856 
L 301.050782 250.497421 
L 301.313481 250.497421 
L 301.313481 254.484878 
L 301.575352 254.484878 
L 301.575352 254.715731 
L 301.836399 254.715731 
L 301.836399 254.591784 
L 302.096628 254.591784 
L 302.096628 255.704656 
L 302.356043 255.704656 
L 302.356043 255.89336 
L 302.614649 255.89336 
L 302.614649 238.843505 
L 302.872453 238.843505 
L 302.872453 256.19671 
L 303.129457 256.19671 
L 303.129457 256.999337 
L 303.385669 256.999337 
L 303.385669 257.40567 
L 303.641092 257.40567 
L 303.641092 256.468462 
L 303.895731 256.468462 
L 303.895731 254.148434 
L 304.149591 254.148434 
L 304.149591 257.569424 
L 304.402677 257.569424 
L 304.402677 255.106313 
L 304.654994 255.106313 
L 304.654994 259.054659 
L 304.906546 259.054659 
L 304.906546 258.324454 
L 305.157337 258.324454 
L 305.157337 259.657783 
L 305.656658 259.760711 
L 305.656658 257.545549 
L 305.905196 257.545549 
L 305.905196 258.55931 
L 306.152993 258.55931 
L 306.152993 260.92803 
L 306.400051 260.92803 
L 306.400051 259.43 
L 306.646376 259.43 
L 306.646376 260.808891 
L 306.891973 260.808891 
L 306.891973 250.164382 
L 307.136844 250.164382 
L 307.136844 261.375399 
L 307.380995 261.375399 
L 307.380995 260.612674 
L 307.62443 260.612674 
L 307.62443 261.499337 
L 307.867153 261.499337 
L 307.867153 262.339926 
L 308.35048 262.333834 
L 308.35048 262.89466 
L 308.591092 262.89466 
L 308.591092 257.022627 
L 308.831008 257.022627 
L 308.831008 263.917637 
L 309.070232 263.917637 
L 309.070232 264.095143 
L 309.308769 264.095143 
L 309.308769 264.551401 
L 309.546623 264.551401 
L 309.546623 260.768009 
L 309.783796 260.768009 
L 309.783796 265.130459 
L 310.020294 265.130459 
L 310.020294 262.727764 
L 310.25612 262.727764 
L 310.25612 265.634264 
L 310.491277 265.634264 
L 310.491277 264.009729 
L 310.72577 264.009729 
L 310.72577 264.929141 
L 310.959602 264.929141 
L 310.959602 265.560673 
L 311.192778 265.560673 
L 311.192778 266.092386 
L 311.425299 266.092386 
L 311.425299 264.144311 
L 311.657172 264.144311 
L 311.657172 265.625788 
L 311.888398 265.625788 
L 311.888398 263.229148 
L 312.118982 263.229148 
L 312.118982 260.065555 
L 312.348926 260.065555 
L 312.348926 260.516435 
L 312.578236 260.516435 
L 312.578236 264.724615 
L 312.806914 264.724615 
L 312.806914 265.110619 
L 313.034963 265.110619 
L 313.034963 256.950976 
L 313.262387 256.950976 
L 313.262387 263.129629 
L 313.48919 263.129629 
L 313.48919 266.656753 
L 313.940944 266.554687 
L 313.940944 260.483448 
L 314.165902 260.483448 
L 314.165902 267.747096 
L 314.390253 267.747096 
L 314.390253 268.301081 
L 314.837142 268.241167 
L 314.837142 267.16774 
L 315.059687 267.16774 
L 315.059687 269.056625 
L 315.281637 269.056625 
L 315.281637 269.366804 
L 315.502995 269.366804 
L 315.502995 269.899824 
L 315.723764 269.899824 
L 315.723764 269.729133 
L 315.943948 269.729133 
L 315.943948 270.656261 
L 316.163549 270.656261 
L 316.163549 271.030682 
L 316.38257 271.030682 
L 316.38257 271.274035 
L 316.818886 271.223026 
L 316.818886 272.055659 
L 317.036187 272.055659 
L 317.036187 272.365137 
L 317.25292 272.365137 
L 317.25292 272.655586 
L 317.469089 272.655586 
L 317.469089 272.917204 
L 317.684696 272.917204 
L 317.684696 273.212928 
L 317.899745 273.212928 
L 317.899745 273.501184 
L 318.114238 273.501184 
L 318.114238 273.720408 
L 318.328177 273.720408 
L 318.328177 274.027579 
L 318.541567 274.027579 
L 318.541567 274.221227 
L 318.754409 274.221227 
L 318.754409 274.567381 
L 318.966707 274.567381 
L 318.966707 274.823277 
L 319.178463 274.823277 
L 319.178463 274.963013 
L 319.38968 274.963013 
L 319.38968 275.357699 
L 319.600361 275.357699 
L 319.600361 275.626877 
L 319.810509 275.626877 
L 319.810509 275.872874 
L 320.020126 275.872874 
L 320.020126 276.183912 
L 320.229214 276.183912 
L 320.229214 276.422886 
L 320.437777 276.422886 
L 320.437777 276.724314 
L 320.645817 276.724314 
L 320.645817 276.958806 
L 320.853338 276.958806 
L 320.853338 276.845129 
L 321.06034 276.845129 
L 321.06034 277.431936 
L 321.472802 277.508698 
L 321.472802 277.94403 
L 321.678267 277.94403 
L 321.678267 278.194234 
L 321.883225 278.194234 
L 321.883225 278.433265 
L 322.087677 278.433265 
L 322.087677 278.685722 
L 322.291627 278.685722 
L 322.291627 278.935281 
L 322.495077 278.935281 
L 322.495077 279.143405 
L 322.900487 279.159122 
L 322.900487 279.613316 
L 323.102452 279.613316 
L 323.102452 279.768935 
L 323.303926 279.768935 
L 323.303926 280.11088 
L 323.504913 280.11088 
L 323.504913 280.317281 
L 323.705414 280.317281 
L 323.705414 280.562674 
L 323.905431 280.562674 
L 323.905431 280.807003 
L 324.104968 280.807003 
L 324.104968 281.012719 
L 324.304026 281.012719 
L 324.304026 281.260163 
L 324.502608 281.260163 
L 324.502608 281.416121 
L 324.898352 281.418767 
L 324.898352 281.915065 
L 325.095518 281.915065 
L 325.095518 282.163169 
L 325.292217 282.163169 
L 325.292217 282.376375 
L 325.488451 282.376375 
L 325.488451 282.639711 
L 325.684222 282.639711 
L 325.684222 282.868881 
L 325.879533 282.868881 
L 325.879533 283.047285 
L 326.074384 283.047285 
L 326.074384 283.280947 
L 326.26878 283.280947 
L 326.26878 283.548227 
L 326.462721 283.548227 
L 326.462721 283.719416 
L 326.65621 283.719416 
L 326.65621 284.022105 
L 326.849248 284.022105 
L 326.849248 284.246126 
L 327.041839 284.246126 
L 327.041839 284.464446 
L 327.233984 284.464446 
L 327.233984 284.690184 
L 327.425685 284.690184 
L 327.425685 284.918642 
L 327.616945 284.918642 
L 327.616945 285.066557 
L 327.807764 285.066557 
L 327.807764 285.242015 
L 327.998146 285.242015 
L 327.998146 285.562623 
L 328.188092 285.562623 
L 328.188092 285.744215 
L 328.377604 285.744215 
L 328.377604 285.905782 
L 328.566684 285.905782 
L 328.566684 286.187954 
L 328.755335 286.187954 
L 328.755335 286.398352 
L 328.943558 286.398352 
L 328.943558 286.611235 
L 329.131355 286.611235 
L 329.131355 286.792366 
L 329.318727 286.792366 
L 329.318727 287.002743 
L 329.505678 287.002743 
L 329.505678 287.251902 
L 329.692209 287.251902 
L 329.692209 287.395388 
L 329.878321 287.395388 
L 329.878321 287.666905 
L 330.064017 287.666905 
L 330.064017 287.895118 
L 330.249298 287.895118 
L 330.249298 288.10927 
L 330.434166 288.10927 
L 330.434166 288.324799 
L 330.618624 288.324799 
L 330.618624 288.541075 
L 330.802672 288.541075 
L 330.802672 288.764632 
L 330.986313 288.764632 
L 330.986313 288.99303 
L 331.169549 288.99303 
L 331.169549 289.208608 
L 331.352381 289.208608 
L 331.352381 289.388872 
L 331.534811 289.388872 
L 331.534811 289.57736 
L 331.716841 289.57736 
L 331.716841 289.822472 
L 331.898473 289.822472 
L 331.898473 290.055909 
L 332.079708 290.055909 
L 332.079708 290.27642 
L 332.260548 290.27642 
L 332.260548 290.489187 
L 332.440994 290.489187 
L 332.440994 290.706581 
L 332.62105 290.706581 
L 332.62105 290.919488 
L 332.800715 290.919488 
L 332.800715 291.119756 
L 332.979993 291.119756 
L 332.979993 291.284997 
L 333.158883 291.284997 
L 333.158883 291.502342 
L 333.33739 291.502342 
L 333.33739 291.669778 
L 333.515513 291.669778 
L 333.515513 291.888816 
L 333.693254 291.888816 
L 333.693254 292.054773 
L 333.870616 292.054773 
L 333.870616 292.270191 
L 334.047599 292.270191 
L 334.047599 292.475933 
L 334.224206 292.475933 
L 334.224206 292.640455 
L 334.400437 292.640455 
L 334.400437 290.610663 
L 334.576296 290.610663 
L 334.576296 292.854267 
L 334.751782 292.854267 
L 334.751782 293.171789 
L 334.926898 293.171789 
L 334.926898 292.574732 
L 335.101646 292.574732 
L 335.101646 287.526899 
L 335.276026 287.526899 
L 335.276026 293.780097 
L 335.45004 293.780097 
L 335.45004 293.902021 
L 335.623691 293.902021 
L 335.623691 291.444982 
L 335.796978 291.444982 
L 335.796978 291.068405 
L 335.969905 291.068405 
L 335.969905 294.264759 
L 336.142472 294.264759 
L 336.142472 294.906656 
L 336.486534 294.842164 
L 336.486534 293.639709 
L 336.658031 293.639709 
L 336.658031 295.375747 
L 336.829175 295.375747 
L 336.829175 295.730394 
L 336.999966 295.730394 
L 336.999966 295.933523 
L 337.170407 295.933523 
L 337.170407 296.055138 
L 337.340498 296.055138 
L 337.340498 296.222368 
L 337.510242 296.222368 
L 337.510242 296.552273 
L 337.679638 296.552273 
L 337.679638 296.752325 
L 337.84869 296.752325 
L 337.84869 296.929369 
L 338.017399 296.929369 
L 338.017399 297.110889 
L 338.185764 297.110889 
L 338.185764 297.284803 
L 338.35379 297.284803 
L 338.35379 297.472038 
L 338.521475 297.472038 
L 338.521475 297.652532 
L 338.688822 297.652532 
L 338.688822 297.834195 
L 338.855833 297.834195 
L 338.855833 298.009979 
L 339.022508 298.009979 
L 339.022508 298.198184 
L 339.188849 298.198184 
L 339.188849 298.389386 
L 339.354858 298.389386 
L 339.354858 298.583313 
L 339.520535 298.583313 
L 339.520535 298.775777 
L 339.685882 298.775777 
L 339.685882 298.967041 
L 339.8509 298.967041 
L 339.8509 299.161098 
L 340.01559 299.161098 
L 340.01559 299.357085 
L 340.179955 299.357085 
L 340.179955 299.554918 
L 340.343994 299.554918 
L 340.343994 299.753717 
L 340.50771 299.753717 
L 340.50771 299.953897 
L 340.671104 299.953897 
L 340.671104 300.157022 
L 340.834176 300.157022 
L 340.834176 300.344192 
L 340.996929 300.344192 
L 340.996929 300.549161 
L 341.159363 300.549161 
L 341.159363 300.738205 
L 341.32148 300.738205 
L 341.32148 300.929826 
L 341.483281 300.929826 
L 341.483281 301.124164 
L 341.644767 301.124164 
L 341.644767 301.321506 
L 341.805939 301.321506 
L 341.805939 301.521629 
L 341.966799 301.521629 
L 341.966799 301.72425 
L 342.127348 301.72425 
L 342.127348 301.85826 
L 342.287586 301.85826 
L 342.287586 302.108282 
L 342.447516 302.108282 
L 342.447516 302.279184 
L 342.607139 302.279184 
L 342.607139 302.464216 
L 342.766455 302.464216 
L 342.766455 302.636923 
L 342.925465 302.636923 
L 342.925465 302.809658 
L 343.084172 302.809658 
L 343.084172 302.983897 
L 343.242575 302.983897 
L 343.242575 303.159856 
L 343.400677 303.159856 
L 343.400677 303.335209 
L 343.71598 303.343534 
L 343.71598 303.666537 
L 343.873183 303.666537 
L 343.873183 303.815225 
L 344.03009 303.815225 
L 344.03009 304.036113 
L 344.1867 304.036113 
L 344.1867 304.23434 
L 344.343015 304.23434 
L 344.343015 304.421484 
L 344.499036 304.421484 
L 344.499036 304.612265 
L 344.654764 304.612265 
L 344.654764 304.804615 
L 344.810201 304.804615 
L 344.810201 304.994582 
L 345.120204 305.085059 
L 345.120204 305.376914 
L 345.274772 305.376914 
L 345.274772 305.567612 
L 345.429053 305.567612 
L 345.429053 305.705727 
L 345.583047 305.705727 
L 345.583047 305.940753 
L 345.736757 305.940753 
L 345.736757 306.118434 
L 345.890182 306.118434 
L 345.890182 306.315474 
L 346.043324 306.315474 
L 346.043324 306.504183 
L 346.196184 306.504183 
L 346.196184 306.691423 
L 346.348763 306.691423 
L 346.348763 306.886104 
L 346.501062 306.886104 
L 346.501062 307.077967 
L 346.653082 307.077967 
L 346.653082 307.262952 
L 346.804824 307.262952 
L 346.804824 307.440103 
L 346.956289 307.440103 
L 346.956289 307.611775 
L 347.107478 307.611775 
L 347.107478 307.786505 
L 347.258392 307.786505 
L 347.258392 307.958498 
L 347.409033 307.958498 
L 347.409033 308.124579 
L 347.5594 308.124579 
L 347.5594 308.275771 
L 347.709495 308.275771 
L 347.709495 308.460737 
L 347.85932 308.460737 
L 347.85932 308.630172 
L 348.008874 308.630172 
L 348.008874 308.796457 
L 348.158159 308.796457 
L 348.158159 308.972135 
L 348.307176 308.972135 
L 348.307176 309.147333 
L 348.455927 309.147333 
L 348.455927 309.32124 
L 348.604411 309.32124 
L 348.604411 309.500903 
L 348.75263 309.500903 
L 348.75263 309.679404 
L 348.900584 309.679404 
L 348.900584 309.860472 
L 349.048275 309.860472 
L 349.048275 310.043919 
L 349.195704 310.043919 
L 349.195704 310.229971 
L 349.342872 310.229971 
L 349.342872 310.41742 
L 349.489779 310.41742 
L 349.489779 310.605077 
L 349.636426 310.605077 
L 349.636426 310.799205 
L 349.782815 310.799205 
L 349.782815 310.981925 
L 349.928946 310.981925 
L 349.928946 311.157696 
L 350.07482 311.157696 
L 350.07482 311.336957 
L 350.220438 311.336957 
L 350.220438 311.516607 
L 350.365801 311.516607 
L 350.365801 311.696059 
L 350.51091 311.696059 
L 350.51091 311.882952 
L 350.655765 311.882952 
L 350.655765 312.06896 
L 350.800368 312.06896 
L 350.800368 312.257473 
L 350.94472 312.257473 
L 350.94472 312.435845 
L 351.088821 312.435845 
L 351.088821 312.59944 
L 351.232672 312.59944 
L 351.232672 312.763216 
L 351.376275 312.763216 
L 351.376275 312.92706 
L 351.519629 312.92706 
L 351.519629 313.092526 
L 351.662736 313.092526 
L 351.662736 313.259667 
L 351.805597 313.259667 
L 351.805597 313.426616 
L 351.948212 313.426616 
L 351.948212 313.591799 
L 352.090582 313.591799 
L 352.090582 313.758391 
L 352.232709 313.758391 
L 352.232709 313.924497 
L 352.374593 313.924497 
L 352.374593 314.091618 
L 352.516234 314.091618 
L 352.516234 314.25979 
L 352.657634 314.25979 
L 352.657634 314.429716 
L 352.798794 314.429716 
L 352.798794 314.602459 
L 352.939714 314.602459 
L 352.939714 314.775942 
L 353.080395 314.775942 
L 353.080395 314.952384 
L 353.220838 314.952384 
L 353.220838 315.130449 
L 353.361044 315.130449 
L 353.361044 315.310322 
L 353.501013 315.310322 
L 353.501013 315.492004 
L 353.640747 315.492004 
L 353.640747 315.67551 
L 353.780246 315.67551 
L 353.780246 315.860278 
L 353.91951 315.860278 
L 353.91951 316.040211 
L 354.058542 316.040211 
L 354.058542 316.213015 
L 354.19734 316.213015 
L 354.19734 316.387951 
L 354.335907 316.387951 
L 354.335907 316.565227 
L 354.474243 316.565227 
L 354.474243 316.743605 
L 354.612349 316.743605 
L 354.612349 316.922512 
L 354.750226 316.922512 
L 354.750226 317.102296 
L 354.887873 317.102296 
L 354.887873 317.263438 
L 355.025293 317.263438 
L 355.025293 316.864627 
L 355.162486 316.864627 
L 355.162486 315.772468 
L 355.299452 315.772468 
L 355.299452 317.687422 
L 355.436193 317.687422 
L 355.436193 317.913221 
L 355.708999 318.018589 
L 355.708999 317.114622 
L 355.845067 317.114622 
L 355.845067 318.02341 
L 355.980913 318.02341 
L 355.980913 318.576436 
L 356.116536 318.576436 
L 356.116536 318.734988 
L 356.387119 318.803688 
L 356.387119 318.93521 
L 356.522081 318.93521 
L 356.522081 319.189265 
L 356.656823 319.189265 
L 356.656823 319.411692 
L 356.791347 319.411692 
L 356.791347 319.579464 
L 356.925653 319.579464 
L 356.925653 319.742193 
L 357.059742 319.742193 
L 357.059742 319.908302 
L 357.193615 319.908302 
L 357.193615 320.091824 
L 357.327273 320.091824 
L 357.327273 320.267209 
L 357.460715 320.267209 
L 357.460715 320.445163 
L 357.593943 320.445163 
L 357.593943 320.624993 
L 357.726958 320.624993 
L 357.726958 320.806544 
L 357.85976 320.806544 
L 357.85976 320.98637 
L 357.992349 320.98637 
L 357.992349 321.154844 
L 358.124728 321.154844 
L 358.124728 321.323463 
L 358.256895 321.323463 
L 358.256895 321.494212 
L 358.388852 321.494212 
L 358.388852 321.667325 
L 358.5206 321.667325 
L 358.5206 321.842856 
L 358.652139 321.842856 
L 358.652139 322.020859 
L 358.783469 322.020859 
L 358.783469 322.201322 
L 358.914592 322.201322 
L 358.914592 322.375029 
L 359.045509 322.375029 
L 359.045509 322.529873 
L 359.176219 322.529873 
L 359.176219 322.685856 
L 359.306723 322.685856 
L 359.306723 322.843768 
L 359.437023 322.843768 
L 359.437023 323.002528 
L 359.567119 323.002528 
L 359.567119 323.159613 
L 359.69701 323.159613 
L 359.69701 323.320016 
L 359.826699 323.320016 
L 359.826699 323.480729 
L 359.956186 323.480729 
L 359.956186 323.642543 
L 360.08547 323.642543 
L 360.08547 323.805398 
L 360.214554 323.805398 
L 360.214554 323.966769 
L 360.343437 323.966769 
L 360.343437 324.127126 
L 360.472121 324.127126 
L 360.472121 324.28799 
L 360.600605 324.28799 
L 360.600605 324.453911 
L 360.72889 324.453911 
L 360.72889 324.619997 
L 360.856978 324.619997 
L 360.856978 324.788288 
L 360.984868 324.788288 
L 360.984868 324.958637 
L 361.112561 324.958637 
L 361.112561 325.129484 
L 361.240058 325.129484 
L 361.240058 325.302128 
L 361.36736 325.302128 
L 361.36736 325.477324 
L 361.494466 325.477324 
L 361.494466 325.654488 
L 361.621379 325.654488 
L 361.621379 325.833643 
L 361.748097 325.833643 
L 361.748097 326.007046 
L 361.874622 326.007046 
L 361.874622 326.171089 
L 362.000955 326.171089 
L 362.000955 326.337336 
L 362.127095 326.337336 
L 362.127095 326.503157 
L 362.253045 326.503157 
L 362.253045 326.674582 
L 362.378803 326.674582 
L 362.378803 326.793411 
L 362.504371 326.793411 
L 362.504371 327.022041 
L 362.629749 327.022041 
L 362.629749 327.197347 
L 362.754938 327.197347 
L 362.754938 327.354612 
L 362.879939 327.354612 
L 362.879939 327.507673 
L 363.004752 327.507673 
L 363.004752 327.662563 
L 363.129377 327.662563 
L 363.129377 327.818565 
L 363.253815 327.818565 
L 363.253815 327.975317 
L 363.378067 327.975317 
L 363.378067 328.132812 
L 363.502133 328.132812 
L 363.502133 328.287092 
L 363.626015 328.287092 
L 363.626015 328.411985 
L 363.749711 328.411985 
L 363.749711 328.602919 
L 363.873223 328.602919 
L 363.873223 328.763043 
L 363.996552 328.763043 
L 363.996552 328.93061 
L 364.119698 328.93061 
L 364.119698 329.092446 
L 364.242661 329.092446 
L 364.242661 329.246744 
L 364.365442 329.246744 
L 364.365442 329.413553 
L 364.488042 329.413553 
L 364.488042 329.57707 
L 364.610462 329.57707 
L 364.610462 329.742078 
L 364.7327 329.742078 
L 364.7327 329.909246 
L 364.854759 329.909246 
L 364.854759 330.064873 
L 364.976639 330.064873 
L 364.976639 330.247827 
L 365.09834 330.247827 
L 365.09834 330.422003 
L 365.219863 330.422003 
L 365.219863 330.597528 
L 365.341208 330.597528 
L 365.341208 330.77697 
L 365.462376 330.77697 
L 365.462376 330.946376 
L 365.583367 330.946376 
L 365.583367 331.109176 
L 365.704183 331.109176 
L 365.704183 331.269733 
L 365.824822 331.269733 
L 365.824822 331.437362 
L 365.945287 331.437362 
L 365.945287 331.604982 
L 366.065576 331.604982 
L 366.065576 331.77555 
L 366.185692 331.77555 
L 366.185692 331.945679 
L 366.305634 331.945679 
L 366.305634 332.11433 
L 366.425403 332.11433 
L 366.425403 332.26343 
L 366.545 332.26343 
L 366.545 332.412884 
L 366.664424 332.412884 
L 366.664424 332.564463 
L 366.783677 332.564463 
L 366.783677 332.7184 
L 366.902758 332.7184 
L 366.902758 332.873761 
L 367.021669 332.873761 
L 367.021669 333.030815 
L 367.14041 333.030815 
L 367.14041 333.188072 
L 367.258981 333.188072 
L 367.258981 333.343095 
L 367.377383 333.343095 
L 367.377383 333.501628 
L 367.495617 333.501628 
L 367.495617 333.660746 
L 367.613682 333.660746 
L 367.613682 333.820923 
L 367.731579 333.820923 
L 367.731579 333.98237 
L 367.849309 333.98237 
L 367.849309 334.145481 
L 367.966873 334.145481 
L 367.966873 334.305377 
L 368.08427 334.305377 
L 368.08427 334.466365 
L 368.201501 334.466365 
L 368.201501 334.629256 
L 368.318567 334.629256 
L 368.318567 334.793712 
L 368.435468 334.793712 
L 368.435468 334.960333 
L 368.552204 334.960333 
L 368.552204 335.129222 
L 368.668777 335.129222 
L 368.668777 335.300382 
L 368.785186 335.300382 
L 368.785186 335.473861 
L 368.901432 335.473861 
L 368.901432 335.649113 
L 369.017515 335.649113 
L 369.017515 335.816182 
L 369.133436 335.816182 
L 369.133436 335.978486 
L 369.249196 335.978486 
L 369.249196 336.141307 
L 369.364794 336.141307 
L 369.364794 336.304514 
L 369.480231 336.304514 
L 369.480231 336.469569 
L 369.595508 336.469569 
L 369.595508 336.636688 
L 369.710626 336.636688 
L 369.710626 336.80606 
L 369.825583 336.80606 
L 369.825583 336.965308 
L 369.940382 336.965308 
L 369.940382 337.110852 
L 370.055022 337.110852 
L 370.055022 337.257924 
L 370.169504 337.257924 
L 370.169504 337.406574 
L 370.283828 337.406574 
L 370.283828 337.557206 
L 370.397995 337.557206 
L 370.397995 337.709746 
L 370.512006 337.709746 
L 370.512006 337.863938 
L 370.625859 337.863938 
L 370.625859 338.019859 
L 370.739557 338.019859 
L 370.739557 338.17679 
L 370.853099 338.17679 
L 370.853099 338.332878 
L 370.966486 338.332878 
L 370.966486 338.49101 
L 371.079719 338.49101 
L 371.079719 338.649894 
L 371.192797 338.649894 
L 371.192797 338.810149 
L 371.305721 338.810149 
L 371.305721 338.971311 
L 371.418492 338.971311 
L 371.418492 339.134433 
L 371.53111 339.134433 
L 371.53111 339.296117 
L 371.643575 339.296117 
L 371.643575 339.456682 
L 371.755888 339.456682 
L 371.755888 339.619398 
L 371.868049 339.619398 
L 371.868049 339.783673 
L 371.980058 339.783673 
L 371.980058 339.949345 
L 372.091917 339.949345 
L 372.091917 340.117976 
L 372.203625 340.117976 
L 372.203625 340.289067 
L 372.315183 340.289067 
L 372.315183 340.462012 
L 372.426592 340.462012 
L 372.426592 340.629908 
L 372.537851 340.629908 
L 372.648961 340.951799 
L 372.759922 340.951799 
L 372.870735 341.27885 
L 372.981401 341.27885 
L 373.091919 341.610195 
L 373.20229 341.610195 
L 373.312514 341.881243 
L 373.532525 341.954662 
L 373.642312 341.107382 
L 373.751954 341.107382 
L 373.861451 342.648246 
L 373.970805 342.648246 
L 374.080014 342.843744 
L 374.189079 342.843744 
L 374.298002 343.268747 
L 374.406781 343.268747 
L 374.515419 343.589889 
L 374.623914 343.589889 
L 374.732268 343.907095 
L 374.84048 343.907095 
L 374.948551 344.239418 
L 375.056482 344.239418 
L 375.164273 344.56293 
L 375.271924 344.56293 
L 375.379435 344.892954 
L 375.486808 344.892954 
L 375.594041 345.231273 
L 375.701136 345.231273 
L 375.808093 345.560633 
L 375.914913 345.560633 
L 376.021595 345.881202 
L 376.12814 345.881202 
L 376.234549 346.207938 
L 376.340821 346.207938 
L 376.446958 346.535079 
L 376.552958 346.535079 
L 376.552958 346.6 
" clip-path="url(#p83a3c15dc5)" style="fill: none; stroke: #1f77b4; stroke-width: 1.5; stroke-linecap: square"/>
   </g>
   <g id="line2d_23">
    <path d="M 73.832727 103.840506 
L 77.802695 103.840506 
L 77.802695 90.072049 
L 81.591389 90.072049 
L 81.591389 99.755806 
L 85.214644 99.755806 
L 85.214644 89.681743 
L 88.686304 89.681743 
L 88.686304 85.281535 
L 92.018547 85.281535 
L 92.018547 92.24412 
L 95.222141 92.24412 
L 95.222141 95.466578 
L 98.306649 95.466578 
L 98.306649 101.834642 
L 101.280611 101.834642 
L 101.280611 96.116752 
L 104.151675 96.116752 
L 104.151675 91.717209 
L 106.926725 91.717209 
L 106.926725 97.273053 
L 109.611975 97.273053 
L 109.611975 98.67783 
L 112.213056 98.67783 
L 112.213056 98.967598 
L 114.735084 98.967598 
L 114.735084 95.371059 
L 117.182722 95.371059 
L 117.182722 96.451528 
L 119.560235 96.451528 
L 119.560235 96.037486 
L 121.871528 96.037486 
L 121.871528 103.774594 
L 124.12019 103.774594 
L 124.12019 108.798079 
L 126.309526 108.798079 
L 126.309526 110.899138 
L 128.442587 110.899138 
L 128.442587 99.485129 
L 130.522193 99.485129 
L 130.522193 108.741624 
L 132.550958 108.741624 
L 132.550958 94.826594 
L 134.531309 94.826594 
L 134.531309 114.552722 
L 136.465502 114.552722 
L 136.465502 117.021217 
L 138.35564 117.021217 
L 138.35564 121.354881 
L 140.203686 121.354881 
L 140.203686 112.806274 
L 142.011473 112.806274 
L 142.011473 117.734644 
L 143.780719 117.734644 
L 143.780719 113.373926 
L 145.513032 113.373926 
L 145.513032 125.678865 
L 147.209923 125.678865 
L 147.209923 130.955155 
L 148.872811 130.955155 
L 148.872811 119.040289 
L 150.503032 119.040289 
L 150.503032 122.899153 
L 152.101846 122.899153 
L 152.101846 126.928305 
L 153.670439 126.928305 
L 153.670439 127.66749 
L 155.209933 127.66749 
L 155.209933 135.49618 
L 156.721388 135.49618 
L 156.721388 134.928054 
L 158.205807 134.928054 
L 158.205807 131.571056 
L 159.66414 131.571056 
L 159.66414 137.712039 
L 161.097288 137.712039 
L 161.097288 144.861141 
L 162.506106 144.861141 
L 162.506106 140.278035 
L 163.891407 140.278035 
L 163.891407 107.946749 
L 165.253963 107.946749 
L 165.253963 139.992243 
L 166.594509 139.992243 
L 166.594509 109.596816 
L 167.913744 109.596816 
L 167.913744 153.74611 
L 169.212336 153.74611 
L 169.212336 146.467862 
L 170.49092 146.467862 
L 170.49092 150.662172 
L 171.750104 150.662172 
L 171.750104 156.557762 
L 172.990468 156.557762 
L 172.990468 153.298557 
L 174.212566 153.298557 
L 174.212566 158.410419 
L 175.416928 158.410419 
L 175.416928 161.77262 
L 176.604061 161.77262 
L 176.604061 150.41218 
L 177.774453 150.41218 
L 177.774453 131.592923 
L 178.928567 131.592923 
L 178.928567 156.824264 
L 180.066851 156.824264 
L 180.066851 161.615824 
L 181.189734 161.615824 
L 181.189734 111.944096 
L 182.297626 111.944096 
L 182.297626 146.567541 
L 183.390922 146.567541 
L 183.390922 153.26469 
L 184.470002 153.26469 
L 184.470002 158.956376 
L 185.535232 158.956376 
L 185.535232 156.710052 
L 186.586961 156.710052 
L 186.586961 160.917537 
L 187.625528 160.917537 
L 187.625528 167.0572 
L 188.651259 167.0572 
L 188.651259 165.128321 
L 189.664466 165.128321 
L 189.664466 154.434465 
L 190.665452 154.434465 
L 190.665452 170.250783 
L 191.654508 170.250783 
L 191.654508 171.042957 
L 192.631916 171.042957 
L 192.631916 132.182926 
L 193.597946 132.182926 
L 193.597946 152.108551 
L 194.55286 152.108551 
L 194.55286 132.145693 
L 195.496911 132.145693 
L 195.496911 141.216846 
L 196.430344 141.216846 
L 196.430344 174.907684 
L 197.353394 174.907684 
L 197.353394 175.585437 
L 198.266291 175.585437 
L 198.266291 176.542358 
L 199.169254 176.542358 
L 199.169254 177.504608 
L 200.062499 177.504608 
L 200.062499 149.925261 
L 200.946232 149.925261 
L 200.946232 178.742704 
L 201.820652 178.742704 
L 201.820652 158.7492 
L 202.685956 158.7492 
L 202.685956 163.938885 
L 203.54233 163.938885 
L 203.54233 169.136073 
L 204.389958 169.136073 
L 204.389958 165.256709 
L 205.229015 165.256709 
L 205.229015 169.95269 
L 206.059674 169.95269 
L 206.059674 174.713141 
L 206.882101 174.713141 
L 206.882101 150.861827 
L 207.696457 150.861827 
L 207.696457 176.322729 
L 208.5029 176.322729 
L 208.5029 177.697271 
L 209.301582 177.697271 
L 209.301582 178.618812 
L 210.092651 178.618812 
L 210.092651 179.517565 
L 210.87625 179.517565 
L 210.87625 169.801706 
L 211.652519 169.801706 
L 211.652519 181.252311 
L 212.421594 181.252311 
L 212.421594 172.882739 
L 213.183608 172.882739 
L 213.183608 179.153484 
L 213.938688 179.153484 
L 213.938688 180.290481 
L 214.68696 180.290481 
L 214.68696 183.125747 
L 215.428546 183.125747 
L 215.428546 182.63353 
L 216.163563 182.63353 
L 216.163563 162.149518 
L 216.892127 162.149518 
L 216.892127 128.985203 
L 217.614352 128.985203 
L 217.614352 145.106258 
L 218.330344 145.106258 
L 218.330344 127.199605 
L 219.040213 127.199605 
L 219.040213 188.573615 
L 219.744061 188.573615 
L 219.744061 190.283009 
L 220.441989 190.283009 
L 220.441989 190.967147 
L 221.134097 190.967147 
L 221.134097 184.153106 
L 221.820481 184.153106 
L 221.820481 192.706184 
L 222.501234 192.706184 
L 222.501234 193.288617 
L 223.176449 193.288617 
L 223.176449 194.338073 
L 223.846214 194.338073 
L 223.846214 195.215742 
L 224.510617 195.215742 
L 224.510617 196.062316 
L 225.169743 196.062316 
L 225.169743 196.840381 
L 225.823675 196.840381 
L 225.823675 191.897529 
L 226.472495 191.897529 
L 226.472495 195.464861 
L 227.116281 195.464861 
L 227.116281 180.718683 
L 227.755112 180.718683 
L 227.755112 188.188766 
L 228.389063 188.188766 
L 228.389063 193.782187 
L 229.018207 193.782187 
L 229.018207 182.728783 
L 229.642618 182.728783 
L 229.642618 196.303262 
L 230.262366 196.303262 
L 230.262366 190.994705 
L 230.87752 190.994705 
L 230.87752 160.811508 
L 231.488148 160.811508 
L 231.488148 203.841364 
L 232.094316 203.841364 
L 232.094316 194.407392 
L 232.696088 194.407392 
L 232.696088 200.279282 
L 233.293527 200.279282 
L 233.293527 198.264358 
L 233.886697 198.264358 
L 233.886697 204.146718 
L 234.475657 204.146718 
L 234.475657 176.413264 
L 235.060467 176.413264 
L 235.060467 208.110854 
L 235.641184 208.110854 
L 235.641184 209.274799 
L 236.217866 209.274799 
L 236.217866 210.306321 
L 236.790568 210.306321 
L 236.790568 185.653773 
L 237.359346 185.653773 
L 237.359346 193.982698 
L 237.924251 193.982698 
L 237.924251 194.482753 
L 238.485337 194.482753 
L 238.485337 202.12747 
L 239.042655 202.12747 
L 239.042655 204.223332 
L 239.596256 204.223332 
L 239.596256 200.879933 
L 240.146188 200.879933 
L 240.146188 200.451167 
L 240.6925 200.451167 
L 240.6925 201.25868 
L 241.235239 201.25868 
L 241.235239 202.054663 
L 241.774451 202.054663 
L 241.774451 203.048951 
L 242.310183 203.048951 
L 242.310183 203.787839 
L 242.842478 203.787839 
L 242.842478 204.728508 
L 243.371381 204.728508 
L 243.371381 203.261806 
L 243.896935 203.261806 
L 243.896935 206.358485 
L 244.419181 206.358485 
L 244.419181 207.1032 
L 244.938161 207.1032 
L 244.938161 207.871055 
L 245.453916 207.871055 
L 245.453916 208.667053 
L 245.966486 208.667053 
L 245.966486 209.495236 
L 246.475909 209.495236 
L 246.475909 210.361389 
L 246.982224 210.361389 
L 246.982224 211.17884 
L 247.485468 211.17884 
L 247.485468 211.884918 
L 247.98568 211.884918 
L 247.98568 211.038768 
L 248.482894 211.038768 
L 248.482894 213.390203 
L 248.977148 213.390203 
L 248.977148 214.207535 
L 249.468475 214.207535 
L 249.468475 215.030174 
L 250.442488 215.030228 
L 250.442488 216.625395 
L 250.92524 216.625395 
L 250.92524 216.885235 
L 251.405201 216.885235 
L 251.405201 217.774526 
L 251.882402 217.774526 
L 251.882402 218.635828 
L 252.356875 218.635828 
L 252.356875 219.387325 
L 252.82865 219.387325 
L 252.82865 220.384325 
L 253.297759 220.384325 
L 253.297759 220.955042 
L 253.764231 220.955042 
L 253.764231 221.126738 
L 254.228095 221.126738 
L 254.228095 222.589074 
L 254.689381 222.589074 
L 254.689381 223.35006 
L 255.148117 223.35006 
L 255.148117 223.827195 
L 255.604332 223.827195 
L 255.604332 224.63375 
L 256.058052 224.63375 
L 256.058052 225.485837 
L 256.509305 225.485837 
L 256.509305 196.217944 
L 256.958118 196.217944 
L 256.958118 223.186146 
L 257.404516 223.186146 
L 257.404516 210.93358 
L 257.848526 210.93358 
L 257.848526 197.004357 
L 258.290173 197.004357 
L 258.290173 229.328473 
L 258.729483 229.328473 
L 258.729483 230.267682 
L 259.166479 230.267682 
L 259.166479 230.995689 
L 259.601185 230.995689 
L 259.601185 231.814068 
L 260.033627 231.814068 
L 260.033627 232.509964 
L 260.463827 232.509964 
L 260.463827 233.219586 
L 260.891809 233.219586 
L 260.891809 233.883432 
L 261.317594 233.883432 
L 261.317594 234.68945 
L 261.741207 234.68945 
L 261.741207 235.522186 
L 262.162668 235.522186 
L 262.162668 236.327655 
L 262.581999 236.327655 
L 262.581999 237.005014 
L 262.999222 237.005014 
L 262.999222 237.695633 
L 263.414358 237.695633 
L 263.414358 238.420039 
L 263.827428 238.420039 
L 263.827428 239.169915 
L 264.238452 239.169915 
L 264.238452 239.89515 
L 264.64745 239.89515 
L 264.64745 240.707195 
L 265.054442 240.707195 
L 265.054442 241.476623 
L 265.459449 241.476623 
L 265.459449 241.983995 
L 265.862488 241.983995 
L 265.862488 242.848233 
L 266.263579 242.848233 
L 266.263579 243.39386 
L 266.662741 243.39386 
L 266.662741 244.093022 
L 267.059993 244.093022 
L 267.059993 243.516931 
L 267.455352 243.516931 
L 267.455352 245.710085 
L 267.848836 245.710085 
L 267.848836 232.773734 
L 268.240464 232.773734 
L 268.240464 244.914749 
L 268.630252 244.914749 
L 268.630252 245.67189 
L 269.018218 245.67189 
L 269.018218 247.770745 
L 269.404378 247.770745 
L 269.404378 249.386629 
L 269.78875 249.386629 
L 269.78875 249.878474 
L 270.17135 249.878474 
L 270.17135 250.747686 
L 270.552195 250.747686 
L 270.552195 239.763171 
L 270.931299 239.763171 
L 270.931299 252.292776 
L 271.30868 252.292776 
L 271.30868 245.1285 
L 271.684352 245.1285 
L 271.684352 249.126244 
L 272.058331 249.126244 
L 272.058331 254.507366 
L 272.430633 254.507366 
L 272.430633 253.259981 
L 272.801271 253.259981 
L 272.801271 250.90246 
L 273.170262 250.90246 
L 273.170262 254.011413 
L 274.267492 254.115941 
L 274.267492 256.774926 
L 274.630035 256.774926 
L 274.630035 252.184461 
L 274.991001 252.184461 
L 274.991001 258.480079 
L 275.350404 258.480079 
L 275.350404 259.620266 
L 275.708257 259.620266 
L 275.708257 261.33994 
L 276.064573 261.33994 
L 276.064573 262.228658 
L 276.419367 262.228658 
L 276.419367 259.499812 
L 276.77265 259.499812 
L 276.77265 263.882897 
L 277.124435 263.882897 
L 277.124435 264.641561 
L 277.474735 264.641561 
L 277.474735 263.462115 
L 277.823564 263.462115 
L 277.823564 265.864546 
L 278.170931 265.864546 
L 278.170931 264.948649 
L 278.516851 264.948649 
L 278.516851 266.638841 
L 278.861336 266.638841 
L 278.861336 267.936557 
L 279.204396 267.936557 
L 279.204396 268.291868 
L 280.225148 268.265365 
L 280.225148 268.922126 
L 280.562628 268.922126 
L 280.562628 269.59706 
L 280.898741 269.59706 
L 280.898741 269.298224 
L 281.233498 269.298224 
L 281.233498 271.059832 
L 281.56691 271.059832 
L 281.56691 271.823701 
L 281.898988 271.823701 
L 281.898988 272.614425 
L 282.229743 272.614425 
L 282.229743 273.332095 
L 282.559185 273.332095 
L 282.559185 273.987197 
L 282.887324 273.987197 
L 282.887324 274.654693 
L 283.21417 274.654693 
L 283.21417 275.36982 
L 283.539735 275.36982 
L 283.539735 276.11345 
L 283.864027 276.11345 
L 283.864027 276.876098 
L 284.187057 276.876098 
L 284.187057 277.656072 
L 284.508834 277.656072 
L 284.508834 278.287778 
L 284.829369 278.287778 
L 284.829369 278.995296 
L 285.14867 278.995296 
L 285.14867 279.686902 
L 285.466747 279.686902 
L 285.466747 280.406985 
L 285.78361 280.406985 
L 285.78361 280.99853 
L 286.099268 280.99853 
L 286.099268 281.412246 
L 286.41373 281.412246 
L 286.41373 282.664172 
L 287.039101 282.603805 
L 287.039101 283.752904 
L 287.350028 283.752904 
L 287.350028 283.947665 
L 287.659795 283.947665 
L 287.659795 278.625954 
L 287.96841 278.625954 
L 287.96841 284.96892 
L 288.275881 284.96892 
L 288.275881 280.21782 
L 288.582217 280.21782 
L 288.582217 276.057009 
L 288.887427 276.057009 
L 288.887427 281.521241 
L 289.191518 281.521241 
L 289.191518 283.941561 
L 289.4945 283.941561 
L 289.4945 284.545035 
L 289.796379 284.545035 
L 289.796379 282.518186 
L 290.097163 282.518186 
L 290.097163 291.104437 
L 290.396862 291.104437 
L 290.396862 291.85921 
L 290.695482 291.85921 
L 290.695482 291.017616 
L 290.993032 291.017616 
L 290.993032 293.202132 
L 291.289518 293.202132 
L 291.289518 293.868951 
L 291.58495 293.868951 
L 291.58495 294.574846 
L 291.879333 294.574846 
L 291.879333 295.299202 
L 292.172675 295.299202 
L 292.172675 296.047861 
L 292.464985 296.047861 
L 292.464985 296.809491 
L 292.756268 296.809491 
L 292.756268 297.474951 
L 293.046532 297.474951 
L 293.046532 298.111874 
L 293.335785 298.111874 
L 293.335785 298.776253 
L 293.624033 298.776253 
L 293.624033 299.483467 
L 293.911284 299.483467 
L 293.911284 300.197985 
L 294.197543 300.197985 
L 294.197543 300.945119 
L 294.482819 300.945119 
L 294.482819 301.70044 
L 294.767117 301.70044 
L 294.767117 302.365636 
L 295.050445 302.365636 
L 295.050445 303.004146 
L 295.332809 303.004146 
L 295.332809 303.68013 
L 295.614215 303.68013 
L 295.614215 304.376389 
L 295.89467 304.376389 
L 295.89467 305.090407 
L 296.174181 305.090407 
L 296.174181 305.840106 
L 296.452753 305.840106 
L 296.452753 306.56096 
L 296.730394 306.56096 
L 296.730394 307.215565 
L 297.007108 307.215565 
L 297.007108 307.863323 
L 297.282903 307.863323 
L 297.282903 308.562275 
L 297.557785 308.562275 
L 297.557785 309.256607 
L 297.831759 309.256607 
L 297.831759 309.930757 
L 298.104832 309.930757 
L 298.104832 310.63458 
L 298.377009 310.63458 
L 298.377009 310.069027 
L 298.648296 310.069027 
L 298.648296 311.826126 
L 298.918699 311.826126 
L 298.918699 312.499999 
L 299.188224 312.499999 
L 299.188224 313.248434 
L 299.456877 313.248434 
L 299.456877 314.101889 
L 299.991587 314.153201 
L 299.991587 315.461802 
L 300.257656 315.461802 
L 300.257656 311.705808 
L 300.522874 311.705808 
L 300.522874 312.609198 
L 300.787248 312.609198 
L 300.787248 316.609347 
L 301.050782 316.609347 
L 301.050782 317.860554 
L 301.313481 317.860554 
L 301.313481 318.039306 
L 301.575352 318.039306 
L 301.575352 318.676768 
L 301.836399 318.676768 
L 301.836399 320.247913 
L 302.096628 320.247913 
L 302.096628 321.01626 
L 302.356043 321.01626 
L 302.356043 321.486939 
L 302.872453 321.428781 
L 302.872453 322.590127 
L 303.129457 322.590127 
L 303.129457 323.679115 
L 303.385669 323.679115 
L 303.385669 324.384891 
L 303.641092 324.384891 
L 303.641092 324.842332 
L 303.895731 324.842332 
L 303.895731 321.973488 
L 304.149591 321.973488 
L 304.149591 325.275606 
L 304.654994 325.352719 
L 304.654994 327.660324 
L 304.906546 327.660324 
L 304.906546 327.417223 
L 305.157337 327.417223 
L 305.157337 329.116482 
L 305.407373 329.116482 
L 305.407373 329.69365 
L 305.656658 329.69365 
L 305.656658 327.979473 
L 305.905196 327.979473 
L 305.905196 330.060844 
L 306.152993 330.060844 
L 306.152993 331.93312 
L 306.400051 331.93312 
L 306.400051 330.911347 
L 306.646376 330.911347 
L 306.646376 332.651311 
L 306.891973 332.651311 
L 306.891973 331.992394 
L 307.136844 331.992394 
L 307.136844 334.048461 
L 307.62443 334.094274 
L 307.62443 335.183575 
L 307.867153 335.183575 
L 307.867153 336.389189 
L 308.109168 336.389189 
L 308.109168 336.837895 
L 308.35048 336.837895 
L 308.35048 337.726668 
L 308.591092 337.726668 
L 308.591092 338.446299 
L 308.831008 338.446299 
L 308.831008 339.358424 
L 309.070232 339.358424 
L 309.070232 340.038884 
L 309.308769 340.038884 
L 309.308769 340.74265 
L 309.546623 340.74265 
L 309.546623 341.292589 
L 309.783796 341.292589 
L 309.783796 342.126492 
L 310.020294 342.126492 
L 310.020294 342.768417 
L 310.25612 342.768417 
L 310.25612 343.53803 
L 310.491277 343.53803 
L 310.491277 344.110113 
L 310.72577 344.110113 
L 310.72577 344.766971 
L 310.959602 344.766971 
L 310.959602 345.430622 
L 311.192778 345.430622 
L 311.192778 346.099518 
L 311.425299 346.099518 
L 311.425299 346.6 
L 311.425299 346.6 
" clip-path="url(#p83a3c15dc5)" style="fill: none; stroke: #ff7f0e; stroke-width: 1.5; stroke-linecap: square"/>
   </g>
   <g id="line2d_24">
    <path d="M 73.832727 103.029695 
L 77.802695 103.029695 
L 77.802695 91.084004 
L 81.591389 91.084004 
L 81.591389 102.725831 
L 85.214644 102.725831 
L 85.214644 92.990355 
L 88.686304 92.990355 
L 88.686304 86.271163 
L 92.018547 86.271163 
L 92.018547 89.451697 
L 95.222141 89.451697 
L 95.222141 98.243065 
L 98.306649 98.243065 
L 98.306649 100.819146 
L 101.280611 100.819146 
L 101.280611 97.452859 
L 104.151675 97.452859 
L 104.151675 94.056825 
L 106.926725 94.056825 
L 106.926725 99.935181 
L 109.611975 99.935181 
L 109.611975 102.002617 
L 112.213056 102.002617 
L 112.213056 97.341191 
L 114.735084 97.341191 
L 114.735084 97.193192 
L 117.182722 97.193192 
L 117.182722 99.096395 
L 119.560235 99.096395 
L 119.560235 100.883173 
L 121.871528 100.883173 
L 121.871528 105.453684 
L 124.12019 105.453684 
L 124.12019 106.148624 
L 126.309526 106.148624 
L 126.309526 107.24613 
L 128.442587 107.24613 
L 128.442587 99.694674 
L 130.522193 99.694674 
L 130.522193 107.292276 
L 132.550958 107.292276 
L 132.550958 97.203443 
L 134.531309 97.203443 
L 134.531309 115.325211 
L 136.465502 115.325211 
L 136.465502 113.90412 
L 138.35564 113.90412 
L 138.35564 116.7426 
L 140.203686 116.7426 
L 140.203686 102.882648 
L 142.011473 102.882648 
L 142.011473 115.565877 
L 143.780719 115.565877 
L 143.780719 112.067468 
L 145.513032 112.067468 
L 145.513032 124.988423 
L 147.209923 124.988423 
L 147.209923 120.786502 
L 148.872811 120.786502 
L 148.872811 118.933756 
L 150.503032 118.933756 
L 150.503032 119.495843 
L 152.101846 119.495843 
L 152.101846 122.246598 
L 153.670439 122.246598 
L 153.670439 123.341167 
L 155.209933 123.341167 
L 155.209933 131.216737 
L 156.721388 131.216737 
L 156.721388 133.677912 
L 158.205807 133.677912 
L 158.205807 128.548265 
L 159.66414 128.548265 
L 159.66414 128.821601 
L 161.097288 128.821601 
L 161.097288 141.564318 
L 162.506106 141.564318 
L 162.506106 131.877388 
L 163.891407 131.877388 
L 163.891407 104.891632 
L 165.253963 104.891632 
L 165.253963 136.756232 
L 166.594509 136.756232 
L 166.594509 106.218992 
L 167.913744 106.218992 
L 167.913744 149.72342 
L 169.212336 149.72342 
L 169.212336 140.581384 
L 170.49092 140.581384 
L 170.49092 147.102929 
L 171.750104 147.102929 
L 171.750104 153.532896 
L 172.990468 153.532896 
L 172.990468 149.335813 
L 174.212566 149.335813 
L 174.212566 156.011552 
L 175.416928 156.011552 
L 175.416928 159.592831 
L 176.604061 159.592831 
L 176.604061 145.882898 
L 177.774453 145.882898 
L 177.774453 128.416453 
L 178.928567 128.416453 
L 178.928567 156.453378 
L 181.189734 156.425269 
L 181.189734 110.744388 
L 182.297626 110.744388 
L 182.297626 143.506315 
L 183.390922 143.506315 
L 183.390922 150.214332 
L 184.470002 150.214332 
L 184.470002 156.028971 
L 185.535232 156.028971 
L 185.535232 153.856675 
L 186.586961 153.856675 
L 186.586961 158.232028 
L 187.625528 158.232028 
L 187.625528 165.43464 
L 188.651259 165.43464 
L 188.651259 162.667972 
L 189.664466 162.667972 
L 189.664466 150.926885 
L 190.665452 150.926885 
L 190.665452 169.127577 
L 191.654508 169.127577 
L 191.654508 169.427442 
L 192.631916 169.427442 
L 192.631916 130.33897 
L 193.597946 130.33897 
L 193.597946 150.317978 
L 194.55286 150.317978 
L 194.55286 130.189969 
L 195.496911 130.189969 
L 195.496911 140.277253 
L 196.430344 140.277253 
L 196.430344 173.735563 
L 197.353394 173.735563 
L 197.353394 174.174755 
L 198.266291 174.174755 
L 198.266291 175.308164 
L 199.169254 175.308164 
L 199.169254 175.782931 
L 200.062499 175.782931 
L 200.062499 148.89678 
L 200.946232 148.89678 
L 200.946232 177.465386 
L 201.820652 177.465386 
L 201.820652 157.834729 
L 202.685956 157.834729 
L 202.685956 163.006008 
L 203.54233 163.006008 
L 203.54233 168.091559 
L 204.389958 168.091559 
L 204.389958 163.905408 
L 205.229015 163.905408 
L 205.229015 168.538581 
L 206.059674 168.538581 
L 206.059674 175.559738 
L 206.882101 175.559738 
L 206.882101 151.164784 
L 207.696457 151.164784 
L 207.696457 177.096052 
L 208.5029 177.096052 
L 208.5029 178.45596 
L 209.301582 178.45596 
L 209.301582 179.300846 
L 210.092651 179.300846 
L 210.092651 180.140547 
L 210.87625 180.140547 
L 210.87625 169.112586 
L 211.652519 169.112586 
L 211.652519 181.233504 
L 212.421594 181.233504 
L 212.421594 172.284383 
L 213.183608 172.284383 
L 213.183608 179.098045 
L 213.938688 179.098045 
L 213.938688 180.241184 
L 214.68696 180.241184 
L 214.68696 183.284763 
L 215.428546 183.284763 
L 215.428546 183.172331 
L 216.163563 183.172331 
L 216.163563 160.874739 
L 216.892127 160.874739 
L 216.892127 128.084002 
L 217.614352 128.084002 
L 217.614352 144.171195 
L 218.330344 144.171195 
L 218.330344 126.132587 
L 219.040213 126.132587 
L 219.040213 189.563381 
L 219.744061 189.563381 
L 219.744061 191.464523 
L 220.441989 191.464523 
L 220.441989 192.138807 
L 221.134097 192.138807 
L 221.134097 185.746474 
L 221.820481 185.746474 
L 221.820481 193.708922 
L 222.501234 193.708922 
L 222.501234 194.250794 
L 223.176449 194.250794 
L 223.176449 195.31934 
L 223.846214 195.31934 
L 223.846214 196.149508 
L 224.510617 196.149508 
L 224.510617 196.974087 
L 225.169743 196.974087 
L 225.169743 197.678674 
L 225.823675 197.678674 
L 225.823675 193.297105 
L 226.472495 193.297105 
L 226.472495 195.7719 
L 227.116281 195.7719 
L 227.116281 179.567672 
L 227.755112 179.567672 
L 227.755112 188.8669 
L 228.389063 188.8669 
L 228.389063 193.955042 
L 229.018207 193.955042 
L 229.018207 187.493446 
L 229.642618 187.493446 
L 229.642618 198.371817 
L 230.262366 198.371817 
L 230.262366 190.345833 
L 230.87752 190.345833 
L 230.87752 160.399715 
L 231.488148 160.399715 
L 231.488148 204.517305 
L 232.094316 204.517305 
L 232.094316 194.114316 
L 232.696088 194.114316 
L 232.696088 200.118864 
L 233.293527 200.118864 
L 233.293527 198.141823 
L 233.886697 198.141823 
L 233.886697 204.468972 
L 234.475657 204.468972 
L 234.475657 176.320613 
L 235.060467 176.320613 
L 235.060467 208.635143 
L 235.641184 208.635143 
L 235.641184 209.891564 
L 236.217866 209.891564 
L 236.217866 210.95467 
L 236.790568 210.95467 
L 236.790568 185.716728 
L 237.359346 185.716728 
L 237.359346 194.312531 
L 237.924251 194.312531 
L 237.924251 194.813363 
L 238.485337 194.813363 
L 238.485337 202.234451 
L 239.042655 202.234451 
L 239.042655 204.262216 
L 239.596256 204.262216 
L 239.596256 203.84137 
L 240.146188 203.84137 
L 240.146188 206.352167 
L 240.6925 206.352167 
L 240.6925 207.342284 
L 241.235239 207.342284 
L 241.235239 208.110768 
L 241.774451 208.110768 
L 241.774451 208.781515 
L 242.310183 208.781515 
L 242.310183 209.361074 
L 242.842478 209.361074 
L 242.842478 210.375819 
L 243.371381 210.375819 
L 243.371381 209.617482 
L 243.896935 209.617482 
L 243.896935 211.961886 
L 244.419181 211.961886 
L 244.419181 212.638878 
L 244.938161 212.638878 
L 244.938161 213.371352 
L 245.453916 213.371352 
L 245.453916 214.12846 
L 245.966486 214.12846 
L 245.966486 214.907738 
L 246.475909 214.907738 
L 246.475909 215.700062 
L 246.982224 215.700062 
L 246.982224 216.477579 
L 247.485468 216.477579 
L 247.485468 217.114175 
L 247.98568 217.114175 
L 247.98568 216.57807 
L 248.482894 216.57807 
L 248.482894 218.480528 
L 248.977148 218.480528 
L 248.977148 219.265677 
L 249.468475 219.265677 
L 249.468475 220.069031 
L 249.95691 220.069031 
L 249.95691 220.244888 
L 250.442488 220.244888 
L 250.442488 221.551795 
L 250.92524 221.551795 
L 250.92524 221.887011 
L 251.405201 221.887011 
L 251.405201 222.698533 
L 251.882402 222.698533 
L 251.882402 223.485027 
L 252.356875 223.485027 
L 252.356875 224.254121 
L 252.82865 224.254121 
L 252.82865 225.141731 
L 253.297759 225.141731 
L 253.297759 225.577956 
L 254.228095 225.524763 
L 254.228095 227.323528 
L 254.689381 227.323528 
L 254.689381 228.062001 
L 255.148117 228.062001 
L 255.148117 226.996773 
L 255.604332 226.996773 
L 255.604332 228.128235 
L 256.058052 228.128235 
L 256.058052 230.017118 
L 256.509305 230.017118 
L 256.509305 196.442742 
L 256.958118 196.442742 
L 256.958118 225.621127 
L 257.404516 225.621127 
L 257.404516 212.535488 
L 257.848526 212.535488 
L 257.848526 197.458393 
L 258.290173 197.458393 
L 258.290173 233.793433 
L 258.729483 233.793433 
L 258.729483 234.768181 
L 259.166479 234.768181 
L 259.166479 235.44919 
L 259.601185 235.44919 
L 259.601185 236.30136 
L 260.033627 236.30136 
L 260.033627 236.95957 
L 260.463827 236.95957 
L 260.463827 237.643058 
L 260.891809 237.643058 
L 260.891809 238.267503 
L 261.317594 238.267503 
L 261.317594 239.089281 
L 261.741207 239.089281 
L 261.741207 239.925161 
L 262.162668 239.925161 
L 262.162668 240.711663 
L 262.581999 240.711663 
L 262.581999 241.36781 
L 262.999222 241.36781 
L 262.999222 242.04789 
L 263.414358 242.04789 
L 263.414358 242.765638 
L 263.827428 242.765638 
L 263.827428 243.507538 
L 264.238452 243.507538 
L 264.238452 244.208045 
L 264.64745 244.208045 
L 264.64745 245.021703 
L 265.054442 245.021703 
L 265.054442 245.800913 
L 265.459449 245.800913 
L 265.459449 246.187788 
L 265.862488 246.187788 
L 265.862488 247.141594 
L 266.263579 247.141594 
L 266.263579 247.627072 
L 266.662741 247.627072 
L 266.662741 248.29157 
L 267.059993 248.29157 
L 267.059993 247.12429 
L 267.455352 247.12429 
L 267.455352 249.928045 
L 267.848836 249.928045 
L 267.848836 233.703852 
L 268.240464 233.703852 
L 268.240464 248.157124 
L 268.630252 248.157124 
L 268.630252 248.966007 
L 269.018218 248.966007 
L 269.018218 251.64315 
L 269.404378 251.64315 
L 269.404378 253.640395 
L 269.78875 253.640395 
L 269.78875 254.034921 
L 270.17135 254.034921 
L 270.17135 254.92464 
L 270.552195 254.92464 
L 270.552195 242.294742 
L 270.931299 242.294742 
L 270.931299 256.539619 
L 271.30868 256.539619 
L 271.30868 247.109544 
L 271.684352 247.109544 
L 271.684352 251.836933 
L 272.058331 251.836933 
L 272.058331 258.698691 
L 272.430633 258.698691 
L 272.430633 256.483413 
L 272.801271 256.483413 
L 272.801271 253.45487 
L 273.170262 253.45487 
L 273.170262 254.618359 
L 273.53762 254.618359 
L 273.53762 256.115643 
L 273.903358 256.115643 
L 273.903358 256.518275 
L 274.267492 256.518275 
L 274.267492 259.221868 
L 274.630035 259.221868 
L 274.630035 254.440888 
L 274.991001 254.440888 
L 274.991001 262.102249 
L 275.350404 262.102249 
L 275.350404 263.412024 
L 275.708257 263.412024 
L 275.708257 265.523605 
L 276.064573 265.523605 
L 276.064573 266.501001 
L 276.419367 266.501001 
L 276.419367 263.826431 
L 276.77265 263.826431 
L 276.77265 268.278836 
L 277.124435 268.278836 
L 277.124435 269.047493 
L 277.474735 269.047493 
L 277.474735 267.902188 
L 277.823564 267.902188 
L 277.823564 270.300987 
L 278.170931 270.300987 
L 278.170931 269.45454 
L 278.516851 269.45454 
L 278.516851 271.042068 
L 278.861336 271.042068 
L 278.861336 272.383733 
L 279.204396 272.383733 
L 279.204396 272.737001 
L 279.546043 272.737001 
L 279.546043 273.506488 
L 279.88629 273.506488 
L 279.88629 274.523699 
L 280.225148 274.523699 
L 280.225148 275.188552 
L 280.562628 275.188552 
L 280.562628 275.861567 
L 280.898741 275.861567 
L 280.898741 275.566362 
L 281.233498 275.566362 
L 281.233498 277.327779 
L 281.56691 277.327779 
L 281.56691 278.09379 
L 281.898988 278.09379 
L 281.898988 278.846665 
L 282.229743 278.846665 
L 282.229743 279.583441 
L 282.559185 279.583441 
L 282.559185 280.205075 
L 282.887324 280.205075 
L 282.887324 280.893274 
L 283.21417 280.893274 
L 283.21417 281.642364 
L 283.539735 281.642364 
L 283.539735 282.398004 
L 283.864027 282.398004 
L 283.864027 283.148357 
L 284.187057 283.148357 
L 284.187057 283.801669 
L 284.508834 283.801669 
L 284.508834 284.504755 
L 284.829369 284.504755 
L 284.829369 284.21421 
L 285.14867 284.21421 
L 285.14867 285.548475 
L 285.466747 285.548475 
L 285.466747 286.701167 
L 285.78361 286.701167 
L 285.78361 287.228917 
L 286.41373 287.315109 
L 286.41373 288.984311 
L 287.039101 289.061663 
L 287.039101 290.124303 
L 287.350028 290.124303 
L 287.350028 289.344491 
L 287.659795 289.344491 
L 287.659795 280.922958 
L 287.96841 280.922958 
L 287.96841 290.73671 
L 288.275881 290.73671 
L 288.275881 280.534776 
L 288.582217 280.534776 
L 288.582217 279.230444 
L 288.887427 279.230444 
L 288.887427 284.365856 
L 289.191518 284.365856 
L 289.191518 287.783567 
L 289.4945 287.783567 
L 289.4945 288.46074 
L 289.796379 288.46074 
L 289.796379 286.826103 
L 290.097163 286.826103 
L 290.097163 297.34636 
L 290.396862 297.34636 
L 290.396862 298.167894 
L 290.695482 298.167894 
L 290.695482 297.371906 
L 290.993032 297.371906 
L 290.993032 299.667311 
L 291.289518 299.667311 
L 291.289518 300.177014 
L 291.58495 300.177014 
L 291.58495 300.939187 
L 291.879333 300.939187 
L 291.879333 301.764549 
L 292.172675 301.764549 
L 292.172675 302.595329 
L 292.464985 302.595329 
L 292.464985 303.346033 
L 292.756268 303.346033 
L 292.756268 304.068686 
L 293.046532 304.068686 
L 293.046532 304.761898 
L 293.335785 304.761898 
L 293.335785 305.412365 
L 293.624033 305.412365 
L 293.624033 306.22594 
L 293.911284 306.22594 
L 293.911284 306.966766 
L 294.197543 306.966766 
L 294.197543 307.681898 
L 294.482819 307.681898 
L 294.482819 308.460062 
L 294.767117 308.460062 
L 294.767117 309.133147 
L 295.050445 309.133147 
L 295.050445 309.808092 
L 295.332809 309.808092 
L 295.332809 310.525702 
L 295.614215 310.525702 
L 295.614215 311.273026 
L 295.89467 311.273026 
L 295.89467 312.002559 
L 296.174181 312.002559 
L 296.174181 312.746214 
L 296.452753 312.746214 
L 296.452753 313.494485 
L 296.730394 313.494485 
L 296.730394 314.161055 
L 297.007108 314.161055 
L 297.007108 314.835221 
L 297.282903 314.835221 
L 297.282903 315.570303 
L 297.557785 315.570303 
L 297.557785 316.321197 
L 297.831759 316.321197 
L 297.831759 316.987698 
L 298.104832 316.987698 
L 298.104832 317.639111 
L 298.377009 317.639111 
L 298.377009 316.071803 
L 298.648296 316.071803 
L 298.648296 318.751934 
L 298.918699 318.751934 
L 298.918699 319.483448 
L 299.188224 319.483448 
L 299.188224 320.344992 
L 299.456877 320.344992 
L 299.456877 321.314282 
L 299.724663 321.314282 
L 299.724663 320.90118 
L 299.991587 320.90118 
L 299.991587 322.70061 
L 300.257656 322.70061 
L 300.257656 316.476583 
L 300.522874 316.476583 
L 300.522874 317.612552 
L 300.787248 317.612552 
L 300.787248 323.35696 
L 301.050782 323.35696 
L 301.050782 325.074623 
L 301.313481 325.074623 
L 301.313481 324.884102 
L 301.575352 324.884102 
L 301.575352 325.130689 
L 301.836399 325.130689 
L 301.836399 327.529257 
L 302.096628 327.529257 
L 302.096628 328.477864 
L 302.356043 328.477864 
L 302.356043 328.761836 
L 302.614649 328.761836 
L 302.614649 328.973537 
L 302.872453 328.973537 
L 302.872453 330.0365 
L 303.129457 330.0365 
L 303.129457 331.262549 
L 303.385669 331.262549 
L 303.385669 331.956276 
L 303.641092 331.956276 
L 303.641092 332.231275 
L 303.895731 332.231275 
L 303.895731 327.564935 
L 304.149591 327.564935 
L 304.149591 332.237669 
L 304.402677 332.237669 
L 304.402677 332.05173 
L 304.654994 332.05173 
L 304.654994 335.405676 
L 304.906546 335.405676 
L 304.906546 334.551301 
L 305.157337 334.551301 
L 305.157337 336.916949 
L 305.407373 336.916949 
L 305.407373 337.479589 
L 305.656658 337.479589 
L 305.656658 334.429426 
L 305.905196 334.429426 
L 305.905196 337.306245 
L 306.152993 337.306245 
L 306.152993 340.006581 
L 306.400051 340.006581 
L 306.400051 338.004961 
L 306.646376 338.004961 
L 306.646376 340.357888 
L 306.891973 340.357888 
L 306.891973 339.285754 
L 307.136844 339.285754 
L 307.136844 341.8694 
L 307.380995 341.8694 
L 307.380995 341.579969 
L 307.62443 341.579969 
L 307.62443 342.958806 
L 307.867153 342.958806 
L 307.867153 344.526721 
L 308.109168 344.526721 
L 308.109168 344.853013 
L 308.35048 344.853013 
L 308.35048 345.89849 
L 308.591092 345.89849 
L 308.591092 346.6 
L 308.591092 346.6 
" clip-path="url(#p83a3c15dc5)" style="fill: none; stroke: #2ca02c; stroke-width: 1.5; stroke-linecap: square"/>
   </g>
   <g id="patch_3">
    <path d="M 57.6 307.584 
L 57.6 41.472 
" style="fill: none; stroke: #000000; stroke-width: 0.8; stroke-linejoin: miter; stroke-linecap: square"/>
   </g>
   <g id="patch_4">
    <path d="M 414.72 307.584 
L 414.72 41.472 
" style="fill: none; stroke: #000000; stroke-width: 0.8; stroke-linejoin: miter; stroke-linecap: square"/>
   </g>
   <g id="patch_5">
    <path d="M 57.6 307.584 
L 414.72 307.584 
" style="fill: none; stroke: #000000; stroke-width: 0.8; stroke-linejoin: miter; stroke-linecap: square"/>
   </g>
   <g id="patch_6">
    <path d="M 57.6 41.472 
L 414.72 41.472 
" style="fill: none; stroke: #000000; stroke-width: 0.8; stroke-linejoin: miter; stroke-linecap: square"/>
   </g>
   <g id="text_10">
    <!-- T=1.0e+06 K -->
    <g transform="translate(195.729375 35.472) scale(0.12 -0.12)">
     <defs>
      <path id="DejaVuSans-54" d="M -19 4666 
L 3928 4666 
L 3928 4134 
L 2272 4134 
L 2272 0 
L 1638 0 
L 1638 4134 
L -19 4134 
L -19 4666 
z
" transform="scale(0.015625)"/>
      <path id="DejaVuSans-3d" d="M 678 2906 
L 4684 2906 
L 4684 2381 
L 678 2381 
L 678 2906 
z
M 678 1631 
L 4684 1631 
L 4684 1100 
L 678 1100 
L 678 1631 
z
" transform="scale(0.015625)"/>
      <path id="DejaVuSans-2e" d="M 684 794 
L 1344 794 
L 1344 0 
L 684 0 
L 684 794 
z
" transform="scale(0.015625)"/>
      <path id="DejaVuSans-2b" d="M 2944 4013 
L 2944 2272 
L 4684 2272 
L 4684 1741 
L 2944 1741 
L 2944 0 
L 2419 0 
L 2419 1741 
L 678 1741 
L 678 2272 
L 2419 2272 
L 2419 4013 
L 2944 4013 
z
" transform="scale(0.015625)"/>
      <path id="DejaVuSans-4b" d="M 628 4666 
L 1259 4666 
L 1259 2694 
L 3353 4666 
L 4166 4666 
L 1850 2491 
L 4331 0 
L 3500 0 
L 1259 2247 
L 1259 0 
L 628 0 
L 628 4666 
z
" transform="scale(0.015625)"/>
     </defs>
     <use xlink:href="#DejaVuSans-54"/>
     <use xlink:href="#DejaVuSans-3d" transform="translate(61.083984 0)"/>
     <use xlink:href="#DejaVuSans-31" transform="translate(144.873047 0)"/>
     <use xlink:href="#DejaVuSans-2e" transform="translate(208.496094 0)"/>
     <use xlink:href="#DejaVuSans-30" transform="translate(240.283203 0)"/>
     <use xlink:href="#DejaVuSans-65" transform="translate(303.90625 0)"/>
     <use xlink:href="#DejaVuSans-2b" transform="translate(365.429688 0)"/>
     <use xlink:href="#DejaVuSans-30" transform="translate(449.21875 0)"/>
     <use xlink:href="#DejaVuSans-36" transform="translate(512.841797 0)"/>
     <use xlink:href="#DejaVuSans-20" transform="translate(576.464844 0)"/>
     <use xlink:href="#DejaVuSans-4b" transform="translate(608.251953 0)"/>
    </g>
   </g>
   <g id="legend_1">
    <g id="patch_7">
     <path d="M 335.22 93.506375 
L 407.72 93.506375 
Q 409.72 93.506375 409.72 91.506375 
L 409.72 48.472 
Q 409.72 46.472 407.72 46.472 
L 335.22 46.472 
Q 333.22 46.472 333.22 48.472 
L 333.22 91.506375 
Q 333.22 93.506375 335.22 93.506375 
z
" style="fill: #ffffff; opacity: 0.8; stroke: #cccccc; stroke-linejoin: miter"/>
    </g>
    <g id="line2d_25">
     <path d="M 337.22 54.570438 
L 337.22 54.570438 
L 347.22 54.570438 
L 347.22 54.570438 
L 357.22 54.570438 
" style="fill: none; stroke: #1f77b4; stroke-width: 1.5; stroke-linecap: square"/>
    </g>
    <g id="text_11">
     <!-- $\kappa =5.0$ -->
     <g transform="translate(365.22 58.070438) scale(0.1 -0.1)">
      <defs>
       <path id="DejaVuSans-Oblique-3ba" d="M 938 3500 
L 1531 3500 
L 1247 2047 
L 3041 3500 
L 3741 3500 
L 2106 2181 
L 3275 0 
L 2572 0 
L 1628 1806 
L 1122 1403 
L 850 0 
L 256 0 
L 938 3500 
z
" transform="scale(0.015625)"/>
      </defs>
      <use xlink:href="#DejaVuSans-Oblique-3ba" transform="translate(0 0.78125)"/>
      <use xlink:href="#DejaVuSans-3d" transform="translate(78.417969 0.78125)"/>
      <use xlink:href="#DejaVuSans-35" transform="translate(181.689453 0.78125)"/>
      <use xlink:href="#DejaVuSans-2e" transform="translate(245.3125 0.78125)"/>
      <use xlink:href="#DejaVuSans-30" transform="translate(277.099609 0.78125)"/>
     </g>
    </g>
    <g id="line2d_26">
     <path d="M 337.22 69.248563 
L 337.22 69.248563 
L 347.22 69.248563 
L 347.22 69.248563 
L 357.22 69.248563 
" style="fill: none; stroke: #ff7f0e; stroke-width: 1.5; stroke-linecap: square"/>
    </g>
    <g id="text_12">
     <!-- $\kappa = 50.0$ -->
     <g transform="translate(365.22 72.748563) scale(0.1 -0.1)">
      <use xlink:href="#DejaVuSans-Oblique-3ba" transform="translate(0 0.78125)"/>
      <use xlink:href="#DejaVuSans-3d" transform="translate(78.417969 0.78125)"/>
      <use xlink:href="#DejaVuSans-35" transform="translate(181.689453 0.78125)"/>
      <use xlink:href="#DejaVuSans-30" transform="translate(245.3125 0.78125)"/>
      <use xlink:href="#DejaVuSans-2e" transform="translate(308.935547 0.78125)"/>
      <use xlink:href="#DejaVuSans-30" transform="translate(340.722656 0.78125)"/>
     </g>
    </g>
    <g id="line2d_27">
     <path d="M 337.22 83.926688 
L 337.22 83.926688 
L 347.22 83.926688 
L 347.22 83.926688 
L 357.22 83.926688 
" style="fill: none; stroke: #2ca02c; stroke-width: 1.5; stroke-linecap: square"/>
    </g>
    <g id="text_13">
     <!-- Maxw -->
     <g transform="translate(365.22 87.426688) scale(0.1 -0.1)">
      <defs>
       <path id="DejaVuSans-4d" d="M 628 4666 
L 1569 4666 
L 2759 1491 
L 3956 4666 
L 4897 4666 
L 4897 0 
L 4281 0 
L 4281 4097 
L 3078 897 
L 2444 897 
L 1241 4097 
L 1241 0 
L 628 0 
L 628 4666 
z
" transform="scale(0.015625)"/>
       <path id="DejaVuSans-61" d="M 2194 1759 
Q 1497 1759 1228 1600 
Q 959 1441 959 1056 
Q 959 750 1161 570 
Q 1363 391 1709 391 
Q 2188 391 2477 730 
Q 2766 1069 2766 1631 
L 2766 1759 
L 2194 1759 
z
M 3341 1997 
L 3341 0 
L 2766 0 
L 2766 531 
Q 2569 213 2275 61 
Q 1981 -91 1556 -91 
Q 1019 -91 701 211 
Q 384 513 384 1019 
Q 384 1609 779 1909 
Q 1175 2209 1959 2209 
L 2766 2209 
L 2766 2266 
Q 2766 2663 2505 2880 
Q 2244 3097 1772 3097 
Q 1472 3097 1187 3025 
Q 903 2953 641 2809 
L 641 3341 
Q 956 3463 1253 3523 
Q 1550 3584 1831 3584 
Q 2591 3584 2966 3190 
Q 3341 2797 3341 1997 
z
" transform="scale(0.015625)"/>
       <path id="DejaVuSans-78" d="M 3513 3500 
L 2247 1797 
L 3578 0 
L 2900 0 
L 1881 1375 
L 863 0 
L 184 0 
L 1544 1831 
L 300 3500 
L 978 3500 
L 1906 2253 
L 2834 3500 
L 3513 3500 
z
" transform="scale(0.015625)"/>
       <path id="DejaVuSans-77" d="M 269 3500 
L 844 3500 
L 1563 769 
L 2278 3500 
L 2956 3500 
L 3675 769 
L 4391 3500 
L 4966 3500 
L 4050 0 
L 3372 0 
L 2619 2869 
L 1863 0 
L 1184 0 
L 269 3500 
z
" transform="scale(0.015625)"/>
      </defs>
      <use xlink:href="#DejaVuSans-4d"/>
      <use xlink:href="#DejaVuSans-61" transform="translate(86.279297 0)"/>
      <use xlink:href="#DejaVuSans-78" transform="translate(147.558594 0)"/>
      <use xlink:href="#DejaVuSans-77" transform="translate(206.738281 0)"/>
     </g>
    </g>
   </g>
  </g>
 </g>
 <defs>
  <clipPath id="p83a3c15dc5">
   <rect x="57.6" y="41.472" width="357.12" height="266.112"/>
  </clipPath>
 </defs>
</svg>
